G04 start of page 2 for group 0 layer_idx 12 *
G04 Title: (unknown), top_paste *
G04 Creator: pcb-rnd 2.2.4 *
G04 CreationDate: 2020-09-30 02:20:23 UTC *
G04 For:  *
G04 Format: Gerber/RS-274X *
G04 PCB-Dimensions: 416500 193500 *
G04 PCB-Coordinate-Origin: lower left *
%MOIN*%
%FSLAX25Y25*%
%LNTOP_PASTE_NONE_0*%
%ADD191C,0.0001*%
G54D191*G36*
X90000Y49000D02*X81500D01*
Y51000D01*
X90000D01*
Y49000D01*
G37*
G36*
Y44000D02*X81500D01*
Y46000D01*
X90000D01*
Y44000D01*
G37*
G36*
Y39000D02*X81500D01*
Y41000D01*
X90000D01*
Y39000D01*
G37*
G36*
X157260Y58964D02*Y53846D01*
X164740D01*
Y58964D01*
X157260D01*
G37*
G36*
X90000Y34000D02*X81500D01*
Y36000D01*
X90000D01*
Y34000D01*
G37*
G36*
X107760Y72654D02*Y67536D01*
X115240D01*
Y72654D01*
X107760D01*
G37*
G36*
X117000Y50500D02*X125500D01*
Y48500D01*
X117000D01*
Y50500D01*
G37*
G36*
Y45500D02*X125500D01*
Y43500D01*
X117000D01*
Y45500D01*
G37*
G36*
Y35500D02*X125500D01*
Y33500D01*
X117000D01*
Y35500D01*
G37*
G36*
Y40500D02*X125500D01*
Y38500D01*
X117000D01*
Y40500D01*
G37*
G36*
X146000Y38500D02*X137500D01*
Y40500D01*
X146000D01*
Y38500D01*
G37*
G36*
X157260Y47154D02*Y42036D01*
X164740D01*
Y47154D01*
X157260D01*
G37*
G36*
X176260Y52869D02*Y47751D01*
X183740D01*
Y52869D01*
X176260D01*
G37*
G36*
X146000Y33500D02*X137500D01*
Y35500D01*
X146000D01*
Y33500D01*
G37*
G36*
X123559Y24240D02*X118441D01*
Y16760D01*
X123559D01*
Y24240D01*
G37*
G36*
X135369D02*X130251D01*
Y16760D01*
X135369D01*
Y24240D01*
G37*
G36*
X176260Y41059D02*Y35941D01*
X183740D01*
Y41059D01*
X176260D01*
G37*
G36*
X146000Y48500D02*X137500D01*
Y50500D01*
X146000D01*
Y48500D01*
G37*
G36*
Y43500D02*X137500D01*
Y45500D01*
X146000D01*
Y43500D01*
G37*
G36*
X107760Y84464D02*Y79346D01*
X115240D01*
Y84464D01*
X107760D01*
G37*
G36*
X182154Y94740D02*X177036D01*
Y87260D01*
X182154D01*
Y94740D01*
G37*
G36*
X193964D02*X188846D01*
Y87260D01*
X193964D01*
Y94740D01*
G37*
G36*
X198203Y87984D02*Y86016D01*
X201352D01*
Y87984D01*
X198203D01*
G37*
G36*
Y91724D02*Y89756D01*
X201352D01*
Y91724D01*
X198203D01*
G37*
G36*
Y84244D02*Y82276D01*
X201352D01*
Y84244D01*
X198203D01*
G37*
G36*
X207651D02*Y82276D01*
X210800D01*
Y84244D01*
X207651D01*
G37*
G36*
Y91724D02*Y89756D01*
X210800D01*
Y91724D01*
X207651D01*
G37*
G36*
X215059Y77952D02*X209941D01*
Y72048D01*
X215059D01*
Y77952D01*
G37*
G36*
X222145D02*X217027D01*
Y72048D01*
X222145D01*
Y77952D01*
G37*
G36*
X218654Y97240D02*X213536D01*
Y89760D01*
X218654D01*
Y97240D01*
G37*
G36*
X232654Y115240D02*X227536D01*
Y107760D01*
X232654D01*
Y115240D01*
G37*
G36*
X244464D02*X239346D01*
Y107760D01*
X244464D01*
Y115240D01*
G37*
G36*
X230464Y97240D02*X225346D01*
Y89760D01*
X230464D01*
Y97240D01*
G37*
G36*
X61000Y51000D02*X69500D01*
Y49000D01*
X61000D01*
Y51000D01*
G37*
G36*
Y46000D02*X69500D01*
Y44000D01*
X61000D01*
Y46000D01*
G37*
G36*
Y41000D02*X69500D01*
Y39000D01*
X61000D01*
Y41000D01*
G37*
G36*
Y36000D02*X69500D01*
Y34000D01*
X61000D01*
Y36000D01*
G37*
M02*
