G04 start of page 5 for group 12 layer_idx 6 *
G04 Title: (unknown), Intern *
G04 Creator: pcb-rnd 2.2.2 *
G04 CreationDate: 2020-09-08 23:24:47 UTC *
G04 For:  *
G04 Format: Gerber/RS-274X *
G04 PCB-Dimensions: 416500 193500 *
G04 PCB-Coordinate-Origin: lower left *
%MOIN*%
%FSLAX25Y25*%
%LNINTERN_COPPER_NONE_12*%
%ADD146C,0.0320*%
%ADD145C,0.0374*%
%ADD144C,0.0790*%
%ADD143C,0.0358*%
%ADD142C,0.0925*%
%ADD141C,0.0200*%
%ADD140C,0.0710*%
%ADD139C,0.0650*%
%ADD138C,0.0400*%
%ADD137C,0.0276*%
%ADD136C,0.0350*%
%ADD135C,0.0394*%
%ADD134C,0.0984*%
%ADD133C,0.2000*%
%ADD132C,0.0591*%
%ADD131C,0.1575*%
%ADD130C,0.0360*%
%ADD129C,0.1050*%
%ADD128C,0.0689*%
%ADD127C,0.0001*%
%ADD126C,0.0600*%
%ADD125C,0.0800*%
G54D125*X95500Y65000D03*
G54D126*X170500Y56500D03*
G54D127*G36*
X134055Y77945D02*X140945D01*
Y71055D01*
X134055D01*
Y77945D01*
G37*
G54D128*X147343Y74500D03*
G54D126*X179552Y81500D03*
X111500Y20500D03*
X142500D03*
G54D125*X93100Y78500D03*
X112500Y95500D03*
G54D127*G36*
X89000Y118500D02*X97000D01*
Y110500D01*
X89000D01*
Y118500D01*
G37*
G54D125*X112700Y114500D03*
G54D127*G36*
X124043Y107500D02*X132043D01*
Y99500D01*
X124043D01*
Y107500D01*
G37*
G36*
X194000Y23500D02*X202000D01*
Y15500D01*
X194000D01*
Y23500D01*
G37*
G54D125*X168043Y103500D03*
G54D127*G36*
X254000Y116000D02*X262000D01*
Y108000D01*
X254000D01*
Y116000D01*
G37*
G54D126*X237405Y93457D03*
X229086Y74957D03*
G54D127*G36*
X254500Y91000D02*X262500D01*
Y83000D01*
X254500D01*
Y91000D01*
G37*
G54D126*X268000Y13000D03*
G54D127*G36*
X254500Y58000D02*X262500D01*
Y50000D01*
X254500D01*
Y58000D01*
G37*
G54D125*X268500Y54000D03*
X278500D03*
X238000Y19500D03*
X288500Y54000D03*
X298500D03*
X268500Y87000D03*
X278500D03*
X288500D03*
X298500D03*
G54D129*X22000Y181000D03*
X42000D03*
X13500Y131000D03*
Y116000D03*
X32000D03*
G54D127*G36*
X26750Y136250D02*X37250D01*
Y125750D01*
X26750D01*
Y136250D01*
G37*
G54D129*X50500Y131000D03*
Y116000D03*
G54D125*X40000Y105000D03*
G54D130*X64500Y15500D03*
G54D127*G36*
X51500Y69000D02*X59500D01*
Y61000D01*
X51500D01*
Y69000D01*
G37*
G36*
X36000Y61000D02*Y69000D01*
X44000D01*
Y61000D01*
X36000D01*
G37*
G36*
X54800Y82500D02*X62800D01*
Y74500D01*
X54800D01*
Y82500D01*
G37*
G36*
X18000Y61000D02*Y69000D01*
X26000D01*
Y61000D01*
X18000D01*
G37*
G54D125*X22000Y105000D03*
G54D127*G36*
X68500Y99500D02*X76500D01*
Y91500D01*
X68500D01*
Y99500D01*
G37*
G54D131*X90425Y165933D03*
G54D132*X103614Y144280D03*
X111882Y154122D03*
X103614D03*
G54D131*X117000Y169083D03*
X143575Y165933D03*
G54D132*X130386Y154122D03*
G54D133*X260500Y160500D03*
G54D127*G36*
X163949Y169782D02*Y159939D01*
X173791D01*
Y169782D01*
X163949D01*
G37*
G54D134*X227925Y164860D03*
G54D132*X130386Y144280D03*
G54D133*X300500Y160500D03*
G54D125*X298000Y112000D03*
X270500Y140500D03*
X280500D03*
G54D127*G36*
X156713Y133945D02*X163602D01*
Y127055D01*
X156713D01*
Y133945D01*
G37*
G54D128*X170000Y130500D03*
G54D127*G36*
X196038Y133888D02*X202927D01*
Y126999D01*
X196038D01*
Y133888D01*
G37*
G54D128*X209325Y130444D03*
G54D135*G54D136*G54D137*G54D136*G54D135*G54D136*G54D138*G54D136*G54D138*G54D135*G54D138*G54D139*G54D140*G54D135*G54D141*G54D135*G54D142*G54D143*G54D142*G54D143*G54D144*G54D145*G54D143*G54D144*G54D135*G54D146*G54D137*M02*
