G04 start of page 2 for group 16 layer_idx 1 *
G04 Title: (unknown), bottom_copper *
G04 Creator: pcb-rnd 2.2.1 *
G04 CreationDate: 2020-07-01 19:56:37 UTC *
G04 For:  *
G04 Format: Gerber/RS-274X *
G04 PCB-Dimensions: 416500 193500 *
G04 PCB-Coordinate-Origin: lower left *
%MOIN*%
%FSLAX25Y25*%
%LNBOTTOM_COPPER_NONE_16*%
%ADD62C,0.0280*%
%ADD61C,0.0276*%
%ADD60C,0.0380*%
%ADD59C,0.0320*%
%ADD58C,0.0394*%
%ADD57C,0.0420*%
%ADD56C,0.0790*%
%ADD55C,0.0358*%
%ADD54C,0.0925*%
%ADD53C,0.0710*%
%ADD52C,0.0650*%
%ADD51C,0.0550*%
%ADD50C,0.0689*%
%ADD49C,0.0600*%
%ADD48C,0.0720*%
%ADD47C,0.0800*%
%ADD46C,0.2000*%
%ADD45C,0.0591*%
%ADD44C,0.1575*%
%ADD43C,0.1050*%
%ADD42C,0.0300*%
%ADD41C,0.0400*%
%ADD40C,0.0250*%
%ADD39C,0.0200*%
%ADD38C,0.0090*%
%ADD37C,0.0100*%
%ADD36C,0.0001*%
G54D36*G36*
X245000Y148500D02*Y140500D01*
X238000D01*
Y148500D01*
X245000D01*
G37*
G36*
Y141500D02*Y82000D01*
X241622Y78622D01*
Y88259D01*
X241638Y88266D01*
X241974Y88471D01*
X242273Y88727D01*
X242529Y89026D01*
X242734Y89362D01*
X242885Y89725D01*
X242977Y90108D01*
X243008Y90500D01*
X243000Y90598D01*
Y98402D01*
X243008Y98500D01*
X242977Y98892D01*
X242977Y98892D01*
X242885Y99275D01*
X242734Y99638D01*
X242529Y99974D01*
X242273Y100273D01*
X241974Y100529D01*
X241638Y100734D01*
X241622Y100741D01*
Y131658D01*
X241703Y131665D01*
X241894Y131712D01*
X242076Y131788D01*
X242243Y131892D01*
X242392Y132020D01*
X242519Y132170D01*
X242621Y132339D01*
X242692Y132522D01*
X242848Y133075D01*
X242949Y133640D01*
X243000Y134213D01*
Y134787D01*
X242949Y135360D01*
X242848Y135925D01*
X242698Y136480D01*
X242625Y136663D01*
X242522Y136832D01*
X242395Y136983D01*
X242245Y137111D01*
X242078Y137215D01*
X241896Y137292D01*
X241704Y137339D01*
X241622Y137346D01*
Y141500D01*
X245000D01*
G37*
G36*
Y163500D02*Y147500D01*
X241622D01*
Y163500D01*
X245000D01*
G37*
G36*
X236502Y73502D02*Y88000D01*
X240402D01*
X240500Y87992D01*
X240892Y88023D01*
X240892Y88023D01*
X241275Y88115D01*
X241622Y88259D01*
Y78622D01*
X236502Y73502D01*
G37*
G36*
X241622Y163500D02*Y147500D01*
X241500D01*
X241029Y147472D01*
X240570Y147362D01*
X240134Y147181D01*
X239731Y146935D01*
X239372Y146628D01*
X239065Y146269D01*
X238819Y145866D01*
X238638Y145430D01*
X238528Y144971D01*
X238491Y144500D01*
X238528Y144029D01*
X238638Y143570D01*
X238819Y143134D01*
X239065Y142731D01*
X239372Y142372D01*
X239731Y142065D01*
X240134Y141819D01*
X240570Y141638D01*
X241029Y141528D01*
X241500Y141500D01*
X241622D01*
Y137346D01*
X241507Y137355D01*
X241310Y137341D01*
X241118Y137296D01*
X240936Y137221D01*
X240767Y137119D01*
X240616Y136991D01*
X240487Y136842D01*
X240383Y136674D01*
X240307Y136492D01*
X240260Y136301D01*
X240243Y136104D01*
X240258Y135907D01*
X240307Y135716D01*
X240403Y135376D01*
X240465Y135029D01*
X240496Y134677D01*
Y134323D01*
X240465Y133971D01*
X240403Y133624D01*
X240310Y133283D01*
X240262Y133092D01*
X240247Y132896D01*
X240264Y132700D01*
X240310Y132509D01*
X240387Y132328D01*
X240490Y132160D01*
X240619Y132011D01*
X240769Y131884D01*
X240937Y131782D01*
X241119Y131708D01*
X241311Y131663D01*
X241507Y131649D01*
X241622Y131658D01*
Y100741D01*
X241275Y100885D01*
X240892Y100977D01*
X240500Y101008D01*
X240402Y101000D01*
X236502D01*
Y128000D01*
X236787D01*
X237360Y128051D01*
X237925Y128152D01*
X238480Y128302D01*
X238663Y128375D01*
X238832Y128478D01*
X238983Y128605D01*
X239111Y128755D01*
X239215Y128922D01*
X239292Y129104D01*
X239339Y129296D01*
X239355Y129493D01*
X239341Y129690D01*
X239296Y129882D01*
X239221Y130064D01*
X239119Y130233D01*
X238991Y130384D01*
X238842Y130513D01*
X238674Y130617D01*
X238492Y130693D01*
X238301Y130740D01*
X238104Y130757D01*
X237907Y130742D01*
X237716Y130693D01*
X237376Y130597D01*
X237029Y130535D01*
X236677Y130504D01*
X236502D01*
Y138496D01*
X236677D01*
X237029Y138465D01*
X237376Y138403D01*
X237717Y138310D01*
X237908Y138262D01*
X238104Y138247D01*
X238300Y138264D01*
X238491Y138310D01*
X238672Y138387D01*
X238840Y138490D01*
X238989Y138619D01*
X239116Y138769D01*
X239218Y138937D01*
X239292Y139119D01*
X239337Y139311D01*
X239351Y139507D01*
X239335Y139703D01*
X239288Y139894D01*
X239212Y140076D01*
X239108Y140243D01*
X238980Y140392D01*
X238830Y140519D01*
X238661Y140621D01*
X238478Y140692D01*
X237925Y140848D01*
X237360Y140949D01*
X236787Y141000D01*
X236502D01*
Y163500D01*
X241622D01*
G37*
G36*
X231725Y88115D02*X232108Y88023D01*
X232500Y87992D01*
X232598Y88000D01*
X236502D01*
Y73502D01*
X231378Y68378D01*
Y72950D01*
X231960Y73191D01*
X232832Y73725D01*
X233610Y74390D01*
X234275Y75168D01*
X234809Y76040D01*
X235201Y76985D01*
X235440Y77980D01*
X235500Y79000D01*
X235440Y80020D01*
X235201Y81015D01*
X234809Y81960D01*
X234275Y82832D01*
X233610Y83610D01*
X232832Y84275D01*
X231960Y84809D01*
X231378Y85050D01*
Y88259D01*
X231725Y88115D01*
G37*
G36*
X236502Y163500D02*Y141000D01*
X236213D01*
X235640Y140949D01*
X235075Y140848D01*
X234520Y140698D01*
X234337Y140625D01*
X234168Y140522D01*
X234017Y140395D01*
X233889Y140245D01*
X233785Y140078D01*
X233708Y139896D01*
X233661Y139704D01*
X233645Y139507D01*
X233659Y139310D01*
X233704Y139118D01*
X233779Y138936D01*
X233881Y138767D01*
X234009Y138616D01*
X234158Y138487D01*
X234326Y138383D01*
X234508Y138307D01*
X234699Y138260D01*
X234896Y138243D01*
X235093Y138258D01*
X235284Y138307D01*
X235624Y138403D01*
X235971Y138465D01*
X236323Y138496D01*
X236502D01*
Y130504D01*
X236323D01*
X235971Y130535D01*
X235624Y130597D01*
X235283Y130690D01*
X235092Y130738D01*
X234896Y130753D01*
X234700Y130736D01*
X234509Y130690D01*
X234328Y130613D01*
X234160Y130510D01*
X234011Y130381D01*
X233884Y130231D01*
X233782Y130063D01*
X233708Y129881D01*
X233663Y129689D01*
X233649Y129493D01*
X233665Y129297D01*
X233712Y129106D01*
X233788Y128924D01*
X233892Y128757D01*
X234020Y128608D01*
X234170Y128481D01*
X234339Y128379D01*
X234522Y128308D01*
X235075Y128152D01*
X235640Y128051D01*
X236213Y128000D01*
X236502D01*
Y101000D01*
X232598D01*
X232500Y101008D01*
X232108Y100977D01*
X232108Y100977D01*
X231725Y100885D01*
X231378Y100741D01*
Y131654D01*
X231493Y131645D01*
X231690Y131659D01*
X231882Y131704D01*
X232064Y131779D01*
X232233Y131881D01*
X232384Y132009D01*
X232513Y132158D01*
X232617Y132326D01*
X232693Y132508D01*
X232740Y132699D01*
X232757Y132896D01*
X232742Y133093D01*
X232693Y133284D01*
X232597Y133624D01*
X232535Y133971D01*
X232504Y134323D01*
Y134677D01*
X232535Y135029D01*
X232597Y135376D01*
X232690Y135717D01*
X232738Y135908D01*
X232753Y136104D01*
X232736Y136300D01*
X232690Y136491D01*
X232613Y136672D01*
X232510Y136840D01*
X232381Y136989D01*
X232231Y137116D01*
X232063Y137218D01*
X231881Y137292D01*
X231689Y137337D01*
X231493Y137351D01*
X231378Y137342D01*
Y146900D01*
X232541D01*
X232600Y146895D01*
X232835Y146914D01*
X232835Y146914D01*
X233065Y146969D01*
X233283Y147059D01*
X233484Y147183D01*
X233664Y147336D01*
X233817Y147516D01*
X233941Y147717D01*
X234031Y147935D01*
X234086Y148165D01*
X234105Y148400D01*
X234100Y148459D01*
Y155541D01*
X234105Y155600D01*
X234086Y155835D01*
X234086Y155835D01*
X234031Y156065D01*
X233941Y156283D01*
X233817Y156484D01*
X233664Y156664D01*
X233484Y156817D01*
X233283Y156941D01*
X233065Y157031D01*
X232835Y157086D01*
X232600Y157105D01*
X232541Y157100D01*
X231378D01*
Y163500D01*
X236502D01*
G37*
G36*
X220581Y147135D02*X221322Y147442D01*
X222007Y147861D01*
X222617Y148383D01*
X223139Y148993D01*
X223558Y149678D01*
X223865Y150419D01*
X223900Y150563D01*
Y148459D01*
X223895Y148400D01*
X223914Y148165D01*
X223914Y148165D01*
X223969Y147935D01*
X224059Y147717D01*
X224183Y147516D01*
X224336Y147336D01*
X224516Y147183D01*
X224717Y147059D01*
X224935Y146969D01*
X225165Y146914D01*
X225400Y146895D01*
X225459Y146900D01*
X231378D01*
Y137342D01*
X231297Y137335D01*
X231106Y137288D01*
X230924Y137212D01*
X230757Y137108D01*
X230608Y136980D01*
X230481Y136830D01*
X230379Y136661D01*
X230308Y136478D01*
X230152Y135925D01*
X230051Y135360D01*
X230000Y134787D01*
Y134213D01*
X230051Y133640D01*
X230152Y133075D01*
X230302Y132520D01*
X230375Y132337D01*
X230478Y132168D01*
X230605Y132017D01*
X230755Y131889D01*
X230922Y131785D01*
X231104Y131708D01*
X231296Y131661D01*
X231378Y131654D01*
Y100741D01*
X231362Y100734D01*
X231026Y100529D01*
X230727Y100273D01*
X230471Y99974D01*
X230266Y99638D01*
X230115Y99275D01*
X230023Y98892D01*
X229992Y98500D01*
X230000Y98402D01*
Y90598D01*
X229992Y90500D01*
X230023Y90108D01*
X230023Y90108D01*
X230115Y89725D01*
X230266Y89362D01*
X230471Y89026D01*
X230727Y88727D01*
X231026Y88471D01*
X231362Y88266D01*
X231378Y88259D01*
Y85050D01*
X231015Y85201D01*
X230020Y85440D01*
X229000Y85520D01*
X227980Y85440D01*
X226985Y85201D01*
X226040Y84809D01*
X225168Y84275D01*
X224390Y83610D01*
X223725Y82832D01*
X223191Y81960D01*
X222799Y81015D01*
X222560Y80020D01*
X222480Y79000D01*
X222560Y77980D01*
X222799Y76985D01*
X223191Y76040D01*
X223725Y75168D01*
X224390Y74390D01*
X225168Y73725D01*
X226040Y73191D01*
X226985Y72799D01*
X227980Y72560D01*
X229000Y72480D01*
X230020Y72560D01*
X231015Y72799D01*
X231378Y72950D01*
Y68378D01*
X227500Y64500D01*
X220490D01*
Y88000D01*
X224402D01*
X224500Y87992D01*
X224892Y88023D01*
X224892Y88023D01*
X225275Y88115D01*
X225638Y88266D01*
X225974Y88471D01*
X226273Y88727D01*
X226529Y89026D01*
X226734Y89362D01*
X226885Y89725D01*
X226977Y90108D01*
X227008Y90500D01*
X227000Y90598D01*
Y98402D01*
X227008Y98500D01*
X226977Y98892D01*
X226977Y98892D01*
X226885Y99275D01*
X226734Y99638D01*
X226529Y99974D01*
X226273Y100273D01*
X225974Y100529D01*
X225638Y100734D01*
X225275Y100885D01*
X224892Y100977D01*
X224500Y101008D01*
X224402Y101000D01*
X220490D01*
Y127981D01*
X220500Y127980D01*
X221520Y128060D01*
X222515Y128299D01*
X223460Y128691D01*
X224332Y129225D01*
X225110Y129890D01*
X225775Y130668D01*
X226309Y131540D01*
X226701Y132485D01*
X226940Y133480D01*
X227000Y134500D01*
X226940Y135520D01*
X226701Y136515D01*
X226309Y137460D01*
X225775Y138332D01*
X225110Y139110D01*
X224332Y139775D01*
X223460Y140309D01*
X222515Y140701D01*
X221520Y140940D01*
X220500Y141020D01*
X220490Y141019D01*
Y147113D01*
X220581Y147135D01*
G37*
G36*
X231378Y163500D02*Y157100D01*
X225459D01*
X225400Y157105D01*
X225165Y157086D01*
X225165Y157086D01*
X224935Y157031D01*
X224717Y156941D01*
X224516Y156817D01*
X224336Y156664D01*
X224183Y156484D01*
X224059Y156283D01*
X223969Y156065D01*
X223914Y155835D01*
X223895Y155600D01*
X223900Y155541D01*
Y153437D01*
X223865Y153581D01*
X223558Y154322D01*
X223139Y155007D01*
X222617Y155617D01*
X222007Y156139D01*
X221322Y156558D01*
X220581Y156865D01*
X220490Y156887D01*
Y163500D01*
X231378D01*
G37*
G36*
X205993Y147861D02*X206678Y147442D01*
X207419Y147135D01*
X208200Y146947D01*
X209000Y146884D01*
X209800Y146947D01*
X210581Y147135D01*
X211322Y147442D01*
X212007Y147861D01*
X212617Y148383D01*
X213139Y148993D01*
X213558Y149678D01*
X213865Y150419D01*
X214000Y150980D01*
X214135Y150419D01*
X214442Y149678D01*
X214861Y148993D01*
X215383Y148383D01*
X215993Y147861D01*
X216678Y147442D01*
X217419Y147135D01*
X218200Y146947D01*
X219000Y146884D01*
X219800Y146947D01*
X220490Y147113D01*
Y141019D01*
X219480Y140940D01*
X218485Y140701D01*
X217540Y140309D01*
X216668Y139775D01*
X215890Y139110D01*
X215225Y138332D01*
X214691Y137460D01*
X214299Y136515D01*
X214060Y135520D01*
X213980Y134500D01*
X214060Y133480D01*
X214299Y132485D01*
X214691Y131540D01*
X215225Y130668D01*
X215890Y129890D01*
X216668Y129225D01*
X217540Y128691D01*
X218485Y128299D01*
X219480Y128060D01*
X220490Y127981D01*
Y101000D01*
X216598D01*
X216500Y101008D01*
X216108Y100977D01*
X216108Y100977D01*
X215725Y100885D01*
X215362Y100734D01*
X215026Y100529D01*
X214727Y100273D01*
X214471Y99974D01*
X214266Y99638D01*
X214115Y99275D01*
X214023Y98892D01*
X213992Y98500D01*
X214000Y98402D01*
Y90598D01*
X213992Y90500D01*
X214023Y90108D01*
X214023Y90108D01*
X214115Y89725D01*
X214266Y89362D01*
X214471Y89026D01*
X214727Y88727D01*
X215026Y88471D01*
X215362Y88266D01*
X215725Y88115D01*
X216108Y88023D01*
X216500Y87992D01*
X216598Y88000D01*
X220490D01*
Y64500D01*
X205960D01*
Y124074D01*
X205965Y124074D01*
X206160Y124101D01*
X206348Y124159D01*
X206525Y124245D01*
X206686Y124358D01*
X206827Y124495D01*
X206946Y124652D01*
X207038Y124825D01*
X207098Y125012D01*
X207227Y125600D01*
X207287Y126199D01*
Y126801D01*
X207227Y127400D01*
X207106Y127989D01*
X207042Y128176D01*
X206949Y128351D01*
X206831Y128508D01*
X206689Y128646D01*
X206527Y128759D01*
X206349Y128845D01*
X206161Y128903D01*
X205965Y128931D01*
X205960Y128931D01*
Y147890D01*
X205993Y147861D01*
G37*
G36*
X220490Y163500D02*Y156887D01*
X219800Y157053D01*
X219000Y157116D01*
X218200Y157053D01*
X217419Y156865D01*
X216678Y156558D01*
X215993Y156139D01*
X215383Y155617D01*
X214861Y155007D01*
X214442Y154322D01*
X214135Y153581D01*
X214000Y153020D01*
X213865Y153581D01*
X213558Y154322D01*
X213139Y155007D01*
X212617Y155617D01*
X212007Y156139D01*
X211322Y156558D01*
X210581Y156865D01*
X209800Y157053D01*
X209000Y157116D01*
X208200Y157053D01*
X207419Y156865D01*
X206678Y156558D01*
X205993Y156139D01*
X205960Y156110D01*
Y163500D01*
X220490D01*
G37*
G36*
X205960D02*Y156110D01*
X205383Y155617D01*
X204861Y155007D01*
X204442Y154322D01*
X204135Y153581D01*
X203947Y152800D01*
X203884Y152000D01*
X203947Y151200D01*
X204135Y150419D01*
X204442Y149678D01*
X204861Y148993D01*
X205383Y148383D01*
X205960Y147890D01*
Y128931D01*
X205768Y128927D01*
X205573Y128893D01*
X205387Y128829D01*
X205212Y128736D01*
X205054Y128617D01*
X204917Y128475D01*
X204804Y128314D01*
X204717Y128136D01*
X204660Y127947D01*
X204632Y127752D01*
X204636Y127554D01*
X204674Y127361D01*
X204748Y127021D01*
X204783Y126674D01*
Y126326D01*
X204748Y125979D01*
X204678Y125638D01*
X204640Y125445D01*
X204637Y125249D01*
X204664Y125054D01*
X204722Y124866D01*
X204808Y124689D01*
X204921Y124528D01*
X205057Y124386D01*
X205215Y124268D01*
X205388Y124175D01*
X205574Y124111D01*
X205768Y124077D01*
X205960Y124074D01*
Y64500D01*
X201345D01*
Y120555D01*
X201643D01*
X202242Y120616D01*
X202832Y120737D01*
X203019Y120800D01*
X203193Y120893D01*
X203351Y121012D01*
X203488Y121154D01*
X203601Y121316D01*
X203688Y121493D01*
X203746Y121682D01*
X203773Y121877D01*
X203770Y122075D01*
X203736Y122269D01*
X203671Y122456D01*
X203579Y122630D01*
X203460Y122788D01*
X203318Y122925D01*
X203156Y123039D01*
X202979Y123125D01*
X202790Y123183D01*
X202594Y123210D01*
X202397Y123207D01*
X202203Y123169D01*
X201863Y123095D01*
X201517Y123060D01*
X201345D01*
Y129940D01*
X201517D01*
X201863Y129905D01*
X202204Y129835D01*
X202397Y129797D01*
X202594Y129794D01*
X202789Y129821D01*
X202977Y129879D01*
X203154Y129965D01*
X203315Y130078D01*
X203456Y130215D01*
X203575Y130372D01*
X203667Y130546D01*
X203731Y130732D01*
X203765Y130926D01*
X203769Y131122D01*
X203741Y131317D01*
X203684Y131505D01*
X203598Y131682D01*
X203485Y131843D01*
X203348Y131985D01*
X203191Y132103D01*
X203017Y132195D01*
X202830Y132256D01*
X202242Y132384D01*
X201643Y132445D01*
X201345D01*
Y163500D01*
X205960D01*
G37*
G36*
X201345D02*Y132445D01*
X201042D01*
X200443Y132384D01*
X199853Y132263D01*
X199666Y132200D01*
X199492Y132107D01*
X199334Y131988D01*
X199197Y131846D01*
X199084Y131684D01*
X198997Y131507D01*
X198939Y131318D01*
X198912Y131123D01*
X198915Y130925D01*
X198950Y130731D01*
X199014Y130544D01*
X199106Y130370D01*
X199225Y130212D01*
X199367Y130075D01*
X199529Y129961D01*
X199706Y129875D01*
X199895Y129817D01*
X200091Y129790D01*
X200288Y129793D01*
X200482Y129831D01*
X200822Y129905D01*
X201168Y129940D01*
X201345D01*
Y123060D01*
X201168D01*
X200822Y123095D01*
X200481Y123165D01*
X200288Y123203D01*
X200091Y123206D01*
X199896Y123179D01*
X199708Y123121D01*
X199531Y123035D01*
X199370Y122922D01*
X199229Y122785D01*
X199110Y122628D01*
X199018Y122454D01*
X198954Y122268D01*
X198920Y122074D01*
X198916Y121878D01*
X198944Y121683D01*
X199001Y121495D01*
X199088Y121318D01*
X199200Y121157D01*
X199337Y121015D01*
X199494Y120897D01*
X199668Y120805D01*
X199855Y120744D01*
X200443Y120616D01*
X201042Y120555D01*
X201345D01*
Y64500D01*
X189500D01*
X189460Y64540D01*
Y72500D01*
X192902D01*
X193000Y72492D01*
X193392Y72523D01*
X193392Y72523D01*
X193775Y72615D01*
X194138Y72766D01*
X194474Y72971D01*
X194773Y73227D01*
X195029Y73526D01*
X195234Y73862D01*
X195385Y74225D01*
X195477Y74608D01*
X195508Y75000D01*
X195500Y75098D01*
Y82902D01*
X195508Y83000D01*
X195477Y83392D01*
X195477Y83392D01*
X195385Y83775D01*
X195234Y84138D01*
X195029Y84474D01*
X194773Y84773D01*
X194474Y85029D01*
X194138Y85234D01*
X193775Y85385D01*
X193392Y85477D01*
X193000Y85508D01*
X192902Y85500D01*
X189460D01*
Y98074D01*
X189465Y98074D01*
X189660Y98101D01*
X189848Y98159D01*
X190025Y98245D01*
X190186Y98358D01*
X190327Y98495D01*
X190446Y98652D01*
X190538Y98825D01*
X190598Y99012D01*
X190727Y99600D01*
X190787Y100199D01*
Y100801D01*
X190727Y101400D01*
X190606Y101989D01*
X190542Y102176D01*
X190449Y102351D01*
X190331Y102508D01*
X190189Y102646D01*
X190027Y102759D01*
X189849Y102845D01*
X189661Y102903D01*
X189465Y102931D01*
X189460Y102931D01*
Y120555D01*
X194847D01*
X194945Y120547D01*
X195337Y120578D01*
X195337Y120578D01*
X195720Y120670D01*
X196083Y120821D01*
X196419Y121026D01*
X196718Y121282D01*
X196974Y121581D01*
X197179Y121917D01*
X197330Y122280D01*
X197422Y122663D01*
X197453Y123055D01*
X197445Y123153D01*
Y124249D01*
X197473Y124264D01*
X197631Y124383D01*
X197768Y124525D01*
X197881Y124686D01*
X197968Y124864D01*
X198025Y125053D01*
X198053Y125248D01*
X198049Y125446D01*
X198011Y125639D01*
X197937Y125979D01*
X197902Y126326D01*
Y126674D01*
X197937Y127021D01*
X198007Y127362D01*
X198045Y127555D01*
X198048Y127751D01*
X198021Y127946D01*
X197964Y128134D01*
X197877Y128311D01*
X197764Y128472D01*
X197628Y128614D01*
X197470Y128732D01*
X197445Y128746D01*
Y129847D01*
X197453Y129945D01*
X197422Y130337D01*
X197422Y130337D01*
X197330Y130720D01*
X197179Y131083D01*
X196974Y131419D01*
X196718Y131718D01*
X196419Y131974D01*
X196083Y132179D01*
X195720Y132330D01*
X195337Y132422D01*
X194945Y132453D01*
X194847Y132445D01*
X189460D01*
Y145516D01*
X190020Y145560D01*
X191015Y145799D01*
X191960Y146191D01*
X192832Y146725D01*
X193610Y147390D01*
X194275Y148168D01*
X194809Y149040D01*
X195201Y149985D01*
X195440Y150980D01*
X195500Y152000D01*
X195440Y153020D01*
X195201Y154015D01*
X194809Y154960D01*
X194275Y155832D01*
X193610Y156610D01*
X192832Y157275D01*
X191960Y157809D01*
X191015Y158201D01*
X190020Y158440D01*
X189460Y158484D01*
Y163500D01*
X201345D01*
G37*
G36*
X185098Y85500D02*X185000Y85508D01*
X184608Y85477D01*
X184608Y85477D01*
X184225Y85385D01*
X184000Y85292D01*
Y94610D01*
X184542Y94555D01*
X185143D01*
X185742Y94616D01*
X186332Y94737D01*
X186519Y94800D01*
X186693Y94893D01*
X186851Y95012D01*
X186988Y95154D01*
X187101Y95316D01*
X187188Y95493D01*
X187246Y95682D01*
X187273Y95877D01*
X187270Y96075D01*
X187236Y96269D01*
X187171Y96456D01*
X187079Y96630D01*
X186960Y96788D01*
X186818Y96925D01*
X186656Y97039D01*
X186479Y97125D01*
X186290Y97183D01*
X186094Y97210D01*
X185897Y97207D01*
X185703Y97169D01*
X185363Y97095D01*
X185017Y97060D01*
X184668D01*
X184322Y97095D01*
X184000Y97161D01*
Y103835D01*
X184322Y103905D01*
X184668Y103940D01*
X185017D01*
X185363Y103905D01*
X185704Y103835D01*
X185897Y103797D01*
X186094Y103794D01*
X186289Y103821D01*
X186477Y103879D01*
X186654Y103965D01*
X186815Y104078D01*
X186956Y104215D01*
X187075Y104372D01*
X187167Y104546D01*
X187231Y104732D01*
X187265Y104926D01*
X187269Y105122D01*
X187241Y105317D01*
X187184Y105505D01*
X187098Y105682D01*
X186985Y105843D01*
X186848Y105985D01*
X186691Y106103D01*
X186517Y106195D01*
X186330Y106256D01*
X185742Y106384D01*
X185143Y106445D01*
X184542D01*
X184000Y106390D01*
Y147846D01*
X184390Y147390D01*
X185168Y146725D01*
X186040Y146191D01*
X186985Y145799D01*
X187980Y145560D01*
X189000Y145480D01*
X189460Y145516D01*
Y132445D01*
X188153D01*
X188055Y132453D01*
X187663Y132422D01*
X187663Y132422D01*
X187280Y132330D01*
X186917Y132179D01*
X186581Y131974D01*
X186282Y131718D01*
X186026Y131419D01*
X185821Y131083D01*
X185670Y130720D01*
X185578Y130337D01*
X185547Y129945D01*
X185555Y129847D01*
Y123153D01*
X185547Y123055D01*
X185578Y122663D01*
X185578Y122663D01*
X185670Y122280D01*
X185821Y121917D01*
X186026Y121581D01*
X186282Y121282D01*
X186581Y121026D01*
X186917Y120821D01*
X187280Y120670D01*
X187663Y120578D01*
X188055Y120547D01*
X188153Y120555D01*
X189460D01*
Y102931D01*
X189268Y102927D01*
X189073Y102893D01*
X188887Y102829D01*
X188712Y102736D01*
X188554Y102617D01*
X188417Y102475D01*
X188304Y102314D01*
X188217Y102136D01*
X188160Y101947D01*
X188132Y101752D01*
X188136Y101554D01*
X188174Y101361D01*
X188248Y101021D01*
X188283Y100674D01*
Y100326D01*
X188248Y99979D01*
X188178Y99638D01*
X188140Y99445D01*
X188137Y99249D01*
X188164Y99054D01*
X188222Y98866D01*
X188308Y98689D01*
X188421Y98528D01*
X188557Y98386D01*
X188715Y98268D01*
X188888Y98175D01*
X189074Y98111D01*
X189268Y98077D01*
X189460Y98074D01*
Y85500D01*
X185098D01*
G37*
G36*
X184000Y70000D02*Y72708D01*
X184225Y72615D01*
X184608Y72523D01*
X185000Y72492D01*
X185098Y72500D01*
X189460D01*
Y64540D01*
X184000Y70000D01*
G37*
G36*
X189460Y163500D02*Y158484D01*
X189000Y158520D01*
X187980Y158440D01*
X186985Y158201D01*
X186040Y157809D01*
X185168Y157275D01*
X184390Y156610D01*
X184000Y156154D01*
Y163500D01*
X189460D01*
G37*
G36*
X175363Y145863D02*X175513Y145736D01*
X175681Y145633D01*
X175863Y145558D01*
X176054Y145512D01*
X176250Y145500D01*
X181750D01*
X181946Y145512D01*
X182137Y145558D01*
X182319Y145633D01*
X182487Y145736D01*
X182637Y145863D01*
X182764Y146013D01*
X182867Y146181D01*
X182942Y146363D01*
X182988Y146554D01*
X183004Y146750D01*
X182988Y146946D01*
X182942Y147137D01*
X182867Y147319D01*
X182764Y147487D01*
X182637Y147637D01*
X182487Y147764D01*
X182319Y147867D01*
X182137Y147942D01*
X181946Y147988D01*
X181750Y148000D01*
X183000D01*
Y149250D01*
X183012Y149054D01*
X183058Y148863D01*
X183133Y148681D01*
X183236Y148513D01*
X183363Y148363D01*
X183513Y148236D01*
X183681Y148133D01*
X183795Y148085D01*
X184000Y147846D01*
Y106390D01*
X183943Y106384D01*
X183353Y106263D01*
X183166Y106200D01*
X182992Y106107D01*
X182834Y105988D01*
X182697Y105846D01*
X182584Y105684D01*
X182497Y105507D01*
X182439Y105318D01*
X182412Y105123D01*
X182415Y104925D01*
X182450Y104731D01*
X182514Y104544D01*
X182606Y104370D01*
X182725Y104212D01*
X182867Y104075D01*
X183029Y103961D01*
X183206Y103875D01*
X183395Y103817D01*
X183591Y103790D01*
X183788Y103793D01*
X183982Y103831D01*
X184000Y103835D01*
Y97161D01*
X183981Y97165D01*
X183788Y97203D01*
X183591Y97206D01*
X183396Y97179D01*
X183208Y97121D01*
X183031Y97035D01*
X182870Y96922D01*
X182729Y96785D01*
X182610Y96628D01*
X182518Y96454D01*
X182454Y96268D01*
X182420Y96074D01*
X182416Y95878D01*
X182444Y95683D01*
X182501Y95495D01*
X182588Y95318D01*
X182700Y95157D01*
X182837Y95015D01*
X182994Y94897D01*
X183168Y94805D01*
X183355Y94744D01*
X183943Y94616D01*
X184000Y94610D01*
Y85292D01*
X183862Y85234D01*
X183526Y85029D01*
X183227Y84773D01*
X182971Y84474D01*
X182766Y84138D01*
X182615Y83775D01*
X182523Y83392D01*
X182492Y83000D01*
X182500Y82902D01*
Y75098D01*
X182492Y75000D01*
X182523Y74608D01*
X182523Y74608D01*
X182615Y74225D01*
X182766Y73862D01*
X182971Y73526D01*
X183227Y73227D01*
X183526Y72971D01*
X183862Y72766D01*
X184000Y72708D01*
Y70000D01*
X175300Y78700D01*
Y94555D01*
X178347D01*
X178445Y94547D01*
X178837Y94578D01*
X178837Y94578D01*
X179220Y94670D01*
X179583Y94821D01*
X179919Y95026D01*
X180218Y95282D01*
X180474Y95581D01*
X180679Y95917D01*
X180830Y96280D01*
X180922Y96663D01*
X180953Y97055D01*
X180945Y97153D01*
Y98249D01*
X180973Y98264D01*
X181131Y98383D01*
X181268Y98525D01*
X181381Y98686D01*
X181468Y98864D01*
X181525Y99053D01*
X181553Y99248D01*
X181549Y99446D01*
X181511Y99639D01*
X181437Y99979D01*
X181402Y100326D01*
Y100674D01*
X181437Y101021D01*
X181507Y101362D01*
X181545Y101555D01*
X181548Y101751D01*
X181521Y101946D01*
X181464Y102134D01*
X181377Y102311D01*
X181264Y102472D01*
X181128Y102614D01*
X180970Y102732D01*
X180945Y102746D01*
Y103847D01*
X180953Y103945D01*
X180922Y104337D01*
X180922Y104337D01*
X180830Y104720D01*
X180679Y105083D01*
X180474Y105419D01*
X180218Y105718D01*
X179919Y105974D01*
X179583Y106179D01*
X179220Y106330D01*
X178837Y106422D01*
X178445Y106453D01*
X178347Y106445D01*
X175300D01*
Y145937D01*
X175363Y145863D01*
G37*
G36*
X176250Y148000D02*X176054Y147988D01*
X175863Y147942D01*
X175681Y147867D01*
X175513Y147764D01*
X175363Y147637D01*
X175300Y147563D01*
Y148000D01*
X176250D01*
G37*
G36*
X175363Y156363D02*X175513Y156236D01*
X175681Y156133D01*
X175863Y156058D01*
X176054Y156012D01*
X176250Y156000D01*
X175300D01*
Y156437D01*
X175363Y156363D01*
G37*
G36*
X184000Y163500D02*Y156154D01*
X183795Y155915D01*
X183681Y155867D01*
X183513Y155764D01*
X183363Y155637D01*
X183236Y155487D01*
X183133Y155319D01*
X183058Y155137D01*
X183012Y154946D01*
X183000Y154750D01*
Y156000D01*
X181750D01*
X181946Y156012D01*
X182137Y156058D01*
X182319Y156133D01*
X182487Y156236D01*
X182637Y156363D01*
X182764Y156513D01*
X182867Y156681D01*
X182942Y156863D01*
X182988Y157054D01*
X183004Y157250D01*
X182988Y157446D01*
X182942Y157637D01*
X182867Y157819D01*
X182764Y157987D01*
X182637Y158137D01*
X182487Y158264D01*
X182319Y158367D01*
X182137Y158442D01*
X181946Y158488D01*
X181750Y158500D01*
X176250D01*
X176054Y158488D01*
X175863Y158442D01*
X175681Y158367D01*
X175513Y158264D01*
X175363Y158137D01*
X175300Y158063D01*
Y163500D01*
X184000D01*
G37*
G36*
X175300D02*Y158063D01*
X175236Y157987D01*
X175133Y157819D01*
X175058Y157637D01*
X175012Y157446D01*
X174996Y157250D01*
X175012Y157054D01*
X175058Y156863D01*
X175133Y156681D01*
X175236Y156513D01*
X175300Y156437D01*
Y156000D01*
X175000D01*
Y154750D01*
X174988Y154946D01*
X174942Y155137D01*
X174867Y155319D01*
X174764Y155487D01*
X174637Y155637D01*
X174487Y155764D01*
X174319Y155867D01*
X174137Y155942D01*
X173946Y155988D01*
X173750Y156004D01*
X173554Y155988D01*
X173363Y155942D01*
X173181Y155867D01*
X173013Y155764D01*
X172863Y155637D01*
X172736Y155487D01*
X172633Y155319D01*
X172558Y155137D01*
X172512Y154946D01*
X172500Y154750D01*
Y149250D01*
X172512Y149054D01*
X172558Y148863D01*
X172633Y148681D01*
X172736Y148513D01*
X172863Y148363D01*
X173013Y148236D01*
X173181Y148133D01*
X173363Y148058D01*
X173554Y148012D01*
X173750Y147996D01*
X173946Y148012D01*
X174137Y148058D01*
X174319Y148133D01*
X174487Y148236D01*
X174637Y148363D01*
X174764Y148513D01*
X174867Y148681D01*
X174942Y148863D01*
X174988Y149054D01*
X175000Y149250D01*
Y148000D01*
X175300D01*
Y147563D01*
X175236Y147487D01*
X175133Y147319D01*
X175058Y147137D01*
X175012Y146946D01*
X174996Y146750D01*
X175012Y146554D01*
X175058Y146363D01*
X175133Y146181D01*
X175236Y146013D01*
X175300Y145937D01*
Y106445D01*
X171653D01*
X171555Y106453D01*
X171163Y106422D01*
X171163Y106422D01*
X170780Y106330D01*
X170417Y106179D01*
X170081Y105974D01*
X169782Y105718D01*
X169526Y105419D01*
X169321Y105083D01*
X169170Y104720D01*
X169078Y104337D01*
X169047Y103945D01*
X169055Y103847D01*
Y97153D01*
X169047Y97055D01*
X169078Y96663D01*
X169078Y96663D01*
X169170Y96280D01*
X169321Y95917D01*
X169526Y95581D01*
X169782Y95282D01*
X170081Y95026D01*
X170417Y94821D01*
X170780Y94670D01*
X171163Y94578D01*
X171555Y94547D01*
X171653Y94555D01*
X175300D01*
Y78700D01*
X158500Y95500D01*
Y153500D01*
X161500Y163500D01*
X175300D01*
G37*
G54D37*X25000Y172000D02*X27500Y174500D01*
X26500Y167000D02*X25000Y168500D01*
G54D38*X27500Y171000D02*X28500Y172000D01*
X27500Y171000D02*Y169500D01*
X28500Y168500D02*X27500Y169500D01*
G54D37*X25000Y172000D02*Y168500D01*
X26500Y167000D02*Y166000D01*
G54D38*X28500Y172000D02*X35000D01*
X28500Y168500D02*X30000D01*
X36500Y170500D02*X34500Y168500D01*
X35000Y172000D02*X36500Y170500D01*
G54D37*X30000Y168500D02*X28500Y167000D01*
X30000Y168500D02*X31000D01*
X28500Y167000D02*Y165000D01*
X30500Y168500D02*X37500D01*
X36500Y174500D02*X38500Y172500D01*
X27500Y174500D02*X36500D01*
X39500Y166500D02*X37500Y168500D01*
X38500Y170000D02*X39500Y169000D01*
Y166500D01*
X38500Y172500D02*Y170000D01*
X43000Y165500D02*X41500Y164000D01*
X45500Y163000D02*X43000Y165500D01*
X45500Y163000D02*Y162000D01*
X47000Y160500D02*X45500Y162000D01*
X43500D02*X45500D01*
X43500D02*X41500Y164000D01*
X47000Y160500D02*X49000D01*
X47500Y176000D02*Y163000D01*
Y176000D02*X52000D01*
Y163000D01*
X49500Y161000D02*X49000Y160500D01*
X49500Y162000D02*Y161000D01*
Y162000D02*X48500Y163000D01*
X50500D02*X49500Y162000D01*
X50500Y163000D02*X52000D01*
X47500D02*X52000D01*
X24000Y166000D02*X26500D01*
X23000Y165000D02*X24000Y166000D01*
Y164000D02*X23000Y165000D01*
X21500D02*X23000D01*
X32500Y175500D02*Y175000D01*
X30000Y176000D02*X34000D01*
X28500Y165000D02*X27500Y164000D01*
X24000D02*X27500D01*
X25500Y165000D02*Y164500D01*
G54D39*X40000Y53000D02*Y65000D01*
G54D40*X160500Y82500D02*X188500Y54500D01*
X254000D01*
X42000Y82500D02*X160500D01*
X189000Y61000D02*X251000D01*
X134500Y59900D02*X145600Y71000D01*
X270500Y78500D02*X275500Y73500D01*
X254000Y54500D02*X273000Y73500D01*
X251000Y61000D02*X263500Y73500D01*
X32000Y92500D02*X42000Y82500D01*
X32000Y92500D02*Y104500D01*
X24000Y123000D02*X32000Y131000D01*
X24000Y112500D02*Y123000D01*
Y112500D02*X32000Y104500D01*
X159000Y91000D02*X189000Y61000D01*
X270500Y78500D02*Y140500D01*
G54D41*X263000Y144500D02*X266500Y148000D01*
G54D40*X135500Y91000D02*Y122236D01*
G54D41*X241500Y144500D02*X263000D01*
G54D40*X159000Y91000D02*X135500D01*
G54D41*X307000Y75500D02*Y129000D01*
X266500Y148000D02*X288000D01*
X307000Y129000D01*
G54D40*X103614Y154122D02*Y153886D01*
X111882Y154122D02*Y163965D01*
X117000Y169083D01*
X135500Y122236D02*X103614Y154122D01*
G54D41*X81500Y9500D02*X96500Y24500D01*
G54D42*X108500Y19500D02*X112500Y15500D01*
X178500D02*X230500D01*
X112500D02*X179500D01*
G54D41*X253000Y38000D02*Y30500D01*
X248000Y25500D01*
G54D40*X297479Y73479D02*X297500Y73500D01*
G54D42*X230500Y15500D02*X240500Y25500D01*
G54D40*X297500Y63500D02*Y73500D01*
G54D41*X278500Y63500D02*X253000Y38000D01*
X248000Y25500D02*X240500D01*
X287500Y32500D02*Y53500D01*
G54D42*X96500Y34500D02*X103500D01*
X108500Y29500D01*
Y19500D01*
G54D40*X134500Y15500D02*Y59900D01*
G54D41*X264500Y9500D02*X287500Y32500D01*
G54D40*X297500Y73500D02*X280000D01*
X263500D02*X283500D01*
G54D41*X77500Y9500D02*X264500D01*
G54D40*X279500Y63500D02*X297500D01*
G54D41*Y53500D02*X278500D01*
X297500Y63500D02*X280500D01*
X297500Y73500D02*X305000D01*
X307000Y75500D01*
X20000Y53000D02*X7500Y40500D01*
G54D39*X55500Y65000D02*X22000D01*
G54D41*X7500Y40500D02*Y14500D01*
X12500Y9500D01*
X81500D01*
G54D37*X10500Y153000D02*Y156500D01*
X11000Y157000D01*
X10000Y154500D02*X11000D01*
X12000Y155500D02*Y156500D01*
Y155500D02*X12500Y155000D01*
X13500D01*
X14000Y155500D01*
Y156500D01*
X13500Y157000D02*X14000Y156500D01*
X12500Y157000D02*X13500D01*
X12000Y156500D02*X12500Y157000D01*
X17500Y153500D02*Y157000D01*
Y153500D02*X18000Y153000D01*
X18500D01*
X17000Y155000D02*X18000D01*
X19500Y153000D02*Y156500D01*
X20000Y157000D01*
X22500Y155000D02*X23000Y155500D01*
X21500Y155000D02*X22500D01*
X21000Y155500D02*X21500Y155000D01*
X21000Y155500D02*Y156500D01*
X21500Y157000D01*
X23000Y155000D02*Y156500D01*
X23500Y157000D01*
X21500D02*X22500D01*
X23000Y156500D01*
X25200Y155500D02*Y157000D01*
Y155500D02*X25700Y155000D01*
X26200D01*
X26700Y155500D01*
Y157000D01*
Y155500D02*X27200Y155000D01*
X27700D01*
X28200Y155500D01*
Y157000D01*
X24700Y155000D02*X25200Y155500D01*
X29400Y154000D02*Y154500D01*
Y155500D02*Y157000D01*
X30900Y155500D02*Y157000D01*
Y155500D02*X31400Y155000D01*
X31900D01*
X32400Y155500D01*
Y157000D01*
X30400Y155000D02*X30900Y155500D01*
X35100Y155000D02*X35600Y155500D01*
X34100Y155000D02*X35100D01*
X33600Y155500D02*X34100Y155000D01*
X33600Y155500D02*Y156500D01*
X34100Y157000D01*
X35100D01*
X35600Y156500D01*
X33600Y158000D02*X34100Y158500D01*
X35100D01*
X35600Y158000D01*
Y155000D02*Y158000D01*
X40600Y153000D02*Y157000D01*
X40100D02*X40600Y156500D01*
X39100Y157000D02*X40100D01*
X38600Y156500D02*X39100Y157000D01*
X38600Y155500D02*Y156500D01*
Y155500D02*X39100Y155000D01*
X40100D01*
X40600Y155500D01*
X41800Y155000D02*Y156500D01*
X42300Y157000D01*
X43300D01*
X43800Y156500D01*
Y155000D02*Y156500D01*
X45500Y155000D02*X47000D01*
X45000Y155500D02*X45500Y155000D01*
X45000Y155500D02*Y156500D01*
X45500Y157000D01*
X47000D01*
X48200Y153000D02*Y157000D01*
Y155500D02*X49700Y157000D01*
X48200Y155500D02*X49200Y154500D01*
X51400Y157000D02*X52900D01*
X53400Y156500D01*
X52900Y156000D02*X53400Y156500D01*
X51400Y156000D02*X52900D01*
X50900Y155500D02*X51400Y156000D01*
X50900Y155500D02*X51400Y155000D01*
X52900D01*
X53400Y155500D01*
X50900Y156500D02*X51400Y157000D01*
X54600D02*X55100D01*
X15000Y145000D02*X16500D01*
Y148500D01*
X16000Y149000D02*X16500Y148500D01*
X15500Y149000D02*X16000D01*
X15000Y148500D02*X15500Y149000D01*
X17700Y147000D02*Y148500D01*
X18200Y149000D01*
X19200D01*
X19700Y148500D01*
Y147000D02*Y148500D01*
X21400Y149000D02*X22900D01*
X23400Y148500D01*
X22900Y148000D02*X23400Y148500D01*
X21400Y148000D02*X22900D01*
X20900Y147500D02*X21400Y148000D01*
X20900Y147500D02*X21400Y147000D01*
X22900D01*
X23400Y147500D01*
X20900Y148500D02*X21400Y149000D01*
X25100Y145000D02*Y148500D01*
X25600Y149000D01*
X24600Y146500D02*X25600D01*
X28900Y149000D02*X30400D01*
X30900Y148500D01*
X30400Y148000D02*X30900Y148500D01*
X28900Y148000D02*X30400D01*
X28400Y147500D02*X28900Y148000D01*
X28400Y147500D02*X28900Y147000D01*
X30400D01*
X30900Y147500D01*
X28400Y148500D02*X28900Y149000D01*
X33600Y147000D02*X34100Y147500D01*
X32600Y147000D02*X33600D01*
X32100Y147500D02*X32600Y147000D01*
X32100Y147500D02*Y148500D01*
X32600Y149000D01*
X34100Y147000D02*Y148500D01*
X34600Y149000D01*
X32600D02*X33600D01*
X34100Y148500D01*
X35800Y147000D02*Y148500D01*
X36300Y149000D01*
X37800Y147000D02*Y150000D01*
X37300Y150500D02*X37800Y150000D01*
X36300Y150500D02*X37300D01*
X35800Y150000D02*X36300Y150500D01*
Y149000D02*X37300D01*
X37800Y148500D01*
X40800Y145000D02*Y149000D01*
Y145000D02*Y145500D01*
X43300Y148000D01*
Y145000D02*Y149000D01*
X44500Y145500D02*Y148500D01*
Y145500D02*X45000Y145000D01*
X46000D01*
X46500Y145500D01*
Y148500D01*
X46000Y149000D02*X46500Y148500D01*
X45000Y149000D02*X46000D01*
X44500Y148500D02*X45000Y149000D01*
X163480Y166990D02*X163975Y167485D01*
X161995Y166990D02*X163480D01*
X161500Y167485D02*X161995Y166990D01*
X161500Y167485D02*Y170455D01*
X161995Y170950D01*
X163480D01*
X163975Y170455D01*
Y169465D02*Y170455D01*
X163480Y168970D02*X163975Y169465D01*
X162490Y168970D02*X163480D01*
X165658Y169465D02*Y170950D01*
Y169465D02*X166153Y168970D01*
X167143D01*
X165163D02*X165658Y169465D01*
X168331D02*Y170455D01*
Y169465D02*X168826Y168970D01*
X169816D01*
X170311Y169465D01*
Y170455D01*
X169816Y170950D02*X170311Y170455D01*
X168826Y170950D02*X169816D01*
X168331Y170455D02*X168826Y170950D01*
X171499Y168970D02*Y170455D01*
X171994Y170950D01*
X172984D01*
X173479Y170455D01*
Y168970D02*Y170455D01*
X175162Y169465D02*Y170950D01*
Y169465D02*X175657Y168970D01*
X176152D01*
X176647Y169465D01*
Y170950D01*
X174667Y168970D02*X175162Y169465D01*
X179815Y166990D02*Y170950D01*
X179320D02*X179815Y170455D01*
X178330Y170950D02*X179320D01*
X177835Y170455D02*X178330Y170950D01*
X177835Y169465D02*Y170455D01*
Y169465D02*X178330Y168970D01*
X179320D01*
X179815Y169465D01*
X183280Y166990D02*Y170950D01*
X182785Y166990D02*X184765D01*
X185260Y167485D01*
Y168475D01*
X184765Y168970D02*X185260Y168475D01*
X183280Y168970D02*X184765D01*
X187933D02*X188428Y169465D01*
X186943Y168970D02*X187933D01*
X186448Y169465D02*X186943Y168970D01*
X186448Y169465D02*Y170455D01*
X186943Y170950D01*
X188428Y168970D02*Y170455D01*
X188923Y170950D01*
X186943D02*X187933D01*
X188428Y170455D01*
X190606Y166990D02*Y170455D01*
X191101Y170950D01*
X190111Y168475D02*X191101D01*
X192091Y166990D02*Y170950D01*
Y169465D02*X192586Y168970D01*
X193576D01*
X194071Y169465D01*
Y170950D01*
X197536D02*X199021D01*
X197041Y170455D02*X197536Y170950D01*
X197041Y167485D02*Y170455D01*
Y167485D02*X197536Y166990D01*
X199021D01*
X200704Y169465D02*Y170950D01*
Y169465D02*X201199Y168970D01*
X202189D01*
X200209D02*X200704Y169465D01*
X204862Y168970D02*X205357Y169465D01*
X203872Y168970D02*X204862D01*
X203377Y169465D02*X203872Y168970D01*
X203377Y169465D02*Y170455D01*
X203872Y170950D01*
X205357Y168970D02*Y170455D01*
X205852Y170950D01*
X203872D02*X204862D01*
X205357Y170455D01*
X207040Y168970D02*X209020D01*
X207040Y170950D02*X209020Y168970D01*
X207040Y170950D02*X209020D01*
X210208Y168970D02*Y170455D01*
X210703Y170950D01*
X212188Y168970D02*Y171940D01*
X211693Y172435D02*X212188Y171940D01*
X210703Y172435D02*X211693D01*
X210208Y171940D02*X210703Y172435D01*
Y170950D02*X211693D01*
X212188Y170455D01*
X213871Y169465D02*Y170950D01*
Y169465D02*X214366Y168970D01*
X214861D01*
X215356Y169465D01*
Y170950D01*
X213376Y168970D02*X213871Y169465D01*
X217039Y170950D02*X218524D01*
X216544Y170455D02*X217039Y170950D01*
X216544Y169465D02*Y170455D01*
Y169465D02*X217039Y168970D01*
X218029D01*
X218524Y169465D01*
X216544Y169960D02*X218524D01*
Y169465D01*
X220207Y170950D02*X221692D01*
X222187Y170455D01*
X221692Y169960D02*X222187Y170455D01*
X220207Y169960D02*X221692D01*
X219712Y169465D02*X220207Y169960D01*
X219712Y169465D02*X220207Y168970D01*
X221692D01*
X222187Y169465D01*
X219712Y170455D02*X220207Y170950D01*
X223870D02*X225355D01*
X225850Y170455D01*
X225355Y169960D02*X225850Y170455D01*
X223870Y169960D02*X225355D01*
X223375Y169465D02*X223870Y169960D01*
X223375Y169465D02*X223870Y168970D01*
X225355D01*
X225850Y169465D01*
X223375Y170455D02*X223870Y170950D01*
X227038Y170455D02*Y170950D01*
Y166990D02*Y169465D01*
X230008Y168475D02*X230503D01*
X230008Y169465D02*X230503D01*
X231691Y166990D02*X232186Y167485D01*
Y170455D01*
X231691Y170950D02*X232186Y170455D01*
G54D43*X22000Y181000D03*
X42000D03*
G54D36*G36*
X26750Y136250D02*X37250D01*
Y125750D01*
X26750D01*
Y136250D01*
G37*
G54D43*X50500Y131000D03*
G54D44*X90425Y165933D03*
G54D45*X103614Y144280D03*
X111882Y154122D03*
X103614D03*
G54D46*X260500Y160500D03*
G54D44*X117000Y169083D03*
X143575Y165933D03*
G54D45*X130386Y154122D03*
Y144280D03*
G54D36*G36*
X232600Y148400D02*X225400D01*
Y155600D01*
X232600D01*
Y148400D01*
G37*
G54D47*X236500Y134500D03*
G54D48*X219000Y152000D03*
G54D47*X220500Y134500D03*
G54D48*X209000Y152000D03*
G54D36*G36*
X175000Y156000D02*X183000D01*
Y148000D01*
X175000D01*
Y156000D01*
G37*
G54D47*X189000Y152000D03*
G54D46*X300500Y160500D03*
G54D47*X270500Y140500D03*
X280500D03*
G54D36*G36*
X294500Y86500D02*X300500D01*
Y80500D01*
X294500D01*
Y86500D01*
G37*
G54D49*X297500Y73500D03*
Y63500D03*
Y53500D03*
G54D47*Y101000D03*
G54D49*Y43500D03*
G54D36*G36*
X185000Y83000D02*X193000D01*
Y75000D01*
X185000D01*
Y83000D01*
G37*
G36*
X171555Y103945D02*X178445D01*
Y97055D01*
X171555D01*
Y103945D01*
G37*
G54D50*X184843Y100500D03*
G54D36*G36*
X188055Y129945D02*X194945D01*
Y123055D01*
X188055D01*
Y129945D01*
G37*
G36*
X199250Y37250D02*X204750D01*
Y31750D01*
X199250D01*
Y37250D01*
G37*
G36*
X172500Y40500D02*Y48500D01*
X180500D01*
Y40500D01*
X172500D01*
G37*
G54D47*X176500Y54500D03*
G54D50*X201343Y126500D03*
G54D51*X242000Y34500D03*
G54D36*G36*
X236500Y29500D02*X244500D01*
Y21500D01*
X236500D01*
Y29500D01*
G37*
G36*
X232500Y90500D02*Y98500D01*
X240500D01*
Y90500D01*
X232500D01*
G37*
G36*
X216500D02*Y98500D01*
X224500D01*
Y90500D01*
X216500D01*
G37*
G54D47*X229000Y79000D03*
G54D36*G36*
X275500Y86500D02*X281500D01*
Y80500D01*
X275500D01*
Y86500D01*
G37*
G54D49*X278500Y73500D03*
Y63500D03*
G54D36*G36*
X253500Y105000D02*X261500D01*
Y97000D01*
X253500D01*
Y105000D01*
G37*
G54D49*X278500Y53500D03*
Y43500D03*
G54D47*X280500Y25500D03*
G54D43*X13500Y131000D03*
Y116000D03*
X32000D03*
X50500D03*
G54D36*G36*
X18000Y61000D02*Y69000D01*
X26000D01*
Y61000D01*
X18000D01*
G37*
G54D47*X22000Y105000D03*
X40000D03*
G54D49*Y53000D03*
X30000D03*
G54D36*G36*
X51500Y69000D02*X59500D01*
Y61000D01*
X51500D01*
Y69000D01*
G37*
G36*
X36000Y61000D02*Y69000D01*
X44000D01*
Y61000D01*
X36000D01*
G37*
G36*
X47000Y56000D02*X53000D01*
Y50000D01*
X47000D01*
Y56000D01*
G37*
G54D49*X20000Y53000D03*
Y23000D03*
G54D36*G36*
X62026Y50158D02*X70026D01*
Y42158D01*
X62026D01*
Y50158D01*
G37*
G54D49*X30000Y23000D03*
X40000D03*
X50000D03*
G54D47*X95500Y65000D03*
G54D36*G36*
X91500Y95000D02*X99500D01*
Y87000D01*
X91500D01*
Y95000D01*
G37*
G36*
Y111000D02*X99500D01*
Y103000D01*
X91500D01*
Y111000D01*
G37*
G36*
X116500Y57500D02*X122500D01*
Y51500D01*
X116500D01*
Y57500D01*
G37*
G54D49*X149500Y54500D03*
G54D47*X135500Y91000D03*
X115200Y107000D03*
X145600Y71000D03*
G54D36*G36*
X107300Y75000D02*X115300D01*
Y67000D01*
X107300D01*
Y75000D01*
G37*
G54D49*X119500Y44500D03*
X149500D03*
G54D47*X106026Y46158D03*
G54D49*X119500Y34500D03*
X149500D03*
G54D47*X96500D03*
G54D49*X119500Y24500D03*
X149500D03*
G54D36*G36*
X92500Y20500D02*Y28500D01*
X100500D01*
Y20500D01*
X92500D01*
G37*
G54D52*G54D53*G54D54*G54D55*G54D56*G54D54*G54D55*G54D57*G54D58*G54D57*G54D58*G54D57*G54D58*G54D56*G54D59*G54D60*G54D58*G54D60*G54D58*G54D61*G54D42*G54D58*G54D61*G54D42*G54D58*G54D60*G54D58*G54D60*G54D58*G54D53*G54D58*G54D62*G54D58*G54D62*G54D58*G54D62*G54D58*G54D62*G54D58*G54D62*G54D58*G54D62*G54D58*G54D62*G54D58*M02*
