G04 start of page 2 for group -1 layer_idx 268435460 *
G04 Title: (unknown), <virtual group> *
G04 Creator: pcb-rnd 2.2.2 *
G04 CreationDate: 2020-09-08 23:28:18 UTC *
G04 For:  *
G04 Format: Gerber/RS-274X *
G04 PCB-Dimensions: 416500 193500 *
G04 PCB-Coordinate-Origin: lower left *
%MOIN*%
%FSLAX25Y25*%
%LNBOTTOM_VIRTUAL_ASSY_NONE*%
%ADD246C,0.0100*%
%ADD245C,0.0197*%
%ADD244C,0.0080*%
%ADD243C,0.0320*%
%ADD242C,0.0374*%
%ADD241C,0.0790*%
%ADD240C,0.0358*%
%ADD239C,0.0925*%
%ADD238C,0.0200*%
%ADD237C,0.0710*%
%ADD236C,0.0650*%
%ADD235C,0.0400*%
%ADD234C,0.0276*%
%ADD233C,0.0350*%
%ADD232C,0.0394*%
%ADD231C,0.0984*%
%ADD230C,0.2000*%
%ADD229C,0.0591*%
%ADD228C,0.1575*%
%ADD227C,0.0360*%
%ADD226C,0.1050*%
%ADD225C,0.0689*%
%ADD224C,0.0001*%
%ADD223C,0.0600*%
%ADD222C,0.0800*%
G54D222*X95500Y65000D03*
G54D223*X170500Y56500D03*
G54D224*G36*
X134055Y77945D02*X140945D01*
Y71055D01*
X134055D01*
Y77945D01*
G37*
G54D225*X147343Y74500D03*
G54D223*X179552Y81500D03*
X111500Y20500D03*
X142500D03*
G54D222*X93100Y78500D03*
X112500Y95500D03*
G54D224*G36*
X89000Y118500D02*X97000D01*
Y110500D01*
X89000D01*
Y118500D01*
G37*
G54D222*X112700Y114500D03*
G54D224*G36*
X124043Y107500D02*X132043D01*
Y99500D01*
X124043D01*
Y107500D01*
G37*
G36*
X194000Y23500D02*X202000D01*
Y15500D01*
X194000D01*
Y23500D01*
G37*
G54D222*X168043Y103500D03*
G54D224*G36*
X254000Y116000D02*X262000D01*
Y108000D01*
X254000D01*
Y116000D01*
G37*
G54D223*X237405Y93457D03*
X229086Y74957D03*
G54D224*G36*
X254500Y91000D02*X262500D01*
Y83000D01*
X254500D01*
Y91000D01*
G37*
G54D223*X268000Y13000D03*
G54D224*G36*
X254500Y58000D02*X262500D01*
Y50000D01*
X254500D01*
Y58000D01*
G37*
G54D222*X268500Y54000D03*
X278500D03*
X238000Y19500D03*
X288500Y54000D03*
X298500D03*
X268500Y87000D03*
X278500D03*
X288500D03*
X298500D03*
G54D226*X22000Y181000D03*
X42000D03*
X13500Y131000D03*
Y116000D03*
X32000D03*
G54D224*G36*
X26750Y136250D02*X37250D01*
Y125750D01*
X26750D01*
Y136250D01*
G37*
G54D226*X50500Y131000D03*
Y116000D03*
G54D222*X40000Y105000D03*
G54D227*X64500Y15500D03*
G54D224*G36*
X51500Y69000D02*X59500D01*
Y61000D01*
X51500D01*
Y69000D01*
G37*
G36*
X36000Y61000D02*Y69000D01*
X44000D01*
Y61000D01*
X36000D01*
G37*
G36*
X54800Y82500D02*X62800D01*
Y74500D01*
X54800D01*
Y82500D01*
G37*
G36*
X18000Y61000D02*Y69000D01*
X26000D01*
Y61000D01*
X18000D01*
G37*
G54D222*X22000Y105000D03*
G54D224*G36*
X68500Y99500D02*X76500D01*
Y91500D01*
X68500D01*
Y99500D01*
G37*
G54D228*X90425Y165933D03*
G54D229*X103614Y144280D03*
X111882Y154122D03*
X103614D03*
G54D228*X117000Y169083D03*
X143575Y165933D03*
G54D229*X130386Y154122D03*
G54D230*X260500Y160500D03*
G54D224*G36*
X180004Y172283D02*X192996D01*
Y157717D01*
X180004D01*
Y172283D01*
G37*
G36*
X203626D02*X216618D01*
Y157717D01*
X203626D01*
Y172283D01*
G37*
G36*
X163949Y169782D02*Y159939D01*
X173791D01*
Y169782D01*
X163949D01*
G37*
G54D231*X227925Y164860D03*
G54D229*X130386Y144280D03*
G54D224*G36*
X159749Y154240D02*X154631D01*
Y146760D01*
X159749D01*
Y154240D01*
G37*
G36*
X171559D02*X166441D01*
Y146760D01*
X171559D01*
Y154240D01*
G37*
G54D230*X300500Y160500D03*
G54D222*X298000Y112000D03*
X270500Y140500D03*
X280500D03*
G54D224*G36*
X156713Y133945D02*X163602D01*
Y127055D01*
X156713D01*
Y133945D01*
G37*
G54D225*X170000Y130500D03*
G54D224*G36*
X196038Y133888D02*X202927D01*
Y126999D01*
X196038D01*
Y133888D01*
G37*
G54D225*X209325Y130444D03*
G54D232*G54D233*G54D234*G54D233*G54D232*G54D233*G54D235*G54D233*G54D235*G54D232*G54D235*G54D236*G54D237*G54D232*G54D238*G54D232*G54D239*G54D240*G54D239*G54D240*G54D241*G54D242*G54D240*G54D241*G54D232*G54D243*G54D234*G54D244*X160733Y146760D02*X165457D01*
X160733Y154240D02*X165457D01*
G54D245*X195358Y157717D02*X201264D01*
X195358Y172283D02*X201264D01*
G54D246*X159040Y144850D02*X160540D01*
X158540Y144350D02*X159040Y144850D01*
X158540Y141350D02*Y144350D01*
Y141350D02*X159040Y140850D01*
X160540D01*
X161740Y141350D02*X162240Y140850D01*
X163740D01*
X164240Y141350D01*
Y142350D01*
X161740Y144850D02*X164240Y142350D01*
X161740Y144850D02*X164240D01*
X165440Y141350D02*X165940Y140850D01*
X167440D01*
X167940Y141350D01*
Y142350D01*
X165440Y144850D02*X167940Y142350D01*
X165440Y144850D02*X167940D01*
X193661Y150252D02*X195661D01*
X196161Y150752D01*
Y151752D01*
X195661Y152252D02*X196161Y151752D01*
X194161Y152252D02*X195661D01*
X194161Y150252D02*Y154252D01*
Y152252D02*X196161Y154252D01*
X197361Y152252D02*X199361Y150252D01*
X197361Y152252D02*X199861D01*
X199361Y150252D02*Y154252D01*
X201061Y152252D02*X203061Y150252D01*
X201061Y152252D02*X203561D01*
X203061Y150252D02*Y154252D01*
M02*
