G04 start of page 2 for group 3 layer_idx 0 *
G04 Title: (unknown), top_copper *
G04 Creator: pcb-rnd 2.2.1 *
G04 CreationDate: 2020-07-01 19:56:37 UTC *
G04 For:  *
G04 Format: Gerber/RS-274X *
G04 PCB-Dimensions: 416500 193500 *
G04 PCB-Coordinate-Origin: lower left *
%MOIN*%
%FSLAX25Y25*%
%LNTOP_COPPER_NONE_3*%
%ADD35C,0.0280*%
%ADD34C,0.0300*%
%ADD33C,0.0276*%
%ADD32C,0.0380*%
%ADD31C,0.0320*%
%ADD30C,0.0394*%
%ADD29C,0.0420*%
%ADD28C,0.0790*%
%ADD27C,0.0358*%
%ADD26C,0.0925*%
%ADD25C,0.0710*%
%ADD24C,0.0650*%
%ADD23C,0.0550*%
%ADD22C,0.0689*%
%ADD21C,0.0600*%
%ADD20C,0.0720*%
%ADD19C,0.0800*%
%ADD18C,0.2000*%
%ADD17C,0.0591*%
%ADD16C,0.1575*%
%ADD15C,0.0001*%
%ADD14C,0.1050*%
%ADD13C,0.0250*%
%ADD12C,0.0100*%
%ADD11C,0.0400*%
G54D11*X238500Y181000D02*X22000D01*
X117000Y169083D02*Y181000D01*
X90425Y180425D02*X90500Y180500D01*
X143500Y181000D02*Y166008D01*
X189000Y152000D02*X209000D01*
X236500Y161000D02*X191000D01*
X189000Y159000D01*
Y152000D01*
X143500Y166008D02*X143575Y165933D01*
G54D12*X62000Y155000D02*X86000D01*
Y135000D01*
G54D13*X103614Y144280D02*Y102386D01*
X115200Y107000D02*Y138936D01*
X130386Y154122D02*X115200Y138936D01*
X30000Y23000D02*X95500Y65000D01*
X30000Y53000D02*Y69500D01*
X107842Y46158D02*X106026D01*
X106158D02*Y65658D01*
Y65858D01*
G54D11*X119500Y24500D02*X96500D01*
X45000Y9500D02*X165500D01*
G54D13*X119500Y34500D02*X107842Y46158D01*
X106158Y65858D02*X111300Y71000D01*
X121500Y84500D02*X150500D01*
X141500Y34500D02*X131500Y44500D01*
X119500D01*
X30000Y69500D02*X51500Y91000D01*
X95500D01*
X103614Y102386D02*X121500Y84500D01*
G54D11*X175000Y100500D02*Y93000D01*
G54D13*Y100500D02*X166500D01*
X150500Y84500D01*
X95500Y107000D02*Y91000D01*
X40000Y120500D02*X50500Y131000D01*
X40000Y105000D02*Y120500D01*
Y105000D02*Y105500D01*
G54D11*Y23000D02*Y14500D01*
X45000Y9500D01*
X90425Y165933D02*Y180425D01*
G54D13*X22000Y105000D02*Y122500D01*
X13500Y131000D01*
G54D11*X229000Y152000D02*Y143000D01*
X220500Y134500D01*
X191500D02*X198000Y141000D01*
X212500D01*
X219000Y147500D01*
Y152000D01*
X231500Y63500D02*Y34500D01*
X236500Y94500D02*Y118500D01*
X220500Y134500D01*
Y94500D02*Y87500D01*
X229000Y79000D01*
X220500Y94500D02*X212000D01*
X191500Y115000D01*
Y134500D02*Y115000D01*
X175000Y93000D02*X189000Y79000D01*
X176500Y54500D02*X211500D01*
X176500Y44500D02*X202500D01*
X210500Y36500D01*
G54D13*X202000Y34500D02*X141500D01*
G54D11*X174500Y44500D02*X149500D01*
X210500Y36500D02*Y10000D01*
X211500Y54500D02*X240500Y25500D01*
X307000Y53000D02*X297500Y43500D01*
X243500Y9500D02*X256000Y22000D01*
X231500Y34500D02*X240500Y25500D01*
X256000Y22000D02*Y61000D01*
X278500Y43500D02*X297500D01*
X135500Y9500D02*X243500D01*
G54D13*X242000Y62500D02*Y34500D01*
G54D11*X260000Y159500D02*X238500Y181000D01*
X263000Y144500D02*X244000D01*
X241000Y147500D01*
Y156500D01*
X300500Y159500D02*X260000D01*
X266500Y148000D02*X288000D01*
X266500D02*X263000Y144500D01*
X241000Y156500D02*X236500Y161000D01*
G54D13*X280500Y140500D02*Y101000D01*
G54D11*X300500Y159500D02*Y155000D01*
X288000Y148000D02*X297500Y138500D01*
X257500Y89500D02*Y101000D01*
Y89500D02*X231500Y63500D01*
X297500Y138500D02*Y83500D01*
X278500D02*X297500D01*
X300500Y155000D02*X307000Y148500D01*
Y53000D01*
G54D13*X280500Y101000D02*X242000Y62500D01*
G54D11*X278500Y83500D02*X256000Y61000D01*
G54D12*X64495Y147010D02*Y143050D01*
X64000Y147010D02*X65980D01*
X66475Y146515D01*
Y145525D01*
X65980Y145030D02*X66475Y145525D01*
X64495Y145030D02*X65980D01*
X67663Y147010D02*Y143545D01*
X68158Y143050D01*
X70633Y145030D02*X71128Y144535D01*
X69643Y145030D02*X70633D01*
X69148Y144535D02*X69643Y145030D01*
X69148Y144535D02*Y143545D01*
X69643Y143050D01*
X71128Y145030D02*Y143545D01*
X71623Y143050D01*
X69643D02*X70633D01*
X71128Y143545D01*
X73306Y144535D02*Y143050D01*
Y144535D02*X73801Y145030D01*
X74296D01*
X74791Y144535D01*
Y143050D01*
X72811Y145030D02*X73306Y144535D01*
X76474Y143050D02*X77959D01*
X75979Y143545D02*X76474Y143050D01*
X75979Y144535D02*Y143545D01*
Y144535D02*X76474Y145030D01*
X77464D01*
X77959Y144535D01*
X75979Y144040D02*X77959D01*
Y144535D01*
X79642Y143050D02*X81127D01*
X81622Y143545D01*
X81127Y144040D02*X81622Y143545D01*
X79642Y144040D02*X81127D01*
X79147Y144535D02*X79642Y144040D01*
X79147Y144535D02*X79642Y145030D01*
X81127D01*
X81622Y144535D01*
X79147Y143545D02*X79642Y143050D01*
X76000Y140515D02*Y137545D01*
Y140515D02*X76495Y141010D01*
X77485D01*
X77980Y140515D01*
Y137545D01*
X77485Y137050D02*X77980Y137545D01*
X76495Y137050D02*X77485D01*
X76000Y137545D02*X76495Y137050D01*
X79168Y141010D02*Y137050D01*
Y138535D02*X80653Y137050D01*
X79168Y138535D02*X80158Y139525D01*
G54D14*X22000Y181000D03*
X42000D03*
G54D15*G36*
X26750Y136250D02*X37250D01*
Y125750D01*
X26750D01*
Y136250D01*
G37*
G54D14*X50500Y131000D03*
G54D16*X90425Y165933D03*
G54D17*X103614Y144280D03*
X111882Y154122D03*
X103614D03*
G54D18*X260500Y160500D03*
G54D16*X117000Y169083D03*
X143575Y165933D03*
G54D17*X130386Y154122D03*
Y144280D03*
G54D15*G36*
X232600Y148400D02*X225400D01*
Y155600D01*
X232600D01*
Y148400D01*
G37*
G54D19*X236500Y134500D03*
G54D20*X219000Y152000D03*
G54D19*X220500Y134500D03*
G54D20*X209000Y152000D03*
G54D15*G36*
X175000Y156000D02*X183000D01*
Y148000D01*
X175000D01*
Y156000D01*
G37*
G54D19*X189000Y152000D03*
G54D18*X300500Y160500D03*
G54D19*X270500Y140500D03*
X280500D03*
G54D15*G36*
X294500Y86500D02*X300500D01*
Y80500D01*
X294500D01*
Y86500D01*
G37*
G54D21*X297500Y73500D03*
Y63500D03*
Y53500D03*
G54D19*Y101000D03*
G54D21*Y43500D03*
G54D15*G36*
X185000Y83000D02*X193000D01*
Y75000D01*
X185000D01*
Y83000D01*
G37*
G36*
X171555Y103945D02*X178445D01*
Y97055D01*
X171555D01*
Y103945D01*
G37*
G54D22*X184843Y100500D03*
G54D15*G36*
X188055Y129945D02*X194945D01*
Y123055D01*
X188055D01*
Y129945D01*
G37*
G36*
X199250Y37250D02*X204750D01*
Y31750D01*
X199250D01*
Y37250D01*
G37*
G36*
X172500Y40500D02*Y48500D01*
X180500D01*
Y40500D01*
X172500D01*
G37*
G54D19*X176500Y54500D03*
G54D22*X201343Y126500D03*
G54D23*X242000Y34500D03*
G54D15*G36*
X236500Y29500D02*X244500D01*
Y21500D01*
X236500D01*
Y29500D01*
G37*
G36*
X232500Y90500D02*Y98500D01*
X240500D01*
Y90500D01*
X232500D01*
G37*
G36*
X216500D02*Y98500D01*
X224500D01*
Y90500D01*
X216500D01*
G37*
G54D19*X229000Y79000D03*
G54D15*G36*
X275500Y86500D02*X281500D01*
Y80500D01*
X275500D01*
Y86500D01*
G37*
G54D21*X278500Y73500D03*
Y63500D03*
G54D15*G36*
X253500Y105000D02*X261500D01*
Y97000D01*
X253500D01*
Y105000D01*
G37*
G54D21*X278500Y53500D03*
Y43500D03*
G54D19*X280500Y25500D03*
G54D14*X13500Y131000D03*
Y116000D03*
X32000D03*
X50500D03*
G54D15*G36*
X18000Y61000D02*Y69000D01*
X26000D01*
Y61000D01*
X18000D01*
G37*
G54D19*X22000Y105000D03*
X40000D03*
G54D21*Y53000D03*
X30000D03*
G54D15*G36*
X51500Y69000D02*X59500D01*
Y61000D01*
X51500D01*
Y69000D01*
G37*
G36*
X36000Y61000D02*Y69000D01*
X44000D01*
Y61000D01*
X36000D01*
G37*
G36*
X47000Y56000D02*X53000D01*
Y50000D01*
X47000D01*
Y56000D01*
G37*
G54D21*X20000Y53000D03*
Y23000D03*
G54D15*G36*
X62026Y50158D02*X70026D01*
Y42158D01*
X62026D01*
Y50158D01*
G37*
G54D21*X30000Y23000D03*
X40000D03*
X50000D03*
G54D19*X95500Y65000D03*
G54D15*G36*
X91500Y95000D02*X99500D01*
Y87000D01*
X91500D01*
Y95000D01*
G37*
G36*
Y111000D02*X99500D01*
Y103000D01*
X91500D01*
Y111000D01*
G37*
G36*
X116500Y57500D02*X122500D01*
Y51500D01*
X116500D01*
Y57500D01*
G37*
G54D21*X149500Y54500D03*
G54D19*X135500Y91000D03*
X115200Y107000D03*
X145600Y71000D03*
G54D15*G36*
X107300Y75000D02*X115300D01*
Y67000D01*
X107300D01*
Y75000D01*
G37*
G54D21*X119500Y44500D03*
X149500D03*
G54D19*X106026Y46158D03*
G54D21*X119500Y34500D03*
X149500D03*
G54D19*X96500D03*
G54D21*X119500Y24500D03*
X149500D03*
G54D15*G36*
X92500Y20500D02*Y28500D01*
X100500D01*
Y20500D01*
X92500D01*
G37*
G54D24*G54D25*G54D26*G54D27*G54D28*G54D26*G54D27*G54D29*G54D30*G54D29*G54D30*G54D29*G54D30*G54D28*G54D31*G54D32*G54D30*G54D32*G54D30*G54D33*G54D34*G54D30*G54D33*G54D34*G54D30*G54D32*G54D30*G54D32*G54D30*G54D25*G54D30*G54D35*G54D30*G54D35*G54D30*G54D35*G54D30*G54D35*G54D30*G54D35*G54D30*G54D35*G54D30*G54D35*G54D30*M02*
