G04 start of page 2 for group 2 layer_idx 10 *
G04 Title: (unknown), top_mask *
G04 Creator: pcb-rnd 3.1.7-dev *
G04 CreationDate: 2025-04-04 01:09:38 UTC *
G04 For:  *
G04 Format: Gerber/RS-274X *
G04 PCB-Dimensions: 316500 193500 *
G04 PCB-Coordinate-Origin: lower left *
%MOIN*%
%FSLAX25Y25*%
%LNTOP_MASK_NONE_2*%
%ADD140C,0.0660*%
%ADD139C,0.0860*%
%ADD138C,0.0780*%
%ADD137C,0.2060*%
%ADD136C,0.0651*%
%ADD135C,0.1635*%
%ADD134C,0.0001*%
%ADD133C,0.1110*%
G54D133*X22000Y181000D03*
X42000D03*
G54D134*G36*
X26450Y136550D02*X37550D01*
Y125450D01*
X26450D01*
Y136550D01*
G37*
G54D133*X50500Y131000D03*
G54D135*X90425Y165933D03*
G54D136*X103614Y144280D03*
X111882Y154122D03*
X103614D03*
G54D137*X260500Y160500D03*
G54D135*X117000Y169083D03*
X143575Y165933D03*
G54D136*X130386Y154122D03*
Y144280D03*
G54D134*G36*
X201600Y142400D02*X209400D01*
Y134600D01*
X201600D01*
Y142400D01*
G37*
G54D138*X215500Y138500D03*
X225500D03*
G54D134*G36*
X153700Y130800D02*X162300D01*
Y122200D01*
X153700D01*
Y130800D01*
G37*
G54D139*X198000Y126500D03*
G54D134*G36*
X235800Y128800D02*Y120200D01*
X227200D01*
Y128800D01*
X235800D01*
G37*
G54D137*X300500Y160500D03*
G54D139*X270500Y140500D03*
X280500D03*
G54D134*G36*
X294200Y86800D02*X300800D01*
Y80200D01*
X294200D01*
Y86800D01*
G37*
G54D140*X297500Y73500D03*
Y63500D03*
Y53500D03*
G54D139*Y101000D03*
G54D140*Y43500D03*
G54D134*G36*
X236200Y29800D02*X244800D01*
Y21200D01*
X236200D01*
Y29800D01*
G37*
G54D139*X280500Y25500D03*
X242000Y34500D03*
G54D134*G36*
X275200Y86800D02*X281800D01*
Y80200D01*
X275200D01*
Y86800D01*
G37*
G36*
X253200Y105300D02*X261800D01*
Y96700D01*
X253200D01*
Y105300D01*
G37*
G54D139*X231500Y84500D03*
G54D140*X278500Y73500D03*
Y63500D03*
Y53500D03*
Y43500D03*
G54D133*X13500Y131000D03*
Y116000D03*
G54D134*G36*
X26300Y109300D02*Y100700D01*
X17700D01*
Y109300D01*
X26300D01*
G37*
G54D133*X32000Y116000D03*
G54D134*G36*
X44300Y109300D02*Y100700D01*
X35700D01*
Y109300D01*
X44300D01*
G37*
G54D139*X22000Y65000D03*
X30000Y53000D03*
X40000Y65000D03*
Y53000D03*
Y23000D03*
X30000D03*
X20000Y53000D03*
Y23000D03*
G54D133*X50500Y116000D03*
G54D134*G36*
X91200Y109300D02*X99800D01*
Y100700D01*
X91200D01*
Y109300D01*
G37*
G36*
X46200Y69300D02*X54800D01*
Y60700D01*
X46200D01*
Y69300D01*
G37*
G36*
X51200Y77800D02*X59800D01*
Y69200D01*
X51200D01*
Y77800D01*
G37*
G54D139*X85500Y73500D03*
G54D134*G36*
X91200Y95300D02*X99800D01*
Y86700D01*
X91200D01*
Y95300D01*
G37*
G36*
X54300Y57300D02*Y48700D01*
X45700D01*
Y57300D01*
X54300D01*
G37*
G36*
X59200Y48800D02*X67800D01*
Y40200D01*
X59200D01*
Y48800D01*
G37*
G54D139*X90500Y65000D03*
G54D134*G36*
X116200Y57800D02*X122800D01*
Y51200D01*
X116200D01*
Y57800D01*
G37*
G54D140*X119500Y44500D03*
G54D139*X103500D03*
G54D140*X119500Y34500D03*
G54D134*G36*
X100800Y38800D02*Y30200D01*
X92200D01*
Y38800D01*
X100800D01*
G37*
G54D139*X96500Y24500D03*
X50000Y23000D03*
G54D140*X119500Y24500D03*
X149500D03*
Y34500D03*
Y44500D03*
Y54500D03*
G54D134*G36*
X180800Y58800D02*Y50200D01*
X172200D01*
Y58800D01*
X180800D01*
G37*
G54D139*X176500Y44500D03*
X135500Y105000D03*
Y91000D03*
G54D134*G36*
X174800Y110800D02*Y102200D01*
X166200D01*
Y110800D01*
X174800D01*
G37*
G36*
X197800Y116800D02*Y108200D01*
X189200D01*
Y116800D01*
X197800D01*
G37*
G54D139*X170500Y96500D03*
G54D134*G36*
X215300Y119300D02*Y110700D01*
X206700D01*
Y119300D01*
X215300D01*
G37*
G54D139*X211000Y105000D03*
G54D134*G36*
X197700Y38800D02*X206300D01*
Y30200D01*
X197700D01*
Y38800D01*
G37*
G54D139*X193500Y72500D03*
G54D134*G36*
X215300Y88800D02*Y80200D01*
X206700D01*
Y88800D01*
X215300D01*
G37*
G54D139*X211000Y74500D03*
M02*
