G04 start of page 2 for group -1 layer_idx 268435459 *
G04 Title: (unknown), <virtual group> *
G04 Creator: pcb-rnd 2.2.2 *
G04 CreationDate: 2020-09-11 00:00:04 UTC *
G04 For:  *
G04 Format: Gerber/RS-274X *
G04 PCB-Dimensions: 416500 193500 *
G04 PCB-Coordinate-Origin: lower left *
%MOIN*%
%FSLAX25Y25*%
%LNTOP_VIRTUAL_ASSY_NONE*%
%ADD219C,0.0060*%
%ADD218C,0.0080*%
%ADD217C,0.0394*%
%ADD216C,0.0100*%
%ADD215C,0.0320*%
%ADD214C,0.0374*%
%ADD213C,0.0790*%
%ADD212C,0.0358*%
%ADD211C,0.0925*%
%ADD210C,0.0200*%
%ADD209C,0.0710*%
%ADD208C,0.0650*%
%ADD207C,0.0400*%
%ADD206C,0.0276*%
%ADD205C,0.0350*%
%ADD204C,0.0394*%
%ADD203C,0.0984*%
%ADD202C,0.2000*%
%ADD201C,0.0591*%
%ADD200C,0.1575*%
%ADD199C,0.0360*%
%ADD198C,0.1050*%
%ADD197C,0.0689*%
%ADD196C,0.0600*%
%ADD195C,0.0001*%
%ADD194C,0.0800*%
G54D194*X95500Y65000D03*
G54D195*G36*
X90000Y49000D02*X81500D01*
Y51000D01*
X90000D01*
Y49000D01*
G37*
G36*
Y44000D02*X81500D01*
Y46000D01*
X90000D01*
Y44000D01*
G37*
G36*
Y39000D02*X81500D01*
Y41000D01*
X90000D01*
Y39000D01*
G37*
G54D196*X170500Y56500D03*
G54D195*G36*
X134055Y77945D02*X140945D01*
Y71055D01*
X134055D01*
Y77945D01*
G37*
G36*
X157260Y58964D02*Y53846D01*
X164740D01*
Y58964D01*
X157260D01*
G37*
G36*
X90000Y34000D02*X81500D01*
Y36000D01*
X90000D01*
Y34000D01*
G37*
G54D197*X147343Y74500D03*
G54D195*G36*
X117000Y50500D02*X125500D01*
Y48500D01*
X117000D01*
Y50500D01*
G37*
G36*
X146000Y48500D02*X137500D01*
Y50500D01*
X146000D01*
Y48500D01*
G37*
G36*
X117000Y45500D02*X125500D01*
Y43500D01*
X117000D01*
Y45500D01*
G37*
G54D196*X179552Y81500D03*
G54D195*G36*
X146000Y43500D02*X137500D01*
Y45500D01*
X146000D01*
Y43500D01*
G37*
G36*
X157260Y47154D02*Y42036D01*
X164740D01*
Y47154D01*
X157260D01*
G37*
G36*
X176260Y52869D02*Y47751D01*
X183740D01*
Y52869D01*
X176260D01*
G37*
G54D196*X111500Y20500D03*
X142500D03*
G54D195*G36*
X123559Y24240D02*X118441D01*
Y16760D01*
X123559D01*
Y24240D01*
G37*
G36*
X135369D02*X130251D01*
Y16760D01*
X135369D01*
Y24240D01*
G37*
G36*
X117000Y40500D02*X125500D01*
Y38500D01*
X117000D01*
Y40500D01*
G37*
G36*
X146000Y38500D02*X137500D01*
Y40500D01*
X146000D01*
Y38500D01*
G37*
G36*
X176260Y41059D02*Y35941D01*
X183740D01*
Y41059D01*
X176260D01*
G37*
G36*
X117000Y35500D02*X125500D01*
Y33500D01*
X117000D01*
Y35500D01*
G37*
G36*
X146000Y33500D02*X137500D01*
Y35500D01*
X146000D01*
Y33500D01*
G37*
G54D194*X93100Y78500D03*
X112500Y95500D03*
G54D195*G36*
X89000Y118500D02*X97000D01*
Y110500D01*
X89000D01*
Y118500D01*
G37*
G54D194*X112700Y114500D03*
G54D195*G36*
X124043Y107500D02*X132043D01*
Y99500D01*
X124043D01*
Y107500D01*
G37*
G36*
X194000Y23500D02*X202000D01*
Y15500D01*
X194000D01*
Y23500D01*
G37*
G36*
X182154Y94740D02*X177036D01*
Y87260D01*
X182154D01*
Y94740D01*
G37*
G54D194*X168043Y103500D03*
G54D195*G36*
X193964Y94740D02*X188846D01*
Y87260D01*
X193964D01*
Y94740D01*
G37*
G36*
X198203Y87984D02*Y86016D01*
X201352D01*
Y87984D01*
X198203D01*
G37*
G36*
Y91724D02*Y89756D01*
X201352D01*
Y91724D01*
X198203D01*
G37*
G36*
X207651Y84244D02*Y82276D01*
X210800D01*
Y84244D01*
X207651D01*
G37*
G36*
Y91724D02*Y89756D01*
X210800D01*
Y91724D01*
X207651D01*
G37*
G36*
X198203Y84244D02*Y82276D01*
X201352D01*
Y84244D01*
X198203D01*
G37*
G36*
X218654Y97240D02*X213536D01*
Y89760D01*
X218654D01*
Y97240D01*
G37*
G36*
X215059Y77952D02*X209941D01*
Y72048D01*
X215059D01*
Y77952D01*
G37*
G36*
X222145D02*X217027D01*
Y72048D01*
X222145D01*
Y77952D01*
G37*
G36*
X254000Y116000D02*X262000D01*
Y108000D01*
X254000D01*
Y116000D01*
G37*
G36*
X230464Y97240D02*X225346D01*
Y89760D01*
X230464D01*
Y97240D01*
G37*
G36*
X232654Y115240D02*X227536D01*
Y107760D01*
X232654D01*
Y115240D01*
G37*
G36*
X244464D02*X239346D01*
Y107760D01*
X244464D01*
Y115240D01*
G37*
G54D196*X237405Y93457D03*
X229086Y74957D03*
G54D195*G36*
X254500Y91000D02*X262500D01*
Y83000D01*
X254500D01*
Y91000D01*
G37*
G54D196*X268000Y13000D03*
G54D195*G36*
X254500Y58000D02*X262500D01*
Y50000D01*
X254500D01*
Y58000D01*
G37*
G54D194*X268500Y54000D03*
X278500D03*
X238000Y19500D03*
X288500Y54000D03*
X298500D03*
X268500Y87000D03*
X278500D03*
X288500D03*
X298500D03*
G54D198*X22000Y181000D03*
X42000D03*
X13500Y131000D03*
Y116000D03*
X32000D03*
G54D195*G36*
X26750Y136250D02*X37250D01*
Y125750D01*
X26750D01*
Y136250D01*
G37*
G54D198*X50500Y131000D03*
Y116000D03*
G54D194*X40000Y105000D03*
G54D199*X64500Y15500D03*
G54D195*G36*
X51500Y69000D02*X59500D01*
Y61000D01*
X51500D01*
Y69000D01*
G37*
G36*
X36000Y61000D02*Y69000D01*
X44000D01*
Y61000D01*
X36000D01*
G37*
G36*
X54800Y82500D02*X62800D01*
Y74500D01*
X54800D01*
Y82500D01*
G37*
G36*
X18000Y61000D02*Y69000D01*
X26000D01*
Y61000D01*
X18000D01*
G37*
G54D194*X22000Y105000D03*
G54D195*G36*
X68500Y99500D02*X76500D01*
Y91500D01*
X68500D01*
Y99500D01*
G37*
G36*
X61000Y51000D02*X69500D01*
Y49000D01*
X61000D01*
Y51000D01*
G37*
G36*
Y46000D02*X69500D01*
Y44000D01*
X61000D01*
Y46000D01*
G37*
G36*
Y41000D02*X69500D01*
Y39000D01*
X61000D01*
Y41000D01*
G37*
G36*
Y36000D02*X69500D01*
Y34000D01*
X61000D01*
Y36000D01*
G37*
G54D200*X90425Y165933D03*
G54D201*X103614Y144280D03*
X111882Y154122D03*
X103614D03*
G54D200*X117000Y169083D03*
X143575Y165933D03*
G54D201*X130386Y154122D03*
G54D202*X260500Y160500D03*
G54D195*G36*
X163949Y169782D02*Y159939D01*
X173791D01*
Y169782D01*
X163949D01*
G37*
G54D203*X227925Y164860D03*
G54D201*X130386Y144280D03*
G54D202*X300500Y160500D03*
G54D194*X298000Y112000D03*
X270500Y140500D03*
X280500D03*
G54D195*G36*
X156713Y133945D02*X163602D01*
Y127055D01*
X156713D01*
Y133945D01*
G37*
G54D197*X170000Y130500D03*
G54D195*G36*
X196038Y133888D02*X202927D01*
Y126999D01*
X196038D01*
Y133888D01*
G37*
G54D197*X209325Y130444D03*
G54D204*G54D205*G54D206*G54D205*G54D204*G54D205*G54D207*G54D205*G54D207*G54D204*G54D207*G54D208*G54D209*G54D204*G54D210*G54D204*G54D211*G54D212*G54D211*G54D212*G54D213*G54D214*G54D212*G54D213*G54D204*G54D215*G54D206*G54D216*X309500Y190350D02*X251500D01*
Y169500D01*
Y130650D02*Y151500D01*
X234815Y151081D02*Y178640D01*
X309500Y130650D02*Y151500D01*
Y190350D02*Y169500D01*
Y189516D03*
X303500Y99200D02*Y74200D01*
X251500Y130650D02*X309500D01*
X258000Y112000D02*X268000D01*
Y115333D02*Y108667D01*
X288000Y112000D02*X298000D01*
X268000Y115333D02*X288000D01*
Y108667D02*X268000D01*
X288000D02*Y115333D01*
X253500Y99200D02*X303500D01*
X258500Y93200D02*X298500D01*
Y99200D01*
X253500Y41200D02*X303500D01*
X253500Y66200D02*X303500D01*
X253500Y74200D02*X303500D01*
X258500Y60200D02*Y66200D01*
X253500D02*Y41200D01*
X258500Y93200D02*Y99200D01*
X253500D02*Y74200D01*
X258500Y60200D02*X298500D01*
Y66200D01*
X303500D02*Y41200D01*
G54D207*X50500Y124000D02*Y123000D01*
X13500Y124000D02*Y123000D01*
X32000Y124000D02*Y123000D01*
G54D217*X161978Y124594D02*X156478D01*
X161978Y122626D02*X158234D01*
X161978Y120657D02*X161618D01*
X201303Y124538D02*X195803D01*
X201303Y122570D02*X197559D01*
X201303Y120601D02*X200944D01*
G54D218*X233638Y115240D02*X238362D01*
X233638Y107760D02*X238362D01*
G54D216*X93000Y114500D02*X97925D01*
X107775D02*X112700D01*
X97925Y116142D02*Y112858D01*
Y116142D02*X107775D01*
Y112858D02*X97925D01*
X107775D02*Y116142D01*
X55500Y65000D02*X65500D01*
X58800Y78500D02*X67375D01*
Y81358D02*Y75642D01*
X59500Y52500D02*Y32500D01*
X67375Y81358D02*X84525D01*
Y75642D02*X67375D01*
X84525D02*Y81358D01*
X65500Y68333D02*Y61667D01*
X91500Y32500D02*X59500D01*
X91500D02*Y52500D01*
X59500D02*X73000D01*
X78000D02*X91500D01*
X65500Y68333D02*X85500D01*
X84525Y78500D02*X93100D01*
X72500Y95500D02*X82500D01*
Y98833D02*Y92167D01*
Y98833D02*X102500D01*
Y92167D02*Y98833D01*
Y92167D02*X82500D01*
X85500Y65000D02*X95500D01*
X85500Y61667D02*X65500D01*
X85500D02*Y68333D01*
X156823Y74500D02*X160823D01*
X124020D02*X128020D01*
G54D217*X139321Y68594D02*X133820D01*
X139321Y66626D02*X135577D01*
X139321Y64657D02*X138961D01*
G54D216*X126020Y76500D02*Y72500D01*
X115500Y52000D02*X129000D01*
X134000D02*X147500D01*
X115500D02*Y32000D01*
X147500D02*X115500D01*
G54D218*X124543Y24240D02*X129267D01*
G54D216*X147500Y32000D02*Y52000D01*
X198000Y19500D02*X208000D01*
G54D218*X157260Y48138D02*Y52862D01*
X164740Y48138D02*Y52862D01*
X176260Y42043D02*Y46767D01*
X183740Y42043D02*Y46767D01*
G54D216*X228000Y19500D02*X238000D01*
X228000Y16167D02*Y22833D01*
X208000D02*Y16167D01*
G54D218*X215650Y77755D02*X216436D01*
X215650Y72245D02*X216436D01*
G54D216*X208000Y22833D02*X228000D01*
Y16167D02*X208000D01*
G54D218*X124543Y16760D02*X129267D01*
G54D217*X139321Y80406D02*X133820D01*
X139321Y82374D02*X135577D01*
G54D216*X128043Y103500D02*X138043D01*
Y106833D02*Y100167D01*
X158043Y103500D02*X168043D01*
X138043Y106833D02*X158043D01*
Y100167D02*X138043D01*
X158043D02*Y106833D01*
G54D217*X139321Y84343D02*X138961D01*
G54D218*X183138Y94740D02*X187862D01*
X183138Y87260D02*X187862D01*
G54D219*X201940Y92708D02*X207058D01*
X201940Y81291D02*X207058D01*
Y92708D02*Y81291D01*
X201940Y92708D02*Y81291D01*
G54D218*X219638Y97240D02*X224362D01*
X219638Y89760D02*X224362D01*
G54D216*X102500Y95500D02*X112500D01*
X22000Y65000D02*Y75000D01*
X25333Y95000D02*Y75000D01*
X36667D02*Y95000D01*
X43333D02*Y75000D01*
Y95000D02*X36667D01*
X22000D02*Y105000D01*
X25333Y95000D02*X18667D01*
X40000D02*Y105000D01*
X18667Y75000D02*X25333D01*
X40000Y65000D02*Y75000D01*
X36667D02*X43333D01*
X18667D02*Y95000D01*
X32000Y177000D02*Y169500D01*
Y177000D02*X29500Y174500D01*
X30500D02*X32000Y176000D01*
X25000Y156000D02*Y152000D01*
X27000Y155000D02*X26000Y156000D01*
X27000Y153000D02*Y155000D01*
X26000Y156000D02*X25000D01*
X12000Y150000D02*X12500Y149500D01*
Y148500D01*
X12000Y148000D01*
X11000D01*
X25000Y152000D02*X26000D01*
X27000Y153000D01*
X10500Y143500D02*X12000D01*
X12500Y143000D01*
Y142000D01*
X12000Y147500D02*X12500Y146000D01*
X9000Y179000D02*Y175000D01*
X11000D01*
X12000Y141500D02*X11000D01*
X10500Y150000D02*Y146000D01*
X7000Y181000D02*Y131000D01*
X12500Y142000D02*X12000Y141500D01*
Y141000D02*X12500Y139500D01*
X10500Y143500D02*Y139500D01*
Y150000D02*X12000D01*
X16500Y143000D02*Y141500D01*
X14500Y139500D02*X16500D01*
Y141500D02*X14500Y139500D01*
Y143000D02*X15000Y143500D01*
X16000D02*X16500Y143000D01*
X15000Y143500D02*X16000D01*
X14500Y146000D02*X16500D01*
X15500D02*Y150000D01*
X14500Y149000D01*
X29000Y152000D02*Y156000D01*
X30500D01*
X31000Y155500D01*
X30500Y149000D02*Y147000D01*
X31500Y150000D02*X30500Y149000D01*
X32000Y150000D02*X31500D01*
X30500Y142500D02*Y140500D01*
Y147000D02*X31500Y146000D01*
X32000D01*
Y143500D02*X31500D01*
X30500Y142500D01*
Y140500D02*X31500Y139500D01*
X32000D01*
X31000Y155500D02*Y154500D01*
X30500Y154000D01*
X29500D01*
Y174500D02*X34500D01*
X32000Y177000D01*
Y176000D02*X33500Y174500D01*
X34000Y156000D02*X33000D01*
X53000Y179000D02*Y175000D01*
X37000Y156000D02*X39000D01*
X54500Y176500D02*X55000Y175000D01*
X51500Y143000D02*X52000Y143500D01*
X53000D02*X53500Y143000D01*
X51500Y146000D02*X53500D01*
X52500D02*Y150000D01*
X51500Y149000D01*
X47500Y139500D02*X49500D01*
X53500Y143000D02*Y141500D01*
X51500Y139500D01*
X53500D01*
X47500Y150000D02*Y146000D01*
X49500D01*
X47500Y143500D02*Y139500D01*
X54500Y177000D02*X53500D01*
X33000Y156000D02*Y152000D01*
X34000D02*X35000Y153000D01*
Y155000D01*
X38000Y156000D02*Y152000D01*
X33000D02*X34000D01*
X32000Y146000D02*X33000Y147000D01*
Y149000D02*X32000Y150000D01*
X7000Y137000D02*X57000D01*
X55000Y178500D02*Y177500D01*
X54500Y177000D01*
X52000Y143500D02*X53000D01*
X33000Y142500D02*X32000Y143500D01*
Y139500D02*X33000Y140500D01*
X57000Y131000D02*Y181000D01*
X35000Y155000D02*X34000Y156000D01*
X53000Y179000D02*X54500D01*
X55000Y178500D01*
X90425Y136406D02*Y155737D01*
Y187390D02*Y176052D01*
X161980Y178640D02*Y151081D01*
G54D217*X161978Y136406D02*X156478D01*
X161978Y138374D02*X158234D01*
X161978Y140343D02*X161618D01*
G54D216*X179480Y130500D02*X183480D01*
X146677D02*X150677D01*
X148677Y132500D02*Y128500D01*
X196429Y168797D02*Y160923D01*
X200366Y168797D02*Y160923D01*
X196429Y164860D02*X175760D01*
X200366D02*X221035D01*
G54D217*X201303Y136349D02*X195803D01*
X201303Y138318D02*X197559D01*
X201303Y140286D02*X200944D01*
G54D216*X218805Y130444D02*X222805D01*
X186002D02*X190002D01*
X188002Y132444D02*Y128444D01*
X25500Y185500D02*Y187500D01*
X22000Y186500D02*Y187500D01*
X7000Y181000D02*X16500D01*
Y182000D02*X13500D01*
Y187500D01*
X42000Y186500D02*Y187500D01*
X27500Y181000D02*X36500D01*
Y182000D02*X27500D01*
X38500Y185500D02*Y187500D01*
X57000Y181000D02*X47500D01*
X50500Y187500D02*Y182000D01*
X47500D01*
X13500Y187500D02*X50500D01*
X90425Y180500D02*X143574D01*
X234815Y178640D02*X161980D01*
X90425Y187390D02*X143575D01*
Y176052D01*
X8000Y131000D02*X7000D01*
X19000D02*X26500D01*
X37500D02*X45000D01*
X57000D02*X56000D01*
X143575Y136406D02*X90425D01*
X143575D02*Y155737D01*
X161980Y151081D02*X234815D01*
X130020Y74500D02*G75*G03X154823Y74500I12402J0D01*G01*
G75*G03X130020Y74500I-12402J0D01*G01*
X152677Y130500D02*G75*G03X177480Y130500I12402J0D01*G01*
G75*G03X152677Y130500I-12402J0D01*G01*
X129000Y52000D02*G75*G03X134000Y52000I2500J0D01*G01*
X192002Y130444D02*G75*G03X216805Y130444I12402J0D01*G01*
G75*G03X192002Y130444I-12402J0D01*G01*
X73000Y52500D02*G75*G03X78000Y52500I2500J0D01*G01*
X123000Y134010D02*Y130050D01*
Y134010D02*X124485Y132525D01*
X125970Y134010D01*
Y130050D01*
X127158Y133020D02*Y132525D01*
Y131535D02*Y130050D01*
X128643Y131535D02*Y130050D01*
Y131535D02*X129138Y132030D01*
X129633D01*
X130128Y131535D01*
Y130050D01*
X128148Y132030D02*X128643Y131535D01*
X131316Y133020D02*Y132525D01*
Y131535D02*Y130050D01*
X132801Y134010D02*Y130050D01*
X134286Y134010D02*X134781Y133515D01*
Y130545D01*
X134286Y130050D02*X134781Y130545D01*
X132306Y130050D02*X134286D01*
X132306Y134010D02*X134286D01*
X135969D02*X136959D01*
X136464D02*Y130050D01*
X135969D02*X136959D01*
X138147Y134010D02*Y130050D01*
Y134010D02*Y133515D01*
X140622Y131040D01*
Y134010D02*Y130050D01*
X141810Y134010D02*X143790D01*
X141810D02*Y132030D01*
X142305Y132525D01*
X143295D01*
X143790Y132030D01*
Y130545D01*
X143295Y130050D02*X143790Y130545D01*
X142305Y130050D02*X143295D01*
X141810Y130545D02*X142305Y130050D01*
X162610Y145000D02*X164110D01*
X162110Y145500D02*X162610Y145000D01*
X162110Y148500D02*Y145500D01*
Y148500D02*X162610Y149000D01*
X164110D01*
X166810D02*X167310Y148500D01*
X165810Y149000D02*X166810D01*
X165310Y148500D02*X165810Y149000D01*
X165310Y148500D02*Y145500D01*
X165810Y145000D01*
X166810Y147000D02*X167310Y146500D01*
X165310Y147000D02*X166810D01*
X165810Y145000D02*X166810D01*
X167310Y145500D01*
Y146500D02*Y145500D01*
X128500Y58000D02*Y54500D01*
X129000Y54000D01*
X130000D01*
X130500Y54500D01*
Y58000D02*Y54500D01*
X131700Y57500D02*X132200Y58000D01*
X133700D01*
X134200Y57500D01*
Y56500D01*
X131700Y54000D02*X134200Y56500D01*
X131700Y54000D02*X134200D01*
X195945Y180530D02*X197445D01*
X195445Y181030D02*X195945Y180530D01*
X195445Y184030D02*Y181030D01*
Y184030D02*X195945Y184530D01*
X197445D01*
X198645Y184030D02*X199145Y184530D01*
X200645D01*
X201145Y184030D01*
Y183030D01*
X198645Y180530D02*X201145Y183030D01*
X198645Y180530D02*X201145D01*
X202845D02*X203845D01*
X203345Y184530D02*Y180530D01*
X202345Y183530D02*X203345Y184530D01*
X140110Y88500D02*X141610D01*
X139610Y89000D02*X140110Y88500D01*
X139610Y92000D02*Y89000D01*
Y92000D02*X140110Y92500D01*
X141610D01*
X142810Y88500D02*X145310Y91000D01*
Y92500D02*Y91000D01*
X142810Y92500D02*X145310D01*
X182850Y96150D02*X184350D01*
X182350Y96650D02*X182850Y96150D01*
X182350Y99650D02*Y96650D01*
Y99650D02*X182850Y100150D01*
X184350D01*
X185550D02*X187550D01*
X185550D02*Y98150D01*
X186050Y98650D01*
X187050D01*
X187550Y98150D01*
Y96650D01*
X187050Y96150D02*X187550Y96650D01*
X186050Y96150D02*X187050D01*
X185550Y96650D02*X186050Y96150D01*
X143043Y113000D02*X145043D01*
X145543Y112500D01*
Y111500D01*
X145043Y111000D02*X145543Y111500D01*
X143543Y111000D02*X145043D01*
X143543Y113000D02*Y109000D01*
Y111000D02*X145543Y109000D01*
X146743Y112500D02*X147243Y113000D01*
X148743D01*
X149243Y112500D01*
Y111500D01*
X146743Y109000D02*X149243Y111500D01*
X146743Y109000D02*X149243D01*
X150443Y111000D02*X152443Y113000D01*
X150443Y111000D02*X152943D01*
X152443Y113000D02*Y109000D01*
X187500Y57000D02*Y53000D01*
X187000Y57000D02*X189000D01*
X189500Y56500D01*
Y55500D01*
X189000Y55000D02*X189500Y55500D01*
X187500Y55000D02*X189000D01*
X191200Y53000D02*X192700D01*
X190700Y53500D02*X191200Y53000D01*
X190700Y56500D02*Y53500D01*
Y56500D02*X191200Y57000D01*
X192700D01*
X193900Y53000D02*X195900D01*
X196400Y53500D01*
Y54500D02*Y53500D01*
X195900Y55000D02*X196400Y54500D01*
X194400Y55000D02*X195900D01*
X194400Y57000D02*Y53000D01*
X193900Y57000D02*X195900D01*
X196400Y56500D01*
Y55500D01*
X195900Y55000D02*X196400Y55500D01*
X199900Y57000D02*Y53000D01*
X201400Y57000D02*X201900Y56500D01*
Y53500D01*
X201400Y53000D02*X201900Y53500D01*
X199400Y53000D02*X201400D01*
X199400Y57000D02*X201400D01*
X203600Y53000D02*X205100D01*
X203100Y53500D02*X203600Y53000D01*
X203100Y54500D02*Y53500D01*
Y54500D02*X203600Y55000D01*
X204600D01*
X205100Y54500D01*
X203100Y54000D02*X205100D01*
Y54500D01*
X206800Y53000D02*X208300D01*
X208800Y53500D01*
X208300Y54000D02*X208800Y53500D01*
X206800Y54000D02*X208300D01*
X206300Y54500D02*X206800Y54000D01*
X206300Y54500D02*X206800Y55000D01*
X208300D01*
X208800Y54500D01*
X206300Y53500D02*X206800Y53000D01*
X210000Y56000D02*Y55500D01*
Y54500D02*Y53000D01*
X212500Y55000D02*X213000Y54500D01*
X211500Y55000D02*X212500D01*
X211000Y54500D02*X211500Y55000D01*
X211000Y54500D02*Y53500D01*
X211500Y53000D01*
X212500D01*
X213000Y53500D01*
X211000Y52000D02*X211500Y51500D01*
X212500D01*
X213000Y52000D01*
Y55000D02*Y52000D01*
X214700Y54500D02*Y53000D01*
Y54500D02*X215200Y55000D01*
X215700D01*
X216200Y54500D01*
Y53000D01*
X214200Y55000D02*X214700Y54500D01*
X217400Y55500D02*X217900D01*
X217400Y54500D02*X217900D01*
X220900Y55000D02*X222400D01*
X220900Y53000D02*X222900D01*
X220900Y57000D02*Y53000D01*
Y57000D02*X222900D01*
X224100Y55000D02*X225600D01*
X224100Y53000D02*X226100D01*
X224100Y57000D02*Y53000D01*
Y57000D02*X226100D01*
X227300D02*Y53000D01*
Y57000D02*X229300D01*
X227300Y55000D02*X228800D01*
X252537Y124690D02*X254037D01*
X252037Y125190D02*X252537Y124690D01*
X252037Y128190D02*Y125190D01*
Y128190D02*X252537Y128690D01*
X254037D01*
X255237Y128190D02*Y125190D01*
Y128190D02*X255737Y128690D01*
X256737D01*
X257237Y128190D01*
Y125190D01*
X256737Y124690D02*X257237Y125190D01*
X255737Y124690D02*X256737D01*
X255237Y125190D02*X255737Y124690D01*
X258437Y128690D02*Y124690D01*
Y128690D02*Y128190D01*
X260937Y125690D01*
Y128690D02*Y124690D01*
X262137Y128690D02*Y124690D01*
Y128690D02*Y128190D01*
X264637Y125690D01*
Y128690D02*Y124690D01*
X265837Y128190D02*X266337Y128690D01*
X267337D01*
X267837Y128190D01*
Y125190D01*
X267337Y124690D02*X267837Y125190D01*
X266337Y124690D02*X267337D01*
X265837Y125190D02*X266337Y124690D01*
Y126690D02*X267837D01*
X196638Y98402D02*Y95402D01*
X197638Y94402D01*
X198638Y95402D01*
Y98402D02*Y95402D01*
X199838Y98402D02*X201838D01*
X202338Y97902D01*
Y96902D01*
X201838Y96402D02*X202338Y96902D01*
X200338Y96402D02*X201838D01*
X200338Y98402D02*Y94402D01*
Y96402D02*X202338Y94402D01*
X203538Y96402D02*X205038D01*
X203538Y94402D02*X205538D01*
X203538Y98402D02*Y94402D01*
Y98402D02*X205538D01*
X208738D02*X209238Y97902D01*
X207238Y98402D02*X208738D01*
X206738Y97902D02*X207238Y98402D01*
X206738Y97902D02*Y94902D01*
X207238Y94402D01*
X208738D01*
X209238Y94902D01*
Y95902D02*Y94902D01*
X208738Y96402D02*X209238Y95902D01*
X207738Y96402D02*X208738D01*
X210938Y94402D02*X211938D01*
X211438Y98402D02*Y94402D01*
X210438Y97402D02*X211438Y98402D01*
X220156Y98622D02*X221656D01*
X219656Y99122D02*X220156Y98622D01*
X219656Y102122D02*Y99122D01*
Y102122D02*X220156Y102622D01*
X221656D01*
X222856Y98622D02*X224856Y100622D01*
Y102122D02*Y100622D01*
X224356Y102622D02*X224856Y102122D01*
X223356Y102622D02*X224356D01*
X222856Y102122D02*X223356Y102622D01*
X222856Y102122D02*Y101122D01*
X223356Y100622D01*
X224856D01*
X213812Y79209D02*X215312D01*
X213312Y79709D02*X213812Y79209D01*
X213312Y82709D02*Y79709D01*
Y82709D02*X213812Y83209D01*
X215312D01*
X216512Y81209D02*X218512Y83209D01*
X216512Y81209D02*X219012D01*
X218512Y83209D02*Y79209D01*
X230945Y120650D02*X232945D01*
X233445Y120150D01*
Y119150D01*
X232945Y118650D02*X233445Y119150D01*
X231445Y118650D02*X232945D01*
X231445Y120650D02*Y116650D01*
Y118650D02*X233445Y116650D01*
X234645Y120150D02*X235145Y120650D01*
X236645D01*
X237145Y120150D01*
Y119150D01*
X234645Y116650D02*X237145Y119150D01*
X234645Y116650D02*X237145D01*
X238345Y120150D02*X238845Y120650D01*
X239845D01*
X240345Y120150D01*
Y117150D01*
X239845Y116650D02*X240345Y117150D01*
X238845Y116650D02*X239845D01*
X238345Y117150D02*X238845Y116650D01*
Y118650D02*X240345D01*
X202435Y144944D02*X203935D01*
X201935Y145444D02*X202435Y144944D01*
X201935Y148444D02*Y145444D01*
Y148444D02*X202435Y148944D01*
X203935D01*
X205135Y148444D02*X205635Y148944D01*
X206635D01*
X207135Y148444D01*
Y145444D01*
X206635Y144944D02*X207135Y145444D01*
X205635Y144944D02*X206635D01*
X205135Y145444D02*X205635Y144944D01*
Y146944D02*X207135D01*
X214500Y25000D02*X216000D01*
X214000Y25500D02*X214500Y25000D01*
X214000Y28500D02*Y25500D01*
Y28500D02*X214500Y29000D01*
X216000D01*
X217700Y25000D02*X218700D01*
X218200Y29000D02*Y25000D01*
X217200Y28000D02*X218200Y29000D01*
X220400Y25000D02*X221400D01*
X220900Y29000D02*Y25000D01*
X219900Y28000D02*X220900Y29000D01*
X123350Y26150D02*X124850D01*
X122850Y26650D02*X123350Y26150D01*
X122850Y29650D02*Y26650D01*
Y29650D02*X123350Y30150D01*
X124850D01*
X126550Y26150D02*X127550D01*
X127050Y30150D02*Y26150D01*
X126050Y29150D02*X127050Y30150D01*
X128750Y29650D02*X129250Y30150D01*
X130250D01*
X130750Y29650D01*
Y26650D01*
X130250Y26150D02*X130750Y26650D01*
X129250Y26150D02*X130250D01*
X128750Y26650D02*X129250Y26150D01*
Y28150D02*X130750D01*
X155878Y46656D02*Y48156D01*
X155378Y46156D02*X155878Y46656D01*
X152378Y46156D02*X155378D01*
X152378D02*X151878Y46656D01*
Y48156D01*
X155878Y49856D02*Y50856D01*
X151878Y50356D02*X155878D01*
X152878Y49356D02*X151878Y50356D01*
X152378Y52056D02*X151878Y52556D01*
Y54056D01*
X152378Y54556D01*
X153378D01*
X155878Y52056D02*X153378Y54556D01*
X155878Y52056D02*Y54556D01*
X170850Y40255D02*Y42255D01*
X171350Y42755D01*
X172350D01*
X172850Y42255D02*X172350Y42755D01*
X172850Y40755D02*Y42255D01*
X170850Y40755D02*X174850D01*
X172850D02*X174850Y42755D01*
Y44455D02*Y45455D01*
X170850Y44955D02*X174850D01*
X171850Y43955D02*X170850Y44955D01*
X174350Y46655D02*X174850Y47155D01*
X171350Y46655D02*X174350D01*
X171350D02*X170850Y47155D01*
Y48155D01*
X171350Y48655D01*
X174350D01*
X174850Y48155D02*X174350Y48655D01*
X174850Y47155D02*Y48155D01*
X173850Y46655D02*X171850Y48655D01*
X257970Y28000D02*Y29980D01*
X256980Y28990D02*X258960D01*
X259950Y31663D02*Y32653D01*
X255990Y32158D02*X259950D01*
X256980Y31168D02*X255990Y32158D01*
Y33841D02*Y35821D01*
Y33841D02*X257970D01*
X257475Y34336D01*
Y35326D01*
X257970Y35821D01*
X259455D01*
X259950Y35326D02*X259455Y35821D01*
X259950Y34336D02*Y35326D01*
X259455Y33841D02*X259950Y34336D01*
X255990Y37009D02*X258960D01*
X259950Y37999D01*
X258960Y38989D01*
X255990D02*X258960D01*
X265990Y30980D02*X266485Y31475D01*
X265990Y29495D02*Y30980D01*
X266485Y29000D02*X265990Y29495D01*
X266485Y29000D02*X269455D01*
X269950Y29495D01*
Y30980D01*
X269455Y31475D01*
X268465D02*X269455D01*
X267970Y30980D02*X268465Y31475D01*
X267970Y29990D02*Y30980D01*
X265990Y32663D02*X269950D01*
X265990D02*X266485D01*
X268960Y35138D01*
X265990D02*X269950D01*
X265990Y36821D02*X269950D01*
X265990Y38306D02*X266485Y38801D01*
X269455D01*
X269950Y38306D02*X269455Y38801D01*
X269950Y36326D02*Y38306D01*
X265990Y36326D02*Y38306D01*
X187500Y59000D02*X189000D01*
X187000Y59500D02*X187500Y59000D01*
X187000Y62500D02*Y59500D01*
Y62500D02*X187500Y63000D01*
X189000D01*
X190200Y62000D02*Y61500D01*
Y60500D02*Y59000D01*
X191700Y60500D02*Y59000D01*
Y60500D02*X192200Y61000D01*
X193200D01*
X191200D02*X191700Y60500D01*
X194900Y61000D02*X196400D01*
X194400Y60500D02*X194900Y61000D01*
X194400Y60500D02*Y59500D01*
X194900Y59000D01*
X196400D01*
X197600Y61000D02*Y59500D01*
X198100Y59000D01*
X199100D01*
X199600Y59500D01*
Y61000D02*Y59500D01*
X200800Y62000D02*Y61500D01*
Y60500D02*Y59000D01*
X202300Y63000D02*Y59500D01*
X202800Y59000D01*
X201800Y61500D02*X202800D01*
X206100Y63000D02*Y59000D01*
X207600Y63000D02*X208100Y62500D01*
Y59500D01*
X207600Y59000D02*X208100Y59500D01*
X205600Y59000D02*X207600D01*
X205600Y63000D02*X207600D01*
X209800Y59000D02*X211300D01*
X209300Y59500D02*X209800Y59000D01*
X209300Y60500D02*Y59500D01*
Y60500D02*X209800Y61000D01*
X210800D01*
X211300Y60500D01*
X209300Y60000D02*X211300D01*
Y60500D01*
X213000Y59000D02*X214500D01*
X215000Y59500D01*
X214500Y60000D02*X215000Y59500D01*
X213000Y60000D02*X214500D01*
X212500Y60500D02*X213000Y60000D01*
X212500Y60500D02*X213000Y61000D01*
X214500D01*
X215000Y60500D01*
X212500Y59500D02*X213000Y59000D01*
X216200Y62000D02*Y61500D01*
Y60500D02*Y59000D01*
X218700Y61000D02*X219200Y60500D01*
X217700Y61000D02*X218700D01*
X217200Y60500D02*X217700Y61000D01*
X217200Y60500D02*Y59500D01*
X217700Y59000D01*
X218700D01*
X219200Y59500D01*
X217200Y58000D02*X217700Y57500D01*
X218700D01*
X219200Y58000D01*
Y61000D02*Y58000D01*
X220900Y60500D02*Y59000D01*
Y60500D02*X221400Y61000D01*
X221900D01*
X222400Y60500D01*
Y59000D01*
X220400Y61000D02*X220900Y60500D01*
X223600Y61500D02*X224100D01*
X223600Y60500D02*X224100D01*
X227100Y63000D02*X228100D01*
X227600D02*Y59000D01*
X227100D02*X228100D01*
X229300Y63000D02*X230800D01*
Y59500D01*
X230300Y59000D02*X230800Y59500D01*
X229800Y59000D02*X230300D01*
X229300Y59500D02*X229800Y59000D01*
X234000Y63000D02*X234500Y62500D01*
X232500Y63000D02*X234000D01*
X232000Y62500D02*X232500Y63000D01*
X232000Y62500D02*Y61500D01*
X232500Y61000D01*
X234000D01*
X234500Y60500D01*
Y59500D01*
X234000Y59000D02*X234500Y59500D01*
X232500Y59000D02*X234000D01*
X232000Y59500D02*X232500Y59000D01*
X237500Y61000D02*X239500D01*
X238500Y62000D02*Y60000D01*
X242500Y61000D02*X244000D01*
X242500Y59000D02*X244500D01*
X242500Y63000D02*Y59000D01*
Y63000D02*X244500D01*
X245700Y61000D02*X247200D01*
X245700Y59000D02*X247700D01*
X245700Y63000D02*Y59000D01*
Y63000D02*X247700D01*
X248900D02*Y59000D01*
Y63000D02*X250900D01*
X248900Y61000D02*X250400D01*
X299500Y124050D02*X301480D01*
X301975Y124545D01*
Y125535D02*Y124545D01*
X301480Y126030D02*X301975Y125535D01*
X299995Y126030D02*X301480D01*
X299995Y128010D02*Y124050D01*
X299500Y128010D02*X301480D01*
X301975Y127515D01*
Y126525D01*
X301480Y126030D02*X301975Y126525D01*
X303163Y128010D02*Y124050D01*
Y128010D02*Y127515D01*
X305638Y125040D01*
Y128010D02*Y124050D01*
X307321D02*X308806D01*
X306826Y124545D02*X307321Y124050D01*
X306826Y127515D02*Y124545D01*
Y127515D02*X307321Y128010D01*
X308806D01*
X274500Y117500D02*X276000D01*
X274000Y118000D02*X274500Y117500D01*
X274000Y121000D02*Y118000D01*
Y121000D02*X274500Y121500D01*
X276000D01*
X277700Y117500D02*X278700D01*
X278200Y121500D02*Y117500D01*
X277200Y120500D02*X278200Y121500D01*
X279900Y118000D02*X280400Y117500D01*
X279900Y121000D02*Y118000D01*
Y121000D02*X280400Y121500D01*
X281400D01*
X281900Y121000D01*
Y118000D01*
X281400Y117500D02*X281900Y118000D01*
X280400Y117500D02*X281400D01*
X279900Y118500D02*X281900Y120500D01*
X271000Y68000D02*X272500D01*
X270500Y68500D02*X271000Y68000D01*
X270500Y71500D02*Y68500D01*
Y71500D02*X271000Y72000D01*
X272500D01*
X273700Y71500D02*Y68500D01*
Y71500D02*X274200Y72000D01*
X275200D01*
X275700Y71500D01*
Y68500D01*
X275200Y68000D02*X275700Y68500D01*
X274200Y68000D02*X275200D01*
X273700Y68500D02*X274200Y68000D01*
X276900Y72000D02*Y68000D01*
Y72000D02*Y71500D01*
X279400Y69000D01*
Y72000D02*Y68000D01*
X280600Y72000D02*Y68000D01*
Y72000D02*Y71500D01*
X283100Y69000D01*
Y72000D02*Y68000D01*
X284300Y70000D02*X286300Y72000D01*
X284300Y70000D02*X286800D01*
X286300Y72000D02*Y68000D01*
X271000Y101000D02*X272500D01*
X270500Y101500D02*X271000Y101000D01*
X270500Y104500D02*Y101500D01*
Y104500D02*X271000Y105000D01*
X272500D01*
X273700Y104500D02*Y101500D01*
Y104500D02*X274200Y105000D01*
X275200D01*
X275700Y104500D01*
Y101500D01*
X275200Y101000D02*X275700Y101500D01*
X274200Y101000D02*X275200D01*
X273700Y101500D02*X274200Y101000D01*
X276900Y105000D02*Y101000D01*
Y105000D02*Y104500D01*
X279400Y102000D01*
Y105000D02*Y101000D01*
X280600Y105000D02*Y101000D01*
Y105000D02*Y104500D01*
X283100Y102000D01*
Y105000D02*Y101000D01*
X284800D02*X285800D01*
X285300Y105000D02*Y101000D01*
X284300Y104000D02*X285300Y105000D01*
X276490Y30980D02*X276985Y31475D01*
X276490Y29495D02*Y30980D01*
X276985Y29000D02*X276490Y29495D01*
X276985Y29000D02*X279955D01*
X280450Y29495D01*
Y30980D01*
X279955Y31475D01*
X278965D02*X279955D01*
X278470Y30980D02*X278965Y31475D01*
X278470Y29990D02*Y30980D01*
X276490Y32663D02*X280450D01*
X276490D02*X276985D01*
X279460Y35138D01*
X276490D02*X280450D01*
X276490Y36821D02*X280450D01*
X276490Y38306D02*X276985Y38801D01*
X279955D01*
X280450Y38306D02*X279955Y38801D01*
X280450Y36326D02*Y38306D01*
X276490Y36326D02*Y38306D01*
X288470Y28000D02*Y29980D01*
X290450Y31663D02*Y32653D01*
X286490Y32158D02*X290450D01*
X287480Y31168D02*X286490Y32158D01*
Y33841D02*Y35821D01*
Y33841D02*X288470D01*
X287975Y34336D01*
Y35326D01*
X288470Y35821D01*
X289955D01*
X290450Y35326D02*X289955Y35821D01*
X290450Y34336D02*Y35326D01*
X289955Y33841D02*X290450Y34336D01*
X286490Y37009D02*X289460D01*
X290450Y37999D01*
X289460Y38989D01*
X286490D02*X289460D01*
X299950Y18495D02*Y19980D01*
X299455Y18000D02*X299950Y18495D01*
X296485Y18000D02*X299455D01*
X296485D02*X295990Y18495D01*
Y19980D01*
Y21168D02*X299950D01*
X298465D02*X297970Y21663D01*
Y22653D01*
X298465Y23148D01*
X299950D01*
X297970Y25821D02*X298465Y26316D01*
X297970Y24831D02*Y25821D01*
X298465Y24336D02*X297970Y24831D01*
X298465Y24336D02*X299455D01*
X299950Y24831D01*
X297970Y26316D02*X299455D01*
X299950Y26811D01*
Y24831D02*Y25821D01*
X299455Y26316D01*
X299950Y28494D02*Y29979D01*
X299455Y30474D01*
X298960Y29979D02*X299455Y30474D01*
X298960Y28494D02*Y29979D01*
X298465Y27999D02*X298960Y28494D01*
X298465Y27999D02*X297970Y28494D01*
Y29979D01*
X298465Y30474D01*
X299455Y27999D02*X299950Y28494D01*
Y32157D02*Y33642D01*
X299455Y34137D01*
X298960Y33642D02*X299455Y34137D01*
X298960Y32157D02*Y33642D01*
X298465Y31662D02*X298960Y32157D01*
X298465Y31662D02*X297970Y32157D01*
Y33642D01*
X298465Y34137D01*
X299455Y31662D02*X299950Y32157D01*
X296980Y35325D02*X297475D01*
X298465D02*X299950D01*
Y36810D02*Y38295D01*
X299455Y38790D01*
X298960Y38295D02*X299455Y38790D01*
X298960Y36810D02*Y38295D01*
X298465Y36315D02*X298960Y36810D01*
X298465Y36315D02*X297970Y36810D01*
Y38295D01*
X298465Y38790D01*
X299455Y36315D02*X299950Y36810D01*
X7000Y30010D02*Y26050D01*
Y30010D02*X8485Y28525D01*
X9970Y30010D01*
Y26050D01*
X11158Y29020D02*Y28525D01*
Y27535D02*Y26050D01*
X12643Y28030D02*X14128D01*
X12148Y27535D02*X12643Y28030D01*
X12148Y27535D02*Y26545D01*
X12643Y26050D01*
X14128D01*
X15811Y27535D02*Y26050D01*
Y27535D02*X16306Y28030D01*
X17296D01*
X15316D02*X15811Y27535D01*
X18484D02*Y26545D01*
Y27535D02*X18979Y28030D01*
X19969D01*
X20464Y27535D01*
Y26545D01*
X19969Y26050D02*X20464Y26545D01*
X18979Y26050D02*X19969D01*
X18484Y26545D02*X18979Y26050D01*
X22147Y27535D02*Y24565D01*
X21652Y28030D02*X22147Y27535D01*
X22642Y28030D01*
X23632D01*
X24127Y27535D01*
Y26545D01*
X23632Y26050D02*X24127Y26545D01*
X22642Y26050D02*X23632D01*
X22147Y26545D02*X22642Y26050D01*
X25315Y30010D02*Y26050D01*
Y27535D02*X25810Y28030D01*
X26800D01*
X27295Y27535D01*
Y26050D01*
X28483Y27535D02*Y26545D01*
Y27535D02*X28978Y28030D01*
X29968D01*
X30463Y27535D01*
Y26545D01*
X29968Y26050D02*X30463Y26545D01*
X28978Y26050D02*X29968D01*
X28483Y26545D02*X28978Y26050D01*
X32146Y27535D02*Y26050D01*
Y27535D02*X32641Y28030D01*
X33136D01*
X33631Y27535D01*
Y26050D01*
X31651Y28030D02*X32146Y27535D01*
X35314Y26050D02*X36799D01*
X34819Y26545D02*X35314Y26050D01*
X34819Y27535D02*Y26545D01*
Y27535D02*X35314Y28030D01*
X36304D01*
X36799Y27535D01*
X34819Y27040D02*X36799D01*
Y27535D01*
X39769Y29515D02*Y26050D01*
Y29515D02*X40264Y30010D01*
X41749D01*
X42244Y29515D01*
Y26050D01*
X39769Y28030D02*X42244D01*
X43927Y27535D02*Y26050D01*
Y27535D02*X44422Y28030D01*
X44917D01*
X45412Y27535D01*
Y26050D01*
Y27535D02*X45907Y28030D01*
X46402D01*
X46897Y27535D01*
Y26050D01*
X43432Y28030D02*X43927Y27535D01*
X48580D02*Y24565D01*
X48085Y28030D02*X48580Y27535D01*
X49075Y28030D01*
X50065D01*
X50560Y27535D01*
Y26545D01*
X50065Y26050D02*X50560Y26545D01*
X49075Y26050D02*X50065D01*
X48580Y26545D02*X49075Y26050D01*
X51748Y30010D02*Y26545D01*
X52243Y26050D01*
X53233Y29020D02*Y28525D01*
Y27535D02*Y26050D01*
X54718Y29515D02*Y26050D01*
Y29515D02*X55213Y30010D01*
X55708D01*
X54223Y28030D02*X55213D01*
X56698Y29020D02*Y28525D01*
Y27535D02*Y26050D01*
X58183D02*X59668D01*
X57688Y26545D02*X58183Y26050D01*
X57688Y27535D02*Y26545D01*
Y27535D02*X58183Y28030D01*
X59173D01*
X59668Y27535D01*
X57688Y27040D02*X59668D01*
Y27535D01*
X61351D02*Y26050D01*
Y27535D02*X61846Y28030D01*
X62836D01*
X60856D02*X61351Y27535D01*
X7000Y20000D02*X8500D01*
X7000Y18000D02*X9000D01*
X7000Y22000D02*Y18000D01*
Y22000D02*X9000D01*
X10700D02*Y18000D01*
X10200Y22000D02*X12200D01*
X12700Y21500D01*
Y20500D01*
X12200Y20000D02*X12700Y20500D01*
X10700Y20000D02*X12200D01*
X13900Y22000D02*Y18000D01*
X15900D01*
X18900Y21500D02*X19400Y22000D01*
X20900D01*
X21400Y21500D01*
Y20500D01*
X18900Y18000D02*X21400Y20500D01*
X18900Y18000D02*X21400D01*
X22600Y18500D02*X23100Y18000D01*
X22600Y21500D02*Y18500D01*
Y21500D02*X23100Y22000D01*
X24100D01*
X24600Y21500D01*
Y18500D01*
X24100Y18000D02*X24600Y18500D01*
X23100Y18000D02*X24100D01*
X22600Y19000D02*X24600Y21000D01*
X25800Y21500D02*X26300Y22000D01*
X27800D01*
X28300Y21500D01*
Y20500D01*
X25800Y18000D02*X28300Y20500D01*
X25800Y18000D02*X28300D01*
X29500Y18500D02*X30000Y18000D01*
X29500Y21500D02*Y18500D01*
Y21500D02*X30000Y22000D01*
X31000D01*
X31500Y21500D01*
Y18500D01*
X31000Y18000D02*X31500Y18500D01*
X30000Y18000D02*X31000D01*
X29500Y19000D02*X31500Y21000D01*
X32700Y18000D02*X34700D01*
X35900Y18500D02*X36400Y18000D01*
X35900Y21500D02*Y18500D01*
Y21500D02*X36400Y22000D01*
X37400D01*
X37900Y21500D01*
Y18500D01*
X37400Y18000D02*X37900Y18500D01*
X36400Y18000D02*X37400D01*
X35900Y19000D02*X37900Y21000D01*
X39100Y18000D02*X41100Y20000D01*
Y21500D02*Y20000D01*
X40600Y22000D02*X41100Y21500D01*
X39600Y22000D02*X40600D01*
X39100Y21500D02*X39600Y22000D01*
X39100Y21500D02*Y20500D01*
X39600Y20000D01*
X41100D01*
X42300Y18000D02*X44300D01*
X45500Y18500D02*X46000Y18000D01*
X45500Y21500D02*Y18500D01*
Y21500D02*X46000Y22000D01*
X47000D01*
X47500Y21500D01*
Y18500D01*
X47000Y18000D02*X47500Y18500D01*
X46000Y18000D02*X47000D01*
X45500Y19000D02*X47500Y21000D01*
X48700Y18500D02*X49200Y18000D01*
X48700Y19500D02*Y18500D01*
Y19500D02*X49200Y20000D01*
X50200D01*
X50700Y19500D01*
Y18500D01*
X50200Y18000D02*X50700Y18500D01*
X49200Y18000D02*X50200D01*
X48700Y20500D02*X49200Y20000D01*
X48700Y21500D02*Y20500D01*
Y21500D02*X49200Y22000D01*
X50200D01*
X50700Y21500D01*
Y20500D01*
X50200Y20000D02*X50700Y20500D01*
X7500Y14500D02*Y10500D01*
X7000Y14500D02*X9000D01*
X9500Y14000D01*
Y13000D01*
X9000Y12500D02*X9500Y13000D01*
X7500Y12500D02*X9000D01*
X11200Y12000D02*Y10500D01*
Y12000D02*X11700Y12500D01*
X12700D01*
X10700D02*X11200Y12000D01*
X13900D02*Y11000D01*
Y12000D02*X14400Y12500D01*
X15400D01*
X15900Y12000D01*
Y11000D01*
X15400Y10500D02*X15900Y11000D01*
X14400Y10500D02*X15400D01*
X13900Y11000D02*X14400Y10500D01*
X17600Y14500D02*Y11000D01*
X18100Y10500D01*
X17100Y13000D02*X18100D01*
X19100Y12000D02*Y11000D01*
Y12000D02*X19600Y12500D01*
X20600D01*
X21100Y12000D01*
Y11000D01*
X20600Y10500D02*X21100Y11000D01*
X19600Y10500D02*X20600D01*
X19100Y11000D02*X19600Y10500D01*
X22800Y14500D02*Y11000D01*
X23300Y10500D01*
X22300Y13000D02*X23300D01*
X24300Y12500D02*Y11000D01*
X24800Y10500D01*
X26300Y12500D02*Y9500D01*
X25800Y9000D02*X26300Y9500D01*
X24800Y9000D02*X25800D01*
X24300Y9500D02*X24800Y9000D01*
Y10500D02*X25800D01*
X26300Y11000D01*
X28000Y12000D02*Y9000D01*
X27500Y12500D02*X28000Y12000D01*
X28500Y12500D01*
X29500D01*
X30000Y12000D01*
Y11000D01*
X29500Y10500D02*X30000Y11000D01*
X28500Y10500D02*X29500D01*
X28000Y11000D02*X28500Y10500D01*
X31700D02*X33200D01*
X31200Y11000D02*X31700Y10500D01*
X31200Y12000D02*Y11000D01*
Y12000D02*X31700Y12500D01*
X32700D01*
X33200Y12000D01*
X31200Y11500D02*X33200D01*
Y12000D01*
X36200Y14000D02*Y11000D01*
Y14000D02*X36700Y14500D01*
X37700D01*
X38200Y14000D01*
Y11000D01*
X37700Y10500D02*X38200Y11000D01*
X36700Y10500D02*X37700D01*
X36200Y11000D02*X36700Y10500D01*
X39900Y14500D02*Y10500D01*
X39400Y14500D02*X41400D01*
X41900Y14000D01*
Y13000D01*
X41400Y12500D02*X41900Y13000D01*
X39900Y12500D02*X41400D01*
X43100Y14000D02*Y10500D01*
Y14000D02*X43600Y14500D01*
X45100D01*
X45600Y14000D01*
Y10500D01*
X43100Y12500D02*X45600D01*
X47300Y10500D02*X48300D01*
X47800Y14500D02*Y10500D01*
X46800Y13500D02*X47800Y14500D01*
X51000D02*X51500Y14000D01*
X50000Y14500D02*X51000D01*
X49500Y14000D02*X50000Y14500D01*
X49500Y14000D02*Y11000D01*
X50000Y10500D01*
X51000Y12500D02*X51500Y12000D01*
X49500Y12500D02*X51000D01*
X50000Y10500D02*X51000D01*
X51500Y11000D01*
Y12000D02*Y11000D01*
X53200Y10500D02*X54200D01*
X53700Y14500D02*Y10500D01*
X52700Y13500D02*X53700Y14500D01*
X55900Y10500D02*X56900D01*
X56400Y14500D02*Y10500D01*
X55400Y13500D02*X56400Y14500D01*
X61400Y12500D02*X61900Y12000D01*
X60400Y12500D02*X61400D01*
X59900Y12000D02*X60400Y12500D01*
X59900Y12000D02*Y11000D01*
X60400Y10500D01*
X61900Y12500D02*Y11000D01*
X62400Y10500D01*
X60400D02*X61400D01*
X61900Y11000D01*
X64100Y12000D02*Y10500D01*
Y12000D02*X64600Y12500D01*
X65100D01*
X65600Y12000D01*
Y10500D01*
X63600Y12500D02*X64100Y12000D01*
X68800Y14500D02*Y10500D01*
X68300D02*X68800Y11000D01*
X67300Y10500D02*X68300D01*
X66800Y11000D02*X67300Y10500D01*
X66800Y12000D02*Y11000D01*
Y12000D02*X67300Y12500D01*
X68300D01*
X68800Y12000D01*
X71800Y14500D02*Y10500D01*
X73800D01*
X75000Y14500D02*X77000D01*
X76000D02*Y10500D01*
X78700D02*X79700D01*
X79200Y14500D02*Y10500D01*
X78200Y13500D02*X79200Y14500D01*
X80900Y10500D02*X83400Y13000D01*
Y14500D02*Y13000D01*
X80900Y14500D02*X83400D01*
X86100D02*X86600Y14000D01*
X85100Y14500D02*X86100D01*
X84600Y14000D02*X85100Y14500D01*
X84600Y14000D02*Y11000D01*
X85100Y10500D01*
X86100Y12500D02*X86600Y12000D01*
X84600Y12500D02*X86100D01*
X85100Y10500D02*X86100D01*
X86600Y11000D01*
Y12000D02*Y11000D01*
X88300Y10500D02*X89300D01*
X88800Y14500D02*Y10500D01*
X87800Y13500D02*X88800Y14500D01*
X57500Y125500D02*X58000Y125000D01*
X56000Y125500D02*X57500D01*
X55500Y125000D02*X56000Y125500D01*
X55500Y125000D02*Y124000D01*
X56000Y123500D01*
X57500D01*
X58000Y123000D01*
Y122000D01*
X57500Y121500D02*X58000Y122000D01*
X56000Y121500D02*X57500D01*
X55500Y122000D02*X56000Y121500D01*
X59700D02*X60700D01*
X60200Y125500D02*Y121500D01*
X59200Y124500D02*X60200Y125500D01*
X12500Y81500D02*Y83500D01*
X13000Y84000D01*
X14000D01*
X14500Y83500D02*X14000Y84000D01*
X14500Y82000D02*Y83500D01*
X12500Y82000D02*X16500D01*
X14500D02*X16500Y84000D01*
Y85700D02*Y86700D01*
X12500Y86200D02*X16500D01*
X13500Y85200D02*X12500Y86200D01*
X16500Y88400D02*Y89400D01*
X12500Y88900D02*X16500D01*
X13500Y87900D02*X12500Y88900D01*
X30500Y81500D02*Y83500D01*
X31000Y84000D01*
X32000D01*
X32500Y83500D02*X32000Y84000D01*
X32500Y82000D02*Y83500D01*
X30500Y82000D02*X34500D01*
X32500D02*X34500Y84000D01*
Y85700D02*Y86700D01*
X30500Y86200D02*X34500D01*
X31500Y85200D02*X30500Y86200D01*
X31000Y87900D02*X30500Y88400D01*
Y89400D01*
X31000Y89900D01*
X34000D01*
X34500Y89400D02*X34000Y89900D01*
X34500Y88400D02*Y89400D01*
X34000Y87900D02*X34500Y88400D01*
X32500D02*Y89900D01*
X90634Y129752D02*X92134D01*
X90134Y130252D02*X90634Y129752D01*
X90134Y133252D02*Y130252D01*
Y133252D02*X90634Y133752D01*
X92134D01*
X93334Y133252D02*Y130252D01*
Y133252D02*X93834Y133752D01*
X94834D01*
X95334Y133252D01*
Y130252D01*
X94834Y129752D02*X95334Y130252D01*
X93834Y129752D02*X94834D01*
X93334Y130252D02*X93834Y129752D01*
X96534Y133752D02*Y129752D01*
Y133752D02*Y133252D01*
X99034Y130752D01*
Y133752D02*Y129752D01*
X100234Y133752D02*Y129752D01*
Y133752D02*Y133252D01*
X102734Y130752D01*
Y133752D02*Y129752D01*
X103934Y133252D02*X104434Y133752D01*
X105934D01*
X106434Y133252D01*
Y132252D01*
X103934Y129752D02*X106434Y132252D01*
X103934Y129752D02*X106434D01*
X71500Y74500D02*X73500D01*
X74000Y74000D01*
Y73000D01*
X73500Y72500D02*X74000Y73000D01*
X72000Y72500D02*X73500D01*
X72000Y74500D02*Y70500D01*
Y72500D02*X74000Y70500D01*
X75200Y74000D02*X75700Y74500D01*
X76700D01*
X77200Y74000D01*
Y71000D01*
X76700Y70500D02*X77200Y71000D01*
X75700Y70500D02*X76700D01*
X75200Y71000D02*X75700Y70500D01*
Y72500D02*X77200D01*
X78900Y70500D02*X79900D01*
X79400Y74500D02*Y70500D01*
X78400Y73500D02*X79400Y74500D01*
X71590Y83500D02*X73090D01*
X71090Y84000D02*X71590Y83500D01*
X71090Y87000D02*Y84000D01*
Y87000D02*X71590Y87500D01*
X73090D01*
X74290Y87000D02*X74790Y87500D01*
X75790D01*
X76290Y87000D01*
Y84000D01*
X75790Y83500D02*X76290Y84000D01*
X74790Y83500D02*X75790D01*
X74290Y84000D02*X74790Y83500D01*
Y85500D02*X76290D01*
X77490Y84000D02*X77990Y83500D01*
X77490Y87000D02*Y84000D01*
Y87000D02*X77990Y87500D01*
X78990D01*
X79490Y87000D01*
Y84000D01*
X78990Y83500D02*X79490Y84000D01*
X77990Y83500D02*X78990D01*
X77490Y84500D02*X79490Y86500D01*
X90000Y105000D02*X92000D01*
X92500Y104500D01*
Y103500D01*
X92000Y103000D02*X92500Y103500D01*
X90500Y103000D02*X92000D01*
X90500Y105000D02*Y101000D01*
Y103000D02*X92500Y101000D01*
X94200D02*X95200D01*
X94700Y105000D02*Y101000D01*
X93700Y104000D02*X94700Y105000D01*
X100910Y118000D02*X102410D01*
X100410Y118500D02*X100910Y118000D01*
X100410Y121500D02*Y118500D01*
Y121500D02*X100910Y122000D01*
X102410D01*
X104110Y118000D02*X105110D01*
X104610Y122000D02*Y118000D01*
X103610Y121000D02*X104610Y122000D01*
X73500Y58500D02*Y55000D01*
X74000Y54500D01*
X75000D01*
X75500Y55000D01*
Y58500D02*Y55000D01*
X77200Y54500D02*X78200D01*
X77700Y58500D02*Y54500D01*
X76700Y57500D02*X77700Y58500D01*
M02*
