G04 start of page 2 for group -1 layer_idx 268435460 *
G04 Title: (unknown), <virtual group> *
G04 Creator: pcb-rnd 2.2.2 *
G04 CreationDate: 2020-07-01 21:22:50 UTC *
G04 For:  *
G04 Format: Gerber/RS-274X *
G04 PCB-Dimensions: 416500 193500 *
G04 PCB-Coordinate-Origin: lower left *
%MOIN*%
%FSLAX25Y25*%
%LNBOTTOM_VIRTUAL_ASSY_NONE*%
%ADD275C,0.0100*%
%ADD274C,0.0197*%
%ADD273C,0.0080*%
%ADD272C,0.0276*%
%ADD271C,0.0280*%
%ADD270C,0.0710*%
%ADD269C,0.0350*%
%ADD268C,0.0300*%
%ADD267C,0.0400*%
%ADD266C,0.0420*%
%ADD265C,0.0394*%
%ADD264C,0.0374*%
%ADD263C,0.0320*%
%ADD262C,0.0790*%
%ADD261C,0.0358*%
%ADD260C,0.0925*%
%ADD259C,0.0650*%
%ADD258C,0.0689*%
%ADD257C,0.0600*%
%ADD256C,0.0550*%
%ADD255C,0.0720*%
%ADD254C,0.0984*%
%ADD253C,0.0800*%
%ADD252C,0.2000*%
%ADD251C,0.0001*%
%ADD250C,0.0591*%
%ADD249C,0.1575*%
%ADD248C,0.1050*%
G54D248*X22000Y181000D03*
X42000D03*
G54D249*X90425Y165933D03*
X117000Y169083D03*
G54D250*X103614Y144280D03*
X111882Y154122D03*
X103614D03*
G54D249*X143575Y165933D03*
G54D251*G36*
X159749Y154240D02*X154631D01*
Y146760D01*
X159749D01*
Y154240D01*
G37*
G36*
X171559D02*X166441D01*
Y146760D01*
X171559D01*
Y154240D01*
G37*
G54D252*X260500Y160500D03*
G54D253*X270500Y140500D03*
G54D251*G36*
X180004Y172283D02*X192996D01*
Y157717D01*
X180004D01*
Y172283D01*
G37*
G36*
X203626D02*X216618D01*
Y157717D01*
X203626D01*
Y172283D01*
G37*
G54D254*X227925Y164860D03*
G54D251*G36*
X163949Y169782D02*Y159939D01*
X173791D01*
Y169782D01*
X163949D01*
G37*
G54D250*X130386Y154122D03*
Y144280D03*
G54D252*X300500Y160500D03*
G54D253*X280500Y140500D03*
X219000Y114000D03*
X235000D03*
G54D251*G36*
X231100Y127900D02*X223900D01*
Y135100D01*
X231100D01*
Y127900D01*
G37*
G36*
X215000Y70000D02*Y78000D01*
X223000D01*
Y70000D01*
X215000D01*
G37*
G36*
X231000D02*Y78000D01*
X239000D01*
Y70000D01*
X231000D01*
G37*
G54D255*X217500Y131500D03*
X207500D03*
G54D251*G36*
X253500Y117500D02*X261500D01*
Y109500D01*
X253500D01*
Y117500D01*
G37*
G36*
X254500Y91000D02*X262500D01*
Y83000D01*
X254500D01*
Y91000D01*
G37*
G54D253*X268500Y87000D03*
X278500D03*
X288500D03*
X297500Y113500D03*
X298500Y87000D03*
G54D251*G36*
X199250Y37250D02*X204750D01*
Y31750D01*
X199250D01*
Y37250D01*
G37*
G54D256*X242000Y34500D03*
G54D251*G36*
X254500Y58000D02*X262500D01*
Y50000D01*
X254500D01*
Y58000D01*
G37*
G54D257*X268000Y13000D03*
G54D253*X268500Y54000D03*
X278500D03*
X288500D03*
X298500D03*
X222500Y19500D03*
G54D251*G36*
X26750Y136250D02*X37250D01*
Y125750D01*
X26750D01*
Y136250D01*
G37*
G54D248*X32000Y116000D03*
G54D257*X20000Y53000D03*
G54D251*G36*
X18000Y61000D02*Y69000D01*
X26000D01*
Y61000D01*
X18000D01*
G37*
G54D253*X22000Y105000D03*
G54D257*X30000Y53000D03*
X20000Y23000D03*
X30000D03*
G54D248*X13500Y131000D03*
X50500D03*
Y116000D03*
G54D257*X40000Y53000D03*
G54D251*G36*
X51500Y69000D02*X59500D01*
Y61000D01*
X51500D01*
Y69000D01*
G37*
G54D253*X40000Y105000D03*
G54D251*G36*
X47000Y56000D02*X53000D01*
Y50000D01*
X47000D01*
Y56000D01*
G37*
G54D257*X40000Y23000D03*
X50000D03*
G54D251*G36*
X116500Y57500D02*X122500D01*
Y51500D01*
X116500D01*
Y57500D01*
G37*
G54D257*X119500Y44500D03*
Y34500D03*
Y24500D03*
G54D253*X95500Y65000D03*
G54D251*G36*
X91500Y95000D02*X99500D01*
Y87000D01*
X91500D01*
Y95000D01*
G37*
G36*
Y111000D02*X99500D01*
Y103000D01*
X91500D01*
Y111000D01*
G37*
G54D253*X115200Y107000D03*
G54D251*G36*
X107300Y75000D02*X115300D01*
Y67000D01*
X107300D01*
Y75000D01*
G37*
G36*
X62026Y50158D02*X70026D01*
Y42158D01*
X62026D01*
Y50158D01*
G37*
G54D253*X106026Y46158D03*
G54D251*G36*
X92500Y20500D02*Y28500D01*
X100500D01*
Y20500D01*
X92500D01*
G37*
G54D253*X96500Y34500D03*
G54D251*G36*
X36000Y61000D02*Y69000D01*
X44000D01*
Y61000D01*
X36000D01*
G37*
G54D257*X149500Y24500D03*
G54D251*G36*
X178500Y23500D02*X186500D01*
Y15500D01*
X178500D01*
Y23500D01*
G37*
G54D257*X149500Y34500D03*
Y44500D03*
G54D251*G36*
X181555Y77445D02*X188445D01*
Y70555D01*
X181555D01*
Y77445D01*
G37*
G36*
X158000Y70000D02*Y78000D01*
X166000D01*
Y70000D01*
X158000D01*
G37*
G36*
X172500Y40500D02*Y48500D01*
X180500D01*
Y40500D01*
X172500D01*
G37*
G54D253*X176500Y54500D03*
G54D258*X194843Y74000D03*
G54D251*G36*
X186555Y109445D02*X193445D01*
Y102555D01*
X186555D01*
Y109445D01*
G37*
G54D258*X199843Y106000D03*
G54D251*G36*
X173500Y135500D02*X181500D01*
Y127500D01*
X173500D01*
Y135500D01*
G37*
G54D253*X187500Y131500D03*
G54D257*X149500Y54500D03*
G54D253*X135500Y91000D03*
X145600Y71000D03*
X162000Y114000D03*
G54D248*X13500Y116000D03*
G54D259*G54D260*G54D261*G54D260*G54D262*G54D263*G54D264*G54D261*G54D262*G54D263*G54D265*G54D266*G54D265*G54D266*G54D265*G54D267*G54D265*G54D267*G54D268*G54D267*G54D269*G54D267*G54D265*G54D270*G54D271*G54D265*G54D271*G54D270*G54D271*G54D265*G54D271*G54D265*G54D271*G54D265*G54D271*G54D272*G54D265*G54D272*G54D265*G54D271*G54D265*G54D270*G54D273*X160733Y146760D02*X165457D01*
X160733Y154240D02*X165457D01*
G54D274*X195358Y157717D02*X201264D01*
X195358Y172283D02*X201264D01*
G54D275*X159040Y144850D02*X160540D01*
X158540Y144350D02*X159040Y144850D01*
X158540Y141350D02*Y144350D01*
Y141350D02*X159040Y140850D01*
X160540D01*
X161740Y141350D02*X162240Y140850D01*
X163740D01*
X164240Y141350D01*
Y142350D01*
X161740Y144850D02*X164240Y142350D01*
X161740Y144850D02*X164240D01*
X165440Y141350D02*X165940Y140850D01*
X167440D01*
X167940Y141350D01*
Y142350D01*
X165440Y144850D02*X167940Y142350D01*
X165440Y144850D02*X167940D01*
X193661Y150252D02*X195661D01*
X196161Y150752D01*
Y151752D01*
X195661Y152252D02*X196161Y151752D01*
X194161Y152252D02*X195661D01*
X194161Y150252D02*Y154252D01*
Y152252D02*X196161Y154252D01*
X197361Y152252D02*X199361Y150252D01*
X197361Y152252D02*X199861D01*
X199361Y150252D02*Y154252D01*
X201061Y152252D02*X203061Y150252D01*
X201061Y152252D02*X203561D01*
X203061Y150252D02*Y154252D01*
M02*
