G04 start of page 2 for group 2 layer_idx 10 *
G04 Title: (unknown), top_mask *
G04 Creator: pcb-rnd 2.2.1 *
G04 CreationDate: 2020-07-01 19:56:37 UTC *
G04 For:  *
G04 Format: Gerber/RS-274X *
G04 PCB-Dimensions: 416500 193500 *
G04 PCB-Coordinate-Origin: lower left *
%MOIN*%
%FSLAX25Y25*%
%LNTOP_MASK_NONE_2*%
%ADD185C,0.0610*%
%ADD184C,0.0660*%
%ADD183C,0.0780*%
%ADD182C,0.0860*%
%ADD181C,0.2060*%
%ADD180C,0.0651*%
%ADD179C,0.1635*%
%ADD178C,0.0001*%
%ADD177C,0.1110*%
G54D177*X22000Y181000D03*
X42000D03*
G54D178*G36*
X26450Y136550D02*X37550D01*
Y125450D01*
X26450D01*
Y136550D01*
G37*
G54D177*X50500Y131000D03*
G54D179*X90425Y165933D03*
G54D180*X103614Y144280D03*
X111882Y154122D03*
X103614D03*
G54D181*X260500Y160500D03*
G54D179*X117000Y169083D03*
X143575Y165933D03*
G54D180*X130386Y154122D03*
Y144280D03*
G54D178*G36*
X232900Y148100D02*X225100D01*
Y155900D01*
X232900D01*
Y148100D01*
G37*
G54D182*X236500Y134500D03*
G54D183*X219000Y152000D03*
G54D182*X220500Y134500D03*
G54D183*X209000Y152000D03*
G54D178*G36*
X174700Y156300D02*X183300D01*
Y147700D01*
X174700D01*
Y156300D01*
G37*
G54D182*X189000Y152000D03*
G54D181*X300500Y160500D03*
G54D182*X270500Y140500D03*
X280500D03*
G54D178*G36*
X294200Y86800D02*X300800D01*
Y80200D01*
X294200D01*
Y86800D01*
G37*
G54D184*X297500Y73500D03*
Y63500D03*
Y53500D03*
G54D182*Y101000D03*
G54D184*Y43500D03*
G54D178*G36*
X184700Y83300D02*X193300D01*
Y74700D01*
X184700D01*
Y83300D01*
G37*
G36*
X170700Y104800D02*X179300D01*
Y96200D01*
X170700D01*
Y104800D01*
G37*
G54D182*X184843Y100500D03*
G54D178*G36*
X187200Y130800D02*X195800D01*
Y122200D01*
X187200D01*
Y130800D01*
G37*
G36*
X198950Y37550D02*X205050D01*
Y31450D01*
X198950D01*
Y37550D01*
G37*
G36*
X172200Y40200D02*Y48800D01*
X180800D01*
Y40200D01*
X172200D01*
G37*
G54D182*X176500Y54500D03*
X201343Y126500D03*
G54D185*X242000Y34500D03*
G54D178*G36*
X236200Y29800D02*X244800D01*
Y21200D01*
X236200D01*
Y29800D01*
G37*
G36*
X232200Y90200D02*Y98800D01*
X240800D01*
Y90200D01*
X232200D01*
G37*
G36*
X216200D02*Y98800D01*
X224800D01*
Y90200D01*
X216200D01*
G37*
G54D182*X229000Y79000D03*
G54D178*G36*
X275200Y86800D02*X281800D01*
Y80200D01*
X275200D01*
Y86800D01*
G37*
G54D184*X278500Y73500D03*
Y63500D03*
G54D178*G36*
X253200Y105300D02*X261800D01*
Y96700D01*
X253200D01*
Y105300D01*
G37*
G54D184*X278500Y53500D03*
Y43500D03*
G54D182*X280500Y25500D03*
G54D177*X13500Y131000D03*
Y116000D03*
X32000D03*
X50500D03*
G54D178*G36*
X17700Y60700D02*Y69300D01*
X26300D01*
Y60700D01*
X17700D01*
G37*
G54D182*X22000Y105000D03*
X40000D03*
G54D184*Y53000D03*
X30000D03*
G54D178*G36*
X51200Y69300D02*X59800D01*
Y60700D01*
X51200D01*
Y69300D01*
G37*
G36*
X35700Y60700D02*Y69300D01*
X44300D01*
Y60700D01*
X35700D01*
G37*
G36*
X46700Y56300D02*X53300D01*
Y49700D01*
X46700D01*
Y56300D01*
G37*
G54D184*X20000Y53000D03*
Y23000D03*
G54D178*G36*
X61726Y50458D02*X70326D01*
Y41858D01*
X61726D01*
Y50458D01*
G37*
G54D184*X30000Y23000D03*
X40000D03*
X50000D03*
G54D182*X95500Y65000D03*
G54D178*G36*
X91200Y95300D02*X99800D01*
Y86700D01*
X91200D01*
Y95300D01*
G37*
G36*
Y111300D02*X99800D01*
Y102700D01*
X91200D01*
Y111300D01*
G37*
G36*
X116200Y57800D02*X122800D01*
Y51200D01*
X116200D01*
Y57800D01*
G37*
G54D184*X149500Y54500D03*
G54D182*X135500Y91000D03*
X115200Y107000D03*
X145600Y71000D03*
G54D178*G36*
X107000Y75300D02*X115600D01*
Y66700D01*
X107000D01*
Y75300D01*
G37*
G54D184*X119500Y44500D03*
X149500D03*
G54D182*X106026Y46158D03*
G54D184*X119500Y34500D03*
X149500D03*
G54D182*X96500D03*
G54D184*X119500Y24500D03*
X149500D03*
G54D178*G36*
X92200Y20200D02*Y28800D01*
X100800D01*
Y20200D01*
X92200D01*
G37*
M02*
