M48
INCH
T22C0.032
T21C0.037
T20C0.079
T19C0.036
T18C0.093
T17C0.020
T16C0.071
T15C0.065
T14C0.040
T13C0.028
T12C0.035
T11C0.039
%
T17
G05
X006450Y001550
T13
X013750Y007450
X014734Y007450
X016016Y013050
X017000Y013050
X019948Y013044
X020933Y013044
T22
X027050Y014050
X028050Y014050
T12
X017050Y005650
X017955Y008150
X011150Y002050
X014250Y002050
X023740Y009346
X022909Y007496
X026800Y001300
T19
X010361Y014428
X011188Y015412
X010361Y015412
X013039Y015412
X013039Y014428
T21
X016887Y016486
X022793Y016486
T11
X009550Y006500
X009310Y007850
X011250Y009550
X009300Y011450
X011270Y011450
X012804Y010350
X019800Y001950
X016804Y010350
X025800Y011200
X023800Y001950
X004000Y010500
X005550Y006500
X004000Y006500
X005880Y007850
X002200Y006500
X002200Y010500
X007250Y009550
X029800Y011200
T14
X025850Y008700
X025850Y005400
X026850Y005400
X027850Y005400
X028850Y005400
X029850Y005400
X026850Y008700
X027850Y008700
X028850Y008700
X029850Y008700
T15
X002200Y018100
X004200Y018100
T16
X001350Y013100
X001350Y011600
X003200Y011600
X003200Y013100
X005050Y013100
X005050Y011600
T20
X026050Y016050
X030050Y016050
T18
X009042Y016593
X011700Y016908
X014358Y016593
M30
