M48
INCH
T22C0.028
T21C0.030
T20C0.028
T19C0.038
T18C0.032
T17C0.039
T16C0.042
T15C0.079
T14C0.036
T13C0.093
T12C0.071
T11C0.065
%
T20
G05
X017500Y010050
X018484Y010050
X019150Y012650
X020134Y012650
T22
X004000Y005300
X003000Y005300
X005000Y005300
X002000Y005300
X002000Y002300
X003000Y002300
X004000Y002300
X005000Y002300
X011950Y005450
X014950Y005450
X011950Y004450
X014950Y004450
X011950Y003450
X014950Y003450
X011950Y002450
X014950Y002450
T21
X020200Y003450
X024200Y003450
T18
X027050Y014050
X028050Y014050
T14
X010361Y014428
X011188Y015412
X010361Y015412
X013039Y015412
X013039Y014428
T19
X029750Y008350
X029750Y007350
X029750Y006350
X029750Y005350
X029750Y004350
X027850Y008350
X027850Y007350
X027850Y006350
X027850Y005350
X027850Y004350
T17
X023650Y013450
X022050Y013450
X017900Y015200
X018900Y015200
X029750Y010100
X018900Y007900
X017650Y004450
X017650Y005450
X024050Y002550
X023650Y009450
X022050Y009450
X022900Y007900
X025750Y010100
X028050Y002550
X002200Y006500
X002200Y010500
X004000Y010500
X005550Y006500
X004000Y006500
X006603Y004616
X009550Y006500
X009550Y009100
X009550Y010700
X013550Y009100
X011520Y010700
X014560Y007100
X011130Y007100
X010603Y004616
X009650Y003450
X009650Y002450
T16
X022900Y015200
X021900Y015200
X020900Y015200
T11
X002200Y018100
X004200Y018100
T12
X003200Y013100
X005050Y013100
X001350Y013100
X001350Y011600
X003200Y011600
X005050Y011600
T15
X026050Y016050
X030050Y016050
T13
X009042Y016593
X011700Y016908
X014358Y016593
M30
