G04 start of page 2 for group 16 layer_idx 1 *
G04 Title: (unknown), bottom_copper *
G04 Creator: pcb-rnd 3.1.7-dev *
G04 CreationDate: 2025-04-04 01:09:38 UTC *
G04 For:  *
G04 Format: Gerber/RS-274X *
G04 PCB-Dimensions: 316500 193500 *
G04 PCB-Coordinate-Origin: lower left *
%MOIN*%
%FSLAX25Y25*%
%LNBOTTOM_COPPER_NONE_16*%
%ADD55C,0.0280*%
%ADD54C,0.0380*%
%ADD53C,0.0320*%
%ADD52C,0.0394*%
%ADD51C,0.0420*%
%ADD50C,0.0790*%
%ADD49C,0.0358*%
%ADD48C,0.0925*%
%ADD47C,0.0710*%
%ADD46C,0.0650*%
%ADD45C,0.0600*%
%ADD44C,0.0800*%
%ADD43C,0.0720*%
%ADD42C,0.2000*%
%ADD41C,0.0591*%
%ADD40C,0.1575*%
%ADD39C,0.1050*%
%ADD38C,0.0200*%
%ADD37C,0.0250*%
%ADD36C,0.0300*%
%ADD35C,0.0400*%
%ADD34C,0.0090*%
%ADD33C,0.0100*%
%ADD32C,0.0001*%
G54D32*G36*
X228540Y78691D02*X229485Y78299D01*
X230480Y78060D01*
X231500Y77980D01*
X232520Y78060D01*
X233515Y78299D01*
X234460Y78691D01*
X235332Y79225D01*
X236110Y79890D01*
X236775Y80668D01*
X237309Y81540D01*
X237701Y82485D01*
X237940Y83480D01*
X238000Y84500D01*
X237940Y85520D01*
X237701Y86515D01*
X237309Y87460D01*
X236775Y88332D01*
X236110Y89110D01*
X235332Y89775D01*
X234460Y90309D01*
X233515Y90701D01*
X232520Y90940D01*
X231500Y91020D01*
X230480Y90940D01*
X229485Y90701D01*
X228540Y90309D01*
X227800Y89856D01*
Y118000D01*
X235500D01*
X235892Y118023D01*
X236275Y118115D01*
X236638Y118266D01*
X236974Y118471D01*
X237273Y118727D01*
X237529Y119026D01*
X237734Y119362D01*
X237885Y119725D01*
X237977Y120108D01*
X238000Y120500D01*
Y128500D01*
X237977Y128892D01*
X237885Y129275D01*
X237734Y129638D01*
X237529Y129974D01*
X237273Y130273D01*
X236974Y130529D01*
X236638Y130734D01*
X236275Y130885D01*
X235892Y130977D01*
X235500Y131000D01*
X227800D01*
Y133933D01*
X227822Y133942D01*
X228507Y134361D01*
X229117Y134883D01*
X229639Y135493D01*
X230058Y136178D01*
X230365Y136919D01*
X230553Y137700D01*
X230600Y138500D01*
X230553Y139300D01*
X230365Y140081D01*
X230058Y140822D01*
X229639Y141507D01*
X229117Y142117D01*
X228507Y142639D01*
X227822Y143058D01*
X227800Y143067D01*
Y148500D01*
X238500D01*
Y147500D01*
X235500D01*
X235029Y147472D01*
X234570Y147362D01*
X234134Y147181D01*
X233731Y146935D01*
X233372Y146628D01*
X233065Y146269D01*
X232819Y145866D01*
X232638Y145430D01*
X232528Y144971D01*
X232491Y144500D01*
X232528Y144029D01*
X232638Y143570D01*
X232819Y143134D01*
X233065Y142731D01*
X233372Y142372D01*
X233731Y142065D01*
X234134Y141819D01*
X234570Y141638D01*
X235029Y141528D01*
X235500Y141500D01*
X238500D01*
Y75500D01*
X227800Y64800D01*
Y79144D01*
X228540Y78691D01*
G37*
G36*
X227500Y131000D02*X227108Y130977D01*
X226725Y130885D01*
X226362Y130734D01*
X226026Y130529D01*
X225727Y130273D01*
X225471Y129974D01*
X225266Y129638D01*
X225115Y129275D01*
X225023Y128892D01*
X225000Y128500D01*
Y120500D01*
X225023Y120108D01*
X225115Y119725D01*
X225266Y119362D01*
X225471Y119026D01*
X225727Y118727D01*
X226026Y118471D01*
X226362Y118266D01*
X226725Y118115D01*
X227108Y118023D01*
X227500Y118000D01*
X227800D01*
Y89856D01*
X227668Y89775D01*
X226890Y89110D01*
X226225Y88332D01*
X225691Y87460D01*
X225299Y86515D01*
X225060Y85520D01*
X224980Y84500D01*
X225060Y83480D01*
X225299Y82485D01*
X225691Y81540D01*
X226225Y80668D01*
X226890Y79890D01*
X227668Y79225D01*
X227800Y79144D01*
Y64800D01*
X227500Y64500D01*
X216122D01*
Y71658D01*
X216203Y71665D01*
X216394Y71712D01*
X216576Y71788D01*
X216743Y71892D01*
X216892Y72020D01*
X217019Y72170D01*
X217121Y72339D01*
X217192Y72522D01*
X217348Y73075D01*
X217449Y73640D01*
X217500Y74213D01*
Y74787D01*
X217449Y75360D01*
X217348Y75925D01*
X217198Y76480D01*
X217125Y76663D01*
X217022Y76832D01*
X216895Y76983D01*
X216745Y77111D01*
X216578Y77215D01*
X216396Y77292D01*
X216204Y77339D01*
X216122Y77346D01*
Y78259D01*
X216138Y78266D01*
X216474Y78471D01*
X216773Y78727D01*
X217029Y79026D01*
X217234Y79362D01*
X217385Y79725D01*
X217477Y80108D01*
X217500Y80500D01*
Y88500D01*
X217477Y88892D01*
X217385Y89275D01*
X217234Y89638D01*
X217029Y89974D01*
X216773Y90273D01*
X216474Y90529D01*
X216138Y90734D01*
X216122Y90741D01*
Y102158D01*
X216203Y102165D01*
X216394Y102212D01*
X216576Y102288D01*
X216743Y102392D01*
X216892Y102520D01*
X217019Y102670D01*
X217121Y102839D01*
X217192Y103022D01*
X217348Y103575D01*
X217449Y104140D01*
X217500Y104713D01*
Y105287D01*
X217449Y105860D01*
X217348Y106425D01*
X217198Y106980D01*
X217125Y107163D01*
X217022Y107332D01*
X216895Y107483D01*
X216745Y107611D01*
X216578Y107715D01*
X216396Y107792D01*
X216204Y107839D01*
X216122Y107846D01*
Y108759D01*
X216138Y108766D01*
X216474Y108971D01*
X216773Y109227D01*
X217029Y109526D01*
X217234Y109862D01*
X217385Y110225D01*
X217477Y110608D01*
X217500Y111000D01*
Y119000D01*
X217477Y119392D01*
X217385Y119775D01*
X217234Y120138D01*
X217029Y120474D01*
X216773Y120773D01*
X216474Y121029D01*
X216138Y121234D01*
X216122Y121241D01*
Y133433D01*
X216300Y133447D01*
X217081Y133635D01*
X217822Y133942D01*
X218507Y134361D01*
X219117Y134883D01*
X219639Y135493D01*
X220058Y136178D01*
X220365Y136919D01*
X220500Y137480D01*
X220635Y136919D01*
X220942Y136178D01*
X221361Y135493D01*
X221883Y134883D01*
X222493Y134361D01*
X223178Y133942D01*
X223919Y133635D01*
X224700Y133447D01*
X225500Y133384D01*
X226300Y133447D01*
X227081Y133635D01*
X227800Y133933D01*
Y131000D01*
X227500D01*
G37*
G36*
X227081Y143365D02*X226300Y143553D01*
X225500Y143616D01*
X224700Y143553D01*
X223919Y143365D01*
X223178Y143058D01*
X222493Y142639D01*
X221883Y142117D01*
X221361Y141507D01*
X220942Y140822D01*
X220635Y140081D01*
X220500Y139520D01*
X220365Y140081D01*
X220058Y140822D01*
X219639Y141507D01*
X219117Y142117D01*
X218507Y142639D01*
X217822Y143058D01*
X217081Y143365D01*
X216300Y143553D01*
X216122Y143567D01*
Y148500D01*
X227800D01*
Y143067D01*
X227081Y143365D01*
G37*
G36*
X216007Y77355D02*X215810Y77341D01*
X215618Y77296D01*
X215436Y77221D01*
X215267Y77119D01*
X215116Y76991D01*
X214987Y76842D01*
X214883Y76674D01*
X214807Y76492D01*
X214760Y76301D01*
X214743Y76104D01*
X214758Y75907D01*
X214807Y75716D01*
X214903Y75376D01*
X214965Y75029D01*
X214996Y74677D01*
Y74323D01*
X214965Y73971D01*
X214903Y73624D01*
X214810Y73283D01*
X214762Y73092D01*
X214747Y72896D01*
X214764Y72700D01*
X214810Y72509D01*
X214887Y72328D01*
X214990Y72160D01*
X215119Y72011D01*
X215269Y71884D01*
X215437Y71782D01*
X215619Y71708D01*
X215811Y71663D01*
X216007Y71649D01*
X216122Y71658D01*
Y64500D01*
X211002D01*
Y68000D01*
X211287D01*
X211860Y68051D01*
X212425Y68152D01*
X212980Y68302D01*
X213163Y68375D01*
X213332Y68478D01*
X213483Y68605D01*
X213611Y68755D01*
X213715Y68922D01*
X213792Y69104D01*
X213839Y69296D01*
X213855Y69493D01*
X213841Y69690D01*
X213796Y69882D01*
X213721Y70064D01*
X213619Y70233D01*
X213491Y70384D01*
X213342Y70513D01*
X213174Y70617D01*
X212992Y70693D01*
X212801Y70740D01*
X212604Y70757D01*
X212407Y70742D01*
X212216Y70693D01*
X211876Y70597D01*
X211529Y70535D01*
X211177Y70504D01*
X211002D01*
Y78000D01*
X215000D01*
X215392Y78023D01*
X215775Y78115D01*
X216122Y78259D01*
Y77346D01*
X216007Y77355D01*
G37*
G36*
Y107855D02*X215810Y107841D01*
X215618Y107796D01*
X215436Y107721D01*
X215267Y107619D01*
X215116Y107491D01*
X214987Y107342D01*
X214883Y107174D01*
X214807Y106992D01*
X214760Y106801D01*
X214743Y106604D01*
X214758Y106407D01*
X214807Y106216D01*
X214903Y105876D01*
X214965Y105529D01*
X214996Y105177D01*
Y104823D01*
X214965Y104471D01*
X214903Y104124D01*
X214810Y103783D01*
X214762Y103592D01*
X214747Y103396D01*
X214764Y103200D01*
X214810Y103009D01*
X214887Y102828D01*
X214990Y102660D01*
X215119Y102511D01*
X215269Y102384D01*
X215437Y102282D01*
X215619Y102208D01*
X215811Y102163D01*
X216007Y102149D01*
X216122Y102158D01*
Y90741D01*
X215775Y90885D01*
X215392Y90977D01*
X215000Y91000D01*
X211002D01*
Y98500D01*
X211287D01*
X211860Y98551D01*
X212425Y98652D01*
X212980Y98802D01*
X213163Y98875D01*
X213332Y98978D01*
X213483Y99105D01*
X213611Y99255D01*
X213715Y99422D01*
X213792Y99604D01*
X213839Y99796D01*
X213855Y99993D01*
X213841Y100190D01*
X213796Y100382D01*
X213721Y100564D01*
X213619Y100733D01*
X213491Y100884D01*
X213342Y101013D01*
X213174Y101117D01*
X212992Y101193D01*
X212801Y101240D01*
X212604Y101257D01*
X212407Y101242D01*
X212216Y101193D01*
X211876Y101097D01*
X211529Y101035D01*
X211177Y101004D01*
X211002D01*
Y108500D01*
X215000D01*
X215392Y108523D01*
X215775Y108615D01*
X216122Y108759D01*
Y107846D01*
X216007Y107855D01*
G37*
G36*
X215775Y121385D02*X215392Y121477D01*
X215000Y121500D01*
X211002D01*
Y136079D01*
X211361Y135493D01*
X211883Y134883D01*
X212493Y134361D01*
X213178Y133942D01*
X213919Y133635D01*
X214700Y133447D01*
X215500Y133384D01*
X216122Y133433D01*
Y121241D01*
X215775Y121385D01*
G37*
G36*
X215500Y143616D02*X214700Y143553D01*
X213919Y143365D01*
X213178Y143058D01*
X212493Y142639D01*
X211883Y142117D01*
X211361Y141507D01*
X211002Y140921D01*
Y148500D01*
X216122D01*
Y143567D01*
X215500Y143616D01*
G37*
G36*
X210823Y70504D02*X210471Y70535D01*
X210124Y70597D01*
X209783Y70690D01*
X209592Y70738D01*
X209396Y70753D01*
X209200Y70736D01*
X209009Y70690D01*
X208828Y70613D01*
X208660Y70510D01*
X208511Y70381D01*
X208384Y70231D01*
X208282Y70063D01*
X208208Y69881D01*
X208163Y69689D01*
X208149Y69493D01*
X208165Y69297D01*
X208212Y69106D01*
X208288Y68924D01*
X208392Y68757D01*
X208520Y68608D01*
X208670Y68481D01*
X208839Y68379D01*
X209022Y68308D01*
X209575Y68152D01*
X210140Y68051D01*
X210713Y68000D01*
X211002D01*
Y64500D01*
X204500D01*
Y74213D01*
X204551Y73640D01*
X204652Y73075D01*
X204802Y72520D01*
X204875Y72337D01*
X204978Y72168D01*
X205105Y72017D01*
X205255Y71889D01*
X205422Y71785D01*
X205604Y71708D01*
X205796Y71661D01*
X205993Y71645D01*
X206190Y71659D01*
X206382Y71704D01*
X206564Y71779D01*
X206733Y71881D01*
X206884Y72009D01*
X207013Y72158D01*
X207117Y72326D01*
X207193Y72508D01*
X207240Y72699D01*
X207257Y72896D01*
X207242Y73093D01*
X207193Y73284D01*
X207097Y73624D01*
X207035Y73971D01*
X207004Y74323D01*
Y74677D01*
X207035Y75029D01*
X207097Y75376D01*
X207190Y75717D01*
X207238Y75908D01*
X207253Y76104D01*
X207236Y76300D01*
X207190Y76491D01*
X207113Y76672D01*
X207010Y76840D01*
X206881Y76989D01*
X206731Y77116D01*
X206563Y77218D01*
X206381Y77292D01*
X206189Y77337D01*
X205993Y77351D01*
X205797Y77335D01*
X205606Y77288D01*
X205424Y77212D01*
X205257Y77108D01*
X205108Y76980D01*
X204981Y76830D01*
X204879Y76661D01*
X204808Y76478D01*
X204652Y75925D01*
X204551Y75360D01*
X204500Y74787D01*
Y80500D01*
X204523Y80108D01*
X204615Y79725D01*
X204766Y79362D01*
X204971Y79026D01*
X205227Y78727D01*
X205526Y78471D01*
X205862Y78266D01*
X206225Y78115D01*
X206608Y78023D01*
X207000Y78000D01*
X211002D01*
Y70504D01*
X210823D01*
G37*
G36*
Y101004D02*X210471Y101035D01*
X210124Y101097D01*
X209783Y101190D01*
X209592Y101238D01*
X209396Y101253D01*
X209200Y101236D01*
X209009Y101190D01*
X208828Y101113D01*
X208660Y101010D01*
X208511Y100881D01*
X208384Y100731D01*
X208282Y100563D01*
X208208Y100381D01*
X208163Y100189D01*
X208149Y99993D01*
X208165Y99797D01*
X208212Y99606D01*
X208288Y99424D01*
X208392Y99257D01*
X208520Y99108D01*
X208670Y98981D01*
X208839Y98879D01*
X209022Y98808D01*
X209575Y98652D01*
X210140Y98551D01*
X210713Y98500D01*
X211002D01*
Y91000D01*
X207000D01*
X206608Y90977D01*
X206225Y90885D01*
X205862Y90734D01*
X205526Y90529D01*
X205227Y90273D01*
X204971Y89974D01*
X204766Y89638D01*
X204615Y89275D01*
X204523Y88892D01*
X204500Y88500D01*
Y104713D01*
X204551Y104140D01*
X204652Y103575D01*
X204802Y103020D01*
X204875Y102837D01*
X204978Y102668D01*
X205105Y102517D01*
X205255Y102389D01*
X205422Y102285D01*
X205604Y102208D01*
X205796Y102161D01*
X205993Y102145D01*
X206190Y102159D01*
X206382Y102204D01*
X206564Y102279D01*
X206733Y102381D01*
X206884Y102509D01*
X207013Y102658D01*
X207117Y102826D01*
X207193Y103008D01*
X207240Y103199D01*
X207257Y103396D01*
X207242Y103593D01*
X207193Y103784D01*
X207097Y104124D01*
X207035Y104471D01*
X207004Y104823D01*
Y105177D01*
X207035Y105529D01*
X207097Y105876D01*
X207190Y106217D01*
X207238Y106408D01*
X207253Y106604D01*
X207236Y106800D01*
X207190Y106991D01*
X207113Y107172D01*
X207010Y107340D01*
X206881Y107489D01*
X206731Y107616D01*
X206563Y107718D01*
X206381Y107792D01*
X206189Y107837D01*
X205993Y107851D01*
X205797Y107835D01*
X205606Y107788D01*
X205424Y107712D01*
X205257Y107608D01*
X205108Y107480D01*
X204981Y107330D01*
X204879Y107161D01*
X204808Y106978D01*
X204652Y106425D01*
X204551Y105860D01*
X204500Y105287D01*
Y111000D01*
X204523Y110608D01*
X204615Y110225D01*
X204766Y109862D01*
X204971Y109526D01*
X205227Y109227D01*
X205526Y108971D01*
X205862Y108766D01*
X206225Y108615D01*
X206608Y108523D01*
X207000Y108500D01*
X211002D01*
Y101004D01*
X210823D01*
G37*
G36*
X207000Y121500D02*X206608Y121477D01*
X206225Y121385D01*
X205862Y121234D01*
X205526Y121029D01*
X205227Y120773D01*
X204971Y120474D01*
X204766Y120138D01*
X204615Y119775D01*
X204523Y119392D01*
X204500Y119000D01*
Y133400D01*
X209100D01*
X209335Y133414D01*
X209565Y133469D01*
X209783Y133559D01*
X209984Y133683D01*
X210164Y133836D01*
X210317Y134016D01*
X210441Y134217D01*
X210531Y134435D01*
X210586Y134665D01*
X210600Y134900D01*
Y137063D01*
X210635Y136919D01*
X210942Y136178D01*
X211002Y136079D01*
Y121500D01*
X207000D01*
G37*
G36*
X210942Y140822D02*X210635Y140081D01*
X210600Y139937D01*
Y142100D01*
X210586Y142335D01*
X210531Y142565D01*
X210441Y142783D01*
X210317Y142984D01*
X210164Y143164D01*
X209984Y143317D01*
X209783Y143441D01*
X209565Y143531D01*
X209335Y143586D01*
X209100Y143600D01*
X204500D01*
Y148500D01*
X211002D01*
Y140921D01*
X210942Y140822D01*
G37*
G36*
X201900Y143600D02*X201665Y143586D01*
X201435Y143531D01*
X201217Y143441D01*
X201016Y143317D01*
X200836Y143164D01*
X200683Y142984D01*
X200559Y142783D01*
X200469Y142565D01*
X200414Y142335D01*
X200400Y142100D01*
Y134900D01*
X200414Y134665D01*
X200469Y134435D01*
X200559Y134217D01*
X200683Y134016D01*
X200836Y133836D01*
X201016Y133683D01*
X201217Y133559D01*
X201435Y133469D01*
X201665Y133414D01*
X201900Y133400D01*
X204500D01*
Y119000D01*
X204500Y119000D01*
Y111000D01*
X204500Y111000D01*
Y88500D01*
X204500Y88500D01*
Y80500D01*
X204500Y80500D01*
Y64500D01*
X198622D01*
Y69658D01*
X198703Y69665D01*
X198894Y69712D01*
X199076Y69788D01*
X199243Y69892D01*
X199392Y70020D01*
X199519Y70170D01*
X199621Y70339D01*
X199692Y70522D01*
X199848Y71075D01*
X199949Y71640D01*
X200000Y72213D01*
Y72787D01*
X199949Y73360D01*
X199848Y73925D01*
X199698Y74480D01*
X199625Y74663D01*
X199522Y74832D01*
X199395Y74983D01*
X199245Y75111D01*
X199078Y75215D01*
X198896Y75292D01*
X198704Y75339D01*
X198622Y75346D01*
Y106259D01*
X198638Y106266D01*
X198974Y106471D01*
X199273Y106727D01*
X199529Y107026D01*
X199734Y107362D01*
X199885Y107725D01*
X199977Y108108D01*
X200000Y108500D01*
Y116500D01*
X199977Y116892D01*
X199885Y117275D01*
X199734Y117638D01*
X199529Y117974D01*
X199273Y118273D01*
X198974Y118529D01*
X198638Y118734D01*
X198622Y118741D01*
Y120029D01*
X199020Y120060D01*
X200015Y120299D01*
X200960Y120691D01*
X201832Y121225D01*
X202610Y121890D01*
X203275Y122668D01*
X203809Y123540D01*
X204201Y124485D01*
X204440Y125480D01*
X204500Y126500D01*
X204440Y127520D01*
X204201Y128515D01*
X203809Y129460D01*
X203275Y130332D01*
X202610Y131110D01*
X201832Y131775D01*
X200960Y132309D01*
X200015Y132701D01*
X199020Y132940D01*
X198622Y132971D01*
Y148500D01*
X204500D01*
Y143600D01*
X201900D01*
G37*
G36*
X198507Y75355D02*X198310Y75341D01*
X198118Y75296D01*
X197936Y75221D01*
X197767Y75119D01*
X197616Y74991D01*
X197487Y74842D01*
X197383Y74674D01*
X197307Y74492D01*
X197260Y74301D01*
X197243Y74104D01*
X197258Y73907D01*
X197307Y73716D01*
X197403Y73376D01*
X197465Y73029D01*
X197496Y72677D01*
Y72323D01*
X197465Y71971D01*
X197403Y71624D01*
X197310Y71283D01*
X197262Y71092D01*
X197247Y70896D01*
X197264Y70700D01*
X197310Y70509D01*
X197387Y70328D01*
X197490Y70160D01*
X197619Y70011D01*
X197769Y69884D01*
X197937Y69782D01*
X198119Y69708D01*
X198311Y69663D01*
X198507Y69649D01*
X198622Y69658D01*
Y64500D01*
X191064D01*
Y66571D01*
X191170Y66481D01*
X191339Y66379D01*
X191522Y66308D01*
X192075Y66152D01*
X192640Y66051D01*
X193213Y66000D01*
X193787D01*
X194360Y66051D01*
X194925Y66152D01*
X195480Y66302D01*
X195663Y66375D01*
X195832Y66478D01*
X195983Y66605D01*
X196111Y66755D01*
X196215Y66922D01*
X196292Y67104D01*
X196339Y67296D01*
X196355Y67493D01*
X196341Y67690D01*
X196296Y67882D01*
X196221Y68064D01*
X196119Y68233D01*
X195991Y68384D01*
X195842Y68513D01*
X195674Y68617D01*
X195492Y68693D01*
X195301Y68740D01*
X195104Y68757D01*
X194907Y68742D01*
X194716Y68693D01*
X194376Y68597D01*
X194029Y68535D01*
X193677Y68504D01*
X193323D01*
X192971Y68535D01*
X192624Y68597D01*
X192283Y68690D01*
X192092Y68738D01*
X191896Y68753D01*
X191700Y68736D01*
X191509Y68690D01*
X191328Y68613D01*
X191160Y68510D01*
X191064Y68427D01*
Y76568D01*
X191158Y76487D01*
X191326Y76383D01*
X191508Y76307D01*
X191699Y76260D01*
X191896Y76243D01*
X192093Y76258D01*
X192284Y76307D01*
X192624Y76403D01*
X192971Y76465D01*
X193323Y76496D01*
X193677D01*
X194029Y76465D01*
X194376Y76403D01*
X194717Y76310D01*
X194908Y76262D01*
X195104Y76247D01*
X195300Y76264D01*
X195491Y76310D01*
X195672Y76387D01*
X195840Y76490D01*
X195989Y76619D01*
X196116Y76769D01*
X196218Y76937D01*
X196292Y77119D01*
X196337Y77311D01*
X196351Y77507D01*
X196335Y77703D01*
X196288Y77894D01*
X196212Y78076D01*
X196108Y78243D01*
X195980Y78392D01*
X195830Y78519D01*
X195661Y78621D01*
X195478Y78692D01*
X194925Y78848D01*
X194360Y78949D01*
X193787Y79000D01*
X193213D01*
X192640Y78949D01*
X192075Y78848D01*
X191520Y78698D01*
X191337Y78625D01*
X191168Y78522D01*
X191064Y78434D01*
Y106000D01*
X197500D01*
X197892Y106023D01*
X198275Y106115D01*
X198622Y106259D01*
Y75346D01*
X198507Y75355D01*
G37*
G36*
X198000Y133020D02*X196980Y132940D01*
X195985Y132701D01*
X195040Y132309D01*
X194168Y131775D01*
X193390Y131110D01*
X192725Y130332D01*
X192191Y129460D01*
X191799Y128515D01*
X191560Y127520D01*
X191480Y126500D01*
X191560Y125480D01*
X191799Y124485D01*
X192191Y123540D01*
X192725Y122668D01*
X193390Y121890D01*
X194168Y121225D01*
X195040Y120691D01*
X195985Y120299D01*
X196980Y120060D01*
X198000Y119980D01*
X198622Y120029D01*
Y118741D01*
X198275Y118885D01*
X197892Y118977D01*
X197500Y119000D01*
X191064D01*
Y148500D01*
X198622D01*
Y132971D01*
X198000Y133020D01*
G37*
G36*
X191017Y78395D02*X190889Y78245D01*
X190785Y78078D01*
X190708Y77896D01*
X190661Y77704D01*
X190645Y77507D01*
X190659Y77310D01*
X190704Y77118D01*
X190779Y76936D01*
X190881Y76767D01*
X191009Y76616D01*
X191064Y76568D01*
Y68427D01*
X191011Y68381D01*
X190884Y68231D01*
X190782Y68063D01*
X190708Y67881D01*
X190663Y67689D01*
X190649Y67493D01*
X190665Y67297D01*
X190712Y67106D01*
X190788Y66924D01*
X190892Y66757D01*
X191020Y66608D01*
X191064Y66571D01*
Y64500D01*
X189500D01*
X188378Y65622D01*
Y69654D01*
X188493Y69645D01*
X188690Y69659D01*
X188882Y69704D01*
X189064Y69779D01*
X189233Y69881D01*
X189384Y70009D01*
X189513Y70158D01*
X189617Y70326D01*
X189693Y70508D01*
X189740Y70699D01*
X189757Y70896D01*
X189742Y71093D01*
X189693Y71284D01*
X189597Y71624D01*
X189535Y71971D01*
X189504Y72323D01*
Y72677D01*
X189535Y73029D01*
X189597Y73376D01*
X189690Y73717D01*
X189738Y73908D01*
X189753Y74104D01*
X189736Y74300D01*
X189690Y74491D01*
X189613Y74672D01*
X189510Y74840D01*
X189381Y74989D01*
X189231Y75116D01*
X189063Y75218D01*
X188881Y75292D01*
X188689Y75337D01*
X188493Y75351D01*
X188378Y75342D01*
Y106259D01*
X188725Y106115D01*
X189108Y106023D01*
X189500Y106000D01*
X191064D01*
Y78434D01*
X191017Y78395D01*
G37*
G36*
X189500Y119000D02*X189108Y118977D01*
X188725Y118885D01*
X188378Y118741D01*
Y148500D01*
X191064D01*
Y119000D01*
X189500D01*
G37*
G36*
X188362Y118734D02*X188026Y118529D01*
X187727Y118273D01*
X187471Y117974D01*
X187266Y117638D01*
X187115Y117275D01*
X187023Y116892D01*
X187000Y116500D01*
Y108500D01*
X187023Y108108D01*
X187115Y107725D01*
X187266Y107362D01*
X187471Y107026D01*
X187727Y106727D01*
X188026Y106471D01*
X188362Y106266D01*
X188378Y106259D01*
Y75342D01*
X188297Y75335D01*
X188106Y75288D01*
X187924Y75212D01*
X187757Y75108D01*
X187608Y74980D01*
X187481Y74830D01*
X187379Y74661D01*
X187308Y74478D01*
X187152Y73925D01*
X187051Y73360D01*
X187000Y72787D01*
Y72213D01*
X187051Y71640D01*
X187152Y71075D01*
X187302Y70520D01*
X187375Y70337D01*
X187478Y70168D01*
X187605Y70017D01*
X187755Y69889D01*
X187922Y69785D01*
X188104Y69708D01*
X188296Y69661D01*
X188378Y69654D01*
Y65622D01*
X175622Y78378D01*
Y93658D01*
X175703Y93665D01*
X175894Y93712D01*
X176076Y93788D01*
X176243Y93892D01*
X176392Y94020D01*
X176519Y94170D01*
X176621Y94339D01*
X176692Y94522D01*
X176848Y95075D01*
X176949Y95640D01*
X177000Y96213D01*
Y96787D01*
X176949Y97360D01*
X176848Y97925D01*
X176698Y98480D01*
X176625Y98663D01*
X176522Y98832D01*
X176395Y98983D01*
X176245Y99111D01*
X176078Y99215D01*
X175896Y99292D01*
X175704Y99339D01*
X175622Y99346D01*
Y100259D01*
X175638Y100266D01*
X175974Y100471D01*
X176273Y100727D01*
X176529Y101026D01*
X176734Y101362D01*
X176885Y101725D01*
X176977Y102108D01*
X177000Y102500D01*
Y110500D01*
X176977Y110892D01*
X176885Y111275D01*
X176734Y111638D01*
X176529Y111974D01*
X176273Y112273D01*
X175974Y112529D01*
X175638Y112734D01*
X175622Y112741D01*
Y148500D01*
X188378D01*
Y118741D01*
X188362Y118734D01*
G37*
G36*
X175507Y99355D02*X175310Y99341D01*
X175118Y99296D01*
X174936Y99221D01*
X174767Y99119D01*
X174616Y98991D01*
X174487Y98842D01*
X174383Y98674D01*
X174307Y98492D01*
X174260Y98301D01*
X174243Y98104D01*
X174258Y97907D01*
X174307Y97716D01*
X174403Y97376D01*
X174465Y97029D01*
X174496Y96677D01*
Y96323D01*
X174465Y95971D01*
X174403Y95624D01*
X174310Y95283D01*
X174262Y95092D01*
X174247Y94896D01*
X174264Y94700D01*
X174310Y94509D01*
X174387Y94328D01*
X174490Y94160D01*
X174619Y94011D01*
X174769Y93884D01*
X174937Y93782D01*
X175119Y93708D01*
X175311Y93663D01*
X175507Y93649D01*
X175622Y93658D01*
Y78378D01*
X170502Y83498D01*
Y90000D01*
X170787D01*
X171360Y90051D01*
X171925Y90152D01*
X172480Y90302D01*
X172663Y90375D01*
X172832Y90478D01*
X172983Y90605D01*
X173111Y90755D01*
X173215Y90922D01*
X173292Y91104D01*
X173339Y91296D01*
X173355Y91493D01*
X173341Y91690D01*
X173296Y91882D01*
X173221Y92064D01*
X173119Y92233D01*
X172991Y92384D01*
X172842Y92513D01*
X172674Y92617D01*
X172492Y92693D01*
X172301Y92740D01*
X172104Y92757D01*
X171907Y92742D01*
X171716Y92693D01*
X171376Y92597D01*
X171029Y92535D01*
X170677Y92504D01*
X170502D01*
Y100000D01*
X174500D01*
X174892Y100023D01*
X175275Y100115D01*
X175622Y100259D01*
Y99346D01*
X175507Y99355D01*
G37*
G36*
X175275Y112885D02*X174892Y112977D01*
X174500Y113000D01*
X170502D01*
Y148500D01*
X175622D01*
Y112741D01*
X175275Y112885D01*
G37*
G36*
X170323Y92504D02*X169971Y92535D01*
X169624Y92597D01*
X169283Y92690D01*
X169092Y92738D01*
X168896Y92753D01*
X168700Y92736D01*
X168509Y92690D01*
X168328Y92613D01*
X168160Y92510D01*
X168011Y92381D01*
X167884Y92231D01*
X167782Y92063D01*
X167708Y91881D01*
X167663Y91689D01*
X167649Y91493D01*
X167665Y91297D01*
X167712Y91106D01*
X167788Y90924D01*
X167892Y90757D01*
X168020Y90608D01*
X168170Y90481D01*
X168339Y90379D01*
X168522Y90308D01*
X169075Y90152D01*
X169640Y90051D01*
X170213Y90000D01*
X170502D01*
Y83498D01*
X164250Y89750D01*
Y94712D01*
X164302Y94520D01*
X164375Y94337D01*
X164478Y94168D01*
X164605Y94017D01*
X164755Y93889D01*
X164922Y93785D01*
X165104Y93708D01*
X165296Y93661D01*
X165493Y93645D01*
X165690Y93659D01*
X165882Y93704D01*
X166064Y93779D01*
X166233Y93881D01*
X166384Y94009D01*
X166513Y94158D01*
X166617Y94326D01*
X166693Y94508D01*
X166740Y94699D01*
X166757Y94896D01*
X166742Y95093D01*
X166693Y95284D01*
X166597Y95624D01*
X166535Y95971D01*
X166504Y96323D01*
Y96677D01*
X166535Y97029D01*
X166597Y97376D01*
X166690Y97717D01*
X166738Y97908D01*
X166753Y98104D01*
X166736Y98300D01*
X166690Y98491D01*
X166613Y98672D01*
X166510Y98840D01*
X166381Y98989D01*
X166231Y99116D01*
X166063Y99218D01*
X165881Y99292D01*
X165689Y99337D01*
X165493Y99351D01*
X165297Y99335D01*
X165106Y99288D01*
X164924Y99212D01*
X164757Y99108D01*
X164608Y98980D01*
X164481Y98830D01*
X164379Y98661D01*
X164308Y98478D01*
X164250Y98272D01*
Y101399D01*
X164266Y101362D01*
X164471Y101026D01*
X164727Y100727D01*
X165026Y100471D01*
X165362Y100266D01*
X165725Y100115D01*
X166108Y100023D01*
X166500Y100000D01*
X170502D01*
Y92504D01*
X170323D01*
G37*
G36*
X166500Y113000D02*X166108Y112977D01*
X165725Y112885D01*
X165362Y112734D01*
X165026Y112529D01*
X164727Y112273D01*
X164471Y111974D01*
X164266Y111638D01*
X164250Y111601D01*
Y121399D01*
X164385Y121725D01*
X164477Y122108D01*
X164500Y122500D01*
Y130500D01*
X164477Y130892D01*
X164385Y131275D01*
X164250Y131601D01*
Y148500D01*
X170502D01*
Y113000D01*
X166500D01*
G37*
G36*
X164234Y131638D02*X164029Y131974D01*
X163773Y132273D01*
X163474Y132529D01*
X163138Y132734D01*
X162775Y132885D01*
X162392Y132977D01*
X162000Y133000D01*
X154000D01*
X153608Y132977D01*
X153225Y132885D01*
X152862Y132734D01*
X152526Y132529D01*
X152227Y132273D01*
X151971Y131974D01*
X151766Y131638D01*
X151615Y131275D01*
X151523Y130892D01*
X151500Y130500D01*
Y122500D01*
X151523Y122108D01*
X151615Y121725D01*
X151766Y121362D01*
X151971Y121026D01*
X152227Y120727D01*
X152526Y120471D01*
X152862Y120266D01*
X153225Y120115D01*
X153608Y120023D01*
X154000Y120000D01*
X162000D01*
X162392Y120023D01*
X162775Y120115D01*
X163138Y120266D01*
X163474Y120471D01*
X163773Y120727D01*
X164029Y121026D01*
X164234Y121362D01*
X164250Y121399D01*
Y111601D01*
X164115Y111275D01*
X164023Y110892D01*
X164000Y110500D01*
Y102500D01*
X164023Y102108D01*
X164115Y101725D01*
X164250Y101399D01*
Y98272D01*
X164152Y97925D01*
X164051Y97360D01*
X164000Y96787D01*
Y96213D01*
X164051Y95640D01*
X164152Y95075D01*
X164250Y94712D01*
Y89750D01*
X147500Y106500D01*
Y148500D01*
X164250D01*
Y131601D01*
X164234Y131638D01*
G37*
G36*
X238500Y148500D02*Y140500D01*
X231500D01*
Y148500D01*
X238500D01*
G37*
G54D33*X25000Y172000D02*X27500Y174500D01*
X26500Y167000D02*X25000Y168500D01*
G54D34*X27500Y171000D02*X28500Y172000D01*
X27500Y171000D02*Y169500D01*
X28500Y168500D02*X27500Y169500D01*
G54D33*X25000Y172000D02*Y168500D01*
X26500Y167000D02*Y166000D01*
G54D34*X28500Y172000D02*X35000D01*
X28500Y168500D02*X30000D01*
X36500Y170500D02*X34500Y168500D01*
X35000Y172000D02*X36500Y170500D01*
G54D33*X30000Y168500D02*X28500Y167000D01*
X30000Y168500D02*X31000D01*
X28500Y167000D02*Y165000D01*
X30500Y168500D02*X37500D01*
X36500Y174500D02*X38500Y172500D01*
X27500Y174500D02*X36500D01*
X39500Y166500D02*X37500Y168500D01*
X38500Y170000D02*X39500Y169000D01*
Y166500D01*
X38500Y172500D02*Y170000D01*
X43000Y165500D02*X41500Y164000D01*
X45500Y163000D02*X43000Y165500D01*
X45500Y163000D02*Y162000D01*
X47000Y160500D02*X45500Y162000D01*
X43500D02*X45500D01*
X43500D02*X41500Y164000D01*
X47000Y160500D02*X49000D01*
X47500Y176000D02*Y163000D01*
Y176000D02*X52000D01*
Y163000D01*
X49500Y161000D02*X49000Y160500D01*
X49500Y162000D02*Y161000D01*
Y162000D02*X48500Y163000D01*
X50500D02*X49500Y162000D01*
X50500Y163000D02*X52000D01*
X47500D02*X52000D01*
X24000Y166000D02*X26500D01*
X23000Y165000D02*X24000Y166000D01*
Y164000D02*X23000Y165000D01*
X21500D02*X23000D01*
X32500Y175500D02*Y175000D01*
X30000Y176000D02*X34000D01*
X28500Y165000D02*X27500Y164000D01*
X24000D02*X27500D01*
X25500Y165000D02*Y164500D01*
G54D35*X81500Y9500D02*X96500Y24500D01*
G54D36*X112500Y15500D02*X179500D01*
X96500Y34500D02*X103500D01*
X108500Y29500D01*
Y19500D01*
X178500Y15500D02*X230500D01*
G54D37*X188500Y54500D02*X254000D01*
X189000Y61000D02*X251000D01*
G54D35*X248000Y25500D02*X240500D01*
G54D37*X254000Y54500D02*X273000Y73500D01*
G54D35*X253000Y38000D02*Y30500D01*
X248000Y25500D01*
G54D37*X270500Y78500D02*X275500Y73500D01*
G54D36*X230500Y15500D02*X240500Y25500D01*
G54D37*X251000Y61000D02*X263500Y73500D01*
G54D35*X278500Y63500D02*X253000Y38000D01*
X264500Y9500D02*X287500Y32500D01*
Y53500D01*
G54D37*X70000Y82500D02*Y51000D01*
X63500Y44500D01*
X160500Y82500D02*X188500Y54500D01*
X159000Y91000D02*X189000Y61000D01*
G54D35*X235500Y144500D02*X263000D01*
G54D37*X270500Y78500D02*Y140500D01*
G54D35*X307000Y75500D02*Y129000D01*
X263000Y144500D02*X266500Y148000D01*
X288000D01*
X307000Y129000D01*
G54D37*X32000Y92500D02*X42000Y82500D01*
X32000Y92500D02*Y131000D01*
X40000Y65000D02*Y53000D01*
X42000Y82500D02*X160500D01*
X135500Y91000D02*X159000D01*
X103614Y153886D02*X112500Y145000D01*
Y114000D02*X135500Y91000D01*
X103614Y154122D02*Y153886D01*
X112500Y114000D02*Y145000D01*
X111882Y154122D02*Y163965D01*
X117000Y169083D01*
X263500Y73500D02*X283500D01*
G54D36*X108500Y19500D02*X112500Y15500D01*
G54D37*X279500Y63500D02*X297500D01*
G54D35*Y53500D02*X278500D01*
G54D37*X297500Y73500D02*X280000D01*
G54D35*X77500Y9500D02*X264500D01*
G54D37*X297479Y73479D02*X297500Y73500D01*
G54D35*Y63500D02*X280500D01*
G54D37*X297500D02*Y73500D01*
G54D35*X305000D01*
X307000Y75500D01*
X20000Y53000D02*X7500Y40500D01*
G54D38*X50500Y65000D02*X22000D01*
G54D35*X7500Y40500D02*Y14500D01*
X12500Y9500D01*
X81500D01*
G54D33*X162980Y159490D02*X163475Y159985D01*
X161495Y159490D02*X162980D01*
X161000Y159985D02*X161495Y159490D01*
X161000Y159985D02*Y162955D01*
X161495Y163450D01*
X162980D01*
X163475Y162955D01*
Y161965D02*Y162955D01*
X162980Y161470D02*X163475Y161965D01*
X161990Y161470D02*X162980D01*
X165158Y161965D02*Y163450D01*
Y161965D02*X165653Y161470D01*
X166643D01*
X164663D02*X165158Y161965D01*
X167831D02*Y162955D01*
Y161965D02*X168326Y161470D01*
X169316D01*
X169811Y161965D01*
Y162955D01*
X169316Y163450D02*X169811Y162955D01*
X168326Y163450D02*X169316D01*
X167831Y162955D02*X168326Y163450D01*
X170999Y161470D02*Y162955D01*
X171494Y163450D01*
X172484D01*
X172979Y162955D01*
Y161470D02*Y162955D01*
X174662Y161965D02*Y163450D01*
Y161965D02*X175157Y161470D01*
X175652D01*
X176147Y161965D01*
Y163450D01*
X174167Y161470D02*X174662Y161965D01*
X179315Y159490D02*Y163450D01*
X178820D02*X179315Y162955D01*
X177830Y163450D02*X178820D01*
X177335Y162955D02*X177830Y163450D01*
X177335Y161965D02*Y162955D01*
Y161965D02*X177830Y161470D01*
X178820D01*
X179315Y161965D01*
X182780Y159490D02*Y163450D01*
X182285Y159490D02*X184265D01*
X184760Y159985D01*
Y160975D01*
X184265Y161470D02*X184760Y160975D01*
X182780Y161470D02*X184265D01*
X187433D02*X187928Y161965D01*
X186443Y161470D02*X187433D01*
X185948Y161965D02*X186443Y161470D01*
X185948Y161965D02*Y162955D01*
X186443Y163450D01*
X187928Y161470D02*Y162955D01*
X188423Y163450D01*
X186443D02*X187433D01*
X187928Y162955D01*
X190106Y159490D02*Y162955D01*
X190601Y163450D01*
X189611Y160975D02*X190601D01*
X191591Y159490D02*Y163450D01*
Y161965D02*X192086Y161470D01*
X193076D01*
X193571Y161965D01*
Y163450D01*
X197036D02*X198521D01*
X196541Y162955D02*X197036Y163450D01*
X196541Y159985D02*Y162955D01*
Y159985D02*X197036Y159490D01*
X198521D01*
X200204Y161965D02*Y163450D01*
Y161965D02*X200699Y161470D01*
X201689D01*
X199709D02*X200204Y161965D01*
X204362Y161470D02*X204857Y161965D01*
X203372Y161470D02*X204362D01*
X202877Y161965D02*X203372Y161470D01*
X202877Y161965D02*Y162955D01*
X203372Y163450D01*
X204857Y161470D02*Y162955D01*
X205352Y163450D01*
X203372D02*X204362D01*
X204857Y162955D01*
X206540Y161470D02*X208520D01*
X206540Y163450D02*X208520Y161470D01*
X206540Y163450D02*X208520D01*
X209708Y161470D02*Y162955D01*
X210203Y163450D01*
X211688Y161470D02*Y164440D01*
X211193Y164935D02*X211688Y164440D01*
X210203Y164935D02*X211193D01*
X209708Y164440D02*X210203Y164935D01*
Y163450D02*X211193D01*
X211688Y162955D01*
X213371Y161965D02*Y163450D01*
Y161965D02*X213866Y161470D01*
X214361D01*
X214856Y161965D01*
Y163450D01*
X212876Y161470D02*X213371Y161965D01*
X216539Y163450D02*X218024D01*
X216044Y162955D02*X216539Y163450D01*
X216044Y161965D02*Y162955D01*
Y161965D02*X216539Y161470D01*
X217529D01*
X218024Y161965D01*
X216044Y162460D02*X218024D01*
Y161965D01*
X219707Y163450D02*X221192D01*
X221687Y162955D01*
X221192Y162460D02*X221687Y162955D01*
X219707Y162460D02*X221192D01*
X219212Y161965D02*X219707Y162460D01*
X219212Y161965D02*X219707Y161470D01*
X221192D01*
X221687Y161965D01*
X219212Y162955D02*X219707Y163450D01*
X223370D02*X224855D01*
X225350Y162955D01*
X224855Y162460D02*X225350Y162955D01*
X223370Y162460D02*X224855D01*
X222875Y161965D02*X223370Y162460D01*
X222875Y161965D02*X223370Y161470D01*
X224855D01*
X225350Y161965D01*
X222875Y162955D02*X223370Y163450D01*
X226538Y162955D02*Y163450D01*
Y159490D02*Y161965D01*
X229508Y160975D02*X230003D01*
X229508Y161965D02*X230003D01*
X231191Y159490D02*X231686Y159985D01*
Y162955D01*
X231191Y163450D02*X231686Y162955D01*
X10500Y153000D02*Y156500D01*
X11000Y157000D01*
X10000Y154500D02*X11000D01*
X12000Y155500D02*Y156500D01*
Y155500D02*X12500Y155000D01*
X13500D01*
X14000Y155500D01*
Y156500D01*
X13500Y157000D02*X14000Y156500D01*
X12500Y157000D02*X13500D01*
X12000Y156500D02*X12500Y157000D01*
X17500Y153500D02*Y157000D01*
Y153500D02*X18000Y153000D01*
X18500D01*
X17000Y155000D02*X18000D01*
X19500Y153000D02*Y156500D01*
X20000Y157000D01*
X22500Y155000D02*X23000Y155500D01*
X21500Y155000D02*X22500D01*
X21000Y155500D02*X21500Y155000D01*
X21000Y155500D02*Y156500D01*
X21500Y157000D01*
X23000Y155000D02*Y156500D01*
X23500Y157000D01*
X21500D02*X22500D01*
X23000Y156500D01*
X25200Y155500D02*Y157000D01*
Y155500D02*X25700Y155000D01*
X26200D01*
X26700Y155500D01*
Y157000D01*
Y155500D02*X27200Y155000D01*
X27700D01*
X28200Y155500D01*
Y157000D01*
X24700Y155000D02*X25200Y155500D01*
X29400Y154000D02*Y154500D01*
Y155500D02*Y157000D01*
X30900Y155500D02*Y157000D01*
Y155500D02*X31400Y155000D01*
X31900D01*
X32400Y155500D01*
Y157000D01*
X30400Y155000D02*X30900Y155500D01*
X35100Y155000D02*X35600Y155500D01*
X34100Y155000D02*X35100D01*
X33600Y155500D02*X34100Y155000D01*
X33600Y155500D02*Y156500D01*
X34100Y157000D01*
X35100D01*
X35600Y156500D01*
X33600Y158000D02*X34100Y158500D01*
X35100D01*
X35600Y158000D01*
Y155000D02*Y158000D01*
X40600Y153000D02*Y157000D01*
X40100D02*X40600Y156500D01*
X39100Y157000D02*X40100D01*
X38600Y156500D02*X39100Y157000D01*
X38600Y155500D02*Y156500D01*
Y155500D02*X39100Y155000D01*
X40100D01*
X40600Y155500D01*
X41800Y155000D02*Y156500D01*
X42300Y157000D01*
X43300D01*
X43800Y156500D01*
Y155000D02*Y156500D01*
X45500Y155000D02*X47000D01*
X45000Y155500D02*X45500Y155000D01*
X45000Y155500D02*Y156500D01*
X45500Y157000D01*
X47000D01*
X48200Y153000D02*Y157000D01*
Y155500D02*X49700Y157000D01*
X48200Y155500D02*X49200Y154500D01*
X51400Y157000D02*X52900D01*
X53400Y156500D01*
X52900Y156000D02*X53400Y156500D01*
X51400Y156000D02*X52900D01*
X50900Y155500D02*X51400Y156000D01*
X50900Y155500D02*X51400Y155000D01*
X52900D01*
X53400Y155500D01*
X50900Y156500D02*X51400Y157000D01*
X54600D02*X55100D01*
X15000Y145000D02*X16500D01*
Y148500D01*
X16000Y149000D02*X16500Y148500D01*
X15500Y149000D02*X16000D01*
X15000Y148500D02*X15500Y149000D01*
X17700Y147000D02*Y148500D01*
X18200Y149000D01*
X19200D01*
X19700Y148500D01*
Y147000D02*Y148500D01*
X21400Y149000D02*X22900D01*
X23400Y148500D01*
X22900Y148000D02*X23400Y148500D01*
X21400Y148000D02*X22900D01*
X20900Y147500D02*X21400Y148000D01*
X20900Y147500D02*X21400Y147000D01*
X22900D01*
X23400Y147500D01*
X20900Y148500D02*X21400Y149000D01*
X25100Y145000D02*Y148500D01*
X25600Y149000D01*
X24600Y146500D02*X25600D01*
X28900Y149000D02*X30400D01*
X30900Y148500D01*
X30400Y148000D02*X30900Y148500D01*
X28900Y148000D02*X30400D01*
X28400Y147500D02*X28900Y148000D01*
X28400Y147500D02*X28900Y147000D01*
X30400D01*
X30900Y147500D01*
X28400Y148500D02*X28900Y149000D01*
X33600Y147000D02*X34100Y147500D01*
X32600Y147000D02*X33600D01*
X32100Y147500D02*X32600Y147000D01*
X32100Y147500D02*Y148500D01*
X32600Y149000D01*
X34100Y147000D02*Y148500D01*
X34600Y149000D01*
X32600D02*X33600D01*
X34100Y148500D01*
X35800Y147000D02*Y148500D01*
X36300Y149000D01*
X37800Y147000D02*Y150000D01*
X37300Y150500D02*X37800Y150000D01*
X36300Y150500D02*X37300D01*
X35800Y150000D02*X36300Y150500D01*
Y149000D02*X37300D01*
X37800Y148500D01*
X40800Y145000D02*Y149000D01*
Y145000D02*Y145500D01*
X43300Y148000D01*
Y145000D02*Y149000D01*
X44500Y145500D02*Y148500D01*
Y145500D02*X45000Y145000D01*
X46000D01*
X46500Y145500D01*
Y148500D01*
X46000Y149000D02*X46500Y148500D01*
X45000Y149000D02*X46000D01*
X44500Y148500D02*X45000Y149000D01*
G54D39*X22000Y181000D03*
X42000D03*
G54D32*G36*
X26750Y136250D02*X37250D01*
Y125750D01*
X26750D01*
Y136250D01*
G37*
G54D39*X50500Y131000D03*
G54D40*X90425Y165933D03*
G54D41*X103614Y144280D03*
X111882Y154122D03*
X103614D03*
G54D42*X260500Y160500D03*
G54D40*X117000Y169083D03*
X143575Y165933D03*
G54D41*X130386Y154122D03*
Y144280D03*
G54D32*G36*
X201900Y142100D02*X209100D01*
Y134900D01*
X201900D01*
Y142100D01*
G37*
G54D43*X215500Y138500D03*
X225500D03*
G54D32*G36*
X154000Y130500D02*X162000D01*
Y122500D01*
X154000D01*
Y130500D01*
G37*
G54D44*X198000Y126500D03*
G54D32*G36*
X235500Y128500D02*Y120500D01*
X227500D01*
Y128500D01*
X235500D01*
G37*
G54D42*X300500Y160500D03*
G54D44*X270500Y140500D03*
X280500D03*
G54D32*G36*
X294500Y86500D02*X300500D01*
Y80500D01*
X294500D01*
Y86500D01*
G37*
G54D45*X297500Y73500D03*
Y63500D03*
Y53500D03*
G54D44*Y101000D03*
G54D45*Y43500D03*
G54D32*G36*
X236500Y29500D02*X244500D01*
Y21500D01*
X236500D01*
Y29500D01*
G37*
G54D44*X280500Y25500D03*
X242000Y34500D03*
G54D32*G36*
X275500Y86500D02*X281500D01*
Y80500D01*
X275500D01*
Y86500D01*
G37*
G36*
X253500Y105000D02*X261500D01*
Y97000D01*
X253500D01*
Y105000D01*
G37*
G54D44*X231500Y84500D03*
G54D45*X278500Y73500D03*
Y63500D03*
Y53500D03*
Y43500D03*
G54D39*X13500Y131000D03*
Y116000D03*
G54D32*G36*
X26000Y109000D02*Y101000D01*
X18000D01*
Y109000D01*
X26000D01*
G37*
G54D39*X32000Y116000D03*
G54D32*G36*
X44000Y109000D02*Y101000D01*
X36000D01*
Y109000D01*
X44000D01*
G37*
G54D44*X22000Y65000D03*
X30000Y53000D03*
X40000Y65000D03*
Y53000D03*
Y23000D03*
X30000D03*
X20000Y53000D03*
Y23000D03*
G54D39*X50500Y116000D03*
G54D32*G36*
X91500Y109000D02*X99500D01*
Y101000D01*
X91500D01*
Y109000D01*
G37*
G36*
X46500Y69000D02*X54500D01*
Y61000D01*
X46500D01*
Y69000D01*
G37*
G36*
X51500Y77500D02*X59500D01*
Y69500D01*
X51500D01*
Y77500D01*
G37*
G54D44*X85500Y73500D03*
G54D32*G36*
X91500Y95000D02*X99500D01*
Y87000D01*
X91500D01*
Y95000D01*
G37*
G36*
X54000Y57000D02*Y49000D01*
X46000D01*
Y57000D01*
X54000D01*
G37*
G36*
X59500Y48500D02*X67500D01*
Y40500D01*
X59500D01*
Y48500D01*
G37*
G54D44*X90500Y65000D03*
G54D32*G36*
X116500Y57500D02*X122500D01*
Y51500D01*
X116500D01*
Y57500D01*
G37*
G54D45*X119500Y44500D03*
G54D44*X103500D03*
G54D45*X119500Y34500D03*
G54D32*G36*
X100500Y38500D02*Y30500D01*
X92500D01*
Y38500D01*
X100500D01*
G37*
G54D44*X96500Y24500D03*
X50000Y23000D03*
G54D45*X119500Y24500D03*
X149500D03*
Y34500D03*
Y44500D03*
Y54500D03*
G54D32*G36*
X180500Y58500D02*Y50500D01*
X172500D01*
Y58500D01*
X180500D01*
G37*
G54D44*X176500Y44500D03*
X135500Y105000D03*
Y91000D03*
G54D32*G36*
X174500Y110500D02*Y102500D01*
X166500D01*
Y110500D01*
X174500D01*
G37*
G36*
X197500Y116500D02*Y108500D01*
X189500D01*
Y116500D01*
X197500D01*
G37*
G54D44*X170500Y96500D03*
G54D32*G36*
X215000Y119000D02*Y111000D01*
X207000D01*
Y119000D01*
X215000D01*
G37*
G54D44*X211000Y105000D03*
G54D32*G36*
X198000Y38500D02*X206000D01*
Y30500D01*
X198000D01*
Y38500D01*
G37*
G54D44*X193500Y72500D03*
G54D32*G36*
X215000Y88500D02*Y80500D01*
X207000D01*
Y88500D01*
X215000D01*
G37*
G54D44*X211000Y74500D03*
G54D46*G54D47*G54D48*G54D49*G54D50*G54D48*G54D49*G54D51*G54D52*G54D50*G54D53*G54D54*G54D52*G54D54*G54D52*G54D54*G54D52*G54D54*G54D47*G54D52*G54D47*G54D52*G54D47*G54D52*G54D55*G54D52*G54D55*G54D52*G54D55*G54D52*M02*
