G04 start of page 2 for group 18 layer_idx 8 *
G04 Title: (unknown), bottom_silk *
G04 Creator: pcb-rnd 2.2.4 *
G04 CreationDate: 2020-09-30 02:20:23 UTC *
G04 For:  *
G04 Format: Gerber/RS-274X *
G04 PCB-Dimensions: 416500 193500 *
G04 PCB-Coordinate-Origin: lower left *
%MOIN*%
%FSLAX25Y25*%
%LNBOTTOM_SILK_NONE_18*%
%ADD176C,0.0100*%
%ADD175C,0.0197*%
%ADD174C,0.0080*%
G54D174*X160733Y146760D02*X165457D01*
X160733Y154240D02*X165457D01*
G54D175*X195358Y157717D02*X201264D01*
X195358Y172283D02*X201264D01*
G54D176*X159040Y144850D02*X160540D01*
X158540Y144350D02*X159040Y144850D01*
X158540Y141350D02*Y144350D01*
Y141350D02*X159040Y140850D01*
X160540D01*
X161740Y141350D02*X162240Y140850D01*
X163740D01*
X164240Y141350D01*
Y142350D01*
X161740Y144850D02*X164240Y142350D01*
X161740Y144850D02*X164240D01*
X165440Y141350D02*X165940Y140850D01*
X167440D01*
X167940Y141350D01*
Y142350D01*
X165440Y144850D02*X167940Y142350D01*
X165440Y144850D02*X167940D01*
X193661Y150252D02*X195661D01*
X196161Y150752D01*
Y151752D01*
X195661Y152252D02*X196161Y151752D01*
X194161Y152252D02*X195661D01*
X194161Y150252D02*Y154252D01*
Y152252D02*X196161Y154252D01*
X197361Y152252D02*X199361Y150252D01*
X197361Y152252D02*X199861D01*
X199361Y150252D02*Y154252D01*
X201061Y152252D02*X203061Y150252D01*
X201061Y152252D02*X203561D01*
X203061Y150252D02*Y154252D01*
M02*
