G04 start of page 2 for group 3 layer_idx 0 *
G04 Title: (unknown), top_copper *
G04 Creator: pcb-rnd 2.2.2 *
G04 CreationDate: 2020-09-08 23:24:47 UTC *
G04 For:  *
G04 Format: Gerber/RS-274X *
G04 PCB-Dimensions: 416500 193500 *
G04 PCB-Coordinate-Origin: lower left *
%MOIN*%
%FSLAX25Y25*%
%LNTOP_COPPER_NONE_3*%
%ADD33C,0.0320*%
%ADD32C,0.0374*%
%ADD31C,0.0790*%
%ADD30C,0.0358*%
%ADD29C,0.0925*%
%ADD28C,0.0710*%
%ADD27C,0.0650*%
%ADD26C,0.0276*%
%ADD25C,0.0350*%
%ADD24C,0.0394*%
%ADD23C,0.0984*%
%ADD22C,0.2000*%
%ADD21C,0.0591*%
%ADD20C,0.1575*%
%ADD19C,0.0360*%
%ADD18C,0.1050*%
%ADD17C,0.0689*%
%ADD16C,0.0600*%
%ADD15C,0.0001*%
%ADD14C,0.0800*%
%ADD13C,0.0250*%
%ADD12C,0.0200*%
%ADD11C,0.0400*%
G54D11*X117000Y169083D02*Y181000D01*
X90425Y165933D02*Y180425D01*
X90500Y180500D01*
X238500Y181000D02*X22000D01*
X143500D02*Y166008D01*
X168870Y164860D02*Y180870D01*
X169000Y181000D01*
X143500Y166008D02*X143575Y165933D01*
X160000Y130343D02*X160157Y130500D01*
X160079Y130421D02*Y111464D01*
X168043Y103500D01*
X199095Y123595D02*X199000Y123500D01*
Y129961D01*
X199483Y130444D01*
X168022Y97522D02*Y103521D01*
X149500Y44500D02*X208500D01*
G54D12*X149500D02*X144000D01*
G54D13*X180000Y50310D02*X180310Y50000D01*
G54D11*X161000Y56405D02*X170595D01*
G54D12*X135000Y39500D02*X179000D01*
X198778Y90740D02*X191550D01*
G54D11*X191405Y91000D02*Y103905D01*
X199095Y111595D02*X191405Y103905D01*
G54D12*X179500Y85500D02*Y90905D01*
X179595Y91000D01*
G54D11*X179457D02*Y81405D01*
G54D12*X191550Y90740D02*X191405Y90595D01*
X192000Y81500D02*X179552D01*
X194500Y75000D02*X176500D01*
X173000Y78500D01*
Y95000D01*
G54D13*X136000Y74000D02*Y95543D01*
G54D11*X168000Y72000D02*Y97500D01*
X168022Y97522D01*
G54D12*X173000Y95000D02*X176000Y98000D01*
X191405D01*
G54D11*X174000Y66000D02*X168000Y72000D01*
G54D12*X198778Y87000D02*X197500D01*
G54D11*X199095Y111595D02*Y123595D01*
G54D12*X192000Y81500D02*X197500Y87000D01*
X199778Y83260D02*Y80278D01*
X194500Y75000D01*
G54D13*X209226Y83260D02*Y78274D01*
G54D11*Y90740D02*X213335D01*
X216095Y93500D01*
Y90405D01*
X230095Y111500D02*X199000D01*
X227905Y93362D02*X237500D01*
X219586Y74862D02*X229181D01*
X216095Y90405D02*X220500Y86000D01*
X232500D01*
G54D13*X209226Y78274D02*X212500Y75000D01*
G54D11*X232500Y86000D02*X238500Y80000D01*
Y70500D01*
G54D13*X244500Y57500D02*Y97000D01*
Y57500D02*X237000Y50000D01*
X241500Y127000D02*X236000Y121500D01*
Y105500D01*
X244500Y97000D02*X236000Y105500D01*
G54D11*X238500Y70500D02*X234000Y66000D01*
X174000D01*
G54D12*X179000Y39500D02*X180000Y38500D01*
G54D13*X180310Y50000D02*X237000D01*
G54D11*X243500Y9500D02*X256000Y22000D01*
X212500Y40500D02*Y9500D01*
X208500Y44500D02*X212500Y40500D01*
X243500Y9500D02*X82500D01*
X78000Y14000D01*
Y31000D01*
G54D13*X22000Y105000D02*Y122500D01*
X13500Y131000D01*
X93000Y114500D02*Y101000D01*
X130386Y154122D02*X112700Y136436D01*
X112200Y114000D02*X112200Y114000D01*
X112700Y114500D02*Y136436D01*
X72500Y95500D02*X87500D01*
X103614Y144280D02*Y89386D01*
X87500Y95500D02*X93000Y101000D01*
X136000Y95543D02*X128043Y103500D01*
X103614Y89386D02*X119000Y74000D01*
X137000D01*
X137500Y74500D01*
G54D12*X119000Y44500D02*X130000D01*
X135000Y39500D01*
X119000D02*X113000D01*
X112500Y40000D02*X113000Y39500D01*
X121000Y34500D02*Y20500D01*
X88000Y40000D02*X112500D01*
X78000Y41500D02*Y28000D01*
G54D13*X95500Y76100D02*X93100Y78500D01*
X95500Y76100D02*Y57000D01*
Y65000D03*
G54D12*Y40000D02*Y61500D01*
X72500Y95500D02*X72500Y42000D01*
X88000Y45000D02*X81500D01*
X78000Y41500D01*
G54D11*X111500Y20500D02*X119500D01*
X121000Y22000D01*
X133000Y20405D02*X142595D01*
X300500Y159500D02*X260000D01*
X238500Y181000D01*
G54D13*X280500Y133500D02*Y140500D01*
X274000Y127000D02*X241500D01*
G54D11*X300500Y159500D02*Y155000D01*
X307000Y148500D01*
G54D13*X274000Y127000D02*X280500Y133500D01*
G54D11*X298500Y87000D02*Y54000D01*
X307000Y148500D02*Y95500D01*
X298500Y87000D01*
X288500D02*Y33500D01*
X268000Y13000D01*
X259000Y111500D02*X258500Y111000D01*
X241905Y111500D02*X259000D01*
X258500Y24500D02*X256000Y22000D01*
X258500Y111000D02*Y24500D01*
G54D13*X40000Y120500D02*X50500Y131000D01*
X40000Y105000D02*Y120500D01*
Y105000D02*Y105500D01*
X55500Y65000D02*Y75200D01*
X58800Y78500D01*
G54D12*X63000Y45000D02*X58000D01*
X55500Y47500D01*
Y65000D01*
X22000D02*X55500D01*
X63000Y40000D02*X70500D01*
X72500Y42000D02*X70500Y40000D01*
G54D13*X64500Y15500D02*Y32000D01*
G54D12*Y33500D01*
X63000Y35000D01*
G54D14*X95500Y65000D03*
G54D15*G36*
X90000Y49000D02*X81500D01*
Y51000D01*
X90000D01*
Y49000D01*
G37*
G36*
Y44000D02*X81500D01*
Y46000D01*
X90000D01*
Y44000D01*
G37*
G36*
Y39000D02*X81500D01*
Y41000D01*
X90000D01*
Y39000D01*
G37*
G54D16*X170500Y56500D03*
G54D15*G36*
X134055Y77945D02*X140945D01*
Y71055D01*
X134055D01*
Y77945D01*
G37*
G36*
X157260Y58964D02*Y53846D01*
X164740D01*
Y58964D01*
X157260D01*
G37*
G36*
X90000Y34000D02*X81500D01*
Y36000D01*
X90000D01*
Y34000D01*
G37*
G54D17*X147343Y74500D03*
G54D15*G36*
X117000Y50500D02*X125500D01*
Y48500D01*
X117000D01*
Y50500D01*
G37*
G36*
X146000Y48500D02*X137500D01*
Y50500D01*
X146000D01*
Y48500D01*
G37*
G36*
X117000Y45500D02*X125500D01*
Y43500D01*
X117000D01*
Y45500D01*
G37*
G54D16*X179552Y81500D03*
G54D15*G36*
X146000Y43500D02*X137500D01*
Y45500D01*
X146000D01*
Y43500D01*
G37*
G36*
X157260Y47154D02*Y42036D01*
X164740D01*
Y47154D01*
X157260D01*
G37*
G36*
X176260Y52869D02*Y47751D01*
X183740D01*
Y52869D01*
X176260D01*
G37*
G54D16*X111500Y20500D03*
X142500D03*
G54D15*G36*
X123559Y24240D02*X118441D01*
Y16760D01*
X123559D01*
Y24240D01*
G37*
G36*
X135369D02*X130251D01*
Y16760D01*
X135369D01*
Y24240D01*
G37*
G36*
X117000Y40500D02*X125500D01*
Y38500D01*
X117000D01*
Y40500D01*
G37*
G36*
X146000Y38500D02*X137500D01*
Y40500D01*
X146000D01*
Y38500D01*
G37*
G36*
X176260Y41059D02*Y35941D01*
X183740D01*
Y41059D01*
X176260D01*
G37*
G36*
X117000Y35500D02*X125500D01*
Y33500D01*
X117000D01*
Y35500D01*
G37*
G36*
X146000Y33500D02*X137500D01*
Y35500D01*
X146000D01*
Y33500D01*
G37*
G54D14*X93100Y78500D03*
X112500Y95500D03*
G54D15*G36*
X89000Y118500D02*X97000D01*
Y110500D01*
X89000D01*
Y118500D01*
G37*
G54D14*X112700Y114500D03*
G54D15*G36*
X124043Y107500D02*X132043D01*
Y99500D01*
X124043D01*
Y107500D01*
G37*
G36*
X194000Y23500D02*X202000D01*
Y15500D01*
X194000D01*
Y23500D01*
G37*
G36*
X182154Y94740D02*X177036D01*
Y87260D01*
X182154D01*
Y94740D01*
G37*
G54D14*X168043Y103500D03*
G54D15*G36*
X193964Y94740D02*X188846D01*
Y87260D01*
X193964D01*
Y94740D01*
G37*
G36*
X198203Y87984D02*Y86016D01*
X201352D01*
Y87984D01*
X198203D01*
G37*
G36*
Y91724D02*Y89756D01*
X201352D01*
Y91724D01*
X198203D01*
G37*
G36*
X207651Y84244D02*Y82276D01*
X210800D01*
Y84244D01*
X207651D01*
G37*
G36*
Y91724D02*Y89756D01*
X210800D01*
Y91724D01*
X207651D01*
G37*
G36*
X198203Y84244D02*Y82276D01*
X201352D01*
Y84244D01*
X198203D01*
G37*
G36*
X218654Y97240D02*X213536D01*
Y89760D01*
X218654D01*
Y97240D01*
G37*
G36*
X215059Y77952D02*X209941D01*
Y72048D01*
X215059D01*
Y77952D01*
G37*
G36*
X222145D02*X217027D01*
Y72048D01*
X222145D01*
Y77952D01*
G37*
G36*
X254000Y116000D02*X262000D01*
Y108000D01*
X254000D01*
Y116000D01*
G37*
G36*
X230464Y97240D02*X225346D01*
Y89760D01*
X230464D01*
Y97240D01*
G37*
G36*
X232654Y115240D02*X227536D01*
Y107760D01*
X232654D01*
Y115240D01*
G37*
G36*
X244464D02*X239346D01*
Y107760D01*
X244464D01*
Y115240D01*
G37*
G54D16*X237405Y93457D03*
X229086Y74957D03*
G54D15*G36*
X254500Y91000D02*X262500D01*
Y83000D01*
X254500D01*
Y91000D01*
G37*
G54D16*X268000Y13000D03*
G54D15*G36*
X254500Y58000D02*X262500D01*
Y50000D01*
X254500D01*
Y58000D01*
G37*
G54D14*X268500Y54000D03*
X278500D03*
X238000Y19500D03*
X288500Y54000D03*
X298500D03*
X268500Y87000D03*
X278500D03*
X288500D03*
X298500D03*
G54D18*X22000Y181000D03*
X42000D03*
X13500Y131000D03*
Y116000D03*
X32000D03*
G54D15*G36*
X26750Y136250D02*X37250D01*
Y125750D01*
X26750D01*
Y136250D01*
G37*
G54D18*X50500Y131000D03*
Y116000D03*
G54D14*X40000Y105000D03*
G54D19*X64500Y15500D03*
G54D15*G36*
X51500Y69000D02*X59500D01*
Y61000D01*
X51500D01*
Y69000D01*
G37*
G36*
X36000Y61000D02*Y69000D01*
X44000D01*
Y61000D01*
X36000D01*
G37*
G36*
X54800Y82500D02*X62800D01*
Y74500D01*
X54800D01*
Y82500D01*
G37*
G36*
X18000Y61000D02*Y69000D01*
X26000D01*
Y61000D01*
X18000D01*
G37*
G54D14*X22000Y105000D03*
G54D15*G36*
X68500Y99500D02*X76500D01*
Y91500D01*
X68500D01*
Y99500D01*
G37*
G36*
X61000Y51000D02*X69500D01*
Y49000D01*
X61000D01*
Y51000D01*
G37*
G36*
Y46000D02*X69500D01*
Y44000D01*
X61000D01*
Y46000D01*
G37*
G36*
Y41000D02*X69500D01*
Y39000D01*
X61000D01*
Y41000D01*
G37*
G36*
Y36000D02*X69500D01*
Y34000D01*
X61000D01*
Y36000D01*
G37*
G54D20*X90425Y165933D03*
G54D21*X103614Y144280D03*
X111882Y154122D03*
X103614D03*
G54D20*X117000Y169083D03*
X143575Y165933D03*
G54D21*X130386Y154122D03*
G54D22*X260500Y160500D03*
G54D15*G36*
X163949Y169782D02*Y159939D01*
X173791D01*
Y169782D01*
X163949D01*
G37*
G54D23*X227925Y164860D03*
G54D21*X130386Y144280D03*
G54D22*X300500Y160500D03*
G54D14*X298000Y112000D03*
X270500Y140500D03*
X280500D03*
G54D15*G36*
X156713Y133945D02*X163602D01*
Y127055D01*
X156713D01*
Y133945D01*
G37*
G54D17*X170000Y130500D03*
G54D15*G36*
X196038Y133888D02*X202927D01*
Y126999D01*
X196038D01*
Y133888D01*
G37*
G54D17*X209325Y130444D03*
G54D24*G54D25*G54D26*G54D25*G54D24*G54D25*G54D11*G54D25*G54D11*G54D24*G54D11*G54D27*G54D28*G54D24*G54D12*G54D24*G54D29*G54D30*G54D29*G54D30*G54D31*G54D32*G54D30*G54D31*G54D24*G54D33*G54D26*M02*
