G04 start of page 2 for group -1 layer_idx 268435461 *
G04 Title: (unknown), <virtual group> *
G04 Creator: pcb-rnd 2.2.2 *
G04 CreationDate: 2020-07-01 21:22:50 UTC *
G04 For:  *
G04 Format: Gerber/RS-274X *
G04 PCB-Dimensions: 416500 193500 *
G04 PCB-Coordinate-Origin: lower left *
%MOIN*%
%FSLAX25Y25*%
%LNLOGICAL_VIRTUAL_FAB_NONE*%
%ADD278C,0.0100*%
%ADD277C,0.0060*%
%ADD276C,0.0080*%
G54D276*X86825Y169533D02*X94025Y162333D01*
X86825D02*X94025Y169533D01*
X88825Y167533D02*X92025D01*
X88825D02*Y164333D01*
X92025D01*
Y167533D02*Y164333D01*
X87225Y169133D02*X93625D01*
X87225D02*Y162733D01*
X93625D01*
Y169133D02*Y162733D01*
X113400Y172683D02*X120600Y165483D01*
X113400D02*X120600Y172683D01*
X115400Y170683D02*X118600D01*
X115400D02*Y167483D01*
X118600D01*
Y170683D02*Y167483D01*
X113800Y172283D02*X120200D01*
X113800D02*Y165883D01*
X120200D01*
Y172283D02*Y165883D01*
X139975Y169533D02*X147175Y162333D01*
X139975D02*X147175Y169533D01*
X141975Y167533D02*X145175D01*
X141975D02*Y164333D01*
X145175D01*
Y167533D02*Y164333D01*
X140375Y169133D02*X146775D01*
X140375D02*Y162733D01*
X146775D01*
Y169133D02*Y162733D01*
X11400Y208350D02*X18600Y201150D01*
X11400D02*X18600Y208350D01*
X13400Y206350D02*X16600D01*
X13400D02*Y203150D01*
X16600D01*
Y206350D02*Y203150D01*
X11800Y207950D02*X18200D01*
X11800D02*Y201550D01*
X18200D01*
Y207950D02*Y201550D01*
G54D277*X135000Y207000D02*Y206250D01*
X136500Y204750D01*
X138000Y206250D01*
Y207000D02*Y206250D01*
X136500Y204750D02*Y201000D01*
X139800Y204000D02*X142050D01*
X139800Y201000D02*X142800D01*
X139800Y207000D02*Y201000D01*
Y207000D02*X142800D01*
X147600D02*X148350Y206250D01*
X145350Y207000D02*X147600D01*
X144600Y206250D02*X145350Y207000D01*
X144600Y206250D02*Y204750D01*
X145350Y204000D01*
X147600D01*
X148350Y203250D01*
Y201750D01*
X147600Y201000D02*X148350Y201750D01*
X145350Y201000D02*X147600D01*
X144600Y201750D02*X145350Y201000D01*
X98000Y206250D02*X98750Y207000D01*
X100250D01*
X101000Y206250D01*
Y201750D01*
X100250Y201000D02*X101000Y201750D01*
X98750Y201000D02*X100250D01*
X98000Y201750D02*X98750Y201000D01*
Y204000D02*X101000D01*
X45000Y201750D02*X45750Y201000D01*
X45000Y206250D02*Y201750D01*
Y206250D02*X45750Y207000D01*
X47250D01*
X48000Y206250D01*
Y201750D01*
X47250Y201000D02*X48000Y201750D01*
X45750Y201000D02*X47250D01*
X45000Y202500D02*X48000Y205500D01*
X49800Y201000D02*X50550D01*
X52350Y201750D02*X53100Y201000D01*
X52350Y206250D02*Y201750D01*
Y206250D02*X53100Y207000D01*
X54600D01*
X55350Y206250D01*
Y201750D01*
X54600Y201000D02*X55350Y201750D01*
X53100Y201000D02*X54600D01*
X52350Y202500D02*X55350Y205500D01*
X57150Y201000D02*X60150Y204000D01*
Y206250D02*Y204000D01*
X59400Y207000D02*X60150Y206250D01*
X57900Y207000D02*X59400D01*
X57150Y206250D02*X57900Y207000D01*
X57150Y206250D02*Y204750D01*
X57900Y204000D01*
X60150D01*
X61950Y206250D02*X62700Y207000D01*
X64200D01*
X64950Y206250D01*
Y201750D01*
X64200Y201000D02*X64950Y201750D01*
X62700Y201000D02*X64200D01*
X61950Y201750D02*X62700Y201000D01*
Y204000D02*X64950D01*
X260500Y165300D02*Y155700D01*
X255700Y160500D02*X265300D01*
X258900Y162100D02*X262100D01*
X258900D02*Y158900D01*
X262100D01*
Y162100D02*Y158900D01*
X257300Y163700D02*X263700D01*
X257300D02*Y157300D01*
X263700D01*
Y163700D02*Y157300D01*
X300500Y165300D02*Y155700D01*
X295700Y160500D02*X305300D01*
X298900Y162100D02*X302100D01*
X298900D02*Y158900D01*
X302100D01*
Y162100D02*Y158900D01*
X297300Y163700D02*X303700D01*
X297300D02*Y157300D01*
X303700D01*
Y163700D02*Y157300D01*
X15000Y224550D02*Y214950D01*
X10200Y219750D02*X19800D01*
X13400Y221350D02*X16600D01*
X13400D02*Y218150D01*
X16600D01*
Y221350D02*Y218150D01*
X11800Y222950D02*X18200D01*
X11800D02*Y216550D01*
X18200D01*
Y222950D02*Y216550D01*
X135000Y222000D02*Y221250D01*
X136500Y219750D01*
X138000Y221250D01*
Y222000D02*Y221250D01*
X136500Y219750D02*Y216000D01*
X139800Y219000D02*X142050D01*
X139800Y216000D02*X142800D01*
X139800Y222000D02*Y216000D01*
Y222000D02*X142800D01*
X147600D02*X148350Y221250D01*
X145350Y222000D02*X147600D01*
X144600Y221250D02*X145350Y222000D01*
X144600Y221250D02*Y219750D01*
X145350Y219000D01*
X147600D01*
X148350Y218250D01*
Y216750D01*
X147600Y216000D02*X148350Y216750D01*
X145350Y216000D02*X147600D01*
X144600Y216750D02*X145350Y216000D01*
X98000Y221250D02*X98750Y222000D01*
X101000D01*
X101750Y221250D01*
Y219750D01*
X98000Y216000D02*X101750Y219750D01*
X98000Y216000D02*X101750D01*
X45000Y216750D02*X45750Y216000D01*
X45000Y221250D02*Y216750D01*
Y221250D02*X45750Y222000D01*
X47250D01*
X48000Y221250D01*
Y216750D01*
X47250Y216000D02*X48000Y216750D01*
X45750Y216000D02*X47250D01*
X45000Y217500D02*X48000Y220500D01*
X49800Y216000D02*X50550D01*
X52350Y216750D02*X53100Y216000D01*
X52350Y221250D02*Y216750D01*
Y221250D02*X53100Y222000D01*
X54600D01*
X55350Y221250D01*
Y216750D01*
X54600Y216000D02*X55350Y216750D01*
X53100Y216000D02*X54600D01*
X52350Y217500D02*X55350Y220500D01*
X57150Y216000D02*X60900Y219750D01*
Y222000D02*Y219750D01*
X57150Y222000D02*X60900D01*
X62700Y216000D02*X65700Y219000D01*
Y221250D02*Y219000D01*
X64950Y222000D02*X65700Y221250D01*
X63450Y222000D02*X64950D01*
X62700Y221250D02*X63450Y222000D01*
X62700Y221250D02*Y219750D01*
X63450Y219000D01*
X65700D01*
X32000Y131000D02*Y126200D01*
Y131000D02*X36160Y133400D01*
X32000Y131000D02*X27840Y133400D01*
X30400Y131000D02*G75*G03X33600Y131000I1600J0D01*G01*
G75*G03X30400Y131000I-1600J0D01*G01*
X28800D02*G75*G03X35200Y131000I3200J0D01*G01*
G75*G03X28800Y131000I-3200J0D01*G01*
X32000Y116000D02*Y111200D01*
Y116000D02*X36160Y118400D01*
X32000Y116000D02*X27840Y118400D01*
X30400Y116000D02*G75*G03X33600Y116000I1600J0D01*G01*
G75*G03X30400Y116000I-1600J0D01*G01*
X28800D02*G75*G03X35200Y116000I3200J0D01*G01*
G75*G03X28800Y116000I-3200J0D01*G01*
X13500Y131000D02*Y126200D01*
Y131000D02*X17660Y133400D01*
X13500Y131000D02*X9340Y133400D01*
X11900Y131000D02*G75*G03X15100Y131000I1600J0D01*G01*
G75*G03X11900Y131000I-1600J0D01*G01*
X10300D02*G75*G03X16700Y131000I3200J0D01*G01*
G75*G03X10300Y131000I-3200J0D01*G01*
X50500D02*Y126200D01*
Y131000D02*X54660Y133400D01*
X50500Y131000D02*X46340Y133400D01*
X48900Y131000D02*G75*G03X52100Y131000I1600J0D01*G01*
G75*G03X48900Y131000I-1600J0D01*G01*
X47300D02*G75*G03X53700Y131000I3200J0D01*G01*
G75*G03X47300Y131000I-3200J0D01*G01*
X50500Y116000D02*Y111200D01*
Y116000D02*X54660Y118400D01*
X50500Y116000D02*X46340Y118400D01*
X48900Y116000D02*G75*G03X52100Y116000I1600J0D01*G01*
G75*G03X48900Y116000I-1600J0D01*G01*
X47300D02*G75*G03X53700Y116000I3200J0D01*G01*
G75*G03X47300Y116000I-3200J0D01*G01*
X13500D02*Y111200D01*
Y116000D02*X17660Y118400D01*
X13500Y116000D02*X9340Y118400D01*
X11900Y116000D02*G75*G03X15100Y116000I1600J0D01*G01*
G75*G03X11900Y116000I-1600J0D01*G01*
X10300D02*G75*G03X16700Y116000I3200J0D01*G01*
G75*G03X10300Y116000I-3200J0D01*G01*
X15000Y234750D02*Y229950D01*
Y234750D02*X19160Y237150D01*
X15000Y234750D02*X10840Y237150D01*
X13400Y234750D02*G75*G03X16600Y234750I1600J0D01*G01*
G75*G03X13400Y234750I-1600J0D01*G01*
X11800D02*G75*G03X18200Y234750I3200J0D01*G01*
G75*G03X11800Y234750I-3200J0D01*G01*
X135000Y237000D02*Y236250D01*
X136500Y234750D01*
X138000Y236250D01*
Y237000D02*Y236250D01*
X136500Y234750D02*Y231000D01*
X139800Y234000D02*X142050D01*
X139800Y231000D02*X142800D01*
X139800Y237000D02*Y231000D01*
Y237000D02*X142800D01*
X147600D02*X148350Y236250D01*
X145350Y237000D02*X147600D01*
X144600Y236250D02*X145350Y237000D01*
X144600Y236250D02*Y234750D01*
X145350Y234000D01*
X147600D01*
X148350Y233250D01*
Y231750D01*
X147600Y231000D02*X148350Y231750D01*
X145350Y231000D02*X147600D01*
X144600Y231750D02*X145350Y231000D01*
X100250Y237000D02*X101000Y236250D01*
X98750Y237000D02*X100250D01*
X98000Y236250D02*X98750Y237000D01*
X98000Y236250D02*Y231750D01*
X98750Y231000D01*
X100250Y234000D02*X101000Y233250D01*
X98000Y234000D02*X100250D01*
X98750Y231000D02*X100250D01*
X101000Y231750D01*
Y233250D02*Y231750D01*
X45000D02*X45750Y231000D01*
X45000Y236250D02*Y231750D01*
Y236250D02*X45750Y237000D01*
X47250D01*
X48000Y236250D01*
Y231750D01*
X47250Y231000D02*X48000Y231750D01*
X45750Y231000D02*X47250D01*
X45000Y232500D02*X48000Y235500D01*
X49800Y231000D02*X50550D01*
X52350Y231750D02*X53100Y231000D01*
X52350Y236250D02*Y231750D01*
Y236250D02*X53100Y237000D01*
X54600D01*
X55350Y236250D01*
Y231750D01*
X54600Y231000D02*X55350Y231750D01*
X53100Y231000D02*X54600D01*
X52350Y232500D02*X55350Y235500D01*
X57150Y231000D02*X60900Y234750D01*
Y237000D02*Y234750D01*
X57150Y237000D02*X60900D01*
X63450Y231000D02*X64950D01*
X64200Y237000D02*Y231000D01*
X62700Y235500D02*X64200Y237000D01*
X20400Y182600D02*X23600D01*
X20400D02*Y179400D01*
X23600D01*
Y182600D02*Y179400D01*
X18800Y184200D02*X25200D01*
X18800D02*Y177800D01*
X25200D01*
Y184200D02*Y177800D01*
X40400Y182600D02*X43600D01*
X40400D02*Y179400D01*
X43600D01*
Y182600D02*Y179400D01*
X38800Y184200D02*X45200D01*
X38800D02*Y177800D01*
X45200D01*
Y184200D02*Y177800D01*
X13400Y251350D02*X16600D01*
X13400D02*Y248150D01*
X16600D01*
Y251350D02*Y248150D01*
X11800Y252950D02*X18200D01*
X11800D02*Y246550D01*
X18200D01*
Y252950D02*Y246550D01*
X135000Y252000D02*Y251250D01*
X136500Y249750D01*
X138000Y251250D01*
Y252000D02*Y251250D01*
X136500Y249750D02*Y246000D01*
X139800Y249000D02*X142050D01*
X139800Y246000D02*X142800D01*
X139800Y252000D02*Y246000D01*
Y252000D02*X142800D01*
X147600D02*X148350Y251250D01*
X145350Y252000D02*X147600D01*
X144600Y251250D02*X145350Y252000D01*
X144600Y251250D02*Y249750D01*
X145350Y249000D01*
X147600D01*
X148350Y248250D01*
Y246750D01*
X147600Y246000D02*X148350Y246750D01*
X145350Y246000D02*X147600D01*
X144600Y246750D02*X145350Y246000D01*
X98000Y251250D02*X98750Y252000D01*
X101000D01*
X101750Y251250D01*
Y249750D01*
X98000Y246000D02*X101750Y249750D01*
X98000Y246000D02*X101750D01*
X45000Y246750D02*X45750Y246000D01*
X45000Y251250D02*Y246750D01*
Y251250D02*X45750Y252000D01*
X47250D01*
X48000Y251250D01*
Y246750D01*
X47250Y246000D02*X48000Y246750D01*
X45750Y246000D02*X47250D01*
X45000Y247500D02*X48000Y250500D01*
X49800Y246000D02*X50550D01*
X52350Y246750D02*X53100Y246000D01*
X52350Y251250D02*Y246750D01*
Y251250D02*X53100Y252000D01*
X54600D01*
X55350Y251250D01*
Y246750D01*
X54600Y246000D02*X55350Y246750D01*
X53100Y246000D02*X54600D01*
X52350Y247500D02*X55350Y250500D01*
X59400Y252000D02*X60150Y251250D01*
X57900Y252000D02*X59400D01*
X57150Y251250D02*X57900Y252000D01*
X57150Y251250D02*Y246750D01*
X57900Y246000D01*
X59400Y249000D02*X60150Y248250D01*
X57150Y249000D02*X59400D01*
X57900Y246000D02*X59400D01*
X60150Y246750D01*
Y248250D02*Y246750D01*
X61950Y252000D02*X64950D01*
X61950D02*Y249000D01*
X62700Y249750D01*
X64200D01*
X64950Y249000D01*
Y246750D01*
X64200Y246000D02*X64950Y246750D01*
X62700Y246000D02*X64200D01*
X61950Y246750D02*X62700Y246000D01*
X226700Y131500D02*G75*G03X228300Y131500I800J0D01*G01*
G75*G03X226700Y131500I-800J0D01*G01*
X225100D02*G75*G03X229900Y131500I2400J0D01*G01*
G75*G03X225100Y131500I-2400J0D01*G01*
X216700D02*G75*G03X218300Y131500I800J0D01*G01*
G75*G03X216700Y131500I-800J0D01*G01*
X215100D02*G75*G03X219900Y131500I2400J0D01*G01*
G75*G03X215100Y131500I-2400J0D01*G01*
X206700D02*G75*G03X208300Y131500I800J0D01*G01*
G75*G03X206700Y131500I-800J0D01*G01*
X205100D02*G75*G03X209900Y131500I2400J0D01*G01*
G75*G03X205100Y131500I-2400J0D01*G01*
X14200Y264750D02*G75*G03X15800Y264750I800J0D01*G01*
G75*G03X14200Y264750I-800J0D01*G01*
X12600D02*G75*G03X17400Y264750I2400J0D01*G01*
G75*G03X12600Y264750I-2400J0D01*G01*
X135000Y267000D02*Y266250D01*
X136500Y264750D01*
X138000Y266250D01*
Y267000D02*Y266250D01*
X136500Y264750D02*Y261000D01*
X139800Y264000D02*X142050D01*
X139800Y261000D02*X142800D01*
X139800Y267000D02*Y261000D01*
Y267000D02*X142800D01*
X147600D02*X148350Y266250D01*
X145350Y267000D02*X147600D01*
X144600Y266250D02*X145350Y267000D01*
X144600Y266250D02*Y264750D01*
X145350Y264000D01*
X147600D01*
X148350Y263250D01*
Y261750D01*
X147600Y261000D02*X148350Y261750D01*
X145350Y261000D02*X147600D01*
X144600Y261750D02*X145350Y261000D01*
X98000Y266250D02*X98750Y267000D01*
X100250D01*
X101000Y266250D01*
Y261750D01*
X100250Y261000D02*X101000Y261750D01*
X98750Y261000D02*X100250D01*
X98000Y261750D02*X98750Y261000D01*
Y264000D02*X101000D01*
X45000Y261750D02*X45750Y261000D01*
X45000Y266250D02*Y261750D01*
Y266250D02*X45750Y267000D01*
X47250D01*
X48000Y266250D01*
Y261750D01*
X47250Y261000D02*X48000Y261750D01*
X45750Y261000D02*X47250D01*
X45000Y262500D02*X48000Y265500D01*
X49800Y261000D02*X50550D01*
X52350Y261750D02*X53100Y261000D01*
X52350Y266250D02*Y261750D01*
Y266250D02*X53100Y267000D01*
X54600D01*
X55350Y266250D01*
Y261750D01*
X54600Y261000D02*X55350Y261750D01*
X53100Y261000D02*X54600D01*
X52350Y262500D02*X55350Y265500D01*
X57150Y264000D02*X60150Y267000D01*
X57150Y264000D02*X60900D01*
X60150Y267000D02*Y261000D01*
X62700Y266250D02*X63450Y267000D01*
X65700D01*
X66450Y266250D01*
Y264750D01*
X62700Y261000D02*X66450Y264750D01*
X62700Y261000D02*X66450D01*
X256100Y89400D02*X260900Y84600D01*
X256100D02*X260900Y89400D01*
X256900Y88600D02*X260100D01*
X256900D02*Y85400D01*
X260100D01*
Y88600D02*Y85400D01*
X266100Y89400D02*X270900Y84600D01*
X266100D02*X270900Y89400D01*
X266900Y88600D02*X270100D01*
X266900D02*Y85400D01*
X270100D01*
Y88600D02*Y85400D01*
X276100Y89400D02*X280900Y84600D01*
X276100D02*X280900Y89400D01*
X276900Y88600D02*X280100D01*
X276900D02*Y85400D01*
X280100D01*
Y88600D02*Y85400D01*
X286100Y89400D02*X290900Y84600D01*
X286100D02*X290900Y89400D01*
X286900Y88600D02*X290100D01*
X286900D02*Y85400D01*
X290100D01*
Y88600D02*Y85400D01*
X296100Y89400D02*X300900Y84600D01*
X296100D02*X300900Y89400D01*
X296900Y88600D02*X300100D01*
X296900D02*Y85400D01*
X300100D01*
Y88600D02*Y85400D01*
X256100Y56400D02*X260900Y51600D01*
X256100D02*X260900Y56400D01*
X256900Y55600D02*X260100D01*
X256900D02*Y52400D01*
X260100D01*
Y55600D02*Y52400D01*
X266100Y56400D02*X270900Y51600D01*
X266100D02*X270900Y56400D01*
X266900Y55600D02*X270100D01*
X266900D02*Y52400D01*
X270100D01*
Y55600D02*Y52400D01*
X276100Y56400D02*X280900Y51600D01*
X276100D02*X280900Y56400D01*
X276900Y55600D02*X280100D01*
X276900D02*Y52400D01*
X280100D01*
Y55600D02*Y52400D01*
X286100Y56400D02*X290900Y51600D01*
X286100D02*X290900Y56400D01*
X286900Y55600D02*X290100D01*
X286900D02*Y52400D01*
X290100D01*
Y55600D02*Y52400D01*
X296100Y56400D02*X300900Y51600D01*
X296100D02*X300900Y56400D01*
X296900Y55600D02*X300100D01*
X296900D02*Y52400D01*
X300100D01*
Y55600D02*Y52400D01*
X12600Y282150D02*X17400Y277350D01*
X12600D02*X17400Y282150D01*
X13400Y281350D02*X16600D01*
X13400D02*Y278150D01*
X16600D01*
Y281350D02*Y278150D01*
X135000Y282000D02*Y281250D01*
X136500Y279750D01*
X138000Y281250D01*
Y282000D02*Y281250D01*
X136500Y279750D02*Y276000D01*
X139800Y279000D02*X142050D01*
X139800Y276000D02*X142800D01*
X139800Y282000D02*Y276000D01*
Y282000D02*X142800D01*
X147600D02*X148350Y281250D01*
X145350Y282000D02*X147600D01*
X144600Y281250D02*X145350Y282000D01*
X144600Y281250D02*Y279750D01*
X145350Y279000D01*
X147600D01*
X148350Y278250D01*
Y276750D01*
X147600Y276000D02*X148350Y276750D01*
X145350Y276000D02*X147600D01*
X144600Y276750D02*X145350Y276000D01*
X98750D02*X100250D01*
X99500Y282000D02*Y276000D01*
X98000Y280500D02*X99500Y282000D01*
X102050Y276750D02*X102800Y276000D01*
X102050Y281250D02*Y276750D01*
Y281250D02*X102800Y282000D01*
X104300D01*
X105050Y281250D01*
Y276750D01*
X104300Y276000D02*X105050Y276750D01*
X102800Y276000D02*X104300D01*
X102050Y277500D02*X105050Y280500D01*
X45000Y276750D02*X45750Y276000D01*
X45000Y281250D02*Y276750D01*
Y281250D02*X45750Y282000D01*
X47250D01*
X48000Y281250D01*
Y276750D01*
X47250Y276000D02*X48000Y276750D01*
X45750Y276000D02*X47250D01*
X45000Y277500D02*X48000Y280500D01*
X49800Y276000D02*X50550D01*
X52350Y276750D02*X53100Y276000D01*
X52350Y281250D02*Y276750D01*
Y281250D02*X53100Y282000D01*
X54600D01*
X55350Y281250D01*
Y276750D01*
X54600Y276000D02*X55350Y276750D01*
X53100Y276000D02*X54600D01*
X52350Y277500D02*X55350Y280500D01*
X57150Y279000D02*X60150Y282000D01*
X57150Y279000D02*X60900D01*
X60150Y282000D02*Y276000D01*
X62700Y276750D02*X63450Y276000D01*
X62700Y281250D02*Y276750D01*
Y281250D02*X63450Y282000D01*
X64950D01*
X65700Y281250D01*
Y276750D01*
X64950Y276000D02*X65700Y276750D01*
X63450Y276000D02*X64950D01*
X62700Y277500D02*X65700Y280500D01*
X219000Y117200D02*Y110800D01*
X215800Y114000D02*X222200D01*
X217400Y115600D02*X220600D01*
X217400D02*Y112400D01*
X220600D01*
Y115600D02*Y112400D01*
X235000Y117200D02*Y110800D01*
X231800Y114000D02*X238200D01*
X233400Y115600D02*X236600D01*
X233400D02*Y112400D01*
X236600D01*
Y115600D02*Y112400D01*
X219000Y77200D02*Y70800D01*
X215800Y74000D02*X222200D01*
X217400Y75600D02*X220600D01*
X217400D02*Y72400D01*
X220600D01*
Y75600D02*Y72400D01*
X235000Y77200D02*Y70800D01*
X231800Y74000D02*X238200D01*
X233400Y75600D02*X236600D01*
X233400D02*Y72400D01*
X236600D01*
Y75600D02*Y72400D01*
X257500Y116700D02*Y110300D01*
X254300Y113500D02*X260700D01*
X255900Y115100D02*X259100D01*
X255900D02*Y111900D01*
X259100D01*
Y115100D02*Y111900D01*
X297500Y116700D02*Y110300D01*
X294300Y113500D02*X300700D01*
X295900Y115100D02*X299100D01*
X295900D02*Y111900D01*
X299100D01*
Y115100D02*Y111900D01*
X222500Y22700D02*Y16300D01*
X219300Y19500D02*X225700D01*
X220900Y21100D02*X224100D01*
X220900D02*Y17900D01*
X224100D01*
Y21100D02*Y17900D01*
X22000Y68200D02*Y61800D01*
X18800Y65000D02*X25200D01*
X20400Y66600D02*X23600D01*
X20400D02*Y63400D01*
X23600D01*
Y66600D02*Y63400D01*
X22000Y108200D02*Y101800D01*
X18800Y105000D02*X25200D01*
X20400Y106600D02*X23600D01*
X20400D02*Y103400D01*
X23600D01*
Y106600D02*Y103400D01*
X55500Y68200D02*Y61800D01*
X52300Y65000D02*X58700D01*
X53900Y66600D02*X57100D01*
X53900D02*Y63400D01*
X57100D01*
Y66600D02*Y63400D01*
X40000Y108200D02*Y101800D01*
X36800Y105000D02*X43200D01*
X38400Y106600D02*X41600D01*
X38400D02*Y103400D01*
X41600D01*
Y106600D02*Y103400D01*
X95500Y68200D02*Y61800D01*
X92300Y65000D02*X98700D01*
X93900Y66600D02*X97100D01*
X93900D02*Y63400D01*
X97100D01*
Y66600D02*Y63400D01*
X95500Y94200D02*Y87800D01*
X92300Y91000D02*X98700D01*
X93900Y92600D02*X97100D01*
X93900D02*Y89400D01*
X97100D01*
Y92600D02*Y89400D01*
X95500Y110200D02*Y103800D01*
X92300Y107000D02*X98700D01*
X93900Y108600D02*X97100D01*
X93900D02*Y105400D01*
X97100D01*
Y108600D02*Y105400D01*
X115200Y110200D02*Y103800D01*
X112000Y107000D02*X118400D01*
X113600Y108600D02*X116800D01*
X113600D02*Y105400D01*
X116800D01*
Y108600D02*Y105400D01*
X111300Y74200D02*Y67800D01*
X108100Y71000D02*X114500D01*
X109700Y72600D02*X112900D01*
X109700D02*Y69400D01*
X112900D01*
Y72600D02*Y69400D01*
X66026Y49358D02*Y42958D01*
X62826Y46158D02*X69226D01*
X64426Y47758D02*X67626D01*
X64426D02*Y44558D01*
X67626D01*
Y47758D02*Y44558D01*
X106026Y49358D02*Y42958D01*
X102826Y46158D02*X109226D01*
X104426Y47758D02*X107626D01*
X104426D02*Y44558D01*
X107626D01*
Y47758D02*Y44558D01*
X96500Y27700D02*Y21300D01*
X93300Y24500D02*X99700D01*
X94900Y26100D02*X98100D01*
X94900D02*Y22900D01*
X98100D01*
Y26100D02*Y22900D01*
X96500Y37700D02*Y31300D01*
X93300Y34500D02*X99700D01*
X94900Y36100D02*X98100D01*
X94900D02*Y32900D01*
X98100D01*
Y36100D02*Y32900D01*
X40000Y68200D02*Y61800D01*
X36800Y65000D02*X43200D01*
X38400Y66600D02*X41600D01*
X38400D02*Y63400D01*
X41600D01*
Y66600D02*Y63400D01*
X182500Y22700D02*Y16300D01*
X179300Y19500D02*X185700D01*
X180900Y21100D02*X184100D01*
X180900D02*Y17900D01*
X184100D01*
Y21100D02*Y17900D01*
X162000Y77200D02*Y70800D01*
X158800Y74000D02*X165200D01*
X160400Y75600D02*X163600D01*
X160400D02*Y72400D01*
X163600D01*
Y75600D02*Y72400D01*
X176500Y47700D02*Y41300D01*
X173300Y44500D02*X179700D01*
X174900Y46100D02*X178100D01*
X174900D02*Y42900D01*
X178100D01*
Y46100D02*Y42900D01*
X176500Y57700D02*Y51300D01*
X173300Y54500D02*X179700D01*
X174900Y56100D02*X178100D01*
X174900D02*Y52900D01*
X178100D01*
Y56100D02*Y52900D01*
X177500Y134700D02*Y128300D01*
X174300Y131500D02*X180700D01*
X175900Y133100D02*X179100D01*
X175900D02*Y129900D01*
X179100D01*
Y133100D02*Y129900D01*
X187500Y134700D02*Y128300D01*
X184300Y131500D02*X190700D01*
X185900Y133100D02*X189100D01*
X185900D02*Y129900D01*
X189100D01*
Y133100D02*Y129900D01*
X135500Y94200D02*Y87800D01*
X132300Y91000D02*X138700D01*
X133900Y92600D02*X137100D01*
X133900D02*Y89400D01*
X137100D01*
Y92600D02*Y89400D01*
X145600Y74200D02*Y67800D01*
X142400Y71000D02*X148800D01*
X144000Y72600D02*X147200D01*
X144000D02*Y69400D01*
X147200D01*
Y72600D02*Y69400D01*
X162000Y117200D02*Y110800D01*
X158800Y114000D02*X165200D01*
X160400Y115600D02*X163600D01*
X160400D02*Y112400D01*
X163600D01*
Y115600D02*Y112400D01*
X15000Y297950D02*Y291550D01*
X11800Y294750D02*X18200D01*
X13400Y296350D02*X16600D01*
X13400D02*Y293150D01*
X16600D01*
Y296350D02*Y293150D01*
X135000Y297000D02*Y296250D01*
X136500Y294750D01*
X138000Y296250D01*
Y297000D02*Y296250D01*
X136500Y294750D02*Y291000D01*
X139800Y294000D02*X142050D01*
X139800Y291000D02*X142800D01*
X139800Y297000D02*Y291000D01*
Y297000D02*X142800D01*
X147600D02*X148350Y296250D01*
X145350Y297000D02*X147600D01*
X144600Y296250D02*X145350Y297000D01*
X144600Y296250D02*Y294750D01*
X145350Y294000D01*
X147600D01*
X148350Y293250D01*
Y291750D01*
X147600Y291000D02*X148350Y291750D01*
X145350Y291000D02*X147600D01*
X144600Y291750D02*X145350Y291000D01*
X98000Y296250D02*X98750Y297000D01*
X100250D01*
X101000Y296250D01*
Y291750D01*
X100250Y291000D02*X101000Y291750D01*
X98750Y291000D02*X100250D01*
X98000Y291750D02*X98750Y291000D01*
Y294000D02*X101000D01*
X102800Y291750D02*X103550Y291000D01*
X102800Y296250D02*Y291750D01*
Y296250D02*X103550Y297000D01*
X105050D01*
X105800Y296250D01*
Y291750D01*
X105050Y291000D02*X105800Y291750D01*
X103550Y291000D02*X105050D01*
X102800Y292500D02*X105800Y295500D01*
X45000Y291750D02*X45750Y291000D01*
X45000Y296250D02*Y291750D01*
Y296250D02*X45750Y297000D01*
X47250D01*
X48000Y296250D01*
Y291750D01*
X47250Y291000D02*X48000Y291750D01*
X45750Y291000D02*X47250D01*
X45000Y292500D02*X48000Y295500D01*
X49800Y291000D02*X50550D01*
X52350Y291750D02*X53100Y291000D01*
X52350Y296250D02*Y291750D01*
Y296250D02*X53100Y297000D01*
X54600D01*
X55350Y296250D01*
Y291750D01*
X54600Y291000D02*X55350Y291750D01*
X53100Y291000D02*X54600D01*
X52350Y292500D02*X55350Y295500D01*
X57150Y296250D02*X57900Y297000D01*
X59400D01*
X60150Y296250D01*
Y291750D01*
X59400Y291000D02*X60150Y291750D01*
X57900Y291000D02*X59400D01*
X57150Y291750D02*X57900Y291000D01*
Y294000D02*X60150D01*
X61950Y291000D02*X64950Y294000D01*
Y296250D02*Y294000D01*
X64200Y297000D02*X64950Y296250D01*
X62700Y297000D02*X64200D01*
X61950Y296250D02*X62700Y297000D01*
X61950Y296250D02*Y294750D01*
X62700Y294000D01*
X64950D01*
X227925Y164860D02*Y161660D01*
Y164860D02*X230698Y166460D01*
X227925Y164860D02*X225152Y166460D01*
X226325Y164860D02*G75*G03X229525Y164860I1600J0D01*G01*
G75*G03X226325Y164860I-1600J0D01*G01*
X168870D02*Y161660D01*
Y164860D02*X171643Y166460D01*
X168870Y164860D02*X166097Y166460D01*
X167270Y164860D02*G75*G03X170470Y164860I1600J0D01*G01*
G75*G03X167270Y164860I-1600J0D01*G01*
X15000Y309750D02*Y306550D01*
Y309750D02*X17773Y311350D01*
X15000Y309750D02*X12227Y311350D01*
X13400Y309750D02*G75*G03X16600Y309750I1600J0D01*G01*
G75*G03X13400Y309750I-1600J0D01*G01*
X135000Y312000D02*Y311250D01*
X136500Y309750D01*
X138000Y311250D01*
Y312000D02*Y311250D01*
X136500Y309750D02*Y306000D01*
X139800Y309000D02*X142050D01*
X139800Y306000D02*X142800D01*
X139800Y312000D02*Y306000D01*
Y312000D02*X142800D01*
X147600D02*X148350Y311250D01*
X145350Y312000D02*X147600D01*
X144600Y311250D02*X145350Y312000D01*
X144600Y311250D02*Y309750D01*
X145350Y309000D01*
X147600D01*
X148350Y308250D01*
Y306750D01*
X147600Y306000D02*X148350Y306750D01*
X145350Y306000D02*X147600D01*
X144600Y306750D02*X145350Y306000D01*
X98000Y311250D02*X98750Y312000D01*
X101000D01*
X101750Y311250D01*
Y309750D01*
X98000Y306000D02*X101750Y309750D01*
X98000Y306000D02*X101750D01*
X45000Y306750D02*X45750Y306000D01*
X45000Y311250D02*Y306750D01*
Y311250D02*X45750Y312000D01*
X47250D01*
X48000Y311250D01*
Y306750D01*
X47250Y306000D02*X48000Y306750D01*
X45750Y306000D02*X47250D01*
X45000Y307500D02*X48000Y310500D01*
X49800Y306000D02*X50550D01*
X52350Y306750D02*X53100Y306000D01*
X52350Y311250D02*Y306750D01*
Y311250D02*X53100Y312000D01*
X54600D01*
X55350Y311250D01*
Y306750D01*
X54600Y306000D02*X55350Y306750D01*
X53100Y306000D02*X54600D01*
X52350Y307500D02*X55350Y310500D01*
X57150Y311250D02*X57900Y312000D01*
X59400D01*
X60150Y311250D01*
Y306750D01*
X59400Y306000D02*X60150Y306750D01*
X57900Y306000D02*X59400D01*
X57150Y306750D02*X57900Y306000D01*
Y309000D02*X60150D01*
X61950Y306000D02*X65700Y309750D01*
Y312000D02*Y309750D01*
X61950Y312000D02*X65700D01*
X102014Y145880D02*X105214D01*
X102014D02*Y142680D01*
X105214D01*
Y145880D02*Y142680D01*
X110282Y155722D02*X113482D01*
X110282D02*Y152522D01*
X113482D01*
Y155722D02*Y152522D01*
X102014Y155722D02*X105214D01*
X102014D02*Y152522D01*
X105214D01*
Y155722D02*Y152522D01*
X128786Y155722D02*X131986D01*
X128786D02*Y152522D01*
X131986D01*
Y155722D02*Y152522D01*
X128786Y145880D02*X131986D01*
X128786D02*Y142680D01*
X131986D01*
Y145880D02*Y142680D01*
X13400Y326350D02*X16600D01*
X13400D02*Y323150D01*
X16600D01*
Y326350D02*Y323150D01*
X135000Y327000D02*Y326250D01*
X136500Y324750D01*
X138000Y326250D01*
Y327000D02*Y326250D01*
X136500Y324750D02*Y321000D01*
X139800Y324000D02*X142050D01*
X139800Y321000D02*X142800D01*
X139800Y327000D02*Y321000D01*
Y327000D02*X142800D01*
X147600D02*X148350Y326250D01*
X145350Y327000D02*X147600D01*
X144600Y326250D02*X145350Y327000D01*
X144600Y326250D02*Y324750D01*
X145350Y324000D01*
X147600D01*
X148350Y323250D01*
Y321750D01*
X147600Y321000D02*X148350Y321750D01*
X145350Y321000D02*X147600D01*
X144600Y321750D02*X145350Y321000D01*
X98000Y327000D02*X101000D01*
X98000D02*Y324000D01*
X98750Y324750D01*
X100250D01*
X101000Y324000D01*
Y321750D01*
X100250Y321000D02*X101000Y321750D01*
X98750Y321000D02*X100250D01*
X98000Y321750D02*X98750Y321000D01*
X45000Y321750D02*X45750Y321000D01*
X45000Y326250D02*Y321750D01*
Y326250D02*X45750Y327000D01*
X47250D01*
X48000Y326250D01*
Y321750D01*
X47250Y321000D02*X48000Y321750D01*
X45750Y321000D02*X47250D01*
X45000Y322500D02*X48000Y325500D01*
X49800Y321000D02*X50550D01*
X52350Y321750D02*X53100Y321000D01*
X52350Y326250D02*Y321750D01*
Y326250D02*X53100Y327000D01*
X54600D01*
X55350Y326250D01*
Y321750D01*
X54600Y321000D02*X55350Y321750D01*
X53100Y321000D02*X54600D01*
X52350Y322500D02*X55350Y325500D01*
X57150Y326250D02*X57900Y327000D01*
X59400D01*
X60150Y326250D01*
Y321750D01*
X59400Y321000D02*X60150Y321750D01*
X57900Y321000D02*X59400D01*
X57150Y321750D02*X57900Y321000D01*
Y324000D02*X60150D01*
X64200Y327000D02*X64950Y326250D01*
X62700Y327000D02*X64200D01*
X61950Y326250D02*X62700Y327000D01*
X61950Y326250D02*Y321750D01*
X62700Y321000D01*
X64200Y324000D02*X64950Y323250D01*
X61950Y324000D02*X64200D01*
X62700Y321000D02*X64200D01*
X64950Y321750D01*
Y323250D02*Y321750D01*
X267200Y13000D02*G75*G03X268800Y13000I800J0D01*G01*
G75*G03X267200Y13000I-800J0D01*G01*
X14200Y339750D02*G75*G03X15800Y339750I800J0D01*G01*
G75*G03X14200Y339750I-800J0D01*G01*
X135000Y342000D02*Y341250D01*
X136500Y339750D01*
X138000Y341250D01*
Y342000D02*Y341250D01*
X136500Y339750D02*Y336000D01*
X139800Y339000D02*X142050D01*
X139800Y336000D02*X142800D01*
X139800Y342000D02*Y336000D01*
Y342000D02*X142800D01*
X147600D02*X148350Y341250D01*
X145350Y342000D02*X147600D01*
X144600Y341250D02*X145350Y342000D01*
X144600Y341250D02*Y339750D01*
X145350Y339000D01*
X147600D01*
X148350Y338250D01*
Y336750D01*
X147600Y336000D02*X148350Y336750D01*
X145350Y336000D02*X147600D01*
X144600Y336750D02*X145350Y336000D01*
X98750D02*X100250D01*
X99500Y342000D02*Y336000D01*
X98000Y340500D02*X99500Y342000D01*
X45000Y336750D02*X45750Y336000D01*
X45000Y341250D02*Y336750D01*
Y341250D02*X45750Y342000D01*
X47250D01*
X48000Y341250D01*
Y336750D01*
X47250Y336000D02*X48000Y336750D01*
X45750Y336000D02*X47250D01*
X45000Y337500D02*X48000Y340500D01*
X49800Y336000D02*X50550D01*
X52350Y336750D02*X53100Y336000D01*
X52350Y341250D02*Y336750D01*
Y341250D02*X53100Y342000D01*
X54600D01*
X55350Y341250D01*
Y336750D01*
X54600Y336000D02*X55350Y336750D01*
X53100Y336000D02*X54600D01*
X52350Y337500D02*X55350Y340500D01*
X57150Y341250D02*X57900Y342000D01*
X59400D01*
X60150Y341250D01*
Y336750D01*
X59400Y336000D02*X60150Y336750D01*
X57900Y336000D02*X59400D01*
X57150Y336750D02*X57900Y336000D01*
Y339000D02*X60150D01*
X61950Y342000D02*X64950D01*
X61950D02*Y339000D01*
X62700Y339750D01*
X64200D01*
X64950Y339000D01*
Y336750D01*
X64200Y336000D02*X64950Y336750D01*
X62700Y336000D02*X64200D01*
X61950Y336750D02*X62700Y336000D01*
X269300Y141700D02*X271700Y139300D01*
X269300D02*X271700Y141700D01*
X279300D02*X281700Y139300D01*
X279300D02*X281700Y141700D01*
X13800Y355950D02*X16200Y353550D01*
X13800D02*X16200Y355950D01*
X135000Y357000D02*Y356250D01*
X136500Y354750D01*
X138000Y356250D01*
Y357000D02*Y356250D01*
X136500Y354750D02*Y351000D01*
X139800Y354000D02*X142050D01*
X139800Y351000D02*X142800D01*
X139800Y357000D02*Y351000D01*
Y357000D02*X142800D01*
X147600D02*X148350Y356250D01*
X145350Y357000D02*X147600D01*
X144600Y356250D02*X145350Y357000D01*
X144600Y356250D02*Y354750D01*
X145350Y354000D01*
X147600D01*
X148350Y353250D01*
Y351750D01*
X147600Y351000D02*X148350Y351750D01*
X145350Y351000D02*X147600D01*
X144600Y351750D02*X145350Y351000D01*
X98000Y356250D02*X98750Y357000D01*
X101000D01*
X101750Y356250D01*
Y354750D01*
X98000Y351000D02*X101750Y354750D01*
X98000Y351000D02*X101750D01*
X45000Y351750D02*X45750Y351000D01*
X45000Y356250D02*Y351750D01*
Y356250D02*X45750Y357000D01*
X47250D01*
X48000Y356250D01*
Y351750D01*
X47250Y351000D02*X48000Y351750D01*
X45750Y351000D02*X47250D01*
X45000Y352500D02*X48000Y355500D01*
X49800Y351000D02*X50550D01*
X52350Y351750D02*X53100Y351000D01*
X52350Y356250D02*Y351750D01*
Y356250D02*X53100Y357000D01*
X54600D01*
X55350Y356250D01*
Y351750D01*
X54600Y351000D02*X55350Y351750D01*
X53100Y351000D02*X54600D01*
X52350Y352500D02*X55350Y355500D01*
X57150Y356250D02*X57900Y357000D01*
X59400D01*
X60150Y356250D01*
Y351750D01*
X59400Y351000D02*X60150Y351750D01*
X57900Y351000D02*X59400D01*
X57150Y351750D02*X57900Y351000D01*
Y354000D02*X60150D01*
X61950Y356250D02*X62700Y357000D01*
X64950D01*
X65700Y356250D01*
Y354750D01*
X61950Y351000D02*X65700Y354750D01*
X61950Y351000D02*X65700D01*
X202000Y36100D02*Y32900D01*
X200400Y34500D02*X203600D01*
X242000Y36100D02*Y32900D01*
X240400Y34500D02*X243600D01*
X15000Y371350D02*Y368150D01*
X13400Y369750D02*X16600D01*
X135000Y372000D02*Y371250D01*
X136500Y369750D01*
X138000Y371250D01*
Y372000D02*Y371250D01*
X136500Y369750D02*Y366000D01*
X139800Y369000D02*X142050D01*
X139800Y366000D02*X142800D01*
X139800Y372000D02*Y366000D01*
Y372000D02*X142800D01*
X147600D02*X148350Y371250D01*
X145350Y372000D02*X147600D01*
X144600Y371250D02*X145350Y372000D01*
X144600Y371250D02*Y369750D01*
X145350Y369000D01*
X147600D01*
X148350Y368250D01*
Y366750D01*
X147600Y366000D02*X148350Y366750D01*
X145350Y366000D02*X147600D01*
X144600Y366750D02*X145350Y366000D01*
X98000Y371250D02*X98750Y372000D01*
X101000D01*
X101750Y371250D01*
Y369750D01*
X98000Y366000D02*X101750Y369750D01*
X98000Y366000D02*X101750D01*
X45000Y366750D02*X45750Y366000D01*
X45000Y371250D02*Y366750D01*
Y371250D02*X45750Y372000D01*
X47250D01*
X48000Y371250D01*
Y366750D01*
X47250Y366000D02*X48000Y366750D01*
X45750Y366000D02*X47250D01*
X45000Y367500D02*X48000Y370500D01*
X49800Y366000D02*X50550D01*
X52350Y366750D02*X53100Y366000D01*
X52350Y371250D02*Y366750D01*
Y371250D02*X53100Y372000D01*
X54600D01*
X55350Y371250D01*
Y366750D01*
X54600Y366000D02*X55350Y366750D01*
X53100Y366000D02*X54600D01*
X52350Y367500D02*X55350Y370500D01*
X57150Y371250D02*X57900Y372000D01*
X59400D01*
X60150Y371250D01*
Y366750D01*
X59400Y366000D02*X60150Y366750D01*
X57900Y366000D02*X59400D01*
X57150Y366750D02*X57900Y366000D01*
Y369000D02*X60150D01*
X61950Y366750D02*X62700Y366000D01*
X61950Y371250D02*Y366750D01*
Y371250D02*X62700Y372000D01*
X64200D01*
X64950Y371250D01*
Y366750D01*
X64200Y366000D02*X64950Y366750D01*
X62700Y366000D02*X64200D01*
X61950Y367500D02*X64950Y370500D01*
X185000Y74000D02*Y72400D01*
Y74000D02*X186387Y74800D01*
X185000Y74000D02*X183613Y74800D01*
X194843Y74000D02*Y72400D01*
Y74000D02*X196229Y74800D01*
X194843Y74000D02*X193456Y74800D01*
X190000Y106000D02*Y104400D01*
Y106000D02*X191387Y106800D01*
X190000Y106000D02*X188613Y106800D01*
X199843Y106000D02*Y104400D01*
Y106000D02*X201229Y106800D01*
X199843Y106000D02*X198456Y106800D01*
X20000Y53000D02*Y51400D01*
Y53000D02*X21387Y53800D01*
X20000Y53000D02*X18613Y53800D01*
X30000Y53000D02*Y51400D01*
Y53000D02*X31387Y53800D01*
X30000Y53000D02*X28613Y53800D01*
X20000Y23000D02*Y21400D01*
Y23000D02*X21387Y23800D01*
X20000Y23000D02*X18613Y23800D01*
X30000Y23000D02*Y21400D01*
Y23000D02*X31387Y23800D01*
X30000Y23000D02*X28613Y23800D01*
X40000Y53000D02*Y51400D01*
Y53000D02*X41387Y53800D01*
X40000Y53000D02*X38613Y53800D01*
X50000Y53000D02*Y51400D01*
Y53000D02*X51387Y53800D01*
X50000Y53000D02*X48613Y53800D01*
X40000Y23000D02*Y21400D01*
Y23000D02*X41387Y23800D01*
X40000Y23000D02*X38613Y23800D01*
X50000Y23000D02*Y21400D01*
Y23000D02*X51387Y23800D01*
X50000Y23000D02*X48613Y23800D01*
X119500Y54500D02*Y52900D01*
Y54500D02*X120887Y55300D01*
X119500Y54500D02*X118113Y55300D01*
X119500Y44500D02*Y42900D01*
Y44500D02*X120887Y45300D01*
X119500Y44500D02*X118113Y45300D01*
X119500Y34500D02*Y32900D01*
Y34500D02*X120887Y35300D01*
X119500Y34500D02*X118113Y35300D01*
X119500Y24500D02*Y22900D01*
Y24500D02*X120887Y25300D01*
X119500Y24500D02*X118113Y25300D01*
X149500Y24500D02*Y22900D01*
Y24500D02*X150887Y25300D01*
X149500Y24500D02*X148113Y25300D01*
X149500Y34500D02*Y32900D01*
Y34500D02*X150887Y35300D01*
X149500Y34500D02*X148113Y35300D01*
X149500Y44500D02*Y42900D01*
Y44500D02*X150887Y45300D01*
X149500Y44500D02*X148113Y45300D01*
X149500Y54500D02*Y52900D01*
Y54500D02*X150887Y55300D01*
X149500Y54500D02*X148113Y55300D01*
X15000Y384750D02*Y383150D01*
Y384750D02*X16387Y385550D01*
X15000Y384750D02*X13613Y385550D01*
X135000Y387000D02*Y386250D01*
X136500Y384750D01*
X138000Y386250D01*
Y387000D02*Y386250D01*
X136500Y384750D02*Y381000D01*
X139800Y384000D02*X142050D01*
X139800Y381000D02*X142800D01*
X139800Y387000D02*Y381000D01*
Y387000D02*X142800D01*
X147600D02*X148350Y386250D01*
X145350Y387000D02*X147600D01*
X144600Y386250D02*X145350Y387000D01*
X144600Y386250D02*Y384750D01*
X145350Y384000D01*
X147600D01*
X148350Y383250D01*
Y381750D01*
X147600Y381000D02*X148350Y381750D01*
X145350Y381000D02*X147600D01*
X144600Y381750D02*X145350Y381000D01*
X98000Y386250D02*X98750Y387000D01*
X101000D01*
X101750Y386250D01*
Y384750D01*
X98000Y381000D02*X101750Y384750D01*
X98000Y381000D02*X101750D01*
X103550Y381750D02*X104300Y381000D01*
X103550Y386250D02*Y381750D01*
Y386250D02*X104300Y387000D01*
X105800D01*
X106550Y386250D01*
Y381750D01*
X105800Y381000D02*X106550Y381750D01*
X104300Y381000D02*X105800D01*
X103550Y382500D02*X106550Y385500D01*
X45000Y381750D02*X45750Y381000D01*
X45000Y386250D02*Y381750D01*
Y386250D02*X45750Y387000D01*
X47250D01*
X48000Y386250D01*
Y381750D01*
X47250Y381000D02*X48000Y381750D01*
X45750Y381000D02*X47250D01*
X45000Y382500D02*X48000Y385500D01*
X49800Y381000D02*X50550D01*
X52350Y381750D02*X53100Y381000D01*
X52350Y386250D02*Y381750D01*
Y386250D02*X53100Y387000D01*
X54600D01*
X55350Y386250D01*
Y381750D01*
X54600Y381000D02*X55350Y381750D01*
X53100Y381000D02*X54600D01*
X52350Y382500D02*X55350Y385500D01*
X57150Y386250D02*X57900Y387000D01*
X60150D01*
X60900Y386250D01*
Y384750D01*
X57150Y381000D02*X60900Y384750D01*
X57150Y381000D02*X60900D01*
X62700Y381750D02*X63450Y381000D01*
X62700Y383250D02*Y381750D01*
Y383250D02*X63450Y384000D01*
X64950D01*
X65700Y383250D01*
Y381750D01*
X64950Y381000D02*X65700Y381750D01*
X63450Y381000D02*X64950D01*
X62700Y384750D02*X63450Y384000D01*
X62700Y386250D02*Y384750D01*
Y386250D02*X63450Y387000D01*
X64950D01*
X65700Y386250D01*
Y384750D01*
X64950Y384000D02*X65700Y384750D01*
X3000Y402000D02*X3750Y401250D01*
X750Y402000D02*X3000D01*
X0Y401250D02*X750Y402000D01*
X0Y401250D02*Y399750D01*
X750Y399000D01*
X3000D01*
X3750Y398250D01*
Y396750D01*
X3000Y396000D02*X3750Y396750D01*
X750Y396000D02*X3000D01*
X0Y396750D02*X750Y396000D01*
X5550Y399000D02*Y396750D01*
X6300Y396000D01*
X8550Y399000D02*Y394500D01*
X7800Y393750D02*X8550Y394500D01*
X6300Y393750D02*X7800D01*
X5550Y394500D02*X6300Y393750D01*
Y396000D02*X7800D01*
X8550Y396750D01*
X11100Y398250D02*Y396000D01*
Y398250D02*X11850Y399000D01*
X12600D01*
X13350Y398250D01*
Y396000D01*
Y398250D02*X14100Y399000D01*
X14850D01*
X15600Y398250D01*
Y396000D01*
X10350Y399000D02*X11100Y398250D01*
X17400Y402000D02*Y396000D01*
Y396750D02*X18150Y396000D01*
X19650D01*
X20400Y396750D01*
Y398250D02*Y396750D01*
X19650Y399000D02*X20400Y398250D01*
X18150Y399000D02*X19650D01*
X17400Y398250D02*X18150Y399000D01*
X22200Y398250D02*Y396750D01*
Y398250D02*X22950Y399000D01*
X24450D01*
X25200Y398250D01*
Y396750D01*
X24450Y396000D02*X25200Y396750D01*
X22950Y396000D02*X24450D01*
X22200Y396750D02*X22950Y396000D01*
X27000Y402000D02*Y396750D01*
X27750Y396000D01*
X0Y392750D02*X29250D01*
X41750Y402000D02*Y396000D01*
X44000Y402000D02*X44750Y401250D01*
Y396750D01*
X44000Y396000D02*X44750Y396750D01*
X41000Y396000D02*X44000D01*
X41000Y402000D02*X44000D01*
X46550Y400500D02*Y399750D01*
Y398250D02*Y396000D01*
X50300Y399000D02*X51050Y398250D01*
X48800Y399000D02*X50300D01*
X48050Y398250D02*X48800Y399000D01*
X48050Y398250D02*Y396750D01*
X48800Y396000D01*
X51050Y399000D02*Y396750D01*
X51800Y396000D01*
X48800D02*X50300D01*
X51050Y396750D01*
X54350Y398250D02*Y396000D01*
Y398250D02*X55100Y399000D01*
X55850D01*
X56600Y398250D01*
Y396000D01*
Y398250D02*X57350Y399000D01*
X58100D01*
X58850Y398250D01*
Y396000D01*
X53600Y399000D02*X54350Y398250D01*
X60650Y396000D02*X61400D01*
X65900Y396750D02*X66650Y396000D01*
X65900Y401250D02*X66650Y402000D01*
X65900Y401250D02*Y396750D01*
X68450Y402000D02*X69950D01*
X69200D02*Y396000D01*
X68450D02*X69950D01*
X72500Y398250D02*Y396000D01*
Y398250D02*X73250Y399000D01*
X74000D01*
X74750Y398250D01*
Y396000D01*
X71750Y399000D02*X72500Y398250D01*
X77300Y399000D02*X79550D01*
X76550Y398250D02*X77300Y399000D01*
X76550Y398250D02*Y396750D01*
X77300Y396000D01*
X79550D01*
X81350Y402000D02*Y396000D01*
Y398250D02*X82100Y399000D01*
X83600D01*
X84350Y398250D01*
Y396000D01*
X86150Y402000D02*X86900Y401250D01*
Y396750D01*
X86150Y396000D02*X86900Y396750D01*
X41000Y392750D02*X88700D01*
X95750Y396000D02*X98000D01*
X95000Y396750D02*X95750Y396000D01*
X95000Y401250D02*Y396750D01*
Y401250D02*X95750Y402000D01*
X98000D01*
X99800Y398250D02*Y396750D01*
Y398250D02*X100550Y399000D01*
X102050D01*
X102800Y398250D01*
Y396750D01*
X102050Y396000D02*X102800Y396750D01*
X100550Y396000D02*X102050D01*
X99800Y396750D02*X100550Y396000D01*
X104600Y399000D02*Y396750D01*
X105350Y396000D01*
X106850D01*
X107600Y396750D01*
Y399000D02*Y396750D01*
X110150Y398250D02*Y396000D01*
Y398250D02*X110900Y399000D01*
X111650D01*
X112400Y398250D01*
Y396000D01*
X109400Y399000D02*X110150Y398250D01*
X114950Y402000D02*Y396750D01*
X115700Y396000D01*
X114200Y399750D02*X115700D01*
X95000Y392750D02*X117200D01*
X130750Y402000D02*Y396000D01*
X130000Y402000D02*X133000D01*
X133750Y401250D01*
Y399750D01*
X133000Y399000D02*X133750Y399750D01*
X130750Y399000D02*X133000D01*
X135550Y402000D02*Y396750D01*
X136300Y396000D01*
X140050Y399000D02*X140800Y398250D01*
X138550Y399000D02*X140050D01*
X137800Y398250D02*X138550Y399000D01*
X137800Y398250D02*Y396750D01*
X138550Y396000D01*
X140800Y399000D02*Y396750D01*
X141550Y396000D01*
X138550D02*X140050D01*
X140800Y396750D01*
X144100Y402000D02*Y396750D01*
X144850Y396000D01*
X143350Y399750D02*X144850D01*
X147100Y396000D02*X149350D01*
X146350Y396750D02*X147100Y396000D01*
X146350Y398250D02*Y396750D01*
Y398250D02*X147100Y399000D01*
X148600D01*
X149350Y398250D01*
X146350Y397500D02*X149350D01*
Y398250D01*
X154150Y402000D02*Y396000D01*
X153400D02*X154150Y396750D01*
X151900Y396000D02*X153400D01*
X151150Y396750D02*X151900Y396000D01*
X151150Y398250D02*Y396750D01*
Y398250D02*X151900Y399000D01*
X153400D01*
X154150Y398250D01*
X157450Y399000D02*Y398250D01*
Y396750D02*Y396000D01*
X155950Y401250D02*Y400500D01*
Y401250D02*X156700Y402000D01*
X158200D01*
X158950Y401250D01*
Y400500D01*
X157450Y399000D02*X158950Y400500D01*
X130000Y392750D02*X160750D01*
X0Y417000D02*X3000D01*
X1500D02*Y411000D01*
X4800Y417000D02*Y411000D01*
Y413250D02*X5550Y414000D01*
X7050D01*
X7800Y413250D01*
Y411000D01*
X10350D02*X12600D01*
X9600Y411750D02*X10350Y411000D01*
X9600Y413250D02*Y411750D01*
Y413250D02*X10350Y414000D01*
X11850D01*
X12600Y413250D01*
X9600Y412500D02*X12600D01*
Y413250D01*
X15150D02*Y411000D01*
Y413250D02*X15900Y414000D01*
X17400D01*
X14400D02*X15150Y413250D01*
X19950Y411000D02*X22200D01*
X19200Y411750D02*X19950Y411000D01*
X19200Y413250D02*Y411750D01*
Y413250D02*X19950Y414000D01*
X21450D01*
X22200Y413250D01*
X19200Y412500D02*X22200D01*
Y413250D01*
X28950Y414000D02*X29700Y413250D01*
X27450Y414000D02*X28950D01*
X26700Y413250D02*X27450Y414000D01*
X26700Y413250D02*Y411750D01*
X27450Y411000D01*
X29700Y414000D02*Y411750D01*
X30450Y411000D01*
X27450D02*X28950D01*
X29700Y411750D01*
X33000Y413250D02*Y411000D01*
Y413250D02*X33750Y414000D01*
X35250D01*
X32250D02*X33000Y413250D01*
X37800Y411000D02*X40050D01*
X37050Y411750D02*X37800Y411000D01*
X37050Y413250D02*Y411750D01*
Y413250D02*X37800Y414000D01*
X39300D01*
X40050Y413250D01*
X37050Y412500D02*X40050D01*
Y413250D01*
X45300Y411000D02*X46800D01*
X46050Y417000D02*Y411000D01*
X44550Y415500D02*X46050Y417000D01*
X48600Y416250D02*X49350Y417000D01*
X50850D01*
X51600Y416250D01*
Y411750D01*
X50850Y411000D02*X51600Y411750D01*
X49350Y411000D02*X50850D01*
X48600Y411750D02*X49350Y411000D01*
Y414000D02*X51600D01*
X59100Y417000D02*Y411000D01*
X58350D02*X59100Y411750D01*
X56850Y411000D02*X58350D01*
X56100Y411750D02*X56850Y411000D01*
X56100Y413250D02*Y411750D01*
Y413250D02*X56850Y414000D01*
X58350D01*
X59100Y413250D01*
X60900Y415500D02*Y414750D01*
Y413250D02*Y411000D01*
X63150Y416250D02*Y411000D01*
Y416250D02*X63900Y417000D01*
X64650D01*
X62400Y414000D02*X63900D01*
X66900Y416250D02*Y411000D01*
Y416250D02*X67650Y417000D01*
X68400D01*
X66150Y414000D02*X67650D01*
X70650Y411000D02*X72900D01*
X69900Y411750D02*X70650Y411000D01*
X69900Y413250D02*Y411750D01*
Y413250D02*X70650Y414000D01*
X72150D01*
X72900Y413250D01*
X69900Y412500D02*X72900D01*
Y413250D01*
X75450D02*Y411000D01*
Y413250D02*X76200Y414000D01*
X77700D01*
X74700D02*X75450Y413250D01*
X80250Y411000D02*X82500D01*
X79500Y411750D02*X80250Y411000D01*
X79500Y413250D02*Y411750D01*
Y413250D02*X80250Y414000D01*
X81750D01*
X82500Y413250D01*
X79500Y412500D02*X82500D01*
Y413250D01*
X85050D02*Y411000D01*
Y413250D02*X85800Y414000D01*
X86550D01*
X87300Y413250D01*
Y411000D01*
X84300Y414000D02*X85050Y413250D01*
X89850Y417000D02*Y411750D01*
X90600Y411000D01*
X89100Y414750D02*X90600D01*
X97800Y417000D02*Y411000D01*
X97050D02*X97800Y411750D01*
X95550Y411000D02*X97050D01*
X94800Y411750D02*X95550Y411000D01*
X94800Y413250D02*Y411750D01*
Y413250D02*X95550Y414000D01*
X97050D01*
X97800Y413250D01*
X100350D02*Y411000D01*
Y413250D02*X101100Y414000D01*
X102600D01*
X99600D02*X100350Y413250D01*
X104400Y415500D02*Y414750D01*
Y413250D02*Y411000D01*
X105900Y417000D02*Y411750D01*
X106650Y411000D01*
X108150Y417000D02*Y411750D01*
X108900Y411000D01*
X113850D02*X116100D01*
X116850Y411750D01*
X116100Y412500D02*X116850Y411750D01*
X113850Y412500D02*X116100D01*
X113100Y413250D02*X113850Y412500D01*
X113100Y413250D02*X113850Y414000D01*
X116100D01*
X116850Y413250D01*
X113100Y411750D02*X113850Y411000D01*
X118650Y415500D02*Y414750D01*
Y413250D02*Y411000D01*
X120150Y414000D02*X123150D01*
X120150Y411000D02*X123150Y414000D01*
X120150Y411000D02*X123150D01*
X125700D02*X127950D01*
X124950Y411750D02*X125700Y411000D01*
X124950Y413250D02*Y411750D01*
Y413250D02*X125700Y414000D01*
X127200D01*
X127950Y413250D01*
X124950Y412500D02*X127950D01*
Y413250D01*
X130500Y411000D02*X132750D01*
X133500Y411750D01*
X132750Y412500D02*X133500Y411750D01*
X130500Y412500D02*X132750D01*
X129750Y413250D02*X130500Y412500D01*
X129750Y413250D02*X130500Y414000D01*
X132750D01*
X133500Y413250D01*
X129750Y411750D02*X130500Y411000D01*
X138000Y414000D02*Y411750D01*
X138750Y411000D01*
X140250D01*
X141000Y411750D01*
Y414000D02*Y411750D01*
X143550Y411000D02*X145800D01*
X146550Y411750D01*
X145800Y412500D02*X146550Y411750D01*
X143550Y412500D02*X145800D01*
X142800Y413250D02*X143550Y412500D01*
X142800Y413250D02*X143550Y414000D01*
X145800D01*
X146550Y413250D01*
X142800Y411750D02*X143550Y411000D01*
X149100D02*X151350D01*
X148350Y411750D02*X149100Y411000D01*
X148350Y413250D02*Y411750D01*
Y413250D02*X149100Y414000D01*
X150600D01*
X151350Y413250D01*
X148350Y412500D02*X151350D01*
Y413250D01*
X156150Y417000D02*Y411000D01*
X155400D02*X156150Y411750D01*
X153900Y411000D02*X155400D01*
X153150Y411750D02*X153900Y411000D01*
X153150Y413250D02*Y411750D01*
Y413250D02*X153900Y414000D01*
X155400D01*
X156150Y413250D01*
X160650Y415500D02*Y414750D01*
Y413250D02*Y411000D01*
X162900Y413250D02*Y411000D01*
Y413250D02*X163650Y414000D01*
X164400D01*
X165150Y413250D01*
Y411000D01*
X162150Y414000D02*X162900Y413250D01*
X170400Y417000D02*Y411750D01*
X171150Y411000D01*
X169650Y414750D02*X171150D01*
X172650Y417000D02*Y411000D01*
Y413250D02*X173400Y414000D01*
X174900D01*
X175650Y413250D01*
Y411000D01*
X177450Y415500D02*Y414750D01*
Y413250D02*Y411000D01*
X179700D02*X181950D01*
X182700Y411750D01*
X181950Y412500D02*X182700Y411750D01*
X179700Y412500D02*X181950D01*
X178950Y413250D02*X179700Y412500D01*
X178950Y413250D02*X179700Y414000D01*
X181950D01*
X182700Y413250D01*
X178950Y411750D02*X179700Y411000D01*
X187200Y417000D02*Y411750D01*
X187950Y411000D01*
X191700Y414000D02*X192450Y413250D01*
X190200Y414000D02*X191700D01*
X189450Y413250D02*X190200Y414000D01*
X189450Y413250D02*Y411750D01*
X190200Y411000D01*
X192450Y414000D02*Y411750D01*
X193200Y411000D01*
X190200D02*X191700D01*
X192450Y411750D01*
X195000Y414000D02*Y411750D01*
X195750Y411000D01*
X198000Y414000D02*Y409500D01*
X197250Y408750D02*X198000Y409500D01*
X195750Y408750D02*X197250D01*
X195000Y409500D02*X195750Y408750D01*
Y411000D02*X197250D01*
X198000Y411750D01*
X199800Y413250D02*Y411750D01*
Y413250D02*X200550Y414000D01*
X202050D01*
X202800Y413250D01*
Y411750D01*
X202050Y411000D02*X202800Y411750D01*
X200550Y411000D02*X202050D01*
X199800Y411750D02*X200550Y411000D01*
X204600Y414000D02*Y411750D01*
X205350Y411000D01*
X206850D01*
X207600Y411750D01*
Y414000D02*Y411750D01*
X210150Y417000D02*Y411750D01*
X210900Y411000D01*
X209400Y414750D02*X210900D01*
X212400Y409500D02*X213900Y411000D01*
X218400Y411750D02*X219150Y411000D01*
X218400Y413250D02*Y411750D01*
Y413250D02*X219150Y414000D01*
X220650D01*
X221400Y413250D01*
Y411750D01*
X220650Y411000D02*X221400Y411750D01*
X219150Y411000D02*X220650D01*
X218400Y414750D02*X219150Y414000D01*
X218400Y416250D02*Y414750D01*
Y416250D02*X219150Y417000D01*
X220650D01*
X221400Y416250D01*
Y414750D01*
X220650Y414000D02*X221400Y414750D01*
X223200Y411750D02*X223950Y411000D01*
X223200Y413250D02*Y411750D01*
Y413250D02*X223950Y414000D01*
X225450D01*
X226200Y413250D01*
Y411750D01*
X225450Y411000D02*X226200Y411750D01*
X223950Y411000D02*X225450D01*
X223200Y414750D02*X223950Y414000D01*
X223200Y416250D02*Y414750D01*
Y416250D02*X223950Y417000D01*
X225450D01*
X226200Y416250D01*
Y414750D01*
X225450Y414000D02*X226200Y414750D01*
X230700Y417000D02*Y411000D01*
Y413250D02*X231450Y414000D01*
X232950D01*
X233700Y413250D01*
Y411000D01*
X235500Y413250D02*Y411750D01*
Y413250D02*X236250Y414000D01*
X237750D01*
X238500Y413250D01*
Y411750D01*
X237750Y411000D02*X238500Y411750D01*
X236250Y411000D02*X237750D01*
X235500Y411750D02*X236250Y411000D01*
X240300Y417000D02*Y411750D01*
X241050Y411000D01*
X243300D02*X245550D01*
X242550Y411750D02*X243300Y411000D01*
X242550Y413250D02*Y411750D01*
Y413250D02*X243300Y414000D01*
X244800D01*
X245550Y413250D01*
X242550Y412500D02*X245550D01*
Y413250D01*
X248100Y411000D02*X250350D01*
X251100Y411750D01*
X250350Y412500D02*X251100Y411750D01*
X248100Y412500D02*X250350D01*
X247350Y413250D02*X248100Y412500D01*
X247350Y413250D02*X248100Y414000D01*
X250350D01*
X251100Y413250D01*
X247350Y411750D02*X248100Y411000D01*
X256350Y417000D02*Y411750D01*
X257100Y411000D01*
X255600Y414750D02*X257100D01*
X258600Y413250D02*Y411750D01*
Y413250D02*X259350Y414000D01*
X260850D01*
X261600Y413250D01*
Y411750D01*
X260850Y411000D02*X261600Y411750D01*
X259350Y411000D02*X260850D01*
X258600Y411750D02*X259350Y411000D01*
X264150Y417000D02*Y411750D01*
X264900Y411000D01*
X263400Y414750D02*X264900D01*
X268650Y414000D02*X269400Y413250D01*
X267150Y414000D02*X268650D01*
X266400Y413250D02*X267150Y414000D01*
X266400Y413250D02*Y411750D01*
X267150Y411000D01*
X269400Y414000D02*Y411750D01*
X270150Y411000D01*
X267150D02*X268650D01*
X269400Y411750D01*
X271950Y417000D02*Y411750D01*
X272700Y411000D01*
G54D278*X3000Y188500D02*X312500D01*
Y12500D01*
X3000D02*Y188500D01*
X305000Y5000D02*X10500D01*
X3000Y12500D02*G75*G03X10500Y5000I7500J0D01*G01*
X305000D02*G75*G03X312500Y12500I0J7500D01*G01*
G54D277*X121925Y-9500D02*X124925D01*
X125675Y-8750D01*
Y-7250D02*Y-8750D01*
X124925Y-6500D02*X125675Y-7250D01*
X122675Y-6500D02*X124925D01*
X122675Y-3500D02*Y-9500D01*
X121925Y-3500D02*X124925D01*
X125675Y-4250D01*
Y-5750D01*
X124925Y-6500D02*X125675Y-5750D01*
X127475Y-7250D02*Y-8750D01*
Y-7250D02*X128225Y-6500D01*
X129725D01*
X130475Y-7250D01*
Y-8750D01*
X129725Y-9500D02*X130475Y-8750D01*
X128225Y-9500D02*X129725D01*
X127475Y-8750D02*X128225Y-9500D01*
X134525Y-6500D02*X135275Y-7250D01*
X133025Y-6500D02*X134525D01*
X132275Y-7250D02*X133025Y-6500D01*
X132275Y-7250D02*Y-8750D01*
X133025Y-9500D01*
X135275Y-6500D02*Y-8750D01*
X136025Y-9500D01*
X133025D02*X134525D01*
X135275Y-8750D01*
X138575Y-7250D02*Y-9500D01*
Y-7250D02*X139325Y-6500D01*
X140825D01*
X137825D02*X138575Y-7250D01*
X145625Y-3500D02*Y-9500D01*
X144875D02*X145625Y-8750D01*
X143375Y-9500D02*X144875D01*
X142625Y-8750D02*X143375Y-9500D01*
X142625Y-7250D02*Y-8750D01*
Y-7250D02*X143375Y-6500D01*
X144875D01*
X145625Y-7250D01*
X150125D02*Y-8750D01*
Y-7250D02*X150875Y-6500D01*
X152375D01*
X153125Y-7250D01*
Y-8750D01*
X152375Y-9500D02*X153125Y-8750D01*
X150875Y-9500D02*X152375D01*
X150125Y-8750D02*X150875Y-9500D01*
X154925Y-6500D02*Y-8750D01*
X155675Y-9500D01*
X157175D01*
X157925Y-8750D01*
Y-6500D02*Y-8750D01*
X160475Y-3500D02*Y-8750D01*
X161225Y-9500D01*
X159725Y-5750D02*X161225D01*
X162725Y-3500D02*Y-8750D01*
X163475Y-9500D01*
X164975Y-5000D02*Y-5750D01*
Y-7250D02*Y-9500D01*
X167225Y-7250D02*Y-9500D01*
Y-7250D02*X167975Y-6500D01*
X168725D01*
X169475Y-7250D01*
Y-9500D01*
X166475Y-6500D02*X167225Y-7250D01*
X172025Y-9500D02*X174275D01*
X171275Y-8750D02*X172025Y-9500D01*
X171275Y-7250D02*Y-8750D01*
Y-7250D02*X172025Y-6500D01*
X173525D01*
X174275Y-7250D01*
X171275Y-8000D02*X174275D01*
Y-7250D01*
X178775Y-5000D02*Y-5750D01*
Y-7250D02*Y-9500D01*
X181025D02*X183275D01*
X184025Y-8750D01*
X183275Y-8000D02*X184025Y-8750D01*
X181025Y-8000D02*X183275D01*
X180275Y-7250D02*X181025Y-8000D01*
X180275Y-7250D02*X181025Y-6500D01*
X183275D01*
X184025Y-7250D01*
X180275Y-8750D02*X181025Y-9500D01*
X189275Y-3500D02*Y-8750D01*
X190025Y-9500D01*
X188525Y-5750D02*X190025D01*
X191525Y-3500D02*Y-9500D01*
Y-7250D02*X192275Y-6500D01*
X193775D01*
X194525Y-7250D01*
Y-9500D01*
X197075D02*X199325D01*
X196325Y-8750D02*X197075Y-9500D01*
X196325Y-7250D02*Y-8750D01*
Y-7250D02*X197075Y-6500D01*
X198575D01*
X199325Y-7250D01*
X196325Y-8000D02*X199325D01*
Y-7250D01*
X204575Y-6500D02*X206825D01*
X203825Y-7250D02*X204575Y-6500D01*
X203825Y-7250D02*Y-8750D01*
X204575Y-9500D01*
X206825D01*
X209375D02*X211625D01*
X208625Y-8750D02*X209375Y-9500D01*
X208625Y-7250D02*Y-8750D01*
Y-7250D02*X209375Y-6500D01*
X210875D01*
X211625Y-7250D01*
X208625Y-8000D02*X211625D01*
Y-7250D01*
X214175D02*Y-9500D01*
Y-7250D02*X214925Y-6500D01*
X215675D01*
X216425Y-7250D01*
Y-9500D01*
X213425Y-6500D02*X214175Y-7250D01*
X218975Y-3500D02*Y-8750D01*
X219725Y-9500D01*
X218225Y-5750D02*X219725D01*
X221975Y-9500D02*X224225D01*
X221225Y-8750D02*X221975Y-9500D01*
X221225Y-7250D02*Y-8750D01*
Y-7250D02*X221975Y-6500D01*
X223475D01*
X224225Y-7250D01*
X221225Y-8000D02*X224225D01*
Y-7250D01*
X226775D02*Y-9500D01*
Y-7250D02*X227525Y-6500D01*
X229025D01*
X226025D02*X226775Y-7250D01*
X230825Y-3500D02*Y-8750D01*
X231575Y-9500D01*
X233075Y-5000D02*Y-5750D01*
Y-7250D02*Y-9500D01*
X235325Y-7250D02*Y-9500D01*
Y-7250D02*X236075Y-6500D01*
X236825D01*
X237575Y-7250D01*
Y-9500D01*
X234575Y-6500D02*X235325Y-7250D01*
X240125Y-9500D02*X242375D01*
X239375Y-8750D02*X240125Y-9500D01*
X239375Y-7250D02*Y-8750D01*
Y-7250D02*X240125Y-6500D01*
X241625D01*
X242375Y-7250D01*
X239375Y-8000D02*X242375D01*
Y-7250D01*
X246875D02*Y-8750D01*
Y-7250D02*X247625Y-6500D01*
X249125D01*
X249875Y-7250D01*
Y-8750D01*
X249125Y-9500D02*X249875Y-8750D01*
X247625Y-9500D02*X249125D01*
X246875Y-8750D02*X247625Y-9500D01*
X252425Y-4250D02*Y-9500D01*
Y-4250D02*X253175Y-3500D01*
X253925D01*
X251675Y-6500D02*X253175D01*
X258875Y-3500D02*Y-8750D01*
X259625Y-9500D01*
X258125Y-5750D02*X259625D01*
X261125Y-3500D02*Y-9500D01*
Y-7250D02*X261875Y-6500D01*
X263375D01*
X264125Y-7250D01*
Y-9500D01*
X265925Y-5000D02*Y-5750D01*
Y-7250D02*Y-9500D01*
X268175D02*X270425D01*
X271175Y-8750D01*
X270425Y-8000D02*X271175Y-8750D01*
X268175Y-8000D02*X270425D01*
X267425Y-7250D02*X268175Y-8000D01*
X267425Y-7250D02*X268175Y-6500D01*
X270425D01*
X271175Y-7250D01*
X267425Y-8750D02*X268175Y-9500D01*
X276425Y-7250D02*Y-11750D01*
X275675Y-6500D02*X276425Y-7250D01*
X277175Y-6500D01*
X278675D01*
X279425Y-7250D01*
Y-8750D01*
X278675Y-9500D02*X279425Y-8750D01*
X277175Y-9500D02*X278675D01*
X276425Y-8750D02*X277175Y-9500D01*
X283475Y-6500D02*X284225Y-7250D01*
X281975Y-6500D02*X283475D01*
X281225Y-7250D02*X281975Y-6500D01*
X281225Y-7250D02*Y-8750D01*
X281975Y-9500D01*
X284225Y-6500D02*Y-8750D01*
X284975Y-9500D01*
X281975D02*X283475D01*
X284225Y-8750D01*
X287525Y-3500D02*Y-8750D01*
X288275Y-9500D01*
X286775Y-5750D02*X288275D01*
X289775Y-3500D02*Y-9500D01*
Y-7250D02*X290525Y-6500D01*
X292025D01*
X292775Y-7250D01*
Y-9500D01*
X200750Y222000D02*Y216000D01*
X203000Y222000D02*X203750Y221250D01*
Y216750D01*
X203000Y216000D02*X203750Y216750D01*
X200000Y216000D02*X203000D01*
X200000Y222000D02*X203000D01*
X207800Y219000D02*X208550Y218250D01*
X206300Y219000D02*X207800D01*
X205550Y218250D02*X206300Y219000D01*
X205550Y218250D02*Y216750D01*
X206300Y216000D01*
X208550Y219000D02*Y216750D01*
X209300Y216000D01*
X206300D02*X207800D01*
X208550Y216750D01*
X211850Y222000D02*Y216750D01*
X212600Y216000D01*
X211100Y219750D02*X212600D01*
X214850Y216000D02*X217100D01*
X214100Y216750D02*X214850Y216000D01*
X214100Y218250D02*Y216750D01*
Y218250D02*X214850Y219000D01*
X216350D01*
X217100Y218250D01*
X214100Y217500D02*X217100D01*
Y218250D01*
X218900Y219750D02*X219650D01*
X218900Y218250D02*X219650D01*
X224150Y221250D02*X224900Y222000D01*
X227150D01*
X227900Y221250D01*
Y219750D01*
X224150Y216000D02*X227900Y219750D01*
X224150Y216000D02*X227900D01*
X229700Y216750D02*X230450Y216000D01*
X229700Y221250D02*Y216750D01*
Y221250D02*X230450Y222000D01*
X231950D01*
X232700Y221250D01*
Y216750D01*
X231950Y216000D02*X232700Y216750D01*
X230450Y216000D02*X231950D01*
X229700Y217500D02*X232700Y220500D01*
X234500Y221250D02*X235250Y222000D01*
X237500D01*
X238250Y221250D01*
Y219750D01*
X234500Y216000D02*X238250Y219750D01*
X234500Y216000D02*X238250D01*
X240050Y216750D02*X240800Y216000D01*
X240050Y221250D02*Y216750D01*
Y221250D02*X240800Y222000D01*
X242300D01*
X243050Y221250D01*
Y216750D01*
X242300Y216000D02*X243050Y216750D01*
X240800Y216000D02*X242300D01*
X240050Y217500D02*X243050Y220500D01*
X244850Y219000D02*X247850D01*
X249650Y216750D02*X250400Y216000D01*
X249650Y221250D02*Y216750D01*
Y221250D02*X250400Y222000D01*
X251900D01*
X252650Y221250D01*
Y216750D01*
X251900Y216000D02*X252650Y216750D01*
X250400Y216000D02*X251900D01*
X249650Y217500D02*X252650Y220500D01*
X254450Y216000D02*X258200Y219750D01*
Y222000D02*Y219750D01*
X254450Y222000D02*X258200D01*
X260000Y219000D02*X263000D01*
X264800Y216750D02*X265550Y216000D01*
X264800Y221250D02*Y216750D01*
Y221250D02*X265550Y222000D01*
X267050D01*
X267800Y221250D01*
Y216750D01*
X267050Y216000D02*X267800Y216750D01*
X265550Y216000D02*X267050D01*
X264800Y217500D02*X267800Y220500D01*
X270350Y216000D02*X271850D01*
X271100Y222000D02*Y216000D01*
X269600Y220500D02*X271100Y222000D01*
X276350Y221250D02*X277100Y222000D01*
X279350D01*
X280100Y221250D01*
Y219750D01*
X276350Y216000D02*X280100Y219750D01*
X276350Y216000D02*X280100D01*
X282650D02*X284150D01*
X283400Y222000D02*Y216000D01*
X281900Y220500D02*X283400Y222000D01*
X285950Y219750D02*X286700D01*
X285950Y218250D02*X286700D01*
X288500Y221250D02*X289250Y222000D01*
X291500D01*
X292250Y221250D01*
Y219750D01*
X288500Y216000D02*X292250Y219750D01*
X288500Y216000D02*X292250D01*
X294050Y221250D02*X294800Y222000D01*
X297050D01*
X297800Y221250D01*
Y219750D01*
X294050Y216000D02*X297800Y219750D01*
X294050Y216000D02*X297800D01*
X299600Y219750D02*X300350D01*
X299600Y218250D02*X300350D01*
X302150Y222000D02*X305150D01*
X302150D02*Y219000D01*
X302900Y219750D01*
X304400D01*
X305150Y219000D01*
Y216750D01*
X304400Y216000D02*X305150Y216750D01*
X302900Y216000D02*X304400D01*
X302150Y216750D02*X302900Y216000D01*
X306950Y216750D02*X307700Y216000D01*
X306950Y221250D02*Y216750D01*
Y221250D02*X307700Y222000D01*
X309200D01*
X309950Y221250D01*
Y216750D01*
X309200Y216000D02*X309950Y216750D01*
X307700Y216000D02*X309200D01*
X306950Y217500D02*X309950Y220500D01*
X314450Y222000D02*Y216750D01*
X315200Y216000D01*
X316700D01*
X317450Y216750D01*
Y222000D02*Y216750D01*
X319250Y222000D02*X322250D01*
X320750D02*Y216000D01*
X324800D02*X327050D01*
X324050Y216750D02*X324800Y216000D01*
X324050Y221250D02*Y216750D01*
Y221250D02*X324800Y222000D01*
X327050D01*
X200000Y236250D02*Y231000D01*
Y236250D02*X200750Y237000D01*
X203000D01*
X203750Y236250D01*
Y231000D01*
X200000Y234000D02*X203750D01*
X205550D02*Y231750D01*
X206300Y231000D01*
X207800D01*
X208550Y231750D01*
Y234000D02*Y231750D01*
X211100Y237000D02*Y231750D01*
X211850Y231000D01*
X210350Y234750D02*X211850D01*
X213350Y237000D02*Y231000D01*
Y233250D02*X214100Y234000D01*
X215600D01*
X216350Y233250D01*
Y231000D01*
X218150Y233250D02*Y231750D01*
Y233250D02*X218900Y234000D01*
X220400D01*
X221150Y233250D01*
Y231750D01*
X220400Y231000D02*X221150Y231750D01*
X218900Y231000D02*X220400D01*
X218150Y231750D02*X218900Y231000D01*
X223700Y233250D02*Y231000D01*
Y233250D02*X224450Y234000D01*
X225950D01*
X222950D02*X223700Y233250D01*
X227750Y234750D02*X228500D01*
X227750Y233250D02*X228500D01*
X200000Y252000D02*X203000D01*
X201500D02*Y246000D01*
X204800Y250500D02*Y249750D01*
Y248250D02*Y246000D01*
X207050Y252000D02*Y246750D01*
X207800Y246000D01*
X206300Y249750D02*X207800D01*
X209300Y252000D02*Y246750D01*
X210050Y246000D01*
X212300D02*X214550D01*
X211550Y246750D02*X212300Y246000D01*
X211550Y248250D02*Y246750D01*
Y248250D02*X212300Y249000D01*
X213800D01*
X214550Y248250D01*
X211550Y247500D02*X214550D01*
Y248250D01*
X216350Y249750D02*X217100D01*
X216350Y248250D02*X217100D01*
X221600Y246750D02*X222350Y246000D01*
X221600Y251250D02*X222350Y252000D01*
X221600Y251250D02*Y246750D01*
X224150Y249000D02*Y246750D01*
X224900Y246000D01*
X226400D01*
X227150Y246750D01*
Y249000D02*Y246750D01*
X229700Y248250D02*Y246000D01*
Y248250D02*X230450Y249000D01*
X231200D01*
X231950Y248250D01*
Y246000D01*
X228950Y249000D02*X229700Y248250D01*
X233750Y252000D02*Y246000D01*
Y248250D02*X236000Y246000D01*
X233750Y248250D02*X235250Y249750D01*
X238550Y248250D02*Y246000D01*
Y248250D02*X239300Y249000D01*
X240050D01*
X240800Y248250D01*
Y246000D01*
X237800Y249000D02*X238550Y248250D01*
X242600D02*Y246750D01*
Y248250D02*X243350Y249000D01*
X244850D01*
X245600Y248250D01*
Y246750D01*
X244850Y246000D02*X245600Y246750D01*
X243350Y246000D02*X244850D01*
X242600Y246750D02*X243350Y246000D01*
X247400Y249000D02*Y246750D01*
X248150Y246000D01*
X248900D01*
X249650Y246750D01*
Y249000D02*Y246750D01*
X250400Y246000D01*
X251150D01*
X251900Y246750D01*
Y249000D02*Y246750D01*
X254450Y248250D02*Y246000D01*
Y248250D02*X255200Y249000D01*
X255950D01*
X256700Y248250D01*
Y246000D01*
X253700Y249000D02*X254450Y248250D01*
X258500Y252000D02*X259250Y251250D01*
Y246750D01*
X258500Y246000D02*X259250Y246750D01*
X263750Y249000D02*X266750D01*
X271250Y252000D02*Y246000D01*
Y252000D02*X274250D01*
X271250Y249000D02*X273500D01*
X278300D02*X279050Y248250D01*
X276800Y249000D02*X278300D01*
X276050Y248250D02*X276800Y249000D01*
X276050Y248250D02*Y246750D01*
X276800Y246000D01*
X279050Y249000D02*Y246750D01*
X279800Y246000D01*
X276800D02*X278300D01*
X279050Y246750D01*
X281600Y252000D02*Y246000D01*
Y246750D02*X282350Y246000D01*
X283850D01*
X284600Y246750D01*
Y248250D02*Y246750D01*
X283850Y249000D02*X284600Y248250D01*
X282350Y249000D02*X283850D01*
X281600Y248250D02*X282350Y249000D01*
X287150Y248250D02*Y246000D01*
Y248250D02*X287900Y249000D01*
X289400D01*
X286400D02*X287150Y248250D01*
X291200Y250500D02*Y249750D01*
Y248250D02*Y246000D01*
X293450Y249000D02*X295700D01*
X292700Y248250D02*X293450Y249000D01*
X292700Y248250D02*Y246750D01*
X293450Y246000D01*
X295700D01*
X299750Y249000D02*X300500Y248250D01*
X298250Y249000D02*X299750D01*
X297500Y248250D02*X298250Y249000D01*
X297500Y248250D02*Y246750D01*
X298250Y246000D01*
X300500Y249000D02*Y246750D01*
X301250Y246000D01*
X298250D02*X299750D01*
X300500Y246750D01*
X303800Y252000D02*Y246750D01*
X304550Y246000D01*
X303050Y249750D02*X304550D01*
X306050Y250500D02*Y249750D01*
Y248250D02*Y246000D01*
X307550Y248250D02*Y246750D01*
Y248250D02*X308300Y249000D01*
X309800D01*
X310550Y248250D01*
Y246750D01*
X309800Y246000D02*X310550Y246750D01*
X308300Y246000D02*X309800D01*
X307550Y246750D02*X308300Y246000D01*
X313100Y248250D02*Y246000D01*
Y248250D02*X313850Y249000D01*
X314600D01*
X315350Y248250D01*
Y246000D01*
X312350Y249000D02*X313100Y248250D01*
X320600Y252000D02*Y246000D01*
X322850Y252000D02*X323600Y251250D01*
Y246750D01*
X322850Y246000D02*X323600Y246750D01*
X319850Y246000D02*X322850D01*
X319850Y252000D02*X322850D01*
X326150Y248250D02*Y246000D01*
Y248250D02*X326900Y249000D01*
X328400D01*
X325400D02*X326150Y248250D01*
X332450Y249000D02*X333200Y248250D01*
X330950Y249000D02*X332450D01*
X330200Y248250D02*X330950Y249000D01*
X330200Y248250D02*Y246750D01*
X330950Y246000D01*
X333200Y249000D02*Y246750D01*
X333950Y246000D01*
X330950D02*X332450D01*
X333200Y246750D01*
X335750Y249000D02*Y246750D01*
X336500Y246000D01*
X337250D01*
X338000Y246750D01*
Y249000D02*Y246750D01*
X338750Y246000D01*
X339500D01*
X340250Y246750D01*
Y249000D02*Y246750D01*
X342050Y250500D02*Y249750D01*
Y248250D02*Y246000D01*
X344300Y248250D02*Y246000D01*
Y248250D02*X345050Y249000D01*
X345800D01*
X346550Y248250D01*
Y246000D01*
X343550Y249000D02*X344300Y248250D01*
X350600Y249000D02*X351350Y248250D01*
X349100Y249000D02*X350600D01*
X348350Y248250D02*X349100Y249000D01*
X348350Y248250D02*Y246750D01*
X349100Y246000D01*
X350600D01*
X351350Y246750D01*
X348350Y244500D02*X349100Y243750D01*
X350600D01*
X351350Y244500D01*
Y249000D02*Y244500D01*
M02*
