G04 start of page 2 for group -1 layer_idx 268435461 *
G04 Title: (unknown), <virtual group> *
G04 Creator: pcb-rnd 2.2.4 *
G04 CreationDate: 2020-09-30 02:20:24 UTC *
G04 For:  *
G04 Format: Gerber/RS-274X *
G04 PCB-Dimensions: 416500 193500 *
G04 PCB-Coordinate-Origin: lower left *
%MOIN*%
%FSLAX25Y25*%
%LNLOGICAL_VIRTUAL_FAB_NONE*%
%ADD247C,0.0100*%
%ADD246C,0.0060*%
%ADD245C,0.0080*%
G54D245*X90425Y170733D02*Y161133D01*
X85625Y165933D02*X95225D01*
X88825Y167533D02*X92025D01*
X88825D02*Y164333D01*
X92025D01*
Y167533D02*Y164333D01*
X87225Y169133D02*X93625D01*
X87225D02*Y162733D01*
X93625D01*
Y169133D02*Y162733D01*
X117000Y173883D02*Y164283D01*
X112200Y169083D02*X121800D01*
X115400Y170683D02*X118600D01*
X115400D02*Y167483D01*
X118600D01*
Y170683D02*Y167483D01*
X113800Y172283D02*X120200D01*
X113800D02*Y165883D01*
X120200D01*
Y172283D02*Y165883D01*
X143575Y170733D02*Y161133D01*
X138775Y165933D02*X148375D01*
X141975Y167533D02*X145175D01*
X141975D02*Y164333D01*
X145175D01*
Y167533D02*Y164333D01*
X140375Y169133D02*X146775D01*
X140375D02*Y162733D01*
X146775D01*
Y169133D02*Y162733D01*
X15000Y209550D02*Y199950D01*
X10200Y204750D02*X19800D01*
X13400Y206350D02*X16600D01*
X13400D02*Y203150D01*
X16600D01*
Y206350D02*Y203150D01*
X11800Y207950D02*X18200D01*
X11800D02*Y201550D01*
X18200D01*
Y207950D02*Y201550D01*
G54D246*X135000Y207000D02*Y206250D01*
X136500Y204750D01*
X138000Y206250D01*
Y207000D02*Y206250D01*
X136500Y204750D02*Y201000D01*
X139800Y204000D02*X142050D01*
X139800Y201000D02*X142800D01*
X139800Y207000D02*Y201000D01*
Y207000D02*X142800D01*
X147600D02*X148350Y206250D01*
X145350Y207000D02*X147600D01*
X144600Y206250D02*X145350Y207000D01*
X144600Y206250D02*Y204750D01*
X145350Y204000D01*
X147600D01*
X148350Y203250D01*
Y201750D01*
X147600Y201000D02*X148350Y201750D01*
X145350Y201000D02*X147600D01*
X144600Y201750D02*X145350Y201000D01*
X98000Y206250D02*X98750Y207000D01*
X100250D01*
X101000Y206250D01*
Y201750D01*
X100250Y201000D02*X101000Y201750D01*
X98750Y201000D02*X100250D01*
X98000Y201750D02*X98750Y201000D01*
Y204000D02*X101000D01*
X45000Y201750D02*X45750Y201000D01*
X45000Y206250D02*Y201750D01*
Y206250D02*X45750Y207000D01*
X47250D01*
X48000Y206250D01*
Y201750D01*
X47250Y201000D02*X48000Y201750D01*
X45750Y201000D02*X47250D01*
X45000Y202500D02*X48000Y205500D01*
X49800Y201000D02*X50550D01*
X52350Y201750D02*X53100Y201000D01*
X52350Y206250D02*Y201750D01*
Y206250D02*X53100Y207000D01*
X54600D01*
X55350Y206250D01*
Y201750D01*
X54600Y201000D02*X55350Y201750D01*
X53100Y201000D02*X54600D01*
X52350Y202500D02*X55350Y205500D01*
X57150Y201000D02*X60150Y204000D01*
Y206250D02*Y204000D01*
X59400Y207000D02*X60150Y206250D01*
X57900Y207000D02*X59400D01*
X57150Y206250D02*X57900Y207000D01*
X57150Y206250D02*Y204750D01*
X57900Y204000D01*
X60150D01*
X61950Y206250D02*X62700Y207000D01*
X64200D01*
X64950Y206250D01*
Y201750D01*
X64200Y201000D02*X64950Y201750D01*
X62700Y201000D02*X64200D01*
X61950Y201750D02*X62700Y201000D01*
Y204000D02*X64950D01*
X260500Y160500D02*Y155700D01*
Y160500D02*X264660Y162900D01*
X260500Y160500D02*X256340Y162900D01*
X258900Y160500D02*G75*G03X262100Y160500I1600J0D01*G01*
G75*G03X258900Y160500I-1600J0D01*G01*
X257300D02*G75*G03X263700Y160500I3200J0D01*G01*
G75*G03X257300Y160500I-3200J0D01*G01*
X300500D02*Y155700D01*
Y160500D02*X304660Y162900D01*
X300500Y160500D02*X296340Y162900D01*
X298900Y160500D02*G75*G03X302100Y160500I1600J0D01*G01*
G75*G03X298900Y160500I-1600J0D01*G01*
X297300D02*G75*G03X303700Y160500I3200J0D01*G01*
G75*G03X297300Y160500I-3200J0D01*G01*
X15000Y219750D02*Y214950D01*
Y219750D02*X19160Y222150D01*
X15000Y219750D02*X10840Y222150D01*
X13400Y219750D02*G75*G03X16600Y219750I1600J0D01*G01*
G75*G03X13400Y219750I-1600J0D01*G01*
X11800D02*G75*G03X18200Y219750I3200J0D01*G01*
G75*G03X11800Y219750I-3200J0D01*G01*
X135000Y222000D02*Y221250D01*
X136500Y219750D01*
X138000Y221250D01*
Y222000D02*Y221250D01*
X136500Y219750D02*Y216000D01*
X139800Y219000D02*X142050D01*
X139800Y216000D02*X142800D01*
X139800Y222000D02*Y216000D01*
Y222000D02*X142800D01*
X147600D02*X148350Y221250D01*
X145350Y222000D02*X147600D01*
X144600Y221250D02*X145350Y222000D01*
X144600Y221250D02*Y219750D01*
X145350Y219000D01*
X147600D01*
X148350Y218250D01*
Y216750D01*
X147600Y216000D02*X148350Y216750D01*
X145350Y216000D02*X147600D01*
X144600Y216750D02*X145350Y216000D01*
X98000Y221250D02*X98750Y222000D01*
X101000D01*
X101750Y221250D01*
Y219750D01*
X98000Y216000D02*X101750Y219750D01*
X98000Y216000D02*X101750D01*
X45000Y216750D02*X45750Y216000D01*
X45000Y221250D02*Y216750D01*
Y221250D02*X45750Y222000D01*
X47250D01*
X48000Y221250D01*
Y216750D01*
X47250Y216000D02*X48000Y216750D01*
X45750Y216000D02*X47250D01*
X45000Y217500D02*X48000Y220500D01*
X49800Y216000D02*X50550D01*
X52350Y216750D02*X53100Y216000D01*
X52350Y221250D02*Y216750D01*
Y221250D02*X53100Y222000D01*
X54600D01*
X55350Y221250D01*
Y216750D01*
X54600Y216000D02*X55350Y216750D01*
X53100Y216000D02*X54600D01*
X52350Y217500D02*X55350Y220500D01*
X57150Y216000D02*X60900Y219750D01*
Y222000D02*Y219750D01*
X57150Y222000D02*X60900D01*
X62700Y216000D02*X65700Y219000D01*
Y221250D02*Y219000D01*
X64950Y222000D02*X65700Y221250D01*
X63450Y222000D02*X64950D01*
X62700Y221250D02*X63450Y222000D01*
X62700Y221250D02*Y219750D01*
X63450Y219000D01*
X65700D01*
X11900Y132600D02*X15100D01*
X11900D02*Y129400D01*
X15100D01*
Y132600D02*Y129400D01*
X10300Y134200D02*X16700D01*
X10300D02*Y127800D01*
X16700D01*
Y134200D02*Y127800D01*
X11900Y117600D02*X15100D01*
X11900D02*Y114400D01*
X15100D01*
Y117600D02*Y114400D01*
X10300Y119200D02*X16700D01*
X10300D02*Y112800D01*
X16700D01*
Y119200D02*Y112800D01*
X30400Y117600D02*X33600D01*
X30400D02*Y114400D01*
X33600D01*
Y117600D02*Y114400D01*
X28800Y119200D02*X35200D01*
X28800D02*Y112800D01*
X35200D01*
Y119200D02*Y112800D01*
X30400Y132600D02*X33600D01*
X30400D02*Y129400D01*
X33600D01*
Y132600D02*Y129400D01*
X28800Y134200D02*X35200D01*
X28800D02*Y127800D01*
X35200D01*
Y134200D02*Y127800D01*
X48900Y132600D02*X52100D01*
X48900D02*Y129400D01*
X52100D01*
Y132600D02*Y129400D01*
X47300Y134200D02*X53700D01*
X47300D02*Y127800D01*
X53700D01*
Y134200D02*Y127800D01*
X48900Y117600D02*X52100D01*
X48900D02*Y114400D01*
X52100D01*
Y117600D02*Y114400D01*
X47300Y119200D02*X53700D01*
X47300D02*Y112800D01*
X53700D01*
Y119200D02*Y112800D01*
X13400Y236350D02*X16600D01*
X13400D02*Y233150D01*
X16600D01*
Y236350D02*Y233150D01*
X11800Y237950D02*X18200D01*
X11800D02*Y231550D01*
X18200D01*
Y237950D02*Y231550D01*
X135000Y237000D02*Y236250D01*
X136500Y234750D01*
X138000Y236250D01*
Y237000D02*Y236250D01*
X136500Y234750D02*Y231000D01*
X139800Y234000D02*X142050D01*
X139800Y231000D02*X142800D01*
X139800Y237000D02*Y231000D01*
Y237000D02*X142800D01*
X147600D02*X148350Y236250D01*
X145350Y237000D02*X147600D01*
X144600Y236250D02*X145350Y237000D01*
X144600Y236250D02*Y234750D01*
X145350Y234000D01*
X147600D01*
X148350Y233250D01*
Y231750D01*
X147600Y231000D02*X148350Y231750D01*
X145350Y231000D02*X147600D01*
X144600Y231750D02*X145350Y231000D01*
X100250Y237000D02*X101000Y236250D01*
X98750Y237000D02*X100250D01*
X98000Y236250D02*X98750Y237000D01*
X98000Y236250D02*Y231750D01*
X98750Y231000D01*
X100250Y234000D02*X101000Y233250D01*
X98000Y234000D02*X100250D01*
X98750Y231000D02*X100250D01*
X101000Y231750D01*
Y233250D02*Y231750D01*
X45000D02*X45750Y231000D01*
X45000Y236250D02*Y231750D01*
Y236250D02*X45750Y237000D01*
X47250D01*
X48000Y236250D01*
Y231750D01*
X47250Y231000D02*X48000Y231750D01*
X45750Y231000D02*X47250D01*
X45000Y232500D02*X48000Y235500D01*
X49800Y231000D02*X50550D01*
X52350Y231750D02*X53100Y231000D01*
X52350Y236250D02*Y231750D01*
Y236250D02*X53100Y237000D01*
X54600D01*
X55350Y236250D01*
Y231750D01*
X54600Y231000D02*X55350Y231750D01*
X53100Y231000D02*X54600D01*
X52350Y232500D02*X55350Y235500D01*
X57150Y231000D02*X60900Y234750D01*
Y237000D02*Y234750D01*
X57150Y237000D02*X60900D01*
X63450Y231000D02*X64950D01*
X64200Y237000D02*Y231000D01*
X62700Y235500D02*X64200Y237000D01*
X21200Y181000D02*G75*G03X22800Y181000I800J0D01*G01*
G75*G03X21200Y181000I-800J0D01*G01*
X19600D02*G75*G03X24400Y181000I2400J0D01*G01*
G75*G03X19600Y181000I-2400J0D01*G01*
X41200D02*G75*G03X42800Y181000I800J0D01*G01*
G75*G03X41200Y181000I-800J0D01*G01*
X39600D02*G75*G03X44400Y181000I2400J0D01*G01*
G75*G03X39600Y181000I-2400J0D01*G01*
X14200Y249750D02*G75*G03X15800Y249750I800J0D01*G01*
G75*G03X14200Y249750I-800J0D01*G01*
X12600D02*G75*G03X17400Y249750I2400J0D01*G01*
G75*G03X12600Y249750I-2400J0D01*G01*
X135000Y252000D02*Y251250D01*
X136500Y249750D01*
X138000Y251250D01*
Y252000D02*Y251250D01*
X136500Y249750D02*Y246000D01*
X139800Y249000D02*X142050D01*
X139800Y246000D02*X142800D01*
X139800Y252000D02*Y246000D01*
Y252000D02*X142800D01*
X147600D02*X148350Y251250D01*
X145350Y252000D02*X147600D01*
X144600Y251250D02*X145350Y252000D01*
X144600Y251250D02*Y249750D01*
X145350Y249000D01*
X147600D01*
X148350Y248250D01*
Y246750D01*
X147600Y246000D02*X148350Y246750D01*
X145350Y246000D02*X147600D01*
X144600Y246750D02*X145350Y246000D01*
X98000Y251250D02*X98750Y252000D01*
X101000D01*
X101750Y251250D01*
Y249750D01*
X98000Y246000D02*X101750Y249750D01*
X98000Y246000D02*X101750D01*
X45000Y246750D02*X45750Y246000D01*
X45000Y251250D02*Y246750D01*
Y251250D02*X45750Y252000D01*
X47250D01*
X48000Y251250D01*
Y246750D01*
X47250Y246000D02*X48000Y246750D01*
X45750Y246000D02*X47250D01*
X45000Y247500D02*X48000Y250500D01*
X49800Y246000D02*X50550D01*
X52350Y246750D02*X53100Y246000D01*
X52350Y251250D02*Y246750D01*
Y251250D02*X53100Y252000D01*
X54600D01*
X55350Y251250D01*
Y246750D01*
X54600Y246000D02*X55350Y246750D01*
X53100Y246000D02*X54600D01*
X52350Y247500D02*X55350Y250500D01*
X59400Y252000D02*X60150Y251250D01*
X57900Y252000D02*X59400D01*
X57150Y251250D02*X57900Y252000D01*
X57150Y251250D02*Y246750D01*
X57900Y246000D01*
X59400Y249000D02*X60150Y248250D01*
X57150Y249000D02*X59400D01*
X57900Y246000D02*X59400D01*
X60150Y246750D01*
Y248250D02*Y246750D01*
X61950Y252000D02*X64950D01*
X61950D02*Y249000D01*
X62700Y249750D01*
X64200D01*
X64950Y249000D01*
Y246750D01*
X64200Y246000D02*X64950Y246750D01*
X62700Y246000D02*X64200D01*
X61950Y246750D02*X62700Y246000D01*
X256100Y89400D02*X260900Y84600D01*
X256100D02*X260900Y89400D01*
X256900Y88600D02*X260100D01*
X256900D02*Y85400D01*
X260100D01*
Y88600D02*Y85400D01*
X256100Y56400D02*X260900Y51600D01*
X256100D02*X260900Y56400D01*
X256900Y55600D02*X260100D01*
X256900D02*Y52400D01*
X260100D01*
Y55600D02*Y52400D01*
X266100Y56400D02*X270900Y51600D01*
X266100D02*X270900Y56400D01*
X266900Y55600D02*X270100D01*
X266900D02*Y52400D01*
X270100D01*
Y55600D02*Y52400D01*
X276100Y56400D02*X280900Y51600D01*
X276100D02*X280900Y56400D01*
X276900Y55600D02*X280100D01*
X276900D02*Y52400D01*
X280100D01*
Y55600D02*Y52400D01*
X286100Y56400D02*X290900Y51600D01*
X286100D02*X290900Y56400D01*
X286900Y55600D02*X290100D01*
X286900D02*Y52400D01*
X290100D01*
Y55600D02*Y52400D01*
X296100Y56400D02*X300900Y51600D01*
X296100D02*X300900Y56400D01*
X296900Y55600D02*X300100D01*
X296900D02*Y52400D01*
X300100D01*
Y55600D02*Y52400D01*
X266100Y89400D02*X270900Y84600D01*
X266100D02*X270900Y89400D01*
X266900Y88600D02*X270100D01*
X266900D02*Y85400D01*
X270100D01*
Y88600D02*Y85400D01*
X276100Y89400D02*X280900Y84600D01*
X276100D02*X280900Y89400D01*
X276900Y88600D02*X280100D01*
X276900D02*Y85400D01*
X280100D01*
Y88600D02*Y85400D01*
X286100Y89400D02*X290900Y84600D01*
X286100D02*X290900Y89400D01*
X286900Y88600D02*X290100D01*
X286900D02*Y85400D01*
X290100D01*
Y88600D02*Y85400D01*
X296100Y89400D02*X300900Y84600D01*
X296100D02*X300900Y89400D01*
X296900Y88600D02*X300100D01*
X296900D02*Y85400D01*
X300100D01*
Y88600D02*Y85400D01*
X12600Y267150D02*X17400Y262350D01*
X12600D02*X17400Y267150D01*
X13400Y266350D02*X16600D01*
X13400D02*Y263150D01*
X16600D01*
Y266350D02*Y263150D01*
X135000Y267000D02*Y266250D01*
X136500Y264750D01*
X138000Y266250D01*
Y267000D02*Y266250D01*
X136500Y264750D02*Y261000D01*
X139800Y264000D02*X142050D01*
X139800Y261000D02*X142800D01*
X139800Y267000D02*Y261000D01*
Y267000D02*X142800D01*
X147600D02*X148350Y266250D01*
X145350Y267000D02*X147600D01*
X144600Y266250D02*X145350Y267000D01*
X144600Y266250D02*Y264750D01*
X145350Y264000D01*
X147600D01*
X148350Y263250D01*
Y261750D01*
X147600Y261000D02*X148350Y261750D01*
X145350Y261000D02*X147600D01*
X144600Y261750D02*X145350Y261000D01*
X98750D02*X100250D01*
X99500Y267000D02*Y261000D01*
X98000Y265500D02*X99500Y267000D01*
X102050Y261750D02*X102800Y261000D01*
X102050Y266250D02*Y261750D01*
Y266250D02*X102800Y267000D01*
X104300D01*
X105050Y266250D01*
Y261750D01*
X104300Y261000D02*X105050Y261750D01*
X102800Y261000D02*X104300D01*
X102050Y262500D02*X105050Y265500D01*
X45000Y261750D02*X45750Y261000D01*
X45000Y266250D02*Y261750D01*
Y266250D02*X45750Y267000D01*
X47250D01*
X48000Y266250D01*
Y261750D01*
X47250Y261000D02*X48000Y261750D01*
X45750Y261000D02*X47250D01*
X45000Y262500D02*X48000Y265500D01*
X49800Y261000D02*X50550D01*
X52350Y261750D02*X53100Y261000D01*
X52350Y266250D02*Y261750D01*
Y266250D02*X53100Y267000D01*
X54600D01*
X55350Y266250D01*
Y261750D01*
X54600Y261000D02*X55350Y261750D01*
X53100Y261000D02*X54600D01*
X52350Y262500D02*X55350Y265500D01*
X57150Y264000D02*X60150Y267000D01*
X57150Y264000D02*X60900D01*
X60150Y267000D02*Y261000D01*
X62700Y261750D02*X63450Y261000D01*
X62700Y266250D02*Y261750D01*
Y266250D02*X63450Y267000D01*
X64950D01*
X65700Y266250D01*
Y261750D01*
X64950Y261000D02*X65700Y261750D01*
X63450Y261000D02*X64950D01*
X62700Y262500D02*X65700Y265500D01*
X95500Y68200D02*Y61800D01*
X92300Y65000D02*X98700D01*
X93900Y66600D02*X97100D01*
X93900D02*Y63400D01*
X97100D01*
Y66600D02*Y63400D01*
X93100Y81700D02*Y75300D01*
X89900Y78500D02*X96300D01*
X91500Y80100D02*X94700D01*
X91500D02*Y76900D01*
X94700D01*
Y80100D02*Y76900D01*
X112500Y98700D02*Y92300D01*
X109300Y95500D02*X115700D01*
X110900Y97100D02*X114100D01*
X110900D02*Y93900D01*
X114100D01*
Y97100D02*Y93900D01*
X93000Y117700D02*Y111300D01*
X89800Y114500D02*X96200D01*
X91400Y116100D02*X94600D01*
X91400D02*Y112900D01*
X94600D01*
Y116100D02*Y112900D01*
X112700Y117700D02*Y111300D01*
X109500Y114500D02*X115900D01*
X111100Y116100D02*X114300D01*
X111100D02*Y112900D01*
X114300D01*
Y116100D02*Y112900D01*
X127043Y108200D02*Y101800D01*
X123843Y105000D02*X130243D01*
X125443Y106600D02*X128643D01*
X125443D02*Y103400D01*
X128643D01*
Y106600D02*Y103400D01*
X167043Y108200D02*Y101800D01*
X163843Y105000D02*X170243D01*
X165443Y106600D02*X168643D01*
X165443D02*Y103400D01*
X168643D01*
Y106600D02*Y103400D01*
X198000Y22700D02*Y16300D01*
X194800Y19500D02*X201200D01*
X196400Y21100D02*X199600D01*
X196400D02*Y17900D01*
X199600D01*
Y21100D02*Y17900D01*
X258000Y115200D02*Y108800D01*
X254800Y112000D02*X261200D01*
X256400Y113600D02*X259600D01*
X256400D02*Y110400D01*
X259600D01*
Y113600D02*Y110400D01*
X238000Y22700D02*Y16300D01*
X234800Y19500D02*X241200D01*
X236400Y21100D02*X239600D01*
X236400D02*Y17900D01*
X239600D01*
Y21100D02*Y17900D01*
X40000Y108200D02*Y101800D01*
X36800Y105000D02*X43200D01*
X38400Y106600D02*X41600D01*
X38400D02*Y103400D01*
X41600D01*
Y106600D02*Y103400D01*
X55500Y68200D02*Y61800D01*
X52300Y65000D02*X58700D01*
X53900Y66600D02*X57100D01*
X53900D02*Y63400D01*
X57100D01*
Y66600D02*Y63400D01*
X40000Y68200D02*Y61800D01*
X36800Y65000D02*X43200D01*
X38400Y66600D02*X41600D01*
X38400D02*Y63400D01*
X41600D01*
Y66600D02*Y63400D01*
X58800Y81700D02*Y75300D01*
X55600Y78500D02*X62000D01*
X57200Y80100D02*X60400D01*
X57200D02*Y76900D01*
X60400D01*
Y80100D02*Y76900D01*
X22000Y68200D02*Y61800D01*
X18800Y65000D02*X25200D01*
X20400Y66600D02*X23600D01*
X20400D02*Y63400D01*
X23600D01*
Y66600D02*Y63400D01*
X22000Y108200D02*Y101800D01*
X18800Y105000D02*X25200D01*
X20400Y106600D02*X23600D01*
X20400D02*Y103400D01*
X23600D01*
Y106600D02*Y103400D01*
X72500Y98700D02*Y92300D01*
X69300Y95500D02*X75700D01*
X70900Y97100D02*X74100D01*
X70900D02*Y93900D01*
X74100D01*
Y97100D02*Y93900D01*
X298000Y115200D02*Y108800D01*
X294800Y112000D02*X301200D01*
X296400Y113600D02*X299600D01*
X296400D02*Y110400D01*
X299600D01*
Y113600D02*Y110400D01*
X15000Y282950D02*Y276550D01*
X11800Y279750D02*X18200D01*
X13400Y281350D02*X16600D01*
X13400D02*Y278150D01*
X16600D01*
Y281350D02*Y278150D01*
X135000Y282000D02*Y281250D01*
X136500Y279750D01*
X138000Y281250D01*
Y282000D02*Y281250D01*
X136500Y279750D02*Y276000D01*
X139800Y279000D02*X142050D01*
X139800Y276000D02*X142800D01*
X139800Y282000D02*Y276000D01*
Y282000D02*X142800D01*
X147600D02*X148350Y281250D01*
X145350Y282000D02*X147600D01*
X144600Y281250D02*X145350Y282000D01*
X144600Y281250D02*Y279750D01*
X145350Y279000D01*
X147600D01*
X148350Y278250D01*
Y276750D01*
X147600Y276000D02*X148350Y276750D01*
X145350Y276000D02*X147600D01*
X144600Y276750D02*X145350Y276000D01*
X98750D02*X100250D01*
X99500Y282000D02*Y276000D01*
X98000Y280500D02*X99500Y282000D01*
X102050Y276750D02*X102800Y276000D01*
X102050Y278250D02*Y276750D01*
Y278250D02*X102800Y279000D01*
X104300D01*
X105050Y278250D01*
Y276750D01*
X104300Y276000D02*X105050Y276750D01*
X102800Y276000D02*X104300D01*
X102050Y279750D02*X102800Y279000D01*
X102050Y281250D02*Y279750D01*
Y281250D02*X102800Y282000D01*
X104300D01*
X105050Y281250D01*
Y279750D01*
X104300Y279000D02*X105050Y279750D01*
X45000Y276750D02*X45750Y276000D01*
X45000Y281250D02*Y276750D01*
Y281250D02*X45750Y282000D01*
X47250D01*
X48000Y281250D01*
Y276750D01*
X47250Y276000D02*X48000Y276750D01*
X45750Y276000D02*X47250D01*
X45000Y277500D02*X48000Y280500D01*
X49800Y276000D02*X50550D01*
X52350Y276750D02*X53100Y276000D01*
X52350Y281250D02*Y276750D01*
Y281250D02*X53100Y282000D01*
X54600D01*
X55350Y281250D01*
Y276750D01*
X54600Y276000D02*X55350Y276750D01*
X53100Y276000D02*X54600D01*
X52350Y277500D02*X55350Y280500D01*
X57150Y281250D02*X57900Y282000D01*
X59400D01*
X60150Y281250D01*
Y276750D01*
X59400Y276000D02*X60150Y276750D01*
X57900Y276000D02*X59400D01*
X57150Y276750D02*X57900Y276000D01*
Y279000D02*X60150D01*
X61950Y276000D02*X64950Y279000D01*
Y281250D02*Y279000D01*
X64200Y282000D02*X64950Y281250D01*
X62700Y282000D02*X64200D01*
X61950Y281250D02*X62700Y282000D01*
X61950Y281250D02*Y279750D01*
X62700Y279000D01*
X64950D01*
X168870Y164860D02*Y161660D01*
Y164860D02*X171643Y166460D01*
X168870Y164860D02*X166097Y166460D01*
X167270Y164860D02*G75*G03X170470Y164860I1600J0D01*G01*
G75*G03X167270Y164860I-1600J0D01*G01*
X227925D02*Y161660D01*
Y164860D02*X230698Y166460D01*
X227925Y164860D02*X225152Y166460D01*
X226325Y164860D02*G75*G03X229525Y164860I1600J0D01*G01*
G75*G03X226325Y164860I-1600J0D01*G01*
X15000Y294750D02*Y291550D01*
Y294750D02*X17773Y296350D01*
X15000Y294750D02*X12227Y296350D01*
X13400Y294750D02*G75*G03X16600Y294750I1600J0D01*G01*
G75*G03X13400Y294750I-1600J0D01*G01*
X135000Y297000D02*Y296250D01*
X136500Y294750D01*
X138000Y296250D01*
Y297000D02*Y296250D01*
X136500Y294750D02*Y291000D01*
X139800Y294000D02*X142050D01*
X139800Y291000D02*X142800D01*
X139800Y297000D02*Y291000D01*
Y297000D02*X142800D01*
X147600D02*X148350Y296250D01*
X145350Y297000D02*X147600D01*
X144600Y296250D02*X145350Y297000D01*
X144600Y296250D02*Y294750D01*
X145350Y294000D01*
X147600D01*
X148350Y293250D01*
Y291750D01*
X147600Y291000D02*X148350Y291750D01*
X145350Y291000D02*X147600D01*
X144600Y291750D02*X145350Y291000D01*
X98000Y296250D02*X98750Y297000D01*
X101000D01*
X101750Y296250D01*
Y294750D01*
X98000Y291000D02*X101750Y294750D01*
X98000Y291000D02*X101750D01*
X45000Y291750D02*X45750Y291000D01*
X45000Y296250D02*Y291750D01*
Y296250D02*X45750Y297000D01*
X47250D01*
X48000Y296250D01*
Y291750D01*
X47250Y291000D02*X48000Y291750D01*
X45750Y291000D02*X47250D01*
X45000Y292500D02*X48000Y295500D01*
X49800Y291000D02*X50550D01*
X52350Y291750D02*X53100Y291000D01*
X52350Y296250D02*Y291750D01*
Y296250D02*X53100Y297000D01*
X54600D01*
X55350Y296250D01*
Y291750D01*
X54600Y291000D02*X55350Y291750D01*
X53100Y291000D02*X54600D01*
X52350Y292500D02*X55350Y295500D01*
X57150Y296250D02*X57900Y297000D01*
X59400D01*
X60150Y296250D01*
Y291750D01*
X59400Y291000D02*X60150Y291750D01*
X57900Y291000D02*X59400D01*
X57150Y291750D02*X57900Y291000D01*
Y294000D02*X60150D01*
X61950Y291000D02*X65700Y294750D01*
Y297000D02*Y294750D01*
X61950Y297000D02*X65700D01*
X102014Y145880D02*X105214D01*
X102014D02*Y142680D01*
X105214D01*
Y145880D02*Y142680D01*
X110282Y155722D02*X113482D01*
X110282D02*Y152522D01*
X113482D01*
Y155722D02*Y152522D01*
X102014Y155722D02*X105214D01*
X102014D02*Y152522D01*
X105214D01*
Y155722D02*Y152522D01*
X128786Y155722D02*X131986D01*
X128786D02*Y152522D01*
X131986D01*
Y155722D02*Y152522D01*
X128786Y145880D02*X131986D01*
X128786D02*Y142680D01*
X131986D01*
Y145880D02*Y142680D01*
X13400Y311350D02*X16600D01*
X13400D02*Y308150D01*
X16600D01*
Y311350D02*Y308150D01*
X135000Y312000D02*Y311250D01*
X136500Y309750D01*
X138000Y311250D01*
Y312000D02*Y311250D01*
X136500Y309750D02*Y306000D01*
X139800Y309000D02*X142050D01*
X139800Y306000D02*X142800D01*
X139800Y312000D02*Y306000D01*
Y312000D02*X142800D01*
X147600D02*X148350Y311250D01*
X145350Y312000D02*X147600D01*
X144600Y311250D02*X145350Y312000D01*
X144600Y311250D02*Y309750D01*
X145350Y309000D01*
X147600D01*
X148350Y308250D01*
Y306750D01*
X147600Y306000D02*X148350Y306750D01*
X145350Y306000D02*X147600D01*
X144600Y306750D02*X145350Y306000D01*
X98000Y312000D02*X101000D01*
X98000D02*Y309000D01*
X98750Y309750D01*
X100250D01*
X101000Y309000D01*
Y306750D01*
X100250Y306000D02*X101000Y306750D01*
X98750Y306000D02*X100250D01*
X98000Y306750D02*X98750Y306000D01*
X45000Y306750D02*X45750Y306000D01*
X45000Y311250D02*Y306750D01*
Y311250D02*X45750Y312000D01*
X47250D01*
X48000Y311250D01*
Y306750D01*
X47250Y306000D02*X48000Y306750D01*
X45750Y306000D02*X47250D01*
X45000Y307500D02*X48000Y310500D01*
X49800Y306000D02*X50550D01*
X52350Y306750D02*X53100Y306000D01*
X52350Y311250D02*Y306750D01*
Y311250D02*X53100Y312000D01*
X54600D01*
X55350Y311250D01*
Y306750D01*
X54600Y306000D02*X55350Y306750D01*
X53100Y306000D02*X54600D01*
X52350Y307500D02*X55350Y310500D01*
X57150Y311250D02*X57900Y312000D01*
X59400D01*
X60150Y311250D01*
Y306750D01*
X59400Y306000D02*X60150Y306750D01*
X57900Y306000D02*X59400D01*
X57150Y306750D02*X57900Y306000D01*
Y309000D02*X60150D01*
X64200Y312000D02*X64950Y311250D01*
X62700Y312000D02*X64200D01*
X61950Y311250D02*X62700Y312000D01*
X61950Y311250D02*Y306750D01*
X62700Y306000D01*
X64200Y309000D02*X64950Y308250D01*
X61950Y309000D02*X64200D01*
X62700Y306000D02*X64200D01*
X64950Y306750D01*
Y308250D02*Y306750D01*
X169700Y56500D02*G75*G03X171300Y56500I800J0D01*G01*
G75*G03X169700Y56500I-800J0D01*G01*
X110700Y20500D02*G75*G03X112300Y20500I800J0D01*G01*
G75*G03X110700Y20500I-800J0D01*G01*
X178752Y81500D02*G75*G03X180352Y81500I800J0D01*G01*
G75*G03X178752Y81500I-800J0D01*G01*
X141700Y20500D02*G75*G03X143300Y20500I800J0D01*G01*
G75*G03X141700Y20500I-800J0D01*G01*
X236605Y93457D02*G75*G03X238205Y93457I800J0D01*G01*
G75*G03X236605Y93457I-800J0D01*G01*
X228286Y74957D02*G75*G03X229886Y74957I800J0D01*G01*
G75*G03X228286Y74957I-800J0D01*G01*
X267200Y13000D02*G75*G03X268800Y13000I800J0D01*G01*
G75*G03X267200Y13000I-800J0D01*G01*
X14200Y324750D02*G75*G03X15800Y324750I800J0D01*G01*
G75*G03X14200Y324750I-800J0D01*G01*
X135000Y327000D02*Y326250D01*
X136500Y324750D01*
X138000Y326250D01*
Y327000D02*Y326250D01*
X136500Y324750D02*Y321000D01*
X139800Y324000D02*X142050D01*
X139800Y321000D02*X142800D01*
X139800Y327000D02*Y321000D01*
Y327000D02*X142800D01*
X147600D02*X148350Y326250D01*
X145350Y327000D02*X147600D01*
X144600Y326250D02*X145350Y327000D01*
X144600Y326250D02*Y324750D01*
X145350Y324000D01*
X147600D01*
X148350Y323250D01*
Y321750D01*
X147600Y321000D02*X148350Y321750D01*
X145350Y321000D02*X147600D01*
X144600Y321750D02*X145350Y321000D01*
X98000D02*X101750Y324750D01*
Y327000D02*Y324750D01*
X98000Y327000D02*X101750D01*
X45000Y321750D02*X45750Y321000D01*
X45000Y326250D02*Y321750D01*
Y326250D02*X45750Y327000D01*
X47250D01*
X48000Y326250D01*
Y321750D01*
X47250Y321000D02*X48000Y321750D01*
X45750Y321000D02*X47250D01*
X45000Y322500D02*X48000Y325500D01*
X49800Y321000D02*X50550D01*
X52350Y321750D02*X53100Y321000D01*
X52350Y326250D02*Y321750D01*
Y326250D02*X53100Y327000D01*
X54600D01*
X55350Y326250D01*
Y321750D01*
X54600Y321000D02*X55350Y321750D01*
X53100Y321000D02*X54600D01*
X52350Y322500D02*X55350Y325500D01*
X57150Y326250D02*X57900Y327000D01*
X59400D01*
X60150Y326250D01*
Y321750D01*
X59400Y321000D02*X60150Y321750D01*
X57900Y321000D02*X59400D01*
X57150Y321750D02*X57900Y321000D01*
Y324000D02*X60150D01*
X61950Y327000D02*X64950D01*
X61950D02*Y324000D01*
X62700Y324750D01*
X64200D01*
X64950Y324000D01*
Y321750D01*
X64200Y321000D02*X64950Y321750D01*
X62700Y321000D02*X64200D01*
X61950Y321750D02*X62700Y321000D01*
X269300Y141700D02*X271700Y139300D01*
X269300D02*X271700Y141700D01*
X279300D02*X281700Y139300D01*
X279300D02*X281700Y141700D01*
X13800Y340950D02*X16200Y338550D01*
X13800D02*X16200Y340950D01*
X135000Y342000D02*Y341250D01*
X136500Y339750D01*
X138000Y341250D01*
Y342000D02*Y341250D01*
X136500Y339750D02*Y336000D01*
X139800Y339000D02*X142050D01*
X139800Y336000D02*X142800D01*
X139800Y342000D02*Y336000D01*
Y342000D02*X142800D01*
X147600D02*X148350Y341250D01*
X145350Y342000D02*X147600D01*
X144600Y341250D02*X145350Y342000D01*
X144600Y341250D02*Y339750D01*
X145350Y339000D01*
X147600D01*
X148350Y338250D01*
Y336750D01*
X147600Y336000D02*X148350Y336750D01*
X145350Y336000D02*X147600D01*
X144600Y336750D02*X145350Y336000D01*
X98000Y341250D02*X98750Y342000D01*
X101000D01*
X101750Y341250D01*
Y339750D01*
X98000Y336000D02*X101750Y339750D01*
X98000Y336000D02*X101750D01*
X45000Y336750D02*X45750Y336000D01*
X45000Y341250D02*Y336750D01*
Y341250D02*X45750Y342000D01*
X47250D01*
X48000Y341250D01*
Y336750D01*
X47250Y336000D02*X48000Y336750D01*
X45750Y336000D02*X47250D01*
X45000Y337500D02*X48000Y340500D01*
X49800Y336000D02*X50550D01*
X52350Y336750D02*X53100Y336000D01*
X52350Y341250D02*Y336750D01*
Y341250D02*X53100Y342000D01*
X54600D01*
X55350Y341250D01*
Y336750D01*
X54600Y336000D02*X55350Y336750D01*
X53100Y336000D02*X54600D01*
X52350Y337500D02*X55350Y340500D01*
X57150Y341250D02*X57900Y342000D01*
X59400D01*
X60150Y341250D01*
Y336750D01*
X59400Y336000D02*X60150Y336750D01*
X57900Y336000D02*X59400D01*
X57150Y336750D02*X57900Y336000D01*
Y339000D02*X60150D01*
X61950Y341250D02*X62700Y342000D01*
X64950D01*
X65700Y341250D01*
Y339750D01*
X61950Y336000D02*X65700Y339750D01*
X61950Y336000D02*X65700D01*
X137500Y77600D02*Y74400D01*
X135900Y76000D02*X139100D01*
X147343Y77600D02*Y74400D01*
X145743Y76000D02*X148943D01*
X228500Y47100D02*Y43900D01*
X226900Y45500D02*X230100D01*
X238343Y47100D02*Y43900D01*
X236743Y45500D02*X239943D01*
X30566Y23594D02*Y20394D01*
X28966Y21994D02*X32166D01*
X20723Y23594D02*Y20394D01*
X19123Y21994D02*X22323D01*
X160157Y132100D02*Y128900D01*
X158557Y130500D02*X161757D01*
X170000Y132100D02*Y128900D01*
X168400Y130500D02*X171600D01*
X199483Y132044D02*Y128844D01*
X197883Y130444D02*X201083D01*
X209325Y132044D02*Y128844D01*
X207725Y130444D02*X210925D01*
X15000Y356350D02*Y353150D01*
X13400Y354750D02*X16600D01*
X135000Y357000D02*Y356250D01*
X136500Y354750D01*
X138000Y356250D01*
Y357000D02*Y356250D01*
X136500Y354750D02*Y351000D01*
X139800Y354000D02*X142050D01*
X139800Y351000D02*X142800D01*
X139800Y357000D02*Y351000D01*
Y357000D02*X142800D01*
X147600D02*X148350Y356250D01*
X145350Y357000D02*X147600D01*
X144600Y356250D02*X145350Y357000D01*
X144600Y356250D02*Y354750D01*
X145350Y354000D01*
X147600D01*
X148350Y353250D01*
Y351750D01*
X147600Y351000D02*X148350Y351750D01*
X145350Y351000D02*X147600D01*
X144600Y351750D02*X145350Y351000D01*
X98750D02*X100250D01*
X99500Y357000D02*Y351000D01*
X98000Y355500D02*X99500Y357000D01*
X102050Y351750D02*X102800Y351000D01*
X102050Y356250D02*Y351750D01*
Y356250D02*X102800Y357000D01*
X104300D01*
X105050Y356250D01*
Y351750D01*
X104300Y351000D02*X105050Y351750D01*
X102800Y351000D02*X104300D01*
X102050Y352500D02*X105050Y355500D01*
X45000Y351750D02*X45750Y351000D01*
X45000Y356250D02*Y351750D01*
Y356250D02*X45750Y357000D01*
X47250D01*
X48000Y356250D01*
Y351750D01*
X47250Y351000D02*X48000Y351750D01*
X45750Y351000D02*X47250D01*
X45000Y352500D02*X48000Y355500D01*
X49800Y351000D02*X50550D01*
X52350Y351750D02*X53100Y351000D01*
X52350Y356250D02*Y351750D01*
Y356250D02*X53100Y357000D01*
X54600D01*
X55350Y356250D01*
Y351750D01*
X54600Y351000D02*X55350Y351750D01*
X53100Y351000D02*X54600D01*
X52350Y352500D02*X55350Y355500D01*
X57150Y356250D02*X57900Y357000D01*
X60150D01*
X60900Y356250D01*
Y354750D01*
X57150Y351000D02*X60900Y354750D01*
X57150Y351000D02*X60900D01*
X62700Y351750D02*X63450Y351000D01*
X62700Y353250D02*Y351750D01*
Y353250D02*X63450Y354000D01*
X64950D01*
X65700Y353250D01*
Y351750D01*
X64950Y351000D02*X65700Y351750D01*
X63450Y351000D02*X64950D01*
X62700Y354750D02*X63450Y354000D01*
X62700Y356250D02*Y354750D01*
Y356250D02*X63450Y357000D01*
X64950D01*
X65700Y356250D01*
Y354750D01*
X64950Y354000D02*X65700Y354750D01*
X119500Y82000D02*Y80400D01*
Y82000D02*X120887Y82800D01*
X119500Y82000D02*X118113Y82800D01*
X64500Y15500D02*Y13900D01*
Y15500D02*X65887Y16300D01*
X64500Y15500D02*X63113Y16300D01*
X15000Y369750D02*Y368150D01*
Y369750D02*X16387Y370550D01*
X15000Y369750D02*X13613Y370550D01*
X135000Y372000D02*Y371250D01*
X136500Y369750D01*
X138000Y371250D01*
Y372000D02*Y371250D01*
X136500Y369750D02*Y366000D01*
X139800Y369000D02*X142050D01*
X139800Y366000D02*X142800D01*
X139800Y372000D02*Y366000D01*
Y372000D02*X142800D01*
X147600D02*X148350Y371250D01*
X145350Y372000D02*X147600D01*
X144600Y371250D02*X145350Y372000D01*
X144600Y371250D02*Y369750D01*
X145350Y369000D01*
X147600D01*
X148350Y368250D01*
Y366750D01*
X147600Y366000D02*X148350Y366750D01*
X145350Y366000D02*X147600D01*
X144600Y366750D02*X145350Y366000D01*
X98000Y371250D02*X98750Y372000D01*
X101000D01*
X101750Y371250D01*
Y369750D01*
X98000Y366000D02*X101750Y369750D01*
X98000Y366000D02*X101750D01*
X45000Y366750D02*X45750Y366000D01*
X45000Y371250D02*Y366750D01*
Y371250D02*X45750Y372000D01*
X47250D01*
X48000Y371250D01*
Y366750D01*
X47250Y366000D02*X48000Y366750D01*
X45750Y366000D02*X47250D01*
X45000Y367500D02*X48000Y370500D01*
X49800Y366000D02*X50550D01*
X52350Y366750D02*X53100Y366000D01*
X52350Y371250D02*Y366750D01*
Y371250D02*X53100Y372000D01*
X54600D01*
X55350Y371250D01*
Y366750D01*
X54600Y366000D02*X55350Y366750D01*
X53100Y366000D02*X54600D01*
X52350Y367500D02*X55350Y370500D01*
X57150Y371250D02*X57900Y372000D01*
X60150D01*
X60900Y371250D01*
Y369750D01*
X57150Y366000D02*X60900Y369750D01*
X57150Y366000D02*X60900D01*
X62700Y366750D02*X63450Y366000D01*
X62700Y371250D02*Y366750D01*
Y371250D02*X63450Y372000D01*
X64950D01*
X65700Y371250D01*
Y366750D01*
X64950Y366000D02*X65700Y366750D01*
X63450Y366000D02*X64950D01*
X62700Y367500D02*X65700Y370500D01*
X3000Y387000D02*X3750Y386250D01*
X750Y387000D02*X3000D01*
X0Y386250D02*X750Y387000D01*
X0Y386250D02*Y384750D01*
X750Y384000D01*
X3000D01*
X3750Y383250D01*
Y381750D01*
X3000Y381000D02*X3750Y381750D01*
X750Y381000D02*X3000D01*
X0Y381750D02*X750Y381000D01*
X5550Y384000D02*Y381750D01*
X6300Y381000D01*
X8550Y384000D02*Y379500D01*
X7800Y378750D02*X8550Y379500D01*
X6300Y378750D02*X7800D01*
X5550Y379500D02*X6300Y378750D01*
Y381000D02*X7800D01*
X8550Y381750D01*
X11100Y383250D02*Y381000D01*
Y383250D02*X11850Y384000D01*
X12600D01*
X13350Y383250D01*
Y381000D01*
Y383250D02*X14100Y384000D01*
X14850D01*
X15600Y383250D01*
Y381000D01*
X10350Y384000D02*X11100Y383250D01*
X17400Y387000D02*Y381000D01*
Y381750D02*X18150Y381000D01*
X19650D01*
X20400Y381750D01*
Y383250D02*Y381750D01*
X19650Y384000D02*X20400Y383250D01*
X18150Y384000D02*X19650D01*
X17400Y383250D02*X18150Y384000D01*
X22200Y383250D02*Y381750D01*
Y383250D02*X22950Y384000D01*
X24450D01*
X25200Y383250D01*
Y381750D01*
X24450Y381000D02*X25200Y381750D01*
X22950Y381000D02*X24450D01*
X22200Y381750D02*X22950Y381000D01*
X27000Y387000D02*Y381750D01*
X27750Y381000D01*
X0Y377750D02*X29250D01*
X41750Y387000D02*Y381000D01*
X44000Y387000D02*X44750Y386250D01*
Y381750D01*
X44000Y381000D02*X44750Y381750D01*
X41000Y381000D02*X44000D01*
X41000Y387000D02*X44000D01*
X46550Y385500D02*Y384750D01*
Y383250D02*Y381000D01*
X50300Y384000D02*X51050Y383250D01*
X48800Y384000D02*X50300D01*
X48050Y383250D02*X48800Y384000D01*
X48050Y383250D02*Y381750D01*
X48800Y381000D01*
X51050Y384000D02*Y381750D01*
X51800Y381000D01*
X48800D02*X50300D01*
X51050Y381750D01*
X54350Y383250D02*Y381000D01*
Y383250D02*X55100Y384000D01*
X55850D01*
X56600Y383250D01*
Y381000D01*
Y383250D02*X57350Y384000D01*
X58100D01*
X58850Y383250D01*
Y381000D01*
X53600Y384000D02*X54350Y383250D01*
X60650Y381000D02*X61400D01*
X65900Y381750D02*X66650Y381000D01*
X65900Y386250D02*X66650Y387000D01*
X65900Y386250D02*Y381750D01*
X68450Y387000D02*X69950D01*
X69200D02*Y381000D01*
X68450D02*X69950D01*
X72500Y383250D02*Y381000D01*
Y383250D02*X73250Y384000D01*
X74000D01*
X74750Y383250D01*
Y381000D01*
X71750Y384000D02*X72500Y383250D01*
X77300Y384000D02*X79550D01*
X76550Y383250D02*X77300Y384000D01*
X76550Y383250D02*Y381750D01*
X77300Y381000D01*
X79550D01*
X81350Y387000D02*Y381000D01*
Y383250D02*X82100Y384000D01*
X83600D01*
X84350Y383250D01*
Y381000D01*
X86150Y387000D02*X86900Y386250D01*
Y381750D01*
X86150Y381000D02*X86900Y381750D01*
X41000Y377750D02*X88700D01*
X95750Y381000D02*X98000D01*
X95000Y381750D02*X95750Y381000D01*
X95000Y386250D02*Y381750D01*
Y386250D02*X95750Y387000D01*
X98000D01*
X99800Y383250D02*Y381750D01*
Y383250D02*X100550Y384000D01*
X102050D01*
X102800Y383250D01*
Y381750D01*
X102050Y381000D02*X102800Y381750D01*
X100550Y381000D02*X102050D01*
X99800Y381750D02*X100550Y381000D01*
X104600Y384000D02*Y381750D01*
X105350Y381000D01*
X106850D01*
X107600Y381750D01*
Y384000D02*Y381750D01*
X110150Y383250D02*Y381000D01*
Y383250D02*X110900Y384000D01*
X111650D01*
X112400Y383250D01*
Y381000D01*
X109400Y384000D02*X110150Y383250D01*
X114950Y387000D02*Y381750D01*
X115700Y381000D01*
X114200Y384750D02*X115700D01*
X95000Y377750D02*X117200D01*
X130750Y387000D02*Y381000D01*
X130000Y387000D02*X133000D01*
X133750Y386250D01*
Y384750D01*
X133000Y384000D02*X133750Y384750D01*
X130750Y384000D02*X133000D01*
X135550Y387000D02*Y381750D01*
X136300Y381000D01*
X140050Y384000D02*X140800Y383250D01*
X138550Y384000D02*X140050D01*
X137800Y383250D02*X138550Y384000D01*
X137800Y383250D02*Y381750D01*
X138550Y381000D01*
X140800Y384000D02*Y381750D01*
X141550Y381000D01*
X138550D02*X140050D01*
X140800Y381750D01*
X144100Y387000D02*Y381750D01*
X144850Y381000D01*
X143350Y384750D02*X144850D01*
X147100Y381000D02*X149350D01*
X146350Y381750D02*X147100Y381000D01*
X146350Y383250D02*Y381750D01*
Y383250D02*X147100Y384000D01*
X148600D01*
X149350Y383250D01*
X146350Y382500D02*X149350D01*
Y383250D01*
X154150Y387000D02*Y381000D01*
X153400D02*X154150Y381750D01*
X151900Y381000D02*X153400D01*
X151150Y381750D02*X151900Y381000D01*
X151150Y383250D02*Y381750D01*
Y383250D02*X151900Y384000D01*
X153400D01*
X154150Y383250D01*
X157450Y384000D02*Y383250D01*
Y381750D02*Y381000D01*
X155950Y386250D02*Y385500D01*
Y386250D02*X156700Y387000D01*
X158200D01*
X158950Y386250D01*
Y385500D01*
X157450Y384000D02*X158950Y385500D01*
X130000Y377750D02*X160750D01*
X0Y402000D02*X3000D01*
X1500D02*Y396000D01*
X4800Y402000D02*Y396000D01*
Y398250D02*X5550Y399000D01*
X7050D01*
X7800Y398250D01*
Y396000D01*
X10350D02*X12600D01*
X9600Y396750D02*X10350Y396000D01*
X9600Y398250D02*Y396750D01*
Y398250D02*X10350Y399000D01*
X11850D01*
X12600Y398250D01*
X9600Y397500D02*X12600D01*
Y398250D01*
X15150D02*Y396000D01*
Y398250D02*X15900Y399000D01*
X17400D01*
X14400D02*X15150Y398250D01*
X19950Y396000D02*X22200D01*
X19200Y396750D02*X19950Y396000D01*
X19200Y398250D02*Y396750D01*
Y398250D02*X19950Y399000D01*
X21450D01*
X22200Y398250D01*
X19200Y397500D02*X22200D01*
Y398250D01*
X28950Y399000D02*X29700Y398250D01*
X27450Y399000D02*X28950D01*
X26700Y398250D02*X27450Y399000D01*
X26700Y398250D02*Y396750D01*
X27450Y396000D01*
X29700Y399000D02*Y396750D01*
X30450Y396000D01*
X27450D02*X28950D01*
X29700Y396750D01*
X33000Y398250D02*Y396000D01*
Y398250D02*X33750Y399000D01*
X35250D01*
X32250D02*X33000Y398250D01*
X37800Y396000D02*X40050D01*
X37050Y396750D02*X37800Y396000D01*
X37050Y398250D02*Y396750D01*
Y398250D02*X37800Y399000D01*
X39300D01*
X40050Y398250D01*
X37050Y397500D02*X40050D01*
Y398250D01*
X45300Y396000D02*X46800D01*
X46050Y402000D02*Y396000D01*
X44550Y400500D02*X46050Y402000D01*
X48600Y401250D02*X49350Y402000D01*
X51600D01*
X52350Y401250D01*
Y399750D01*
X48600Y396000D02*X52350Y399750D01*
X48600Y396000D02*X52350D01*
X59850Y402000D02*Y396000D01*
X59100D02*X59850Y396750D01*
X57600Y396000D02*X59100D01*
X56850Y396750D02*X57600Y396000D01*
X56850Y398250D02*Y396750D01*
Y398250D02*X57600Y399000D01*
X59100D01*
X59850Y398250D01*
X61650Y400500D02*Y399750D01*
Y398250D02*Y396000D01*
X63900Y401250D02*Y396000D01*
Y401250D02*X64650Y402000D01*
X65400D01*
X63150Y399000D02*X64650D01*
X67650Y401250D02*Y396000D01*
Y401250D02*X68400Y402000D01*
X69150D01*
X66900Y399000D02*X68400D01*
X71400Y396000D02*X73650D01*
X70650Y396750D02*X71400Y396000D01*
X70650Y398250D02*Y396750D01*
Y398250D02*X71400Y399000D01*
X72900D01*
X73650Y398250D01*
X70650Y397500D02*X73650D01*
Y398250D01*
X76200D02*Y396000D01*
Y398250D02*X76950Y399000D01*
X78450D01*
X75450D02*X76200Y398250D01*
X81000Y396000D02*X83250D01*
X80250Y396750D02*X81000Y396000D01*
X80250Y398250D02*Y396750D01*
Y398250D02*X81000Y399000D01*
X82500D01*
X83250Y398250D01*
X80250Y397500D02*X83250D01*
Y398250D01*
X85800D02*Y396000D01*
Y398250D02*X86550Y399000D01*
X87300D01*
X88050Y398250D01*
Y396000D01*
X85050Y399000D02*X85800Y398250D01*
X90600Y402000D02*Y396750D01*
X91350Y396000D01*
X89850Y399750D02*X91350D01*
X98550Y402000D02*Y396000D01*
X97800D02*X98550Y396750D01*
X96300Y396000D02*X97800D01*
X95550Y396750D02*X96300Y396000D01*
X95550Y398250D02*Y396750D01*
Y398250D02*X96300Y399000D01*
X97800D01*
X98550Y398250D01*
X101100D02*Y396000D01*
Y398250D02*X101850Y399000D01*
X103350D01*
X100350D02*X101100Y398250D01*
X105150Y400500D02*Y399750D01*
Y398250D02*Y396000D01*
X106650Y402000D02*Y396750D01*
X107400Y396000D01*
X108900Y402000D02*Y396750D01*
X109650Y396000D01*
X114600D02*X116850D01*
X117600Y396750D01*
X116850Y397500D02*X117600Y396750D01*
X114600Y397500D02*X116850D01*
X113850Y398250D02*X114600Y397500D01*
X113850Y398250D02*X114600Y399000D01*
X116850D01*
X117600Y398250D01*
X113850Y396750D02*X114600Y396000D01*
X119400Y400500D02*Y399750D01*
Y398250D02*Y396000D01*
X120900Y399000D02*X123900D01*
X120900Y396000D02*X123900Y399000D01*
X120900Y396000D02*X123900D01*
X126450D02*X128700D01*
X125700Y396750D02*X126450Y396000D01*
X125700Y398250D02*Y396750D01*
Y398250D02*X126450Y399000D01*
X127950D01*
X128700Y398250D01*
X125700Y397500D02*X128700D01*
Y398250D01*
X131250Y396000D02*X133500D01*
X134250Y396750D01*
X133500Y397500D02*X134250Y396750D01*
X131250Y397500D02*X133500D01*
X130500Y398250D02*X131250Y397500D01*
X130500Y398250D02*X131250Y399000D01*
X133500D01*
X134250Y398250D01*
X130500Y396750D02*X131250Y396000D01*
X138750Y399000D02*Y396750D01*
X139500Y396000D01*
X141000D01*
X141750Y396750D01*
Y399000D02*Y396750D01*
X144300Y396000D02*X146550D01*
X147300Y396750D01*
X146550Y397500D02*X147300Y396750D01*
X144300Y397500D02*X146550D01*
X143550Y398250D02*X144300Y397500D01*
X143550Y398250D02*X144300Y399000D01*
X146550D01*
X147300Y398250D01*
X143550Y396750D02*X144300Y396000D01*
X149850D02*X152100D01*
X149100Y396750D02*X149850Y396000D01*
X149100Y398250D02*Y396750D01*
Y398250D02*X149850Y399000D01*
X151350D01*
X152100Y398250D01*
X149100Y397500D02*X152100D01*
Y398250D01*
X156900Y402000D02*Y396000D01*
X156150D02*X156900Y396750D01*
X154650Y396000D02*X156150D01*
X153900Y396750D02*X154650Y396000D01*
X153900Y398250D02*Y396750D01*
Y398250D02*X154650Y399000D01*
X156150D01*
X156900Y398250D01*
X161400Y400500D02*Y399750D01*
Y398250D02*Y396000D01*
X163650Y398250D02*Y396000D01*
Y398250D02*X164400Y399000D01*
X165150D01*
X165900Y398250D01*
Y396000D01*
X162900Y399000D02*X163650Y398250D01*
X171150Y402000D02*Y396750D01*
X171900Y396000D01*
X170400Y399750D02*X171900D01*
X173400Y402000D02*Y396000D01*
Y398250D02*X174150Y399000D01*
X175650D01*
X176400Y398250D01*
Y396000D01*
X178200Y400500D02*Y399750D01*
Y398250D02*Y396000D01*
X180450D02*X182700D01*
X183450Y396750D01*
X182700Y397500D02*X183450Y396750D01*
X180450Y397500D02*X182700D01*
X179700Y398250D02*X180450Y397500D01*
X179700Y398250D02*X180450Y399000D01*
X182700D01*
X183450Y398250D01*
X179700Y396750D02*X180450Y396000D01*
X187950Y402000D02*Y396750D01*
X188700Y396000D01*
X192450Y399000D02*X193200Y398250D01*
X190950Y399000D02*X192450D01*
X190200Y398250D02*X190950Y399000D01*
X190200Y398250D02*Y396750D01*
X190950Y396000D01*
X193200Y399000D02*Y396750D01*
X193950Y396000D01*
X190950D02*X192450D01*
X193200Y396750D01*
X195750Y399000D02*Y396750D01*
X196500Y396000D01*
X198750Y399000D02*Y394500D01*
X198000Y393750D02*X198750Y394500D01*
X196500Y393750D02*X198000D01*
X195750Y394500D02*X196500Y393750D01*
Y396000D02*X198000D01*
X198750Y396750D01*
X200550Y398250D02*Y396750D01*
Y398250D02*X201300Y399000D01*
X202800D01*
X203550Y398250D01*
Y396750D01*
X202800Y396000D02*X203550Y396750D01*
X201300Y396000D02*X202800D01*
X200550Y396750D02*X201300Y396000D01*
X205350Y399000D02*Y396750D01*
X206100Y396000D01*
X207600D01*
X208350Y396750D01*
Y399000D02*Y396750D01*
X210900Y402000D02*Y396750D01*
X211650Y396000D01*
X210150Y399750D02*X211650D01*
X213150Y394500D02*X214650Y396000D01*
X221400Y402000D02*X222150Y401250D01*
X219900Y402000D02*X221400D01*
X219150Y401250D02*X219900Y402000D01*
X219150Y401250D02*Y396750D01*
X219900Y396000D01*
X221400Y399000D02*X222150Y398250D01*
X219150Y399000D02*X221400D01*
X219900Y396000D02*X221400D01*
X222150Y396750D01*
Y398250D02*Y396750D01*
X223950Y396000D02*X226950Y399000D01*
Y401250D02*Y399000D01*
X226200Y402000D02*X226950Y401250D01*
X224700Y402000D02*X226200D01*
X223950Y401250D02*X224700Y402000D01*
X223950Y401250D02*Y399750D01*
X224700Y399000D01*
X226950D01*
X231450Y402000D02*Y396000D01*
Y398250D02*X232200Y399000D01*
X233700D01*
X234450Y398250D01*
Y396000D01*
X236250Y398250D02*Y396750D01*
Y398250D02*X237000Y399000D01*
X238500D01*
X239250Y398250D01*
Y396750D01*
X238500Y396000D02*X239250Y396750D01*
X237000Y396000D02*X238500D01*
X236250Y396750D02*X237000Y396000D01*
X241050Y402000D02*Y396750D01*
X241800Y396000D01*
X244050D02*X246300D01*
X243300Y396750D02*X244050Y396000D01*
X243300Y398250D02*Y396750D01*
Y398250D02*X244050Y399000D01*
X245550D01*
X246300Y398250D01*
X243300Y397500D02*X246300D01*
Y398250D01*
X248850Y396000D02*X251100D01*
X251850Y396750D01*
X251100Y397500D02*X251850Y396750D01*
X248850Y397500D02*X251100D01*
X248100Y398250D02*X248850Y397500D01*
X248100Y398250D02*X248850Y399000D01*
X251100D01*
X251850Y398250D01*
X248100Y396750D02*X248850Y396000D01*
X257100Y402000D02*Y396750D01*
X257850Y396000D01*
X256350Y399750D02*X257850D01*
X259350Y398250D02*Y396750D01*
Y398250D02*X260100Y399000D01*
X261600D01*
X262350Y398250D01*
Y396750D01*
X261600Y396000D02*X262350Y396750D01*
X260100Y396000D02*X261600D01*
X259350Y396750D02*X260100Y396000D01*
X264900Y402000D02*Y396750D01*
X265650Y396000D01*
X264150Y399750D02*X265650D01*
X269400Y399000D02*X270150Y398250D01*
X267900Y399000D02*X269400D01*
X267150Y398250D02*X267900Y399000D01*
X267150Y398250D02*Y396750D01*
X267900Y396000D01*
X270150Y399000D02*Y396750D01*
X270900Y396000D01*
X267900D02*X269400D01*
X270150Y396750D01*
X272700Y402000D02*Y396750D01*
X273450Y396000D01*
G54D247*X3000Y188500D02*X312500D01*
Y12500D01*
X3000D02*Y188500D01*
X305000Y5000D02*X10500D01*
X3000Y12500D02*G75*G03X10500Y5000I7500J0D01*G01*
X305000D02*G75*G03X312500Y12500I0J7500D01*G01*
G54D246*X121925Y-9500D02*X124925D01*
X125675Y-8750D01*
Y-7250D02*Y-8750D01*
X124925Y-6500D02*X125675Y-7250D01*
X122675Y-6500D02*X124925D01*
X122675Y-3500D02*Y-9500D01*
X121925Y-3500D02*X124925D01*
X125675Y-4250D01*
Y-5750D01*
X124925Y-6500D02*X125675Y-5750D01*
X127475Y-7250D02*Y-8750D01*
Y-7250D02*X128225Y-6500D01*
X129725D01*
X130475Y-7250D01*
Y-8750D01*
X129725Y-9500D02*X130475Y-8750D01*
X128225Y-9500D02*X129725D01*
X127475Y-8750D02*X128225Y-9500D01*
X134525Y-6500D02*X135275Y-7250D01*
X133025Y-6500D02*X134525D01*
X132275Y-7250D02*X133025Y-6500D01*
X132275Y-7250D02*Y-8750D01*
X133025Y-9500D01*
X135275Y-6500D02*Y-8750D01*
X136025Y-9500D01*
X133025D02*X134525D01*
X135275Y-8750D01*
X138575Y-7250D02*Y-9500D01*
Y-7250D02*X139325Y-6500D01*
X140825D01*
X137825D02*X138575Y-7250D01*
X145625Y-3500D02*Y-9500D01*
X144875D02*X145625Y-8750D01*
X143375Y-9500D02*X144875D01*
X142625Y-8750D02*X143375Y-9500D01*
X142625Y-7250D02*Y-8750D01*
Y-7250D02*X143375Y-6500D01*
X144875D01*
X145625Y-7250D01*
X150125D02*Y-8750D01*
Y-7250D02*X150875Y-6500D01*
X152375D01*
X153125Y-7250D01*
Y-8750D01*
X152375Y-9500D02*X153125Y-8750D01*
X150875Y-9500D02*X152375D01*
X150125Y-8750D02*X150875Y-9500D01*
X154925Y-6500D02*Y-8750D01*
X155675Y-9500D01*
X157175D01*
X157925Y-8750D01*
Y-6500D02*Y-8750D01*
X160475Y-3500D02*Y-8750D01*
X161225Y-9500D01*
X159725Y-5750D02*X161225D01*
X162725Y-3500D02*Y-8750D01*
X163475Y-9500D01*
X164975Y-5000D02*Y-5750D01*
Y-7250D02*Y-9500D01*
X167225Y-7250D02*Y-9500D01*
Y-7250D02*X167975Y-6500D01*
X168725D01*
X169475Y-7250D01*
Y-9500D01*
X166475Y-6500D02*X167225Y-7250D01*
X172025Y-9500D02*X174275D01*
X171275Y-8750D02*X172025Y-9500D01*
X171275Y-7250D02*Y-8750D01*
Y-7250D02*X172025Y-6500D01*
X173525D01*
X174275Y-7250D01*
X171275Y-8000D02*X174275D01*
Y-7250D01*
X178775Y-5000D02*Y-5750D01*
Y-7250D02*Y-9500D01*
X181025D02*X183275D01*
X184025Y-8750D01*
X183275Y-8000D02*X184025Y-8750D01*
X181025Y-8000D02*X183275D01*
X180275Y-7250D02*X181025Y-8000D01*
X180275Y-7250D02*X181025Y-6500D01*
X183275D01*
X184025Y-7250D01*
X180275Y-8750D02*X181025Y-9500D01*
X189275Y-3500D02*Y-8750D01*
X190025Y-9500D01*
X188525Y-5750D02*X190025D01*
X191525Y-3500D02*Y-9500D01*
Y-7250D02*X192275Y-6500D01*
X193775D01*
X194525Y-7250D01*
Y-9500D01*
X197075D02*X199325D01*
X196325Y-8750D02*X197075Y-9500D01*
X196325Y-7250D02*Y-8750D01*
Y-7250D02*X197075Y-6500D01*
X198575D01*
X199325Y-7250D01*
X196325Y-8000D02*X199325D01*
Y-7250D01*
X204575Y-6500D02*X206825D01*
X203825Y-7250D02*X204575Y-6500D01*
X203825Y-7250D02*Y-8750D01*
X204575Y-9500D01*
X206825D01*
X209375D02*X211625D01*
X208625Y-8750D02*X209375Y-9500D01*
X208625Y-7250D02*Y-8750D01*
Y-7250D02*X209375Y-6500D01*
X210875D01*
X211625Y-7250D01*
X208625Y-8000D02*X211625D01*
Y-7250D01*
X214175D02*Y-9500D01*
Y-7250D02*X214925Y-6500D01*
X215675D01*
X216425Y-7250D01*
Y-9500D01*
X213425Y-6500D02*X214175Y-7250D01*
X218975Y-3500D02*Y-8750D01*
X219725Y-9500D01*
X218225Y-5750D02*X219725D01*
X221975Y-9500D02*X224225D01*
X221225Y-8750D02*X221975Y-9500D01*
X221225Y-7250D02*Y-8750D01*
Y-7250D02*X221975Y-6500D01*
X223475D01*
X224225Y-7250D01*
X221225Y-8000D02*X224225D01*
Y-7250D01*
X226775D02*Y-9500D01*
Y-7250D02*X227525Y-6500D01*
X229025D01*
X226025D02*X226775Y-7250D01*
X230825Y-3500D02*Y-8750D01*
X231575Y-9500D01*
X233075Y-5000D02*Y-5750D01*
Y-7250D02*Y-9500D01*
X235325Y-7250D02*Y-9500D01*
Y-7250D02*X236075Y-6500D01*
X236825D01*
X237575Y-7250D01*
Y-9500D01*
X234575Y-6500D02*X235325Y-7250D01*
X240125Y-9500D02*X242375D01*
X239375Y-8750D02*X240125Y-9500D01*
X239375Y-7250D02*Y-8750D01*
Y-7250D02*X240125Y-6500D01*
X241625D01*
X242375Y-7250D01*
X239375Y-8000D02*X242375D01*
Y-7250D01*
X246875D02*Y-8750D01*
Y-7250D02*X247625Y-6500D01*
X249125D01*
X249875Y-7250D01*
Y-8750D01*
X249125Y-9500D02*X249875Y-8750D01*
X247625Y-9500D02*X249125D01*
X246875Y-8750D02*X247625Y-9500D01*
X252425Y-4250D02*Y-9500D01*
Y-4250D02*X253175Y-3500D01*
X253925D01*
X251675Y-6500D02*X253175D01*
X258875Y-3500D02*Y-8750D01*
X259625Y-9500D01*
X258125Y-5750D02*X259625D01*
X261125Y-3500D02*Y-9500D01*
Y-7250D02*X261875Y-6500D01*
X263375D01*
X264125Y-7250D01*
Y-9500D01*
X265925Y-5000D02*Y-5750D01*
Y-7250D02*Y-9500D01*
X268175D02*X270425D01*
X271175Y-8750D01*
X270425Y-8000D02*X271175Y-8750D01*
X268175Y-8000D02*X270425D01*
X267425Y-7250D02*X268175Y-8000D01*
X267425Y-7250D02*X268175Y-6500D01*
X270425D01*
X271175Y-7250D01*
X267425Y-8750D02*X268175Y-9500D01*
X276425Y-7250D02*Y-11750D01*
X275675Y-6500D02*X276425Y-7250D01*
X277175Y-6500D01*
X278675D01*
X279425Y-7250D01*
Y-8750D01*
X278675Y-9500D02*X279425Y-8750D01*
X277175Y-9500D02*X278675D01*
X276425Y-8750D02*X277175Y-9500D01*
X283475Y-6500D02*X284225Y-7250D01*
X281975Y-6500D02*X283475D01*
X281225Y-7250D02*X281975Y-6500D01*
X281225Y-7250D02*Y-8750D01*
X281975Y-9500D01*
X284225Y-6500D02*Y-8750D01*
X284975Y-9500D01*
X281975D02*X283475D01*
X284225Y-8750D01*
X287525Y-3500D02*Y-8750D01*
X288275Y-9500D01*
X286775Y-5750D02*X288275D01*
X289775Y-3500D02*Y-9500D01*
Y-7250D02*X290525Y-6500D01*
X292025D01*
X292775Y-7250D01*
Y-9500D01*
X200750Y222000D02*Y216000D01*
X203000Y222000D02*X203750Y221250D01*
Y216750D01*
X203000Y216000D02*X203750Y216750D01*
X200000Y216000D02*X203000D01*
X200000Y222000D02*X203000D01*
X207800Y219000D02*X208550Y218250D01*
X206300Y219000D02*X207800D01*
X205550Y218250D02*X206300Y219000D01*
X205550Y218250D02*Y216750D01*
X206300Y216000D01*
X208550Y219000D02*Y216750D01*
X209300Y216000D01*
X206300D02*X207800D01*
X208550Y216750D01*
X211850Y222000D02*Y216750D01*
X212600Y216000D01*
X211100Y219750D02*X212600D01*
X214850Y216000D02*X217100D01*
X214100Y216750D02*X214850Y216000D01*
X214100Y218250D02*Y216750D01*
Y218250D02*X214850Y219000D01*
X216350D01*
X217100Y218250D01*
X214100Y217500D02*X217100D01*
Y218250D01*
X218900Y219750D02*X219650D01*
X218900Y218250D02*X219650D01*
X224150Y221250D02*X224900Y222000D01*
X227150D01*
X227900Y221250D01*
Y219750D01*
X224150Y216000D02*X227900Y219750D01*
X224150Y216000D02*X227900D01*
X229700Y216750D02*X230450Y216000D01*
X229700Y221250D02*Y216750D01*
Y221250D02*X230450Y222000D01*
X231950D01*
X232700Y221250D01*
Y216750D01*
X231950Y216000D02*X232700Y216750D01*
X230450Y216000D02*X231950D01*
X229700Y217500D02*X232700Y220500D01*
X234500Y221250D02*X235250Y222000D01*
X237500D01*
X238250Y221250D01*
Y219750D01*
X234500Y216000D02*X238250Y219750D01*
X234500Y216000D02*X238250D01*
X240050Y216750D02*X240800Y216000D01*
X240050Y221250D02*Y216750D01*
Y221250D02*X240800Y222000D01*
X242300D01*
X243050Y221250D01*
Y216750D01*
X242300Y216000D02*X243050Y216750D01*
X240800Y216000D02*X242300D01*
X240050Y217500D02*X243050Y220500D01*
X244850Y219000D02*X247850D01*
X249650Y216750D02*X250400Y216000D01*
X249650Y221250D02*Y216750D01*
Y221250D02*X250400Y222000D01*
X251900D01*
X252650Y221250D01*
Y216750D01*
X251900Y216000D02*X252650Y216750D01*
X250400Y216000D02*X251900D01*
X249650Y217500D02*X252650Y220500D01*
X254450Y216000D02*X257450Y219000D01*
Y221250D02*Y219000D01*
X256700Y222000D02*X257450Y221250D01*
X255200Y222000D02*X256700D01*
X254450Y221250D02*X255200Y222000D01*
X254450Y221250D02*Y219750D01*
X255200Y219000D01*
X257450D01*
X259250D02*X262250D01*
X264050Y221250D02*X264800Y222000D01*
X266300D01*
X267050Y221250D01*
Y216750D01*
X266300Y216000D02*X267050Y216750D01*
X264800Y216000D02*X266300D01*
X264050Y216750D02*X264800Y216000D01*
Y219000D02*X267050D01*
X268850Y216750D02*X269600Y216000D01*
X268850Y221250D02*Y216750D01*
Y221250D02*X269600Y222000D01*
X271100D01*
X271850Y221250D01*
Y216750D01*
X271100Y216000D02*X271850Y216750D01*
X269600Y216000D02*X271100D01*
X268850Y217500D02*X271850Y220500D01*
X276350Y216750D02*X277100Y216000D01*
X276350Y221250D02*Y216750D01*
Y221250D02*X277100Y222000D01*
X278600D01*
X279350Y221250D01*
Y216750D01*
X278600Y216000D02*X279350Y216750D01*
X277100Y216000D02*X278600D01*
X276350Y217500D02*X279350Y220500D01*
X281150Y221250D02*X281900Y222000D01*
X284150D01*
X284900Y221250D01*
Y219750D01*
X281150Y216000D02*X284900Y219750D01*
X281150Y216000D02*X284900D01*
X286700Y219750D02*X287450D01*
X286700Y218250D02*X287450D01*
X289250Y221250D02*X290000Y222000D01*
X292250D01*
X293000Y221250D01*
Y219750D01*
X289250Y216000D02*X293000Y219750D01*
X289250Y216000D02*X293000D01*
X294800Y216750D02*X295550Y216000D01*
X294800Y221250D02*Y216750D01*
Y221250D02*X295550Y222000D01*
X297050D01*
X297800Y221250D01*
Y216750D01*
X297050Y216000D02*X297800Y216750D01*
X295550Y216000D02*X297050D01*
X294800Y217500D02*X297800Y220500D01*
X299600Y219750D02*X300350D01*
X299600Y218250D02*X300350D01*
X302150Y221250D02*X302900Y222000D01*
X305150D01*
X305900Y221250D01*
Y219750D01*
X302150Y216000D02*X305900Y219750D01*
X302150Y216000D02*X305900D01*
X307700Y219000D02*X310700Y222000D01*
X307700Y219000D02*X311450D01*
X310700Y222000D02*Y216000D01*
X315950Y222000D02*Y216750D01*
X316700Y216000D01*
X318200D01*
X318950Y216750D01*
Y222000D02*Y216750D01*
X320750Y222000D02*X323750D01*
X322250D02*Y216000D01*
X326300D02*X328550D01*
X325550Y216750D02*X326300Y216000D01*
X325550Y221250D02*Y216750D01*
Y221250D02*X326300Y222000D01*
X328550D01*
X200000Y236250D02*Y231000D01*
Y236250D02*X200750Y237000D01*
X203000D01*
X203750Y236250D01*
Y231000D01*
X200000Y234000D02*X203750D01*
X205550D02*Y231750D01*
X206300Y231000D01*
X207800D01*
X208550Y231750D01*
Y234000D02*Y231750D01*
X211100Y237000D02*Y231750D01*
X211850Y231000D01*
X210350Y234750D02*X211850D01*
X213350Y237000D02*Y231000D01*
Y233250D02*X214100Y234000D01*
X215600D01*
X216350Y233250D01*
Y231000D01*
X218150Y233250D02*Y231750D01*
Y233250D02*X218900Y234000D01*
X220400D01*
X221150Y233250D01*
Y231750D01*
X220400Y231000D02*X221150Y231750D01*
X218900Y231000D02*X220400D01*
X218150Y231750D02*X218900Y231000D01*
X223700Y233250D02*Y231000D01*
Y233250D02*X224450Y234000D01*
X225950D01*
X222950D02*X223700Y233250D01*
X227750Y234750D02*X228500D01*
X227750Y233250D02*X228500D01*
X200000Y252000D02*X203000D01*
X201500D02*Y246000D01*
X204800Y250500D02*Y249750D01*
Y248250D02*Y246000D01*
X207050Y252000D02*Y246750D01*
X207800Y246000D01*
X206300Y249750D02*X207800D01*
X209300Y252000D02*Y246750D01*
X210050Y246000D01*
X212300D02*X214550D01*
X211550Y246750D02*X212300Y246000D01*
X211550Y248250D02*Y246750D01*
Y248250D02*X212300Y249000D01*
X213800D01*
X214550Y248250D01*
X211550Y247500D02*X214550D01*
Y248250D01*
X216350Y249750D02*X217100D01*
X216350Y248250D02*X217100D01*
X221600Y246750D02*X222350Y246000D01*
X221600Y251250D02*X222350Y252000D01*
X221600Y251250D02*Y246750D01*
X224150Y249000D02*Y246750D01*
X224900Y246000D01*
X226400D01*
X227150Y246750D01*
Y249000D02*Y246750D01*
X229700Y248250D02*Y246000D01*
Y248250D02*X230450Y249000D01*
X231200D01*
X231950Y248250D01*
Y246000D01*
X228950Y249000D02*X229700Y248250D01*
X233750Y252000D02*Y246000D01*
Y248250D02*X236000Y246000D01*
X233750Y248250D02*X235250Y249750D01*
X238550Y248250D02*Y246000D01*
Y248250D02*X239300Y249000D01*
X240050D01*
X240800Y248250D01*
Y246000D01*
X237800Y249000D02*X238550Y248250D01*
X242600D02*Y246750D01*
Y248250D02*X243350Y249000D01*
X244850D01*
X245600Y248250D01*
Y246750D01*
X244850Y246000D02*X245600Y246750D01*
X243350Y246000D02*X244850D01*
X242600Y246750D02*X243350Y246000D01*
X247400Y249000D02*Y246750D01*
X248150Y246000D01*
X248900D01*
X249650Y246750D01*
Y249000D02*Y246750D01*
X250400Y246000D01*
X251150D01*
X251900Y246750D01*
Y249000D02*Y246750D01*
X254450Y248250D02*Y246000D01*
Y248250D02*X255200Y249000D01*
X255950D01*
X256700Y248250D01*
Y246000D01*
X253700Y249000D02*X254450Y248250D01*
X258500Y252000D02*X259250Y251250D01*
Y246750D01*
X258500Y246000D02*X259250Y246750D01*
X263750Y249000D02*X266750D01*
X271250Y252000D02*Y246000D01*
Y252000D02*X274250D01*
X271250Y249000D02*X273500D01*
X278300D02*X279050Y248250D01*
X276800Y249000D02*X278300D01*
X276050Y248250D02*X276800Y249000D01*
X276050Y248250D02*Y246750D01*
X276800Y246000D01*
X279050Y249000D02*Y246750D01*
X279800Y246000D01*
X276800D02*X278300D01*
X279050Y246750D01*
X281600Y252000D02*Y246000D01*
Y246750D02*X282350Y246000D01*
X283850D01*
X284600Y246750D01*
Y248250D02*Y246750D01*
X283850Y249000D02*X284600Y248250D01*
X282350Y249000D02*X283850D01*
X281600Y248250D02*X282350Y249000D01*
X287150Y248250D02*Y246000D01*
Y248250D02*X287900Y249000D01*
X289400D01*
X286400D02*X287150Y248250D01*
X291200Y250500D02*Y249750D01*
Y248250D02*Y246000D01*
X293450Y249000D02*X295700D01*
X292700Y248250D02*X293450Y249000D01*
X292700Y248250D02*Y246750D01*
X293450Y246000D01*
X295700D01*
X299750Y249000D02*X300500Y248250D01*
X298250Y249000D02*X299750D01*
X297500Y248250D02*X298250Y249000D01*
X297500Y248250D02*Y246750D01*
X298250Y246000D01*
X300500Y249000D02*Y246750D01*
X301250Y246000D01*
X298250D02*X299750D01*
X300500Y246750D01*
X303800Y252000D02*Y246750D01*
X304550Y246000D01*
X303050Y249750D02*X304550D01*
X306050Y250500D02*Y249750D01*
Y248250D02*Y246000D01*
X307550Y248250D02*Y246750D01*
Y248250D02*X308300Y249000D01*
X309800D01*
X310550Y248250D01*
Y246750D01*
X309800Y246000D02*X310550Y246750D01*
X308300Y246000D02*X309800D01*
X307550Y246750D02*X308300Y246000D01*
X313100Y248250D02*Y246000D01*
Y248250D02*X313850Y249000D01*
X314600D01*
X315350Y248250D01*
Y246000D01*
X312350Y249000D02*X313100Y248250D01*
X320600Y252000D02*Y246000D01*
X322850Y252000D02*X323600Y251250D01*
Y246750D01*
X322850Y246000D02*X323600Y246750D01*
X319850Y246000D02*X322850D01*
X319850Y252000D02*X322850D01*
X326150Y248250D02*Y246000D01*
Y248250D02*X326900Y249000D01*
X328400D01*
X325400D02*X326150Y248250D01*
X332450Y249000D02*X333200Y248250D01*
X330950Y249000D02*X332450D01*
X330200Y248250D02*X330950Y249000D01*
X330200Y248250D02*Y246750D01*
X330950Y246000D01*
X333200Y249000D02*Y246750D01*
X333950Y246000D01*
X330950D02*X332450D01*
X333200Y246750D01*
X335750Y249000D02*Y246750D01*
X336500Y246000D01*
X337250D01*
X338000Y246750D01*
Y249000D02*Y246750D01*
X338750Y246000D01*
X339500D01*
X340250Y246750D01*
Y249000D02*Y246750D01*
X342050Y250500D02*Y249750D01*
Y248250D02*Y246000D01*
X344300Y248250D02*Y246000D01*
Y248250D02*X345050Y249000D01*
X345800D01*
X346550Y248250D01*
Y246000D01*
X343550Y249000D02*X344300Y248250D01*
X350600Y249000D02*X351350Y248250D01*
X349100Y249000D02*X350600D01*
X348350Y248250D02*X349100Y249000D01*
X348350Y248250D02*Y246750D01*
X349100Y246000D01*
X350600D01*
X351350Y246750D01*
X348350Y244500D02*X349100Y243750D01*
X350600D01*
X351350Y244500D01*
Y249000D02*Y244500D01*
M02*
