M48
INCH
T20C0.028
T19C0.038
T18C0.032
T17C0.039
T16C0.042
T15C0.079
T14C0.036
T13C0.093
T12C0.071
T11C0.065
%
T20
G05
X011950Y005450
X011950Y004450
X011950Y003450
X011950Y002450
X014950Y002450
X014950Y003450
X014950Y004450
X014950Y005450
T18
X027050Y014050
X028050Y014050
T14
X010361Y014428
X011188Y015412
X010361Y015412
X013039Y015412
X013039Y014428
T19
X029750Y008350
X029750Y007350
X029750Y006350
X029750Y005350
X029750Y004350
X027850Y008350
X027850Y007350
X027850Y006350
X027850Y005350
X027850Y004350
T17
X015800Y012650
X019800Y012650
X023150Y012450
X029750Y010100
X024050Y002550
X028050Y002550
X024200Y003450
X025750Y010100
X023150Y008450
X002200Y010500
X004000Y010500
X002200Y006500
X003000Y005300
X004000Y006500
X004000Y005300
X004000Y002300
X003000Y002300
X002000Y005300
X002000Y002300
X009550Y010500
X005050Y006500
X005550Y007350
X008550Y007350
X009550Y009100
X005000Y005300
X006350Y004450
X009050Y006500
X010350Y004450
X009650Y003450
X009650Y002450
X005000Y002300
X017650Y005450
X017650Y004450
X013550Y010500
X013550Y009100
X017050Y010650
X019350Y011250
X017050Y009650
X021100Y011500
X021100Y010500
X020200Y003450
X019350Y007250
X021100Y008450
X021100Y007450
T16
X020550Y013850
X021550Y013850
X022550Y013850
T11
X002200Y018100
X004200Y018100
T12
X003200Y013100
X005050Y013100
X001350Y013100
X001350Y011600
X003200Y011600
X005050Y011600
T15
X026050Y016050
X030050Y016050
T13
X009042Y016593
X011700Y016908
X014358Y016593
M30
