G04 start of page 2 for group 16 layer_idx 1 *
G04 Title: (unknown), bottom_copper *
G04 Creator: pcb-rnd 2.2.4 *
G04 CreationDate: 2020-09-30 02:20:23 UTC *
G04 For:  *
G04 Format: Gerber/RS-274X *
G04 PCB-Dimensions: 416500 193500 *
G04 PCB-Coordinate-Origin: lower left *
%MOIN*%
%FSLAX25Y25*%
%LNBOTTOM_COPPER_NONE_16*%
%ADD58C,0.0320*%
%ADD57C,0.0374*%
%ADD56C,0.0790*%
%ADD55C,0.0358*%
%ADD54C,0.0925*%
%ADD53C,0.0710*%
%ADD52C,0.0650*%
%ADD51C,0.0276*%
%ADD50C,0.0200*%
%ADD49C,0.0350*%
%ADD48C,0.0394*%
%ADD47C,0.0984*%
%ADD46C,0.2000*%
%ADD45C,0.0591*%
%ADD44C,0.1575*%
%ADD43C,0.1050*%
%ADD42C,0.0689*%
%ADD41C,0.0360*%
%ADD40C,0.0600*%
%ADD39C,0.0800*%
%ADD38C,0.0400*%
%ADD37C,0.0250*%
%ADD36C,0.0090*%
%ADD35C,0.0100*%
%ADD34C,0.0001*%
G54D34*G36*
X303910Y150006D02*X305509Y150669D01*
X306986Y151573D01*
X308302Y152698D01*
X309427Y154014D01*
X309500Y154134D01*
Y35500D01*
X303122Y29122D01*
Y52092D01*
X303270Y52450D01*
X303454Y53215D01*
X303500Y54000D01*
X303454Y54785D01*
X303270Y55550D01*
X303122Y55908D01*
Y85092D01*
X303270Y85450D01*
X303454Y86215D01*
X303500Y87000D01*
X303454Y87785D01*
X303270Y88550D01*
X303122Y88908D01*
Y109158D01*
X303203Y109165D01*
X303394Y109212D01*
X303576Y109288D01*
X303743Y109392D01*
X303892Y109520D01*
X304019Y109670D01*
X304121Y109839D01*
X304192Y110022D01*
X304348Y110575D01*
X304449Y111140D01*
X304500Y111713D01*
Y112287D01*
X304449Y112860D01*
X304348Y113425D01*
X304198Y113980D01*
X304125Y114163D01*
X304022Y114332D01*
X303895Y114483D01*
X303745Y114611D01*
X303578Y114715D01*
X303396Y114792D01*
X303204Y114839D01*
X303122Y114846D01*
Y149817D01*
X303910Y150006D01*
G37*
G36*
X302969Y56277D02*X302558Y56948D01*
X302046Y57546D01*
X301448Y58058D01*
X300777Y58469D01*
X300050Y58770D01*
X299285Y58954D01*
X298500Y59015D01*
X298002Y58976D01*
Y82024D01*
X298500Y81985D01*
X299285Y82046D01*
X300050Y82230D01*
X300777Y82531D01*
X301448Y82942D01*
X302046Y83454D01*
X302558Y84052D01*
X302969Y84723D01*
X303122Y85092D01*
Y55908D01*
X302969Y56277D01*
G37*
G36*
X298002Y24002D02*Y49024D01*
X298500Y48985D01*
X299285Y49046D01*
X300050Y49230D01*
X300777Y49531D01*
X301448Y49942D01*
X302046Y50454D01*
X302558Y51052D01*
X302969Y51723D01*
X303122Y52092D01*
Y29122D01*
X298002Y24002D01*
G37*
G36*
X298774Y149602D02*X300500Y149466D01*
X302226Y149602D01*
X303122Y149817D01*
Y114846D01*
X303007Y114855D01*
X302810Y114841D01*
X302618Y114796D01*
X302436Y114721D01*
X302267Y114619D01*
X302116Y114491D01*
X301987Y114342D01*
X301883Y114174D01*
X301807Y113992D01*
X301760Y113801D01*
X301743Y113604D01*
X301758Y113407D01*
X301807Y113216D01*
X301903Y112876D01*
X301965Y112529D01*
X301996Y112177D01*
Y111823D01*
X301965Y111471D01*
X301903Y111124D01*
X301810Y110783D01*
X301762Y110592D01*
X301747Y110396D01*
X301764Y110200D01*
X301810Y110009D01*
X301887Y109828D01*
X301990Y109660D01*
X302119Y109511D01*
X302269Y109384D01*
X302437Y109282D01*
X302619Y109208D01*
X302811Y109163D01*
X303007Y109149D01*
X303122Y109158D01*
Y88908D01*
X302969Y89277D01*
X302558Y89948D01*
X302046Y90546D01*
X301448Y91058D01*
X300777Y91469D01*
X300050Y91770D01*
X299285Y91954D01*
X298500Y92015D01*
X298002Y91976D01*
Y105500D01*
X298287D01*
X298860Y105551D01*
X299425Y105652D01*
X299980Y105802D01*
X300163Y105875D01*
X300332Y105978D01*
X300483Y106105D01*
X300611Y106255D01*
X300715Y106422D01*
X300792Y106604D01*
X300839Y106796D01*
X300855Y106993D01*
X300841Y107190D01*
X300796Y107382D01*
X300721Y107564D01*
X300619Y107733D01*
X300491Y107884D01*
X300342Y108013D01*
X300174Y108117D01*
X299992Y108193D01*
X299801Y108240D01*
X299604Y108257D01*
X299407Y108242D01*
X299216Y108193D01*
X298876Y108097D01*
X298529Y108035D01*
X298177Y108004D01*
X298002D01*
Y115996D01*
X298177D01*
X298529Y115965D01*
X298876Y115903D01*
X299217Y115810D01*
X299408Y115762D01*
X299604Y115747D01*
X299800Y115764D01*
X299991Y115810D01*
X300172Y115887D01*
X300340Y115990D01*
X300489Y116119D01*
X300616Y116269D01*
X300718Y116437D01*
X300792Y116619D01*
X300837Y116811D01*
X300851Y117007D01*
X300835Y117203D01*
X300788Y117394D01*
X300712Y117576D01*
X300608Y117743D01*
X300480Y117892D01*
X300330Y118019D01*
X300161Y118121D01*
X299978Y118192D01*
X299425Y118348D01*
X298860Y118449D01*
X298287Y118500D01*
X298002D01*
Y149787D01*
X298774Y149602D01*
G37*
G36*
X297715Y58954D02*X296950Y58770D01*
X296223Y58469D01*
X295552Y58058D01*
X294954Y57546D01*
X294442Y56948D01*
X294031Y56277D01*
X293730Y55550D01*
X293546Y54785D01*
X293493Y54112D01*
X293454Y54785D01*
X293270Y55550D01*
X292969Y56277D01*
X292650Y56797D01*
Y84203D01*
X292969Y84723D01*
X293270Y85450D01*
X293454Y86215D01*
X293493Y86888D01*
X293546Y86215D01*
X293730Y85450D01*
X294031Y84723D01*
X294442Y84052D01*
X294954Y83454D01*
X295552Y82942D01*
X296223Y82531D01*
X296950Y82230D01*
X297715Y82046D01*
X298002Y82024D01*
Y58976D01*
X297715Y58954D01*
G37*
G36*
X292650Y18650D02*Y51203D01*
X292969Y51723D01*
X293270Y52450D01*
X293454Y53215D01*
X293493Y53888D01*
X293546Y53215D01*
X293730Y52450D01*
X294031Y51723D01*
X294442Y51052D01*
X294954Y50454D01*
X295552Y49942D01*
X296223Y49531D01*
X296950Y49230D01*
X297715Y49046D01*
X298002Y49024D01*
Y24002D01*
X292650Y18650D01*
G37*
G36*
X292698Y152698D02*X294014Y151573D01*
X295491Y150669D01*
X297090Y150006D01*
X298002Y149787D01*
Y118500D01*
X297713D01*
X297140Y118449D01*
X296575Y118348D01*
X296020Y118198D01*
X295837Y118125D01*
X295668Y118022D01*
X295517Y117895D01*
X295389Y117745D01*
X295285Y117578D01*
X295208Y117396D01*
X295161Y117204D01*
X295145Y117007D01*
X295159Y116810D01*
X295204Y116618D01*
X295279Y116436D01*
X295381Y116267D01*
X295509Y116116D01*
X295658Y115987D01*
X295826Y115883D01*
X296008Y115807D01*
X296199Y115760D01*
X296396Y115743D01*
X296593Y115758D01*
X296784Y115807D01*
X297124Y115903D01*
X297471Y115965D01*
X297823Y115996D01*
X298002D01*
Y108004D01*
X297823D01*
X297471Y108035D01*
X297124Y108097D01*
X296783Y108190D01*
X296592Y108238D01*
X296396Y108253D01*
X296200Y108236D01*
X296009Y108190D01*
X295828Y108113D01*
X295660Y108010D01*
X295511Y107881D01*
X295384Y107731D01*
X295282Y107563D01*
X295208Y107381D01*
X295163Y107189D01*
X295149Y106993D01*
X295165Y106797D01*
X295212Y106606D01*
X295288Y106424D01*
X295392Y106257D01*
X295520Y106108D01*
X295670Y105981D01*
X295839Y105879D01*
X296022Y105808D01*
X296575Y105652D01*
X297140Y105551D01*
X297713Y105500D01*
X298002D01*
Y91976D01*
X297715Y91954D01*
X296950Y91770D01*
X296223Y91469D01*
X295552Y91058D01*
X294954Y90546D01*
X294442Y89948D01*
X294031Y89277D01*
X293730Y88550D01*
X293546Y87785D01*
X293493Y87112D01*
X293454Y87785D01*
X293270Y88550D01*
X292969Y89277D01*
X292650Y89797D01*
Y109197D01*
X292796Y109161D01*
X292993Y109145D01*
X293190Y109159D01*
X293382Y109204D01*
X293564Y109279D01*
X293733Y109381D01*
X293884Y109509D01*
X294013Y109658D01*
X294117Y109826D01*
X294193Y110008D01*
X294240Y110199D01*
X294257Y110396D01*
X294242Y110593D01*
X294193Y110784D01*
X294097Y111124D01*
X294035Y111471D01*
X294004Y111823D01*
Y112177D01*
X294035Y112529D01*
X294097Y112876D01*
X294190Y113217D01*
X294238Y113408D01*
X294253Y113604D01*
X294236Y113800D01*
X294190Y113991D01*
X294113Y114172D01*
X294010Y114340D01*
X293881Y114489D01*
X293731Y114616D01*
X293563Y114718D01*
X293381Y114792D01*
X293189Y114837D01*
X292993Y114851D01*
X292797Y114835D01*
X292650Y114799D01*
Y152754D01*
X292698Y152698D01*
G37*
G36*
X309500Y184000D02*Y166866D01*
X309427Y166986D01*
X308302Y168302D01*
X306986Y169427D01*
X305509Y170331D01*
X303910Y170994D01*
X302226Y171398D01*
X300500Y171534D01*
X298774Y171398D01*
X297090Y170994D01*
X295491Y170331D01*
X294014Y169427D01*
X292698Y168302D01*
X292650Y168246D01*
Y184000D01*
X309500D01*
G37*
G36*
X292650D02*Y168246D01*
X291573Y166986D01*
X290669Y165509D01*
X290006Y163910D01*
X289602Y162226D01*
X289466Y160500D01*
X289602Y158774D01*
X290006Y157090D01*
X290669Y155491D01*
X291573Y154014D01*
X292650Y152754D01*
Y114799D01*
X292606Y114788D01*
X292424Y114712D01*
X292257Y114608D01*
X292108Y114480D01*
X291981Y114330D01*
X291879Y114161D01*
X291808Y113978D01*
X291652Y113425D01*
X291551Y112860D01*
X291500Y112287D01*
Y111713D01*
X291551Y111140D01*
X291652Y110575D01*
X291802Y110020D01*
X291875Y109837D01*
X291978Y109668D01*
X292105Y109517D01*
X292255Y109389D01*
X292422Y109285D01*
X292604Y109208D01*
X292650Y109197D01*
Y89797D01*
X292558Y89948D01*
X292046Y90546D01*
X291448Y91058D01*
X290777Y91469D01*
X290050Y91770D01*
X289285Y91954D01*
X288500Y92015D01*
X287715Y91954D01*
X286950Y91770D01*
X286223Y91469D01*
X285552Y91058D01*
X284954Y90546D01*
X284442Y89948D01*
X284031Y89277D01*
X283730Y88550D01*
X283546Y87785D01*
X283498Y87167D01*
X283483Y87469D01*
X283418Y87934D01*
X283308Y88391D01*
X283157Y88835D01*
X282964Y89264D01*
X282732Y89672D01*
X282685Y89736D01*
X282628Y89792D01*
X282564Y89837D01*
X282492Y89872D01*
X282417Y89896D01*
X282338Y89907D01*
X282259Y89906D01*
X282180Y89893D01*
X282105Y89867D01*
X282035Y89830D01*
X281971Y89783D01*
X281916Y89726D01*
X281870Y89661D01*
X281835Y89590D01*
X281812Y89514D01*
X281800Y89435D01*
X281801Y89356D01*
X281815Y89278D01*
X281840Y89203D01*
X281879Y89133D01*
X282068Y88809D01*
X282221Y88467D01*
X282342Y88112D01*
X282430Y87746D01*
X282482Y87375D01*
X282500Y87000D01*
X282482Y86625D01*
X282430Y86254D01*
X282342Y85888D01*
X282221Y85533D01*
X282068Y85191D01*
X281882Y84865D01*
X281844Y84796D01*
X281819Y84721D01*
X281806Y84644D01*
X281805Y84565D01*
X281816Y84487D01*
X281839Y84412D01*
X281874Y84341D01*
X281919Y84277D01*
X281974Y84221D01*
X282037Y84173D01*
X282107Y84137D01*
X282181Y84112D01*
X282259Y84098D01*
X282338Y84097D01*
X282416Y84108D01*
X282491Y84132D01*
X282561Y84166D01*
X282626Y84212D01*
X282682Y84267D01*
X282728Y84331D01*
X282964Y84736D01*
X283157Y85165D01*
X283308Y85609D01*
X283418Y86066D01*
X283483Y86531D01*
X283498Y86833D01*
X283546Y86215D01*
X283730Y85450D01*
X284031Y84723D01*
X284442Y84052D01*
X284954Y83454D01*
X285552Y82942D01*
X286223Y82531D01*
X286950Y82230D01*
X287715Y82046D01*
X288500Y81985D01*
X289285Y82046D01*
X290050Y82230D01*
X290777Y82531D01*
X291448Y82942D01*
X292046Y83454D01*
X292558Y84052D01*
X292650Y84203D01*
Y56797D01*
X292558Y56948D01*
X292046Y57546D01*
X291448Y58058D01*
X290777Y58469D01*
X290050Y58770D01*
X289285Y58954D01*
X288500Y59015D01*
X287715Y58954D01*
X286950Y58770D01*
X286223Y58469D01*
X285552Y58058D01*
X284954Y57546D01*
X284442Y56948D01*
X284031Y56277D01*
X283730Y55550D01*
X283546Y54785D01*
X283498Y54167D01*
X283483Y54469D01*
X283418Y54934D01*
X283308Y55391D01*
X283157Y55835D01*
X282964Y56264D01*
X282732Y56672D01*
X282685Y56736D01*
X282628Y56792D01*
X282564Y56837D01*
X282492Y56872D01*
X282417Y56896D01*
X282338Y56907D01*
X282259Y56906D01*
X282180Y56893D01*
X282105Y56867D01*
X282035Y56830D01*
X281971Y56783D01*
X281916Y56726D01*
X281870Y56661D01*
X281835Y56590D01*
X281812Y56514D01*
X281800Y56435D01*
X281801Y56356D01*
X281815Y56278D01*
X281840Y56203D01*
X281879Y56133D01*
X282068Y55809D01*
X282221Y55467D01*
X282342Y55112D01*
X282430Y54746D01*
X282482Y54375D01*
X282500Y54000D01*
X282482Y53625D01*
X282430Y53254D01*
X282342Y52888D01*
X282221Y52533D01*
X282068Y52191D01*
X281882Y51865D01*
X281844Y51796D01*
X281819Y51721D01*
X281806Y51644D01*
X281805Y51565D01*
X281816Y51487D01*
X281839Y51412D01*
X281874Y51341D01*
X281919Y51277D01*
X281974Y51221D01*
X282037Y51173D01*
X282107Y51137D01*
X282181Y51112D01*
X282259Y51098D01*
X282338Y51097D01*
X282416Y51108D01*
X282491Y51132D01*
X282561Y51166D01*
X282626Y51212D01*
X282682Y51267D01*
X282728Y51331D01*
X282964Y51736D01*
X283157Y52165D01*
X283308Y52609D01*
X283418Y53066D01*
X283483Y53531D01*
X283498Y53833D01*
X283546Y53215D01*
X283730Y52450D01*
X284031Y51723D01*
X284442Y51052D01*
X284954Y50454D01*
X285552Y49942D01*
X286223Y49531D01*
X286950Y49230D01*
X287715Y49046D01*
X288500Y48985D01*
X289285Y49046D01*
X290050Y49230D01*
X290777Y49531D01*
X291448Y49942D01*
X292046Y50454D01*
X292558Y51052D01*
X292650Y51203D01*
Y18650D01*
X282000Y8000D01*
X278502Y8006D01*
Y48995D01*
X278969Y49017D01*
X279434Y49082D01*
X279891Y49192D01*
X280335Y49343D01*
X280764Y49536D01*
X281172Y49768D01*
X281236Y49815D01*
X281292Y49872D01*
X281337Y49936D01*
X281372Y50008D01*
X281396Y50083D01*
X281407Y50162D01*
X281406Y50241D01*
X281393Y50320D01*
X281367Y50395D01*
X281330Y50465D01*
X281283Y50529D01*
X281226Y50584D01*
X281161Y50630D01*
X281090Y50665D01*
X281014Y50688D01*
X280935Y50700D01*
X280856Y50699D01*
X280778Y50685D01*
X280703Y50660D01*
X280633Y50621D01*
X280309Y50432D01*
X279967Y50279D01*
X279612Y50158D01*
X279246Y50070D01*
X278875Y50018D01*
X278502Y50000D01*
Y58000D01*
X278875Y57982D01*
X279246Y57930D01*
X279612Y57842D01*
X279967Y57721D01*
X280309Y57568D01*
X280635Y57382D01*
X280704Y57344D01*
X280779Y57319D01*
X280856Y57306D01*
X280935Y57305D01*
X281013Y57316D01*
X281088Y57339D01*
X281159Y57374D01*
X281223Y57419D01*
X281279Y57474D01*
X281327Y57537D01*
X281363Y57607D01*
X281388Y57681D01*
X281402Y57759D01*
X281403Y57838D01*
X281392Y57916D01*
X281368Y57991D01*
X281334Y58061D01*
X281288Y58126D01*
X281233Y58182D01*
X281169Y58228D01*
X280764Y58464D01*
X280335Y58657D01*
X279891Y58808D01*
X279434Y58918D01*
X278969Y58983D01*
X278502Y59005D01*
Y81995D01*
X278969Y82017D01*
X279434Y82082D01*
X279891Y82192D01*
X280335Y82343D01*
X280764Y82536D01*
X281172Y82768D01*
X281236Y82815D01*
X281292Y82872D01*
X281337Y82936D01*
X281372Y83008D01*
X281396Y83083D01*
X281407Y83162D01*
X281406Y83241D01*
X281393Y83320D01*
X281367Y83395D01*
X281330Y83465D01*
X281283Y83529D01*
X281226Y83584D01*
X281161Y83630D01*
X281090Y83665D01*
X281014Y83688D01*
X280935Y83700D01*
X280856Y83699D01*
X280778Y83685D01*
X280703Y83660D01*
X280633Y83621D01*
X280309Y83432D01*
X279967Y83279D01*
X279612Y83158D01*
X279246Y83070D01*
X278875Y83018D01*
X278502Y83000D01*
Y91000D01*
X278875Y90982D01*
X279246Y90930D01*
X279612Y90842D01*
X279967Y90721D01*
X280309Y90568D01*
X280635Y90382D01*
X280704Y90344D01*
X280779Y90319D01*
X280856Y90306D01*
X280935Y90305D01*
X281013Y90316D01*
X281088Y90339D01*
X281159Y90374D01*
X281223Y90419D01*
X281279Y90474D01*
X281327Y90537D01*
X281363Y90607D01*
X281388Y90681D01*
X281402Y90759D01*
X281403Y90838D01*
X281392Y90916D01*
X281368Y90991D01*
X281334Y91061D01*
X281288Y91126D01*
X281233Y91182D01*
X281169Y91228D01*
X280764Y91464D01*
X280335Y91657D01*
X279891Y91808D01*
X279434Y91918D01*
X278969Y91983D01*
X278502Y92005D01*
Y135645D01*
X278873Y135492D01*
X279676Y135299D01*
X280500Y135234D01*
X281324Y135299D01*
X282127Y135492D01*
X282891Y135808D01*
X283595Y136240D01*
X284224Y136776D01*
X284760Y137405D01*
X285192Y138109D01*
X285508Y138873D01*
X285701Y139676D01*
X285750Y140500D01*
X285701Y141324D01*
X285508Y142127D01*
X285192Y142891D01*
X284760Y143595D01*
X284224Y144224D01*
X283595Y144760D01*
X282891Y145192D01*
X282127Y145508D01*
X281324Y145701D01*
X280500Y145766D01*
X279676Y145701D01*
X278873Y145508D01*
X278502Y145355D01*
Y184000D01*
X292650D01*
G37*
G36*
X278502D02*Y145355D01*
X278109Y145192D01*
X277405Y144760D01*
X276776Y144224D01*
X276240Y143595D01*
X275808Y142891D01*
X275493Y142132D01*
X275476Y142192D01*
X275296Y142650D01*
X275074Y143089D01*
X275019Y143172D01*
X274951Y143244D01*
X274873Y143305D01*
X274786Y143353D01*
X274693Y143387D01*
X274596Y143406D01*
X274497Y143409D01*
X274399Y143397D01*
X274304Y143370D01*
X274214Y143328D01*
X274132Y143272D01*
X274059Y143205D01*
X273998Y143127D01*
X273950Y143040D01*
X273916Y142947D01*
X273898Y142850D01*
X273894Y142751D01*
X273906Y142652D01*
X273934Y142557D01*
X273977Y142468D01*
X274150Y142136D01*
X274287Y141788D01*
X274391Y141428D01*
X274461Y141060D01*
X274496Y140687D01*
Y140313D01*
X274461Y139940D01*
X274391Y139572D01*
X274287Y139212D01*
X274150Y138864D01*
X273981Y138529D01*
X273938Y138441D01*
X273911Y138347D01*
X273898Y138249D01*
X273902Y138151D01*
X273921Y138054D01*
X273954Y137962D01*
X274002Y137876D01*
X274062Y137798D01*
X274134Y137731D01*
X274216Y137676D01*
X274305Y137634D01*
X274400Y137607D01*
X274497Y137595D01*
X274596Y137599D01*
X274692Y137617D01*
X274785Y137651D01*
X274871Y137699D01*
X274948Y137759D01*
X275015Y137831D01*
X275069Y137914D01*
X275296Y138350D01*
X275476Y138808D01*
X275493Y138868D01*
X275808Y138109D01*
X276240Y137405D01*
X276776Y136776D01*
X277405Y136240D01*
X278109Y135808D01*
X278502Y135645D01*
Y92005D01*
X278500Y92006D01*
X278031Y91983D01*
X277566Y91918D01*
X277109Y91808D01*
X276665Y91657D01*
X276236Y91464D01*
X275828Y91232D01*
X275764Y91185D01*
X275708Y91128D01*
X275663Y91064D01*
X275628Y90992D01*
X275604Y90917D01*
X275593Y90838D01*
X275594Y90759D01*
X275607Y90680D01*
X275633Y90605D01*
X275670Y90535D01*
X275717Y90471D01*
X275774Y90416D01*
X275839Y90370D01*
X275910Y90335D01*
X275986Y90312D01*
X276065Y90300D01*
X276144Y90301D01*
X276222Y90315D01*
X276297Y90340D01*
X276367Y90379D01*
X276691Y90568D01*
X277033Y90721D01*
X277388Y90842D01*
X277754Y90930D01*
X278125Y90982D01*
X278500Y91000D01*
X278502Y91000D01*
Y83000D01*
X278500Y83000D01*
X278125Y83018D01*
X277754Y83070D01*
X277388Y83158D01*
X277033Y83279D01*
X276691Y83432D01*
X276364Y83618D01*
X276296Y83656D01*
X276221Y83681D01*
X276144Y83694D01*
X276065Y83695D01*
X275987Y83684D01*
X275912Y83661D01*
X275841Y83626D01*
X275777Y83581D01*
X275721Y83526D01*
X275673Y83463D01*
X275637Y83393D01*
X275612Y83319D01*
X275598Y83241D01*
X275597Y83162D01*
X275608Y83084D01*
X275632Y83009D01*
X275666Y82939D01*
X275712Y82874D01*
X275767Y82818D01*
X275831Y82772D01*
X276236Y82536D01*
X276665Y82343D01*
X277109Y82192D01*
X277566Y82082D01*
X278031Y82017D01*
X278500Y81994D01*
X278502Y81995D01*
Y59005D01*
X278500Y59006D01*
X278031Y58983D01*
X277566Y58918D01*
X277109Y58808D01*
X276665Y58657D01*
X276236Y58464D01*
X275828Y58232D01*
X275764Y58185D01*
X275708Y58128D01*
X275663Y58064D01*
X275628Y57992D01*
X275604Y57917D01*
X275593Y57838D01*
X275594Y57759D01*
X275607Y57680D01*
X275633Y57605D01*
X275670Y57535D01*
X275717Y57471D01*
X275774Y57416D01*
X275839Y57370D01*
X275910Y57335D01*
X275986Y57312D01*
X276065Y57300D01*
X276144Y57301D01*
X276222Y57315D01*
X276297Y57340D01*
X276367Y57379D01*
X276691Y57568D01*
X277033Y57721D01*
X277388Y57842D01*
X277754Y57930D01*
X278125Y57982D01*
X278500Y58000D01*
X278502Y58000D01*
Y50000D01*
X278500Y50000D01*
X278125Y50018D01*
X277754Y50070D01*
X277388Y50158D01*
X277033Y50279D01*
X276691Y50432D01*
X276364Y50618D01*
X276296Y50656D01*
X276221Y50681D01*
X276144Y50694D01*
X276065Y50695D01*
X275987Y50684D01*
X275912Y50661D01*
X275841Y50626D01*
X275777Y50581D01*
X275721Y50526D01*
X275673Y50463D01*
X275637Y50393D01*
X275612Y50319D01*
X275598Y50241D01*
X275597Y50162D01*
X275608Y50084D01*
X275632Y50009D01*
X275666Y49939D01*
X275712Y49874D01*
X275767Y49818D01*
X275831Y49772D01*
X276236Y49536D01*
X276665Y49343D01*
X277109Y49192D01*
X277566Y49082D01*
X278031Y49017D01*
X278500Y48994D01*
X278502Y48995D01*
Y8006D01*
X273500Y8016D01*
Y53883D01*
X273517Y53531D01*
X273582Y53066D01*
X273692Y52609D01*
X273843Y52165D01*
X274036Y51736D01*
X274268Y51328D01*
X274315Y51264D01*
X274372Y51208D01*
X274436Y51163D01*
X274508Y51128D01*
X274583Y51104D01*
X274662Y51093D01*
X274741Y51094D01*
X274820Y51107D01*
X274895Y51133D01*
X274965Y51170D01*
X275029Y51217D01*
X275084Y51274D01*
X275130Y51339D01*
X275165Y51410D01*
X275188Y51486D01*
X275200Y51565D01*
X275199Y51644D01*
X275185Y51722D01*
X275160Y51797D01*
X275121Y51867D01*
X274932Y52191D01*
X274779Y52533D01*
X274658Y52888D01*
X274570Y53254D01*
X274518Y53625D01*
X274500Y54000D01*
X274518Y54375D01*
X274570Y54746D01*
X274658Y55112D01*
X274779Y55467D01*
X274932Y55809D01*
X275118Y56136D01*
X275156Y56204D01*
X275181Y56279D01*
X275194Y56356D01*
X275195Y56435D01*
X275184Y56513D01*
X275161Y56588D01*
X275126Y56659D01*
X275081Y56723D01*
X275026Y56779D01*
X274963Y56827D01*
X274893Y56863D01*
X274819Y56889D01*
X274741Y56902D01*
X274662Y56903D01*
X274584Y56892D01*
X274509Y56868D01*
X274439Y56834D01*
X274374Y56788D01*
X274318Y56733D01*
X274272Y56669D01*
X274036Y56264D01*
X273843Y55835D01*
X273692Y55391D01*
X273582Y54934D01*
X273517Y54469D01*
X273500Y54117D01*
Y86883D01*
X273517Y86531D01*
X273582Y86066D01*
X273692Y85609D01*
X273843Y85165D01*
X274036Y84736D01*
X274268Y84328D01*
X274315Y84264D01*
X274372Y84208D01*
X274436Y84163D01*
X274508Y84128D01*
X274583Y84104D01*
X274662Y84093D01*
X274741Y84094D01*
X274820Y84107D01*
X274895Y84133D01*
X274965Y84170D01*
X275029Y84217D01*
X275084Y84274D01*
X275130Y84339D01*
X275165Y84410D01*
X275188Y84486D01*
X275200Y84565D01*
X275199Y84644D01*
X275185Y84722D01*
X275160Y84797D01*
X275121Y84867D01*
X274932Y85191D01*
X274779Y85533D01*
X274658Y85888D01*
X274570Y86254D01*
X274518Y86625D01*
X274500Y87000D01*
X274518Y87375D01*
X274570Y87746D01*
X274658Y88112D01*
X274779Y88467D01*
X274932Y88809D01*
X275118Y89136D01*
X275156Y89204D01*
X275181Y89279D01*
X275194Y89356D01*
X275195Y89435D01*
X275184Y89513D01*
X275161Y89588D01*
X275126Y89659D01*
X275081Y89723D01*
X275026Y89779D01*
X274963Y89827D01*
X274893Y89863D01*
X274819Y89889D01*
X274741Y89902D01*
X274662Y89903D01*
X274584Y89892D01*
X274509Y89868D01*
X274439Y89834D01*
X274374Y89788D01*
X274318Y89733D01*
X274272Y89669D01*
X274036Y89264D01*
X273843Y88835D01*
X273692Y88391D01*
X273582Y87934D01*
X273517Y87469D01*
X273500Y87117D01*
Y184000D01*
X278502D01*
G37*
G36*
X273500D02*Y87117D01*
X273483Y87469D01*
X273418Y87934D01*
X273308Y88391D01*
X273157Y88835D01*
X272964Y89264D01*
X272732Y89672D01*
X272685Y89736D01*
X272628Y89792D01*
X272564Y89837D01*
X272492Y89872D01*
X272417Y89896D01*
X272338Y89907D01*
X272259Y89906D01*
X272180Y89893D01*
X272105Y89867D01*
X272035Y89830D01*
X271971Y89783D01*
X271916Y89726D01*
X271870Y89661D01*
X271835Y89590D01*
X271812Y89514D01*
X271800Y89435D01*
X271801Y89356D01*
X271815Y89278D01*
X271840Y89203D01*
X271879Y89133D01*
X272068Y88809D01*
X272221Y88467D01*
X272342Y88112D01*
X272430Y87746D01*
X272482Y87375D01*
X272500Y87000D01*
X272482Y86625D01*
X272430Y86254D01*
X272342Y85888D01*
X272221Y85533D01*
X272068Y85191D01*
X271882Y84865D01*
X271844Y84796D01*
X271819Y84721D01*
X271806Y84644D01*
X271805Y84565D01*
X271816Y84487D01*
X271839Y84412D01*
X271874Y84341D01*
X271919Y84277D01*
X271974Y84221D01*
X272037Y84173D01*
X272107Y84137D01*
X272181Y84112D01*
X272259Y84098D01*
X272338Y84097D01*
X272416Y84108D01*
X272491Y84132D01*
X272561Y84166D01*
X272626Y84212D01*
X272682Y84267D01*
X272728Y84331D01*
X272964Y84736D01*
X273157Y85165D01*
X273308Y85609D01*
X273418Y86066D01*
X273483Y86531D01*
X273500Y86883D01*
X273500Y86883D01*
Y54117D01*
X273483Y54469D01*
X273418Y54934D01*
X273308Y55391D01*
X273157Y55835D01*
X272964Y56264D01*
X272732Y56672D01*
X272685Y56736D01*
X272628Y56792D01*
X272564Y56837D01*
X272492Y56872D01*
X272417Y56896D01*
X272338Y56907D01*
X272259Y56906D01*
X272180Y56893D01*
X272105Y56867D01*
X272035Y56830D01*
X271971Y56783D01*
X271916Y56726D01*
X271870Y56661D01*
X271835Y56590D01*
X271812Y56514D01*
X271800Y56435D01*
X271801Y56356D01*
X271815Y56278D01*
X271840Y56203D01*
X271879Y56133D01*
X272068Y55809D01*
X272221Y55467D01*
X272342Y55112D01*
X272430Y54746D01*
X272482Y54375D01*
X272500Y54000D01*
X272482Y53625D01*
X272430Y53254D01*
X272342Y52888D01*
X272221Y52533D01*
X272068Y52191D01*
X271882Y51865D01*
X271844Y51796D01*
X271819Y51721D01*
X271806Y51644D01*
X271805Y51565D01*
X271816Y51487D01*
X271839Y51412D01*
X271874Y51341D01*
X271919Y51277D01*
X271974Y51221D01*
X272037Y51173D01*
X272107Y51137D01*
X272181Y51112D01*
X272259Y51098D01*
X272338Y51097D01*
X272416Y51108D01*
X272491Y51132D01*
X272561Y51166D01*
X272626Y51212D01*
X272682Y51267D01*
X272728Y51331D01*
X272964Y51736D01*
X273157Y52165D01*
X273308Y52609D01*
X273418Y53066D01*
X273483Y53531D01*
X273500Y53883D01*
X273500Y53883D01*
Y8016D01*
X268502Y8025D01*
Y9027D01*
X268628Y9037D01*
X269240Y9184D01*
X269822Y9425D01*
X270358Y9754D01*
X270837Y10163D01*
X271246Y10642D01*
X271575Y11178D01*
X271816Y11760D01*
X271963Y12372D01*
X272000Y13000D01*
X271963Y13628D01*
X271816Y14240D01*
X271575Y14822D01*
X271246Y15358D01*
X270837Y15837D01*
X270358Y16246D01*
X269822Y16575D01*
X269240Y16816D01*
X268628Y16963D01*
X268502Y16973D01*
Y48995D01*
X268969Y49017D01*
X269434Y49082D01*
X269891Y49192D01*
X270335Y49343D01*
X270764Y49536D01*
X271172Y49768D01*
X271236Y49815D01*
X271292Y49872D01*
X271337Y49936D01*
X271372Y50008D01*
X271396Y50083D01*
X271407Y50162D01*
X271406Y50241D01*
X271393Y50320D01*
X271367Y50395D01*
X271330Y50465D01*
X271283Y50529D01*
X271226Y50584D01*
X271161Y50630D01*
X271090Y50665D01*
X271014Y50688D01*
X270935Y50700D01*
X270856Y50699D01*
X270778Y50685D01*
X270703Y50660D01*
X270633Y50621D01*
X270309Y50432D01*
X269967Y50279D01*
X269612Y50158D01*
X269246Y50070D01*
X268875Y50018D01*
X268502Y50000D01*
Y58000D01*
X268875Y57982D01*
X269246Y57930D01*
X269612Y57842D01*
X269967Y57721D01*
X270309Y57568D01*
X270635Y57382D01*
X270704Y57344D01*
X270779Y57319D01*
X270856Y57306D01*
X270935Y57305D01*
X271013Y57316D01*
X271088Y57339D01*
X271159Y57374D01*
X271223Y57419D01*
X271279Y57474D01*
X271327Y57537D01*
X271363Y57607D01*
X271388Y57681D01*
X271402Y57759D01*
X271403Y57838D01*
X271392Y57916D01*
X271368Y57991D01*
X271334Y58061D01*
X271288Y58126D01*
X271233Y58182D01*
X271169Y58228D01*
X270764Y58464D01*
X270335Y58657D01*
X269891Y58808D01*
X269434Y58918D01*
X268969Y58983D01*
X268502Y59005D01*
Y81995D01*
X268969Y82017D01*
X269434Y82082D01*
X269891Y82192D01*
X270335Y82343D01*
X270764Y82536D01*
X271172Y82768D01*
X271236Y82815D01*
X271292Y82872D01*
X271337Y82936D01*
X271372Y83008D01*
X271396Y83083D01*
X271407Y83162D01*
X271406Y83241D01*
X271393Y83320D01*
X271367Y83395D01*
X271330Y83465D01*
X271283Y83529D01*
X271226Y83584D01*
X271161Y83630D01*
X271090Y83665D01*
X271014Y83688D01*
X270935Y83700D01*
X270856Y83699D01*
X270778Y83685D01*
X270703Y83660D01*
X270633Y83621D01*
X270309Y83432D01*
X269967Y83279D01*
X269612Y83158D01*
X269246Y83070D01*
X268875Y83018D01*
X268502Y83000D01*
Y91000D01*
X268875Y90982D01*
X269246Y90930D01*
X269612Y90842D01*
X269967Y90721D01*
X270309Y90568D01*
X270635Y90382D01*
X270704Y90344D01*
X270779Y90319D01*
X270856Y90306D01*
X270935Y90305D01*
X271013Y90316D01*
X271088Y90339D01*
X271159Y90374D01*
X271223Y90419D01*
X271279Y90474D01*
X271327Y90537D01*
X271363Y90607D01*
X271388Y90681D01*
X271402Y90759D01*
X271403Y90838D01*
X271392Y90916D01*
X271368Y90991D01*
X271334Y91061D01*
X271288Y91126D01*
X271233Y91182D01*
X271169Y91228D01*
X270764Y91464D01*
X270335Y91657D01*
X269891Y91808D01*
X269434Y91918D01*
X268969Y91983D01*
X268502Y92005D01*
Y135644D01*
X268808Y135524D01*
X269281Y135388D01*
X269764Y135296D01*
X270254Y135250D01*
X270746D01*
X271236Y135296D01*
X271719Y135388D01*
X272192Y135524D01*
X272650Y135704D01*
X273089Y135926D01*
X273172Y135981D01*
X273244Y136049D01*
X273305Y136127D01*
X273353Y136214D01*
X273387Y136307D01*
X273406Y136404D01*
X273409Y136503D01*
X273397Y136601D01*
X273370Y136696D01*
X273328Y136786D01*
X273272Y136868D01*
X273205Y136941D01*
X273127Y137002D01*
X273040Y137050D01*
X272947Y137084D01*
X272850Y137102D01*
X272751Y137106D01*
X272652Y137094D01*
X272557Y137066D01*
X272468Y137023D01*
X272136Y136850D01*
X271788Y136713D01*
X271428Y136609D01*
X271060Y136539D01*
X270687Y136504D01*
X270313D01*
X269940Y136539D01*
X269572Y136609D01*
X269212Y136713D01*
X268864Y136850D01*
X268529Y137019D01*
X268502Y137032D01*
Y143963D01*
X268532Y143977D01*
X268864Y144150D01*
X269212Y144287D01*
X269572Y144391D01*
X269940Y144461D01*
X270313Y144496D01*
X270687D01*
X271060Y144461D01*
X271428Y144391D01*
X271788Y144287D01*
X272136Y144150D01*
X272471Y143981D01*
X272559Y143938D01*
X272653Y143911D01*
X272751Y143898D01*
X272849Y143902D01*
X272946Y143921D01*
X273038Y143954D01*
X273124Y144002D01*
X273202Y144062D01*
X273269Y144134D01*
X273324Y144216D01*
X273366Y144305D01*
X273393Y144400D01*
X273405Y144497D01*
X273401Y144596D01*
X273383Y144692D01*
X273349Y144785D01*
X273301Y144871D01*
X273241Y144948D01*
X273169Y145015D01*
X273086Y145069D01*
X272650Y145296D01*
X272192Y145476D01*
X271719Y145612D01*
X271236Y145704D01*
X270746Y145750D01*
X270254D01*
X269764Y145704D01*
X269281Y145612D01*
X268808Y145476D01*
X268502Y145356D01*
Y152932D01*
X269427Y154014D01*
X270331Y155491D01*
X270994Y157090D01*
X271398Y158774D01*
X271500Y160500D01*
X271398Y162226D01*
X270994Y163910D01*
X270331Y165509D01*
X269427Y166986D01*
X268502Y168068D01*
Y184000D01*
X273500D01*
G37*
G36*
X266222Y57315D02*X266297Y57340D01*
X266367Y57379D01*
X266691Y57568D01*
X267033Y57721D01*
X267388Y57842D01*
X267754Y57930D01*
X268125Y57982D01*
X268500Y58000D01*
X268502Y58000D01*
Y50000D01*
X268500Y50000D01*
X268125Y50018D01*
X267754Y50070D01*
X267388Y50158D01*
X267033Y50279D01*
X266691Y50432D01*
X266364Y50618D01*
X266296Y50656D01*
X266221Y50681D01*
X266178Y50688D01*
Y57307D01*
X266222Y57315D01*
G37*
G36*
X266236Y82536D02*X266665Y82343D01*
X267109Y82192D01*
X267566Y82082D01*
X268031Y82017D01*
X268500Y81994D01*
X268502Y81995D01*
Y59005D01*
X268500Y59006D01*
X268031Y58983D01*
X267566Y58918D01*
X267109Y58808D01*
X266665Y58657D01*
X266236Y58464D01*
X266178Y58431D01*
Y82570D01*
X266236Y82536D01*
G37*
G36*
X266222Y90315D02*X266297Y90340D01*
X266367Y90379D01*
X266691Y90568D01*
X267033Y90721D01*
X267388Y90842D01*
X267754Y90930D01*
X268125Y90982D01*
X268500Y91000D01*
X268502Y91000D01*
Y83000D01*
X268500Y83000D01*
X268125Y83018D01*
X267754Y83070D01*
X267388Y83158D01*
X267033Y83279D01*
X266691Y83432D01*
X266364Y83618D01*
X266296Y83656D01*
X266221Y83681D01*
X266178Y83688D01*
Y90307D01*
X266222Y90315D01*
G37*
G36*
X266986Y151573D02*X268302Y152698D01*
X268502Y152932D01*
Y145356D01*
X268350Y145296D01*
X267911Y145074D01*
X267828Y145019D01*
X267756Y144951D01*
X267695Y144873D01*
X267647Y144786D01*
X267613Y144693D01*
X267594Y144596D01*
X267591Y144497D01*
X267603Y144399D01*
X267630Y144304D01*
X267672Y144214D01*
X267728Y144132D01*
X267795Y144059D01*
X267873Y143998D01*
X267960Y143950D01*
X268053Y143916D01*
X268150Y143898D01*
X268249Y143894D01*
X268348Y143906D01*
X268443Y143934D01*
X268502Y143963D01*
Y137032D01*
X268441Y137062D01*
X268347Y137089D01*
X268249Y137102D01*
X268151Y137098D01*
X268054Y137079D01*
X267962Y137046D01*
X267876Y136998D01*
X267798Y136938D01*
X267731Y136866D01*
X267676Y136784D01*
X267634Y136695D01*
X267607Y136600D01*
X267595Y136503D01*
X267599Y136404D01*
X267617Y136308D01*
X267651Y136215D01*
X267699Y136129D01*
X267759Y136052D01*
X267831Y135985D01*
X267914Y135931D01*
X268350Y135704D01*
X268502Y135644D01*
Y92005D01*
X268500Y92006D01*
X268031Y91983D01*
X267566Y91918D01*
X267109Y91808D01*
X266665Y91657D01*
X266236Y91464D01*
X266178Y91431D01*
Y137667D01*
X266214Y137647D01*
X266307Y137613D01*
X266404Y137594D01*
X266503Y137591D01*
X266601Y137603D01*
X266696Y137630D01*
X266786Y137672D01*
X266868Y137728D01*
X266941Y137795D01*
X267002Y137873D01*
X267050Y137960D01*
X267084Y138053D01*
X267102Y138150D01*
X267106Y138249D01*
X267094Y138348D01*
X267066Y138443D01*
X267023Y138532D01*
X266850Y138864D01*
X266713Y139212D01*
X266609Y139572D01*
X266539Y139940D01*
X266504Y140313D01*
Y140687D01*
X266539Y141060D01*
X266609Y141428D01*
X266713Y141788D01*
X266850Y142136D01*
X267019Y142471D01*
X267062Y142559D01*
X267089Y142653D01*
X267102Y142751D01*
X267098Y142849D01*
X267079Y142946D01*
X267046Y143038D01*
X266998Y143124D01*
X266938Y143202D01*
X266866Y143269D01*
X266784Y143324D01*
X266695Y143366D01*
X266600Y143393D01*
X266503Y143405D01*
X266404Y143401D01*
X266308Y143383D01*
X266215Y143349D01*
X266178Y143328D01*
Y151078D01*
X266986Y151573D01*
G37*
G36*
X268000Y17012D02*X267372Y16963D01*
X266760Y16816D01*
X266178Y16575D01*
X266178Y16575D01*
Y49570D01*
X266236Y49536D01*
X266665Y49343D01*
X267109Y49192D01*
X267566Y49082D01*
X268031Y49017D01*
X268500Y48994D01*
X268502Y48995D01*
Y16973D01*
X268000Y17012D01*
G37*
G36*
X265642Y16246D02*X265163Y15837D01*
X264754Y15358D01*
X264425Y14822D01*
X264184Y14240D01*
X264037Y13628D01*
X264007Y13250D01*
X263257Y12500D01*
X258000D01*
Y49000D01*
X262461D01*
X262500Y48997D01*
X262657Y49009D01*
X262657Y49009D01*
X262810Y49046D01*
X262955Y49106D01*
X263090Y49188D01*
X263209Y49291D01*
X263312Y49410D01*
X263394Y49545D01*
X263454Y49690D01*
X263491Y49843D01*
X263503Y50000D01*
X263500Y50039D01*
Y53883D01*
X263517Y53531D01*
X263582Y53066D01*
X263692Y52609D01*
X263843Y52165D01*
X264036Y51736D01*
X264268Y51328D01*
X264315Y51264D01*
X264372Y51208D01*
X264436Y51163D01*
X264508Y51128D01*
X264583Y51104D01*
X264662Y51093D01*
X264741Y51094D01*
X264820Y51107D01*
X264895Y51133D01*
X264965Y51170D01*
X265029Y51217D01*
X265084Y51274D01*
X265130Y51339D01*
X265165Y51410D01*
X265188Y51486D01*
X265200Y51565D01*
X265199Y51644D01*
X265185Y51722D01*
X265160Y51797D01*
X265121Y51867D01*
X264932Y52191D01*
X264779Y52533D01*
X264658Y52888D01*
X264570Y53254D01*
X264518Y53625D01*
X264500Y54000D01*
X264518Y54375D01*
X264570Y54746D01*
X264658Y55112D01*
X264779Y55467D01*
X264932Y55809D01*
X265118Y56136D01*
X265156Y56204D01*
X265181Y56279D01*
X265194Y56356D01*
X265195Y56435D01*
X265184Y56513D01*
X265161Y56588D01*
X265126Y56659D01*
X265081Y56723D01*
X265026Y56779D01*
X264963Y56827D01*
X264893Y56863D01*
X264819Y56889D01*
X264741Y56902D01*
X264662Y56903D01*
X264584Y56892D01*
X264509Y56868D01*
X264439Y56834D01*
X264374Y56788D01*
X264318Y56733D01*
X264272Y56669D01*
X264036Y56264D01*
X263843Y55835D01*
X263692Y55391D01*
X263582Y54934D01*
X263517Y54469D01*
X263500Y54117D01*
Y57961D01*
X263503Y58000D01*
X263491Y58157D01*
X263491Y58157D01*
X263454Y58310D01*
X263394Y58455D01*
X263312Y58590D01*
X263209Y58709D01*
X263090Y58812D01*
X262955Y58894D01*
X262810Y58954D01*
X262657Y58991D01*
X262500Y59003D01*
X262461Y59000D01*
X258000D01*
Y82000D01*
X262461D01*
X262500Y81997D01*
X262657Y82009D01*
X262657Y82009D01*
X262810Y82046D01*
X262955Y82106D01*
X263090Y82188D01*
X263209Y82291D01*
X263312Y82410D01*
X263394Y82545D01*
X263454Y82690D01*
X263491Y82843D01*
X263503Y83000D01*
X263500Y83039D01*
Y86883D01*
X263517Y86531D01*
X263582Y86066D01*
X263692Y85609D01*
X263843Y85165D01*
X264036Y84736D01*
X264268Y84328D01*
X264315Y84264D01*
X264372Y84208D01*
X264436Y84163D01*
X264508Y84128D01*
X264583Y84104D01*
X264662Y84093D01*
X264741Y84094D01*
X264820Y84107D01*
X264895Y84133D01*
X264965Y84170D01*
X265029Y84217D01*
X265084Y84274D01*
X265130Y84339D01*
X265165Y84410D01*
X265188Y84486D01*
X265200Y84565D01*
X265199Y84644D01*
X265185Y84722D01*
X265160Y84797D01*
X265121Y84867D01*
X264932Y85191D01*
X264779Y85533D01*
X264658Y85888D01*
X264570Y86254D01*
X264518Y86625D01*
X264500Y87000D01*
X264518Y87375D01*
X264570Y87746D01*
X264658Y88112D01*
X264779Y88467D01*
X264932Y88809D01*
X265118Y89136D01*
X265156Y89204D01*
X265181Y89279D01*
X265194Y89356D01*
X265195Y89435D01*
X265184Y89513D01*
X265161Y89588D01*
X265126Y89659D01*
X265081Y89723D01*
X265026Y89779D01*
X264963Y89827D01*
X264893Y89863D01*
X264819Y89889D01*
X264741Y89902D01*
X264662Y89903D01*
X264584Y89892D01*
X264509Y89868D01*
X264439Y89834D01*
X264374Y89788D01*
X264318Y89733D01*
X264272Y89669D01*
X264036Y89264D01*
X263843Y88835D01*
X263692Y88391D01*
X263582Y87934D01*
X263517Y87469D01*
X263500Y87117D01*
Y90961D01*
X263503Y91000D01*
X263491Y91157D01*
X263491Y91157D01*
X263454Y91310D01*
X263394Y91455D01*
X263312Y91590D01*
X263209Y91709D01*
X263090Y91812D01*
X262955Y91894D01*
X262810Y91954D01*
X262657Y91991D01*
X262500Y92003D01*
X262461Y92000D01*
X258000D01*
Y105500D01*
X261902D01*
X262000Y105492D01*
X262392Y105523D01*
X262392Y105523D01*
X262775Y105615D01*
X263138Y105766D01*
X263474Y105971D01*
X263773Y106227D01*
X264029Y106526D01*
X264234Y106862D01*
X264385Y107225D01*
X264477Y107608D01*
X264508Y108000D01*
X264500Y108098D01*
Y115902D01*
X264508Y116000D01*
X264477Y116392D01*
X264477Y116392D01*
X264385Y116775D01*
X264234Y117138D01*
X264029Y117474D01*
X263773Y117773D01*
X263474Y118029D01*
X263138Y118234D01*
X262775Y118385D01*
X262392Y118477D01*
X262000Y118508D01*
X261902Y118500D01*
X258000D01*
Y149788D01*
X258774Y149602D01*
X260500Y149466D01*
X262226Y149602D01*
X263910Y150006D01*
X265509Y150669D01*
X266178Y151078D01*
Y143328D01*
X266129Y143301D01*
X266052Y143241D01*
X265985Y143169D01*
X265931Y143086D01*
X265704Y142650D01*
X265524Y142192D01*
X265388Y141719D01*
X265296Y141236D01*
X265250Y140746D01*
Y140254D01*
X265296Y139764D01*
X265388Y139281D01*
X265524Y138808D01*
X265704Y138350D01*
X265926Y137911D01*
X265981Y137828D01*
X266049Y137756D01*
X266127Y137695D01*
X266178Y137667D01*
Y91431D01*
X265828Y91232D01*
X265764Y91185D01*
X265708Y91128D01*
X265663Y91064D01*
X265628Y90992D01*
X265604Y90917D01*
X265593Y90838D01*
X265594Y90759D01*
X265607Y90680D01*
X265633Y90605D01*
X265670Y90535D01*
X265717Y90471D01*
X265774Y90416D01*
X265839Y90370D01*
X265910Y90335D01*
X265986Y90312D01*
X266065Y90300D01*
X266144Y90301D01*
X266178Y90307D01*
Y83688D01*
X266144Y83694D01*
X266065Y83695D01*
X265987Y83684D01*
X265912Y83661D01*
X265841Y83626D01*
X265777Y83581D01*
X265721Y83526D01*
X265673Y83463D01*
X265637Y83393D01*
X265612Y83319D01*
X265598Y83241D01*
X265597Y83162D01*
X265608Y83084D01*
X265632Y83009D01*
X265666Y82939D01*
X265712Y82874D01*
X265767Y82818D01*
X265831Y82772D01*
X266178Y82570D01*
Y58431D01*
X265828Y58232D01*
X265764Y58185D01*
X265708Y58128D01*
X265663Y58064D01*
X265628Y57992D01*
X265604Y57917D01*
X265593Y57838D01*
X265594Y57759D01*
X265607Y57680D01*
X265633Y57605D01*
X265670Y57535D01*
X265717Y57471D01*
X265774Y57416D01*
X265839Y57370D01*
X265910Y57335D01*
X265986Y57312D01*
X266065Y57300D01*
X266144Y57301D01*
X266178Y57307D01*
Y50688D01*
X266144Y50694D01*
X266065Y50695D01*
X265987Y50684D01*
X265912Y50661D01*
X265841Y50626D01*
X265777Y50581D01*
X265721Y50526D01*
X265673Y50463D01*
X265637Y50393D01*
X265612Y50319D01*
X265598Y50241D01*
X265597Y50162D01*
X265608Y50084D01*
X265632Y50009D01*
X265666Y49939D01*
X265712Y49874D01*
X265767Y49818D01*
X265831Y49772D01*
X266178Y49570D01*
Y16575D01*
X265642Y16246D01*
G37*
G36*
X267270Y8027D02*X268250Y9007D01*
X268502Y9027D01*
Y8025D01*
X267270Y8027D01*
G37*
G36*
X268502Y184000D02*Y168068D01*
X268302Y168302D01*
X266986Y169427D01*
X265509Y170331D01*
X263910Y170994D01*
X262226Y171398D01*
X260500Y171534D01*
X258774Y171398D01*
X258000Y171212D01*
Y184000D01*
X268502D01*
G37*
G36*
X258000D02*Y171212D01*
X257090Y170994D01*
X255491Y170331D01*
X254014Y169427D01*
X252698Y168302D01*
X251573Y166986D01*
X250669Y165509D01*
X250006Y163910D01*
X249602Y162226D01*
X249466Y160500D01*
X249602Y158774D01*
X250006Y157090D01*
X250669Y155491D01*
X251573Y154014D01*
X252698Y152698D01*
X254014Y151573D01*
X255491Y150669D01*
X257090Y150006D01*
X258000Y149788D01*
Y118500D01*
X254098D01*
X254000Y118508D01*
X253608Y118477D01*
X253608Y118477D01*
X253225Y118385D01*
X252862Y118234D01*
X252526Y118029D01*
X252227Y117773D01*
X251971Y117474D01*
X251766Y117138D01*
X251615Y116775D01*
X251523Y116392D01*
X251492Y116000D01*
X251500Y115902D01*
Y108098D01*
X251492Y108000D01*
X251523Y107608D01*
X251523Y107608D01*
X251615Y107225D01*
X251766Y106862D01*
X251971Y106526D01*
X252227Y106227D01*
X252526Y105971D01*
X252862Y105766D01*
X253225Y105615D01*
X253608Y105523D01*
X254000Y105492D01*
X254098Y105500D01*
X258000D01*
Y92000D01*
X254539D01*
X254500Y92003D01*
X254343Y91991D01*
X254343Y91991D01*
X254190Y91954D01*
X254045Y91894D01*
X253910Y91812D01*
X253791Y91709D01*
X253688Y91590D01*
X253606Y91455D01*
X253546Y91310D01*
X253509Y91157D01*
X253497Y91000D01*
X253500Y90961D01*
Y83039D01*
X253497Y83000D01*
X253509Y82843D01*
X253509Y82843D01*
X253546Y82690D01*
X253606Y82545D01*
X253688Y82410D01*
X253791Y82291D01*
X253910Y82188D01*
X254045Y82106D01*
X254190Y82046D01*
X254343Y82009D01*
X254500Y81997D01*
X254539Y82000D01*
X258000D01*
Y59000D01*
X254539D01*
X254500Y59003D01*
X254343Y58991D01*
X254343Y58991D01*
X254190Y58954D01*
X254045Y58894D01*
X253910Y58812D01*
X253791Y58709D01*
X253688Y58590D01*
X253606Y58455D01*
X253546Y58310D01*
X253509Y58157D01*
X253497Y58000D01*
X253500Y57961D01*
Y50039D01*
X253497Y50000D01*
X253509Y49843D01*
X253509Y49843D01*
X253546Y49690D01*
X253606Y49545D01*
X253688Y49410D01*
X253791Y49291D01*
X253910Y49188D01*
X254045Y49106D01*
X254190Y49046D01*
X254343Y49009D01*
X254500Y48997D01*
X254539Y49000D01*
X258000D01*
Y12500D01*
X242960D01*
Y15299D01*
X243275Y15668D01*
X243809Y16540D01*
X244201Y17485D01*
X244440Y18480D01*
X244500Y19500D01*
X244440Y20520D01*
X244201Y21515D01*
X243809Y22460D01*
X243275Y23332D01*
X242960Y23701D01*
Y43074D01*
X242965Y43074D01*
X243160Y43101D01*
X243348Y43159D01*
X243525Y43245D01*
X243686Y43358D01*
X243827Y43495D01*
X243946Y43652D01*
X244038Y43825D01*
X244098Y44012D01*
X244227Y44600D01*
X244287Y45199D01*
Y45801D01*
X244227Y46400D01*
X244106Y46989D01*
X244042Y47176D01*
X243949Y47351D01*
X243831Y47508D01*
X243689Y47646D01*
X243527Y47759D01*
X243349Y47845D01*
X243161Y47903D01*
X242965Y47931D01*
X242960Y47931D01*
Y184000D01*
X258000D01*
G37*
G36*
X241000Y12500D02*Y13715D01*
X241832Y14225D01*
X242610Y14890D01*
X242960Y15299D01*
Y12500D01*
X241000D01*
G37*
G36*
X242960Y184000D02*Y47931D01*
X242768Y47927D01*
X242573Y47893D01*
X242387Y47829D01*
X242212Y47736D01*
X242054Y47617D01*
X241917Y47475D01*
X241804Y47314D01*
X241717Y47136D01*
X241660Y46947D01*
X241632Y46752D01*
X241636Y46554D01*
X241674Y46361D01*
X241748Y46021D01*
X241783Y45674D01*
Y45326D01*
X241748Y44979D01*
X241678Y44638D01*
X241640Y44445D01*
X241637Y44249D01*
X241664Y44054D01*
X241722Y43866D01*
X241808Y43689D01*
X241921Y43528D01*
X242057Y43386D01*
X242215Y43268D01*
X242388Y43175D01*
X242574Y43111D01*
X242768Y43077D01*
X242960Y43074D01*
Y23701D01*
X242610Y24110D01*
X241832Y24775D01*
X240960Y25309D01*
X240689Y25422D01*
Y40496D01*
X240746Y40682D01*
X240773Y40877D01*
X240770Y41075D01*
X240736Y41269D01*
X240689Y41405D01*
Y49609D01*
X240731Y49732D01*
X240765Y49926D01*
X240769Y50122D01*
X240741Y50317D01*
X240689Y50489D01*
Y91326D01*
X240692Y91327D01*
X240760Y91366D01*
X240821Y91415D01*
X240874Y91474D01*
X240916Y91540D01*
X241079Y91865D01*
X241208Y92205D01*
X241306Y92555D01*
X241372Y92913D01*
X241405Y93275D01*
Y93639D01*
X241372Y94001D01*
X241306Y94359D01*
X241208Y94709D01*
X241079Y95049D01*
X240920Y95376D01*
X240877Y95442D01*
X240824Y95501D01*
X240762Y95551D01*
X240693Y95590D01*
X240689Y95592D01*
Y184000D01*
X242960D01*
G37*
G36*
X240671Y41456D02*X240579Y41630D01*
X240460Y41788D01*
X240318Y41925D01*
X240156Y42039D01*
X239979Y42125D01*
X239790Y42183D01*
X239594Y42210D01*
X239397Y42207D01*
X239203Y42169D01*
X238863Y42095D01*
X238517Y42060D01*
X238168D01*
X237822Y42095D01*
X237481Y42165D01*
X237407Y42179D01*
Y48816D01*
X237482Y48831D01*
X237822Y48905D01*
X238168Y48940D01*
X238517D01*
X238863Y48905D01*
X239204Y48835D01*
X239397Y48797D01*
X239594Y48794D01*
X239789Y48821D01*
X239977Y48879D01*
X240154Y48965D01*
X240315Y49078D01*
X240456Y49215D01*
X240575Y49372D01*
X240667Y49546D01*
X240689Y49609D01*
Y41405D01*
X240671Y41456D01*
G37*
G36*
X240015Y25701D02*X239020Y25940D01*
X238000Y26020D01*
X237407Y25973D01*
Y39624D01*
X237443Y39616D01*
X238042Y39555D01*
X238643D01*
X239242Y39616D01*
X239832Y39737D01*
X240019Y39800D01*
X240193Y39893D01*
X240351Y40012D01*
X240488Y40154D01*
X240601Y40316D01*
X240688Y40493D01*
X240689Y40496D01*
Y25422D01*
X240015Y25701D01*
G37*
G36*
X240689Y184000D02*Y95592D01*
X240619Y95618D01*
X240542Y95634D01*
X240463Y95638D01*
X240384Y95630D01*
X240308Y95609D01*
X240235Y95577D01*
X240169Y95534D01*
X240110Y95481D01*
X240061Y95419D01*
X240021Y95350D01*
X239993Y95276D01*
X239977Y95199D01*
X239973Y95120D01*
X239981Y95041D01*
X240002Y94964D01*
X240035Y94893D01*
X240158Y94650D01*
X240255Y94395D01*
X240328Y94133D01*
X240377Y93865D01*
X240402Y93593D01*
Y93321D01*
X240377Y93049D01*
X240328Y92781D01*
X240255Y92519D01*
X240158Y92264D01*
X240038Y92020D01*
X240005Y91948D01*
X239984Y91872D01*
X239976Y91794D01*
X239980Y91716D01*
X239996Y91639D01*
X240024Y91565D01*
X240063Y91497D01*
X240112Y91436D01*
X240171Y91383D01*
X240237Y91340D01*
X240309Y91308D01*
X240385Y91287D01*
X240463Y91279D01*
X240541Y91283D01*
X240618Y91299D01*
X240689Y91326D01*
Y50489D01*
X240684Y50505D01*
X240598Y50682D01*
X240485Y50843D01*
X240348Y50985D01*
X240191Y51103D01*
X240017Y51195D01*
X239830Y51256D01*
X239242Y51384D01*
X238643Y51445D01*
X238042D01*
X237443Y51384D01*
X237407Y51377D01*
Y89457D01*
X237587D01*
X237949Y89490D01*
X238307Y89556D01*
X238657Y89654D01*
X238997Y89783D01*
X239324Y89942D01*
X239390Y89985D01*
X239449Y90038D01*
X239499Y90100D01*
X239538Y90169D01*
X239566Y90243D01*
X239582Y90320D01*
X239586Y90399D01*
X239578Y90478D01*
X239557Y90554D01*
X239525Y90627D01*
X239482Y90693D01*
X239429Y90752D01*
X239367Y90801D01*
X239298Y90841D01*
X239224Y90869D01*
X239147Y90885D01*
X239068Y90889D01*
X238989Y90881D01*
X238912Y90860D01*
X238841Y90827D01*
X238598Y90704D01*
X238343Y90607D01*
X238081Y90534D01*
X237813Y90485D01*
X237541Y90460D01*
X237407D01*
Y96454D01*
X237541D01*
X237813Y96429D01*
X238081Y96380D01*
X238343Y96307D01*
X238598Y96210D01*
X238842Y96090D01*
X238914Y96057D01*
X238990Y96036D01*
X239068Y96028D01*
X239146Y96032D01*
X239223Y96048D01*
X239297Y96076D01*
X239365Y96115D01*
X239426Y96164D01*
X239479Y96223D01*
X239522Y96289D01*
X239554Y96361D01*
X239575Y96437D01*
X239583Y96515D01*
X239579Y96593D01*
X239563Y96670D01*
X239535Y96744D01*
X239496Y96812D01*
X239447Y96873D01*
X239388Y96926D01*
X239322Y96968D01*
X238997Y97131D01*
X238657Y97260D01*
X238307Y97358D01*
X237949Y97424D01*
X237587Y97457D01*
X237407D01*
Y184000D01*
X240689D01*
G37*
G36*
X234168Y14225D02*X235000Y13715D01*
Y12500D01*
X234121D01*
Y14265D01*
X234168Y14225D01*
G37*
G36*
X237407Y184000D02*Y97457D01*
X237223D01*
X236861Y97424D01*
X236503Y97358D01*
X236153Y97260D01*
X235813Y97131D01*
X235486Y96972D01*
X235420Y96929D01*
X235361Y96876D01*
X235311Y96814D01*
X235272Y96745D01*
X235244Y96671D01*
X235228Y96594D01*
X235224Y96515D01*
X235232Y96436D01*
X235253Y96360D01*
X235285Y96287D01*
X235328Y96221D01*
X235381Y96162D01*
X235443Y96113D01*
X235512Y96073D01*
X235586Y96045D01*
X235663Y96029D01*
X235742Y96025D01*
X235821Y96033D01*
X235898Y96054D01*
X235969Y96087D01*
X236212Y96210D01*
X236467Y96307D01*
X236729Y96380D01*
X236997Y96429D01*
X237269Y96454D01*
X237407D01*
Y90460D01*
X237269D01*
X236997Y90485D01*
X236729Y90534D01*
X236467Y90607D01*
X236212Y90704D01*
X235968Y90824D01*
X235896Y90857D01*
X235820Y90878D01*
X235742Y90886D01*
X235664Y90882D01*
X235587Y90866D01*
X235513Y90838D01*
X235445Y90799D01*
X235384Y90750D01*
X235331Y90691D01*
X235288Y90625D01*
X235256Y90553D01*
X235235Y90477D01*
X235227Y90399D01*
X235231Y90321D01*
X235247Y90244D01*
X235275Y90170D01*
X235314Y90102D01*
X235363Y90041D01*
X235422Y89988D01*
X235488Y89946D01*
X235813Y89783D01*
X236153Y89654D01*
X236503Y89556D01*
X236861Y89490D01*
X237223Y89457D01*
X237407D01*
Y51377D01*
X236853Y51263D01*
X236666Y51200D01*
X236492Y51107D01*
X236334Y50988D01*
X236197Y50846D01*
X236084Y50684D01*
X235997Y50507D01*
X235939Y50318D01*
X235912Y50123D01*
X235915Y49925D01*
X235950Y49731D01*
X236014Y49544D01*
X236106Y49370D01*
X236225Y49212D01*
X236367Y49075D01*
X236529Y48961D01*
X236706Y48875D01*
X236895Y48817D01*
X237091Y48790D01*
X237288Y48793D01*
X237407Y48816D01*
Y42179D01*
X237288Y42203D01*
X237091Y42206D01*
X236896Y42179D01*
X236708Y42121D01*
X236531Y42035D01*
X236370Y41922D01*
X236229Y41785D01*
X236110Y41628D01*
X236018Y41454D01*
X235954Y41268D01*
X235920Y41074D01*
X235916Y40878D01*
X235944Y40683D01*
X236001Y40495D01*
X236088Y40318D01*
X236200Y40157D01*
X236337Y40015D01*
X236494Y39897D01*
X236668Y39805D01*
X236855Y39744D01*
X237407Y39624D01*
Y25973D01*
X236980Y25940D01*
X235985Y25701D01*
X235040Y25309D01*
X234168Y24775D01*
X234121Y24735D01*
Y40822D01*
X234179Y40917D01*
X234330Y41280D01*
X234422Y41663D01*
X234453Y42055D01*
X234445Y42153D01*
Y43249D01*
X234473Y43264D01*
X234631Y43383D01*
X234768Y43525D01*
X234881Y43686D01*
X234968Y43864D01*
X235025Y44053D01*
X235053Y44248D01*
X235049Y44446D01*
X235011Y44639D01*
X234937Y44979D01*
X234902Y45326D01*
Y45674D01*
X234937Y46021D01*
X235007Y46362D01*
X235045Y46555D01*
X235048Y46751D01*
X235021Y46946D01*
X234964Y47134D01*
X234877Y47311D01*
X234764Y47472D01*
X234628Y47614D01*
X234470Y47732D01*
X234445Y47746D01*
Y48847D01*
X234453Y48945D01*
X234422Y49337D01*
X234422Y49337D01*
X234330Y49720D01*
X234179Y50083D01*
X234121Y50178D01*
Y91322D01*
X234191Y91296D01*
X234268Y91280D01*
X234347Y91276D01*
X234426Y91284D01*
X234502Y91305D01*
X234575Y91337D01*
X234641Y91380D01*
X234700Y91433D01*
X234749Y91495D01*
X234789Y91564D01*
X234817Y91638D01*
X234833Y91715D01*
X234837Y91794D01*
X234829Y91873D01*
X234808Y91950D01*
X234775Y92021D01*
X234652Y92264D01*
X234555Y92519D01*
X234482Y92781D01*
X234433Y93049D01*
X234408Y93321D01*
Y93593D01*
X234433Y93865D01*
X234482Y94133D01*
X234555Y94395D01*
X234652Y94650D01*
X234772Y94894D01*
X234805Y94966D01*
X234826Y95042D01*
X234834Y95120D01*
X234830Y95198D01*
X234814Y95275D01*
X234786Y95349D01*
X234747Y95417D01*
X234698Y95478D01*
X234639Y95531D01*
X234573Y95574D01*
X234501Y95606D01*
X234425Y95627D01*
X234347Y95635D01*
X234269Y95631D01*
X234192Y95615D01*
X234121Y95588D01*
Y161848D01*
X234123Y161851D01*
X234376Y162420D01*
X234570Y163012D01*
X234709Y163620D01*
X234794Y164238D01*
X234822Y164860D01*
X234794Y165483D01*
X234709Y166101D01*
X234570Y166708D01*
X234376Y167301D01*
X234129Y167873D01*
X234121Y167887D01*
Y184000D01*
X237407D01*
G37*
G36*
X231847Y39555D02*X231945Y39547D01*
X232337Y39578D01*
X232337Y39578D01*
X232720Y39670D01*
X233083Y39821D01*
X233419Y40026D01*
X233718Y40282D01*
X233974Y40581D01*
X234121Y40822D01*
Y24735D01*
X233390Y24110D01*
X232725Y23332D01*
X232191Y22460D01*
X231799Y21515D01*
X231560Y20520D01*
X231480Y19500D01*
X231560Y18480D01*
X231799Y17485D01*
X232191Y16540D01*
X232725Y15668D01*
X233390Y14890D01*
X234121Y14265D01*
Y12500D01*
X229088D01*
Y39555D01*
X231847D01*
G37*
G36*
X232450Y161685D02*X232553Y161569D01*
X232673Y161471D01*
X232806Y161393D01*
X232950Y161336D01*
X233102Y161303D01*
X233256Y161294D01*
X233411Y161309D01*
X233560Y161348D01*
X233702Y161410D01*
X233833Y161493D01*
X233949Y161596D01*
X234047Y161716D01*
X234121Y161848D01*
Y95588D01*
X234118Y95587D01*
X234050Y95548D01*
X233989Y95499D01*
X233936Y95440D01*
X233894Y95374D01*
X233731Y95049D01*
X233602Y94709D01*
X233504Y94359D01*
X233438Y94001D01*
X233405Y93639D01*
Y93275D01*
X233438Y92913D01*
X233504Y92555D01*
X233602Y92205D01*
X233731Y91865D01*
X233890Y91538D01*
X233933Y91472D01*
X233986Y91413D01*
X234048Y91363D01*
X234117Y91324D01*
X234121Y91322D01*
Y50178D01*
X233974Y50419D01*
X233718Y50718D01*
X233419Y50974D01*
X233083Y51179D01*
X232720Y51330D01*
X232370Y51414D01*
Y72826D01*
X232373Y72827D01*
X232441Y72866D01*
X232502Y72915D01*
X232555Y72974D01*
X232597Y73040D01*
X232760Y73365D01*
X232889Y73705D01*
X232987Y74055D01*
X233053Y74413D01*
X233086Y74775D01*
Y75139D01*
X233053Y75501D01*
X232987Y75859D01*
X232889Y76209D01*
X232760Y76549D01*
X232601Y76876D01*
X232558Y76942D01*
X232505Y77001D01*
X232443Y77051D01*
X232374Y77090D01*
X232370Y77092D01*
Y161810D01*
X232450Y161685D01*
G37*
G36*
X232528Y166602D02*X232666Y166179D01*
X232766Y165745D01*
X232826Y165305D01*
X232846Y164860D01*
X232826Y164416D01*
X232766Y163975D01*
X232666Y163542D01*
X232528Y163119D01*
X232370Y162752D01*
Y166958D01*
X232528Y166602D01*
G37*
G36*
X234121Y184000D02*Y167887D01*
X234051Y168008D01*
X233952Y168128D01*
X233836Y168231D01*
X233705Y168315D01*
X233562Y168378D01*
X233411Y168417D01*
X233256Y168432D01*
X233101Y168423D01*
X232949Y168389D01*
X232804Y168333D01*
X232670Y168254D01*
X232549Y168155D01*
X232446Y168039D01*
X232370Y167920D01*
Y184000D01*
X234121D01*
G37*
G36*
X232370D02*Y167920D01*
X232362Y167907D01*
X232300Y167765D01*
X232260Y167614D01*
X232245Y167459D01*
X232254Y167304D01*
X232288Y167151D01*
X232347Y167008D01*
X232370Y166958D01*
Y162752D01*
X232352Y162711D01*
X232293Y162568D01*
X232259Y162416D01*
X232250Y162262D01*
X232265Y162108D01*
X232304Y161958D01*
X232366Y161816D01*
X232370Y161810D01*
Y77092D01*
X232300Y77118D01*
X232223Y77134D01*
X232144Y77138D01*
X232065Y77130D01*
X231989Y77109D01*
X231916Y77077D01*
X231850Y77034D01*
X231791Y76981D01*
X231742Y76919D01*
X231702Y76850D01*
X231674Y76776D01*
X231658Y76699D01*
X231654Y76620D01*
X231662Y76541D01*
X231683Y76464D01*
X231716Y76393D01*
X231839Y76150D01*
X231936Y75895D01*
X232009Y75633D01*
X232058Y75365D01*
X232083Y75093D01*
Y74821D01*
X232058Y74549D01*
X232009Y74281D01*
X231936Y74019D01*
X231839Y73764D01*
X231719Y73520D01*
X231686Y73448D01*
X231665Y73372D01*
X231657Y73294D01*
X231661Y73216D01*
X231677Y73139D01*
X231705Y73065D01*
X231744Y72997D01*
X231793Y72936D01*
X231852Y72883D01*
X231918Y72840D01*
X231990Y72808D01*
X232066Y72787D01*
X232144Y72779D01*
X232222Y72783D01*
X232299Y72799D01*
X232370Y72826D01*
Y51414D01*
X232337Y51422D01*
X231945Y51453D01*
X231847Y51445D01*
X229088D01*
Y70957D01*
X229268D01*
X229630Y70990D01*
X229988Y71056D01*
X230338Y71154D01*
X230678Y71283D01*
X231005Y71442D01*
X231071Y71485D01*
X231130Y71538D01*
X231180Y71600D01*
X231219Y71669D01*
X231247Y71743D01*
X231264Y71820D01*
X231267Y71899D01*
X231259Y71978D01*
X231238Y72054D01*
X231206Y72127D01*
X231163Y72193D01*
X231110Y72252D01*
X231048Y72301D01*
X230979Y72341D01*
X230905Y72369D01*
X230828Y72385D01*
X230749Y72389D01*
X230670Y72381D01*
X230593Y72360D01*
X230522Y72327D01*
X230279Y72204D01*
X230024Y72107D01*
X229762Y72034D01*
X229494Y71985D01*
X229222Y71960D01*
X229088D01*
Y77954D01*
X229222D01*
X229494Y77929D01*
X229762Y77880D01*
X230024Y77807D01*
X230279Y77710D01*
X230523Y77590D01*
X230595Y77557D01*
X230671Y77536D01*
X230749Y77528D01*
X230827Y77532D01*
X230904Y77548D01*
X230978Y77576D01*
X231046Y77615D01*
X231107Y77664D01*
X231160Y77723D01*
X231203Y77789D01*
X231235Y77861D01*
X231256Y77937D01*
X231264Y78015D01*
X231260Y78093D01*
X231244Y78170D01*
X231216Y78244D01*
X231177Y78312D01*
X231128Y78373D01*
X231069Y78426D01*
X231003Y78468D01*
X230678Y78631D01*
X230338Y78760D01*
X229988Y78858D01*
X229630Y78924D01*
X229268Y78957D01*
X229088D01*
Y158065D01*
X229165Y158076D01*
X229773Y158216D01*
X230365Y158410D01*
X230938Y158656D01*
X231073Y158734D01*
X231193Y158833D01*
X231296Y158949D01*
X231380Y159081D01*
X231442Y159223D01*
X231482Y159374D01*
X231497Y159529D01*
X231488Y159684D01*
X231454Y159837D01*
X231397Y159982D01*
X231319Y160116D01*
X231220Y160236D01*
X231103Y160340D01*
X230972Y160423D01*
X230829Y160486D01*
X230679Y160525D01*
X230524Y160540D01*
X230368Y160531D01*
X230216Y160498D01*
X230073Y160438D01*
X229666Y160257D01*
X229244Y160119D01*
X229088Y160083D01*
Y169638D01*
X229244Y169602D01*
X229666Y169463D01*
X230075Y169287D01*
X230218Y169228D01*
X230369Y169195D01*
X230524Y169186D01*
X230678Y169201D01*
X230828Y169240D01*
X230970Y169302D01*
X231100Y169385D01*
X231216Y169488D01*
X231314Y169608D01*
X231393Y169741D01*
X231449Y169886D01*
X231483Y170037D01*
X231492Y170192D01*
X231477Y170346D01*
X231438Y170496D01*
X231376Y170638D01*
X231292Y170768D01*
X231189Y170884D01*
X231070Y170982D01*
X230935Y171058D01*
X230365Y171311D01*
X229773Y171505D01*
X229165Y171645D01*
X229088Y171655D01*
Y184000D01*
X232370D01*
G37*
G36*
X229088Y39555D02*Y12500D01*
X225802D01*
Y39555D01*
X229088D01*
G37*
G36*
X226077Y158216D02*X226685Y158076D01*
X227302Y157992D01*
X227925Y157964D01*
X228548Y157992D01*
X229088Y158065D01*
Y78957D01*
X228904D01*
X228542Y78924D01*
X228184Y78858D01*
X227834Y78760D01*
X227494Y78631D01*
X227167Y78472D01*
X227101Y78429D01*
X227042Y78376D01*
X226992Y78314D01*
X226953Y78245D01*
X226925Y78171D01*
X226909Y78094D01*
X226905Y78015D01*
X226913Y77936D01*
X226934Y77860D01*
X226966Y77787D01*
X227009Y77721D01*
X227062Y77662D01*
X227124Y77613D01*
X227193Y77573D01*
X227267Y77545D01*
X227344Y77529D01*
X227423Y77525D01*
X227502Y77533D01*
X227579Y77554D01*
X227650Y77587D01*
X227893Y77710D01*
X228148Y77807D01*
X228410Y77880D01*
X228678Y77929D01*
X228950Y77954D01*
X229088D01*
Y71960D01*
X228950D01*
X228678Y71985D01*
X228410Y72034D01*
X228148Y72107D01*
X227893Y72204D01*
X227649Y72324D01*
X227577Y72357D01*
X227501Y72378D01*
X227423Y72386D01*
X227345Y72382D01*
X227268Y72366D01*
X227194Y72338D01*
X227126Y72299D01*
X227065Y72250D01*
X227012Y72191D01*
X226969Y72125D01*
X226937Y72053D01*
X226916Y71977D01*
X226908Y71899D01*
X226912Y71821D01*
X226928Y71744D01*
X226956Y71670D01*
X226995Y71602D01*
X227044Y71541D01*
X227103Y71488D01*
X227169Y71446D01*
X227494Y71283D01*
X227834Y71154D01*
X228184Y71056D01*
X228542Y70990D01*
X228904Y70957D01*
X229088D01*
Y51445D01*
X225802D01*
Y72822D01*
X225872Y72796D01*
X225949Y72780D01*
X226028Y72776D01*
X226107Y72784D01*
X226183Y72805D01*
X226256Y72837D01*
X226322Y72880D01*
X226381Y72933D01*
X226430Y72995D01*
X226470Y73064D01*
X226498Y73138D01*
X226514Y73215D01*
X226518Y73294D01*
X226510Y73373D01*
X226489Y73450D01*
X226456Y73521D01*
X226333Y73764D01*
X226236Y74019D01*
X226163Y74281D01*
X226114Y74549D01*
X226089Y74821D01*
Y75093D01*
X226114Y75365D01*
X226163Y75633D01*
X226236Y75895D01*
X226333Y76150D01*
X226453Y76394D01*
X226486Y76466D01*
X226507Y76542D01*
X226515Y76620D01*
X226511Y76698D01*
X226495Y76775D01*
X226467Y76849D01*
X226428Y76917D01*
X226379Y76978D01*
X226320Y77031D01*
X226254Y77074D01*
X226182Y77106D01*
X226106Y77127D01*
X226028Y77135D01*
X225950Y77131D01*
X225873Y77115D01*
X225802Y77088D01*
Y158306D01*
X226077Y158216D01*
G37*
G36*
X226184Y169463D02*X226607Y169602D01*
X227040Y169701D01*
X227481Y169761D01*
X227925Y169782D01*
X228369Y169761D01*
X228810Y169701D01*
X229088Y169638D01*
Y160083D01*
X228810Y160019D01*
X228369Y159959D01*
X227925Y159939D01*
X227481Y159959D01*
X227040Y160019D01*
X226607Y160119D01*
X226184Y160257D01*
X225802Y160422D01*
Y169294D01*
X226184Y169463D01*
G37*
G36*
X229088Y184000D02*Y171655D01*
X228548Y171729D01*
X227925Y171757D01*
X227302Y171729D01*
X226685Y171645D01*
X226077Y171505D01*
X225802Y171415D01*
Y184000D01*
X229088D01*
G37*
G36*
X225802D02*Y171415D01*
X225485Y171311D01*
X224912Y171064D01*
X224778Y170986D01*
X224657Y170888D01*
X224554Y170771D01*
X224470Y170640D01*
X224408Y170497D01*
X224368Y170347D01*
X224353Y170192D01*
X224363Y170036D01*
X224396Y169884D01*
X224453Y169739D01*
X224532Y169605D01*
X224630Y169484D01*
X224747Y169381D01*
X224878Y169297D01*
X225021Y169235D01*
X225171Y169196D01*
X225326Y169180D01*
X225482Y169190D01*
X225634Y169223D01*
X225778Y169283D01*
X225802Y169294D01*
Y160422D01*
X225775Y160433D01*
X225632Y160493D01*
X225481Y160526D01*
X225327Y160535D01*
X225172Y160520D01*
X225022Y160481D01*
X224880Y160419D01*
X224750Y160335D01*
X224634Y160233D01*
X224536Y160113D01*
X224457Y159979D01*
X224401Y159835D01*
X224368Y159684D01*
X224358Y159529D01*
X224373Y159375D01*
X224412Y159225D01*
X224475Y159083D01*
X224558Y158953D01*
X224661Y158837D01*
X224781Y158738D01*
X224915Y158663D01*
X225485Y158410D01*
X225802Y158306D01*
Y77088D01*
X225799Y77087D01*
X225731Y77048D01*
X225670Y76999D01*
X225617Y76940D01*
X225575Y76874D01*
X225412Y76549D01*
X225283Y76209D01*
X225185Y75859D01*
X225119Y75501D01*
X225086Y75139D01*
Y74775D01*
X225119Y74413D01*
X225185Y74055D01*
X225283Y73705D01*
X225412Y73365D01*
X225571Y73038D01*
X225614Y72972D01*
X225667Y72913D01*
X225729Y72863D01*
X225798Y72824D01*
X225802Y72822D01*
Y51445D01*
X225153D01*
X225055Y51453D01*
X224663Y51422D01*
X224663Y51422D01*
X224280Y51330D01*
X223917Y51179D01*
X223581Y50974D01*
X223282Y50718D01*
X223026Y50419D01*
X222821Y50083D01*
X222670Y49720D01*
X222578Y49337D01*
X222547Y48945D01*
X222555Y48847D01*
Y42153D01*
X222547Y42055D01*
X222578Y41663D01*
X222578Y41663D01*
X222670Y41280D01*
X222821Y40917D01*
X223026Y40581D01*
X223282Y40282D01*
X223581Y40026D01*
X223917Y39821D01*
X224280Y39670D01*
X224663Y39578D01*
X225055Y39547D01*
X225153Y39555D01*
X225802D01*
Y12500D01*
X222317D01*
Y161336D01*
X222439Y161304D01*
X222594Y161288D01*
X222749Y161298D01*
X222901Y161331D01*
X223046Y161388D01*
X223181Y161467D01*
X223301Y161566D01*
X223404Y161682D01*
X223488Y161813D01*
X223551Y161956D01*
X223590Y162107D01*
X223605Y162262D01*
X223596Y162417D01*
X223562Y162569D01*
X223503Y162713D01*
X223322Y163119D01*
X223184Y163542D01*
X223084Y163975D01*
X223024Y164416D01*
X223004Y164860D01*
X223024Y165305D01*
X223084Y165745D01*
X223184Y166179D01*
X223322Y166602D01*
X223498Y167010D01*
X223557Y167153D01*
X223591Y167304D01*
X223600Y167459D01*
X223585Y167613D01*
X223546Y167763D01*
X223484Y167905D01*
X223400Y168035D01*
X223297Y168151D01*
X223178Y168250D01*
X223044Y168328D01*
X222900Y168385D01*
X222749Y168418D01*
X222594Y168427D01*
X222440Y168412D01*
X222317Y168380D01*
Y184000D01*
X225802D01*
G37*
G36*
X222317D02*Y168380D01*
X222290Y168373D01*
X222148Y168311D01*
X222017Y168227D01*
X221901Y168125D01*
X221803Y168005D01*
X221727Y167870D01*
X221474Y167301D01*
X221280Y166708D01*
X221141Y166101D01*
X221056Y165483D01*
X221028Y164860D01*
X221056Y164238D01*
X221141Y163620D01*
X221280Y163012D01*
X221474Y162420D01*
X221721Y161848D01*
X221799Y161713D01*
X221898Y161593D01*
X222014Y161489D01*
X222145Y161405D01*
X222288Y161343D01*
X222317Y161336D01*
Y12500D01*
X213942D01*
Y128017D01*
X213947Y128017D01*
X214142Y128045D01*
X214330Y128102D01*
X214507Y128189D01*
X214668Y128302D01*
X214810Y128438D01*
X214928Y128595D01*
X215021Y128769D01*
X215081Y128956D01*
X215209Y129544D01*
X215270Y130143D01*
Y130745D01*
X215209Y131343D01*
X215088Y131933D01*
X215025Y132120D01*
X214932Y132294D01*
X214813Y132452D01*
X214671Y132589D01*
X214509Y132702D01*
X214332Y132789D01*
X214143Y132847D01*
X213948Y132874D01*
X213942Y132874D01*
Y155717D01*
X215618D01*
X215775Y155726D01*
X215928Y155763D01*
X216074Y155823D01*
X216208Y155905D01*
X216327Y156007D01*
X216430Y156127D01*
X216512Y156261D01*
X216572Y156407D01*
X216609Y156560D01*
X216621Y156717D01*
X216609Y156873D01*
X216572Y157027D01*
X216512Y157172D01*
X216430Y157306D01*
X216327Y157426D01*
X216208Y157528D01*
X216074Y157610D01*
X215928Y157671D01*
X215775Y157707D01*
X215618Y157717D01*
X216618D01*
Y158716D01*
X216627Y158560D01*
X216664Y158407D01*
X216724Y158261D01*
X216807Y158127D01*
X216909Y158007D01*
X217029Y157905D01*
X217163Y157823D01*
X217308Y157763D01*
X217461Y157726D01*
X217618Y157713D01*
X217775Y157726D01*
X217928Y157763D01*
X218074Y157823D01*
X218208Y157905D01*
X218327Y158007D01*
X218430Y158127D01*
X218512Y158261D01*
X218572Y158407D01*
X218609Y158560D01*
X218618Y158717D01*
Y171283D01*
X218609Y171440D01*
X218572Y171593D01*
X218512Y171739D01*
X218430Y171873D01*
X218327Y171993D01*
X218208Y172095D01*
X218074Y172177D01*
X217928Y172237D01*
X217775Y172274D01*
X217618Y172287D01*
X217461Y172274D01*
X217308Y172237D01*
X217163Y172177D01*
X217029Y172095D01*
X216909Y171993D01*
X216807Y171873D01*
X216724Y171739D01*
X216664Y171593D01*
X216627Y171440D01*
X216618Y171284D01*
Y172283D01*
X215618D01*
X215775Y172293D01*
X215928Y172329D01*
X216074Y172390D01*
X216208Y172472D01*
X216327Y172574D01*
X216430Y172694D01*
X216512Y172828D01*
X216572Y172973D01*
X216609Y173127D01*
X216621Y173283D01*
X216609Y173440D01*
X216572Y173593D01*
X216512Y173739D01*
X216430Y173873D01*
X216327Y173993D01*
X216208Y174095D01*
X216074Y174177D01*
X215928Y174237D01*
X215775Y174274D01*
X215618Y174283D01*
X213942D01*
Y184000D01*
X222317D01*
G37*
G36*
X210122Y12500D02*Y124549D01*
X210225Y124560D01*
X210814Y124680D01*
X211001Y124744D01*
X211176Y124837D01*
X211333Y124956D01*
X211471Y125098D01*
X211584Y125259D01*
X211670Y125437D01*
X211728Y125626D01*
X211756Y125821D01*
X211752Y126018D01*
X211718Y126213D01*
X211654Y126400D01*
X211561Y126574D01*
X211442Y126732D01*
X211300Y126869D01*
X211139Y126982D01*
X210961Y127069D01*
X210772Y127126D01*
X210577Y127154D01*
X210379Y127151D01*
X210186Y127113D01*
X210122Y127099D01*
Y133792D01*
X210187Y133779D01*
X210380Y133741D01*
X210577Y133738D01*
X210771Y133765D01*
X210960Y133823D01*
X211136Y133909D01*
X211298Y134022D01*
X211439Y134158D01*
X211557Y134316D01*
X211650Y134489D01*
X211714Y134675D01*
X211748Y134869D01*
X211751Y135066D01*
X211724Y135261D01*
X211666Y135449D01*
X211580Y135626D01*
X211467Y135787D01*
X211330Y135928D01*
X211173Y136047D01*
X211000Y136139D01*
X210813Y136199D01*
X210225Y136328D01*
X210122Y136338D01*
Y155717D01*
X213942D01*
Y132874D01*
X213750Y132871D01*
X213556Y132837D01*
X213369Y132772D01*
X213195Y132680D01*
X213037Y132561D01*
X212900Y132419D01*
X212787Y132257D01*
X212700Y132080D01*
X212642Y131891D01*
X212615Y131695D01*
X212618Y131498D01*
X212656Y131304D01*
X212730Y130964D01*
X212766Y130618D01*
Y130269D01*
X212730Y129923D01*
X212660Y129582D01*
X212623Y129389D01*
X212619Y129192D01*
X212647Y128997D01*
X212704Y128809D01*
X212790Y128632D01*
X212903Y128471D01*
X213040Y128330D01*
X213197Y128211D01*
X213371Y128119D01*
X213557Y128055D01*
X213751Y128021D01*
X213942Y128017D01*
Y12500D01*
X210122D01*
G37*
G36*
X213942Y184000D02*Y174283D01*
X210122D01*
Y184000D01*
X213942D01*
G37*
G36*
X210122D02*Y174283D01*
X204626D01*
X204469Y174274D01*
X204316Y174237D01*
X204171Y174177D01*
X204036Y174095D01*
X203917Y173993D01*
X203814Y173873D01*
X203732Y173739D01*
X203672Y173593D01*
X203635Y173440D01*
X203623Y173283D01*
X203635Y173127D01*
X203672Y172973D01*
X203732Y172828D01*
X203814Y172694D01*
X203917Y172574D01*
X204036Y172472D01*
X204171Y172390D01*
X204316Y172329D01*
X204469Y172293D01*
X204626Y172283D01*
X203626D01*
Y171284D01*
X203617Y171440D01*
X203580Y171593D01*
X203520Y171739D01*
X203438Y171873D01*
X203335Y171993D01*
X203216Y172095D01*
X203081Y172177D01*
X202936Y172237D01*
X202783Y172274D01*
X202626Y172287D01*
X202469Y172274D01*
X202316Y172237D01*
X202171Y172177D01*
X202036Y172095D01*
X201917Y171993D01*
X201814Y171873D01*
X201732Y171739D01*
X201672Y171593D01*
X201635Y171440D01*
X201626Y171283D01*
Y158717D01*
X201635Y158560D01*
X201672Y158407D01*
X201732Y158261D01*
X201814Y158127D01*
X201917Y158007D01*
X202036Y157905D01*
X202171Y157823D01*
X202316Y157763D01*
X202469Y157726D01*
X202626Y157713D01*
X202783Y157726D01*
X202936Y157763D01*
X203081Y157823D01*
X203216Y157905D01*
X203335Y158007D01*
X203438Y158127D01*
X203520Y158261D01*
X203580Y158407D01*
X203617Y158560D01*
X203626Y158716D01*
Y157717D01*
X204626D01*
X204469Y157707D01*
X204316Y157671D01*
X204171Y157610D01*
X204036Y157528D01*
X203917Y157426D01*
X203814Y157306D01*
X203732Y157172D01*
X203672Y157027D01*
X203635Y156873D01*
X203623Y156717D01*
X203635Y156560D01*
X203672Y156407D01*
X203732Y156261D01*
X203814Y156127D01*
X203917Y156007D01*
X204036Y155905D01*
X204171Y155823D01*
X204316Y155763D01*
X204469Y155726D01*
X204626Y155717D01*
X210122D01*
Y136338D01*
X209626Y136388D01*
X209024D01*
X208425Y136328D01*
X207836Y136207D01*
X207649Y136143D01*
X207474Y136050D01*
X207317Y135932D01*
X207180Y135790D01*
X207066Y135628D01*
X206980Y135450D01*
X206922Y135262D01*
X206894Y135066D01*
X206898Y134869D01*
X206932Y134674D01*
X206996Y134488D01*
X207089Y134313D01*
X207208Y134156D01*
X207350Y134018D01*
X207512Y133905D01*
X207689Y133819D01*
X207878Y133761D01*
X208073Y133733D01*
X208271Y133737D01*
X208464Y133775D01*
X208804Y133849D01*
X209151Y133884D01*
X209499D01*
X209846Y133849D01*
X210122Y133792D01*
Y127099D01*
X209846Y127038D01*
X209499Y127003D01*
X209151D01*
X208804Y127038D01*
X208463Y127108D01*
X208270Y127146D01*
X208074Y127150D01*
X207879Y127122D01*
X207691Y127065D01*
X207514Y126978D01*
X207353Y126865D01*
X207211Y126729D01*
X207093Y126572D01*
X207000Y126398D01*
X206936Y126212D01*
X206902Y126018D01*
X206899Y125821D01*
X206926Y125626D01*
X206984Y125438D01*
X207070Y125262D01*
X207183Y125100D01*
X207320Y124959D01*
X207477Y124840D01*
X207651Y124748D01*
X207838Y124688D01*
X208425Y124560D01*
X209024Y124499D01*
X209626D01*
X210122Y124549D01*
Y12500D01*
X198000D01*
Y13000D01*
X200750D01*
X200946Y13012D01*
X201137Y13058D01*
X201319Y13133D01*
X201487Y13236D01*
X201637Y13363D01*
X201764Y13513D01*
X201867Y13681D01*
X201942Y13863D01*
X201988Y14054D01*
X202004Y14250D01*
X201988Y14446D01*
X201942Y14637D01*
X201867Y14819D01*
X201764Y14987D01*
X201637Y15137D01*
X201487Y15264D01*
X201319Y15367D01*
X201137Y15442D01*
X200946Y15488D01*
X200750Y15500D01*
X202000D01*
Y16750D01*
X202012Y16554D01*
X202058Y16363D01*
X202133Y16181D01*
X202236Y16013D01*
X202363Y15863D01*
X202513Y15736D01*
X202681Y15633D01*
X202863Y15558D01*
X203054Y15512D01*
X203250Y15496D01*
X203446Y15512D01*
X203637Y15558D01*
X203819Y15633D01*
X203987Y15736D01*
X204137Y15863D01*
X204264Y16013D01*
X204367Y16181D01*
X204442Y16363D01*
X204488Y16554D01*
X204500Y16750D01*
Y22250D01*
X204488Y22446D01*
X204442Y22637D01*
X204367Y22819D01*
X204264Y22987D01*
X204137Y23137D01*
X203987Y23264D01*
X203819Y23367D01*
X203637Y23442D01*
X203446Y23488D01*
X203250Y23504D01*
X203054Y23488D01*
X202863Y23442D01*
X202681Y23367D01*
X202513Y23264D01*
X202363Y23137D01*
X202236Y22987D01*
X202133Y22819D01*
X202058Y22637D01*
X202012Y22446D01*
X202000Y22250D01*
Y23500D01*
X200750D01*
X200946Y23512D01*
X201137Y23558D01*
X201319Y23633D01*
X201487Y23736D01*
X201637Y23863D01*
X201764Y24013D01*
X201867Y24181D01*
X201942Y24363D01*
X201988Y24554D01*
X202004Y24750D01*
X201988Y24946D01*
X201942Y25137D01*
X201867Y25319D01*
X201764Y25487D01*
X201637Y25637D01*
X201487Y25764D01*
X201319Y25867D01*
X201137Y25942D01*
X200946Y25988D01*
X200750Y26000D01*
X198000D01*
Y124499D01*
X202829D01*
X202927Y124491D01*
X203320Y124522D01*
X203320Y124522D01*
X203702Y124614D01*
X204066Y124764D01*
X204401Y124970D01*
X204701Y125226D01*
X204956Y125525D01*
X205162Y125860D01*
X205312Y126224D01*
X205404Y126606D01*
X205435Y126999D01*
X205427Y127097D01*
Y128193D01*
X205455Y128208D01*
X205613Y128326D01*
X205750Y128468D01*
X205864Y128630D01*
X205950Y128808D01*
X206008Y128996D01*
X206035Y129192D01*
X206032Y129389D01*
X205994Y129583D01*
X205920Y129923D01*
X205885Y130269D01*
Y130618D01*
X205920Y130964D01*
X205990Y131306D01*
X206028Y131498D01*
X206031Y131695D01*
X206004Y131890D01*
X205946Y132078D01*
X205860Y132255D01*
X205747Y132416D01*
X205610Y132558D01*
X205453Y132676D01*
X205427Y132690D01*
Y133791D01*
X205435Y133888D01*
X205404Y134281D01*
X205404Y134281D01*
X205312Y134663D01*
X205162Y135027D01*
X204956Y135362D01*
X204701Y135662D01*
X204401Y135917D01*
X204066Y136123D01*
X203702Y136273D01*
X203320Y136365D01*
X202927Y136396D01*
X202829Y136388D01*
X198000D01*
Y184000D01*
X210122D01*
G37*
G36*
X198000D02*Y136388D01*
X196136D01*
X196038Y136396D01*
X195646Y136365D01*
X195645Y136365D01*
X195263Y136273D01*
X194899Y136123D01*
X194564Y135917D01*
X194264Y135662D01*
X194009Y135362D01*
X193803Y135027D01*
X193653Y134663D01*
X193561Y134281D01*
X193530Y133888D01*
X193538Y133790D01*
Y127097D01*
X193530Y126999D01*
X193561Y126607D01*
X193561Y126606D01*
X193653Y126224D01*
X193803Y125860D01*
X194009Y125525D01*
X194264Y125226D01*
X194564Y124970D01*
X194899Y124764D01*
X195263Y124614D01*
X195645Y124522D01*
X196038Y124491D01*
X196136Y124499D01*
X198000D01*
Y26000D01*
X195250D01*
X195054Y25988D01*
X194863Y25942D01*
X194681Y25867D01*
X194513Y25764D01*
X194363Y25637D01*
X194236Y25487D01*
X194133Y25319D01*
X194058Y25137D01*
X194012Y24946D01*
X193996Y24750D01*
X194012Y24554D01*
X194058Y24363D01*
X194133Y24181D01*
X194236Y24013D01*
X194363Y23863D01*
X194513Y23736D01*
X194681Y23633D01*
X194863Y23558D01*
X195054Y23512D01*
X195250Y23500D01*
X194000D01*
Y22250D01*
X193988Y22446D01*
X193942Y22637D01*
X193867Y22819D01*
X193764Y22987D01*
X193637Y23137D01*
X193487Y23264D01*
X193319Y23367D01*
X193137Y23442D01*
X192946Y23488D01*
X192750Y23504D01*
X192554Y23488D01*
X192363Y23442D01*
X192181Y23367D01*
X192013Y23264D01*
X191863Y23137D01*
X191736Y22987D01*
X191633Y22819D01*
X191558Y22637D01*
X191512Y22446D01*
X191500Y22250D01*
Y16750D01*
X191512Y16554D01*
X191558Y16363D01*
X191633Y16181D01*
X191736Y16013D01*
X191863Y15863D01*
X192013Y15736D01*
X192181Y15633D01*
X192363Y15558D01*
X192554Y15512D01*
X192750Y15496D01*
X192946Y15512D01*
X193137Y15558D01*
X193319Y15633D01*
X193487Y15736D01*
X193637Y15863D01*
X193764Y16013D01*
X193867Y16181D01*
X193942Y16363D01*
X193988Y16554D01*
X194000Y16750D01*
Y15500D01*
X195250D01*
X195054Y15488D01*
X194863Y15442D01*
X194681Y15367D01*
X194513Y15264D01*
X194363Y15137D01*
X194236Y14987D01*
X194133Y14819D01*
X194058Y14637D01*
X194012Y14446D01*
X193996Y14250D01*
X194012Y14054D01*
X194058Y13863D01*
X194133Y13681D01*
X194236Y13513D01*
X194363Y13363D01*
X194513Y13236D01*
X194681Y13133D01*
X194863Y13058D01*
X195054Y13012D01*
X195250Y13000D01*
X198000D01*
Y12500D01*
X182836D01*
Y79369D01*
X182839Y79370D01*
X182907Y79409D01*
X182968Y79458D01*
X183021Y79517D01*
X183063Y79583D01*
X183226Y79908D01*
X183355Y80248D01*
X183453Y80598D01*
X183519Y80956D01*
X183552Y81318D01*
Y81682D01*
X183519Y82044D01*
X183453Y82402D01*
X183355Y82752D01*
X183226Y83092D01*
X183067Y83419D01*
X183024Y83485D01*
X182971Y83544D01*
X182909Y83594D01*
X182840Y83633D01*
X182836Y83635D01*
Y155717D01*
X192918D01*
X192996Y155710D01*
X193310Y155735D01*
X193310Y155735D01*
X193616Y155809D01*
X193907Y155929D01*
X194175Y156094D01*
X194415Y156298D01*
X194619Y156537D01*
X194784Y156806D01*
X194904Y157097D01*
X194978Y157403D01*
X195002Y157717D01*
X194996Y157795D01*
Y172205D01*
X195002Y172283D01*
X194978Y172597D01*
X194978Y172597D01*
X194904Y172903D01*
X194784Y173194D01*
X194619Y173463D01*
X194415Y173702D01*
X194175Y173906D01*
X193907Y174071D01*
X193616Y174191D01*
X193310Y174265D01*
X192996Y174290D01*
X192918Y174283D01*
X182836D01*
Y184000D01*
X198000D01*
G37*
G36*
X179554Y12500D02*Y77500D01*
X179734D01*
X180096Y77533D01*
X180454Y77599D01*
X180804Y77697D01*
X181144Y77826D01*
X181471Y77985D01*
X181537Y78028D01*
X181596Y78081D01*
X181646Y78143D01*
X181685Y78212D01*
X181713Y78286D01*
X181730Y78363D01*
X181733Y78442D01*
X181725Y78521D01*
X181704Y78597D01*
X181672Y78670D01*
X181629Y78736D01*
X181576Y78795D01*
X181514Y78844D01*
X181445Y78884D01*
X181371Y78912D01*
X181294Y78928D01*
X181215Y78932D01*
X181136Y78924D01*
X181059Y78903D01*
X180988Y78870D01*
X180745Y78747D01*
X180490Y78650D01*
X180228Y78577D01*
X179960Y78528D01*
X179688Y78503D01*
X179554D01*
Y84497D01*
X179688D01*
X179960Y84472D01*
X180228Y84423D01*
X180490Y84350D01*
X180745Y84253D01*
X180989Y84133D01*
X181061Y84100D01*
X181137Y84079D01*
X181215Y84071D01*
X181293Y84075D01*
X181370Y84091D01*
X181444Y84119D01*
X181512Y84158D01*
X181573Y84207D01*
X181626Y84266D01*
X181669Y84332D01*
X181701Y84404D01*
X181722Y84480D01*
X181730Y84558D01*
X181726Y84636D01*
X181710Y84713D01*
X181682Y84787D01*
X181643Y84855D01*
X181594Y84916D01*
X181535Y84969D01*
X181469Y85011D01*
X181144Y85174D01*
X180804Y85303D01*
X180454Y85401D01*
X180096Y85467D01*
X179734Y85500D01*
X179554D01*
Y155768D01*
X179690Y155735D01*
X180004Y155710D01*
X180082Y155717D01*
X182836D01*
Y83635D01*
X182766Y83661D01*
X182689Y83678D01*
X182610Y83681D01*
X182531Y83673D01*
X182455Y83652D01*
X182382Y83620D01*
X182316Y83577D01*
X182257Y83524D01*
X182208Y83462D01*
X182168Y83393D01*
X182140Y83319D01*
X182124Y83242D01*
X182120Y83163D01*
X182128Y83084D01*
X182149Y83007D01*
X182182Y82936D01*
X182305Y82693D01*
X182402Y82438D01*
X182475Y82176D01*
X182524Y81908D01*
X182549Y81636D01*
Y81364D01*
X182524Y81092D01*
X182475Y80824D01*
X182402Y80562D01*
X182305Y80307D01*
X182185Y80063D01*
X182152Y79991D01*
X182131Y79915D01*
X182123Y79837D01*
X182127Y79759D01*
X182143Y79682D01*
X182171Y79608D01*
X182210Y79540D01*
X182259Y79479D01*
X182318Y79426D01*
X182384Y79383D01*
X182456Y79351D01*
X182532Y79330D01*
X182610Y79322D01*
X182688Y79326D01*
X182765Y79342D01*
X182836Y79369D01*
Y12500D01*
X179554D01*
G37*
G36*
X182836Y184000D02*Y174283D01*
X180082D01*
X180004Y174290D01*
X179690Y174265D01*
X179690Y174265D01*
X179554Y174232D01*
Y184000D01*
X182836D01*
G37*
G36*
X176268Y12500D02*Y79365D01*
X176338Y79339D01*
X176415Y79323D01*
X176494Y79319D01*
X176573Y79327D01*
X176649Y79348D01*
X176722Y79380D01*
X176788Y79423D01*
X176847Y79476D01*
X176896Y79538D01*
X176936Y79607D01*
X176964Y79681D01*
X176980Y79758D01*
X176984Y79837D01*
X176976Y79916D01*
X176955Y79993D01*
X176922Y80064D01*
X176799Y80307D01*
X176702Y80562D01*
X176629Y80824D01*
X176580Y81092D01*
X176555Y81364D01*
Y81636D01*
X176580Y81908D01*
X176629Y82176D01*
X176702Y82438D01*
X176799Y82693D01*
X176919Y82937D01*
X176952Y83009D01*
X176973Y83085D01*
X176981Y83163D01*
X176977Y83241D01*
X176961Y83318D01*
X176933Y83392D01*
X176894Y83460D01*
X176845Y83521D01*
X176786Y83574D01*
X176720Y83617D01*
X176648Y83649D01*
X176572Y83670D01*
X176494Y83678D01*
X176416Y83674D01*
X176339Y83658D01*
X176268Y83631D01*
Y162000D01*
X178004D01*
Y157795D01*
X177998Y157717D01*
X178022Y157403D01*
X178022Y157403D01*
X178096Y157097D01*
X178216Y156806D01*
X178381Y156537D01*
X178585Y156298D01*
X178825Y156094D01*
X179093Y155929D01*
X179384Y155809D01*
X179554Y155768D01*
Y85500D01*
X179370D01*
X179008Y85467D01*
X178650Y85401D01*
X178300Y85303D01*
X177960Y85174D01*
X177633Y85015D01*
X177567Y84972D01*
X177508Y84919D01*
X177458Y84857D01*
X177419Y84788D01*
X177391Y84714D01*
X177375Y84637D01*
X177371Y84558D01*
X177379Y84479D01*
X177400Y84403D01*
X177432Y84330D01*
X177475Y84264D01*
X177528Y84205D01*
X177590Y84156D01*
X177659Y84116D01*
X177733Y84088D01*
X177810Y84072D01*
X177889Y84068D01*
X177968Y84076D01*
X178045Y84097D01*
X178116Y84130D01*
X178359Y84253D01*
X178614Y84350D01*
X178876Y84423D01*
X179144Y84472D01*
X179416Y84497D01*
X179554D01*
Y78503D01*
X179416D01*
X179144Y78528D01*
X178876Y78577D01*
X178614Y78650D01*
X178359Y78747D01*
X178115Y78867D01*
X178043Y78900D01*
X177967Y78921D01*
X177889Y78929D01*
X177811Y78925D01*
X177734Y78909D01*
X177660Y78881D01*
X177592Y78842D01*
X177531Y78793D01*
X177478Y78734D01*
X177435Y78668D01*
X177403Y78596D01*
X177382Y78520D01*
X177374Y78442D01*
X177378Y78364D01*
X177394Y78287D01*
X177422Y78213D01*
X177461Y78145D01*
X177510Y78084D01*
X177569Y78031D01*
X177635Y77989D01*
X177960Y77826D01*
X178300Y77697D01*
X178650Y77599D01*
X179008Y77533D01*
X179370Y77500D01*
X179554D01*
Y12500D01*
X176268D01*
G37*
G36*
X173784D02*Y54369D01*
X173787Y54370D01*
X173855Y54409D01*
X173916Y54458D01*
X173969Y54517D01*
X174011Y54583D01*
X174174Y54908D01*
X174303Y55248D01*
X174401Y55598D01*
X174467Y55956D01*
X174500Y56318D01*
Y56682D01*
X174467Y57044D01*
X174401Y57402D01*
X174303Y57752D01*
X174174Y58092D01*
X174015Y58419D01*
X173972Y58485D01*
X173919Y58544D01*
X173857Y58594D01*
X173788Y58633D01*
X173784Y58635D01*
Y128334D01*
X173872Y128268D01*
X174046Y128175D01*
X174232Y128111D01*
X174426Y128077D01*
X174622Y128074D01*
X174817Y128101D01*
X175005Y128159D01*
X175182Y128245D01*
X175343Y128358D01*
X175485Y128495D01*
X175603Y128652D01*
X175695Y128825D01*
X175756Y129012D01*
X175884Y129600D01*
X175945Y130199D01*
Y130801D01*
X175884Y131400D01*
X175763Y131989D01*
X175700Y132176D01*
X175607Y132351D01*
X175488Y132508D01*
X175346Y132646D01*
X175184Y132759D01*
X175007Y132845D01*
X174818Y132903D01*
X174623Y132931D01*
X174425Y132927D01*
X174231Y132893D01*
X174044Y132829D01*
X173870Y132736D01*
X173784Y132671D01*
Y157965D01*
X173791Y157964D01*
X174100Y157989D01*
X174100Y157989D01*
X174401Y158061D01*
X174688Y158180D01*
X174952Y158342D01*
X175187Y158543D01*
X175389Y158778D01*
X175551Y159043D01*
X175669Y159329D01*
X175742Y159630D01*
X175766Y159939D01*
X175760Y160016D01*
Y162000D01*
X176268D01*
Y83631D01*
X176265Y83630D01*
X176197Y83591D01*
X176136Y83542D01*
X176083Y83483D01*
X176041Y83417D01*
X175878Y83092D01*
X175749Y82752D01*
X175651Y82402D01*
X175585Y82044D01*
X175552Y81682D01*
Y81318D01*
X175585Y80956D01*
X175651Y80598D01*
X175749Y80248D01*
X175878Y79908D01*
X176037Y79581D01*
X176080Y79515D01*
X176133Y79456D01*
X176195Y79406D01*
X176264Y79367D01*
X176268Y79365D01*
Y12500D01*
X173784D01*
G37*
G36*
X179554Y184000D02*Y174232D01*
X179384Y174191D01*
X179093Y174071D01*
X178825Y173906D01*
X178585Y173702D01*
X178381Y173463D01*
X178216Y173194D01*
X178096Y172903D01*
X178022Y172597D01*
X177998Y172283D01*
X178004Y172205D01*
Y168000D01*
X175760D01*
Y169704D01*
X175766Y169782D01*
X175742Y170090D01*
X175742Y170090D01*
X175669Y170392D01*
X175551Y170678D01*
X175389Y170942D01*
X175187Y171178D01*
X174952Y171379D01*
X174688Y171541D01*
X174401Y171660D01*
X174100Y171732D01*
X173791Y171756D01*
X173784Y171756D01*
Y184000D01*
X179554D01*
G37*
G36*
X170502Y12500D02*Y52500D01*
X170682D01*
X171044Y52533D01*
X171402Y52599D01*
X171752Y52697D01*
X172092Y52826D01*
X172419Y52985D01*
X172485Y53028D01*
X172544Y53081D01*
X172594Y53143D01*
X172633Y53212D01*
X172661Y53286D01*
X172678Y53363D01*
X172681Y53442D01*
X172673Y53521D01*
X172652Y53597D01*
X172620Y53670D01*
X172577Y53736D01*
X172524Y53795D01*
X172462Y53844D01*
X172393Y53884D01*
X172319Y53912D01*
X172242Y53928D01*
X172163Y53932D01*
X172084Y53924D01*
X172007Y53903D01*
X171936Y53870D01*
X171693Y53747D01*
X171438Y53650D01*
X171176Y53577D01*
X170908Y53528D01*
X170636Y53503D01*
X170502D01*
Y59497D01*
X170636D01*
X170908Y59472D01*
X171176Y59423D01*
X171438Y59350D01*
X171693Y59253D01*
X171937Y59133D01*
X172009Y59100D01*
X172085Y59079D01*
X172163Y59071D01*
X172241Y59075D01*
X172318Y59091D01*
X172392Y59119D01*
X172460Y59158D01*
X172521Y59207D01*
X172574Y59266D01*
X172617Y59332D01*
X172649Y59404D01*
X172670Y59480D01*
X172678Y59558D01*
X172674Y59636D01*
X172658Y59713D01*
X172630Y59787D01*
X172591Y59855D01*
X172542Y59916D01*
X172483Y59969D01*
X172417Y60011D01*
X172092Y60174D01*
X171752Y60303D01*
X171402Y60401D01*
X171044Y60467D01*
X170682Y60500D01*
X170502D01*
Y99496D01*
X170875Y99725D01*
X171653Y100390D01*
X172318Y101168D01*
X172852Y102040D01*
X173244Y102985D01*
X173483Y103980D01*
X173543Y105000D01*
X173483Y106020D01*
X173244Y107015D01*
X172852Y107960D01*
X172318Y108832D01*
X171653Y109610D01*
X170875Y110275D01*
X170502Y110504D01*
Y124575D01*
X170900Y124616D01*
X171489Y124737D01*
X171676Y124800D01*
X171851Y124893D01*
X172008Y125012D01*
X172146Y125154D01*
X172259Y125316D01*
X172345Y125493D01*
X172403Y125682D01*
X172431Y125877D01*
X172427Y126075D01*
X172393Y126269D01*
X172329Y126456D01*
X172236Y126630D01*
X172117Y126788D01*
X171975Y126925D01*
X171814Y127039D01*
X171636Y127125D01*
X171447Y127183D01*
X171252Y127210D01*
X171054Y127207D01*
X170861Y127169D01*
X170521Y127095D01*
X170502Y127093D01*
Y133907D01*
X170521Y133905D01*
X170862Y133835D01*
X171055Y133797D01*
X171251Y133794D01*
X171446Y133821D01*
X171634Y133879D01*
X171811Y133965D01*
X171972Y134078D01*
X172114Y134215D01*
X172232Y134372D01*
X172325Y134546D01*
X172389Y134732D01*
X172423Y134926D01*
X172426Y135122D01*
X172399Y135317D01*
X172341Y135505D01*
X172255Y135682D01*
X172142Y135843D01*
X172005Y135985D01*
X171848Y136103D01*
X171675Y136195D01*
X171488Y136256D01*
X170900Y136384D01*
X170502Y136425D01*
Y145760D01*
X171520D01*
X171559Y145757D01*
X171716Y145769D01*
X171716Y145769D01*
X171869Y145806D01*
X172014Y145866D01*
X172149Y145948D01*
X172268Y146051D01*
X172371Y146170D01*
X172453Y146305D01*
X172513Y146450D01*
X172550Y146603D01*
X172562Y146760D01*
X172559Y146799D01*
Y154201D01*
X172562Y154240D01*
X172550Y154397D01*
X172550Y154397D01*
X172513Y154550D01*
X172453Y154695D01*
X172371Y154830D01*
X172268Y154949D01*
X172149Y155052D01*
X172014Y155134D01*
X171870Y155194D01*
Y157971D01*
X173714D01*
X173784Y157965D01*
Y132671D01*
X173712Y132617D01*
X173575Y132475D01*
X173461Y132314D01*
X173375Y132136D01*
X173317Y131947D01*
X173290Y131752D01*
X173293Y131554D01*
X173331Y131361D01*
X173405Y131021D01*
X173440Y130674D01*
Y130326D01*
X173405Y129979D01*
X173335Y129638D01*
X173297Y129445D01*
X173294Y129249D01*
X173321Y129054D01*
X173379Y128866D01*
X173465Y128689D01*
X173578Y128528D01*
X173715Y128386D01*
X173784Y128334D01*
Y58635D01*
X173714Y58661D01*
X173637Y58678D01*
X173558Y58681D01*
X173479Y58673D01*
X173403Y58652D01*
X173330Y58620D01*
X173264Y58577D01*
X173205Y58524D01*
X173156Y58462D01*
X173116Y58393D01*
X173088Y58319D01*
X173072Y58242D01*
X173068Y58163D01*
X173076Y58084D01*
X173097Y58007D01*
X173130Y57936D01*
X173253Y57693D01*
X173350Y57438D01*
X173423Y57176D01*
X173472Y56908D01*
X173497Y56636D01*
Y56364D01*
X173472Y56092D01*
X173423Y55824D01*
X173350Y55562D01*
X173253Y55307D01*
X173133Y55063D01*
X173100Y54991D01*
X173079Y54915D01*
X173071Y54837D01*
X173075Y54759D01*
X173091Y54682D01*
X173119Y54608D01*
X173158Y54540D01*
X173207Y54479D01*
X173266Y54426D01*
X173332Y54383D01*
X173404Y54351D01*
X173480Y54330D01*
X173558Y54322D01*
X173636Y54326D01*
X173713Y54342D01*
X173784Y54369D01*
Y12500D01*
X170502D01*
G37*
G36*
X173784Y184000D02*Y171756D01*
X173714Y171750D01*
X170502D01*
Y184000D01*
X173784D01*
G37*
G36*
X168063Y98560D02*X169058Y98799D01*
X170003Y99191D01*
X170502Y99496D01*
Y60500D01*
X170318D01*
X169956Y60467D01*
X169598Y60401D01*
X169248Y60303D01*
X168908Y60174D01*
X168581Y60015D01*
X168515Y59972D01*
X168456Y59919D01*
X168406Y59857D01*
X168367Y59788D01*
X168339Y59714D01*
X168323Y59637D01*
X168319Y59558D01*
X168327Y59479D01*
X168348Y59403D01*
X168380Y59330D01*
X168423Y59264D01*
X168476Y59205D01*
X168538Y59156D01*
X168607Y59116D01*
X168681Y59088D01*
X168758Y59072D01*
X168837Y59068D01*
X168916Y59076D01*
X168993Y59097D01*
X169064Y59130D01*
X169307Y59253D01*
X169562Y59350D01*
X169824Y59423D01*
X170092Y59472D01*
X170364Y59497D01*
X170502D01*
Y53503D01*
X170364D01*
X170092Y53528D01*
X169824Y53577D01*
X169562Y53650D01*
X169307Y53747D01*
X169063Y53867D01*
X168991Y53900D01*
X168915Y53921D01*
X168837Y53929D01*
X168759Y53925D01*
X168682Y53909D01*
X168608Y53881D01*
X168540Y53842D01*
X168479Y53793D01*
X168426Y53734D01*
X168383Y53668D01*
X168351Y53596D01*
X168330Y53520D01*
X168322Y53442D01*
X168326Y53364D01*
X168342Y53287D01*
X168370Y53213D01*
X168409Y53145D01*
X168458Y53084D01*
X168517Y53031D01*
X168583Y52989D01*
X168908Y52826D01*
X169248Y52697D01*
X169598Y52599D01*
X169956Y52533D01*
X170318Y52500D01*
X170502D01*
Y12500D01*
X167216D01*
Y54365D01*
X167286Y54339D01*
X167363Y54323D01*
X167442Y54319D01*
X167521Y54327D01*
X167597Y54348D01*
X167670Y54380D01*
X167736Y54423D01*
X167795Y54476D01*
X167844Y54538D01*
X167884Y54607D01*
X167912Y54681D01*
X167928Y54758D01*
X167932Y54837D01*
X167924Y54916D01*
X167903Y54993D01*
X167870Y55064D01*
X167747Y55307D01*
X167650Y55562D01*
X167577Y55824D01*
X167528Y56092D01*
X167503Y56364D01*
Y56636D01*
X167528Y56908D01*
X167577Y57176D01*
X167650Y57438D01*
X167747Y57693D01*
X167867Y57937D01*
X167900Y58009D01*
X167921Y58085D01*
X167929Y58163D01*
X167925Y58241D01*
X167909Y58318D01*
X167881Y58392D01*
X167842Y58460D01*
X167793Y58521D01*
X167734Y58574D01*
X167668Y58617D01*
X167596Y58649D01*
X167520Y58670D01*
X167442Y58678D01*
X167364Y58674D01*
X167287Y58658D01*
X167216Y58631D01*
Y98494D01*
X168063Y98560D01*
G37*
G36*
X170502Y145760D02*Y136425D01*
X170301Y136445D01*
X169699D01*
X169100Y136384D01*
X168511Y136263D01*
X168324Y136200D01*
X168149Y136107D01*
X167992Y135988D01*
X167854Y135846D01*
X167741Y135684D01*
X167655Y135507D01*
X167597Y135318D01*
X167569Y135123D01*
X167573Y134925D01*
X167607Y134731D01*
X167671Y134544D01*
X167764Y134370D01*
X167883Y134212D01*
X168025Y134075D01*
X168186Y133961D01*
X168364Y133875D01*
X168553Y133817D01*
X168748Y133790D01*
X168946Y133793D01*
X169139Y133831D01*
X169479Y133905D01*
X169826Y133940D01*
X170174D01*
X170502Y133907D01*
Y127093D01*
X170174Y127060D01*
X169826D01*
X169479Y127095D01*
X169138Y127165D01*
X168945Y127203D01*
X168749Y127206D01*
X168554Y127179D01*
X168366Y127121D01*
X168189Y127035D01*
X168028Y126922D01*
X167886Y126785D01*
X167768Y126628D01*
X167675Y126454D01*
X167611Y126268D01*
X167577Y126074D01*
X167574Y125878D01*
X167601Y125683D01*
X167659Y125495D01*
X167745Y125318D01*
X167858Y125157D01*
X167995Y125015D01*
X168152Y124897D01*
X168325Y124805D01*
X168512Y124744D01*
X169100Y124616D01*
X169699Y124555D01*
X170301D01*
X170502Y124575D01*
Y110504D01*
X170003Y110809D01*
X169058Y111201D01*
X168063Y111440D01*
X167216Y111506D01*
Y145760D01*
X170502D01*
G37*
G36*
Y184000D02*Y171750D01*
X167216D01*
Y184000D01*
X170502D01*
G37*
G36*
X167216D02*Y171750D01*
X164026D01*
X163949Y171756D01*
X163640Y171732D01*
X163640Y171732D01*
X163339Y171660D01*
X163052Y171541D01*
X162788Y171379D01*
X162552Y171178D01*
X162351Y170942D01*
X162189Y170678D01*
X162071Y170392D01*
X161998Y170090D01*
X161974Y169782D01*
X161980Y169704D01*
Y160016D01*
X161974Y159939D01*
X161998Y159630D01*
X161998Y159630D01*
X162071Y159329D01*
X162189Y159043D01*
X162351Y158778D01*
X162552Y158543D01*
X162788Y158342D01*
X163052Y158180D01*
X163339Y158061D01*
X163640Y157989D01*
X163949Y157964D01*
X164026Y157971D01*
X165870D01*
Y155063D01*
X165851Y155052D01*
X165732Y154949D01*
X165629Y154830D01*
X165547Y154695D01*
X165487Y154550D01*
X165450Y154397D01*
X165438Y154240D01*
X165441Y154201D01*
Y146799D01*
X165438Y146760D01*
X165450Y146603D01*
X165450Y146603D01*
X165487Y146450D01*
X165547Y146305D01*
X165629Y146170D01*
X165732Y146051D01*
X165851Y145948D01*
X165986Y145866D01*
X166131Y145806D01*
X166284Y145769D01*
X166441Y145757D01*
X166480Y145760D01*
X167216D01*
Y111506D01*
X167043Y111520D01*
X166023Y111440D01*
X165028Y111201D01*
X164083Y110809D01*
X163211Y110275D01*
X162433Y109610D01*
X161768Y108832D01*
X161234Y107960D01*
X160842Y107015D01*
X160603Y106020D01*
X160523Y105000D01*
X160603Y103980D01*
X160842Y102985D01*
X161234Y102040D01*
X161768Y101168D01*
X162433Y100390D01*
X163211Y99725D01*
X164083Y99191D01*
X165028Y98799D01*
X166023Y98560D01*
X167043Y98480D01*
X167216Y98494D01*
Y58631D01*
X167213Y58630D01*
X167145Y58591D01*
X167084Y58542D01*
X167031Y58483D01*
X166989Y58417D01*
X166826Y58092D01*
X166697Y57752D01*
X166599Y57402D01*
X166533Y57044D01*
X166500Y56682D01*
Y56318D01*
X166533Y55956D01*
X166599Y55598D01*
X166697Y55248D01*
X166826Y54908D01*
X166985Y54581D01*
X167028Y54515D01*
X167081Y54456D01*
X167143Y54406D01*
X167212Y54367D01*
X167216Y54365D01*
Y12500D01*
X157190D01*
Y124555D01*
X163504D01*
X163602Y124547D01*
X163994Y124578D01*
X163995Y124578D01*
X164377Y124670D01*
X164741Y124821D01*
X165076Y125026D01*
X165376Y125282D01*
X165631Y125581D01*
X165837Y125917D01*
X165987Y126280D01*
X166079Y126663D01*
X166110Y127055D01*
X166102Y127153D01*
Y128249D01*
X166130Y128264D01*
X166288Y128383D01*
X166425Y128525D01*
X166539Y128686D01*
X166625Y128864D01*
X166683Y129053D01*
X166710Y129248D01*
X166707Y129446D01*
X166669Y129639D01*
X166595Y129979D01*
X166560Y130326D01*
Y130674D01*
X166595Y131021D01*
X166665Y131362D01*
X166703Y131555D01*
X166706Y131751D01*
X166679Y131946D01*
X166621Y132134D01*
X166535Y132311D01*
X166422Y132472D01*
X166285Y132614D01*
X166128Y132732D01*
X166102Y132746D01*
Y133847D01*
X166110Y133945D01*
X166079Y134337D01*
X166079Y134337D01*
X165987Y134720D01*
X165837Y135083D01*
X165631Y135419D01*
X165376Y135718D01*
X165076Y135974D01*
X164741Y136179D01*
X164377Y136330D01*
X163995Y136422D01*
X163602Y136453D01*
X163504Y136445D01*
X157190D01*
Y145760D01*
X159249D01*
X159327Y145765D01*
X159404Y145783D01*
X159477Y145813D01*
X159544Y145854D01*
X159604Y145905D01*
X159655Y145965D01*
X159696Y146032D01*
X159726Y146105D01*
X159744Y146182D01*
X159751Y146260D01*
X159744Y146338D01*
X159726Y146415D01*
X159696Y146488D01*
X159655Y146555D01*
X159604Y146615D01*
X159544Y146666D01*
X159477Y146707D01*
X159404Y146737D01*
X159327Y146755D01*
X159249Y146760D01*
X159749D01*
Y147260D01*
X159754Y147182D01*
X159772Y147105D01*
X159802Y147032D01*
X159843Y146965D01*
X159894Y146905D01*
X159954Y146854D01*
X160021Y146813D01*
X160094Y146783D01*
X160171Y146765D01*
X160249Y146758D01*
X160327Y146765D01*
X160404Y146783D01*
X160477Y146813D01*
X160544Y146854D01*
X160604Y146905D01*
X160655Y146965D01*
X160696Y147032D01*
X160726Y147105D01*
X160744Y147182D01*
X160749Y147260D01*
Y153740D01*
X160744Y153818D01*
X160726Y153895D01*
X160696Y153968D01*
X160655Y154035D01*
X160604Y154095D01*
X160544Y154146D01*
X160477Y154187D01*
X160404Y154217D01*
X160327Y154235D01*
X160249Y154242D01*
X160171Y154235D01*
X160094Y154217D01*
X160021Y154187D01*
X159954Y154146D01*
X159894Y154095D01*
X159843Y154035D01*
X159802Y153968D01*
X159772Y153895D01*
X159754Y153818D01*
X159749Y153740D01*
Y154240D01*
X159249D01*
X159327Y154245D01*
X159404Y154263D01*
X159477Y154293D01*
X159544Y154334D01*
X159604Y154385D01*
X159655Y154445D01*
X159696Y154512D01*
X159726Y154585D01*
X159744Y154662D01*
X159751Y154740D01*
X159744Y154818D01*
X159726Y154895D01*
X159696Y154968D01*
X159655Y155035D01*
X159604Y155095D01*
X159544Y155146D01*
X159477Y155187D01*
X159404Y155217D01*
X159327Y155235D01*
X159249Y155240D01*
X157190D01*
Y184000D01*
X167216D01*
G37*
G36*
X157190D02*Y155240D01*
X155131D01*
X155053Y155235D01*
X154976Y155217D01*
X154903Y155187D01*
X154836Y155146D01*
X154776Y155095D01*
X154725Y155035D01*
X154684Y154968D01*
X154654Y154895D01*
X154636Y154818D01*
X154629Y154740D01*
X154636Y154662D01*
X154654Y154585D01*
X154684Y154512D01*
X154725Y154445D01*
X154776Y154385D01*
X154836Y154334D01*
X154903Y154293D01*
X154976Y154263D01*
X155053Y154245D01*
X155131Y154240D01*
X154631D01*
Y153740D01*
X154626Y153818D01*
X154608Y153895D01*
X154578Y153968D01*
X154537Y154035D01*
X154486Y154095D01*
X154426Y154146D01*
X154359Y154187D01*
X154286Y154217D01*
X154209Y154235D01*
X154131Y154242D01*
X154053Y154235D01*
X153976Y154217D01*
X153903Y154187D01*
X153836Y154146D01*
X153776Y154095D01*
X153725Y154035D01*
X153684Y153968D01*
X153654Y153895D01*
X153636Y153818D01*
X153631Y153740D01*
Y147260D01*
X153636Y147182D01*
X153654Y147105D01*
X153684Y147032D01*
X153725Y146965D01*
X153776Y146905D01*
X153836Y146854D01*
X153903Y146813D01*
X153976Y146783D01*
X154053Y146765D01*
X154131Y146758D01*
X154209Y146765D01*
X154286Y146783D01*
X154359Y146813D01*
X154426Y146854D01*
X154486Y146905D01*
X154537Y146965D01*
X154578Y147032D01*
X154608Y147105D01*
X154626Y147182D01*
X154631Y147260D01*
Y146760D01*
X155131D01*
X155053Y146755D01*
X154976Y146737D01*
X154903Y146707D01*
X154836Y146666D01*
X154776Y146615D01*
X154725Y146555D01*
X154684Y146488D01*
X154654Y146415D01*
X154636Y146338D01*
X154629Y146260D01*
X154636Y146182D01*
X154654Y146105D01*
X154684Y146032D01*
X154725Y145965D01*
X154776Y145905D01*
X154836Y145854D01*
X154903Y145813D01*
X154976Y145783D01*
X155053Y145765D01*
X155131Y145760D01*
X157190D01*
Y136445D01*
X156811D01*
X156713Y136453D01*
X156321Y136422D01*
X156320Y136422D01*
X155938Y136330D01*
X155574Y136179D01*
X155239Y135974D01*
X154939Y135718D01*
X154684Y135419D01*
X154478Y135083D01*
X154328Y134720D01*
X154236Y134337D01*
X154205Y133945D01*
X154213Y133847D01*
Y127153D01*
X154205Y127055D01*
X154236Y126663D01*
X154236Y126663D01*
X154328Y126280D01*
X154478Y125917D01*
X154684Y125581D01*
X154939Y125282D01*
X155239Y125026D01*
X155574Y124821D01*
X155938Y124670D01*
X156320Y124578D01*
X156713Y124547D01*
X156811Y124555D01*
X157190D01*
Y12500D01*
X151960D01*
Y73574D01*
X151965Y73574D01*
X152160Y73601D01*
X152348Y73659D01*
X152525Y73745D01*
X152686Y73858D01*
X152827Y73995D01*
X152946Y74152D01*
X153038Y74325D01*
X153098Y74512D01*
X153227Y75100D01*
X153287Y75699D01*
Y76301D01*
X153227Y76900D01*
X153106Y77489D01*
X153042Y77676D01*
X152949Y77851D01*
X152831Y78008D01*
X152689Y78146D01*
X152527Y78259D01*
X152349Y78345D01*
X152161Y78403D01*
X151965Y78431D01*
X151960Y78431D01*
Y162987D01*
X152041Y163182D01*
X152367Y164541D01*
X152449Y165933D01*
X152367Y167325D01*
X152041Y168684D01*
X151960Y168879D01*
Y184000D01*
X157190D01*
G37*
G36*
X147345Y12500D02*Y70055D01*
X147643D01*
X148242Y70116D01*
X148832Y70237D01*
X149019Y70300D01*
X149193Y70393D01*
X149351Y70512D01*
X149488Y70654D01*
X149601Y70816D01*
X149688Y70993D01*
X149746Y71182D01*
X149773Y71377D01*
X149770Y71575D01*
X149736Y71769D01*
X149671Y71956D01*
X149579Y72130D01*
X149460Y72288D01*
X149318Y72425D01*
X149156Y72539D01*
X148979Y72625D01*
X148790Y72683D01*
X148594Y72710D01*
X148397Y72707D01*
X148203Y72669D01*
X147863Y72595D01*
X147517Y72560D01*
X147345D01*
Y79440D01*
X147517D01*
X147863Y79405D01*
X148204Y79335D01*
X148397Y79297D01*
X148594Y79294D01*
X148789Y79321D01*
X148977Y79379D01*
X149154Y79465D01*
X149315Y79578D01*
X149456Y79715D01*
X149575Y79872D01*
X149667Y80046D01*
X149731Y80232D01*
X149765Y80426D01*
X149769Y80622D01*
X149741Y80817D01*
X149684Y81005D01*
X149598Y81182D01*
X149485Y81343D01*
X149348Y81485D01*
X149191Y81603D01*
X149017Y81695D01*
X148830Y81756D01*
X148242Y81884D01*
X147643Y81945D01*
X147345D01*
Y157889D01*
X147616Y158002D01*
X148807Y158732D01*
X149869Y159639D01*
X150776Y160701D01*
X151506Y161892D01*
X151960Y162987D01*
Y78431D01*
X151768Y78427D01*
X151573Y78393D01*
X151387Y78329D01*
X151212Y78236D01*
X151054Y78117D01*
X150917Y77975D01*
X150804Y77814D01*
X150717Y77636D01*
X150660Y77447D01*
X150632Y77252D01*
X150636Y77054D01*
X150674Y76861D01*
X150748Y76521D01*
X150783Y76174D01*
Y75826D01*
X150748Y75479D01*
X150678Y75138D01*
X150640Y74945D01*
X150637Y74749D01*
X150664Y74554D01*
X150722Y74366D01*
X150808Y74189D01*
X150921Y74028D01*
X151057Y73886D01*
X151215Y73768D01*
X151388Y73675D01*
X151574Y73611D01*
X151768Y73577D01*
X151960Y73574D01*
Y12500D01*
X147345D01*
G37*
G36*
X151960Y184000D02*Y168879D01*
X151506Y169974D01*
X150776Y171165D01*
X149869Y172227D01*
X148807Y173134D01*
X147616Y173864D01*
X147345Y173977D01*
Y184000D01*
X151960D01*
G37*
G36*
X145895Y79317D02*X146091Y79290D01*
X146288Y79293D01*
X146482Y79331D01*
X146822Y79405D01*
X147168Y79440D01*
X147345D01*
Y72560D01*
X147168D01*
X146822Y72595D01*
X146481Y72665D01*
X146288Y72703D01*
X146091Y72706D01*
X145896Y72679D01*
X145784Y72644D01*
Y79351D01*
X145895Y79317D01*
G37*
G36*
X146326Y157467D02*X147345Y157889D01*
Y81945D01*
X147042D01*
X146443Y81884D01*
X145853Y81763D01*
X145784Y81740D01*
Y157337D01*
X146326Y157467D01*
G37*
G36*
X145784Y12500D02*Y18369D01*
X145787Y18370D01*
X145855Y18409D01*
X145916Y18458D01*
X145969Y18517D01*
X146011Y18583D01*
X146174Y18908D01*
X146303Y19248D01*
X146401Y19598D01*
X146467Y19956D01*
X146500Y20318D01*
Y20682D01*
X146467Y21044D01*
X146401Y21402D01*
X146303Y21752D01*
X146174Y22092D01*
X146015Y22419D01*
X145972Y22485D01*
X145919Y22544D01*
X145857Y22594D01*
X145788Y22633D01*
X145784Y22635D01*
Y70267D01*
X145855Y70244D01*
X146443Y70116D01*
X147042Y70055D01*
X147345D01*
Y12500D01*
X145784D01*
G37*
G36*
X142502D02*Y16500D01*
X142682D01*
X143044Y16533D01*
X143402Y16599D01*
X143752Y16697D01*
X144092Y16826D01*
X144419Y16985D01*
X144485Y17028D01*
X144544Y17081D01*
X144594Y17143D01*
X144633Y17212D01*
X144661Y17286D01*
X144678Y17363D01*
X144681Y17442D01*
X144673Y17521D01*
X144652Y17597D01*
X144620Y17670D01*
X144577Y17736D01*
X144524Y17795D01*
X144462Y17844D01*
X144393Y17884D01*
X144319Y17912D01*
X144242Y17928D01*
X144163Y17932D01*
X144084Y17924D01*
X144007Y17903D01*
X143936Y17870D01*
X143693Y17747D01*
X143438Y17650D01*
X143176Y17577D01*
X142908Y17528D01*
X142636Y17503D01*
X142502D01*
Y23497D01*
X142636D01*
X142908Y23472D01*
X143176Y23423D01*
X143438Y23350D01*
X143693Y23253D01*
X143937Y23133D01*
X144009Y23100D01*
X144085Y23079D01*
X144163Y23071D01*
X144241Y23075D01*
X144318Y23091D01*
X144392Y23119D01*
X144460Y23158D01*
X144521Y23207D01*
X144574Y23266D01*
X144617Y23332D01*
X144649Y23404D01*
X144670Y23480D01*
X144678Y23558D01*
X144674Y23636D01*
X144658Y23713D01*
X144630Y23787D01*
X144591Y23855D01*
X144542Y23916D01*
X144483Y23969D01*
X144417Y24011D01*
X144092Y24174D01*
X143752Y24303D01*
X143402Y24401D01*
X143044Y24467D01*
X142682Y24500D01*
X142502D01*
Y70597D01*
X142718Y70782D01*
X142974Y71081D01*
X143179Y71417D01*
X143330Y71780D01*
X143422Y72163D01*
X143453Y72555D01*
X143445Y72653D01*
Y73749D01*
X143473Y73764D01*
X143631Y73883D01*
X143768Y74025D01*
X143881Y74186D01*
X143968Y74364D01*
X144025Y74553D01*
X144053Y74748D01*
X144049Y74946D01*
X144011Y75139D01*
X143937Y75479D01*
X143902Y75826D01*
Y76174D01*
X143937Y76521D01*
X144007Y76862D01*
X144045Y77055D01*
X144048Y77251D01*
X144021Y77446D01*
X143964Y77634D01*
X143877Y77811D01*
X143764Y77972D01*
X143628Y78114D01*
X143470Y78232D01*
X143445Y78246D01*
Y79347D01*
X143453Y79445D01*
X143422Y79837D01*
X143422Y79837D01*
X143330Y80220D01*
X143179Y80583D01*
X142974Y80919D01*
X142718Y81218D01*
X142502Y81403D01*
Y157116D01*
X143575Y157032D01*
X144967Y157141D01*
X145784Y157337D01*
Y81740D01*
X145666Y81700D01*
X145492Y81607D01*
X145334Y81488D01*
X145197Y81346D01*
X145084Y81184D01*
X144997Y81007D01*
X144939Y80818D01*
X144912Y80623D01*
X144915Y80425D01*
X144950Y80231D01*
X145014Y80044D01*
X145106Y79870D01*
X145225Y79712D01*
X145367Y79575D01*
X145529Y79461D01*
X145706Y79375D01*
X145784Y79351D01*
Y72644D01*
X145708Y72621D01*
X145531Y72535D01*
X145370Y72422D01*
X145229Y72285D01*
X145110Y72128D01*
X145018Y71954D01*
X144954Y71768D01*
X144920Y71574D01*
X144916Y71378D01*
X144944Y71183D01*
X145001Y70995D01*
X145088Y70818D01*
X145200Y70657D01*
X145337Y70515D01*
X145494Y70397D01*
X145668Y70305D01*
X145784Y70267D01*
Y22635D01*
X145714Y22661D01*
X145637Y22678D01*
X145558Y22681D01*
X145479Y22673D01*
X145403Y22652D01*
X145330Y22620D01*
X145264Y22577D01*
X145205Y22524D01*
X145156Y22462D01*
X145116Y22393D01*
X145088Y22319D01*
X145072Y22242D01*
X145068Y22163D01*
X145076Y22084D01*
X145097Y22007D01*
X145130Y21936D01*
X145253Y21693D01*
X145350Y21438D01*
X145423Y21176D01*
X145472Y20908D01*
X145497Y20636D01*
Y20364D01*
X145472Y20092D01*
X145423Y19824D01*
X145350Y19562D01*
X145253Y19307D01*
X145133Y19063D01*
X145100Y18991D01*
X145079Y18915D01*
X145071Y18837D01*
X145075Y18759D01*
X145091Y18682D01*
X145119Y18608D01*
X145158Y18540D01*
X145207Y18479D01*
X145266Y18426D01*
X145332Y18383D01*
X145404Y18351D01*
X145480Y18330D01*
X145558Y18322D01*
X145636Y18326D01*
X145713Y18342D01*
X145784Y18369D01*
Y12500D01*
X142502D01*
G37*
G36*
X142419Y81474D02*X142083Y81679D01*
X141720Y81830D01*
X141337Y81922D01*
X140945Y81953D01*
X140847Y81945D01*
X137800D01*
Y159195D01*
X138343Y158732D01*
X139534Y158002D01*
X140824Y157467D01*
X142183Y157141D01*
X142502Y157116D01*
Y81403D01*
X142419Y81474D01*
G37*
G36*
X139216Y12500D02*Y18365D01*
X139286Y18339D01*
X139363Y18323D01*
X139442Y18319D01*
X139521Y18327D01*
X139597Y18348D01*
X139670Y18380D01*
X139736Y18423D01*
X139795Y18476D01*
X139844Y18538D01*
X139884Y18607D01*
X139912Y18681D01*
X139928Y18758D01*
X139932Y18837D01*
X139924Y18916D01*
X139903Y18993D01*
X139870Y19064D01*
X139747Y19307D01*
X139650Y19562D01*
X139577Y19824D01*
X139528Y20092D01*
X139503Y20364D01*
Y20636D01*
X139528Y20908D01*
X139577Y21176D01*
X139650Y21438D01*
X139747Y21693D01*
X139867Y21937D01*
X139900Y22009D01*
X139921Y22085D01*
X139929Y22163D01*
X139925Y22241D01*
X139909Y22318D01*
X139881Y22392D01*
X139842Y22460D01*
X139793Y22521D01*
X139734Y22574D01*
X139668Y22617D01*
X139596Y22649D01*
X139520Y22670D01*
X139442Y22678D01*
X139364Y22674D01*
X139287Y22658D01*
X139216Y22631D01*
Y70055D01*
X140847D01*
X140945Y70047D01*
X141337Y70078D01*
X141337Y70078D01*
X141720Y70170D01*
X142083Y70321D01*
X142419Y70526D01*
X142502Y70597D01*
Y24500D01*
X142318D01*
X141956Y24467D01*
X141598Y24401D01*
X141248Y24303D01*
X140908Y24174D01*
X140581Y24015D01*
X140515Y23972D01*
X140456Y23919D01*
X140406Y23857D01*
X140367Y23788D01*
X140339Y23714D01*
X140323Y23637D01*
X140319Y23558D01*
X140327Y23479D01*
X140348Y23403D01*
X140380Y23330D01*
X140423Y23264D01*
X140476Y23205D01*
X140538Y23156D01*
X140607Y23116D01*
X140681Y23088D01*
X140758Y23072D01*
X140837Y23068D01*
X140916Y23076D01*
X140993Y23097D01*
X141064Y23130D01*
X141307Y23253D01*
X141562Y23350D01*
X141824Y23423D01*
X142092Y23472D01*
X142364Y23497D01*
X142502D01*
Y17503D01*
X142364D01*
X142092Y17528D01*
X141824Y17577D01*
X141562Y17650D01*
X141307Y17747D01*
X141063Y17867D01*
X140991Y17900D01*
X140915Y17921D01*
X140837Y17929D01*
X140759Y17925D01*
X140682Y17909D01*
X140608Y17881D01*
X140540Y17842D01*
X140479Y17793D01*
X140426Y17734D01*
X140383Y17668D01*
X140351Y17596D01*
X140330Y17520D01*
X140322Y17442D01*
X140326Y17364D01*
X140342Y17287D01*
X140370Y17213D01*
X140409Y17145D01*
X140458Y17084D01*
X140517Y17031D01*
X140583Y16989D01*
X140908Y16826D01*
X141248Y16697D01*
X141598Y16599D01*
X141956Y16533D01*
X142318Y16500D01*
X142502D01*
Y12500D01*
X139216D01*
G37*
G36*
X137800D02*Y70055D01*
X139216D01*
Y22631D01*
X139213Y22630D01*
X139145Y22591D01*
X139084Y22542D01*
X139031Y22483D01*
X138989Y22417D01*
X138826Y22092D01*
X138697Y21752D01*
X138599Y21402D01*
X138533Y21044D01*
X138500Y20682D01*
Y20318D01*
X138533Y19956D01*
X138599Y19598D01*
X138697Y19248D01*
X138826Y18908D01*
X138985Y18581D01*
X139028Y18515D01*
X139081Y18456D01*
X139143Y18406D01*
X139212Y18367D01*
X139216Y18365D01*
Y12500D01*
X137800D01*
G37*
G36*
X147345Y184000D02*Y173977D01*
X146326Y174399D01*
X144967Y174725D01*
X143575Y174834D01*
X142183Y174725D01*
X140824Y174399D01*
X139534Y173864D01*
X138343Y173134D01*
X137800Y172671D01*
Y184000D01*
X147345D01*
G37*
G36*
X137800D02*Y172671D01*
X137281Y172227D01*
X136374Y171165D01*
X135644Y169974D01*
X135109Y168684D01*
X134783Y167325D01*
X134674Y165933D01*
X134783Y164541D01*
X135109Y163182D01*
X135644Y161892D01*
X136374Y160701D01*
X137281Y159639D01*
X137800Y159195D01*
Y81945D01*
X134153D01*
X134055Y81953D01*
X133663Y81922D01*
X133663Y81922D01*
X133280Y81830D01*
X132917Y81679D01*
X132581Y81474D01*
X132282Y81218D01*
X132026Y80919D01*
X131821Y80583D01*
X131670Y80220D01*
X131578Y79837D01*
X131547Y79445D01*
X131555Y79347D01*
Y72653D01*
X131547Y72555D01*
X131578Y72163D01*
X131578Y72163D01*
X131670Y71780D01*
X131821Y71417D01*
X132026Y71081D01*
X132282Y70782D01*
X132581Y70526D01*
X132917Y70321D01*
X133280Y70170D01*
X133663Y70078D01*
X134055Y70047D01*
X134153Y70055D01*
X137800D01*
Y12500D01*
X130380D01*
Y98500D01*
X130945D01*
X131043Y98492D01*
X131435Y98523D01*
X131435Y98523D01*
X131818Y98615D01*
X132181Y98766D01*
X132517Y98971D01*
X132816Y99227D01*
X133072Y99526D01*
X133277Y99862D01*
X133428Y100225D01*
X133520Y100608D01*
X133551Y101000D01*
X133543Y101098D01*
Y108902D01*
X133551Y109000D01*
X133520Y109392D01*
X133520Y109392D01*
X133428Y109775D01*
X133277Y110138D01*
X133072Y110474D01*
X132816Y110773D01*
X132517Y111029D01*
X132181Y111234D01*
X131818Y111385D01*
X131435Y111477D01*
X131043Y111508D01*
X130945Y111500D01*
X130380D01*
Y140315D01*
X130386Y140315D01*
X131006Y140364D01*
X131611Y140509D01*
X132186Y140747D01*
X132717Y141072D01*
X133190Y141476D01*
X133594Y141949D01*
X133919Y142480D01*
X134157Y143055D01*
X134302Y143660D01*
X134339Y144280D01*
X134302Y144900D01*
X134157Y145505D01*
X133919Y146080D01*
X133594Y146611D01*
X133190Y147084D01*
X132717Y147488D01*
X132186Y147813D01*
X131611Y148051D01*
X131006Y148196D01*
X130386Y148245D01*
X130380Y148245D01*
Y150157D01*
X130386Y150157D01*
X131006Y150206D01*
X131611Y150351D01*
X132186Y150589D01*
X132717Y150914D01*
X133190Y151318D01*
X133594Y151791D01*
X133919Y152322D01*
X134157Y152897D01*
X134302Y153502D01*
X134339Y154122D01*
X134302Y154742D01*
X134157Y155347D01*
X133919Y155922D01*
X133594Y156453D01*
X133190Y156926D01*
X132717Y157330D01*
X132186Y157655D01*
X131611Y157893D01*
X131006Y158038D01*
X130386Y158087D01*
X130380Y158087D01*
Y184000D01*
X137800D01*
G37*
G36*
X121730Y12500D02*Y80714D01*
X121798Y80728D01*
X121871Y80755D01*
X121940Y80794D01*
X122002Y80843D01*
X122055Y80901D01*
X122098Y80966D01*
X122130Y81038D01*
X122206Y81271D01*
X122260Y81511D01*
X122292Y81755D01*
X122303Y82000D01*
X122292Y82245D01*
X122260Y82489D01*
X122206Y82729D01*
X122132Y82963D01*
X122100Y83035D01*
X122056Y83100D01*
X122003Y83159D01*
X121941Y83208D01*
X121872Y83246D01*
X121798Y83274D01*
X121730Y83288D01*
Y98873D01*
X121905Y98766D01*
X122268Y98615D01*
X122651Y98523D01*
X123043Y98492D01*
X123141Y98500D01*
X130380D01*
Y12500D01*
X121730D01*
G37*
G36*
X130380Y184000D02*Y158087D01*
X129766Y158038D01*
X129161Y157893D01*
X128586Y157655D01*
X128055Y157330D01*
X127582Y156926D01*
X127178Y156453D01*
X126853Y155922D01*
X126615Y155347D01*
X126470Y154742D01*
X126421Y154122D01*
X126470Y153502D01*
X126615Y152897D01*
X126853Y152322D01*
X127178Y151791D01*
X127582Y151318D01*
X128055Y150914D01*
X128586Y150589D01*
X129161Y150351D01*
X129766Y150206D01*
X130380Y150157D01*
Y148245D01*
X129766Y148196D01*
X129161Y148051D01*
X128586Y147813D01*
X128055Y147488D01*
X127582Y147084D01*
X127178Y146611D01*
X126853Y146080D01*
X126615Y145505D01*
X126470Y144900D01*
X126421Y144280D01*
X126470Y143660D01*
X126615Y143055D01*
X126853Y142480D01*
X127178Y141949D01*
X127582Y141476D01*
X128055Y141072D01*
X128586Y140747D01*
X129161Y140509D01*
X129766Y140364D01*
X130380Y140315D01*
Y111500D01*
X123141D01*
X123043Y111508D01*
X122651Y111477D01*
X122651Y111477D01*
X122268Y111385D01*
X121905Y111234D01*
X121730Y111127D01*
Y161574D01*
X122232Y161882D01*
X123294Y162789D01*
X124201Y163851D01*
X124931Y165042D01*
X125466Y166332D01*
X125792Y167691D01*
X125874Y169083D01*
X125792Y170475D01*
X125466Y171834D01*
X124931Y173124D01*
X124201Y174315D01*
X123294Y175377D01*
X122232Y176284D01*
X121730Y176592D01*
Y184000D01*
X130380D01*
G37*
G36*
X119501Y12500D02*Y79197D01*
X119745Y79208D01*
X119989Y79240D01*
X120229Y79294D01*
X120463Y79368D01*
X120535Y79400D01*
X120600Y79444D01*
X120659Y79497D01*
X120708Y79559D01*
X120746Y79628D01*
X120774Y79702D01*
X120790Y79779D01*
X120793Y79858D01*
X120784Y79937D01*
X120763Y80013D01*
X120730Y80085D01*
X120686Y80150D01*
X120633Y80209D01*
X120571Y80258D01*
X120502Y80296D01*
X120428Y80324D01*
X120351Y80340D01*
X120272Y80343D01*
X120193Y80334D01*
X120118Y80311D01*
X119968Y80262D01*
X119814Y80228D01*
X119658Y80207D01*
X119501Y80200D01*
Y83800D01*
X119658Y83793D01*
X119814Y83772D01*
X119968Y83738D01*
X120118Y83690D01*
X120194Y83668D01*
X120272Y83659D01*
X120350Y83662D01*
X120428Y83678D01*
X120501Y83705D01*
X120570Y83744D01*
X120631Y83793D01*
X120685Y83851D01*
X120728Y83916D01*
X120761Y83988D01*
X120782Y84064D01*
X120791Y84142D01*
X120788Y84220D01*
X120772Y84298D01*
X120745Y84371D01*
X120706Y84440D01*
X120657Y84502D01*
X120599Y84555D01*
X120534Y84598D01*
X120462Y84630D01*
X120229Y84706D01*
X119989Y84760D01*
X119745Y84792D01*
X119501Y84803D01*
Y160557D01*
X119751Y160617D01*
X121041Y161152D01*
X121730Y161574D01*
Y111127D01*
X121569Y111029D01*
X121270Y110773D01*
X121014Y110474D01*
X120809Y110138D01*
X120658Y109775D01*
X120566Y109392D01*
X120535Y109000D01*
X120543Y108902D01*
Y101098D01*
X120535Y101000D01*
X120566Y100608D01*
X120566Y100608D01*
X120658Y100225D01*
X120809Y99862D01*
X121014Y99526D01*
X121270Y99227D01*
X121569Y98971D01*
X121730Y98873D01*
Y83288D01*
X121721Y83290D01*
X121642Y83293D01*
X121563Y83284D01*
X121487Y83263D01*
X121415Y83230D01*
X121350Y83186D01*
X121291Y83133D01*
X121242Y83071D01*
X121204Y83002D01*
X121176Y82928D01*
X121160Y82851D01*
X121157Y82772D01*
X121166Y82693D01*
X121189Y82618D01*
X121238Y82468D01*
X121272Y82314D01*
X121293Y82158D01*
X121300Y82000D01*
X121293Y81842D01*
X121272Y81686D01*
X121238Y81532D01*
X121190Y81382D01*
X121168Y81306D01*
X121159Y81228D01*
X121162Y81150D01*
X121178Y81073D01*
X121205Y80999D01*
X121244Y80930D01*
X121293Y80869D01*
X121351Y80815D01*
X121416Y80772D01*
X121488Y80739D01*
X121564Y80718D01*
X121642Y80709D01*
X121720Y80712D01*
X121730Y80714D01*
Y12500D01*
X119501D01*
G37*
G36*
X121730Y184000D02*Y176592D01*
X121041Y177014D01*
X119751Y177549D01*
X119501Y177609D01*
Y184000D01*
X121730D01*
G37*
G36*
X118392Y160291D02*X119501Y160557D01*
Y84803D01*
X119500Y84803D01*
X119255Y84792D01*
X119011Y84760D01*
X118771Y84706D01*
X118537Y84632D01*
X118465Y84600D01*
X118400Y84556D01*
X118341Y84503D01*
X118292Y84441D01*
X118254Y84372D01*
X118226Y84298D01*
X118210Y84221D01*
X118207Y84142D01*
X118216Y84063D01*
X118237Y83987D01*
X118270Y83915D01*
X118314Y83850D01*
X118367Y83791D01*
X118429Y83742D01*
X118498Y83704D01*
X118572Y83676D01*
X118649Y83660D01*
X118728Y83657D01*
X118807Y83666D01*
X118882Y83689D01*
X119032Y83738D01*
X119186Y83772D01*
X119342Y83793D01*
X119500Y83800D01*
X119501Y83800D01*
Y80200D01*
X119500Y80200D01*
X119342Y80207D01*
X119186Y80228D01*
X119032Y80262D01*
X118882Y80310D01*
X118806Y80332D01*
X118728Y80341D01*
X118650Y80338D01*
X118573Y80322D01*
X118499Y80295D01*
X118430Y80256D01*
X118369Y80207D01*
X118315Y80149D01*
X118272Y80084D01*
X118239Y80012D01*
X118218Y79936D01*
X118209Y79858D01*
X118212Y79780D01*
X118228Y79702D01*
X118255Y79629D01*
X118294Y79560D01*
X118343Y79498D01*
X118401Y79445D01*
X118466Y79402D01*
X118538Y79370D01*
X118771Y79294D01*
X119011Y79240D01*
X119255Y79208D01*
X119500Y79197D01*
X119501Y79197D01*
Y12500D01*
X117270D01*
Y80712D01*
X117279Y80710D01*
X117358Y80707D01*
X117437Y80716D01*
X117513Y80737D01*
X117585Y80770D01*
X117650Y80814D01*
X117709Y80867D01*
X117758Y80929D01*
X117796Y80998D01*
X117824Y81072D01*
X117840Y81149D01*
X117843Y81228D01*
X117834Y81307D01*
X117811Y81382D01*
X117762Y81532D01*
X117728Y81686D01*
X117707Y81842D01*
X117700Y82000D01*
X117707Y82158D01*
X117728Y82314D01*
X117762Y82468D01*
X117810Y82618D01*
X117832Y82694D01*
X117841Y82772D01*
X117838Y82850D01*
X117822Y82927D01*
X117795Y83001D01*
X117756Y83070D01*
X117707Y83131D01*
X117649Y83185D01*
X117584Y83228D01*
X117512Y83261D01*
X117436Y83282D01*
X117358Y83291D01*
X117280Y83288D01*
X117270Y83286D01*
Y92673D01*
X117311Y92663D01*
X117507Y92649D01*
X117703Y92665D01*
X117894Y92712D01*
X118076Y92788D01*
X118243Y92892D01*
X118392Y93020D01*
X118519Y93170D01*
X118621Y93339D01*
X118692Y93522D01*
X118848Y94075D01*
X118949Y94640D01*
X119000Y95213D01*
Y95787D01*
X118949Y96360D01*
X118848Y96925D01*
X118698Y97480D01*
X118625Y97663D01*
X118522Y97832D01*
X118395Y97983D01*
X118245Y98111D01*
X118078Y98215D01*
X117896Y98292D01*
X117704Y98339D01*
X117507Y98355D01*
X117310Y98341D01*
X117270Y98331D01*
Y109855D01*
X117310Y109890D01*
X117975Y110668D01*
X118509Y111540D01*
X118901Y112485D01*
X119140Y113480D01*
X119200Y114500D01*
X119140Y115520D01*
X118901Y116515D01*
X118509Y117460D01*
X117975Y118332D01*
X117310Y119110D01*
X117270Y119145D01*
Y160203D01*
X118392Y160291D01*
G37*
G36*
X119501Y184000D02*Y177609D01*
X118392Y177875D01*
X117270Y177963D01*
Y184000D01*
X119501D01*
G37*
G36*
X112700Y107980D02*X113720Y108060D01*
X114715Y108299D01*
X115660Y108691D01*
X116532Y109225D01*
X117270Y109855D01*
Y98331D01*
X117118Y98296D01*
X116936Y98221D01*
X116767Y98119D01*
X116616Y97991D01*
X116487Y97842D01*
X116383Y97674D01*
X116307Y97492D01*
X116260Y97301D01*
X116243Y97104D01*
X116258Y96907D01*
X116307Y96716D01*
X116403Y96376D01*
X116465Y96029D01*
X116496Y95677D01*
Y95323D01*
X116465Y94971D01*
X116403Y94624D01*
X116310Y94283D01*
X116262Y94092D01*
X116247Y93896D01*
X116264Y93700D01*
X116310Y93509D01*
X116387Y93328D01*
X116490Y93160D01*
X116619Y93011D01*
X116769Y92884D01*
X116937Y92782D01*
X117119Y92708D01*
X117270Y92673D01*
Y83286D01*
X117202Y83272D01*
X117129Y83245D01*
X117060Y83206D01*
X116998Y83157D01*
X116945Y83099D01*
X116902Y83034D01*
X116870Y82962D01*
X116794Y82729D01*
X116740Y82489D01*
X116708Y82245D01*
X116697Y82000D01*
X116708Y81755D01*
X116740Y81511D01*
X116794Y81271D01*
X116868Y81037D01*
X116900Y80965D01*
X116944Y80900D01*
X116997Y80841D01*
X117059Y80792D01*
X117128Y80754D01*
X117202Y80726D01*
X117270Y80712D01*
Y12500D01*
X114500D01*
Y17854D01*
X114746Y18142D01*
X115075Y18678D01*
X115316Y19260D01*
X115463Y19872D01*
X115500Y20500D01*
X115463Y21128D01*
X115316Y21740D01*
X115075Y22322D01*
X114746Y22858D01*
X114337Y23337D01*
X113858Y23746D01*
X113322Y24075D01*
X112740Y24316D01*
X112502Y24373D01*
Y89000D01*
X112787D01*
X113360Y89051D01*
X113925Y89152D01*
X114480Y89302D01*
X114663Y89375D01*
X114832Y89478D01*
X114983Y89605D01*
X115111Y89755D01*
X115215Y89922D01*
X115292Y90104D01*
X115339Y90296D01*
X115355Y90493D01*
X115341Y90690D01*
X115296Y90882D01*
X115221Y91064D01*
X115119Y91233D01*
X114991Y91384D01*
X114842Y91513D01*
X114674Y91617D01*
X114492Y91693D01*
X114301Y91740D01*
X114104Y91757D01*
X113907Y91742D01*
X113716Y91693D01*
X113376Y91597D01*
X113029Y91535D01*
X112677Y91504D01*
X112502D01*
Y99496D01*
X112677D01*
X113029Y99465D01*
X113376Y99403D01*
X113717Y99310D01*
X113908Y99262D01*
X114104Y99247D01*
X114300Y99264D01*
X114491Y99310D01*
X114672Y99387D01*
X114840Y99490D01*
X114989Y99619D01*
X115116Y99769D01*
X115218Y99937D01*
X115292Y100119D01*
X115337Y100311D01*
X115351Y100507D01*
X115335Y100703D01*
X115288Y100894D01*
X115212Y101076D01*
X115108Y101243D01*
X114980Y101392D01*
X114830Y101519D01*
X114661Y101621D01*
X114478Y101692D01*
X113925Y101848D01*
X113360Y101949D01*
X112787Y102000D01*
X112502D01*
Y107996D01*
X112700Y107980D01*
G37*
G36*
X112502Y150206D02*X113107Y150351D01*
X113682Y150589D01*
X114213Y150914D01*
X114686Y151318D01*
X115090Y151791D01*
X115415Y152322D01*
X115653Y152897D01*
X115798Y153502D01*
X115835Y154122D01*
X115798Y154742D01*
X115653Y155347D01*
X115415Y155922D01*
X115090Y156453D01*
X114686Y156926D01*
X114213Y157330D01*
X114132Y157379D01*
Y160666D01*
X114249Y160617D01*
X115608Y160291D01*
X117000Y160182D01*
X117270Y160203D01*
Y119145D01*
X116532Y119775D01*
X115660Y120309D01*
X114715Y120701D01*
X113720Y120940D01*
X112700Y121020D01*
X112502Y121004D01*
Y150206D01*
X112502Y150206D01*
G37*
G36*
X117270Y184000D02*Y177963D01*
X117000Y177984D01*
X115608Y177875D01*
X114249Y177549D01*
X112959Y177014D01*
X112502Y176734D01*
Y184000D01*
X117270D01*
G37*
G36*
X107425Y110668D02*X108090Y109890D01*
X108868Y109225D01*
X109740Y108691D01*
X110685Y108299D01*
X111680Y108060D01*
X112502Y107996D01*
Y102000D01*
X112213D01*
X111640Y101949D01*
X111075Y101848D01*
X110520Y101698D01*
X110337Y101625D01*
X110168Y101522D01*
X110017Y101395D01*
X109889Y101245D01*
X109785Y101078D01*
X109708Y100896D01*
X109661Y100704D01*
X109645Y100507D01*
X109659Y100310D01*
X109704Y100118D01*
X109779Y99936D01*
X109881Y99767D01*
X110009Y99616D01*
X110158Y99487D01*
X110326Y99383D01*
X110508Y99307D01*
X110699Y99260D01*
X110896Y99243D01*
X111093Y99258D01*
X111284Y99307D01*
X111624Y99403D01*
X111971Y99465D01*
X112323Y99496D01*
X112502D01*
Y91504D01*
X112323D01*
X111971Y91535D01*
X111624Y91597D01*
X111283Y91690D01*
X111092Y91738D01*
X110896Y91753D01*
X110700Y91736D01*
X110509Y91690D01*
X110328Y91613D01*
X110160Y91510D01*
X110011Y91381D01*
X109884Y91231D01*
X109782Y91063D01*
X109708Y90881D01*
X109663Y90689D01*
X109649Y90493D01*
X109665Y90297D01*
X109712Y90106D01*
X109788Y89924D01*
X109892Y89757D01*
X110020Y89608D01*
X110170Y89481D01*
X110339Y89379D01*
X110522Y89308D01*
X111075Y89152D01*
X111640Y89051D01*
X112213Y89000D01*
X112502D01*
Y24373D01*
X112128Y24463D01*
X111500Y24512D01*
X110872Y24463D01*
X110260Y24316D01*
X109678Y24075D01*
X109142Y23746D01*
X108663Y23337D01*
X108254Y22858D01*
X107925Y22322D01*
X107684Y21740D01*
X107537Y21128D01*
X107488Y20500D01*
X107537Y19872D01*
X107684Y19260D01*
X107925Y18678D01*
X108254Y18142D01*
X108500Y17854D01*
Y12500D01*
X107378D01*
Y92654D01*
X107493Y92645D01*
X107690Y92659D01*
X107882Y92704D01*
X108064Y92779D01*
X108233Y92881D01*
X108384Y93009D01*
X108513Y93158D01*
X108617Y93326D01*
X108693Y93508D01*
X108740Y93699D01*
X108757Y93896D01*
X108742Y94093D01*
X108693Y94284D01*
X108597Y94624D01*
X108535Y94971D01*
X108504Y95323D01*
Y95677D01*
X108535Y96029D01*
X108597Y96376D01*
X108690Y96717D01*
X108738Y96908D01*
X108753Y97104D01*
X108736Y97300D01*
X108690Y97491D01*
X108613Y97672D01*
X108510Y97840D01*
X108381Y97989D01*
X108231Y98116D01*
X108063Y98218D01*
X107881Y98292D01*
X107689Y98337D01*
X107493Y98351D01*
X107378Y98342D01*
Y110744D01*
X107425Y110668D01*
G37*
G36*
X112502Y184000D02*Y176734D01*
X111768Y176284D01*
X110706Y175377D01*
X109799Y174315D01*
X109069Y173124D01*
X108534Y171834D01*
X108208Y170475D01*
X108099Y169083D01*
X108208Y167691D01*
X108534Y166332D01*
X109069Y165042D01*
X109637Y164115D01*
X109625Y163965D01*
X109632Y163877D01*
Y157379D01*
X109551Y157330D01*
X109078Y156926D01*
X108674Y156453D01*
X108349Y155922D01*
X108111Y155347D01*
X107966Y154742D01*
X107917Y154122D01*
X107966Y153502D01*
X108111Y152897D01*
X108349Y152322D01*
X108674Y151791D01*
X109078Y151318D01*
X109551Y150914D01*
X110082Y150589D01*
X110657Y150351D01*
X111262Y150206D01*
X111882Y150157D01*
X112502Y150206D01*
Y121004D01*
X111680Y120940D01*
X110685Y120701D01*
X109740Y120309D01*
X108868Y119775D01*
X108090Y119110D01*
X107425Y118332D01*
X107378Y118256D01*
Y143038D01*
X107385Y143055D01*
X107530Y143660D01*
X107567Y144280D01*
X107530Y144900D01*
X107385Y145505D01*
X107378Y145522D01*
Y152904D01*
X107471Y153238D01*
X107535Y153589D01*
X107567Y153944D01*
Y154300D01*
X107535Y154655D01*
X107471Y155006D01*
X107378Y155340D01*
Y184000D01*
X112502D01*
G37*
G36*
X106891Y117460D02*X106499Y116515D01*
X106260Y115520D01*
X106180Y114500D01*
X106260Y113480D01*
X106499Y112485D01*
X106891Y111540D01*
X107378Y110744D01*
Y98342D01*
X107297Y98335D01*
X107106Y98288D01*
X106924Y98212D01*
X106757Y98108D01*
X106608Y97980D01*
X106481Y97830D01*
X106379Y97661D01*
X106308Y97478D01*
X106152Y96925D01*
X106051Y96360D01*
X106000Y95787D01*
Y95213D01*
X106051Y94640D01*
X106152Y94075D01*
X106302Y93520D01*
X106375Y93337D01*
X106478Y93168D01*
X106605Y93017D01*
X106755Y92889D01*
X106922Y92785D01*
X107104Y92708D01*
X107296Y92661D01*
X107378Y92654D01*
Y12500D01*
X103614D01*
Y140315D01*
X104234Y140364D01*
X104839Y140509D01*
X105414Y140747D01*
X105945Y141072D01*
X106418Y141476D01*
X106822Y141949D01*
X107147Y142480D01*
X107378Y143038D01*
Y118256D01*
X106891Y117460D01*
G37*
G36*
X107378Y184000D02*Y155340D01*
X107376Y155350D01*
X107250Y155684D01*
X107095Y156004D01*
X107052Y156071D01*
X106999Y156130D01*
X106938Y156180D01*
X106869Y156220D01*
X106795Y156248D01*
X106718Y156265D01*
X106639Y156269D01*
X106560Y156261D01*
X106484Y156241D01*
X106411Y156209D01*
X106345Y156165D01*
X106286Y156113D01*
X106236Y156051D01*
X106196Y155983D01*
X106168Y155909D01*
X106151Y155831D01*
X106147Y155752D01*
X106155Y155674D01*
X106175Y155597D01*
X106209Y155525D01*
X106327Y155287D01*
X106421Y155038D01*
X106492Y154782D01*
X106540Y154520D01*
X106564Y154255D01*
Y153989D01*
X106540Y153724D01*
X106492Y153462D01*
X106421Y153206D01*
X106327Y152957D01*
X106211Y152717D01*
X106178Y152646D01*
X106158Y152570D01*
X106150Y152492D01*
X106154Y152413D01*
X106171Y152336D01*
X106199Y152263D01*
X106238Y152195D01*
X106288Y152133D01*
X106347Y152081D01*
X106413Y152038D01*
X106485Y152006D01*
X106561Y151986D01*
X106639Y151978D01*
X106718Y151982D01*
X106794Y151999D01*
X106868Y152027D01*
X106936Y152066D01*
X106997Y152116D01*
X107050Y152175D01*
X107091Y152241D01*
X107250Y152560D01*
X107376Y152894D01*
X107378Y152904D01*
Y145522D01*
X107147Y146080D01*
X106822Y146611D01*
X106418Y147084D01*
X105945Y147488D01*
X105414Y147813D01*
X104839Y148051D01*
X104234Y148196D01*
X103614Y148245D01*
Y150169D01*
X103792D01*
X104147Y150201D01*
X104498Y150265D01*
X104842Y150360D01*
X105176Y150486D01*
X105496Y150641D01*
X105563Y150684D01*
X105622Y150737D01*
X105672Y150798D01*
X105712Y150867D01*
X105740Y150941D01*
X105757Y151018D01*
X105761Y151097D01*
X105753Y151176D01*
X105733Y151252D01*
X105701Y151325D01*
X105657Y151391D01*
X105605Y151450D01*
X105543Y151500D01*
X105475Y151540D01*
X105401Y151568D01*
X105323Y151585D01*
X105244Y151589D01*
X105166Y151581D01*
X105089Y151561D01*
X105017Y151527D01*
X104779Y151409D01*
X104530Y151315D01*
X104274Y151244D01*
X104012Y151196D01*
X103747Y151172D01*
X103614D01*
Y151629D01*
X103967Y151657D01*
X104311Y151740D01*
X104639Y151875D01*
X104941Y152060D01*
X105210Y152290D01*
X105440Y152559D01*
X105625Y152861D01*
X105760Y153189D01*
X105843Y153533D01*
X105864Y153886D01*
Y154122D01*
X105843Y154475D01*
X105760Y154819D01*
X105625Y155147D01*
X105440Y155449D01*
X105210Y155718D01*
X104941Y155948D01*
X104639Y156133D01*
X104311Y156268D01*
X103967Y156351D01*
X103614Y156379D01*
Y157072D01*
X103747D01*
X104012Y157048D01*
X104274Y157000D01*
X104530Y156929D01*
X104779Y156835D01*
X105019Y156719D01*
X105090Y156686D01*
X105166Y156666D01*
X105244Y156658D01*
X105323Y156662D01*
X105400Y156679D01*
X105473Y156707D01*
X105541Y156746D01*
X105603Y156796D01*
X105655Y156855D01*
X105698Y156921D01*
X105730Y156993D01*
X105750Y157069D01*
X105758Y157147D01*
X105754Y157226D01*
X105737Y157302D01*
X105709Y157376D01*
X105670Y157444D01*
X105620Y157505D01*
X105561Y157558D01*
X105495Y157599D01*
X105176Y157758D01*
X104842Y157884D01*
X104498Y157979D01*
X104147Y158043D01*
X103792Y158075D01*
X103614D01*
Y184000D01*
X107378D01*
G37*
G36*
X100406Y141949D02*X100810Y141476D01*
X101283Y141072D01*
X101814Y140747D01*
X102389Y140509D01*
X102994Y140364D01*
X103614Y140315D01*
Y12500D01*
X100371D01*
Y60695D01*
X100775Y61168D01*
X101309Y62040D01*
X101701Y62985D01*
X101940Y63980D01*
X102000Y65000D01*
X101940Y66020D01*
X101701Y67015D01*
X101309Y67960D01*
X100775Y68832D01*
X100371Y69305D01*
Y142006D01*
X100406Y141949D01*
G37*
G36*
X103614Y184000D02*Y158075D01*
X103436D01*
X103081Y158043D01*
X102730Y157979D01*
X102386Y157884D01*
X102052Y157758D01*
X101732Y157603D01*
X101665Y157560D01*
X101606Y157507D01*
X101556Y157446D01*
X101516Y157377D01*
X101488Y157303D01*
X101471Y157226D01*
X101467Y157147D01*
X101475Y157068D01*
X101495Y156992D01*
X101528Y156919D01*
X101571Y156853D01*
X101623Y156794D01*
X101685Y156744D01*
X101753Y156704D01*
X101827Y156676D01*
X101905Y156659D01*
X101984Y156655D01*
X102062Y156663D01*
X102139Y156683D01*
X102211Y156717D01*
X102449Y156835D01*
X102698Y156929D01*
X102954Y157000D01*
X103216Y157048D01*
X103481Y157072D01*
X103614D01*
Y156379D01*
X103261Y156351D01*
X102917Y156268D01*
X102589Y156133D01*
X102287Y155948D01*
X102018Y155718D01*
X101788Y155449D01*
X101603Y155147D01*
X101468Y154819D01*
X101385Y154475D01*
X101364Y154122D01*
Y153886D01*
X101385Y153533D01*
X101468Y153189D01*
X101603Y152861D01*
X101788Y152559D01*
X102018Y152290D01*
X102287Y152060D01*
X102589Y151875D01*
X102917Y151740D01*
X103261Y151657D01*
X103614Y151629D01*
Y151172D01*
X103481D01*
X103216Y151196D01*
X102954Y151244D01*
X102698Y151315D01*
X102449Y151409D01*
X102209Y151525D01*
X102138Y151558D01*
X102062Y151578D01*
X101984Y151586D01*
X101905Y151582D01*
X101828Y151565D01*
X101755Y151537D01*
X101687Y151498D01*
X101625Y151448D01*
X101573Y151389D01*
X101530Y151323D01*
X101498Y151251D01*
X101478Y151175D01*
X101470Y151097D01*
X101474Y151018D01*
X101491Y150942D01*
X101519Y150868D01*
X101558Y150800D01*
X101608Y150739D01*
X101667Y150686D01*
X101733Y150645D01*
X102052Y150486D01*
X102386Y150360D01*
X102730Y150265D01*
X103081Y150201D01*
X103436Y150169D01*
X103614D01*
Y148245D01*
X102994Y148196D01*
X102389Y148051D01*
X101814Y147813D01*
X101283Y147488D01*
X100810Y147084D01*
X100406Y146611D01*
X100371Y146554D01*
Y152020D01*
X100433Y151996D01*
X100510Y151979D01*
X100589Y151975D01*
X100668Y151983D01*
X100744Y152003D01*
X100817Y152036D01*
X100883Y152079D01*
X100942Y152131D01*
X100992Y152193D01*
X101032Y152261D01*
X101060Y152335D01*
X101077Y152413D01*
X101081Y152492D01*
X101073Y152570D01*
X101053Y152647D01*
X101019Y152719D01*
X100901Y152957D01*
X100807Y153206D01*
X100736Y153462D01*
X100688Y153724D01*
X100664Y153989D01*
Y154255D01*
X100688Y154520D01*
X100736Y154782D01*
X100807Y155038D01*
X100901Y155287D01*
X101017Y155527D01*
X101050Y155598D01*
X101070Y155674D01*
X101078Y155752D01*
X101074Y155831D01*
X101057Y155908D01*
X101029Y155981D01*
X100990Y156049D01*
X100940Y156111D01*
X100881Y156163D01*
X100815Y156206D01*
X100743Y156238D01*
X100667Y156258D01*
X100589Y156266D01*
X100510Y156262D01*
X100434Y156245D01*
X100371Y156221D01*
Y184000D01*
X103614D01*
G37*
G36*
X95490Y12500D02*Y58481D01*
X95500Y58480D01*
X96520Y58560D01*
X97515Y58799D01*
X98460Y59191D01*
X99332Y59725D01*
X100110Y60390D01*
X100371Y60695D01*
Y12500D01*
X95490D01*
G37*
G36*
X100371Y184000D02*Y156221D01*
X100360Y156217D01*
X100292Y156178D01*
X100231Y156128D01*
X100178Y156069D01*
X100137Y156003D01*
X99978Y155684D01*
X99852Y155350D01*
X99757Y155006D01*
X99693Y154655D01*
X99661Y154300D01*
Y153944D01*
X99693Y153589D01*
X99757Y153238D01*
X99852Y152894D01*
X99978Y152560D01*
X100133Y152240D01*
X100176Y152173D01*
X100229Y152114D01*
X100290Y152064D01*
X100359Y152024D01*
X100371Y152020D01*
Y146554D01*
X100081Y146080D01*
X99843Y145505D01*
X99698Y144900D01*
X99649Y144280D01*
X99698Y143660D01*
X99843Y143055D01*
X100081Y142480D01*
X100371Y142006D01*
Y69305D01*
X100110Y69610D01*
X99332Y70275D01*
X98460Y70809D01*
X97515Y71201D01*
X96520Y71440D01*
X95500Y71520D01*
X95490Y71519D01*
Y72454D01*
X96060Y72691D01*
X96932Y73225D01*
X97710Y73890D01*
X98375Y74668D01*
X98909Y75540D01*
X99301Y76485D01*
X99540Y77480D01*
X99600Y78500D01*
X99540Y79520D01*
X99301Y80515D01*
X98909Y81460D01*
X98375Y82332D01*
X97710Y83110D01*
X96932Y83775D01*
X96060Y84309D01*
X95490Y84546D01*
Y108000D01*
X96902D01*
X97000Y107992D01*
X97392Y108023D01*
X97392Y108023D01*
X97775Y108115D01*
X98138Y108266D01*
X98474Y108471D01*
X98773Y108727D01*
X99029Y109026D01*
X99234Y109362D01*
X99385Y109725D01*
X99477Y110108D01*
X99508Y110500D01*
X99500Y110598D01*
Y118402D01*
X99508Y118500D01*
X99477Y118892D01*
X99477Y118892D01*
X99385Y119275D01*
X99234Y119638D01*
X99029Y119974D01*
X98773Y120273D01*
X98474Y120529D01*
X98138Y120734D01*
X97775Y120885D01*
X97392Y120977D01*
X97000Y121008D01*
X96902Y121000D01*
X95490D01*
Y158629D01*
X95657Y158732D01*
X96719Y159639D01*
X97626Y160701D01*
X98356Y161892D01*
X98891Y163182D01*
X99217Y164541D01*
X99299Y165933D01*
X99217Y167325D01*
X98891Y168684D01*
X98356Y169974D01*
X97626Y171165D01*
X96719Y172227D01*
X95657Y173134D01*
X95490Y173237D01*
Y184000D01*
X100371D01*
G37*
G36*
X95490D02*Y173237D01*
X94466Y173864D01*
X93176Y174399D01*
X91817Y174725D01*
X90425Y174834D01*
X89033Y174725D01*
X87674Y174399D01*
X86384Y173864D01*
X85193Y173134D01*
X84131Y172227D01*
X83224Y171165D01*
X82494Y169974D01*
X81959Y168684D01*
X81633Y167325D01*
X81524Y165933D01*
X81633Y164541D01*
X81959Y163182D01*
X82494Y161892D01*
X83224Y160701D01*
X84131Y159639D01*
X85193Y158732D01*
X86384Y158002D01*
X87674Y157467D01*
X89033Y157141D01*
X90425Y157032D01*
X91817Y157141D01*
X93176Y157467D01*
X94466Y158002D01*
X95490Y158629D01*
Y121000D01*
X89098D01*
X89000Y121008D01*
X88608Y120977D01*
X88608Y120977D01*
X88225Y120885D01*
X87862Y120734D01*
X87526Y120529D01*
X87227Y120273D01*
X86971Y119974D01*
X86766Y119638D01*
X86615Y119275D01*
X86523Y118892D01*
X86492Y118500D01*
X86500Y118402D01*
Y110598D01*
X86492Y110500D01*
X86523Y110108D01*
X86523Y110108D01*
X86615Y109725D01*
X86766Y109362D01*
X86971Y109026D01*
X87227Y108727D01*
X87526Y108471D01*
X87862Y108266D01*
X88225Y108115D01*
X88608Y108023D01*
X89000Y107992D01*
X89098Y108000D01*
X95490D01*
Y84546D01*
X95115Y84701D01*
X94120Y84940D01*
X93100Y85020D01*
X92080Y84940D01*
X91085Y84701D01*
X90140Y84309D01*
X89268Y83775D01*
X88490Y83110D01*
X87825Y82332D01*
X87291Y81460D01*
X86899Y80515D01*
X86660Y79520D01*
X86580Y78500D01*
X86660Y77480D01*
X86899Y76485D01*
X87291Y75540D01*
X87825Y74668D01*
X88490Y73890D01*
X89268Y73225D01*
X90140Y72691D01*
X91085Y72299D01*
X92080Y72060D01*
X93100Y71980D01*
X94120Y72060D01*
X95115Y72299D01*
X95490Y72454D01*
Y71519D01*
X94480Y71440D01*
X93485Y71201D01*
X92540Y70809D01*
X91668Y70275D01*
X90890Y69610D01*
X90225Y68832D01*
X89691Y67960D01*
X89299Y67015D01*
X89060Y66020D01*
X88980Y65000D01*
X89060Y63980D01*
X89299Y62985D01*
X89691Y62040D01*
X90225Y61168D01*
X90890Y60390D01*
X91668Y59725D01*
X92540Y59191D01*
X93485Y58799D01*
X94480Y58560D01*
X95490Y58481D01*
Y12500D01*
X72500D01*
Y89000D01*
X76402D01*
X76500Y88992D01*
X76892Y89023D01*
X76892Y89023D01*
X77275Y89115D01*
X77638Y89266D01*
X77974Y89471D01*
X78273Y89727D01*
X78529Y90026D01*
X78734Y90362D01*
X78885Y90725D01*
X78977Y91108D01*
X79008Y91500D01*
X79000Y91598D01*
Y99402D01*
X79008Y99500D01*
X78977Y99892D01*
X78977Y99892D01*
X78885Y100275D01*
X78734Y100638D01*
X78529Y100974D01*
X78273Y101273D01*
X77974Y101529D01*
X77638Y101734D01*
X77275Y101885D01*
X76892Y101977D01*
X76500Y102008D01*
X76402Y102000D01*
X72500D01*
Y184000D01*
X95490D01*
G37*
G36*
X72500D02*Y102000D01*
X68598D01*
X68500Y102008D01*
X68108Y101977D01*
X68108Y101977D01*
X67725Y101885D01*
X67362Y101734D01*
X67026Y101529D01*
X66727Y101273D01*
X66471Y100974D01*
X66266Y100638D01*
X66115Y100275D01*
X66023Y99892D01*
X65992Y99500D01*
X66000Y99402D01*
Y91598D01*
X65992Y91500D01*
X66023Y91108D01*
X66023Y91108D01*
X66115Y90725D01*
X66266Y90362D01*
X66471Y90026D01*
X66727Y89727D01*
X67026Y89471D01*
X67362Y89266D01*
X67725Y89115D01*
X68108Y89023D01*
X68500Y88992D01*
X68598Y89000D01*
X72500D01*
Y12500D01*
X71743D01*
X66621Y17621D01*
X66269Y17935D01*
X65866Y18181D01*
X65430Y18362D01*
X64971Y18472D01*
X64500Y18509D01*
X64029Y18472D01*
X63570Y18362D01*
X63134Y18181D01*
X62731Y17935D01*
X62372Y17628D01*
X62065Y17269D01*
X61819Y16866D01*
X61638Y16430D01*
X61528Y15971D01*
X61491Y15500D01*
X61528Y15029D01*
X61638Y14570D01*
X61819Y14134D01*
X62065Y13731D01*
X62379Y13379D01*
X67361Y8397D01*
X58800Y8413D01*
Y58500D01*
X59402D01*
X59500Y58492D01*
X59892Y58523D01*
X59892Y58523D01*
X60275Y58615D01*
X60638Y58766D01*
X60974Y58971D01*
X61273Y59227D01*
X61529Y59526D01*
X61734Y59862D01*
X61885Y60225D01*
X61977Y60608D01*
X62008Y61000D01*
X62000Y61098D01*
Y68902D01*
X62008Y69000D01*
X61977Y69392D01*
X61977Y69392D01*
X61885Y69775D01*
X61734Y70138D01*
X61529Y70474D01*
X61273Y70773D01*
X60974Y71029D01*
X60638Y71234D01*
X60275Y71385D01*
X59892Y71477D01*
X59500Y71508D01*
X59402Y71500D01*
X58800D01*
Y72000D01*
X62702D01*
X62800Y71992D01*
X63192Y72023D01*
X63192Y72023D01*
X63575Y72115D01*
X63938Y72266D01*
X64274Y72471D01*
X64573Y72727D01*
X64829Y73026D01*
X65034Y73362D01*
X65185Y73725D01*
X65277Y74108D01*
X65308Y74500D01*
X65300Y74598D01*
Y82402D01*
X65308Y82500D01*
X65277Y82892D01*
X65277Y82892D01*
X65185Y83275D01*
X65034Y83638D01*
X64829Y83974D01*
X64573Y84273D01*
X64274Y84529D01*
X63938Y84734D01*
X63575Y84885D01*
X63192Y84977D01*
X62800Y85008D01*
X62702Y85000D01*
X58800D01*
Y184000D01*
X72500D01*
G37*
G36*
X50490Y8428D02*Y58712D01*
X50725Y58615D01*
X51108Y58523D01*
X51500Y58492D01*
X51598Y58500D01*
X58800D01*
Y8413D01*
X50490Y8428D01*
G37*
G36*
X52000Y161495D02*X52235Y161514D01*
X52235Y161514D01*
X52465Y161569D01*
X52683Y161659D01*
X52884Y161783D01*
X53064Y161936D01*
X53217Y162116D01*
X53341Y162317D01*
X53431Y162535D01*
X53486Y162765D01*
X53505Y163000D01*
X53500Y163059D01*
Y175941D01*
X53505Y176000D01*
X53486Y176235D01*
X53431Y176465D01*
X53341Y176683D01*
X53217Y176884D01*
X53064Y177064D01*
X52884Y177217D01*
X52683Y177341D01*
X52465Y177431D01*
X52235Y177486D01*
X52000Y177505D01*
X51941Y177500D01*
X50490D01*
Y184000D01*
X58800D01*
Y85000D01*
X54898D01*
X54800Y85008D01*
X54408Y84977D01*
X54408Y84977D01*
X54025Y84885D01*
X53662Y84734D01*
X53326Y84529D01*
X53027Y84273D01*
X52771Y83974D01*
X52566Y83638D01*
X52415Y83275D01*
X52323Y82892D01*
X52292Y82500D01*
X52300Y82402D01*
Y74598D01*
X52292Y74500D01*
X52323Y74108D01*
X52323Y74108D01*
X52415Y73725D01*
X52566Y73362D01*
X52771Y73026D01*
X53027Y72727D01*
X53326Y72471D01*
X53662Y72266D01*
X54025Y72115D01*
X54408Y72023D01*
X54800Y71992D01*
X54898Y72000D01*
X58800D01*
Y71500D01*
X51598D01*
X51500Y71508D01*
X51108Y71477D01*
X51108Y71477D01*
X50725Y71385D01*
X50490Y71288D01*
Y109731D01*
X50500Y109731D01*
X51481Y109808D01*
X52437Y110038D01*
X53346Y110414D01*
X54185Y110928D01*
X54933Y111567D01*
X55572Y112315D01*
X56086Y113154D01*
X56462Y114063D01*
X56692Y115019D01*
X56750Y116000D01*
X56692Y116981D01*
X56462Y117937D01*
X56086Y118846D01*
X55572Y119685D01*
X54933Y120433D01*
X54185Y121072D01*
X53346Y121586D01*
X52437Y121962D01*
X51481Y122192D01*
X50500Y122269D01*
X50490Y122269D01*
Y124731D01*
X50500Y124731D01*
X51481Y124808D01*
X52437Y125038D01*
X53346Y125414D01*
X54185Y125928D01*
X54933Y126567D01*
X55572Y127315D01*
X56086Y128154D01*
X56462Y129063D01*
X56692Y130019D01*
X56750Y131000D01*
X56692Y131981D01*
X56462Y132937D01*
X56086Y133846D01*
X55572Y134685D01*
X54933Y135433D01*
X54185Y136072D01*
X53346Y136586D01*
X52437Y136962D01*
X51481Y137192D01*
X50500Y137269D01*
X50490Y137269D01*
Y159869D01*
X50519Y159898D01*
X50564Y159936D01*
X50717Y160115D01*
X50717Y160116D01*
X50841Y160317D01*
X50931Y160535D01*
X50986Y160765D01*
X51005Y161000D01*
X51000Y161059D01*
Y161379D01*
X51121Y161500D01*
X51941D01*
X52000Y161495D01*
G37*
G36*
X39990Y8447D02*Y58500D01*
X43902D01*
X44000Y58492D01*
X44392Y58523D01*
X44392Y58523D01*
X44775Y58615D01*
X45138Y58766D01*
X45474Y58971D01*
X45773Y59227D01*
X46029Y59526D01*
X46234Y59862D01*
X46385Y60225D01*
X46477Y60608D01*
X46508Y61000D01*
X46500Y61098D01*
Y68902D01*
X46508Y69000D01*
X46477Y69392D01*
X46477Y69392D01*
X46385Y69775D01*
X46234Y70138D01*
X46029Y70474D01*
X45773Y70773D01*
X45474Y71029D01*
X45138Y71234D01*
X44775Y71385D01*
X44392Y71477D01*
X44000Y71508D01*
X43902Y71500D01*
X39990D01*
Y98481D01*
X40000Y98480D01*
X41020Y98560D01*
X42015Y98799D01*
X42960Y99191D01*
X43832Y99725D01*
X44610Y100390D01*
X45275Y101168D01*
X45809Y102040D01*
X46201Y102985D01*
X46440Y103980D01*
X46500Y105000D01*
X46440Y106020D01*
X46201Y107015D01*
X45809Y107960D01*
X45275Y108832D01*
X44610Y109610D01*
X43832Y110275D01*
X42960Y110809D01*
X42015Y111201D01*
X41020Y111440D01*
X40000Y111520D01*
X39990Y111519D01*
Y165079D01*
X40183Y165159D01*
X40384Y165283D01*
X40564Y165436D01*
X40717Y165616D01*
X40841Y165817D01*
X40931Y166035D01*
X40986Y166265D01*
X41005Y166500D01*
X41000Y166559D01*
Y168941D01*
X41005Y169000D01*
X40986Y169235D01*
X40986Y169235D01*
X40931Y169465D01*
X40841Y169683D01*
X40717Y169884D01*
X40564Y170064D01*
X40519Y170102D01*
X40000Y170621D01*
Y172441D01*
X40005Y172500D01*
X39990Y172686D01*
Y175068D01*
X40063Y175038D01*
X41019Y174808D01*
X42000Y174731D01*
X42981Y174808D01*
X43937Y175038D01*
X44846Y175414D01*
X45685Y175928D01*
X46012Y176207D01*
X45995Y176000D01*
X46000Y175941D01*
Y164621D01*
X44102Y166519D01*
X44064Y166564D01*
X43884Y166717D01*
X43683Y166841D01*
X43465Y166931D01*
X43280Y166975D01*
X43235Y166986D01*
X43217Y166988D01*
X43000Y167005D01*
X42765Y166986D01*
X42535Y166931D01*
X42317Y166841D01*
X42116Y166717D01*
X42115Y166717D01*
X41936Y166564D01*
X41898Y166519D01*
X40481Y165102D01*
X40436Y165064D01*
X40283Y164884D01*
X40159Y164683D01*
X40069Y164465D01*
X40014Y164235D01*
X39995Y164000D01*
X40014Y163765D01*
X40069Y163535D01*
X40159Y163317D01*
X40283Y163116D01*
X40283Y163115D01*
X40436Y162936D01*
X40481Y162898D01*
X42398Y160981D01*
X42436Y160936D01*
X42615Y160783D01*
X42616Y160783D01*
X42817Y160659D01*
X43035Y160569D01*
X43265Y160514D01*
X43500Y160495D01*
X43559Y160500D01*
X44879D01*
X45898Y159481D01*
X45936Y159436D01*
X46115Y159283D01*
X46116Y159283D01*
X46317Y159159D01*
X46535Y159069D01*
X46765Y159014D01*
X47000Y158995D01*
X47059Y159000D01*
X48941D01*
X49000Y158995D01*
X49235Y159014D01*
X49235Y159014D01*
X49465Y159069D01*
X49683Y159159D01*
X49884Y159283D01*
X50064Y159436D01*
X50102Y159481D01*
X50490Y159869D01*
Y137269D01*
X49519Y137192D01*
X48563Y136962D01*
X47654Y136586D01*
X46815Y136072D01*
X46067Y135433D01*
X45428Y134685D01*
X44914Y133846D01*
X44538Y132937D01*
X44308Y131981D01*
X44231Y131000D01*
X44308Y130019D01*
X44538Y129063D01*
X44914Y128154D01*
X45428Y127315D01*
X46067Y126567D01*
X46815Y125928D01*
X47654Y125414D01*
X48563Y125038D01*
X49519Y124808D01*
X50490Y124731D01*
Y122269D01*
X49519Y122192D01*
X48563Y121962D01*
X47654Y121586D01*
X46815Y121072D01*
X46067Y120433D01*
X45428Y119685D01*
X44914Y118846D01*
X44538Y117937D01*
X44308Y116981D01*
X44231Y116000D01*
X44308Y115019D01*
X44538Y114063D01*
X44914Y113154D01*
X45428Y112315D01*
X46067Y111567D01*
X46815Y110928D01*
X47654Y110414D01*
X48563Y110038D01*
X49519Y109808D01*
X50490Y109731D01*
Y71288D01*
X50362Y71234D01*
X50026Y71029D01*
X49727Y70773D01*
X49471Y70474D01*
X49266Y70138D01*
X49115Y69775D01*
X49023Y69392D01*
X48992Y69000D01*
X49000Y68902D01*
Y61098D01*
X48992Y61000D01*
X49023Y60608D01*
X49023Y60608D01*
X49115Y60225D01*
X49266Y59862D01*
X49471Y59526D01*
X49727Y59227D01*
X50026Y58971D01*
X50362Y58766D01*
X50490Y58712D01*
Y8428D01*
X39990Y8447D01*
G37*
G36*
X39986Y172735D02*X39986Y172735D01*
X39931Y172965D01*
X39841Y173183D01*
X39717Y173384D01*
X39564Y173564D01*
X39519Y173602D01*
X37602Y175519D01*
X37564Y175564D01*
X37384Y175717D01*
X37183Y175841D01*
X36965Y175931D01*
X36735Y175986D01*
X36500Y176005D01*
X36441Y176000D01*
X35505D01*
X35486Y176235D01*
X35431Y176465D01*
X35341Y176683D01*
X35217Y176884D01*
X35064Y177064D01*
X34884Y177217D01*
X34683Y177341D01*
X34465Y177431D01*
X34235Y177486D01*
X34000Y177500D01*
X30500D01*
Y184000D01*
X36508D01*
X36414Y183846D01*
X36038Y182937D01*
X35808Y181981D01*
X35731Y181000D01*
X35808Y180019D01*
X36038Y179063D01*
X36414Y178154D01*
X36928Y177315D01*
X37567Y176567D01*
X38315Y175928D01*
X39154Y175414D01*
X39990Y175068D01*
Y172686D01*
X39986Y172735D01*
G37*
G36*
X30500Y8465D02*Y16036D01*
X30566Y16031D01*
X31499Y16104D01*
X32408Y16323D01*
X33273Y16681D01*
X34071Y17170D01*
X34782Y17777D01*
X35390Y18489D01*
X35879Y19287D01*
X36237Y20151D01*
X36455Y21061D01*
X36511Y21994D01*
X36455Y22927D01*
X36237Y23837D01*
X35879Y24701D01*
X35390Y25499D01*
X34782Y26211D01*
X34071Y26818D01*
X33273Y27307D01*
X32408Y27665D01*
X31499Y27884D01*
X30566Y27957D01*
X30500Y27952D01*
Y109933D01*
X31019Y109808D01*
X32000Y109731D01*
X32981Y109808D01*
X33937Y110038D01*
X34846Y110414D01*
X35685Y110928D01*
X36433Y111567D01*
X37072Y112315D01*
X37586Y113154D01*
X37962Y114063D01*
X38192Y115019D01*
X38250Y116000D01*
X38192Y116981D01*
X37962Y117937D01*
X37586Y118846D01*
X37072Y119685D01*
X36433Y120433D01*
X35685Y121072D01*
X34846Y121586D01*
X33937Y121962D01*
X32981Y122192D01*
X32000Y122269D01*
X31019Y122192D01*
X30500Y122067D01*
Y124750D01*
X36750D01*
X36828Y124755D01*
X36905Y124773D01*
X36978Y124803D01*
X37045Y124844D01*
X37105Y124895D01*
X37156Y124955D01*
X37197Y125022D01*
X37227Y125095D01*
X37245Y125172D01*
X37252Y125250D01*
X37245Y125328D01*
X37227Y125405D01*
X37197Y125478D01*
X37156Y125545D01*
X37105Y125605D01*
X37045Y125656D01*
X36978Y125697D01*
X36905Y125727D01*
X36828Y125745D01*
X36750Y125750D01*
X37250D01*
Y126250D01*
X37255Y126172D01*
X37273Y126095D01*
X37303Y126022D01*
X37344Y125955D01*
X37395Y125895D01*
X37455Y125844D01*
X37522Y125803D01*
X37595Y125773D01*
X37672Y125755D01*
X37750Y125748D01*
X37828Y125755D01*
X37905Y125773D01*
X37978Y125803D01*
X38045Y125844D01*
X38105Y125895D01*
X38156Y125955D01*
X38197Y126022D01*
X38227Y126095D01*
X38245Y126172D01*
X38250Y126250D01*
Y135750D01*
X38245Y135828D01*
X38227Y135905D01*
X38197Y135978D01*
X38156Y136045D01*
X38105Y136105D01*
X38045Y136156D01*
X37978Y136197D01*
X37905Y136227D01*
X37828Y136245D01*
X37750Y136252D01*
X37672Y136245D01*
X37595Y136227D01*
X37522Y136197D01*
X37455Y136156D01*
X37395Y136105D01*
X37344Y136045D01*
X37303Y135978D01*
X37273Y135905D01*
X37255Y135828D01*
X37250Y135750D01*
Y136250D01*
X36750D01*
X36828Y136255D01*
X36905Y136273D01*
X36978Y136303D01*
X37045Y136344D01*
X37105Y136395D01*
X37156Y136455D01*
X37197Y136522D01*
X37227Y136595D01*
X37245Y136672D01*
X37252Y136750D01*
X37245Y136828D01*
X37227Y136905D01*
X37197Y136978D01*
X37156Y137045D01*
X37105Y137105D01*
X37045Y137156D01*
X36978Y137197D01*
X36905Y137227D01*
X36828Y137245D01*
X36750Y137250D01*
X30500D01*
Y166879D01*
X30621Y167000D01*
X36879D01*
X38398Y165481D01*
X38436Y165436D01*
X38616Y165283D01*
X38817Y165159D01*
X39035Y165069D01*
X39265Y165014D01*
X39500Y164995D01*
X39500D01*
X39735Y165014D01*
X39965Y165069D01*
X39990Y165079D01*
Y111519D01*
X38980Y111440D01*
X37985Y111201D01*
X37040Y110809D01*
X36168Y110275D01*
X35390Y109610D01*
X34725Y108832D01*
X34191Y107960D01*
X33799Y107015D01*
X33560Y106020D01*
X33480Y105000D01*
X33560Y103980D01*
X33799Y102985D01*
X34191Y102040D01*
X34725Y101168D01*
X35390Y100390D01*
X36168Y99725D01*
X37040Y99191D01*
X37985Y98799D01*
X38980Y98560D01*
X39990Y98481D01*
Y71500D01*
X36098D01*
X36000Y71508D01*
X35608Y71477D01*
X35608Y71477D01*
X35225Y71385D01*
X34862Y71234D01*
X34526Y71029D01*
X34227Y70773D01*
X33971Y70474D01*
X33766Y70138D01*
X33615Y69775D01*
X33523Y69392D01*
X33492Y69000D01*
X33500Y68902D01*
Y61098D01*
X33492Y61000D01*
X33523Y60608D01*
X33523Y60608D01*
X33615Y60225D01*
X33766Y59862D01*
X33971Y59526D01*
X34227Y59227D01*
X34526Y58971D01*
X34862Y58766D01*
X35225Y58615D01*
X35608Y58523D01*
X36000Y58492D01*
X36098Y58500D01*
X39990D01*
Y8447D01*
X30500Y8465D01*
G37*
G36*
X47559Y177500D02*X47500Y177505D01*
X47265Y177486D01*
X47162Y177461D01*
X47586Y178154D01*
X47962Y179063D01*
X48192Y180019D01*
X48250Y181000D01*
X48192Y181981D01*
X47962Y182937D01*
X47586Y183846D01*
X47492Y184000D01*
X50490D01*
Y177500D01*
X47559D01*
G37*
G36*
X22379Y163500D02*X22898Y162981D01*
X22936Y162936D01*
X23116Y162783D01*
X23317Y162659D01*
X23535Y162569D01*
X23765Y162514D01*
X24000Y162495D01*
X24059Y162500D01*
X27441D01*
X27500Y162495D01*
X27735Y162514D01*
X27735Y162514D01*
X27965Y162569D01*
X28183Y162659D01*
X28384Y162783D01*
X28564Y162936D01*
X28602Y162981D01*
X29519Y163898D01*
X29564Y163936D01*
X29717Y164115D01*
X29717Y164116D01*
X29841Y164317D01*
X29931Y164535D01*
X29986Y164765D01*
X30005Y165000D01*
X30000Y165059D01*
Y166379D01*
X30500Y166879D01*
Y137250D01*
X27250D01*
X27172Y137245D01*
X27095Y137227D01*
X27022Y137197D01*
X26955Y137156D01*
X26895Y137105D01*
X26844Y137045D01*
X26803Y136978D01*
X26773Y136905D01*
X26755Y136828D01*
X26748Y136750D01*
X26755Y136672D01*
X26773Y136595D01*
X26803Y136522D01*
X26844Y136455D01*
X26895Y136395D01*
X26955Y136344D01*
X27022Y136303D01*
X27095Y136273D01*
X27172Y136255D01*
X27250Y136250D01*
X26750D01*
Y135750D01*
X26745Y135828D01*
X26727Y135905D01*
X26697Y135978D01*
X26656Y136045D01*
X26605Y136105D01*
X26545Y136156D01*
X26478Y136197D01*
X26405Y136227D01*
X26328Y136245D01*
X26250Y136252D01*
X26172Y136245D01*
X26095Y136227D01*
X26022Y136197D01*
X25955Y136156D01*
X25895Y136105D01*
X25844Y136045D01*
X25803Y135978D01*
X25773Y135905D01*
X25755Y135828D01*
X25750Y135750D01*
Y126250D01*
X25755Y126172D01*
X25773Y126095D01*
X25803Y126022D01*
X25844Y125955D01*
X25895Y125895D01*
X25955Y125844D01*
X26022Y125803D01*
X26095Y125773D01*
X26172Y125755D01*
X26250Y125748D01*
X26328Y125755D01*
X26405Y125773D01*
X26478Y125803D01*
X26545Y125844D01*
X26605Y125895D01*
X26656Y125955D01*
X26697Y126022D01*
X26727Y126095D01*
X26745Y126172D01*
X26750Y126250D01*
Y125750D01*
X27250D01*
X27172Y125745D01*
X27095Y125727D01*
X27022Y125697D01*
X26955Y125656D01*
X26895Y125605D01*
X26844Y125545D01*
X26803Y125478D01*
X26773Y125405D01*
X26755Y125328D01*
X26748Y125250D01*
X26755Y125172D01*
X26773Y125095D01*
X26803Y125022D01*
X26844Y124955D01*
X26895Y124895D01*
X26955Y124844D01*
X27022Y124803D01*
X27095Y124773D01*
X27172Y124755D01*
X27250Y124750D01*
X30500D01*
Y122067D01*
X30063Y121962D01*
X29154Y121586D01*
X28315Y121072D01*
X27567Y120433D01*
X26928Y119685D01*
X26414Y118846D01*
X26038Y117937D01*
X25808Y116981D01*
X25731Y116000D01*
X25808Y115019D01*
X26038Y114063D01*
X26414Y113154D01*
X26928Y112315D01*
X27567Y111567D01*
X28315Y110928D01*
X29154Y110414D01*
X30063Y110038D01*
X30500Y109933D01*
Y27952D01*
X29633Y27884D01*
X28723Y27665D01*
X27858Y27307D01*
X27061Y26818D01*
X26349Y26211D01*
X25741Y25499D01*
X25687Y25410D01*
X25614Y25427D01*
X25418Y25443D01*
X25222Y25427D01*
X25031Y25381D01*
X24849Y25306D01*
X24681Y25203D01*
X24531Y25075D01*
X24404Y24926D01*
X24301Y24758D01*
X24226Y24576D01*
X24180Y24385D01*
X24168Y24189D01*
Y25439D01*
X22918D01*
X23114Y25450D01*
X23305Y25496D01*
X23487Y25572D01*
X23655Y25674D01*
X23805Y25802D01*
X23932Y25952D01*
X24035Y26120D01*
X24111Y26301D01*
X24156Y26493D01*
X24172Y26689D01*
X24156Y26885D01*
X24111Y27076D01*
X24035Y27258D01*
X23932Y27426D01*
X23805Y27575D01*
X23655Y27703D01*
X23487Y27806D01*
X23305Y27881D01*
X23114Y27927D01*
X22918Y27939D01*
X22000D01*
Y58500D01*
X25902D01*
X26000Y58492D01*
X26392Y58523D01*
X26392Y58523D01*
X26775Y58615D01*
X27138Y58766D01*
X27474Y58971D01*
X27773Y59227D01*
X28029Y59526D01*
X28234Y59862D01*
X28385Y60225D01*
X28477Y60608D01*
X28508Y61000D01*
X28500Y61098D01*
Y68902D01*
X28508Y69000D01*
X28477Y69392D01*
X28477Y69392D01*
X28385Y69775D01*
X28234Y70138D01*
X28029Y70474D01*
X27773Y70773D01*
X27474Y71029D01*
X27138Y71234D01*
X26775Y71385D01*
X26392Y71477D01*
X26000Y71508D01*
X25902Y71500D01*
X22000D01*
Y98480D01*
X23020Y98560D01*
X24015Y98799D01*
X24960Y99191D01*
X25832Y99725D01*
X26610Y100390D01*
X27275Y101168D01*
X27809Y102040D01*
X28201Y102985D01*
X28440Y103980D01*
X28500Y105000D01*
X28440Y106020D01*
X28201Y107015D01*
X27809Y107960D01*
X27275Y108832D01*
X26610Y109610D01*
X25832Y110275D01*
X24960Y110809D01*
X24015Y111201D01*
X23020Y111440D01*
X22000Y111520D01*
Y163500D01*
X22379D01*
G37*
G36*
X22981Y174808D02*X23937Y175038D01*
X24846Y175414D01*
X25685Y175928D01*
X26433Y176567D01*
X27072Y177315D01*
X27586Y178154D01*
X27962Y179063D01*
X28192Y180019D01*
X28250Y181000D01*
X28192Y181981D01*
X27962Y182937D01*
X27586Y183846D01*
X27492Y184000D01*
X30500D01*
Y177500D01*
X30000D01*
X29765Y177486D01*
X29535Y177431D01*
X29317Y177341D01*
X29116Y177217D01*
X28936Y177064D01*
X28783Y176884D01*
X28659Y176683D01*
X28569Y176465D01*
X28514Y176235D01*
X28495Y176000D01*
X27559D01*
X27500Y176005D01*
X27265Y175986D01*
X27035Y175931D01*
X26817Y175841D01*
X26616Y175717D01*
X26615Y175717D01*
X26436Y175564D01*
X26398Y175519D01*
X23981Y173102D01*
X23936Y173064D01*
X23783Y172884D01*
X23659Y172683D01*
X23569Y172465D01*
X23514Y172235D01*
X23514Y172235D01*
X23495Y172000D01*
X23500Y171941D01*
Y168559D01*
X23495Y168500D01*
X23514Y168265D01*
X23569Y168035D01*
X23659Y167817D01*
X23783Y167616D01*
X23885Y167496D01*
X23765Y167486D01*
X23535Y167431D01*
X23317Y167341D01*
X23116Y167217D01*
X23115Y167217D01*
X22936Y167064D01*
X22898Y167019D01*
X22379Y166500D01*
X22000D01*
Y174731D01*
X22981Y174808D01*
G37*
G36*
X22000Y8481D02*Y16049D01*
X22918D01*
X23114Y16061D01*
X23305Y16107D01*
X23487Y16182D01*
X23655Y16285D01*
X23805Y16412D01*
X23932Y16562D01*
X24035Y16730D01*
X24111Y16912D01*
X24156Y17103D01*
X24172Y17299D01*
X24156Y17495D01*
X24111Y17687D01*
X24035Y17868D01*
X23932Y18036D01*
X23805Y18186D01*
X23655Y18313D01*
X23487Y18416D01*
X23305Y18492D01*
X23114Y18537D01*
X22918Y18549D01*
X24168D01*
Y19799D01*
X24180Y19603D01*
X24226Y19412D01*
X24301Y19230D01*
X24404Y19062D01*
X24531Y18912D01*
X24681Y18785D01*
X24849Y18682D01*
X25031Y18607D01*
X25222Y18561D01*
X25418Y18545D01*
X25614Y18561D01*
X25687Y18578D01*
X25741Y18489D01*
X26349Y17777D01*
X27061Y17170D01*
X27858Y16681D01*
X28723Y16323D01*
X29633Y16104D01*
X30500Y16036D01*
Y8465D01*
X22000Y8481D01*
G37*
G36*
X13490Y8496D02*Y109731D01*
X13500Y109731D01*
X14481Y109808D01*
X15437Y110038D01*
X16346Y110414D01*
X17185Y110928D01*
X17933Y111567D01*
X18572Y112315D01*
X19086Y113154D01*
X19462Y114063D01*
X19692Y115019D01*
X19750Y116000D01*
X19692Y116981D01*
X19462Y117937D01*
X19086Y118846D01*
X18572Y119685D01*
X17933Y120433D01*
X17185Y121072D01*
X16346Y121586D01*
X15437Y121962D01*
X14481Y122192D01*
X13500Y122269D01*
X13490Y122269D01*
Y124731D01*
X13500Y124731D01*
X14481Y124808D01*
X15437Y125038D01*
X16346Y125414D01*
X17185Y125928D01*
X17933Y126567D01*
X18572Y127315D01*
X19086Y128154D01*
X19462Y129063D01*
X19692Y130019D01*
X19750Y131000D01*
X19692Y131981D01*
X19462Y132937D01*
X19086Y133846D01*
X18572Y134685D01*
X17933Y135433D01*
X17185Y136072D01*
X16346Y136586D01*
X15437Y136962D01*
X14481Y137192D01*
X13500Y137269D01*
X13490Y137269D01*
Y184000D01*
X16508D01*
X16414Y183846D01*
X16038Y182937D01*
X15808Y181981D01*
X15731Y181000D01*
X15808Y180019D01*
X16038Y179063D01*
X16414Y178154D01*
X16928Y177315D01*
X17567Y176567D01*
X18315Y175928D01*
X19154Y175414D01*
X20063Y175038D01*
X21019Y174808D01*
X22000Y174731D01*
Y166500D01*
X21500D01*
X21265Y166486D01*
X21035Y166431D01*
X20817Y166341D01*
X20616Y166217D01*
X20436Y166064D01*
X20283Y165884D01*
X20159Y165683D01*
X20069Y165465D01*
X20014Y165235D01*
X19995Y165000D01*
X20014Y164765D01*
X20069Y164535D01*
X20159Y164317D01*
X20283Y164116D01*
X20436Y163936D01*
X20616Y163783D01*
X20817Y163659D01*
X21035Y163569D01*
X21265Y163514D01*
X21500Y163500D01*
X22000D01*
Y111520D01*
X20980Y111440D01*
X19985Y111201D01*
X19040Y110809D01*
X18168Y110275D01*
X17390Y109610D01*
X16725Y108832D01*
X16191Y107960D01*
X15799Y107015D01*
X15560Y106020D01*
X15480Y105000D01*
X15560Y103980D01*
X15799Y102985D01*
X16191Y102040D01*
X16725Y101168D01*
X17390Y100390D01*
X18168Y99725D01*
X19040Y99191D01*
X19985Y98799D01*
X20980Y98560D01*
X22000Y98480D01*
Y71500D01*
X18098D01*
X18000Y71508D01*
X17608Y71477D01*
X17608Y71477D01*
X17225Y71385D01*
X16862Y71234D01*
X16526Y71029D01*
X16227Y70773D01*
X15971Y70474D01*
X15766Y70138D01*
X15615Y69775D01*
X15523Y69392D01*
X15492Y69000D01*
X15500Y68902D01*
Y61098D01*
X15492Y61000D01*
X15523Y60608D01*
X15523Y60608D01*
X15615Y60225D01*
X15766Y59862D01*
X15971Y59526D01*
X16227Y59227D01*
X16526Y58971D01*
X16862Y58766D01*
X17225Y58615D01*
X17608Y58523D01*
X18000Y58492D01*
X18098Y58500D01*
X22000D01*
Y27939D01*
X18528D01*
X18332Y27927D01*
X18141Y27881D01*
X17959Y27806D01*
X17791Y27703D01*
X17642Y27575D01*
X17514Y27426D01*
X17411Y27258D01*
X17336Y27076D01*
X17290Y26885D01*
X17274Y26689D01*
X17290Y26493D01*
X17336Y26301D01*
X17411Y26120D01*
X17514Y25952D01*
X17642Y25802D01*
X17791Y25674D01*
X17959Y25572D01*
X18141Y25496D01*
X18332Y25450D01*
X18528Y25439D01*
X17278D01*
Y24189D01*
X17267Y24385D01*
X17221Y24576D01*
X17145Y24758D01*
X17043Y24926D01*
X16915Y25075D01*
X16765Y25203D01*
X16598Y25306D01*
X16416Y25381D01*
X16224Y25427D01*
X16028Y25443D01*
X15832Y25427D01*
X15641Y25381D01*
X15459Y25306D01*
X15291Y25203D01*
X15142Y25075D01*
X15014Y24926D01*
X14911Y24758D01*
X14836Y24576D01*
X14790Y24385D01*
X14778Y24189D01*
Y19799D01*
X14790Y19603D01*
X14836Y19412D01*
X14911Y19230D01*
X15014Y19062D01*
X15142Y18912D01*
X15291Y18785D01*
X15459Y18682D01*
X15641Y18607D01*
X15832Y18561D01*
X16028Y18545D01*
X16224Y18561D01*
X16416Y18607D01*
X16598Y18682D01*
X16765Y18785D01*
X16915Y18912D01*
X17043Y19062D01*
X17145Y19230D01*
X17221Y19412D01*
X17267Y19603D01*
X17278Y19799D01*
Y18549D01*
X18528D01*
X18332Y18537D01*
X18141Y18492D01*
X17959Y18416D01*
X17791Y18313D01*
X17642Y18186D01*
X17514Y18036D01*
X17411Y17868D01*
X17336Y17687D01*
X17290Y17495D01*
X17274Y17299D01*
X17290Y17103D01*
X17336Y16912D01*
X17411Y16730D01*
X17514Y16562D01*
X17642Y16412D01*
X17791Y16285D01*
X17959Y16182D01*
X18141Y16107D01*
X18332Y16061D01*
X18528Y16049D01*
X22000D01*
Y8481D01*
X13490Y8496D01*
G37*
G36*
X11500Y8500D02*X6500Y13500D01*
Y184000D01*
X13490D01*
Y137269D01*
X12519Y137192D01*
X11563Y136962D01*
X10654Y136586D01*
X9815Y136072D01*
X9067Y135433D01*
X8428Y134685D01*
X7914Y133846D01*
X7538Y132937D01*
X7308Y131981D01*
X7231Y131000D01*
X7308Y130019D01*
X7538Y129063D01*
X7914Y128154D01*
X8428Y127315D01*
X9067Y126567D01*
X9815Y125928D01*
X10654Y125414D01*
X11563Y125038D01*
X12519Y124808D01*
X13490Y124731D01*
Y122269D01*
X12519Y122192D01*
X11563Y121962D01*
X10654Y121586D01*
X9815Y121072D01*
X9067Y120433D01*
X8428Y119685D01*
X7914Y118846D01*
X7538Y117937D01*
X7308Y116981D01*
X7231Y116000D01*
X7308Y115019D01*
X7538Y114063D01*
X7914Y113154D01*
X8428Y112315D01*
X9067Y111567D01*
X9815Y110928D01*
X10654Y110414D01*
X11563Y110038D01*
X12519Y109808D01*
X13490Y109731D01*
Y8496D01*
X11500Y8500D01*
G37*
G54D35*X25000Y172000D02*X27500Y174500D01*
X32500Y175500D02*Y175000D01*
G54D36*X28500Y172000D02*X35000D01*
X27500Y171000D02*X28500Y172000D01*
G54D35*X30000Y176000D02*X34000D01*
X27500Y174500D02*X36500D01*
G54D36*Y170500D02*X34500Y168500D01*
G54D35*X38500Y170000D02*X39500Y169000D01*
G54D36*X35000Y172000D02*X36500Y170500D01*
G54D35*X38500Y172500D02*Y170000D01*
X30500Y168500D02*X37500D01*
X36500Y174500D02*X38500Y172500D01*
X47500Y176000D02*Y163000D01*
Y176000D02*X52000D01*
Y163000D01*
G54D36*X27500Y171000D02*Y169500D01*
X28500Y168500D02*X27500Y169500D01*
G54D35*X25000Y172000D02*Y168500D01*
G54D36*X28500D02*X30000D01*
G54D35*X28500Y167000D02*Y165000D01*
X30000Y168500D02*X28500Y167000D01*
X30000Y168500D02*X31000D01*
X25500Y165000D02*Y164500D01*
X39500Y166500D02*X37500Y168500D01*
X39500Y169000D02*Y166500D01*
X43000Y165500D02*X41500Y164000D01*
X45500Y163000D02*X43000Y165500D01*
X43500Y162000D02*X41500Y164000D01*
G54D37*X103614Y154122D02*Y153886D01*
X111882Y154122D02*Y163965D01*
G54D38*X169010Y165000D02*X168870Y164860D01*
X264500Y9500D02*X70500D01*
X186500Y165000D02*X169010D01*
X168870Y164860D02*Y150630D01*
X169000Y150500D01*
X238000Y19500D02*Y9500D01*
X111500Y20500D02*Y9500D01*
X264500D02*X268000Y13000D01*
X64500Y15500D02*X70500Y9500D01*
G54D35*X45500Y163000D02*Y162000D01*
X43500D02*X45500D01*
X47000Y160500D02*X45500Y162000D01*
X47000Y160500D02*X49000D01*
X49500Y161000D02*X49000Y160500D01*
X49500Y162000D02*Y161000D01*
Y162000D02*X48500Y163000D01*
X50500D02*X49500Y162000D01*
X50500Y163000D02*X52000D01*
X47500D02*X52000D01*
G54D37*X111882Y163965D02*X117000Y169083D01*
G54D35*X26500Y167000D02*X25000Y168500D01*
X26500Y167000D02*Y166000D01*
X24000D02*X26500D01*
X23000Y165000D02*X24000Y166000D01*
X28500Y165000D02*X27500Y164000D01*
X24000D02*X23000Y165000D01*
X24000Y164000D02*X27500D01*
X21500Y165000D02*X23000D01*
X10500Y153000D02*Y156500D01*
X11000Y157000D01*
X10000Y154500D02*X11000D01*
X12000Y155500D02*Y156500D01*
Y155500D02*X12500Y155000D01*
X13500D01*
X14000Y155500D01*
Y156500D01*
X13500Y157000D02*X14000Y156500D01*
X12500Y157000D02*X13500D01*
X12000Y156500D02*X12500Y157000D01*
X17500Y153500D02*Y157000D01*
Y153500D02*X18000Y153000D01*
X18500D01*
X17000Y155000D02*X18000D01*
X19500Y153000D02*Y156500D01*
X20000Y157000D01*
X22500Y155000D02*X23000Y155500D01*
X21500Y155000D02*X22500D01*
X21000Y155500D02*X21500Y155000D01*
X21000Y155500D02*Y156500D01*
X21500Y157000D01*
X23000Y155000D02*Y156500D01*
X23500Y157000D01*
X21500D02*X22500D01*
X23000Y156500D01*
X25200Y155500D02*Y157000D01*
Y155500D02*X25700Y155000D01*
X26200D01*
X26700Y155500D01*
Y157000D01*
Y155500D02*X27200Y155000D01*
X27700D01*
X28200Y155500D01*
Y157000D01*
X24700Y155000D02*X25200Y155500D01*
X29400Y154000D02*Y154500D01*
Y155500D02*Y157000D01*
X30900Y155500D02*Y157000D01*
Y155500D02*X31400Y155000D01*
X31900D01*
X32400Y155500D01*
Y157000D01*
X30400Y155000D02*X30900Y155500D01*
X35100Y155000D02*X35600Y155500D01*
X34100Y155000D02*X35100D01*
X33600Y155500D02*X34100Y155000D01*
X33600Y155500D02*Y156500D01*
X34100Y157000D01*
X35100D01*
X35600Y156500D01*
X33600Y158000D02*X34100Y158500D01*
X35100D01*
X35600Y158000D01*
Y155000D02*Y158000D01*
X40600Y153000D02*Y157000D01*
X40100D02*X40600Y156500D01*
X39100Y157000D02*X40100D01*
X38600Y156500D02*X39100Y157000D01*
X38600Y155500D02*Y156500D01*
Y155500D02*X39100Y155000D01*
X40100D01*
X40600Y155500D01*
X41800Y155000D02*Y156500D01*
X42300Y157000D01*
X43300D01*
X43800Y156500D01*
Y155000D02*Y156500D01*
X45500Y155000D02*X47000D01*
X45000Y155500D02*X45500Y155000D01*
X45000Y155500D02*Y156500D01*
X45500Y157000D01*
X47000D01*
X48200Y153000D02*Y157000D01*
Y155500D02*X49700Y157000D01*
X48200Y155500D02*X49200Y154500D01*
X51400Y157000D02*X52900D01*
X53400Y156500D01*
X52900Y156000D02*X53400Y156500D01*
X51400Y156000D02*X52900D01*
X50900Y155500D02*X51400Y156000D01*
X50900Y155500D02*X51400Y155000D01*
X52900D01*
X53400Y155500D01*
X50900Y156500D02*X51400Y157000D01*
X54600D02*X55100D01*
X15000Y145000D02*X16500D01*
Y148500D01*
X16000Y149000D02*X16500Y148500D01*
X15500Y149000D02*X16000D01*
X15000Y148500D02*X15500Y149000D01*
X17700Y147000D02*Y148500D01*
X18200Y149000D01*
X19200D01*
X19700Y148500D01*
Y147000D02*Y148500D01*
X21400Y149000D02*X22900D01*
X23400Y148500D01*
X22900Y148000D02*X23400Y148500D01*
X21400Y148000D02*X22900D01*
X20900Y147500D02*X21400Y148000D01*
X20900Y147500D02*X21400Y147000D01*
X22900D01*
X23400Y147500D01*
X20900Y148500D02*X21400Y149000D01*
X25100Y145000D02*Y148500D01*
X25600Y149000D01*
X24600Y146500D02*X25600D01*
X28900Y149000D02*X30400D01*
X30900Y148500D01*
X30400Y148000D02*X30900Y148500D01*
X28900Y148000D02*X30400D01*
X28400Y147500D02*X28900Y148000D01*
X28400Y147500D02*X28900Y147000D01*
X30400D01*
X30900Y147500D01*
X28400Y148500D02*X28900Y149000D01*
X33600Y147000D02*X34100Y147500D01*
X32600Y147000D02*X33600D01*
X32100Y147500D02*X32600Y147000D01*
X32100Y147500D02*Y148500D01*
X32600Y149000D01*
X34100Y147000D02*Y148500D01*
X34600Y149000D01*
X32600D02*X33600D01*
X34100Y148500D01*
X35800Y147000D02*Y148500D01*
X36300Y149000D01*
X37800Y147000D02*Y150000D01*
X37300Y150500D02*X37800Y150000D01*
X36300Y150500D02*X37300D01*
X35800Y150000D02*X36300Y150500D01*
Y149000D02*X37300D01*
X37800Y148500D01*
X40800Y145000D02*Y149000D01*
Y145000D02*Y145500D01*
X43300Y148000D01*
Y145000D02*Y149000D01*
X44500Y145500D02*Y148500D01*
Y145500D02*X45000Y145000D01*
X46000D01*
X46500Y145500D01*
Y148500D01*
X46000Y149000D02*X46500Y148500D01*
X45000Y149000D02*X46000D01*
X44500Y148500D02*X45000Y149000D01*
G54D39*X95500Y65000D03*
G54D40*X170500Y56500D03*
G54D41*X119500Y82000D03*
G54D34*G36*
X134055Y79445D02*X140945D01*
Y72555D01*
X134055D01*
Y79445D01*
G37*
G54D42*X147343Y76000D03*
G54D40*X111500Y20500D03*
X179552Y81500D03*
X142500Y20500D03*
G54D39*X93100Y78500D03*
X112500Y95500D03*
G54D34*G36*
X89000Y118500D02*X97000D01*
Y110500D01*
X89000D01*
Y118500D01*
G37*
G54D39*X112700Y114500D03*
G54D34*G36*
X123043Y109000D02*X131043D01*
Y101000D01*
X123043D01*
Y109000D01*
G37*
G54D39*X167043Y105000D03*
G54D34*G36*
X194000Y23500D02*X202000D01*
Y15500D01*
X194000D01*
Y23500D01*
G37*
G36*
X254000Y116000D02*X262000D01*
Y108000D01*
X254000D01*
Y116000D01*
G37*
G54D40*X237405Y93457D03*
X229086Y74957D03*
G54D34*G36*
X254500Y91000D02*X262500D01*
Y83000D01*
X254500D01*
Y91000D01*
G37*
G36*
Y58000D02*X262500D01*
Y50000D01*
X254500D01*
Y58000D01*
G37*
G54D39*X268500Y54000D03*
G54D34*G36*
X225055Y48945D02*X231945D01*
Y42055D01*
X225055D01*
Y48945D01*
G37*
G54D40*X268000Y13000D03*
G54D39*X278500Y54000D03*
X238000Y19500D03*
G54D42*X238343Y45500D03*
G54D39*X288500Y54000D03*
X298500D03*
X268500Y87000D03*
X278500D03*
X288500D03*
X298500D03*
G54D43*X22000Y181000D03*
X42000D03*
X13500Y131000D03*
Y116000D03*
X32000D03*
G54D34*G36*
X26750Y136250D02*X37250D01*
Y125750D01*
X26750D01*
Y136250D01*
G37*
G54D43*X50500Y131000D03*
Y116000D03*
G54D39*X40000Y105000D03*
G54D41*X64500Y15500D03*
G54D34*G36*
X51500Y69000D02*X59500D01*
Y61000D01*
X51500D01*
Y69000D01*
G37*
G36*
X36000Y61000D02*Y69000D01*
X44000D01*
Y61000D01*
X36000D01*
G37*
G36*
X54800Y82500D02*X62800D01*
Y74500D01*
X54800D01*
Y82500D01*
G37*
G54D42*X30566Y21994D03*
G54D34*G36*
X18000Y61000D02*Y69000D01*
X26000D01*
Y61000D01*
X18000D01*
G37*
G36*
X17278Y25439D02*X24168D01*
Y18549D01*
X17278D01*
Y25439D01*
G37*
G54D39*X22000Y105000D03*
G54D34*G36*
X68500Y99500D02*X76500D01*
Y91500D01*
X68500D01*
Y99500D01*
G37*
G54D44*X90425Y165933D03*
G54D45*X103614Y144280D03*
X111882Y154122D03*
X103614D03*
G54D44*X117000Y169083D03*
X143575Y165933D03*
G54D45*X130386Y154122D03*
G54D46*X260500Y160500D03*
G54D34*G36*
X180004Y172283D02*X192996D01*
Y157717D01*
X180004D01*
Y172283D01*
G37*
G36*
X203626D02*X216618D01*
Y157717D01*
X203626D01*
Y172283D01*
G37*
G36*
X163949Y169782D02*Y159939D01*
X173791D01*
Y169782D01*
X163949D01*
G37*
G54D47*X227925Y164860D03*
G54D45*X130386Y144280D03*
G54D34*G36*
X159749Y154240D02*X154631D01*
Y146760D01*
X159749D01*
Y154240D01*
G37*
G36*
X171559D02*X166441D01*
Y146760D01*
X171559D01*
Y154240D01*
G37*
G54D46*X300500Y160500D03*
G54D39*X298000Y112000D03*
X270500Y140500D03*
X280500D03*
G54D34*G36*
X156713Y133945D02*X163602D01*
Y127055D01*
X156713D01*
Y133945D01*
G37*
G54D42*X170000Y130500D03*
G54D34*G36*
X196038Y133888D02*X202927D01*
Y126999D01*
X196038D01*
Y133888D01*
G37*
G54D42*X209325Y130444D03*
G54D48*G54D49*G54D50*G54D51*G54D49*G54D48*G54D49*G54D38*G54D51*G54D49*G54D38*G54D48*G54D51*G54D38*G54D52*G54D53*G54D48*G54D50*G54D48*G54D51*G54D48*G54D51*G54D48*G54D54*G54D55*G54D54*G54D55*G54D56*G54D57*G54D55*G54D56*G54D48*G54D58*G54D51*M02*
