M48
INCH
T24C0.028
T23C0.028
T22C0.071
T21C0.035
T20C0.030
T19C0.040
T18C0.042
T17C0.039
T16C0.037
T15C0.032
T14C0.079
T13C0.036
T12C0.093
T11C0.065
%
T24
G05
X018500Y007400
X019484Y007400
X019000Y010600
X019984Y010600
T23
X002000Y005300
X003000Y005300
X002000Y002300
X003000Y002300
X004000Y005300
X005000Y005300
X004000Y002300
X005000Y002300
X011950Y005450
X011950Y004450
X011950Y003450
X011950Y002450
X014950Y002450
X014950Y003450
X014950Y004450
X014950Y005450
T20
X020200Y003450
X024200Y003450
T15
X027050Y014050
X028050Y014050
T21
X026800Y001300
T13
X010361Y014428
X011188Y015412
X010361Y015412
X013039Y015412
X013039Y014428
T16
X022793Y016486
X016887Y016486
T17
X021900Y011400
X023500Y011400
X021900Y007400
X023500Y007400
X025750Y011350
X029750Y011350
X022250Y001950
X002200Y006500
X002200Y010500
X005550Y006500
X004000Y010500
X009550Y006500
X009550Y009100
X009550Y010700
X011520Y010700
X011130Y007100
X006603Y004616
X010603Y004616
X009650Y002450
X009650Y003450
X004000Y006500
X018250Y001950
X016200Y007400
X017650Y004450
X017650Y005450
X017750Y013150
X018750Y013150
X013550Y009100
X014560Y007100
X016200Y011400
T19
X025850Y008700
X026850Y008700
X027850Y008700
X028850Y008700
X029850Y008700
X025850Y005400
X026850Y005400
X027850Y005400
X028850Y005400
X029850Y005400
T18
X022750Y013150
X021750Y013150
X020750Y013150
T11
X002200Y018100
X004200Y018100
T22
X003200Y013100
X003200Y011600
X001350Y013100
X005050Y013100
X005050Y011600
X001350Y011600
T14
X026050Y016050
X030050Y016050
T12
X009042Y016593
X011700Y016908
X014358Y016593
M30
