G04 start of page 2 for group -1 layer_idx 268435460 *
G04 Title: (unknown), <virtual group> *
G04 Creator: pcb-rnd 3.1.7-dev *
G04 CreationDate: 2025-04-04 01:09:41 UTC *
G04 For:  *
G04 Format: Gerber/RS-274X *
G04 PCB-Dimensions: 316500 193500 *
G04 PCB-Coordinate-Origin: lower left *
%MOIN*%
%FSLAX25Y25*%
%LNBOTTOM_VIRTUAL_ASSY_NONE*%
%ADD191C,0.0280*%
%ADD190C,0.0380*%
%ADD189C,0.0320*%
%ADD188C,0.0394*%
%ADD187C,0.0420*%
%ADD186C,0.0790*%
%ADD185C,0.0358*%
%ADD184C,0.0925*%
%ADD183C,0.0710*%
%ADD182C,0.0650*%
%ADD181C,0.0600*%
%ADD180C,0.0800*%
%ADD179C,0.0720*%
%ADD178C,0.2000*%
%ADD177C,0.0591*%
%ADD176C,0.1575*%
%ADD175C,0.0001*%
%ADD174C,0.1050*%
G54D174*X22000Y181000D03*
X42000D03*
G54D175*G36*
X26750Y136250D02*X37250D01*
Y125750D01*
X26750D01*
Y136250D01*
G37*
G54D174*X50500Y131000D03*
G54D176*X90425Y165933D03*
G54D177*X103614Y144280D03*
X111882Y154122D03*
X103614D03*
G54D178*X260500Y160500D03*
G54D176*X117000Y169083D03*
X143575Y165933D03*
G54D177*X130386Y154122D03*
Y144280D03*
G54D175*G36*
X201900Y142100D02*X209100D01*
Y134900D01*
X201900D01*
Y142100D01*
G37*
G54D179*X215500Y138500D03*
X225500D03*
G54D175*G36*
X154000Y130500D02*X162000D01*
Y122500D01*
X154000D01*
Y130500D01*
G37*
G54D180*X198000Y126500D03*
G54D175*G36*
X235500Y128500D02*Y120500D01*
X227500D01*
Y128500D01*
X235500D01*
G37*
G54D178*X300500Y160500D03*
G54D180*X270500Y140500D03*
X280500D03*
G54D175*G36*
X294500Y86500D02*X300500D01*
Y80500D01*
X294500D01*
Y86500D01*
G37*
G54D181*X297500Y73500D03*
Y63500D03*
Y53500D03*
G54D180*Y101000D03*
G54D181*Y43500D03*
G54D175*G36*
X236500Y29500D02*X244500D01*
Y21500D01*
X236500D01*
Y29500D01*
G37*
G54D180*X280500Y25500D03*
X242000Y34500D03*
G54D175*G36*
X275500Y86500D02*X281500D01*
Y80500D01*
X275500D01*
Y86500D01*
G37*
G36*
X253500Y105000D02*X261500D01*
Y97000D01*
X253500D01*
Y105000D01*
G37*
G54D180*X231500Y84500D03*
G54D181*X278500Y73500D03*
Y63500D03*
Y53500D03*
Y43500D03*
G54D174*X13500Y131000D03*
Y116000D03*
G54D175*G36*
X26000Y109000D02*Y101000D01*
X18000D01*
Y109000D01*
X26000D01*
G37*
G54D174*X32000Y116000D03*
G54D175*G36*
X44000Y109000D02*Y101000D01*
X36000D01*
Y109000D01*
X44000D01*
G37*
G54D180*X22000Y65000D03*
X30000Y53000D03*
X40000Y65000D03*
Y53000D03*
Y23000D03*
X30000D03*
X20000Y53000D03*
Y23000D03*
G54D174*X50500Y116000D03*
G54D175*G36*
X91500Y109000D02*X99500D01*
Y101000D01*
X91500D01*
Y109000D01*
G37*
G36*
X46500Y69000D02*X54500D01*
Y61000D01*
X46500D01*
Y69000D01*
G37*
G36*
X51500Y77500D02*X59500D01*
Y69500D01*
X51500D01*
Y77500D01*
G37*
G54D180*X85500Y73500D03*
G54D175*G36*
X91500Y95000D02*X99500D01*
Y87000D01*
X91500D01*
Y95000D01*
G37*
G36*
X54000Y57000D02*Y49000D01*
X46000D01*
Y57000D01*
X54000D01*
G37*
G36*
X59500Y48500D02*X67500D01*
Y40500D01*
X59500D01*
Y48500D01*
G37*
G54D180*X90500Y65000D03*
G54D175*G36*
X116500Y57500D02*X122500D01*
Y51500D01*
X116500D01*
Y57500D01*
G37*
G54D181*X119500Y44500D03*
G54D180*X103500D03*
G54D181*X119500Y34500D03*
G54D175*G36*
X100500Y38500D02*Y30500D01*
X92500D01*
Y38500D01*
X100500D01*
G37*
G54D180*X96500Y24500D03*
X50000Y23000D03*
G54D181*X119500Y24500D03*
X149500D03*
Y34500D03*
Y44500D03*
Y54500D03*
G54D175*G36*
X180500Y58500D02*Y50500D01*
X172500D01*
Y58500D01*
X180500D01*
G37*
G54D180*X176500Y44500D03*
X135500Y105000D03*
Y91000D03*
G54D175*G36*
X174500Y110500D02*Y102500D01*
X166500D01*
Y110500D01*
X174500D01*
G37*
G36*
X197500Y116500D02*Y108500D01*
X189500D01*
Y116500D01*
X197500D01*
G37*
G54D180*X170500Y96500D03*
G54D175*G36*
X215000Y119000D02*Y111000D01*
X207000D01*
Y119000D01*
X215000D01*
G37*
G54D180*X211000Y105000D03*
G54D175*G36*
X198000Y38500D02*X206000D01*
Y30500D01*
X198000D01*
Y38500D01*
G37*
G54D180*X193500Y72500D03*
G54D175*G36*
X215000Y88500D02*Y80500D01*
X207000D01*
Y88500D01*
X215000D01*
G37*
G54D180*X211000Y74500D03*
G54D182*G54D183*G54D184*G54D185*G54D186*G54D184*G54D185*G54D187*G54D188*G54D186*G54D189*G54D190*G54D188*G54D190*G54D188*G54D190*G54D188*G54D190*G54D183*G54D188*G54D183*G54D188*G54D183*G54D188*G54D191*G54D188*G54D191*G54D188*G54D191*G54D188*M02*
