G04 start of page 7 for group -4079 idx -4079 *
G04 Title: (unknown), topsilk *
G04 Creator: pcb 20091103 *
G04 CreationDate: Tue Aug 17 22:54:19 2010 UTC *
G04 For: fosse *
G04 Format: Gerber/RS-274X *
G04 PCB-Dimensions: 508500 383000 *
G04 PCB-Coordinate-Origin: lower left *
%MOIN*%
%FSLAX25Y25*%
%LNFRONTSILK*%
%ADD11C,0.0400*%
%ADD13C,0.0100*%
%ADD14C,0.0060*%
%ADD40C,0.0110*%
G54D40*X94500Y91000D02*X388000D01*
X395500Y98500D01*
G54D14*X87200Y90200D02*X396300D01*
Y273600D01*
G54D40*X395500Y98500D02*Y272500D01*
G54D13*X282500Y225000D02*X268500Y228500D01*
X282500Y225000D02*X276500Y231000D01*
X282500Y225000D02*X274500Y222500D01*
G54D14*X396300Y273600D02*X87200D01*
G54D13*X146000Y220000D02*X170000D01*
X146000Y240000D02*Y220000D01*
G54D40*X159500Y145000D02*X157500Y143000D01*
X88000Y272500D02*Y97500D01*
X94500Y91000D01*
X159500Y138000D02*Y145000D01*
X161500Y143000D01*
G54D14*X87200Y273600D02*Y90200D01*
G54D13*X246495Y236550D02*X247980D01*
X246000Y237045D02*X246495Y236550D01*
X246000Y240015D02*Y237045D01*
Y240015D02*X246495Y240510D01*
X247980D01*
X249168D02*Y236550D01*
Y238035D02*X249663Y238530D01*
X250653D01*
X251148Y238035D01*
Y236550D01*
X253822Y238530D02*X254317Y238035D01*
X252832Y238530D02*X253822D01*
X252337Y238035D02*X252832Y238530D01*
X252337Y238035D02*Y237045D01*
X252832Y236550D01*
X254317Y238530D02*Y237045D01*
X254812Y236550D01*
X252832D02*X253822D01*
X254317Y237045D01*
X256496Y236550D02*X257981D01*
X258476Y237045D01*
X257981Y237540D02*X258476Y237045D01*
X256496Y237540D02*X257981D01*
X256001Y238035D02*X256496Y237540D01*
X256001Y238035D02*X256496Y238530D01*
X257981D01*
X258476Y238035D01*
X256001Y237045D02*X256496Y236550D01*
X260160D02*X261645D01*
X262140Y237045D01*
X261645Y237540D02*X262140Y237045D01*
X260160Y237540D02*X261645D01*
X259665Y238035D02*X260160Y237540D01*
X259665Y238035D02*X260160Y238530D01*
X261645D01*
X262140Y238035D01*
X259665Y237045D02*X260160Y236550D01*
X263329Y239520D02*Y239025D01*
Y238035D02*Y236550D01*
X264815D02*X266300D01*
X266795Y237045D01*
X266300Y237540D02*X266795Y237045D01*
X264815Y237540D02*X266300D01*
X264320Y238035D02*X264815Y237540D01*
X264320Y238035D02*X264815Y238530D01*
X266300D01*
X266795Y238035D01*
X264320Y237045D02*X264815Y236550D01*
X271746Y240510D02*X272241Y240015D01*
X270261Y240510D02*X271746D01*
X269766Y240015D02*X270261Y240510D01*
X269766Y240015D02*Y237045D01*
X270261Y236550D01*
X271746D01*
X272241Y237045D01*
Y238035D02*Y237045D01*
X271746Y238530D02*X272241Y238035D01*
X270756Y238530D02*X271746D01*
X273430Y240510D02*Y236550D01*
Y240510D02*Y240015D01*
X275905Y237540D01*
Y240510D02*Y236550D01*
X277589Y240510D02*Y236550D01*
X279074Y240510D02*X279569Y240015D01*
Y237045D01*
X279074Y236550D02*X279569Y237045D01*
X277094Y236550D02*X279074D01*
X277094Y240510D02*X279074D01*
X207000Y219010D02*Y215050D01*
Y219010D02*X208485Y217525D01*
X209970Y219010D01*
Y215050D01*
X211158Y218020D02*Y217525D01*
Y216535D02*Y215050D01*
X212644Y216535D02*Y215050D01*
Y216535D02*X213139Y217030D01*
X213634D01*
X214129Y216535D01*
Y215050D01*
X212149Y217030D02*X212644Y216535D01*
X215318Y218020D02*Y217525D01*
Y216535D02*Y215050D01*
X216804Y219010D02*Y215050D01*
X218289Y219010D02*X218784Y218515D01*
Y215545D01*
X218289Y215050D02*X218784Y215545D01*
X216309Y215050D02*X218289D01*
X216309Y219010D02*X218289D01*
X219973D02*X220963D01*
X220468D02*Y215050D01*
X219973D02*X220963D01*
X222152Y219010D02*Y215050D01*
Y219010D02*Y218515D01*
X224627Y216040D01*
Y219010D02*Y215050D01*
X225816Y219010D02*X227796D01*
X225816D02*Y217030D01*
X226311Y217525D01*
X227301D01*
X227796Y217030D01*
Y215545D01*
X227301Y215050D02*X227796Y215545D01*
X226311Y215050D02*X227301D01*
X225816Y215545D02*X226311Y215050D01*
X251500Y230510D02*Y226550D01*
X253480D01*
X254668Y230510D02*Y226550D01*
Y230510D02*X256153Y229025D01*
X257638Y230510D01*
Y226550D01*
X258827Y230015D02*X259322Y230510D01*
X260312D01*
X260807Y230015D01*
Y227045D01*
X260312Y226550D02*X260807Y227045D01*
X259322Y226550D02*X260312D01*
X258827Y227045D02*X259322Y226550D01*
Y228530D02*X260807D01*
X262491Y226550D02*X263481D01*
X262986Y230510D02*Y226550D01*
X261996Y229520D02*X262986Y230510D01*
X264670Y226550D02*X267145Y229025D01*
Y230510D02*Y229025D01*
X264670Y230510D02*X267145D01*
X383500Y209050D02*X385480D01*
X385975Y209545D01*
Y210535D02*Y209545D01*
X385480Y211030D02*X385975Y210535D01*
X383995Y211030D02*X385480D01*
X383995Y213010D02*Y209050D01*
X383500Y213010D02*X385480D01*
X385975Y212515D01*
Y211525D01*
X385480Y211030D02*X385975Y211525D01*
X387163Y213010D02*Y209050D01*
Y213010D02*Y212515D01*
X389638Y210040D01*
Y213010D02*Y209050D01*
X391322D02*X392807D01*
X390827Y209545D02*X391322Y209050D01*
X390827Y212515D02*Y209545D01*
Y212515D02*X391322Y213010D01*
X392807D01*
X388545Y154505D02*X392010D01*
X388545D02*X388050Y154010D01*
X390525Y155000D02*Y154010D01*
X388545Y153020D02*X389535D01*
X390030Y152525D01*
Y151535D01*
X389535Y151040D01*
X388545D02*X389535D01*
X388050Y151535D02*X388545Y151040D01*
X388050Y152525D02*Y151535D01*
X388545Y153020D02*X388050Y152525D01*
X388545Y149851D02*X389535D01*
X390030Y149356D01*
Y148366D01*
X389535Y147871D01*
X388545D02*X389535D01*
X388050Y148366D02*X388545Y147871D01*
X388050Y149356D02*Y148366D01*
X388545Y149851D02*X388050Y149356D01*
Y144900D02*X392010D01*
X390525Y143415D01*
X392010Y141930D01*
X388050D02*X392010D01*
X390525Y140741D02*X391020D01*
X388050D02*X389535D01*
X388050Y139255D02*X389535D01*
X390030Y138760D01*
Y138265D01*
X389535Y137770D01*
X388050D02*X389535D01*
X390030Y139750D02*X389535Y139255D01*
X390525Y136581D02*X391020D01*
X388050D02*X389535D01*
X388050Y135590D02*X392010D01*
X388050Y133115D02*X392010D01*
X390030Y135590D02*Y133115D01*
X388050Y131431D02*Y129946D01*
X388545Y131926D02*X388050Y131431D01*
X388545Y131926D02*X389535D01*
X390030Y131431D01*
Y130441D01*
X389535Y129946D01*
X389040Y131926D02*Y129946D01*
X389535D01*
X390030Y128757D02*X388050Y126777D01*
Y128757D02*X390030Y126777D01*
X388050Y125588D02*X390030Y123608D01*
X391515D01*
X392010Y124103D02*X391515Y123608D01*
X392010Y125093D02*Y124103D01*
X391515Y125588D02*X392010Y125093D01*
X390525Y125588D02*X391515D01*
X390525D02*X390030Y125093D01*
Y123608D01*
X369545Y154505D02*X373010D01*
X369545D02*X369050Y154010D01*
X371525Y155000D02*Y154010D01*
X369545Y153020D02*X370535D01*
X371030Y152525D01*
Y151535D01*
X370535Y151040D01*
X369545D02*X370535D01*
X369050Y151535D02*X369545Y151040D01*
X369050Y152525D02*Y151535D01*
X369545Y153020D02*X369050Y152525D01*
X369545Y149851D02*X370535D01*
X371030Y149356D01*
Y148366D01*
X370535Y147871D01*
X369545D02*X370535D01*
X369050Y148366D02*X369545Y147871D01*
X369050Y149356D02*Y148366D01*
X369545Y149851D02*X369050Y149356D01*
Y144900D02*X373010D01*
X371525Y143415D01*
X373010Y141930D01*
X369050D02*X373010D01*
X371525Y140741D02*X372020D01*
X369050D02*X370535D01*
X369050Y139255D02*X370535D01*
X371030Y138760D01*
Y138265D01*
X370535Y137770D01*
X369050D02*X370535D01*
X371030Y139750D02*X370535Y139255D01*
X371525Y136581D02*X372020D01*
X369050D02*X370535D01*
X369050Y135590D02*X373010D01*
X369050Y133115D02*X373010D01*
X371030Y135590D02*Y133115D01*
X369050Y131431D02*Y129946D01*
X369545Y131926D02*X369050Y131431D01*
X369545Y131926D02*X370535D01*
X371030Y131431D01*
Y130441D01*
X370535Y129946D01*
X370040Y131926D02*Y129946D01*
X370535D01*
X371030Y128757D02*X369050Y126777D01*
Y128757D02*X371030Y126777D01*
X369050Y125588D02*X371030Y123608D01*
X372515D01*
X373010Y124103D02*X372515Y123608D01*
X373010Y125093D02*Y124103D01*
X372515Y125588D02*X373010Y125093D01*
X371525Y125588D02*X372515D01*
X371525D02*X371030Y125093D01*
Y123608D01*
X334000Y175500D02*X335500D01*
X333500Y176000D02*X334000Y175500D01*
X333500Y179000D02*Y176000D01*
Y179000D02*X334000Y179500D01*
X335500D01*
X336701Y179000D02*Y176000D01*
Y179000D02*X337201Y179500D01*
X338201D01*
X338701Y179000D01*
Y176000D01*
X338201Y175500D02*X338701Y176000D01*
X337201Y175500D02*X338201D01*
X336701Y176000D02*X337201Y175500D01*
X339902Y179500D02*Y175500D01*
Y179500D02*Y179000D01*
X342402Y176500D01*
Y179500D02*Y175500D01*
X343603Y179500D02*Y175500D01*
Y179500D02*Y179000D01*
X346103Y176500D01*
Y179500D02*Y175500D01*
X347804D02*X348804D01*
X348304Y179500D02*Y175500D01*
X347304Y178500D02*X348304Y179500D01*
X351805Y176000D02*X352305Y175500D01*
X351805Y179000D02*Y178000D01*
Y179000D02*X352305Y179500D01*
X351805Y177000D02*X353305Y178500D01*
X352305Y175500D02*X352805D01*
X353805Y176500D01*
X351805Y178000D02*X354305Y175500D01*
X352305Y179500D02*X352805D01*
X353305Y179000D01*
Y178500D01*
X351805Y177000D02*Y176000D01*
X357806Y175500D02*X359306D01*
X357306Y176000D02*X357806Y175500D01*
X357306Y179000D02*Y176000D01*
Y179000D02*X357806Y179500D01*
X359306D01*
X360507Y179000D02*Y176000D01*
Y179000D02*X361007Y179500D01*
X362007D01*
X362507Y179000D01*
Y176000D01*
X362007Y175500D02*X362507Y176000D01*
X361007Y175500D02*X362007D01*
X360507Y176000D02*X361007Y175500D01*
X363708Y179500D02*Y175500D01*
Y179500D02*Y179000D01*
X366208Y176500D01*
Y179500D02*Y175500D01*
X367409Y179500D02*Y175500D01*
Y179500D02*Y179000D01*
X369909Y176500D01*
Y179500D02*Y175500D01*
X371110Y177500D02*X373110Y179500D01*
X371110Y177500D02*X373610D01*
X373110Y179500D02*Y175500D01*
X377111Y179500D02*Y175500D01*
X376611Y179500D02*X378611D01*
X379111Y179000D01*
Y178000D01*
X378611Y177500D02*X379111Y178000D01*
X377111Y177500D02*X378611D01*
X380312Y178500D02*Y178000D01*
Y177000D02*Y175500D01*
X381813Y177000D02*Y175500D01*
Y177000D02*X382313Y177500D01*
X382813D01*
X383313Y177000D01*
Y175500D01*
X381313Y177500D02*X381813Y177000D01*
X384514D02*Y176000D01*
Y177000D02*X385014Y177500D01*
X386014D01*
X386514Y177000D01*
Y176000D01*
X386014Y175500D02*X386514Y176000D01*
X385014Y175500D02*X386014D01*
X384514Y176000D02*X385014Y175500D01*
X387715Y177500D02*Y176000D01*
X388215Y175500D01*
X389215D01*
X389715Y176000D01*
Y177500D02*Y176000D01*
X391416Y179500D02*Y176000D01*
X391916Y175500D01*
X390916Y178000D02*X391916D01*
X333500Y168530D02*X335480D01*
X334490Y169520D02*Y167540D01*
X337163Y166550D02*X338153D01*
X337658Y170510D02*Y166550D01*
X336668Y169520D02*X337658Y170510D01*
X339342D02*X341322D01*
X339342D02*Y168530D01*
X339837Y169025D01*
X340827D01*
X341322Y168530D01*
Y167045D01*
X340827Y166550D02*X341322Y167045D01*
X339837Y166550D02*X340827D01*
X339342Y167045D02*X339837Y166550D01*
X342511Y170510D02*Y167540D01*
X343501Y166550D01*
X344491Y167540D01*
Y170510D02*Y167540D01*
X335480Y160510D02*X335975Y160015D01*
X333995Y160510D02*X335480D01*
X333500Y160015D02*X333995Y160510D01*
X333500Y160015D02*Y157045D01*
X333995Y156550D01*
X335480D01*
X335975Y157045D01*
Y158035D02*Y157045D01*
X335480Y158530D02*X335975Y158035D01*
X334490Y158530D02*X335480D01*
X337163Y160510D02*Y156550D01*
Y160510D02*Y160015D01*
X339638Y157540D01*
Y160510D02*Y156550D01*
X341322Y160510D02*Y156550D01*
X342807Y160510D02*X343302Y160015D01*
Y157045D01*
X342807Y156550D02*X343302Y157045D01*
X340827Y156550D02*X342807D01*
X340827Y160510D02*X342807D01*
X335480Y150010D02*X335975Y149515D01*
X333995Y150010D02*X335480D01*
X333500Y149515D02*X333995Y150010D01*
X333500Y149515D02*Y146545D01*
X333995Y146050D01*
X335480D01*
X335975Y146545D01*
Y147535D02*Y146545D01*
X335480Y148030D02*X335975Y147535D01*
X334490Y148030D02*X335480D01*
X337163Y150010D02*Y146050D01*
Y150010D02*Y149515D01*
X339638Y147040D01*
Y150010D02*Y146050D01*
X341322Y150010D02*Y146050D01*
X342807Y150010D02*X343302Y149515D01*
Y146545D01*
X342807Y146050D02*X343302Y146545D01*
X340827Y146050D02*X342807D01*
X340827Y150010D02*X342807D01*
X333995Y126550D02*X335480D01*
X333500Y127045D02*X333995Y126550D01*
X333500Y130015D02*Y127045D01*
Y130015D02*X333995Y130510D01*
X335480D01*
X336668D02*Y126550D01*
Y128035D02*X337163Y128530D01*
X338153D01*
X338648Y128035D01*
Y126550D01*
X341322Y128530D02*X341817Y128035D01*
X340332Y128530D02*X341322D01*
X339837Y128035D02*X340332Y128530D01*
X339837Y128035D02*Y127045D01*
X340332Y126550D01*
X341817Y128530D02*Y127045D01*
X342312Y126550D01*
X340332D02*X341322D01*
X341817Y127045D01*
X343996Y126550D02*X345481D01*
X345976Y127045D01*
X345481Y127540D02*X345976Y127045D01*
X343996Y127540D02*X345481D01*
X343501Y128035D02*X343996Y127540D01*
X343501Y128035D02*X343996Y128530D01*
X345481D01*
X345976Y128035D01*
X343501Y127045D02*X343996Y126550D01*
X347660D02*X349145D01*
X349640Y127045D01*
X349145Y127540D02*X349640Y127045D01*
X347660Y127540D02*X349145D01*
X347165Y128035D02*X347660Y127540D01*
X347165Y128035D02*X347660Y128530D01*
X349145D01*
X349640Y128035D01*
X347165Y127045D02*X347660Y126550D01*
X350829Y129520D02*Y129025D01*
Y128035D02*Y126550D01*
X352315D02*X353800D01*
X354295Y127045D01*
X353800Y127540D02*X354295Y127045D01*
X352315Y127540D02*X353800D01*
X351820Y128035D02*X352315Y127540D01*
X351820Y128035D02*X352315Y128530D01*
X353800D01*
X354295Y128035D01*
X351820Y127045D02*X352315Y126550D01*
X333500Y138030D02*X335480D01*
X337163Y136050D02*X338153D01*
X337658Y140010D02*Y136050D01*
X336668Y139020D02*X337658Y140010D01*
X339342D02*X341322D01*
X339342D02*Y138030D01*
X339837Y138525D01*
X340827D01*
X341322Y138030D01*
Y136545D01*
X340827Y136050D02*X341322Y136545D01*
X339837Y136050D02*X340827D01*
X339342Y136545D02*X339837Y136050D01*
X342511Y140010D02*Y137040D01*
X343501Y136050D01*
X344491Y137040D01*
Y140010D02*Y137040D01*
X240050Y121000D02*X244010D01*
X240050D02*Y119020D01*
Y117832D02*X244010D01*
Y115852D01*
X242030Y117832D02*Y116347D01*
X243515Y114663D02*X244010Y114168D01*
Y113178D01*
X243515Y112683D01*
X240545D02*X243515D01*
X240050Y113178D02*X240545Y112683D01*
X240050Y114168D02*Y113178D01*
X240545Y114663D02*X240050Y114168D01*
X242030D02*Y112683D01*
X244010Y111494D02*Y109514D01*
X242030Y111494D02*X244010D01*
X242030D02*X242525Y110999D01*
Y110009D01*
X242030Y109514D01*
X240545D02*X242030D01*
X240050Y110009D02*X240545Y109514D01*
X240050Y110999D02*Y110009D01*
X240545Y111494D02*X240050Y110999D01*
X244010Y106840D02*X243515Y106345D01*
X244010Y107830D02*Y106840D01*
X243515Y108325D02*X244010Y107830D01*
X240545Y108325D02*X243515D01*
X240545D02*X240050Y107830D01*
X242030Y106840D02*X241535Y106345D01*
X242030Y108325D02*Y106840D01*
X240050Y107830D02*Y106840D01*
X240545Y106345D01*
X241535D01*
X154000Y96530D02*X155980D01*
X154990Y97520D02*Y95540D01*
X157663Y94550D02*X158653D01*
X158158Y98510D02*Y94550D01*
X157168Y97520D02*X158158Y98510D01*
X159842D02*X161822D01*
X159842D02*Y96530D01*
X160337Y97025D01*
X161327D01*
X161822Y96530D01*
Y95045D01*
X161327Y94550D02*X161822Y95045D01*
X160337Y94550D02*X161327D01*
X159842Y95045D02*X160337Y94550D01*
X163011Y98510D02*Y95540D01*
X164001Y94550D01*
X164991Y95540D01*
Y98510D02*Y95540D01*
X168457Y94550D02*X169942D01*
X167962Y95045D02*X168457Y94550D01*
X167962Y98015D02*Y95045D01*
Y98015D02*X168457Y98510D01*
X169942D01*
X171131Y96035D02*Y95045D01*
Y96035D02*X171626Y96530D01*
X172616D01*
X173111Y96035D01*
Y95045D01*
X172616Y94550D02*X173111Y95045D01*
X171626Y94550D02*X172616D01*
X171131Y95045D02*X171626Y94550D01*
X174795Y96035D02*Y94550D01*
Y96035D02*X175290Y96530D01*
X175785D01*
X176280Y96035D01*
Y94550D01*
Y96035D02*X176775Y96530D01*
X177270D01*
X177765Y96035D01*
Y94550D01*
X174300Y96530D02*X174795Y96035D01*
X179449D02*Y93065D01*
X178954Y96530D02*X179449Y96035D01*
X179944Y96530D01*
X180934D01*
X181429Y96035D01*
Y95045D01*
X180934Y94550D02*X181429Y95045D01*
X179944Y94550D02*X180934D01*
X179449Y95045D02*X179944Y94550D01*
X182618Y96035D02*Y95045D01*
Y96035D02*X183113Y96530D01*
X184103D01*
X184598Y96035D01*
Y95045D01*
X184103Y94550D02*X184598Y95045D01*
X183113Y94550D02*X184103D01*
X182618Y95045D02*X183113Y94550D01*
X186282Y96035D02*Y94550D01*
Y96035D02*X186777Y96530D01*
X187272D01*
X187767Y96035D01*
Y94550D01*
X185787Y96530D02*X186282Y96035D01*
X189451Y94550D02*X190936D01*
X188956Y95045D02*X189451Y94550D01*
X188956Y96035D02*Y95045D01*
Y96035D02*X189451Y96530D01*
X190441D01*
X190936Y96035D01*
X188956Y95540D02*X190936D01*
Y96035D02*Y95540D01*
X192620Y96035D02*Y94550D01*
Y96035D02*X193115Y96530D01*
X193610D01*
X194105Y96035D01*
Y94550D01*
X192125Y96530D02*X192620Y96035D01*
X195789Y98510D02*Y95045D01*
X196284Y94550D01*
X195294Y97025D02*X196284D01*
X201037Y98510D02*X201532Y98015D01*
X199552Y98510D02*X201037D01*
X199057Y98015D02*X199552Y98510D01*
X199057Y98015D02*Y97025D01*
X199552Y96530D01*
X201037D01*
X201532Y96035D01*
Y95045D01*
X201037Y94550D02*X201532Y95045D01*
X199552Y94550D02*X201037D01*
X199057Y95045D02*X199552Y94550D01*
X202721Y97520D02*Y97025D01*
Y96035D02*Y94550D01*
X205692Y98510D02*Y94550D01*
X205197D02*X205692Y95045D01*
X204207Y94550D02*X205197D01*
X203712Y95045D02*X204207Y94550D01*
X203712Y96035D02*Y95045D01*
Y96035D02*X204207Y96530D01*
X205197D01*
X205692Y96035D01*
X207376Y94550D02*X208861D01*
X206881Y95045D02*X207376Y94550D01*
X206881Y96035D02*Y95045D01*
Y96035D02*X207376Y96530D01*
X208366D01*
X208861Y96035D01*
X206881Y95540D02*X208861D01*
Y96035D02*Y95540D01*
X210050Y94550D02*X211040Y95540D01*
Y97025D02*Y96530D01*
X212229D02*X214209D01*
X215893Y94550D02*X216883D01*
X216388Y98510D02*Y94550D01*
X215398Y97520D02*X216388Y98510D01*
X218072D02*X220052D01*
X218072D02*Y96530D01*
X218567Y97025D01*
X219557D01*
X220052Y96530D01*
Y95045D01*
X219557Y94550D02*X220052Y95045D01*
X218567Y94550D02*X219557D01*
X218072Y95045D02*X218567Y94550D01*
X221241Y98510D02*Y95540D01*
X222231Y94550D01*
X223221Y95540D01*
Y98510D02*Y95540D01*
X228172Y98510D02*X228667Y98015D01*
X226687Y98510D02*X228172D01*
X226192Y98015D02*X226687Y98510D01*
X226192Y98015D02*Y97025D01*
X226687Y96530D01*
X228172D01*
X228667Y96035D01*
Y95045D01*
X228172Y94550D02*X228667Y95045D01*
X226687Y94550D02*X228172D01*
X226192Y95045D02*X226687Y94550D01*
X229856Y96035D02*Y95045D01*
Y96035D02*X230351Y96530D01*
X231341D01*
X231836Y96035D01*
Y95045D01*
X231341Y94550D02*X231836Y95045D01*
X230351Y94550D02*X231341D01*
X229856Y95045D02*X230351Y94550D01*
X233025Y98510D02*Y95045D01*
X233520Y94550D01*
X236491Y98510D02*Y94550D01*
X235996D02*X236491Y95045D01*
X235006Y94550D02*X235996D01*
X234511Y95045D02*X235006Y94550D01*
X234511Y96035D02*Y95045D01*
Y96035D02*X235006Y96530D01*
X235996D01*
X236491Y96035D01*
X238175Y94550D02*X239660D01*
X237680Y95045D02*X238175Y94550D01*
X237680Y96035D02*Y95045D01*
Y96035D02*X238175Y96530D01*
X239165D01*
X239660Y96035D01*
X237680Y95540D02*X239660D01*
Y96035D02*Y95540D01*
X241344Y96035D02*Y94550D01*
Y96035D02*X241839Y96530D01*
X242829D01*
X240849D02*X241344Y96035D01*
X247780Y98510D02*X248275Y98015D01*
X246295Y98510D02*X247780D01*
X245800Y98015D02*X246295Y98510D01*
X245800Y98015D02*Y97025D01*
X246295Y96530D01*
X247780D01*
X248275Y96035D01*
Y95045D01*
X247780Y94550D02*X248275Y95045D01*
X246295Y94550D02*X247780D01*
X245800Y95045D02*X246295Y94550D01*
X249464Y97520D02*Y97025D01*
Y96035D02*Y94550D01*
X252435Y98510D02*Y94550D01*
X251940D02*X252435Y95045D01*
X250950Y94550D02*X251940D01*
X250455Y95045D02*X250950Y94550D01*
X250455Y96035D02*Y95045D01*
Y96035D02*X250950Y96530D01*
X251940D01*
X252435Y96035D01*
X254119Y94550D02*X255604D01*
X253624Y95045D02*X254119Y94550D01*
X253624Y96035D02*Y95045D01*
Y96035D02*X254119Y96530D01*
X255109D01*
X255604Y96035D01*
X253624Y95540D02*X255604D01*
Y96035D02*Y95540D01*
X119500Y100955D02*Y97985D01*
X119005Y97490D01*
X118015D02*X119005D01*
X118015D02*X117520Y97985D01*
Y100955D02*Y97985D01*
X118015Y101450D02*X117520Y100955D01*
X118015Y101450D02*X119005D01*
X119500Y100955D02*X119005Y101450D01*
X115837D02*Y97490D01*
X114352D02*X116332D01*
X114352D02*X113857Y97985D01*
Y98975D02*Y97985D01*
X114352Y99470D02*X113857Y98975D01*
X114352Y99470D02*X115837D01*
X112668Y101450D02*Y97985D01*
X112173Y97490D01*
X110688D02*X112173D01*
X110688D02*X110193Y97985D01*
Y101450D02*Y97985D01*
Y99470D02*X112668D01*
X107519Y101450D02*X108509D01*
X108014D02*Y97490D01*
X109004Y98480D02*X108014Y97490D01*
X106330Y97985D02*X105835Y97490D01*
X104845D02*X105835D01*
X104845D02*X104350Y97985D01*
Y100955D02*Y97985D01*
X104845Y101450D02*X104350Y100955D01*
X104845Y101450D02*X105835D01*
X106330Y100955D02*X105835Y101450D01*
X104350Y99470D02*X105835D01*
X103161D02*X101181Y97490D01*
X100686Y99470D02*X103161D01*
X101181Y101450D02*Y97490D01*
X194495Y150050D02*X195980D01*
X194000Y150545D02*X194495Y150050D01*
X194000Y153515D02*Y150545D01*
Y153515D02*X194495Y154010D01*
X195980D01*
X197168Y153020D02*Y152525D01*
Y151535D02*Y150050D01*
X198654Y151535D02*Y150050D01*
Y151535D02*X199149Y152030D01*
X200139D01*
X198159D02*X198654Y151535D01*
X201823Y152030D02*X203308D01*
X201328Y151535D02*X201823Y152030D01*
X201328Y151535D02*Y150545D01*
X201823Y150050D01*
X203308D01*
X204497Y152030D02*Y150545D01*
X204992Y150050D01*
X205982D01*
X206477Y150545D01*
Y152030D02*Y150545D01*
X207666Y153020D02*Y152525D01*
Y151535D02*Y150050D01*
X209152Y154010D02*Y150545D01*
X209647Y150050D01*
X208657Y152525D02*X209647D01*
X212915Y154010D02*Y150050D01*
X214400Y154010D02*X214895Y153515D01*
Y150545D01*
X214400Y150050D02*X214895Y150545D01*
X212420Y150050D02*X214400D01*
X212420Y154010D02*X214400D01*
X216579Y150050D02*X218064D01*
X216084Y150545D02*X216579Y150050D01*
X216084Y151535D02*Y150545D01*
Y151535D02*X216579Y152030D01*
X217569D01*
X218064Y151535D01*
X216084Y151040D02*X218064D01*
Y151535D02*Y151040D01*
X219748Y150050D02*X221233D01*
X221728Y150545D01*
X221233Y151040D02*X221728Y150545D01*
X219748Y151040D02*X221233D01*
X219253Y151535D02*X219748Y151040D01*
X219253Y151535D02*X219748Y152030D01*
X221233D01*
X221728Y151535D01*
X219253Y150545D02*X219748Y150050D01*
X222917Y153020D02*Y152525D01*
Y151535D02*Y150050D01*
X225393Y152030D02*X225888Y151535D01*
X224403Y152030D02*X225393D01*
X223908Y151535D02*X224403Y152030D01*
X223908Y151535D02*Y150545D01*
X224403Y150050D01*
X225393D01*
X225888Y150545D01*
X223908Y149060D02*X224403Y148565D01*
X225393D01*
X225888Y149060D01*
Y152030D02*Y149060D01*
X227572Y151535D02*Y150050D01*
Y151535D02*X228067Y152030D01*
X228562D01*
X229057Y151535D01*
Y150050D01*
X227077Y152030D02*X227572Y151535D01*
X230246Y152525D02*X230741D01*
X230246Y151535D02*X230741D01*
X233712Y154010D02*X234702D01*
X234207D02*Y150050D01*
X233712D02*X234702D01*
X235891Y154010D02*X237376D01*
Y150545D01*
X236881Y150050D02*X237376Y150545D01*
X236386Y150050D02*X236881D01*
X235891Y150545D02*X236386Y150050D01*
X240545Y154010D02*X241040Y153515D01*
X239060Y154010D02*X240545D01*
X238565Y153515D02*X239060Y154010D01*
X238565Y153515D02*Y152525D01*
X239060Y152030D01*
X240545D01*
X241040Y151535D01*
Y150545D01*
X240545Y150050D02*X241040Y150545D01*
X239060Y150050D02*X240545D01*
X238565Y150545D02*X239060Y150050D01*
X194495Y161510D02*Y157550D01*
X194000Y161510D02*X195980D01*
X196475Y161015D01*
Y160025D01*
X195980Y159530D02*X196475Y160025D01*
X194495Y159530D02*X195980D01*
X198158Y157550D02*X199643D01*
X197663Y158045D02*X198158Y157550D01*
X197663Y161015D02*Y158045D01*
Y161015D02*X198158Y161510D01*
X199643D01*
X200832Y157550D02*X202812D01*
X203307Y158045D01*
Y159035D02*Y158045D01*
X202812Y159530D02*X203307Y159035D01*
X201327Y159530D02*X202812D01*
X201327Y161510D02*Y157550D01*
X200832Y161510D02*X202812D01*
X203307Y161015D01*
Y160025D01*
X202812Y159530D02*X203307Y160025D01*
X206773Y161510D02*Y157550D01*
X208258Y161510D02*X208753Y161015D01*
Y158045D01*
X208258Y157550D02*X208753Y158045D01*
X206278Y157550D02*X208258D01*
X206278Y161510D02*X208258D01*
X210437Y157550D02*X211922D01*
X209942Y158045D02*X210437Y157550D01*
X209942Y159035D02*Y158045D01*
Y159035D02*X210437Y159530D01*
X211427D01*
X211922Y159035D01*
X209942Y158540D02*X211922D01*
Y159035D02*Y158540D01*
X213606Y157550D02*X215091D01*
X215586Y158045D01*
X215091Y158540D02*X215586Y158045D01*
X213606Y158540D02*X215091D01*
X213111Y159035D02*X213606Y158540D01*
X213111Y159035D02*X213606Y159530D01*
X215091D01*
X215586Y159035D01*
X213111Y158045D02*X213606Y157550D01*
X216775Y160520D02*Y160025D01*
Y159035D02*Y157550D01*
X219251Y159530D02*X219746Y159035D01*
X218261Y159530D02*X219251D01*
X217766Y159035D02*X218261Y159530D01*
X217766Y159035D02*Y158045D01*
X218261Y157550D01*
X219251D01*
X219746Y158045D01*
X217766Y156560D02*X218261Y156065D01*
X219251D01*
X219746Y156560D01*
Y159530D02*Y156560D01*
X221430Y159035D02*Y157550D01*
Y159035D02*X221925Y159530D01*
X222420D01*
X222915Y159035D01*
Y157550D01*
X220935Y159530D02*X221430Y159035D01*
X224104Y160025D02*X224599D01*
X224104Y159035D02*X224599D01*
X227570Y159530D02*X229055D01*
X227570Y157550D02*X229550D01*
X227570Y161510D02*Y157550D01*
Y161510D02*X229550D01*
X230739Y159530D02*X232224D01*
X230739Y157550D02*X232719D01*
X230739Y161510D02*Y157550D01*
Y161510D02*X232719D01*
X233908D02*Y157550D01*
Y161510D02*X235888D01*
X233908Y159530D02*X235393D01*
X148000Y225515D02*Y222050D01*
Y225515D02*X148495Y226010D01*
X149980D01*
X150475Y225515D01*
Y222050D01*
X148000Y224030D02*X150475D01*
X152158Y223535D02*Y222050D01*
Y223535D02*X152653Y224030D01*
X153643D01*
X151663D02*X152158Y223535D01*
X155327Y222050D02*X156812D01*
X154832Y222545D02*X155327Y222050D01*
X154832Y223535D02*Y222545D01*
Y223535D02*X155327Y224030D01*
X156317D01*
X156812Y223535D01*
X154832Y223040D02*X156812D01*
Y223535D02*Y223040D01*
X166990Y224030D02*Y223535D01*
Y222545D02*Y222050D01*
X166000Y225515D02*Y225020D01*
Y225515D02*X166495Y226010D01*
X167485D01*
X167980Y225515D01*
Y225020D01*
X166990Y224030D02*X167980Y225020D01*
X150000Y198500D02*X151500D01*
X150000Y196500D02*X152000D01*
X150000Y200500D02*Y196500D01*
Y200500D02*X152000D01*
X153701D02*Y196500D01*
X153201Y200500D02*X155201D01*
X155701Y200000D01*
Y199000D01*
X155201Y198500D02*X155701Y199000D01*
X153701Y198500D02*X155201D01*
X156902Y200500D02*Y196500D01*
X158902D01*
X161903Y200000D02*X162403Y200500D01*
X163903D01*
X164403Y200000D01*
Y199000D01*
X161903Y196500D02*X164403Y199000D01*
X161903Y196500D02*X164403D01*
X165604Y197000D02*X166104Y196500D01*
X165604Y200000D02*Y197000D01*
Y200000D02*X166104Y200500D01*
X167104D01*
X167604Y200000D01*
Y197000D01*
X167104Y196500D02*X167604Y197000D01*
X166104Y196500D02*X167104D01*
X165604Y197500D02*X167604Y199500D01*
X169305Y196500D02*X170305D01*
X169805Y200500D02*Y196500D01*
X168805Y199500D02*X169805Y200500D01*
X171506Y197000D02*X172006Y196500D01*
X171506Y200000D02*Y197000D01*
Y200000D02*X172006Y200500D01*
X173006D01*
X173506Y200000D01*
Y197000D01*
X173006Y196500D02*X173506Y197000D01*
X172006Y196500D02*X173006D01*
X171506Y197500D02*X173506Y199500D01*
X174707Y196500D02*X176707D01*
X177908Y197000D02*X178408Y196500D01*
X177908Y200000D02*Y197000D01*
Y200000D02*X178408Y200500D01*
X179408D01*
X179908Y200000D01*
Y197000D01*
X179408Y196500D02*X179908Y197000D01*
X178408Y196500D02*X179408D01*
X177908Y197500D02*X179908Y199500D01*
X182609Y200500D02*X183109Y200000D01*
X181609Y200500D02*X182609D01*
X181109Y200000D02*X181609Y200500D01*
X181109Y200000D02*Y197000D01*
X181609Y196500D01*
X182609Y198500D02*X183109Y198000D01*
X181109Y198500D02*X182609D01*
X181609Y196500D02*X182609D01*
X183109Y197000D01*
Y198000D02*Y197000D01*
X184310Y196500D02*X186310D01*
X187511Y197000D02*X188011Y196500D01*
X187511Y200000D02*Y197000D01*
Y200000D02*X188011Y200500D01*
X189011D01*
X189511Y200000D01*
Y197000D01*
X189011Y196500D02*X189511Y197000D01*
X188011Y196500D02*X189011D01*
X187511Y197500D02*X189511Y199500D01*
X192212Y200500D02*X192712Y200000D01*
X191212Y200500D02*X192212D01*
X190712Y200000D02*X191212Y200500D01*
X190712Y200000D02*Y197000D01*
X191212Y196500D01*
X192212Y198500D02*X192712Y198000D01*
X190712Y198500D02*X192212D01*
X191212Y196500D02*X192212D01*
X192712Y197000D01*
Y198000D02*Y197000D01*
X150000Y208510D02*Y204550D01*
Y208510D02*X151485Y207025D01*
X152970Y208510D01*
Y204550D01*
X154158Y207520D02*Y207025D01*
Y206035D02*Y204550D01*
X155644Y206530D02*X157129D01*
X155149Y206035D02*X155644Y206530D01*
X155149Y206035D02*Y205045D01*
X155644Y204550D01*
X157129D01*
X158813Y206035D02*Y204550D01*
Y206035D02*X159308Y206530D01*
X160298D01*
X158318D02*X158813Y206035D01*
X161487D02*Y205045D01*
Y206035D02*X161982Y206530D01*
X162972D01*
X163467Y206035D01*
Y205045D01*
X162972Y204550D02*X163467Y205045D01*
X161982Y204550D02*X162972D01*
X161487Y205045D02*X161982Y204550D01*
X165151Y206035D02*Y203065D01*
X164656Y206530D02*X165151Y206035D01*
X165646Y206530D01*
X166636D01*
X167131Y206035D01*
Y205045D01*
X166636Y204550D02*X167131Y205045D01*
X165646Y204550D02*X166636D01*
X165151Y205045D02*X165646Y204550D01*
X168320Y208510D02*Y204550D01*
Y206035D02*X168815Y206530D01*
X169805D01*
X170300Y206035D01*
Y204550D01*
X171489Y206035D02*Y205045D01*
Y206035D02*X171984Y206530D01*
X172974D01*
X173469Y206035D01*
Y205045D01*
X172974Y204550D02*X173469Y205045D01*
X171984Y204550D02*X172974D01*
X171489Y205045D02*X171984Y204550D01*
X175153Y206035D02*Y204550D01*
Y206035D02*X175648Y206530D01*
X176143D01*
X176638Y206035D01*
Y204550D01*
X174658Y206530D02*X175153Y206035D01*
X178322Y204550D02*X179807D01*
X177827Y205045D02*X178322Y204550D01*
X177827Y206035D02*Y205045D01*
Y206035D02*X178322Y206530D01*
X179312D01*
X179807Y206035D01*
X177827Y205540D02*X179807D01*
Y206035D02*Y205540D01*
X182778Y208015D02*Y204550D01*
Y208015D02*X183273Y208510D01*
X184758D01*
X185253Y208015D01*
Y204550D01*
X182778Y206530D02*X185253D01*
X186937Y206035D02*Y204550D01*
Y206035D02*X187432Y206530D01*
X187927D01*
X188422Y206035D01*
Y204550D01*
Y206035D02*X188917Y206530D01*
X189412D01*
X189907Y206035D01*
Y204550D01*
X186442Y206530D02*X186937Y206035D01*
X191591D02*Y203065D01*
X191096Y206530D02*X191591Y206035D01*
X192086Y206530D01*
X193076D01*
X193571Y206035D01*
Y205045D01*
X193076Y204550D02*X193571Y205045D01*
X192086Y204550D02*X193076D01*
X191591Y205045D02*X192086Y204550D01*
X194760Y208510D02*Y205045D01*
X195255Y204550D01*
X196246Y207520D02*Y207025D01*
Y206035D02*Y204550D01*
X197732Y208015D02*Y204550D01*
Y208015D02*X198227Y208510D01*
X198722D01*
X197237Y206530D02*X198227D01*
X199713Y207520D02*Y207025D01*
Y206035D02*Y204550D01*
X201199D02*X202684D01*
X200704Y205045D02*X201199Y204550D01*
X200704Y206035D02*Y205045D01*
Y206035D02*X201199Y206530D01*
X202189D01*
X202684Y206035D01*
X200704Y205540D02*X202684D01*
Y206035D02*Y205540D01*
X204368Y206035D02*Y204550D01*
Y206035D02*X204863Y206530D01*
X205853D01*
X203873D02*X204368Y206035D01*
X149980Y238010D02*X150475Y237515D01*
X148495Y238010D02*X149980D01*
X148000Y237515D02*X148495Y238010D01*
X148000Y237515D02*Y236525D01*
X148495Y236030D01*
X149980D01*
X150475Y235535D01*
Y234545D01*
X149980Y234050D02*X150475Y234545D01*
X148495Y234050D02*X149980D01*
X148000Y234545D02*X148495Y234050D01*
X151663Y235535D02*Y234545D01*
Y235535D02*X152158Y236030D01*
X153148D01*
X153643Y235535D01*
Y234545D01*
X153148Y234050D02*X153643Y234545D01*
X152158Y234050D02*X153148D01*
X151663Y234545D02*X152158Y234050D01*
X155327Y235535D02*Y234050D01*
Y235535D02*X155822Y236030D01*
X156317D01*
X156812Y235535D01*
Y234050D01*
Y235535D02*X157307Y236030D01*
X157802D01*
X158297Y235535D01*
Y234050D01*
X154832Y236030D02*X155327Y235535D01*
X159981Y234050D02*X161466D01*
X159486Y234545D02*X159981Y234050D01*
X159486Y235535D02*Y234545D01*
Y235535D02*X159981Y236030D01*
X160971D01*
X161466Y235535D01*
X159486Y235040D02*X161466D01*
Y235535D02*Y235040D01*
X256500Y201500D02*Y197500D01*
X254500Y171500D02*X258500D01*
X256500Y173500D02*Y169500D01*
Y175500D02*G75*G03X256500Y175500I0J10000D01*G01*
X292500Y216500D02*X306500D01*
X306571Y216429D02*G75*G03X292428Y216428I-7071J7071D01*G01*
X297500Y185000D02*G75*G03X297500Y185000I0J10000D01*G01*
X251500Y206200D02*Y212800D01*
X271500Y206200D02*X251500D01*
X271500Y212800D02*Y206200D01*
X251500Y212800D02*X271500D01*
Y209500D02*X281500D01*
X241500D02*X251500D01*
X335500Y254500D02*Y272820D01*
X393500Y215650D02*Y236500D01*
X335500Y215650D02*X393500D01*
X335500Y272850D02*X393500D01*
Y254500D02*Y272850D01*
X335500Y215650D02*Y236500D01*
X355000Y255500D02*X358000D01*
X357000Y260500D02*X358000Y259500D01*
Y258500D01*
X355000Y255500D01*
X363000Y260500D02*X360000D01*
Y258500D01*
X362000D01*
X363000Y257500D01*
Y256500D01*
X362000Y255500D01*
X361000D01*
X360000Y256500D01*
X355000Y259500D02*X356000Y260500D01*
X357000D01*
X374500D02*Y255500D01*
X372500Y257500D02*Y255500D01*
Y259500D02*Y260500D01*
X371000Y255500D02*Y258000D01*
X369500Y256500D01*
X368000Y258000D01*
Y255500D01*
X338000Y271000D02*Y265000D01*
Y271000D02*X340000D01*
X341000Y270000D01*
Y269000D01*
X340000Y268000D01*
X338000D01*
X343000D02*X342000Y267000D01*
Y266000D01*
X343000Y265000D01*
X344000D01*
X345000Y266000D01*
Y267000D01*
X344000Y268000D01*
X343000D01*
X345000Y266000D02*X346000Y265000D01*
X351000Y267000D02*X350000Y268000D01*
X349000D01*
X348000Y267000D01*
Y265000D02*Y268000D01*
X354000Y271000D02*Y265000D01*
X355000Y269000D02*X353000D01*
X359000Y265000D02*X358000Y266000D01*
Y267000D01*
X359000Y268000D01*
X360000D01*
X361000Y267000D01*
Y266000D01*
X360000Y265000D01*
X359000D01*
X363000Y268000D02*Y266000D01*
X364000Y265000D01*
X365000Y266000D01*
Y268000D01*
X367000Y265000D02*X369000D01*
Y268000D02*X367000D01*
Y265000D01*
X373000Y268000D02*X372000D01*
X371000Y267000D01*
Y265000D02*Y268000D01*
X374000Y267000D02*X373000Y268000D01*
X377000Y265000D02*X379000D01*
Y268000D02*X377000D01*
Y265000D01*
X383000Y268000D02*X382000D01*
X381000Y267000D01*
Y266000D01*
X382000Y265000D01*
X383000D01*
Y271000D01*
X387000Y268000D02*X386000D01*
X385000Y267000D01*
Y266000D01*
X386000Y265000D01*
X387000D01*
Y268000D02*Y263000D01*
X386000Y262000D01*
X385000Y263000D01*
X389000Y265000D02*X391000D01*
Y268000D02*X389000D01*
Y265000D01*
X390500Y266500D02*X389000D01*
X378500D02*X377000D01*
X368500D02*X367000D01*
X378000Y271500D02*X377000Y270500D01*
X378000Y271500D02*X379000Y270500D01*
X378000Y269500D02*Y271500D01*
X376500Y173500D02*Y123500D01*
X386500D01*
Y173500D01*
X376500D01*
Y163500D02*X386500D01*
Y173500D01*
X357500D02*Y123500D01*
X367500D01*
Y173500D01*
X357500D01*
Y163500D02*X367500D01*
Y173500D01*
X351500Y182700D02*Y189300D01*
X371500Y182700D02*X351500D01*
X371500Y189300D02*Y182700D01*
X351500Y189300D02*X371500D01*
Y186000D02*X381500D01*
X341500D02*X351500D01*
X272200Y165500D02*X278800D01*
Y185500D02*Y165500D01*
X272200Y185500D02*X278800D01*
X272200D02*Y165500D01*
X275500Y195500D02*Y185500D01*
Y165500D02*Y155500D01*
X260500Y124500D02*G75*G03X260500Y124500I0J10000D01*G01*
X313200Y173500D02*X319800D01*
Y193500D02*Y173500D01*
X313200Y193500D02*X319800D01*
X313200D02*Y173500D01*
X316500Y203500D02*Y193500D01*
Y173500D02*Y163500D01*
X297500Y179500D02*Y175500D01*
X295500Y149500D02*X299500D01*
X297500Y151500D02*Y147500D01*
Y153500D02*G75*G03X297500Y153500I0J10000D01*G01*
X286000Y119500D02*X296000D01*
X316000D02*X326000D01*
X296000Y122800D02*X316000D01*
Y116200D01*
X296000D02*X316000D01*
X296000Y122800D02*Y116200D01*
X334500Y113800D02*Y107200D01*
X354500D01*
Y113800D02*Y107200D01*
X334500Y113800D02*X354500D01*
Y110500D02*X364500D01*
X324500D02*X334500D01*
X180500Y104500D02*G75*G03X180500Y104500I0J10000D01*G01*
X120700Y180000D02*X127300D01*
X120700D02*Y160000D01*
X127300D01*
Y180000D02*Y160000D01*
X124000D02*Y150000D01*
Y190000D02*Y180000D01*
X117000Y234000D02*X116000Y235000D01*
X115500Y224500D02*X116000D01*
X117000Y225500D01*
X114500D02*X115500Y224500D01*
Y228500D02*X114500Y227500D01*
X116000Y228500D02*X115500D01*
X117000Y227500D02*X116000Y228500D01*
Y235000D02*X115500D01*
Y231000D02*X116000D01*
X117000Y232000D01*
X114500D02*X115500Y231000D01*
Y235000D02*X114500Y234000D01*
Y232000D01*
Y227500D02*Y225500D01*
X122000Y241000D02*Y237000D01*
X121000Y241000D02*X123000D01*
X119000Y238000D02*Y240000D01*
X118000Y237000D02*X119000Y238000D01*
X117000Y237000D02*X118000D01*
X117000Y241000D02*Y237000D01*
X94500Y235000D02*X96000D01*
X94500D02*Y231000D01*
X99000Y228500D02*X100000D01*
X100500Y228000D01*
X98500D02*X99000Y228500D01*
X100500Y226500D02*X98500Y224500D01*
X131500Y228500D02*Y224500D01*
X136500Y235000D02*X135500Y234000D01*
X136500Y231000D02*Y235000D01*
X135500Y231000D02*X137500D01*
X131500D02*X133500D01*
X131500Y235000D02*Y231000D01*
X135500Y224500D02*X137500D01*
Y226500D02*X135500Y224500D01*
X137500Y228000D02*Y226500D01*
X137000Y228500D02*X137500Y228000D01*
X135500D02*X136000Y228500D01*
X137000D01*
X98500Y224500D02*X100500D01*
X131500D02*X133500D01*
X99500Y235000D02*X98500Y234000D01*
X99500Y231000D02*Y235000D01*
X98500Y231000D02*X100500D01*
X94500Y228500D02*Y224500D01*
X100500Y228000D02*Y226500D01*
X93000Y260000D02*X95000D01*
X93000Y264000D02*Y260000D01*
X138500Y261500D02*X139000Y260000D01*
X138500Y262000D02*X137500D01*
X139000Y262500D02*X138500Y262000D01*
X139000Y263500D02*Y262500D01*
X138500Y264000D02*X139000Y263500D01*
X137000Y264000D02*X138500D01*
X137000D02*Y260000D01*
X96000Y226000D02*X96500Y224500D01*
X96000Y232500D02*X96500Y231000D01*
X96000Y226500D02*X95000D01*
X96500Y227000D02*X96000Y226500D01*
X96500Y228000D02*Y227000D01*
X96000Y228500D02*X96500Y228000D01*
X94500Y228500D02*X96000D01*
Y233000D02*X95000D01*
X96500Y233500D02*X96000Y233000D01*
X96500Y234500D02*Y233500D01*
X96000Y235000D02*X96500Y234500D01*
X118000Y241000D02*X117000D01*
X119000Y240000D02*X118000Y241000D01*
X114500Y239000D02*X113500D01*
X115000Y239500D02*X114500Y239000D01*
X115000Y240500D02*Y239500D01*
X114500Y241000D02*X115000Y240500D01*
X113000Y241000D02*X114500D01*
X113000Y237000D02*Y241000D01*
X110000D02*X109000D01*
X111000Y240000D02*X110000Y241000D01*
X111000Y238000D02*Y240000D01*
X110000Y237000D02*X111000Y238000D01*
X109000Y237000D02*X110000D01*
X109000Y241000D02*Y237000D01*
X114500Y259500D02*X116000Y261000D01*
X117500Y259500D01*
X118500D02*X116000Y262000D01*
X113500Y259500D02*X118500D01*
X116000Y262000D02*X113500Y259500D01*
X116000Y262000D02*Y254500D01*
X91000Y222000D02*X141000D01*
X91000Y266000D02*Y216000D01*
G54D11*X116000Y209000D02*Y208000D01*
X97500Y209000D02*Y208000D01*
G54D13*X122500Y270500D02*Y272500D01*
X120500Y267000D02*X111500D01*
X134500D02*X131500D01*
X134500Y272500D02*Y267000D01*
X97500Y272500D02*X134500D01*
X97500Y267000D02*Y272500D01*
X100500Y267000D02*X97500D01*
X141000Y266000D02*X131500D01*
X111500D02*X120500D01*
X91000D02*X100500D01*
X106000Y271500D02*Y272500D01*
X109500Y270500D02*Y272500D01*
X121500Y216000D02*X129000D01*
X103000D02*X110500D01*
X141000D02*X140000D01*
X92000D02*X91000D01*
X126000Y271500D02*Y272500D01*
X141000Y216000D02*Y266000D01*
G54D11*X134500Y209000D02*Y208000D01*
G54D13*X144500Y157000D02*X152000D01*
X167000D02*X174500D01*
X152000Y159500D02*X167000D01*
Y154500D01*
X152000D02*X167000D01*
X152000Y159500D02*Y154500D01*
X102700Y180000D02*X109300D01*
X102700D02*Y160000D01*
X109300D01*
Y180000D02*Y160000D01*
X106000D02*Y150000D01*
Y190000D02*Y180000D01*
X149500Y153300D02*Y146700D01*
X169500D01*
Y153300D02*Y146700D01*
X149500Y153300D02*X169500D01*
Y150000D02*X179500D01*
X139500D02*X149500D01*
X139000Y118000D02*Y103000D01*
Y143000D02*Y128000D01*
X99000Y103000D02*X139000D01*
X99000Y143000D02*Y103000D01*
Y143000D02*X139000D01*
Y128000D02*G75*G03X139000Y118000I0J-5000D01*G01*
X227575Y221406D02*Y240737D01*
Y272390D02*Y261052D01*
X174425Y272390D02*Y261052D01*
X227575Y221406D02*X174425D01*
Y272390D02*X227575D01*
X174425Y221406D02*Y240737D01*
Y265500D02*X227574D01*
X223500Y144500D02*X238500D01*
X198500D02*X213500D01*
X238500Y104500D02*Y144500D01*
X198500Y104500D02*X238500D01*
X198500Y144500D02*Y104500D01*
X213500Y144500D02*G75*G03X223500Y144500I5000J0D01*G01*
X209500Y193300D02*Y186700D01*
X189500Y193300D02*X209500D01*
X189500D02*Y186700D01*
X209500D01*
X179500Y190000D02*X189500D01*
X209500D02*X219500D01*
X209500Y179300D02*Y172700D01*
X189500Y179300D02*X209500D01*
X189500D02*Y172700D01*
X209500D01*
X179500Y176000D02*X189500D01*
X209500D02*X219500D01*
X266800Y172500D02*Y170500D01*
Y172500D02*X267300Y173000D01*
X268300D01*
X268800Y172500D02*X268300Y173000D01*
X268800Y172500D02*Y171000D01*
X266800D02*X270800D01*
X268800D02*X270800Y173000D01*
X267300Y174201D02*X266800Y174701D01*
Y176201D02*Y174701D01*
Y176201D02*X267300Y176701D01*
X268300D01*
X270800Y174201D02*X268300Y176701D01*
X270800D02*Y174201D01*
X267300Y177902D02*X266800Y178402D01*
Y179402D02*Y178402D01*
Y179402D02*X267300Y179902D01*
X270300D01*
X270800Y179402D02*X270300Y179902D01*
X270800Y179402D02*Y178402D01*
X270300Y177902D02*X270800Y178402D01*
X268800Y179902D02*Y178402D01*
X244500Y184500D02*Y183000D01*
X244000Y182500D02*X244500Y183000D01*
X241000Y182500D02*X244000D01*
X241000D02*X240500Y183000D01*
Y184500D02*Y183000D01*
Y187201D02*X241000Y187701D01*
X240500Y187201D02*Y186201D01*
X241000Y185701D02*X240500Y186201D01*
X241000Y185701D02*X244000D01*
X244500Y186201D01*
X242500Y187201D02*X243000Y187701D01*
X242500Y187201D02*Y185701D01*
X244500Y187201D02*Y186201D01*
Y187201D02*X244000Y187701D01*
X243000D02*X244000D01*
X249500Y132500D02*Y131000D01*
X249000Y130500D02*X249500Y131000D01*
X246000Y130500D02*X249000D01*
X246000D02*X245500Y131000D01*
Y132500D02*Y131000D01*
X249500Y135201D02*Y134201D01*
X245500Y134701D02*X249500D01*
X246500Y133701D02*X245500Y134701D01*
X246000Y136402D02*X245500Y136902D01*
Y138402D02*Y136902D01*
Y138402D02*X246000Y138902D01*
X247000D01*
X249500Y136402D02*X247000Y138902D01*
X249500D02*Y136402D01*
X285500Y162500D02*Y161000D01*
X285000Y160500D02*X285500Y161000D01*
X282000Y160500D02*X285000D01*
X282000D02*X281500Y161000D01*
Y162500D02*Y161000D01*
X285500Y163701D02*X283000Y166201D01*
X281500D02*X283000D01*
X281500D02*Y163701D01*
X240500Y143500D02*X244000D01*
X240500D02*X240000Y143000D01*
Y142000D01*
X240500Y141500D01*
X244000D01*
X243500Y140299D02*X244000Y139799D01*
Y138299D01*
X243500Y137799D01*
X242500D02*X243500D01*
X240000Y140299D02*X242500Y137799D01*
X240000Y140299D02*Y137799D01*
X256500Y218200D02*X258500D01*
X259000Y217700D01*
Y216700D01*
X258500Y216200D02*X259000Y216700D01*
X257000Y216200D02*X258500D01*
X257000Y218200D02*Y214200D01*
Y216200D02*X259000Y214200D01*
X260201Y217700D02*X260701Y218200D01*
X262201D01*
X262701Y217700D01*
Y216700D01*
X260201Y214200D02*X262701Y216700D01*
X260201Y214200D02*X262701D01*
X263902Y217700D02*X264402Y218200D01*
X265902D01*
X266402Y217700D01*
Y216700D01*
X263902Y214200D02*X266402Y216700D01*
X263902Y214200D02*X266402D01*
X336640Y208760D02*X338140D01*
X336140Y209260D02*X336640Y208760D01*
X336140Y212260D02*Y209260D01*
Y212260D02*X336640Y212760D01*
X338140D01*
X339341Y212260D02*Y209260D01*
Y212260D02*X339841Y212760D01*
X340841D01*
X341341Y212260D01*
Y209260D01*
X340841Y208760D02*X341341Y209260D01*
X339841Y208760D02*X340841D01*
X339341Y209260D02*X339841Y208760D01*
X342542Y212760D02*Y208760D01*
Y212760D02*Y212260D01*
X345042Y209760D01*
Y212760D02*Y208760D01*
X346243Y212760D02*Y208760D01*
Y212760D02*Y212260D01*
X348743Y209760D01*
Y212760D02*Y208760D01*
X349944Y212260D02*X350444Y212760D01*
X351444D01*
X351944Y212260D01*
Y209260D01*
X351444Y208760D02*X351944Y209260D01*
X350444Y208760D02*X351444D01*
X349944Y209260D02*X350444Y208760D01*
Y210760D02*X351944D01*
X358000Y190700D02*X359500D01*
X357500Y191200D02*X358000Y190700D01*
X357500Y194200D02*Y191200D01*
Y194200D02*X358000Y194700D01*
X359500D01*
X361201Y190700D02*X362201D01*
X361701Y194700D02*Y190700D01*
X360701Y193700D02*X361701Y194700D01*
X363402Y191200D02*X363902Y190700D01*
X363402Y194200D02*Y191200D01*
Y194200D02*X363902Y194700D01*
X364902D01*
X365402Y194200D01*
Y191200D01*
X364902Y190700D02*X365402Y191200D01*
X363902Y190700D02*X364902D01*
X363402Y191700D02*X365402Y193700D01*
X388000Y172500D02*Y171000D01*
X388500Y173000D02*X388000Y172500D01*
X388500Y173000D02*X391500D01*
X392000Y172500D01*
Y171000D01*
X388500Y169799D02*X391500D01*
X392000Y169299D01*
Y168299D01*
X391500Y167799D01*
X388500D02*X391500D01*
X388000Y168299D02*X388500Y167799D01*
X388000Y169299D02*Y168299D01*
X388500Y169799D02*X388000Y169299D01*
Y166598D02*X392000D01*
X391500D02*X392000D01*
X391500D02*X389000Y164098D01*
X388000D02*X392000D01*
X388000Y162897D02*X392000D01*
X391500D02*X392000D01*
X391500D02*X389000Y160397D01*
X388000D02*X392000D01*
X388000Y158696D02*Y157696D01*
Y158196D02*X392000D01*
X391000Y159196D02*X392000Y158196D01*
X368500Y173000D02*Y171500D01*
X369000Y173500D02*X368500Y173000D01*
X369000Y173500D02*X372000D01*
X372500Y173000D01*
Y171500D01*
X369000Y170299D02*X372000D01*
X372500Y169799D01*
Y168799D01*
X372000Y168299D01*
X369000D02*X372000D01*
X368500Y168799D02*X369000Y168299D01*
X368500Y169799D02*Y168799D01*
X369000Y170299D02*X368500Y169799D01*
Y167098D02*X372500D01*
X372000D02*X372500D01*
X372000D02*X369500Y164598D01*
X368500D02*X372500D01*
X368500Y163397D02*X372500D01*
X372000D02*X372500D01*
X372000D02*X369500Y160897D01*
X368500D02*X372500D01*
X370500Y159696D02*X372500Y157696D01*
X370500Y159696D02*Y157196D01*
X368500Y157696D02*X372500D01*
X307500Y214000D02*Y211000D01*
Y214000D02*X306500Y215000D01*
X305500Y214000D01*
Y211000D01*
X302299D02*X304299D01*
X302299D02*X301799Y211500D01*
Y212500D02*Y211500D01*
X302299Y213000D02*X301799Y212500D01*
X302299Y213000D02*X303799D01*
Y215000D02*Y211000D01*
Y213000D02*X301799Y215000D01*
X299098Y213000D02*X300598D01*
X298598Y215000D02*X300598D01*
Y211000D01*
X298598D02*X300598D01*
X295397D02*X294897Y211500D01*
X295397Y211000D02*X296897D01*
X297397Y211500D02*X296897Y211000D01*
X297397Y214500D02*Y211500D01*
Y214500D02*X296897Y215000D01*
X295397D02*X296897D01*
X295397D02*X294897Y214500D01*
Y213500D01*
X295397Y213000D02*X294897Y213500D01*
X295397Y213000D02*X296397D01*
X292196Y215000D02*X293196D01*
X292696D02*Y211000D01*
X293696Y212000D02*X292696Y211000D01*
X285500Y194000D02*Y192500D01*
X285000Y192000D02*X285500Y192500D01*
X282000Y192000D02*X285000D01*
X282000D02*X281500Y192500D01*
Y194000D02*Y192500D01*
Y197201D02*Y195201D01*
X283500D01*
X283000Y195701D01*
Y196701D02*Y195701D01*
Y196701D02*X283500Y197201D01*
X285000D01*
X285500Y196701D02*X285000Y197201D01*
X285500Y196701D02*Y195701D01*
X285000Y195201D02*X285500Y195701D01*
X307800Y181500D02*Y179500D01*
Y181500D02*X308300Y182000D01*
X309300D01*
X309800Y181500D02*X309300Y182000D01*
X309800Y181500D02*Y180000D01*
X307800D02*X311800D01*
X309800D02*X311800Y182000D01*
X308300Y183201D02*X307800Y183701D01*
Y185201D02*Y183701D01*
Y185201D02*X308300Y185701D01*
X309300D01*
X311800Y183201D02*X309300Y185701D01*
X311800D02*Y183201D01*
X309800Y186902D02*X307800Y188902D01*
X309800Y189402D02*Y186902D01*
X307800Y188902D02*X311800D01*
X302000Y128200D02*X304000D01*
X304500Y127700D01*
Y126700D01*
X304000Y126200D02*X304500Y126700D01*
X302500Y126200D02*X304000D01*
X302500Y128200D02*Y124200D01*
Y126200D02*X304500Y124200D01*
X306201D02*X307201D01*
X306701Y128200D02*Y124200D01*
X305701Y127200D02*X306701Y128200D01*
X308402Y124700D02*X308902Y124200D01*
X308402Y127700D02*Y124700D01*
Y127700D02*X308902Y128200D01*
X309902D01*
X310402Y127700D01*
Y124700D01*
X309902Y124200D02*X310402Y124700D01*
X308902Y124200D02*X309902D01*
X308402Y125200D02*X310402Y127200D01*
X341000Y115200D02*X342500D01*
X340500Y115700D02*X341000Y115200D01*
X340500Y118700D02*Y115700D01*
Y118700D02*X341000Y119200D01*
X342500D01*
X344201Y115200D02*X345201D01*
X344701Y119200D02*Y115200D01*
X343701Y118200D02*X344701Y119200D01*
X346902Y115200D02*X347902D01*
X347402Y119200D02*Y115200D01*
X346402Y118200D02*X347402Y119200D01*
X168500Y111500D02*Y110000D01*
X168000Y109500D02*X168500Y110000D01*
X165000Y109500D02*X168000D01*
X165000D02*X164500Y110000D01*
Y111500D02*Y110000D01*
X168500Y114201D02*Y113201D01*
X164500Y113701D02*X168500D01*
X165500Y112701D02*X164500Y113701D01*
X165000Y115402D02*X164500Y115902D01*
Y116902D02*Y115902D01*
Y116902D02*X165000Y117402D01*
X168000D01*
X168500Y116902D02*X168000Y117402D01*
X168500Y116902D02*Y115902D01*
X168000Y115402D02*X168500Y115902D01*
X166500Y117402D02*Y115902D01*
X132700Y174000D02*Y172000D01*
X132200Y171500D01*
X131200D02*X132200D01*
X130700Y172000D02*X131200Y171500D01*
X130700Y173500D02*Y172000D01*
X128700Y173500D02*X132700D01*
X130700D02*X128700Y171500D01*
Y169799D02*Y168799D01*
Y169299D02*X132700D01*
X131700Y170299D02*X132700Y169299D01*
X132200Y167598D02*X132700Y167098D01*
Y166098D01*
X132200Y165598D01*
X129200D02*X132200D01*
X128700Y166098D02*X129200Y165598D01*
X128700Y167098D02*Y166098D01*
X129200Y167598D02*X128700Y167098D01*
X130700D02*Y165598D01*
X141500Y210500D02*X142000Y210000D01*
X140000Y210500D02*X141500D01*
X139500Y210000D02*X140000Y210500D01*
X139500Y210000D02*Y209000D01*
X140000Y208500D01*
X141500D01*
X142000Y208000D01*
Y207000D01*
X141500Y206500D02*X142000Y207000D01*
X140000Y206500D02*X141500D01*
X139500Y207000D02*X140000Y206500D01*
X143701D02*X144701D01*
X144201Y210500D02*Y206500D01*
X143201Y209500D02*X144201Y210500D01*
X155500Y160500D02*X157000D01*
X155000Y161000D02*X155500Y160500D01*
X155000Y164000D02*Y161000D01*
Y164000D02*X155500Y164500D01*
X157000D01*
X158201Y164000D02*X158701Y164500D01*
X159701D01*
X160201Y164000D01*
Y161000D01*
X159701Y160500D02*X160201Y161000D01*
X158701Y160500D02*X159701D01*
X158201Y161000D02*X158701Y160500D01*
Y162500D02*X160201D01*
X161902Y160500D02*X162902D01*
X162402Y164500D02*Y160500D01*
X161402Y163500D02*X162402Y164500D01*
X155000Y135700D02*X157000D01*
X157500Y135200D01*
Y134200D01*
X157000Y133700D02*X157500Y134200D01*
X155500Y133700D02*X157000D01*
X155500Y135700D02*Y131700D01*
Y133700D02*X157500Y131700D01*
X158701Y135200D02*X159201Y135700D01*
X160201D01*
X160701Y135200D01*
Y132200D01*
X160201Y131700D02*X160701Y132200D01*
X159201Y131700D02*X160201D01*
X158701Y132200D02*X159201Y131700D01*
Y133700D02*X160701D01*
X162402Y131700D02*X163402D01*
X162902Y135700D02*Y131700D01*
X161902Y134700D02*X162902Y135700D01*
X138000Y101000D02*Y97500D01*
Y101000D02*X137500Y101500D01*
X136500D02*X137500D01*
X136500D02*X136000Y101000D01*
Y97500D01*
X133299Y101500D02*X134299D01*
X133799D02*Y97500D01*
X134799Y98500D02*X133799Y97500D01*
X174634Y214752D02*X176134D01*
X174134Y215252D02*X174634Y214752D01*
X174134Y218252D02*Y215252D01*
Y218252D02*X174634Y218752D01*
X176134D01*
X177335Y218252D02*Y215252D01*
Y218252D02*X177835Y218752D01*
X178835D01*
X179335Y218252D01*
Y215252D01*
X178835Y214752D02*X179335Y215252D01*
X177835Y214752D02*X178835D01*
X177335Y215252D02*X177835Y214752D01*
X180536Y218752D02*Y214752D01*
Y218752D02*Y218252D01*
X183036Y215752D01*
Y218752D02*Y214752D01*
X184237Y218752D02*Y214752D01*
Y218752D02*Y218252D01*
X186737Y215752D01*
Y218752D02*Y214752D01*
X187938Y218252D02*X188438Y218752D01*
X189938D01*
X190438Y218252D01*
Y217252D01*
X187938Y214752D02*X190438Y217252D01*
X187938Y214752D02*X190438D01*
X114700Y174000D02*Y172000D01*
X114200Y171500D01*
X113200D02*X114200D01*
X112700Y172000D02*X113200Y171500D01*
X112700Y173500D02*Y172000D01*
X110700Y173500D02*X114700D01*
X112700D02*X110700Y171500D01*
Y169799D02*Y168799D01*
Y169299D02*X114700D01*
X113700Y170299D02*X114700Y169299D01*
X110700Y167098D02*Y166098D01*
Y166598D02*X114700D01*
X113700Y167598D02*X114700Y166598D01*
X200500Y185300D02*X202000D01*
X202500Y184800D02*X202000Y185300D01*
X202500Y184800D02*Y181800D01*
X202000Y181300D01*
X200500D02*X202000D01*
X197799Y185300D02*X198799D01*
X198299D02*Y181300D01*
X199299Y182300D02*X198299Y181300D01*
X200500Y167300D02*X202500D01*
X200500D02*X200000Y167800D01*
Y168800D02*Y167800D01*
X200500Y169300D02*X200000Y168800D01*
X200500Y169300D02*X202000D01*
Y171300D02*Y167300D01*
Y169300D02*X200000Y171300D01*
X197299D02*X198299D01*
X197799D02*Y167300D01*
X198799Y168300D02*X197799Y167300D01*
M02*
