M48
INCH
T25C0.035
T26C0.086
T27C0.125
T28C0.038
T29C0.028
T30C0.042
%
T29
X013400Y010800
X012400Y013800
X020350Y013950
X020350Y012950
X011400Y013800
X010400Y013800
X010400Y010800
X011400Y010800
X013400Y013800
X012400Y010800
X020350Y011950
X020350Y010950
X023350Y010950
X023350Y011950
X023350Y012950
X023350Y013950
T25
X012400Y019000
X010600Y019000
X021950Y019000
X017950Y019000
X018050Y010950
X018050Y011950
X012400Y015000
X014450Y015700
X013950Y015000
X010600Y015000
X017950Y015000
X027550Y015550
X027550Y019550
X025650Y018050
X025650Y019050
X026050Y012950
X026050Y013950
X028600Y011950
X024150Y020950
X028150Y020950
X029750Y019000
X029750Y020000
X031650Y020350
X017450Y015700
X021950Y017600
X017950Y017600
X035450Y022150
X036450Y022150
X031650Y016350
X029750Y015850
X029750Y016850
X032600Y011950
X034150Y018600
X038150Y018600
X032450Y011050
X036450Y011050
T28
X019588Y023912
X021438Y023912
X021438Y022928
X018761Y022928
X018761Y023912
X038150Y015850
X036250Y015850
X038150Y014850
X036250Y014850
X038150Y013850
X038150Y012850
X036250Y013850
X036250Y012850
X038150Y016850
X036250Y016850
T30
X028950Y022350
X029950Y022350
X030950Y022350
T26
X010600Y026600
X012600Y026600
X011600Y021600
X011600Y020100
X009750Y021600
X013450Y021600
X013450Y020100
X009750Y020100
X034450Y024550
X038450Y024550
T27
X020100Y025408
X022757Y025093
X017442Y025093
M30
