G04 start of page 8 for group -3984 idx -3984 *
G04 Title: (unknown), fab *
G04 Creator: pcb 20110918 *
G04 CreationDate: Wed Mar  6 18:25:12 2013 UTC *
G04 For: fosse *
G04 Format: Gerber/RS-274X *
G04 PCB-Dimensions: 508500 383000 *
G04 PCB-Coordinate-Origin: lower left *
%MOIN*%
%FSLAX25Y25*%
%LNFAB*%
%ADD83C,0.0100*%
%ADD82C,0.0060*%
%ADD81C,0.0080*%
G54D81*X201000Y254083D02*Y250883D01*
Y254083D02*X203773Y255683D01*
X201000Y254083D02*X198227Y255683D01*
X199400Y254083D02*G75*G03X202600Y254083I1600J0D01*G01*
G75*G03X199400Y254083I-1600J0D01*G01*
X174425Y250933D02*Y247733D01*
Y250933D02*X177198Y252533D01*
X174425Y250933D02*X171652Y252533D01*
X172825Y250933D02*G75*G03X176025Y250933I1600J0D01*G01*
G75*G03X172825Y250933I-1600J0D01*G01*
X227575D02*Y247733D01*
Y250933D02*X230348Y252533D01*
X227575Y250933D02*X224802Y252533D01*
X225975Y250933D02*G75*G03X229175Y250933I1600J0D01*G01*
G75*G03X225975Y250933I-1600J0D01*G01*
X15000Y394250D02*Y391050D01*
Y394250D02*X17773Y395850D01*
X15000Y394250D02*X12227Y395850D01*
X13400Y394250D02*G75*G03X16600Y394250I1600J0D01*G01*
G75*G03X13400Y394250I-1600J0D01*G01*
G54D82*X135000Y396500D02*Y395750D01*
X136500Y394250D01*
X138000Y395750D01*
Y396500D02*Y395750D01*
X136500Y394250D02*Y390500D01*
X139800Y393500D02*X142050D01*
X139800Y390500D02*X142800D01*
X139800Y396500D02*Y390500D01*
Y396500D02*X142800D01*
X147600D02*X148350Y395750D01*
X145350Y396500D02*X147600D01*
X144600Y395750D02*X145350Y396500D01*
X144600Y395750D02*Y394250D01*
X145350Y393500D01*
X147600D01*
X148350Y392750D01*
Y391250D01*
X147600Y390500D02*X148350Y391250D01*
X145350Y390500D02*X147600D01*
X144600Y391250D02*X145350Y390500D01*
X98000Y395750D02*X98750Y396500D01*
X100250D01*
X101000Y395750D01*
Y391250D01*
X100250Y390500D02*X101000Y391250D01*
X98750Y390500D02*X100250D01*
X98000Y391250D02*X98750Y390500D01*
Y393500D02*X101000D01*
X45000Y391250D02*X45750Y390500D01*
X45000Y395750D02*Y391250D01*
Y395750D02*X45750Y396500D01*
X47250D01*
X48000Y395750D01*
Y391250D01*
X47250Y390500D02*X48000Y391250D01*
X45750Y390500D02*X47250D01*
X45000Y392000D02*X48000Y395000D01*
X49800Y390500D02*X50550D01*
X53100D02*X54600D01*
X53850Y396500D02*Y390500D01*
X52350Y395000D02*X53850Y396500D01*
X56400Y395750D02*X57150Y396500D01*
X59400D01*
X60150Y395750D01*
Y394250D01*
X56400Y390500D02*X60150Y394250D01*
X56400Y390500D02*X60150D01*
X61950Y396500D02*X64950D01*
X61950D02*Y393500D01*
X62700Y394250D01*
X64200D01*
X64950Y393500D01*
Y391250D01*
X64200Y390500D02*X64950Y391250D01*
X62700Y390500D02*X64200D01*
X61950Y391250D02*X62700Y390500D01*
X104400Y267600D02*X107600D01*
X104400D02*Y264400D01*
X107600D01*
Y267600D02*Y264400D01*
X124400Y267600D02*X127600D01*
X124400D02*Y264400D01*
X127600D01*
Y267600D02*Y264400D01*
X114400Y217600D02*X117600D01*
X114400D02*Y214400D01*
X117600D01*
Y217600D02*Y214400D01*
X95900Y217600D02*X99100D01*
X95900D02*Y214400D01*
X99100D01*
Y217600D02*Y214400D01*
X132900Y217600D02*X136100D01*
X132900D02*Y214400D01*
X136100D01*
Y217600D02*Y214400D01*
X95900Y202600D02*X99100D01*
X95900D02*Y199400D01*
X99100D01*
Y202600D02*Y199400D01*
X114400Y202600D02*X117600D01*
X114400D02*Y199400D01*
X117600D01*
Y202600D02*Y199400D01*
X132900Y202600D02*X136100D01*
X132900D02*Y199400D01*
X136100D01*
Y202600D02*Y199400D01*
X342900Y247100D02*X346100D01*
X342900D02*Y243900D01*
X346100D01*
Y247100D02*Y243900D01*
X382900Y247100D02*X386100D01*
X382900D02*Y243900D01*
X386100D01*
Y247100D02*Y243900D01*
X13400Y410850D02*X16600D01*
X13400D02*Y407650D01*
X16600D01*
Y410850D02*Y407650D01*
X135000Y411500D02*Y410750D01*
X136500Y409250D01*
X138000Y410750D01*
Y411500D02*Y410750D01*
X136500Y409250D02*Y405500D01*
X139800Y408500D02*X142050D01*
X139800Y405500D02*X142800D01*
X139800Y411500D02*Y405500D01*
Y411500D02*X142800D01*
X147600D02*X148350Y410750D01*
X145350Y411500D02*X147600D01*
X144600Y410750D02*X145350Y411500D01*
X144600Y410750D02*Y409250D01*
X145350Y408500D01*
X147600D01*
X148350Y407750D01*
Y406250D01*
X147600Y405500D02*X148350Y406250D01*
X145350Y405500D02*X147600D01*
X144600Y406250D02*X145350Y405500D01*
X98750D02*X100250D01*
X99500Y411500D02*Y405500D01*
X98000Y410000D02*X99500Y411500D01*
X102050Y406250D02*X102800Y405500D01*
X102050Y410750D02*Y406250D01*
Y410750D02*X102800Y411500D01*
X104300D01*
X105050Y410750D01*
Y406250D01*
X104300Y405500D02*X105050Y406250D01*
X102800Y405500D02*X104300D01*
X102050Y407000D02*X105050Y410000D01*
X45000Y406250D02*X45750Y405500D01*
X45000Y410750D02*Y406250D01*
Y410750D02*X45750Y411500D01*
X47250D01*
X48000Y410750D01*
Y406250D01*
X47250Y405500D02*X48000Y406250D01*
X45750Y405500D02*X47250D01*
X45000Y407000D02*X48000Y410000D01*
X49800Y405500D02*X50550D01*
X52350Y406250D02*X53100Y405500D01*
X52350Y410750D02*Y406250D01*
Y410750D02*X53100Y411500D01*
X54600D01*
X55350Y410750D01*
Y406250D01*
X54600Y405500D02*X55350Y406250D01*
X53100Y405500D02*X54600D01*
X52350Y407000D02*X55350Y410000D01*
X57150Y406250D02*X57900Y405500D01*
X57150Y407750D02*Y406250D01*
Y407750D02*X57900Y408500D01*
X59400D01*
X60150Y407750D01*
Y406250D01*
X59400Y405500D02*X60150Y406250D01*
X57900Y405500D02*X59400D01*
X57150Y409250D02*X57900Y408500D01*
X57150Y410750D02*Y409250D01*
Y410750D02*X57900Y411500D01*
X59400D01*
X60150Y410750D01*
Y409250D01*
X59400Y408500D02*X60150Y409250D01*
X64200Y411500D02*X64950Y410750D01*
X62700Y411500D02*X64200D01*
X61950Y410750D02*X62700Y411500D01*
X61950Y410750D02*Y406250D01*
X62700Y405500D01*
X64200Y408500D02*X64950Y407750D01*
X61950Y408500D02*X64200D01*
X62700Y405500D02*X64200D01*
X64950Y406250D01*
Y407750D02*Y406250D01*
X288700Y223500D02*G75*G03X290300Y223500I800J0D01*G01*
G75*G03X288700Y223500I-800J0D01*G01*
X298700D02*G75*G03X300300Y223500I800J0D01*G01*
G75*G03X298700Y223500I-800J0D01*G01*
X308700D02*G75*G03X310300Y223500I800J0D01*G01*
G75*G03X308700Y223500I-800J0D01*G01*
X14200Y424250D02*G75*G03X15800Y424250I800J0D01*G01*
G75*G03X14200Y424250I-800J0D01*G01*
X135000Y426500D02*Y425750D01*
X136500Y424250D01*
X138000Y425750D01*
Y426500D02*Y425750D01*
X136500Y424250D02*Y420500D01*
X139800Y423500D02*X142050D01*
X139800Y420500D02*X142800D01*
X139800Y426500D02*Y420500D01*
Y426500D02*X142800D01*
X147600D02*X148350Y425750D01*
X145350Y426500D02*X147600D01*
X144600Y425750D02*X145350Y426500D01*
X144600Y425750D02*Y424250D01*
X145350Y423500D01*
X147600D01*
X148350Y422750D01*
Y421250D01*
X147600Y420500D02*X148350Y421250D01*
X145350Y420500D02*X147600D01*
X144600Y421250D02*X145350Y420500D01*
X98000Y425750D02*X98750Y426500D01*
X100250D01*
X101000Y425750D01*
Y421250D01*
X100250Y420500D02*X101000Y421250D01*
X98750Y420500D02*X100250D01*
X98000Y421250D02*X98750Y420500D01*
Y423500D02*X101000D01*
X45000Y421250D02*X45750Y420500D01*
X45000Y425750D02*Y421250D01*
Y425750D02*X45750Y426500D01*
X47250D01*
X48000Y425750D01*
Y421250D01*
X47250Y420500D02*X48000Y421250D01*
X45750Y420500D02*X47250D01*
X45000Y422000D02*X48000Y425000D01*
X49800Y420500D02*X50550D01*
X52350Y421250D02*X53100Y420500D01*
X52350Y425750D02*Y421250D01*
Y425750D02*X53100Y426500D01*
X54600D01*
X55350Y425750D01*
Y421250D01*
X54600Y420500D02*X55350Y421250D01*
X53100Y420500D02*X54600D01*
X52350Y422000D02*X55350Y425000D01*
X57150Y423500D02*X60150Y426500D01*
X57150Y423500D02*X60900D01*
X60150Y426500D02*Y420500D01*
X62700Y425750D02*X63450Y426500D01*
X65700D01*
X66450Y425750D01*
Y424250D01*
X62700Y420500D02*X66450Y424250D01*
X62700Y420500D02*X66450D01*
X380300Y169700D02*X382700Y167300D01*
X380300D02*X382700Y169700D01*
X380300Y159700D02*X382700Y157300D01*
X380300D02*X382700Y159700D01*
X380300Y149700D02*X382700Y147300D01*
X380300D02*X382700Y149700D01*
X380300Y139700D02*X382700Y137300D01*
X380300D02*X382700Y139700D01*
X380300Y129700D02*X382700Y127300D01*
X380300D02*X382700Y129700D01*
X186414Y230480D02*X188814Y228080D01*
X186414D02*X188814Y230480D01*
X194682Y240322D02*X197082Y237922D01*
X194682D02*X197082Y240322D01*
X186414D02*X188814Y237922D01*
X186414D02*X188814Y240322D01*
X213186D02*X215586Y237922D01*
X213186D02*X215586Y240322D01*
X213186Y230480D02*X215586Y228080D01*
X213186D02*X215586Y230480D01*
X361300Y169700D02*X363700Y167300D01*
X361300D02*X363700Y169700D01*
X361300Y159700D02*X363700Y157300D01*
X361300D02*X363700Y159700D01*
X361300Y149700D02*X363700Y147300D01*
X361300D02*X363700Y149700D01*
X361300Y139700D02*X363700Y137300D01*
X361300D02*X363700Y139700D01*
X361300Y129700D02*X363700Y127300D01*
X361300D02*X363700Y129700D01*
X13800Y440450D02*X16200Y438050D01*
X13800D02*X16200Y440450D01*
X135000Y441500D02*Y440750D01*
X136500Y439250D01*
X138000Y440750D01*
Y441500D02*Y440750D01*
X136500Y439250D02*Y435500D01*
X139800Y438500D02*X142050D01*
X139800Y435500D02*X142800D01*
X139800Y441500D02*Y435500D01*
Y441500D02*X142800D01*
X147600D02*X148350Y440750D01*
X145350Y441500D02*X147600D01*
X144600Y440750D02*X145350Y441500D01*
X144600Y440750D02*Y439250D01*
X145350Y438500D01*
X147600D01*
X148350Y437750D01*
Y436250D01*
X147600Y435500D02*X148350Y436250D01*
X145350Y435500D02*X147600D01*
X144600Y436250D02*X145350Y435500D01*
X98750D02*X100250D01*
X99500Y441500D02*Y435500D01*
X98000Y440000D02*X99500Y441500D01*
X102050D02*X105050D01*
X102050D02*Y438500D01*
X102800Y439250D01*
X104300D01*
X105050Y438500D01*
Y436250D01*
X104300Y435500D02*X105050Y436250D01*
X102800Y435500D02*X104300D01*
X102050Y436250D02*X102800Y435500D01*
X45000Y436250D02*X45750Y435500D01*
X45000Y440750D02*Y436250D01*
Y440750D02*X45750Y441500D01*
X47250D01*
X48000Y440750D01*
Y436250D01*
X47250Y435500D02*X48000Y436250D01*
X45750Y435500D02*X47250D01*
X45000Y437000D02*X48000Y440000D01*
X49800Y435500D02*X50550D01*
X52350Y436250D02*X53100Y435500D01*
X52350Y440750D02*Y436250D01*
Y440750D02*X53100Y441500D01*
X54600D01*
X55350Y440750D01*
Y436250D01*
X54600Y435500D02*X55350Y436250D01*
X53100Y435500D02*X54600D01*
X52350Y437000D02*X55350Y440000D01*
X57150Y440750D02*X57900Y441500D01*
X59400D01*
X60150Y440750D01*
Y436250D01*
X59400Y435500D02*X60150Y436250D01*
X57900Y435500D02*X59400D01*
X57150Y436250D02*X57900Y435500D01*
Y438500D02*X60150D01*
X61950Y436250D02*X62700Y435500D01*
X61950Y437750D02*Y436250D01*
Y437750D02*X62700Y438500D01*
X64200D01*
X64950Y437750D01*
Y436250D01*
X64200Y435500D02*X64950Y436250D01*
X62700Y435500D02*X64200D01*
X61950Y439250D02*X62700Y438500D01*
X61950Y440750D02*Y439250D01*
Y440750D02*X62700Y441500D01*
X64200D01*
X64950Y440750D01*
Y439250D01*
X64200Y438500D02*X64950Y439250D01*
X275500Y157100D02*Y153900D01*
X273900Y155500D02*X277100D01*
X275500Y197100D02*Y193900D01*
X273900Y195500D02*X277100D01*
X256500Y182100D02*Y178900D01*
X254900Y180500D02*X258100D01*
X256500Y192100D02*Y188900D01*
X254900Y190500D02*X258100D01*
X180500Y111100D02*Y107900D01*
X178900Y109500D02*X182100D01*
X180500Y121100D02*Y117900D01*
X178900Y119500D02*X182100D01*
X124000Y191600D02*Y188400D01*
X122400Y190000D02*X125600D01*
X124000Y151600D02*Y148400D01*
X122400Y150000D02*X125600D01*
X260500Y131100D02*Y127900D01*
X258900Y129500D02*X262100D01*
X260500Y141100D02*Y137900D01*
X258900Y139500D02*X262100D01*
X241500Y211100D02*Y207900D01*
X239900Y209500D02*X243100D01*
X281500Y211100D02*Y207900D01*
X279900Y209500D02*X283100D01*
X354500Y223100D02*Y219900D01*
X352900Y221500D02*X356100D01*
X364500Y223100D02*Y219900D01*
X362900Y221500D02*X366100D01*
X144500Y158600D02*Y155400D01*
X142900Y157000D02*X146100D01*
X174500Y158600D02*Y155400D01*
X172900Y157000D02*X176100D01*
X297500Y191600D02*Y188400D01*
X295900Y190000D02*X299100D01*
X297500Y201600D02*Y198400D01*
X295900Y200000D02*X299100D01*
X316500Y165100D02*Y161900D01*
X314900Y163500D02*X318100D01*
X316500Y205100D02*Y201900D01*
X314900Y203500D02*X318100D01*
X297500Y160100D02*Y156900D01*
X295900Y158500D02*X299100D01*
X297500Y170100D02*Y166900D01*
X295900Y168500D02*X299100D01*
X106000Y191600D02*Y188400D01*
X104400Y190000D02*X107600D01*
X106000Y151600D02*Y148400D01*
X104400Y150000D02*X107600D01*
X286000Y121100D02*Y117900D01*
X284400Y119500D02*X287600D01*
X326000Y121100D02*Y117900D01*
X324400Y119500D02*X327600D01*
X219500Y191600D02*Y188400D01*
X217900Y190000D02*X221100D01*
X179500Y191600D02*Y188400D01*
X177900Y190000D02*X181100D01*
X219500Y177600D02*Y174400D01*
X217900Y176000D02*X221100D01*
X179500Y177600D02*Y174400D01*
X177900Y176000D02*X181100D01*
X139500Y151600D02*Y148400D01*
X137900Y150000D02*X141100D01*
X179500Y151600D02*Y148400D01*
X177900Y150000D02*X181100D01*
X341500Y187600D02*Y184400D01*
X339900Y186000D02*X343100D01*
X381500Y187600D02*Y184400D01*
X379900Y186000D02*X383100D01*
X324500Y112100D02*Y108900D01*
X322900Y110500D02*X326100D01*
X364500Y112100D02*Y108900D01*
X362900Y110500D02*X366100D01*
X15000Y455850D02*Y452650D01*
X13400Y454250D02*X16600D01*
X135000Y456500D02*Y455750D01*
X136500Y454250D01*
X138000Y455750D01*
Y456500D02*Y455750D01*
X136500Y454250D02*Y450500D01*
X139800Y453500D02*X142050D01*
X139800Y450500D02*X142800D01*
X139800Y456500D02*Y450500D01*
Y456500D02*X142800D01*
X147600D02*X148350Y455750D01*
X145350Y456500D02*X147600D01*
X144600Y455750D02*X145350Y456500D01*
X144600Y455750D02*Y454250D01*
X145350Y453500D01*
X147600D01*
X148350Y452750D01*
Y451250D01*
X147600Y450500D02*X148350Y451250D01*
X145350Y450500D02*X147600D01*
X144600Y451250D02*X145350Y450500D01*
X98000Y455750D02*X98750Y456500D01*
X100250D01*
X101000Y455750D01*
Y451250D01*
X100250Y450500D02*X101000Y451250D01*
X98750Y450500D02*X100250D01*
X98000Y451250D02*X98750Y450500D01*
Y453500D02*X101000D01*
X105050Y456500D02*X105800Y455750D01*
X103550Y456500D02*X105050D01*
X102800Y455750D02*X103550Y456500D01*
X102800Y455750D02*Y451250D01*
X103550Y450500D01*
X105050Y453500D02*X105800Y452750D01*
X102800Y453500D02*X105050D01*
X103550Y450500D02*X105050D01*
X105800Y451250D01*
Y452750D02*Y451250D01*
X45000D02*X45750Y450500D01*
X45000Y455750D02*Y451250D01*
Y455750D02*X45750Y456500D01*
X47250D01*
X48000Y455750D01*
Y451250D01*
X47250Y450500D02*X48000Y451250D01*
X45750Y450500D02*X47250D01*
X45000Y452000D02*X48000Y455000D01*
X49800Y450500D02*X50550D01*
X52350Y451250D02*X53100Y450500D01*
X52350Y455750D02*Y451250D01*
Y455750D02*X53100Y456500D01*
X54600D01*
X55350Y455750D01*
Y451250D01*
X54600Y450500D02*X55350Y451250D01*
X53100Y450500D02*X54600D01*
X52350Y452000D02*X55350Y455000D01*
X57150Y455750D02*X57900Y456500D01*
X59400D01*
X60150Y455750D01*
Y451250D01*
X59400Y450500D02*X60150Y451250D01*
X57900Y450500D02*X59400D01*
X57150Y451250D02*X57900Y450500D01*
Y453500D02*X60150D01*
X61950Y456500D02*X64950D01*
X61950D02*Y453500D01*
X62700Y454250D01*
X64200D01*
X64950Y453500D01*
Y451250D01*
X64200Y450500D02*X64950Y451250D01*
X62700Y450500D02*X64200D01*
X61950Y451250D02*X62700Y450500D01*
X134000Y138000D02*Y136400D01*
Y138000D02*X135387Y138800D01*
X134000Y138000D02*X132613Y138800D01*
X124000Y138000D02*Y136400D01*
Y138000D02*X125387Y138800D01*
X124000Y138000D02*X122613Y138800D01*
X114000Y138000D02*Y136400D01*
Y138000D02*X115387Y138800D01*
X114000Y138000D02*X112613Y138800D01*
X104000Y138000D02*Y136400D01*
Y138000D02*X105387Y138800D01*
X104000Y138000D02*X102613Y138800D01*
X104000Y108000D02*Y106400D01*
Y108000D02*X105387Y108800D01*
X104000Y108000D02*X102613Y108800D01*
X114000Y108000D02*Y106400D01*
Y108000D02*X115387Y108800D01*
X114000Y108000D02*X112613Y108800D01*
X124000Y108000D02*Y106400D01*
Y108000D02*X125387Y108800D01*
X124000Y108000D02*X122613Y108800D01*
X134000Y108000D02*Y106400D01*
Y108000D02*X135387Y108800D01*
X134000Y108000D02*X132613Y108800D01*
X203500Y139500D02*Y137900D01*
Y139500D02*X204887Y140300D01*
X203500Y139500D02*X202113Y140300D01*
X203500Y129500D02*Y127900D01*
Y129500D02*X204887Y130300D01*
X203500Y129500D02*X202113Y130300D01*
X203500Y119500D02*Y117900D01*
Y119500D02*X204887Y120300D01*
X203500Y119500D02*X202113Y120300D01*
X203500Y109500D02*Y107900D01*
Y109500D02*X204887Y110300D01*
X203500Y109500D02*X202113Y110300D01*
X233500Y109500D02*Y107900D01*
Y109500D02*X234887Y110300D01*
X233500Y109500D02*X232113Y110300D01*
X233500Y119500D02*Y117900D01*
Y119500D02*X234887Y120300D01*
X233500Y119500D02*X232113Y120300D01*
X233500Y129500D02*Y127900D01*
Y129500D02*X234887Y130300D01*
X233500Y129500D02*X232113Y130300D01*
X233500Y139500D02*Y137900D01*
Y139500D02*X234887Y140300D01*
X233500Y139500D02*X232113Y140300D01*
X15000Y469250D02*Y467650D01*
Y469250D02*X16387Y470050D01*
X15000Y469250D02*X13613Y470050D01*
X135000Y471500D02*Y470750D01*
X136500Y469250D01*
X138000Y470750D01*
Y471500D02*Y470750D01*
X136500Y469250D02*Y465500D01*
X139800Y468500D02*X142050D01*
X139800Y465500D02*X142800D01*
X139800Y471500D02*Y465500D01*
Y471500D02*X142800D01*
X147600D02*X148350Y470750D01*
X145350Y471500D02*X147600D01*
X144600Y470750D02*X145350Y471500D01*
X144600Y470750D02*Y469250D01*
X145350Y468500D01*
X147600D01*
X148350Y467750D01*
Y466250D01*
X147600Y465500D02*X148350Y466250D01*
X145350Y465500D02*X147600D01*
X144600Y466250D02*X145350Y465500D01*
X98750D02*X100250D01*
X99500Y471500D02*Y465500D01*
X98000Y470000D02*X99500Y471500D01*
X104300D02*X105050Y470750D01*
X102800Y471500D02*X104300D01*
X102050Y470750D02*X102800Y471500D01*
X102050Y470750D02*Y466250D01*
X102800Y465500D01*
X104300Y468500D02*X105050Y467750D01*
X102050Y468500D02*X104300D01*
X102800Y465500D02*X104300D01*
X105050Y466250D01*
Y467750D02*Y466250D01*
X45000D02*X45750Y465500D01*
X45000Y470750D02*Y466250D01*
Y470750D02*X45750Y471500D01*
X47250D01*
X48000Y470750D01*
Y466250D01*
X47250Y465500D02*X48000Y466250D01*
X45750Y465500D02*X47250D01*
X45000Y467000D02*X48000Y470000D01*
X49800Y465500D02*X50550D01*
X52350Y466250D02*X53100Y465500D01*
X52350Y470750D02*Y466250D01*
Y470750D02*X53100Y471500D01*
X54600D01*
X55350Y470750D01*
Y466250D01*
X54600Y465500D02*X55350Y466250D01*
X53100Y465500D02*X54600D01*
X52350Y467000D02*X55350Y470000D01*
X57150Y470750D02*X57900Y471500D01*
X60150D01*
X60900Y470750D01*
Y469250D01*
X57150Y465500D02*X60900Y469250D01*
X57150Y465500D02*X60900D01*
X62700Y466250D02*X63450Y465500D01*
X62700Y467750D02*Y466250D01*
Y467750D02*X63450Y468500D01*
X64950D01*
X65700Y467750D01*
Y466250D01*
X64950Y465500D02*X65700Y466250D01*
X63450Y465500D02*X64950D01*
X62700Y469250D02*X63450Y468500D01*
X62700Y470750D02*Y469250D01*
Y470750D02*X63450Y471500D01*
X64950D01*
X65700Y470750D01*
Y469250D01*
X64950Y468500D02*X65700Y469250D01*
X3000Y486500D02*X3750Y485750D01*
X750Y486500D02*X3000D01*
X0Y485750D02*X750Y486500D01*
X0Y485750D02*Y484250D01*
X750Y483500D01*
X3000D01*
X3750Y482750D01*
Y481250D01*
X3000Y480500D02*X3750Y481250D01*
X750Y480500D02*X3000D01*
X0Y481250D02*X750Y480500D01*
X5550Y483500D02*Y481250D01*
X6300Y480500D01*
X8550Y483500D02*Y479000D01*
X7800Y478250D02*X8550Y479000D01*
X6300Y478250D02*X7800D01*
X5550Y479000D02*X6300Y478250D01*
Y480500D02*X7800D01*
X8550Y481250D01*
X11100Y482750D02*Y480500D01*
Y482750D02*X11850Y483500D01*
X12600D01*
X13350Y482750D01*
Y480500D01*
Y482750D02*X14100Y483500D01*
X14850D01*
X15600Y482750D01*
Y480500D01*
X10350Y483500D02*X11100Y482750D01*
X17400Y486500D02*Y480500D01*
Y481250D02*X18150Y480500D01*
X19650D01*
X20400Y481250D01*
Y482750D02*Y481250D01*
X19650Y483500D02*X20400Y482750D01*
X18150Y483500D02*X19650D01*
X17400Y482750D02*X18150Y483500D01*
X22200Y482750D02*Y481250D01*
Y482750D02*X22950Y483500D01*
X24450D01*
X25200Y482750D01*
Y481250D01*
X24450Y480500D02*X25200Y481250D01*
X22950Y480500D02*X24450D01*
X22200Y481250D02*X22950Y480500D01*
X27000Y486500D02*Y481250D01*
X27750Y480500D01*
X0Y477250D02*X29250D01*
X41750Y486500D02*Y480500D01*
X44000Y486500D02*X44750Y485750D01*
Y481250D01*
X44000Y480500D02*X44750Y481250D01*
X41000Y480500D02*X44000D01*
X41000Y486500D02*X44000D01*
X46550Y485000D02*Y484250D01*
Y482750D02*Y480500D01*
X50300Y483500D02*X51050Y482750D01*
X48800Y483500D02*X50300D01*
X48050Y482750D02*X48800Y483500D01*
X48050Y482750D02*Y481250D01*
X48800Y480500D01*
X51050Y483500D02*Y481250D01*
X51800Y480500D01*
X48800D02*X50300D01*
X51050Y481250D01*
X54350Y482750D02*Y480500D01*
Y482750D02*X55100Y483500D01*
X55850D01*
X56600Y482750D01*
Y480500D01*
Y482750D02*X57350Y483500D01*
X58100D01*
X58850Y482750D01*
Y480500D01*
X53600Y483500D02*X54350Y482750D01*
X60650Y480500D02*X61400D01*
X65900Y481250D02*X66650Y480500D01*
X65900Y485750D02*X66650Y486500D01*
X65900Y485750D02*Y481250D01*
X68450Y486500D02*X69950D01*
X69200D02*Y480500D01*
X68450D02*X69950D01*
X72500Y482750D02*Y480500D01*
Y482750D02*X73250Y483500D01*
X74000D01*
X74750Y482750D01*
Y480500D01*
X71750Y483500D02*X72500Y482750D01*
X77300Y483500D02*X79550D01*
X76550Y482750D02*X77300Y483500D01*
X76550Y482750D02*Y481250D01*
X77300Y480500D01*
X79550D01*
X81350Y486500D02*Y480500D01*
Y482750D02*X82100Y483500D01*
X83600D01*
X84350Y482750D01*
Y480500D01*
X86150Y486500D02*X86900Y485750D01*
Y481250D01*
X86150Y480500D02*X86900Y481250D01*
X41000Y477250D02*X88700D01*
X95750Y480500D02*X98000D01*
X95000Y481250D02*X95750Y480500D01*
X95000Y485750D02*Y481250D01*
Y485750D02*X95750Y486500D01*
X98000D01*
X99800Y482750D02*Y481250D01*
Y482750D02*X100550Y483500D01*
X102050D01*
X102800Y482750D01*
Y481250D01*
X102050Y480500D02*X102800Y481250D01*
X100550Y480500D02*X102050D01*
X99800Y481250D02*X100550Y480500D01*
X104600Y483500D02*Y481250D01*
X105350Y480500D01*
X106850D01*
X107600Y481250D01*
Y483500D02*Y481250D01*
X110150Y482750D02*Y480500D01*
Y482750D02*X110900Y483500D01*
X111650D01*
X112400Y482750D01*
Y480500D01*
X109400Y483500D02*X110150Y482750D01*
X114950Y486500D02*Y481250D01*
X115700Y480500D01*
X114200Y484250D02*X115700D01*
X95000Y477250D02*X117200D01*
X130750Y486500D02*Y480500D01*
X130000Y486500D02*X133000D01*
X133750Y485750D01*
Y484250D01*
X133000Y483500D02*X133750Y484250D01*
X130750Y483500D02*X133000D01*
X135550Y486500D02*Y481250D01*
X136300Y480500D01*
X140050Y483500D02*X140800Y482750D01*
X138550Y483500D02*X140050D01*
X137800Y482750D02*X138550Y483500D01*
X137800Y482750D02*Y481250D01*
X138550Y480500D01*
X140800Y483500D02*Y481250D01*
X141550Y480500D01*
X138550D02*X140050D01*
X140800Y481250D01*
X144100Y486500D02*Y481250D01*
X144850Y480500D01*
X143350Y484250D02*X144850D01*
X147100Y480500D02*X149350D01*
X146350Y481250D02*X147100Y480500D01*
X146350Y482750D02*Y481250D01*
Y482750D02*X147100Y483500D01*
X148600D01*
X149350Y482750D01*
X146350Y482000D02*X149350D01*
Y482750D02*Y482000D01*
X154150Y486500D02*Y480500D01*
X153400D02*X154150Y481250D01*
X151900Y480500D02*X153400D01*
X151150Y481250D02*X151900Y480500D01*
X151150Y482750D02*Y481250D01*
Y482750D02*X151900Y483500D01*
X153400D01*
X154150Y482750D01*
X157450Y483500D02*Y482750D01*
Y481250D02*Y480500D01*
X155950Y485750D02*Y485000D01*
Y485750D02*X156700Y486500D01*
X158200D01*
X158950Y485750D01*
Y485000D01*
X157450Y483500D02*X158950Y485000D01*
X130000Y477250D02*X160750D01*
X0Y501500D02*X3000D01*
X1500D02*Y495500D01*
X4800Y501500D02*Y495500D01*
Y497750D02*X5550Y498500D01*
X7050D01*
X7800Y497750D01*
Y495500D01*
X10350D02*X12600D01*
X9600Y496250D02*X10350Y495500D01*
X9600Y497750D02*Y496250D01*
Y497750D02*X10350Y498500D01*
X11850D01*
X12600Y497750D01*
X9600Y497000D02*X12600D01*
Y497750D02*Y497000D01*
X15150Y497750D02*Y495500D01*
Y497750D02*X15900Y498500D01*
X17400D01*
X14400D02*X15150Y497750D01*
X19950Y495500D02*X22200D01*
X19200Y496250D02*X19950Y495500D01*
X19200Y497750D02*Y496250D01*
Y497750D02*X19950Y498500D01*
X21450D01*
X22200Y497750D01*
X19200Y497000D02*X22200D01*
Y497750D02*Y497000D01*
X28950Y498500D02*X29700Y497750D01*
X27450Y498500D02*X28950D01*
X26700Y497750D02*X27450Y498500D01*
X26700Y497750D02*Y496250D01*
X27450Y495500D01*
X29700Y498500D02*Y496250D01*
X30450Y495500D01*
X27450D02*X28950D01*
X29700Y496250D01*
X33000Y497750D02*Y495500D01*
Y497750D02*X33750Y498500D01*
X35250D01*
X32250D02*X33000Y497750D01*
X37800Y495500D02*X40050D01*
X37050Y496250D02*X37800Y495500D01*
X37050Y497750D02*Y496250D01*
Y497750D02*X37800Y498500D01*
X39300D01*
X40050Y497750D01*
X37050Y497000D02*X40050D01*
Y497750D02*Y497000D01*
X46800Y501500D02*X47550Y500750D01*
X45300Y501500D02*X46800D01*
X44550Y500750D02*X45300Y501500D01*
X44550Y500750D02*Y496250D01*
X45300Y495500D01*
X46800Y498500D02*X47550Y497750D01*
X44550Y498500D02*X46800D01*
X45300Y495500D02*X46800D01*
X47550Y496250D01*
Y497750D02*Y496250D01*
X55050Y501500D02*Y495500D01*
X54300D02*X55050Y496250D01*
X52800Y495500D02*X54300D01*
X52050Y496250D02*X52800Y495500D01*
X52050Y497750D02*Y496250D01*
Y497750D02*X52800Y498500D01*
X54300D01*
X55050Y497750D01*
X56850Y500000D02*Y499250D01*
Y497750D02*Y495500D01*
X59100Y500750D02*Y495500D01*
Y500750D02*X59850Y501500D01*
X60600D01*
X58350Y498500D02*X59850D01*
X62850Y500750D02*Y495500D01*
Y500750D02*X63600Y501500D01*
X64350D01*
X62100Y498500D02*X63600D01*
X66600Y495500D02*X68850D01*
X65850Y496250D02*X66600Y495500D01*
X65850Y497750D02*Y496250D01*
Y497750D02*X66600Y498500D01*
X68100D01*
X68850Y497750D01*
X65850Y497000D02*X68850D01*
Y497750D02*Y497000D01*
X71400Y497750D02*Y495500D01*
Y497750D02*X72150Y498500D01*
X73650D01*
X70650D02*X71400Y497750D01*
X76200Y495500D02*X78450D01*
X75450Y496250D02*X76200Y495500D01*
X75450Y497750D02*Y496250D01*
Y497750D02*X76200Y498500D01*
X77700D01*
X78450Y497750D01*
X75450Y497000D02*X78450D01*
Y497750D02*Y497000D01*
X81000Y497750D02*Y495500D01*
Y497750D02*X81750Y498500D01*
X82500D01*
X83250Y497750D01*
Y495500D01*
X80250Y498500D02*X81000Y497750D01*
X85800Y501500D02*Y496250D01*
X86550Y495500D01*
X85050Y499250D02*X86550D01*
X93750Y501500D02*Y495500D01*
X93000D02*X93750Y496250D01*
X91500Y495500D02*X93000D01*
X90750Y496250D02*X91500Y495500D01*
X90750Y497750D02*Y496250D01*
Y497750D02*X91500Y498500D01*
X93000D01*
X93750Y497750D01*
X96300D02*Y495500D01*
Y497750D02*X97050Y498500D01*
X98550D01*
X95550D02*X96300Y497750D01*
X100350Y500000D02*Y499250D01*
Y497750D02*Y495500D01*
X101850Y501500D02*Y496250D01*
X102600Y495500D01*
X104100Y501500D02*Y496250D01*
X104850Y495500D01*
X109800D02*X112050D01*
X112800Y496250D01*
X112050Y497000D02*X112800Y496250D01*
X109800Y497000D02*X112050D01*
X109050Y497750D02*X109800Y497000D01*
X109050Y497750D02*X109800Y498500D01*
X112050D01*
X112800Y497750D01*
X109050Y496250D02*X109800Y495500D01*
X114600Y500000D02*Y499250D01*
Y497750D02*Y495500D01*
X116100Y498500D02*X119100D01*
X116100Y495500D02*X119100Y498500D01*
X116100Y495500D02*X119100D01*
X121650D02*X123900D01*
X120900Y496250D02*X121650Y495500D01*
X120900Y497750D02*Y496250D01*
Y497750D02*X121650Y498500D01*
X123150D01*
X123900Y497750D01*
X120900Y497000D02*X123900D01*
Y497750D02*Y497000D01*
X126450Y495500D02*X128700D01*
X129450Y496250D01*
X128700Y497000D02*X129450Y496250D01*
X126450Y497000D02*X128700D01*
X125700Y497750D02*X126450Y497000D01*
X125700Y497750D02*X126450Y498500D01*
X128700D01*
X129450Y497750D01*
X125700Y496250D02*X126450Y495500D01*
X133950Y498500D02*Y496250D01*
X134700Y495500D01*
X136200D01*
X136950Y496250D01*
Y498500D02*Y496250D01*
X139500Y495500D02*X141750D01*
X142500Y496250D01*
X141750Y497000D02*X142500Y496250D01*
X139500Y497000D02*X141750D01*
X138750Y497750D02*X139500Y497000D01*
X138750Y497750D02*X139500Y498500D01*
X141750D01*
X142500Y497750D01*
X138750Y496250D02*X139500Y495500D01*
X145050D02*X147300D01*
X144300Y496250D02*X145050Y495500D01*
X144300Y497750D02*Y496250D01*
Y497750D02*X145050Y498500D01*
X146550D01*
X147300Y497750D01*
X144300Y497000D02*X147300D01*
Y497750D02*Y497000D01*
X152100Y501500D02*Y495500D01*
X151350D02*X152100Y496250D01*
X149850Y495500D02*X151350D01*
X149100Y496250D02*X149850Y495500D01*
X149100Y497750D02*Y496250D01*
Y497750D02*X149850Y498500D01*
X151350D01*
X152100Y497750D01*
X156600Y500000D02*Y499250D01*
Y497750D02*Y495500D01*
X158850Y497750D02*Y495500D01*
Y497750D02*X159600Y498500D01*
X160350D01*
X161100Y497750D01*
Y495500D01*
X158100Y498500D02*X158850Y497750D01*
X166350Y501500D02*Y496250D01*
X167100Y495500D01*
X165600Y499250D02*X167100D01*
X168600Y501500D02*Y495500D01*
Y497750D02*X169350Y498500D01*
X170850D01*
X171600Y497750D01*
Y495500D01*
X173400Y500000D02*Y499250D01*
Y497750D02*Y495500D01*
X175650D02*X177900D01*
X178650Y496250D01*
X177900Y497000D02*X178650Y496250D01*
X175650Y497000D02*X177900D01*
X174900Y497750D02*X175650Y497000D01*
X174900Y497750D02*X175650Y498500D01*
X177900D01*
X178650Y497750D01*
X174900Y496250D02*X175650Y495500D01*
X183150Y501500D02*Y496250D01*
X183900Y495500D01*
X187650Y498500D02*X188400Y497750D01*
X186150Y498500D02*X187650D01*
X185400Y497750D02*X186150Y498500D01*
X185400Y497750D02*Y496250D01*
X186150Y495500D01*
X188400Y498500D02*Y496250D01*
X189150Y495500D01*
X186150D02*X187650D01*
X188400Y496250D01*
X190950Y498500D02*Y496250D01*
X191700Y495500D01*
X193950Y498500D02*Y494000D01*
X193200Y493250D02*X193950Y494000D01*
X191700Y493250D02*X193200D01*
X190950Y494000D02*X191700Y493250D01*
Y495500D02*X193200D01*
X193950Y496250D01*
X195750Y497750D02*Y496250D01*
Y497750D02*X196500Y498500D01*
X198000D01*
X198750Y497750D01*
Y496250D01*
X198000Y495500D02*X198750Y496250D01*
X196500Y495500D02*X198000D01*
X195750Y496250D02*X196500Y495500D01*
X200550Y498500D02*Y496250D01*
X201300Y495500D01*
X202800D01*
X203550Y496250D01*
Y498500D02*Y496250D01*
X206100Y501500D02*Y496250D01*
X206850Y495500D01*
X205350Y499250D02*X206850D01*
X208350Y494000D02*X209850Y495500D01*
X214350Y496250D02*X215100Y495500D01*
X214350Y497750D02*Y496250D01*
Y497750D02*X215100Y498500D01*
X216600D01*
X217350Y497750D01*
Y496250D01*
X216600Y495500D02*X217350Y496250D01*
X215100Y495500D02*X216600D01*
X214350Y499250D02*X215100Y498500D01*
X214350Y500750D02*Y499250D01*
Y500750D02*X215100Y501500D01*
X216600D01*
X217350Y500750D01*
Y499250D01*
X216600Y498500D02*X217350Y499250D01*
X219150Y500750D02*X219900Y501500D01*
X221400D01*
X222150Y500750D01*
Y496250D01*
X221400Y495500D02*X222150Y496250D01*
X219900Y495500D02*X221400D01*
X219150Y496250D02*X219900Y495500D01*
Y498500D02*X222150D01*
X226650Y501500D02*Y495500D01*
Y497750D02*X227400Y498500D01*
X228900D01*
X229650Y497750D01*
Y495500D01*
X231450Y497750D02*Y496250D01*
Y497750D02*X232200Y498500D01*
X233700D01*
X234450Y497750D01*
Y496250D01*
X233700Y495500D02*X234450Y496250D01*
X232200Y495500D02*X233700D01*
X231450Y496250D02*X232200Y495500D01*
X236250Y501500D02*Y496250D01*
X237000Y495500D01*
X239250D02*X241500D01*
X238500Y496250D02*X239250Y495500D01*
X238500Y497750D02*Y496250D01*
Y497750D02*X239250Y498500D01*
X240750D01*
X241500Y497750D01*
X238500Y497000D02*X241500D01*
Y497750D02*Y497000D01*
X244050Y495500D02*X246300D01*
X247050Y496250D01*
X246300Y497000D02*X247050Y496250D01*
X244050Y497000D02*X246300D01*
X243300Y497750D02*X244050Y497000D01*
X243300Y497750D02*X244050Y498500D01*
X246300D01*
X247050Y497750D01*
X243300Y496250D02*X244050Y495500D01*
X252300Y501500D02*Y496250D01*
X253050Y495500D01*
X251550Y499250D02*X253050D01*
X254550Y497750D02*Y496250D01*
Y497750D02*X255300Y498500D01*
X256800D01*
X257550Y497750D01*
Y496250D01*
X256800Y495500D02*X257550Y496250D01*
X255300Y495500D02*X256800D01*
X254550Y496250D02*X255300Y495500D01*
X260100Y501500D02*Y496250D01*
X260850Y495500D01*
X259350Y499250D02*X260850D01*
X264600Y498500D02*X265350Y497750D01*
X263100Y498500D02*X264600D01*
X262350Y497750D02*X263100Y498500D01*
X262350Y497750D02*Y496250D01*
X263100Y495500D01*
X265350Y498500D02*Y496250D01*
X266100Y495500D01*
X263100D02*X264600D01*
X265350Y496250D01*
X267900Y501500D02*Y496250D01*
X268650Y495500D01*
G54D83*X0Y383000D02*X508500D01*
X0D02*Y0D01*
X508500Y383000D02*Y0D01*
X0D02*X508500D01*
G54D82*X200000Y396500D02*Y390500D01*
Y396500D02*X202250Y394250D01*
X204500Y396500D01*
Y390500D01*
X208550Y393500D02*X209300Y392750D01*
X207050Y393500D02*X208550D01*
X206300Y392750D02*X207050Y393500D01*
X206300Y392750D02*Y391250D01*
X207050Y390500D01*
X209300Y393500D02*Y391250D01*
X210050Y390500D01*
X207050D02*X208550D01*
X209300Y391250D01*
X211850Y393500D02*X214850Y390500D01*
X211850D02*X214850Y393500D01*
X216650Y395000D02*Y394250D01*
Y392750D02*Y390500D01*
X218900Y392750D02*Y390500D01*
Y392750D02*X219650Y393500D01*
X220400D01*
X221150Y392750D01*
Y390500D01*
Y392750D02*X221900Y393500D01*
X222650D01*
X223400Y392750D01*
Y390500D01*
X218150Y393500D02*X218900Y392750D01*
X225200Y393500D02*Y391250D01*
X225950Y390500D01*
X227450D01*
X228200Y391250D01*
Y393500D02*Y391250D01*
X230750Y392750D02*Y390500D01*
Y392750D02*X231500Y393500D01*
X232250D01*
X233000Y392750D01*
Y390500D01*
Y392750D02*X233750Y393500D01*
X234500D01*
X235250Y392750D01*
Y390500D01*
X230000Y393500D02*X230750Y392750D01*
X240500Y396500D02*Y390500D01*
X242750Y396500D02*X243500Y395750D01*
Y391250D01*
X242750Y390500D02*X243500Y391250D01*
X239750Y390500D02*X242750D01*
X239750Y396500D02*X242750D01*
X245300Y395000D02*Y394250D01*
Y392750D02*Y390500D01*
X247550Y392750D02*Y390500D01*
Y392750D02*X248300Y393500D01*
X249050D01*
X249800Y392750D01*
Y390500D01*
Y392750D02*X250550Y393500D01*
X251300D01*
X252050Y392750D01*
Y390500D01*
X246800Y393500D02*X247550Y392750D01*
X254600Y390500D02*X256850D01*
X253850Y391250D02*X254600Y390500D01*
X253850Y392750D02*Y391250D01*
Y392750D02*X254600Y393500D01*
X256100D01*
X256850Y392750D01*
X253850Y392000D02*X256850D01*
Y392750D02*Y392000D01*
X259400Y392750D02*Y390500D01*
Y392750D02*X260150Y393500D01*
X260900D01*
X261650Y392750D01*
Y390500D01*
X258650Y393500D02*X259400Y392750D01*
X264200Y390500D02*X266450D01*
X267200Y391250D01*
X266450Y392000D02*X267200Y391250D01*
X264200Y392000D02*X266450D01*
X263450Y392750D02*X264200Y392000D01*
X263450Y392750D02*X264200Y393500D01*
X266450D01*
X267200Y392750D01*
X263450Y391250D02*X264200Y390500D01*
X269000Y395000D02*Y394250D01*
Y392750D02*Y390500D01*
X270500Y392750D02*Y391250D01*
Y392750D02*X271250Y393500D01*
X272750D01*
X273500Y392750D01*
Y391250D01*
X272750Y390500D02*X273500Y391250D01*
X271250Y390500D02*X272750D01*
X270500Y391250D02*X271250Y390500D01*
X276050Y392750D02*Y390500D01*
Y392750D02*X276800Y393500D01*
X277550D01*
X278300Y392750D01*
Y390500D01*
X275300Y393500D02*X276050Y392750D01*
X280850Y390500D02*X283100D01*
X283850Y391250D01*
X283100Y392000D02*X283850Y391250D01*
X280850Y392000D02*X283100D01*
X280100Y392750D02*X280850Y392000D01*
X280100Y392750D02*X280850Y393500D01*
X283100D01*
X283850Y392750D01*
X280100Y391250D02*X280850Y390500D01*
X285650Y394250D02*X286400D01*
X285650Y392750D02*X286400D01*
X290900Y396500D02*X293900D01*
X290900D02*Y393500D01*
X291650Y394250D01*
X293150D01*
X293900Y393500D01*
Y391250D01*
X293150Y390500D02*X293900Y391250D01*
X291650Y390500D02*X293150D01*
X290900Y391250D02*X291650Y390500D01*
X295700Y391250D02*X296450Y390500D01*
X295700Y395750D02*Y391250D01*
Y395750D02*X296450Y396500D01*
X297950D01*
X298700Y395750D01*
Y391250D01*
X297950Y390500D02*X298700Y391250D01*
X296450Y390500D02*X297950D01*
X295700Y392000D02*X298700Y395000D01*
X300500Y391250D02*X301250Y390500D01*
X300500Y392750D02*Y391250D01*
Y392750D02*X301250Y393500D01*
X302750D01*
X303500Y392750D01*
Y391250D01*
X302750Y390500D02*X303500Y391250D01*
X301250Y390500D02*X302750D01*
X300500Y394250D02*X301250Y393500D01*
X300500Y395750D02*Y394250D01*
Y395750D02*X301250Y396500D01*
X302750D01*
X303500Y395750D01*
Y394250D01*
X302750Y393500D02*X303500Y394250D01*
X305300Y396500D02*X308300D01*
X305300D02*Y393500D01*
X306050Y394250D01*
X307550D01*
X308300Y393500D01*
Y391250D01*
X307550Y390500D02*X308300Y391250D01*
X306050Y390500D02*X307550D01*
X305300Y391250D02*X306050Y390500D01*
X310100D02*X310850D01*
X312650Y391250D02*X313400Y390500D01*
X312650Y395750D02*Y391250D01*
Y395750D02*X313400Y396500D01*
X314900D01*
X315650Y395750D01*
Y391250D01*
X314900Y390500D02*X315650Y391250D01*
X313400Y390500D02*X314900D01*
X312650Y392000D02*X315650Y395000D01*
X317450Y391250D02*X318200Y390500D01*
X317450Y395750D02*Y391250D01*
Y395750D02*X318200Y396500D01*
X319700D01*
X320450Y395750D01*
Y391250D01*
X319700Y390500D02*X320450Y391250D01*
X318200Y390500D02*X319700D01*
X317450Y392000D02*X320450Y395000D01*
X322250Y391250D02*X323000Y390500D01*
X322250Y395750D02*Y391250D01*
Y395750D02*X323000Y396500D01*
X324500D01*
X325250Y395750D01*
Y391250D01*
X324500Y390500D02*X325250Y391250D01*
X323000Y390500D02*X324500D01*
X322250Y392000D02*X325250Y395000D01*
X327050Y391250D02*X327800Y390500D01*
X327050Y395750D02*Y391250D01*
Y395750D02*X327800Y396500D01*
X329300D01*
X330050Y395750D01*
Y391250D01*
X329300Y390500D02*X330050Y391250D01*
X327800Y390500D02*X329300D01*
X327050Y392000D02*X330050Y395000D01*
X331850Y391250D02*X332600Y390500D01*
X331850Y395750D02*Y391250D01*
Y395750D02*X332600Y396500D01*
X334100D01*
X334850Y395750D01*
Y391250D01*
X334100Y390500D02*X334850Y391250D01*
X332600Y390500D02*X334100D01*
X331850Y392000D02*X334850Y395000D01*
X336650Y391250D02*X337400Y390500D01*
X336650Y395750D02*Y391250D01*
Y395750D02*X337400Y396500D01*
X338900D01*
X339650Y395750D01*
Y391250D01*
X338900Y390500D02*X339650Y391250D01*
X337400Y390500D02*X338900D01*
X336650Y392000D02*X339650Y395000D01*
X344900Y392750D02*Y390500D01*
Y392750D02*X345650Y393500D01*
X346400D01*
X347150Y392750D01*
Y390500D01*
Y392750D02*X347900Y393500D01*
X348650D01*
X349400Y392750D01*
Y390500D01*
X344150Y393500D02*X344900Y392750D01*
X351200Y395000D02*Y394250D01*
Y392750D02*Y390500D01*
X352700Y396500D02*Y391250D01*
X353450Y390500D01*
X355700D02*X357950D01*
X358700Y391250D01*
X357950Y392000D02*X358700Y391250D01*
X355700Y392000D02*X357950D01*
X354950Y392750D02*X355700Y392000D01*
X354950Y392750D02*X355700Y393500D01*
X357950D01*
X358700Y392750D01*
X354950Y391250D02*X355700Y390500D01*
X363200Y393500D02*Y391250D01*
X363950Y390500D01*
X364700D01*
X365450Y391250D01*
Y393500D02*Y391250D01*
X366200Y390500D01*
X366950D01*
X367700Y391250D01*
Y393500D02*Y391250D01*
X369500Y395000D02*Y394250D01*
Y392750D02*Y390500D01*
X374000Y396500D02*Y390500D01*
X373250D02*X374000Y391250D01*
X371750Y390500D02*X373250D01*
X371000Y391250D02*X371750Y390500D01*
X371000Y392750D02*Y391250D01*
Y392750D02*X371750Y393500D01*
X373250D01*
X374000Y392750D01*
X376550Y390500D02*X378800D01*
X375800Y391250D02*X376550Y390500D01*
X375800Y392750D02*Y391250D01*
Y392750D02*X376550Y393500D01*
X378050D01*
X378800Y392750D01*
X375800Y392000D02*X378800D01*
Y392750D02*Y392000D01*
X380600Y389000D02*X382100Y390500D01*
X386600Y395750D02*X387350Y396500D01*
X388850D01*
X389600Y395750D01*
Y391250D01*
X388850Y390500D02*X389600Y391250D01*
X387350Y390500D02*X388850D01*
X386600Y391250D02*X387350Y390500D01*
Y393500D02*X389600D01*
X391400Y391250D02*X392150Y390500D01*
X391400Y392750D02*Y391250D01*
Y392750D02*X392150Y393500D01*
X393650D01*
X394400Y392750D01*
Y391250D01*
X393650Y390500D02*X394400Y391250D01*
X392150Y390500D02*X393650D01*
X391400Y394250D02*X392150Y393500D01*
X391400Y395750D02*Y394250D01*
Y395750D02*X392150Y396500D01*
X393650D01*
X394400Y395750D01*
Y394250D01*
X393650Y393500D02*X394400Y394250D01*
X396200Y395750D02*X396950Y396500D01*
X398450D01*
X399200Y395750D01*
Y391250D01*
X398450Y390500D02*X399200Y391250D01*
X396950Y390500D02*X398450D01*
X396200Y391250D02*X396950Y390500D01*
Y393500D02*X399200D01*
X401000Y391250D02*X401750Y390500D01*
X401000Y395750D02*Y391250D01*
Y395750D02*X401750Y396500D01*
X403250D01*
X404000Y395750D01*
Y391250D01*
X403250Y390500D02*X404000Y391250D01*
X401750Y390500D02*X403250D01*
X401000Y392000D02*X404000Y395000D01*
X405800Y390500D02*X406550D01*
X408350Y391250D02*X409100Y390500D01*
X408350Y395750D02*Y391250D01*
Y395750D02*X409100Y396500D01*
X410600D01*
X411350Y395750D01*
Y391250D01*
X410600Y390500D02*X411350Y391250D01*
X409100Y390500D02*X410600D01*
X408350Y392000D02*X411350Y395000D01*
X413150Y391250D02*X413900Y390500D01*
X413150Y395750D02*Y391250D01*
Y395750D02*X413900Y396500D01*
X415400D01*
X416150Y395750D01*
Y391250D01*
X415400Y390500D02*X416150Y391250D01*
X413900Y390500D02*X415400D01*
X413150Y392000D02*X416150Y395000D01*
X417950Y391250D02*X418700Y390500D01*
X417950Y395750D02*Y391250D01*
Y395750D02*X418700Y396500D01*
X420200D01*
X420950Y395750D01*
Y391250D01*
X420200Y390500D02*X420950Y391250D01*
X418700Y390500D02*X420200D01*
X417950Y392000D02*X420950Y395000D01*
X422750Y391250D02*X423500Y390500D01*
X422750Y395750D02*Y391250D01*
Y395750D02*X423500Y396500D01*
X425000D01*
X425750Y395750D01*
Y391250D01*
X425000Y390500D02*X425750Y391250D01*
X423500Y390500D02*X425000D01*
X422750Y392000D02*X425750Y395000D01*
X427550Y391250D02*X428300Y390500D01*
X427550Y395750D02*Y391250D01*
Y395750D02*X428300Y396500D01*
X429800D01*
X430550Y395750D01*
Y391250D01*
X429800Y390500D02*X430550Y391250D01*
X428300Y390500D02*X429800D01*
X427550Y392000D02*X430550Y395000D01*
X432350Y391250D02*X433100Y390500D01*
X432350Y395750D02*Y391250D01*
Y395750D02*X433100Y396500D01*
X434600D01*
X435350Y395750D01*
Y391250D01*
X434600Y390500D02*X435350Y391250D01*
X433100Y390500D02*X434600D01*
X432350Y392000D02*X435350Y395000D01*
X440600Y392750D02*Y390500D01*
Y392750D02*X441350Y393500D01*
X442100D01*
X442850Y392750D01*
Y390500D01*
Y392750D02*X443600Y393500D01*
X444350D01*
X445100Y392750D01*
Y390500D01*
X439850Y393500D02*X440600Y392750D01*
X446900Y395000D02*Y394250D01*
Y392750D02*Y390500D01*
X448400Y396500D02*Y391250D01*
X449150Y390500D01*
X451400D02*X453650D01*
X454400Y391250D01*
X453650Y392000D02*X454400Y391250D01*
X451400Y392000D02*X453650D01*
X450650Y392750D02*X451400Y392000D01*
X450650Y392750D02*X451400Y393500D01*
X453650D01*
X454400Y392750D01*
X450650Y391250D02*X451400Y390500D01*
X458900Y396500D02*Y390500D01*
Y392750D02*X459650Y393500D01*
X461150D01*
X461900Y392750D01*
Y390500D01*
X463700Y395000D02*Y394250D01*
Y392750D02*Y390500D01*
X467450Y393500D02*X468200Y392750D01*
X465950Y393500D02*X467450D01*
X465200Y392750D02*X465950Y393500D01*
X465200Y392750D02*Y391250D01*
X465950Y390500D01*
X467450D01*
X468200Y391250D01*
X465200Y389000D02*X465950Y388250D01*
X467450D01*
X468200Y389000D01*
Y393500D02*Y389000D01*
X470000Y396500D02*Y390500D01*
Y392750D02*X470750Y393500D01*
X472250D01*
X473000Y392750D01*
Y390500D01*
X51525Y-9500D02*X54525D01*
X55275Y-8750D01*
Y-7250D02*Y-8750D01*
X54525Y-6500D02*X55275Y-7250D01*
X52275Y-6500D02*X54525D01*
X52275Y-3500D02*Y-9500D01*
X51525Y-3500D02*X54525D01*
X55275Y-4250D01*
Y-5750D01*
X54525Y-6500D02*X55275Y-5750D01*
X57075Y-7250D02*Y-8750D01*
Y-7250D02*X57825Y-6500D01*
X59325D01*
X60075Y-7250D01*
Y-8750D01*
X59325Y-9500D02*X60075Y-8750D01*
X57825Y-9500D02*X59325D01*
X57075Y-8750D02*X57825Y-9500D01*
X64125Y-6500D02*X64875Y-7250D01*
X62625Y-6500D02*X64125D01*
X61875Y-7250D02*X62625Y-6500D01*
X61875Y-7250D02*Y-8750D01*
X62625Y-9500D01*
X64875Y-6500D02*Y-8750D01*
X65625Y-9500D01*
X62625D02*X64125D01*
X64875Y-8750D01*
X68175Y-7250D02*Y-9500D01*
Y-7250D02*X68925Y-6500D01*
X70425D01*
X67425D02*X68175Y-7250D01*
X75225Y-3500D02*Y-9500D01*
X74475D02*X75225Y-8750D01*
X72975Y-9500D02*X74475D01*
X72225Y-8750D02*X72975Y-9500D01*
X72225Y-7250D02*Y-8750D01*
Y-7250D02*X72975Y-6500D01*
X74475D01*
X75225Y-7250D01*
X79725D02*Y-8750D01*
Y-7250D02*X80475Y-6500D01*
X81975D01*
X82725Y-7250D01*
Y-8750D01*
X81975Y-9500D02*X82725Y-8750D01*
X80475Y-9500D02*X81975D01*
X79725Y-8750D02*X80475Y-9500D01*
X84525Y-6500D02*Y-8750D01*
X85275Y-9500D01*
X86775D01*
X87525Y-8750D01*
Y-6500D02*Y-8750D01*
X90075Y-3500D02*Y-8750D01*
X90825Y-9500D01*
X89325Y-5750D02*X90825D01*
X92325Y-3500D02*Y-8750D01*
X93075Y-9500D01*
X94575Y-5000D02*Y-5750D01*
Y-7250D02*Y-9500D01*
X96825Y-7250D02*Y-9500D01*
Y-7250D02*X97575Y-6500D01*
X98325D01*
X99075Y-7250D01*
Y-9500D01*
X96075Y-6500D02*X96825Y-7250D01*
X101625Y-9500D02*X103875D01*
X100875Y-8750D02*X101625Y-9500D01*
X100875Y-7250D02*Y-8750D01*
Y-7250D02*X101625Y-6500D01*
X103125D01*
X103875Y-7250D01*
X100875Y-8000D02*X103875D01*
Y-7250D02*Y-8000D01*
X108375Y-5000D02*Y-5750D01*
Y-7250D02*Y-9500D01*
X110625D02*X112875D01*
X113625Y-8750D01*
X112875Y-8000D02*X113625Y-8750D01*
X110625Y-8000D02*X112875D01*
X109875Y-7250D02*X110625Y-8000D01*
X109875Y-7250D02*X110625Y-6500D01*
X112875D01*
X113625Y-7250D01*
X109875Y-8750D02*X110625Y-9500D01*
X118875Y-3500D02*Y-8750D01*
X119625Y-9500D01*
X118125Y-5750D02*X119625D01*
X121125Y-3500D02*Y-9500D01*
Y-7250D02*X121875Y-6500D01*
X123375D01*
X124125Y-7250D01*
Y-9500D01*
X126675D02*X128925D01*
X125925Y-8750D02*X126675Y-9500D01*
X125925Y-7250D02*Y-8750D01*
Y-7250D02*X126675Y-6500D01*
X128175D01*
X128925Y-7250D01*
X125925Y-8000D02*X128925D01*
Y-7250D02*Y-8000D01*
X134175Y-6500D02*X136425D01*
X133425Y-7250D02*X134175Y-6500D01*
X133425Y-7250D02*Y-8750D01*
X134175Y-9500D01*
X136425D01*
X138975D02*X141225D01*
X138225Y-8750D02*X138975Y-9500D01*
X138225Y-7250D02*Y-8750D01*
Y-7250D02*X138975Y-6500D01*
X140475D01*
X141225Y-7250D01*
X138225Y-8000D02*X141225D01*
Y-7250D02*Y-8000D01*
X143775Y-7250D02*Y-9500D01*
Y-7250D02*X144525Y-6500D01*
X145275D01*
X146025Y-7250D01*
Y-9500D01*
X143025Y-6500D02*X143775Y-7250D01*
X148575Y-3500D02*Y-8750D01*
X149325Y-9500D01*
X147825Y-5750D02*X149325D01*
X151575Y-9500D02*X153825D01*
X150825Y-8750D02*X151575Y-9500D01*
X150825Y-7250D02*Y-8750D01*
Y-7250D02*X151575Y-6500D01*
X153075D01*
X153825Y-7250D01*
X150825Y-8000D02*X153825D01*
Y-7250D02*Y-8000D01*
X156375Y-7250D02*Y-9500D01*
Y-7250D02*X157125Y-6500D01*
X158625D01*
X155625D02*X156375Y-7250D01*
X160425Y-3500D02*Y-8750D01*
X161175Y-9500D01*
X162675Y-5000D02*Y-5750D01*
Y-7250D02*Y-9500D01*
X164925Y-7250D02*Y-9500D01*
Y-7250D02*X165675Y-6500D01*
X166425D01*
X167175Y-7250D01*
Y-9500D01*
X164175Y-6500D02*X164925Y-7250D01*
X169725Y-9500D02*X171975D01*
X168975Y-8750D02*X169725Y-9500D01*
X168975Y-7250D02*Y-8750D01*
Y-7250D02*X169725Y-6500D01*
X171225D01*
X171975Y-7250D01*
X168975Y-8000D02*X171975D01*
Y-7250D02*Y-8000D01*
X176475Y-7250D02*Y-8750D01*
Y-7250D02*X177225Y-6500D01*
X178725D01*
X179475Y-7250D01*
Y-8750D01*
X178725Y-9500D02*X179475Y-8750D01*
X177225Y-9500D02*X178725D01*
X176475Y-8750D02*X177225Y-9500D01*
X182025Y-4250D02*Y-9500D01*
Y-4250D02*X182775Y-3500D01*
X183525D01*
X181275Y-6500D02*X182775D01*
X188475Y-3500D02*Y-8750D01*
X189225Y-9500D01*
X187725Y-5750D02*X189225D01*
X190725Y-3500D02*Y-9500D01*
Y-7250D02*X191475Y-6500D01*
X192975D01*
X193725Y-7250D01*
Y-9500D01*
X195525Y-5000D02*Y-5750D01*
Y-7250D02*Y-9500D01*
X197775D02*X200025D01*
X200775Y-8750D01*
X200025Y-8000D02*X200775Y-8750D01*
X197775Y-8000D02*X200025D01*
X197025Y-7250D02*X197775Y-8000D01*
X197025Y-7250D02*X197775Y-6500D01*
X200025D01*
X200775Y-7250D01*
X197025Y-8750D02*X197775Y-9500D01*
X205275Y-8750D02*X206025Y-9500D01*
X205275Y-7250D02*Y-8750D01*
Y-7250D02*X206025Y-6500D01*
X207525D01*
X208275Y-7250D01*
Y-8750D01*
X207525Y-9500D02*X208275Y-8750D01*
X206025Y-9500D02*X207525D01*
X205275Y-5750D02*X206025Y-6500D01*
X205275Y-4250D02*Y-5750D01*
Y-4250D02*X206025Y-3500D01*
X207525D01*
X208275Y-4250D01*
Y-5750D01*
X207525Y-6500D02*X208275Y-5750D01*
X210075Y-9500D02*X210825D01*
X212625Y-8750D02*X213375Y-9500D01*
X212625Y-4250D02*Y-8750D01*
Y-4250D02*X213375Y-3500D01*
X214875D01*
X215625Y-4250D01*
Y-8750D01*
X214875Y-9500D02*X215625Y-8750D01*
X213375Y-9500D02*X214875D01*
X212625Y-8000D02*X215625Y-5000D01*
X217425Y-8750D02*X218175Y-9500D01*
X217425Y-4250D02*Y-8750D01*
Y-4250D02*X218175Y-3500D01*
X219675D01*
X220425Y-4250D01*
Y-8750D01*
X219675Y-9500D02*X220425Y-8750D01*
X218175Y-9500D02*X219675D01*
X217425Y-8000D02*X220425Y-5000D01*
X222225Y-8750D02*X222975Y-9500D01*
X222225Y-4250D02*Y-8750D01*
Y-4250D02*X222975Y-3500D01*
X224475D01*
X225225Y-4250D01*
Y-8750D01*
X224475Y-9500D02*X225225Y-8750D01*
X222975Y-9500D02*X224475D01*
X222225Y-8000D02*X225225Y-5000D01*
X227025Y-8750D02*X227775Y-9500D01*
X227025Y-4250D02*Y-8750D01*
Y-4250D02*X227775Y-3500D01*
X229275D01*
X230025Y-4250D01*
Y-8750D01*
X229275Y-9500D02*X230025Y-8750D01*
X227775Y-9500D02*X229275D01*
X227025Y-8000D02*X230025Y-5000D01*
X231825Y-8750D02*X232575Y-9500D01*
X231825Y-4250D02*Y-8750D01*
Y-4250D02*X232575Y-3500D01*
X234075D01*
X234825Y-4250D01*
Y-8750D01*
X234075Y-9500D02*X234825Y-8750D01*
X232575Y-9500D02*X234075D01*
X231825Y-8000D02*X234825Y-5000D01*
X236625Y-8750D02*X237375Y-9500D01*
X236625Y-4250D02*Y-8750D01*
Y-4250D02*X237375Y-3500D01*
X238875D01*
X239625Y-4250D01*
Y-8750D01*
X238875Y-9500D02*X239625Y-8750D01*
X237375Y-9500D02*X238875D01*
X236625Y-8000D02*X239625Y-5000D01*
X244875Y-7250D02*Y-9500D01*
Y-7250D02*X245625Y-6500D01*
X246375D01*
X247125Y-7250D01*
Y-9500D01*
Y-7250D02*X247875Y-6500D01*
X248625D01*
X249375Y-7250D01*
Y-9500D01*
X244125Y-6500D02*X244875Y-7250D01*
X251175Y-5000D02*Y-5750D01*
Y-7250D02*Y-9500D01*
X252675Y-3500D02*Y-8750D01*
X253425Y-9500D01*
X258375Y-7250D02*Y-9500D01*
Y-7250D02*X259125Y-6500D01*
X260625D01*
X257625D02*X258375Y-7250D01*
X263175Y-9500D02*X265425D01*
X262425Y-8750D02*X263175Y-9500D01*
X262425Y-7250D02*Y-8750D01*
Y-7250D02*X263175Y-6500D01*
X264675D01*
X265425Y-7250D01*
X262425Y-8000D02*X265425D01*
Y-7250D02*Y-8000D01*
X267975Y-6500D02*X270225D01*
X267225Y-7250D02*X267975Y-6500D01*
X267225Y-7250D02*Y-8750D01*
X267975Y-9500D01*
X270225D01*
X272775Y-3500D02*Y-8750D01*
X273525Y-9500D01*
X272025Y-5750D02*X273525D01*
X277275Y-6500D02*X278025Y-7250D01*
X275775Y-6500D02*X277275D01*
X275025Y-7250D02*X275775Y-6500D01*
X275025Y-7250D02*Y-8750D01*
X275775Y-9500D01*
X278025Y-6500D02*Y-8750D01*
X278775Y-9500D01*
X275775D02*X277275D01*
X278025Y-8750D01*
X281325Y-7250D02*Y-9500D01*
Y-7250D02*X282075Y-6500D01*
X282825D01*
X283575Y-7250D01*
Y-9500D01*
X280575Y-6500D02*X281325Y-7250D01*
X287625Y-6500D02*X288375Y-7250D01*
X286125Y-6500D02*X287625D01*
X285375Y-7250D02*X286125Y-6500D01*
X285375Y-7250D02*Y-8750D01*
X286125Y-9500D01*
X287625D01*
X288375Y-8750D01*
X285375Y-11000D02*X286125Y-11750D01*
X287625D01*
X288375Y-11000D01*
Y-6500D02*Y-11000D01*
X290175Y-3500D02*Y-8750D01*
X290925Y-9500D01*
X293175D02*X295425D01*
X292425Y-8750D02*X293175Y-9500D01*
X292425Y-7250D02*Y-8750D01*
Y-7250D02*X293175Y-6500D01*
X294675D01*
X295425Y-7250D01*
X292425Y-8000D02*X295425D01*
Y-7250D02*Y-8000D01*
X299925Y-6500D02*X302925D01*
X307425Y-8750D02*X308175Y-9500D01*
X307425Y-4250D02*Y-8750D01*
Y-4250D02*X308175Y-3500D01*
X309675D01*
X310425Y-4250D01*
Y-8750D01*
X309675Y-9500D02*X310425Y-8750D01*
X308175Y-9500D02*X309675D01*
X307425Y-8000D02*X310425Y-5000D01*
X312225Y-11000D02*X313725Y-9500D01*
X315525Y-8750D02*X316275Y-9500D01*
X315525Y-4250D02*Y-8750D01*
Y-4250D02*X316275Y-3500D01*
X317775D01*
X318525Y-4250D01*
Y-8750D01*
X317775Y-9500D02*X318525Y-8750D01*
X316275Y-9500D02*X317775D01*
X315525Y-8000D02*X318525Y-5000D01*
X323775Y-3500D02*Y-8750D01*
X324525Y-9500D01*
X323025Y-5750D02*X324525D01*
X326025Y-7250D02*Y-8750D01*
Y-7250D02*X326775Y-6500D01*
X328275D01*
X329025Y-7250D01*
Y-8750D01*
X328275Y-9500D02*X329025Y-8750D01*
X326775Y-9500D02*X328275D01*
X326025Y-8750D02*X326775Y-9500D01*
X333525Y-3500D02*X336525D01*
X333525D02*Y-6500D01*
X334275Y-5750D01*
X335775D01*
X336525Y-6500D01*
Y-8750D01*
X335775Y-9500D02*X336525Y-8750D01*
X334275Y-9500D02*X335775D01*
X333525Y-8750D02*X334275Y-9500D01*
X338325Y-8750D02*X339075Y-9500D01*
X338325Y-4250D02*Y-8750D01*
Y-4250D02*X339075Y-3500D01*
X340575D01*
X341325Y-4250D01*
Y-8750D01*
X340575Y-9500D02*X341325Y-8750D01*
X339075Y-9500D02*X340575D01*
X338325Y-8000D02*X341325Y-5000D01*
X343125Y-8750D02*X343875Y-9500D01*
X343125Y-7250D02*Y-8750D01*
Y-7250D02*X343875Y-6500D01*
X345375D01*
X346125Y-7250D01*
Y-8750D01*
X345375Y-9500D02*X346125Y-8750D01*
X343875Y-9500D02*X345375D01*
X343125Y-5750D02*X343875Y-6500D01*
X343125Y-4250D02*Y-5750D01*
Y-4250D02*X343875Y-3500D01*
X345375D01*
X346125Y-4250D01*
Y-5750D01*
X345375Y-6500D02*X346125Y-5750D01*
X347925Y-3500D02*X350925D01*
X347925D02*Y-6500D01*
X348675Y-5750D01*
X350175D01*
X350925Y-6500D01*
Y-8750D01*
X350175Y-9500D02*X350925Y-8750D01*
X348675Y-9500D02*X350175D01*
X347925Y-8750D02*X348675Y-9500D01*
X352725D02*X353475D01*
X355275Y-8750D02*X356025Y-9500D01*
X355275Y-4250D02*Y-8750D01*
Y-4250D02*X356025Y-3500D01*
X357525D01*
X358275Y-4250D01*
Y-8750D01*
X357525Y-9500D02*X358275Y-8750D01*
X356025Y-9500D02*X357525D01*
X355275Y-8000D02*X358275Y-5000D01*
X360075Y-8750D02*X360825Y-9500D01*
X360075Y-4250D02*Y-8750D01*
Y-4250D02*X360825Y-3500D01*
X362325D01*
X363075Y-4250D01*
Y-8750D01*
X362325Y-9500D02*X363075Y-8750D01*
X360825Y-9500D02*X362325D01*
X360075Y-8000D02*X363075Y-5000D01*
X364875Y-8750D02*X365625Y-9500D01*
X364875Y-4250D02*Y-8750D01*
Y-4250D02*X365625Y-3500D01*
X367125D01*
X367875Y-4250D01*
Y-8750D01*
X367125Y-9500D02*X367875Y-8750D01*
X365625Y-9500D02*X367125D01*
X364875Y-8000D02*X367875Y-5000D01*
X369675Y-8750D02*X370425Y-9500D01*
X369675Y-4250D02*Y-8750D01*
Y-4250D02*X370425Y-3500D01*
X371925D01*
X372675Y-4250D01*
Y-8750D01*
X371925Y-9500D02*X372675Y-8750D01*
X370425Y-9500D02*X371925D01*
X369675Y-8000D02*X372675Y-5000D01*
X374475Y-8750D02*X375225Y-9500D01*
X374475Y-4250D02*Y-8750D01*
Y-4250D02*X375225Y-3500D01*
X376725D01*
X377475Y-4250D01*
Y-8750D01*
X376725Y-9500D02*X377475Y-8750D01*
X375225Y-9500D02*X376725D01*
X374475Y-8000D02*X377475Y-5000D01*
X379275Y-8750D02*X380025Y-9500D01*
X379275Y-4250D02*Y-8750D01*
Y-4250D02*X380025Y-3500D01*
X381525D01*
X382275Y-4250D01*
Y-8750D01*
X381525Y-9500D02*X382275Y-8750D01*
X380025Y-9500D02*X381525D01*
X379275Y-8000D02*X382275Y-5000D01*
X384075Y-11000D02*X385575Y-9500D01*
X387375Y-4250D02*X388125Y-3500D01*
X389625D01*
X390375Y-4250D01*
Y-8750D01*
X389625Y-9500D02*X390375Y-8750D01*
X388125Y-9500D02*X389625D01*
X387375Y-8750D02*X388125Y-9500D01*
Y-6500D02*X390375D01*
X392175Y-8750D02*X392925Y-9500D01*
X392175Y-7250D02*Y-8750D01*
Y-7250D02*X392925Y-6500D01*
X394425D01*
X395175Y-7250D01*
Y-8750D01*
X394425Y-9500D02*X395175Y-8750D01*
X392925Y-9500D02*X394425D01*
X392175Y-5750D02*X392925Y-6500D01*
X392175Y-4250D02*Y-5750D01*
Y-4250D02*X392925Y-3500D01*
X394425D01*
X395175Y-4250D01*
Y-5750D01*
X394425Y-6500D02*X395175Y-5750D01*
X396975Y-4250D02*X397725Y-3500D01*
X399225D01*
X399975Y-4250D01*
Y-8750D01*
X399225Y-9500D02*X399975Y-8750D01*
X397725Y-9500D02*X399225D01*
X396975Y-8750D02*X397725Y-9500D01*
Y-6500D02*X399975D01*
X401775Y-8750D02*X402525Y-9500D01*
X401775Y-4250D02*Y-8750D01*
Y-4250D02*X402525Y-3500D01*
X404025D01*
X404775Y-4250D01*
Y-8750D01*
X404025Y-9500D02*X404775Y-8750D01*
X402525Y-9500D02*X404025D01*
X401775Y-8000D02*X404775Y-5000D01*
X406575Y-9500D02*X407325D01*
X409125Y-8750D02*X409875Y-9500D01*
X409125Y-4250D02*Y-8750D01*
Y-4250D02*X409875Y-3500D01*
X411375D01*
X412125Y-4250D01*
Y-8750D01*
X411375Y-9500D02*X412125Y-8750D01*
X409875Y-9500D02*X411375D01*
X409125Y-8000D02*X412125Y-5000D01*
X413925Y-8750D02*X414675Y-9500D01*
X413925Y-4250D02*Y-8750D01*
Y-4250D02*X414675Y-3500D01*
X416175D01*
X416925Y-4250D01*
Y-8750D01*
X416175Y-9500D02*X416925Y-8750D01*
X414675Y-9500D02*X416175D01*
X413925Y-8000D02*X416925Y-5000D01*
X418725Y-8750D02*X419475Y-9500D01*
X418725Y-4250D02*Y-8750D01*
Y-4250D02*X419475Y-3500D01*
X420975D01*
X421725Y-4250D01*
Y-8750D01*
X420975Y-9500D02*X421725Y-8750D01*
X419475Y-9500D02*X420975D01*
X418725Y-8000D02*X421725Y-5000D01*
X423525Y-8750D02*X424275Y-9500D01*
X423525Y-4250D02*Y-8750D01*
Y-4250D02*X424275Y-3500D01*
X425775D01*
X426525Y-4250D01*
Y-8750D01*
X425775Y-9500D02*X426525Y-8750D01*
X424275Y-9500D02*X425775D01*
X423525Y-8000D02*X426525Y-5000D01*
X428325Y-8750D02*X429075Y-9500D01*
X428325Y-4250D02*Y-8750D01*
Y-4250D02*X429075Y-3500D01*
X430575D01*
X431325Y-4250D01*
Y-8750D01*
X430575Y-9500D02*X431325Y-8750D01*
X429075Y-9500D02*X430575D01*
X428325Y-8000D02*X431325Y-5000D01*
X433125Y-8750D02*X433875Y-9500D01*
X433125Y-4250D02*Y-8750D01*
Y-4250D02*X433875Y-3500D01*
X435375D01*
X436125Y-4250D01*
Y-8750D01*
X435375Y-9500D02*X436125Y-8750D01*
X433875Y-9500D02*X435375D01*
X433125Y-8000D02*X436125Y-5000D01*
X441375Y-7250D02*Y-9500D01*
Y-7250D02*X442125Y-6500D01*
X442875D01*
X443625Y-7250D01*
Y-9500D01*
Y-7250D02*X444375Y-6500D01*
X445125D01*
X445875Y-7250D01*
Y-9500D01*
X440625Y-6500D02*X441375Y-7250D01*
X447675Y-5000D02*Y-5750D01*
Y-7250D02*Y-9500D01*
X449175Y-3500D02*Y-8750D01*
X449925Y-9500D01*
X452175D02*X454425D01*
X455175Y-8750D01*
X454425Y-8000D02*X455175Y-8750D01*
X452175Y-8000D02*X454425D01*
X451425Y-7250D02*X452175Y-8000D01*
X451425Y-7250D02*X452175Y-6500D01*
X454425D01*
X455175Y-7250D01*
X451425Y-8750D02*X452175Y-9500D01*
X200750Y411500D02*Y405500D01*
X203000Y411500D02*X203750Y410750D01*
Y406250D01*
X203000Y405500D02*X203750Y406250D01*
X200000Y405500D02*X203000D01*
X200000Y411500D02*X203000D01*
X207800Y408500D02*X208550Y407750D01*
X206300Y408500D02*X207800D01*
X205550Y407750D02*X206300Y408500D01*
X205550Y407750D02*Y406250D01*
X206300Y405500D01*
X208550Y408500D02*Y406250D01*
X209300Y405500D01*
X206300D02*X207800D01*
X208550Y406250D01*
X211850Y411500D02*Y406250D01*
X212600Y405500D01*
X211100Y409250D02*X212600D01*
X214850Y405500D02*X217100D01*
X214100Y406250D02*X214850Y405500D01*
X214100Y407750D02*Y406250D01*
Y407750D02*X214850Y408500D01*
X216350D01*
X217100Y407750D01*
X214100Y407000D02*X217100D01*
Y407750D02*Y407000D01*
X218900Y409250D02*X219650D01*
X218900Y407750D02*X219650D01*
X224150Y411500D02*Y405500D01*
X226400Y407750D01*
X228650Y405500D01*
Y411500D02*Y405500D01*
X231200D02*X233450D01*
X230450Y406250D02*X231200Y405500D01*
X230450Y407750D02*Y406250D01*
Y407750D02*X231200Y408500D01*
X232700D01*
X233450Y407750D01*
X230450Y407000D02*X233450D01*
Y407750D02*Y407000D01*
X238250Y411500D02*Y405500D01*
X237500D02*X238250Y406250D01*
X236000Y405500D02*X237500D01*
X235250Y406250D02*X236000Y405500D01*
X235250Y407750D02*Y406250D01*
Y407750D02*X236000Y408500D01*
X237500D01*
X238250Y407750D01*
X242750Y411500D02*Y405500D01*
Y411500D02*X245000Y409250D01*
X247250Y411500D01*
Y405500D01*
X251300Y408500D02*X252050Y407750D01*
X249800Y408500D02*X251300D01*
X249050Y407750D02*X249800Y408500D01*
X249050Y407750D02*Y406250D01*
X249800Y405500D01*
X252050Y408500D02*Y406250D01*
X252800Y405500D01*
X249800D02*X251300D01*
X252050Y406250D01*
X255350Y407750D02*Y405500D01*
Y407750D02*X256100Y408500D01*
X257600D01*
X254600D02*X255350Y407750D01*
X267050Y411500D02*X267800Y410750D01*
X265550Y411500D02*X267050D01*
X264800Y410750D02*X265550Y411500D01*
X264800Y410750D02*Y406250D01*
X265550Y405500D01*
X267050Y408500D02*X267800Y407750D01*
X264800Y408500D02*X267050D01*
X265550Y405500D02*X267050D01*
X267800Y406250D01*
Y407750D02*Y406250D01*
X273050Y405500D02*X274550D01*
X273800Y411500D02*Y405500D01*
X272300Y410000D02*X273800Y411500D01*
X276350Y406250D02*X277100Y405500D01*
X276350Y407750D02*Y406250D01*
Y407750D02*X277100Y408500D01*
X278600D01*
X279350Y407750D01*
Y406250D01*
X278600Y405500D02*X279350Y406250D01*
X277100Y405500D02*X278600D01*
X276350Y409250D02*X277100Y408500D01*
X276350Y410750D02*Y409250D01*
Y410750D02*X277100Y411500D01*
X278600D01*
X279350Y410750D01*
Y409250D01*
X278600Y408500D02*X279350Y409250D01*
X281150D02*X281900D01*
X281150Y407750D02*X281900D01*
X283700Y410750D02*X284450Y411500D01*
X286700D01*
X287450Y410750D01*
Y409250D01*
X283700Y405500D02*X287450Y409250D01*
X283700Y405500D02*X287450D01*
X289250Y411500D02*X292250D01*
X289250D02*Y408500D01*
X290000Y409250D01*
X291500D01*
X292250Y408500D01*
Y406250D01*
X291500Y405500D02*X292250Y406250D01*
X290000Y405500D02*X291500D01*
X289250Y406250D02*X290000Y405500D01*
X294050Y409250D02*X294800D01*
X294050Y407750D02*X294800D01*
X297350Y405500D02*X298850D01*
X298100Y411500D02*Y405500D01*
X296600Y410000D02*X298100Y411500D01*
X300650Y410750D02*X301400Y411500D01*
X303650D01*
X304400Y410750D01*
Y409250D01*
X300650Y405500D02*X304400Y409250D01*
X300650Y405500D02*X304400D01*
X308900Y410750D02*X309650Y411500D01*
X311900D01*
X312650Y410750D01*
Y409250D01*
X308900Y405500D02*X312650Y409250D01*
X308900Y405500D02*X312650D01*
X314450Y406250D02*X315200Y405500D01*
X314450Y410750D02*Y406250D01*
Y410750D02*X315200Y411500D01*
X316700D01*
X317450Y410750D01*
Y406250D01*
X316700Y405500D02*X317450Y406250D01*
X315200Y405500D02*X316700D01*
X314450Y407000D02*X317450Y410000D01*
X320000Y405500D02*X321500D01*
X320750Y411500D02*Y405500D01*
X319250Y410000D02*X320750Y411500D01*
X323300Y410750D02*X324050Y411500D01*
X325550D01*
X326300Y410750D01*
Y406250D01*
X325550Y405500D02*X326300Y406250D01*
X324050Y405500D02*X325550D01*
X323300Y406250D02*X324050Y405500D01*
Y408500D02*X326300D01*
X330800Y411500D02*Y406250D01*
X331550Y405500D01*
X333050D01*
X333800Y406250D01*
Y411500D02*Y406250D01*
X335600Y411500D02*X338600D01*
X337100D02*Y405500D01*
X341150D02*X343400D01*
X340400Y406250D02*X341150Y405500D01*
X340400Y410750D02*Y406250D01*
Y410750D02*X341150Y411500D01*
X343400D01*
X200000Y425750D02*Y420500D01*
Y425750D02*X200750Y426500D01*
X203000D01*
X203750Y425750D01*
Y420500D01*
X200000Y423500D02*X203750D01*
X205550D02*Y421250D01*
X206300Y420500D01*
X207800D01*
X208550Y421250D01*
Y423500D02*Y421250D01*
X211100Y426500D02*Y421250D01*
X211850Y420500D01*
X210350Y424250D02*X211850D01*
X213350Y426500D02*Y420500D01*
Y422750D02*X214100Y423500D01*
X215600D01*
X216350Y422750D01*
Y420500D01*
X218150Y422750D02*Y421250D01*
Y422750D02*X218900Y423500D01*
X220400D01*
X221150Y422750D01*
Y421250D01*
X220400Y420500D02*X221150Y421250D01*
X218900Y420500D02*X220400D01*
X218150Y421250D02*X218900Y420500D01*
X223700Y422750D02*Y420500D01*
Y422750D02*X224450Y423500D01*
X225950D01*
X222950D02*X223700Y422750D01*
X227750Y424250D02*X228500D01*
X227750Y422750D02*X228500D01*
X200000Y441500D02*X203000D01*
X201500D02*Y435500D01*
X204800Y440000D02*Y439250D01*
Y437750D02*Y435500D01*
X207050Y441500D02*Y436250D01*
X207800Y435500D01*
X206300Y439250D02*X207800D01*
X209300Y441500D02*Y436250D01*
X210050Y435500D01*
X212300D02*X214550D01*
X211550Y436250D02*X212300Y435500D01*
X211550Y437750D02*Y436250D01*
Y437750D02*X212300Y438500D01*
X213800D01*
X214550Y437750D01*
X211550Y437000D02*X214550D01*
Y437750D02*Y437000D01*
X216350Y439250D02*X217100D01*
X216350Y437750D02*X217100D01*
X221600Y436250D02*X222350Y435500D01*
X221600Y440750D02*X222350Y441500D01*
X221600Y440750D02*Y436250D01*
X224150Y438500D02*Y436250D01*
X224900Y435500D01*
X226400D01*
X227150Y436250D01*
Y438500D02*Y436250D01*
X229700Y437750D02*Y435500D01*
Y437750D02*X230450Y438500D01*
X231200D01*
X231950Y437750D01*
Y435500D01*
X228950Y438500D02*X229700Y437750D01*
X233750Y441500D02*Y435500D01*
Y437750D02*X236000Y435500D01*
X233750Y437750D02*X235250Y439250D01*
X238550Y437750D02*Y435500D01*
Y437750D02*X239300Y438500D01*
X240050D01*
X240800Y437750D01*
Y435500D01*
X237800Y438500D02*X238550Y437750D01*
X242600D02*Y436250D01*
Y437750D02*X243350Y438500D01*
X244850D01*
X245600Y437750D01*
Y436250D01*
X244850Y435500D02*X245600Y436250D01*
X243350Y435500D02*X244850D01*
X242600Y436250D02*X243350Y435500D01*
X247400Y438500D02*Y436250D01*
X248150Y435500D01*
X248900D01*
X249650Y436250D01*
Y438500D02*Y436250D01*
X250400Y435500D01*
X251150D01*
X251900Y436250D01*
Y438500D02*Y436250D01*
X254450Y437750D02*Y435500D01*
Y437750D02*X255200Y438500D01*
X255950D01*
X256700Y437750D01*
Y435500D01*
X253700Y438500D02*X254450Y437750D01*
X258500Y441500D02*X259250Y440750D01*
Y436250D01*
X258500Y435500D02*X259250Y436250D01*
X263750Y438500D02*X266750D01*
X271250Y441500D02*Y435500D01*
Y441500D02*X274250D01*
X271250Y438500D02*X273500D01*
X278300D02*X279050Y437750D01*
X276800Y438500D02*X278300D01*
X276050Y437750D02*X276800Y438500D01*
X276050Y437750D02*Y436250D01*
X276800Y435500D01*
X279050Y438500D02*Y436250D01*
X279800Y435500D01*
X276800D02*X278300D01*
X279050Y436250D01*
X281600Y441500D02*Y435500D01*
Y436250D02*X282350Y435500D01*
X283850D01*
X284600Y436250D01*
Y437750D02*Y436250D01*
X283850Y438500D02*X284600Y437750D01*
X282350Y438500D02*X283850D01*
X281600Y437750D02*X282350Y438500D01*
X287150Y437750D02*Y435500D01*
Y437750D02*X287900Y438500D01*
X289400D01*
X286400D02*X287150Y437750D01*
X291200Y440000D02*Y439250D01*
Y437750D02*Y435500D01*
X293450Y438500D02*X295700D01*
X292700Y437750D02*X293450Y438500D01*
X292700Y437750D02*Y436250D01*
X293450Y435500D01*
X295700D01*
X299750Y438500D02*X300500Y437750D01*
X298250Y438500D02*X299750D01*
X297500Y437750D02*X298250Y438500D01*
X297500Y437750D02*Y436250D01*
X298250Y435500D01*
X300500Y438500D02*Y436250D01*
X301250Y435500D01*
X298250D02*X299750D01*
X300500Y436250D01*
X303800Y441500D02*Y436250D01*
X304550Y435500D01*
X303050Y439250D02*X304550D01*
X306050Y440000D02*Y439250D01*
Y437750D02*Y435500D01*
X307550Y437750D02*Y436250D01*
Y437750D02*X308300Y438500D01*
X309800D01*
X310550Y437750D01*
Y436250D01*
X309800Y435500D02*X310550Y436250D01*
X308300Y435500D02*X309800D01*
X307550Y436250D02*X308300Y435500D01*
X313100Y437750D02*Y435500D01*
Y437750D02*X313850Y438500D01*
X314600D01*
X315350Y437750D01*
Y435500D01*
X312350Y438500D02*X313100Y437750D01*
X320600Y441500D02*Y435500D01*
X322850Y441500D02*X323600Y440750D01*
Y436250D01*
X322850Y435500D02*X323600Y436250D01*
X319850Y435500D02*X322850D01*
X319850Y441500D02*X322850D01*
X326150Y437750D02*Y435500D01*
Y437750D02*X326900Y438500D01*
X328400D01*
X325400D02*X326150Y437750D01*
X332450Y438500D02*X333200Y437750D01*
X330950Y438500D02*X332450D01*
X330200Y437750D02*X330950Y438500D01*
X330200Y437750D02*Y436250D01*
X330950Y435500D01*
X333200Y438500D02*Y436250D01*
X333950Y435500D01*
X330950D02*X332450D01*
X333200Y436250D01*
X335750Y438500D02*Y436250D01*
X336500Y435500D01*
X337250D01*
X338000Y436250D01*
Y438500D02*Y436250D01*
X338750Y435500D01*
X339500D01*
X340250Y436250D01*
Y438500D02*Y436250D01*
X342050Y440000D02*Y439250D01*
Y437750D02*Y435500D01*
X344300Y437750D02*Y435500D01*
Y437750D02*X345050Y438500D01*
X345800D01*
X346550Y437750D01*
Y435500D01*
X343550Y438500D02*X344300Y437750D01*
X350600Y438500D02*X351350Y437750D01*
X349100Y438500D02*X350600D01*
X348350Y437750D02*X349100Y438500D01*
X348350Y437750D02*Y436250D01*
X349100Y435500D01*
X350600D01*
X351350Y436250D01*
X348350Y434000D02*X349100Y433250D01*
X350600D01*
X351350Y434000D01*
Y438500D02*Y434000D01*
M02*
