G04 start of page 5 for group -4062 idx -4062 *
G04 Title: (unknown), soldermask *
G04 Creator: pcb 20091103 *
G04 CreationDate: Tue Aug 17 22:54:19 2010 UTC *
G04 For: fosse *
G04 Format: Gerber/RS-274X *
G04 PCB-Dimensions: 508500 383000 *
G04 PCB-Coordinate-Origin: lower left *
%MOIN*%
%FSLAX25Y25*%
%LNBACKMASK*%
%ADD15C,0.0200*%
%ADD26C,0.0860*%
%ADD33C,0.1210*%
%ADD34C,0.1835*%
%ADD35C,0.0751*%
%ADD36C,0.0610*%
%ADD37C,0.0660*%
%ADD38C,0.0780*%
%ADD39C,0.2060*%
G54D15*G36*
X120950Y193050D02*Y186950D01*
X127050D01*
Y193050D01*
X120950D01*
G37*
G54D33*X106000Y266000D03*
X126000D03*
G54D15*G36*
X109950Y222050D02*Y209950D01*
X122050D01*
Y222050D01*
X109950D01*
G37*
G54D33*X116000Y201000D03*
G54D15*G36*
X102950Y193050D02*Y186950D01*
X109050D01*
Y193050D01*
X102950D01*
G37*
G54D33*X97500Y216000D03*
X134500D03*
Y201000D03*
X97500D03*
G54D34*X201000Y254083D03*
G54D35*X195882Y239122D03*
G54D34*X227575Y250933D03*
G54D35*X214386Y239122D03*
Y229280D03*
G54D15*G36*
X216450Y193050D02*Y186950D01*
X222550D01*
Y193050D01*
X216450D01*
G37*
G54D34*X174425Y250933D03*
G54D35*X187614Y229280D03*
Y239122D03*
G54D36*X179500Y190000D03*
G54D15*G36*
X177200Y112800D02*Y106200D01*
X183800D01*
Y112800D01*
X177200D01*
G37*
G54D37*X180500Y119500D03*
X134000Y108000D03*
X124000Y138000D03*
G54D15*G36*
X200200Y142800D02*Y136200D01*
X206800D01*
Y142800D01*
X200200D01*
G37*
G54D37*X203500Y129500D03*
X114000Y138000D03*
X104000D03*
Y108000D03*
X114000D03*
G54D36*X124000Y150000D03*
G54D15*G36*
X130700Y141300D02*Y134700D01*
X137300D01*
Y141300D01*
X130700D01*
G37*
G54D37*X124000Y108000D03*
G54D15*G36*
X141450Y160050D02*Y153950D01*
X147550D01*
Y160050D01*
X141450D01*
G37*
G36*
X136450Y153050D02*Y146950D01*
X142550D01*
Y153050D01*
X136450D01*
G37*
G54D36*X106000Y150000D03*
X179500D03*
G54D15*G36*
X272450Y158550D02*Y152450D01*
X278550D01*
Y158550D01*
X272450D01*
G37*
G54D36*X275500Y195500D03*
G54D15*G36*
X253200Y183800D02*Y177200D01*
X259800D01*
Y183800D01*
X253200D01*
G37*
G54D37*X256500Y190500D03*
G54D15*G36*
X257200Y132800D02*Y126200D01*
X263800D01*
Y132800D01*
X257200D01*
G37*
G54D37*X260500Y139500D03*
G54D15*G36*
X282950Y122550D02*Y116450D01*
X289050D01*
Y122550D01*
X282950D01*
G37*
G36*
X285600Y227400D02*Y219600D01*
X293400D01*
Y227400D01*
X285600D01*
G37*
G36*
X238450Y212550D02*Y206450D01*
X244550D01*
Y212550D01*
X238450D01*
G37*
G54D36*X281500Y209500D03*
G54D15*G36*
X294200Y193300D02*Y186700D01*
X300800D01*
Y193300D01*
X294200D01*
G37*
G54D37*X297500Y200000D03*
G54D36*X316500Y203500D03*
G54D38*X299500Y223500D03*
X309500D03*
G54D39*X344500Y245500D03*
G54D36*X174500Y157000D03*
G54D37*X203500Y119500D03*
Y109500D03*
X233500D03*
Y119500D03*
Y129500D03*
Y139500D03*
G54D15*G36*
X216450Y179050D02*Y172950D01*
X222550D01*
Y179050D01*
X216450D01*
G37*
G54D36*X179500Y176000D03*
G54D26*X354500Y221500D03*
X364500D03*
G54D39*X384500Y245500D03*
G54D37*X381500Y158500D03*
G54D15*G36*
X313450Y166550D02*Y160450D01*
X319550D01*
Y166550D01*
X313450D01*
G37*
G36*
X294200Y161800D02*Y155200D01*
X300800D01*
Y161800D01*
X294200D01*
G37*
G54D37*X297500Y168500D03*
X362500Y158500D03*
X381500Y148500D03*
X362500D03*
X381500Y138500D03*
Y128500D03*
G54D36*X326000Y119500D03*
G54D37*X362500Y138500D03*
Y128500D03*
G54D15*G36*
X378200Y171800D02*Y165200D01*
X384800D01*
Y171800D01*
X378200D01*
G37*
G36*
X359200D02*Y165200D01*
X365800D01*
Y171800D01*
X359200D01*
G37*
G36*
X338450Y189050D02*Y182950D01*
X344550D01*
Y189050D01*
X338450D01*
G37*
G54D36*X381500Y186000D03*
G54D15*G36*
X321450Y113550D02*Y107450D01*
X327550D01*
Y113550D01*
X321450D01*
G37*
G54D36*X364500Y110500D03*
M02*
